<svg width="1421" height="1119" xmlns="http://www.w3.org/2000/svg" xmlns:xlink="http://www.w3.org/1999/xlink" overflow="hidden"><defs><clipPath id="clip0"><rect x="788" y="210" width="1421" height="1119"/></clipPath><clipPath id="clip1"><rect x="1100" y="529" width="1100" height="798"/></clipPath><clipPath id="clip2"><rect x="1100" y="529" width="1100" height="798"/></clipPath><clipPath id="clip3"><rect x="1100" y="529" width="1100" height="798"/></clipPath><clipPath id="clip4"><path d="M1800.54 819.047 1802.98 817.643C1806.34 816.104 1810.26 816.483 1813.26 818.636L1810.83 820.041C1807.83 817.888 1803.9 817.508 1800.54 819.047Z" fill-rule="nonzero" clip-rule="nonzero"/></clipPath><clipPath id="clip5"><path d="M2005.88 1062.98 2003.48 1064.39C2006.47 1062.27 2008.1 1058.72 2007.77 1055.07L2010.17 1053.67C2010.5 1057.31 2008.87 1060.86 2005.88 1062.98Z" fill-rule="nonzero" clip-rule="nonzero"/></clipPath><clipPath id="clip6"><path d="M1993.54 925.53 1995.97 924.126C2004.53 929.737 2009.92 939.064 2010.51 949.273L2008.07 950.678C2007.51 940.461 2002.11 931.122 1993.54 925.53Z" fill-rule="nonzero" clip-rule="nonzero"/></clipPath><clipPath id="clip7"><path d="M1473.66 756.114 1476.09 754.709C1479.45 753.171 1483.37 753.55 1486.37 755.703L1483.94 757.108C1480.94 754.955 1477.01 754.575 1473.66 756.114Z" fill-rule="nonzero" clip-rule="nonzero"/></clipPath><clipPath id="clip8"><path d="M1678.99 1000.05 1676.59 1001.46C1679.58 999.335 1681.21 995.785 1680.88 992.138L1683.28 990.733C1683.61 994.38 1681.98 997.931 1678.99 1000.05Z" fill-rule="nonzero" clip-rule="nonzero"/></clipPath><clipPath id="clip9"><path d="M1666.65 862.597 1669.09 861.192C1677.64 866.804 1683.03 876.131 1683.62 886.34L1681.19 887.745C1680.62 877.527 1675.23 868.189 1666.65 862.597Z" fill-rule="nonzero" clip-rule="nonzero"/></clipPath><clipPath id="clip10"><path d="M1475.86 531.705 1478.29 530.3C1481.65 528.761 1485.58 529.141 1488.58 531.294L1486.14 532.699C1483.14 530.546 1479.22 530.166 1475.86 531.705Z" fill-rule="nonzero" clip-rule="nonzero"/></clipPath><clipPath id="clip11"><path d="M1681.2 775.643 1678.8 777.047C1681.78 774.926 1683.42 771.376 1683.08 767.729L1685.48 766.324C1685.82 769.971 1684.18 773.521 1681.2 775.643Z" fill-rule="nonzero" clip-rule="nonzero"/></clipPath><clipPath id="clip12"><path d="M1668.85 638.188 1671.29 636.783C1679.84 642.394 1685.23 651.722 1685.82 661.931L1683.39 663.335C1682.83 653.118 1677.43 643.78 1668.85 638.188Z" fill-rule="nonzero" clip-rule="nonzero"/></clipPath></defs><g clip-path="url(#clip0)" transform="translate(-788 -210)"><path d="M118.264 155.342C103.02 100.976 181.509 50.9083 293.573 43.5131 338.982 40.5165 385.152 44.9961 424.693 56.2351 466.591 17.919 564.499 3.35699 643.376 23.7098 657.169 27.2688 669.827 31.7795 680.957 37.1015 713.589 5.34039 793.072-7.56335 858.488 8.28016 876.593 12.6652 892.387 19.0072 904.656 26.8187 957.252-3.21718 1050.19-6.92735 1112.24 18.5318 1138.32 29.2322 1155.9 43.9909 1161.96 60.2776 1248.14 71.6855 1298.98 114.897 1275.51 156.794 1273.54 160.316 1271.06 163.767 1268.1 167.122 1337.22 210.778 1320.3 273.349 1230.31 306.88 1202.3 317.317 1169.22 324.075 1134.25 326.5 1133.47 373.467 1054.31 411.236 957.426 410.859 925.057 410.733 893.392 406.268 865.934 397.958 833.166 450.614 718.866 480.375 610.639 464.433 565.281 457.751 526.092 443.621 499.755 424.453 388.944 456.882 245.115 439.438 178.504 385.49 177.664 384.81 176.84 384.126 176.029 383.437 103.508 387.556 37.8176 362.448 29.3058 327.356 24.7689 308.652 37.4944 289.931 64.0912 276.181 1.29839 258.245-19.7949 218.876 16.978 188.248 38.1928 170.578 75.4009 158.897 117.16 156.797Z" fill="#FFFFFF" fill-rule="evenodd" fill-opacity="1" transform="matrix(-1 0 0 1 2200.5 217.5)"/><path d="M395.06 525.375C395.06 532.54 389.252 538.348 382.088 538.348 374.923 538.348 369.115 532.54 369.115 525.375 369.115 518.211 374.923 512.403 382.088 512.403 389.252 512.403 395.06 518.211 395.06 525.375Z" fill="#FFFFFF" fill-rule="evenodd" fill-opacity="1" transform="matrix(-1 0 0 1 2200.5 217.5)"/><path d="M424.054 508.24C424.054 522.569 412.438 534.185 398.109 534.185 383.78 534.185 372.164 522.569 372.164 508.24 372.164 493.911 383.78 482.295 398.109 482.295 412.438 482.295 424.054 493.911 424.054 508.24Z" fill="#FFFFFF" fill-rule="evenodd" fill-opacity="1" transform="matrix(-1 0 0 1 2200.5 217.5)"/><path d="M470.768 472.153C470.768 493.646 453.344 511.069 431.851 511.069 410.359 511.069 392.935 493.646 392.935 472.153 392.935 450.66 410.359 433.237 431.851 433.237 453.344 433.237 470.768 450.66 470.768 472.153Z" fill="#FFFFFF" fill-rule="evenodd" fill-opacity="1" transform="matrix(-1 0 0 1 2200.5 217.5)"/><path d="M118.264 155.342C103.02 100.976 181.509 50.9083 293.573 43.5131 338.982 40.5165 385.152 44.9961 424.693 56.2351 466.591 17.919 564.499 3.35699 643.376 23.7098 657.169 27.2688 669.827 31.7795 680.957 37.1015 713.589 5.34039 793.072-7.56335 858.488 8.28016 876.593 12.6652 892.387 19.0072 904.656 26.8187 957.252-3.21718 1050.19-6.92735 1112.24 18.5318 1138.32 29.2322 1155.9 43.9909 1161.96 60.2776 1248.14 71.6855 1298.98 114.897 1275.51 156.794 1273.54 160.316 1271.06 163.767 1268.1 167.122 1337.22 210.778 1320.3 273.349 1230.31 306.88 1202.3 317.317 1169.22 324.075 1134.25 326.5 1133.47 373.467 1054.31 411.236 957.426 410.859 925.057 410.733 893.392 406.268 865.934 397.958 833.166 450.614 718.866 480.375 610.639 464.433 565.281 457.751 526.092 443.621 499.755 424.453 388.944 456.882 245.115 439.438 178.504 385.49 177.664 384.81 176.84 384.126 176.029 383.437 103.508 387.556 37.8176 362.448 29.3058 327.356 24.7689 308.652 37.4944 289.931 64.0912 276.181 1.29839 258.245-19.7949 218.876 16.978 188.248 38.1928 170.578 75.4009 158.897 117.16 156.797Z" stroke="#FFC000" stroke-width="9.16667" stroke-linecap="butt" stroke-linejoin="round" stroke-miterlimit="10" stroke-opacity="1" fill="none" fill-rule="evenodd" transform="matrix(-1 0 0 1 2200.5 217.5)"/><path d="M395.06 525.375C395.06 532.54 389.252 538.348 382.088 538.348 374.923 538.348 369.115 532.54 369.115 525.375 369.115 518.211 374.923 512.403 382.088 512.403 389.252 512.403 395.06 518.211 395.06 525.375Z" stroke="#FFC000" stroke-width="9.16667" stroke-linecap="butt" stroke-linejoin="round" stroke-miterlimit="10" stroke-opacity="1" fill="none" fill-rule="evenodd" transform="matrix(-1 0 0 1 2200.5 217.5)"/><path d="M424.054 508.24C424.054 522.569 412.438 534.185 398.109 534.185 383.78 534.185 372.164 522.569 372.164 508.24 372.164 493.911 383.78 482.295 398.109 482.295 412.438 482.295 424.054 493.911 424.054 508.24Z" stroke="#FFC000" stroke-width="9.16667" stroke-linecap="butt" stroke-linejoin="round" stroke-miterlimit="10" stroke-opacity="1" fill="none" fill-rule="evenodd" transform="matrix(-1 0 0 1 2200.5 217.5)"/><path d="M470.768 472.153C470.768 493.646 453.344 511.069 431.851 511.069 410.359 511.069 392.935 493.646 392.935 472.153 392.935 450.66 410.359 433.237 431.851 433.237 453.344 433.237 470.768 450.66 470.768 472.153Z" stroke="#FFC000" stroke-width="9.16667" stroke-linecap="butt" stroke-linejoin="round" stroke-miterlimit="10" stroke-opacity="1" fill="none" fill-rule="evenodd" transform="matrix(-1 0 0 1 2200.5 217.5)"/><path d="M142.311 282.978C115.504 283.996 88.6991 280.99 65.4965 274.362M210.085 377.264C199.305 379.347 188.005 380.733 176.477 381.388M499.68 422.57C491.572 416.669 484.783 410.363 479.43 403.76M874.152 375.665C872.96 382.664 870.249 389.582 866.066 396.304M1034.93 248.137C1095.71 262.49 1134.07 292.499 1133.53 325.274M1267.49 165.98C1257.64 177.14 1242.61 187.04 1223.58 194.904M1162.14 58.656C1163.82 63.1629 1164.59 67.7375 1164.46 72.3164M881.763 42.7218C887.483 36.4197 895.059 30.5517 904.254 25.3007M671.405 51.0241C673.739 45.816 677.398 40.7691 682.298 35.9996M424.537 56.1265C438.844 60.1931 452.08 65.0877 463.954 70.7027M125.147 170.682C122.024 165.666 119.724 160.538 118.268 155.346" stroke="#FFC000" stroke-width="9.16667" stroke-linecap="butt" stroke-linejoin="round" stroke-miterlimit="10" stroke-opacity="1" fill="none" fill-rule="evenodd" transform="matrix(-1 0 0 1 2200.5 217.5)"/><g clip-path="url(#clip1)"><g clip-path="url(#clip2)"><g clip-path="url(#clip3)"><path d="M20.4752 783.956C54.7362 794.44 94.9252 806.328 85.8802 787.382 76.8352 768.435 44.7666 762.406 25.7171 766.174 14.8562 768.332 20.4751 783.956 20.4751 783.956Z" fill="#93278F" fill-rule="nonzero" fill-opacity="1" transform="matrix(1.00055 0 0 1 1100 529.303)"/><path d="M104.373 739.152C138.12 751.965 177.384 766.561 169.47 747.066 161.555 727.571 129.967 719.348 110.643 721.815 99.7135 723.186 104.373 739.152 104.373 739.152Z" fill="#93278F" fill-rule="nonzero" fill-opacity="1" transform="matrix(1.00055 0 0 1 1100 529.303)"/><path d="M138.219 618.336 138.219 614.293 138.014 610.045C138.014 607.407 137.5 604.015 137.192 600.931 136.883 597.848 136.404 595.347 135.855 592.4 134.777 586.294 133.23 580.281 131.23 574.412 129.211 568.805 126.807 563.345 124.035 558.069 121.671 553.478 119.547 549.538 117.56 545.495L116.052 542.515C115.778 541.863 115.504 541.213 115.162 540.562L114.956 540.082 114.716 539.466 114.271 538.232C113.962 537.376 113.62 536.588 113.346 535.628 110.787 527.247 108.717 518.724 107.144 510.103 106.254 505.546 105.397 500.887 104.609 496.193L102.176 482.489 102.176 481.906C101.011 472.765 92.6564 466.3 83.5155 467.465 75.2818 468.515 69.0716 475.457 68.9424 483.756 68.7368 486.668 68.6341 489.169 68.497 491.842 68.36 494.514 68.497 497.084 68.497 499.722 68.497 504.998 68.497 510.274 68.8738 515.585 69.3602 526.74 70.8509 537.828 73.3278 548.715 73.6361 550.154 74.0816 551.73 74.5269 553.238L75.2122 555.533 75.5548 556.664 76.0002 557.931 77.8504 562.831 79.4265 566.531C81.5507 571.396 83.8805 576.261 85.9018 580.441 87.6217 583.927 89.1431 587.507 90.4586 591.165 91.6352 594.693 92.5626 598.299 93.2338 601.957 93.6106 603.91 93.9876 606.171 94.2959 608.158 94.6042 610.145 94.7755 611.584 94.9125 613.88L95.1866 617.135 95.3922 620.561C95.3922 622.856 95.6663 625.152 95.7348 627.413 96.1459 636.869 96.4201 646.669 96.6599 656.432 97.208 676.03 97.6535 695.935 98.7841 715.669 99.0256 723.832 104.836 730.762 112.831 732.423 122.211 733.66 130.817 727.059 132.054 717.679 132.066 717.592 132.077 717.504 132.087 717.416 133.594 707.344 134.656 697.374 135.513 687.3 136.369 677.228 137.192 667.189 137.74 657.047 138.288 646.906 138.631 636.73 138.596 626.213 138.357 623.712 138.288 621.005 138.22 618.333Z" fill="#6371BC" fill-rule="nonzero" fill-opacity="1" transform="matrix(1.00055 0 0 1 1100 529.303)"/><path d="M78.7206 618.595C77.7444 612.369 76.3247 606.22 74.4722 600.197 72.9305 594.955 71.5258 590.432 70.2581 585.841L69.2988 582.415C69.2988 581.695 68.9562 580.976 68.7506 580.222L68.7506 578.99 68.5108 577.619C68.5108 576.695 68.1682 575.803 68.0654 574.741 67.7571 572.206 67.4829 569.499 67.2774 566.724L74.1297 550.21 71.8342 514.442 66.7636 514.442C66.1366 507.063 61.201 500.756 54.1897 498.373 44.9268 495.735 35.2795 501.106 32.6418 510.369 32.5518 510.685 32.4708 511.003 32.3988 511.324 31.6109 514.236 31.0284 516.771 30.3775 519.512 29.7265 522.253 29.2126 524.891 28.6986 527.564 27.6708 532.977 26.7457 538.424 26.0262 543.975 24.3733 555.569 23.7656 567.288 24.2103 578.99 24.2103 580.532 24.4158 582.245 24.5871 583.889L24.8269 586.39 24.8269 587.658 25.0667 589.029 25.9918 594.51 26.9169 598.656C28.1846 604.138 29.6236 609.62 30.8913 614.416 32.002 618.371 32.8829 622.386 33.5294 626.442 34.0468 630.315 34.2987 634.218 34.2832 638.125L34.2832 644.772C34.2832 646.896 34.2832 648.369 33.8377 650.768L33.4609 654.194 33.0155 657.62C32.7413 660.018 32.433 662.417 32.0562 664.883 30.6515 674.716 29.0412 684.789 27.3967 694.931 24.1761 715.144 20.8185 735.702 18.1804 756.224 16.8347 764.831 21.4463 773.267 29.4181 776.781 38.2399 780.199 48.1623 775.819 51.5804 766.997 51.748 766.564 51.898 766.125 52.0299 765.68 55.456 755.642 58.5396 745.671 61.4517 735.531 64.364 725.389 67.0706 715.249 69.5716 704.936 72.0726 694.623 74.4024 684.379 76.4239 673.519 76.9379 670.846 77.4175 668.071 77.8629 665.33 78.0685 663.925 78.3425 662.589 78.5481 661.15L79.0963 656.73C79.5074 653.99 79.7815 650.426 80.0213 647.172 80.2612 643.917 80.2955 641.279 80.2955 638.127 80.2779 631.586 79.7509 625.057 78.7194 618.598Z" fill="#6371BC" fill-rule="nonzero" fill-opacity="1" transform="matrix(1.00055 0 0 1 1100 529.303)"/><path d="M38.4875 613.027C38.1107 606.174 37.5283 599.768 36.98 594.56 36.4319 589.352 35.9179 584.795 35.4724 580.171L35.1298 576.745 35.1298 569.037C35.1298 566.467 34.9243 563.794 34.8557 560.985L37.254 544.437 36.466 508.566 34.1705 508.566C33.8964 501.165 32.2177 494.656 29.7509 492.428 26.3248 489.516 22.8985 495.306 22.0421 505.414 21.7679 508.36 21.5624 510.896 21.3226 513.637 21.0828 516.378 20.9115 519.016 20.7402 521.722 20.3633 527.17 20.0549 532.617 19.7809 538.168 19.2669 549.303 18.9586 560.609 19.1643 573.32L19.1643 583.357 19.5069 588.873 19.8152 593.019C20.2607 598.535 20.7745 604.017 21.2199 608.813 21.6654 613.61 21.9737 617.344 22.145 620.873 22.3163 624.402 22.4192 628.239 22.4192 632.625L22.4192 639.272C22.4192 641.396 22.4192 642.698 22.2478 645.302L22.2478 652.154C22.2478 654.552 22.0423 656.95 21.9052 659.451 21.3913 669.285 20.8431 679.426 20.2607 689.567 19.1301 709.885 17.9308 730.475 16.8346 751.238 16.4234 759.837 18.0337 768.368 20.8089 771.795 23.5841 775.221 27.6612 770.527 28.7918 760.694 29.9224 750.861 31.0873 740.583 32.2179 730.441 33.3485 720.299 34.2051 710.09 35.0959 699.606 35.9867 689.122 36.7747 678.844 37.4942 668.052 37.4942 665.414 37.8368 662.604 38.0081 659.829 38.0081 658.424 38.0081 657.122 38.248 655.649L38.4536 651.229C38.4536 648.488 38.6591 644.925 38.7619 641.636 38.8642 638.347 38.7619 635.709 38.7619 632.591 38.9332 626.493 38.8306 619.846 38.4878 613.028Z" fill="#6358BC" fill-rule="nonzero" fill-opacity="1" transform="matrix(1.00055 0 0 1 1100 529.303)"/><path d="M186.093 493.117C176.911 485.957 167.832 478.66 158.683 471.362 149.535 464.064 140.627 456.629 131.582 449.262L128.156 446.487 127.196 445.699 126.169 444.774C125.518 444.158 124.832 443.54 124.25 442.89 122.061 440.32 120.013 437.632 118.117 434.838 113.844 429.562 110.189 423.815 107.222 417.708L105.372 413.494C104.755 412.123 104.173 410.753 103.522 409.417L99.7871 401.297C97.3545 395.849 94.7506 390.47 92.1468 385.126 89.1868 378.25 91.8544 370.247 98.3482 366.522 103.879 362.811 111.371 364.286 115.082 369.817 115.354 370.222 115.601 370.644 115.822 371.079 116.043 371.535 116.237 372.004 116.404 372.483 118.357 378.171 120.31 383.858 122.434 389.614L125.552 398.076C126.032 399.481 126.58 400.886 127.128 402.29L128.704 406.368C129.604 408.608 130.681 410.773 131.925 412.843 134.324 417.37 137.679 421.322 141.758 424.423L143.025 425.554 144.327 426.65 147.753 429.46C156.696 436.929 165.706 444.294 174.58 451.832 183.454 459.37 192.396 466.908 201.167 474.548 205.72 478.975 205.917 486.222 201.613 490.891 197.859 495.65 191.033 496.629 186.092 493.118Z" stroke="#C69C6D" stroke-width="1.71305" stroke-linecap="butt" stroke-linejoin="miter" stroke-miterlimit="10" stroke-opacity="1" fill="#C69C6D" fill-rule="nonzero" fill-opacity="1" transform="matrix(1.00055 0 0 1 1100 529.303)"/><path d="M48.2253 364.532C49.0819 364.258 19.1712 372.035 10.538 389.063 1.90482 406.091-6.1133 523.437 6.59799 534.197 19.3093 544.958 59.8398 530.12 59.8398 530.12L114.316 494.865C114.316 494.865 122.984 388.346 114.316 368.714 105.648 349.082 48.2257 364.534 48.2257 364.534Z" fill="#E8C63F" fill-rule="nonzero" fill-opacity="1" transform="matrix(1.00055 0 0 1 1100 529.303)"/><path d="M52.6798 340.706C52.6798 340.706 51.001 366.094 49.7334 369.896 48.4656 373.699 70.2902 373.733 70.2902 373.733L68.2002 327.823Z" stroke="#C69C6D" stroke-width="1.71305" stroke-linecap="butt" stroke-linejoin="miter" stroke-miterlimit="10" stroke-opacity="1" fill="#C69C6D" fill-rule="nonzero" fill-opacity="1" transform="matrix(1.00055 0 0 1 1100 529.303)"/><path d="M32.8676 278.291C32.8676 278.291 10.8372 308.817 24.3022 325.639 37.7668 342.462 56.5418 360.587 65.6554 357.743 74.7689 354.899 110.195 340.03 101.253 307.961 92.3105 275.892 52.2595 255.781 32.8668 278.291Z" stroke="#C69C6D" stroke-width="1.71305" stroke-linecap="butt" stroke-linejoin="miter" stroke-miterlimit="10" stroke-opacity="1" fill="#C69C6D" fill-rule="nonzero" fill-opacity="1" transform="matrix(1.00055 0 0 1 1100 529.303)"/><path d="M90.9446 283.211C90.9446 283.211 73.8142 297.738 58.876 299.52 43.9378 301.301 42.0537 295.888 40.2719 301.301L38.5246 306.714C38.5246 306.714 33.1113 305.721 32.289 308.016 31.4143 311.05 31.4143 314.268 32.289 317.301 33.2483 319.323 43.3897 324.462 43.3897 324.462L42.7731 346.218C42.7731 346.218 25.2658 335.014 19.5785 324.462 13.8911 313.909 20.8462 300.479 25.2659 286.535 29.6856 272.591 37.7028 267.006 43.3896 264.334 49.077 261.661 66.1387 265.636 69.9418 267.246 73.7449 268.856 90.4987 274.132 90.9441 283.212Z" stroke="#000000" stroke-width="1.71305" stroke-linecap="butt" stroke-linejoin="miter" stroke-miterlimit="10" stroke-opacity="1" fill="#000000" fill-rule="nonzero" fill-opacity="1" transform="matrix(1.00055 0 0 1 1100 529.303)"/><path d="M1073.36 671.091C1029.95 678.628 979.447 687.091 992.774 666.808 1006.1 646.526 1045.98 643.579 1069.01 650.294 1082.03 654.063 1073.36 671.09 1073.36 671.09Z" fill="#E9D700" fill-rule="nonzero" fill-opacity="1" transform="matrix(1.00055 0 0 1 1100 529.303)"/><path d="M970.152 619.553C927.394 630.208 877.646 642.234 889.467 621.026 901.287 599.818 940.86 594.097 964.327 599.099 977.586 601.806 970.152 619.554 970.152 619.554Z" fill="#E9D700" fill-rule="nonzero" fill-opacity="1" transform="matrix(1.00055 0 0 1 1100 529.303)"/><path d="M928.715 477.889 928.715 473.298 929.023 468.467C929.023 465.418 929.606 461.615 930.016 458.018 930.428 454.42 930.976 451.679 931.661 448.322 932.982 441.323 934.885 434.447 937.348 427.765 939.84 421.335 942.818 415.105 946.256 409.127 949.134 403.885 951.738 399.431 954.205 394.805L956.055 391.379C956.398 390.625 956.74 389.906 957.117 389.152L957.425 388.604 957.699 387.919 958.247 386.48C958.624 385.521 959.036 384.63 959.412 383.5 962.545 373.958 965.086 364.232 967.018 354.377 968.149 349.204 969.177 343.893 970.171 338.548L973.151 322.719 973.151 321.999C974.591 310.737 984.888 302.775 996.149 304.215 1006.24 305.506 1013.87 313.985 1014.09 324.157 1014.37 327.583 1014.5 330.324 1014.64 333.374 1014.78 336.423 1014.64 339.369 1014.85 342.384 1014.85 348.38 1014.85 354.41 1014.4 360.474 1013.78 373.185 1011.94 385.806 1008.89 398.162 1008.49 399.9 1008 401.616 1007.41 403.301L1006.59 405.905 1006.18 407.207 1005.63 408.611 1003.34 414.23 1001.38 418.479C998.746 424.029 995.936 429.545 993.401 434.341 991.289 438.304 989.412 442.388 987.782 446.573 986.338 450.583 985.193 454.694 984.356 458.872 983.877 461.1 983.431 463.703 983.02 465.965 982.609 468.226 982.437 469.87 982.266 472.509L981.958 476.209 981.683 480.115C981.513 482.718 981.34 485.357 981.272 488.098 980.724 498.89 980.416 510.024 980.106 521.228 979.455 543.567 978.907 566.282 977.537 588.792 978.095 600.145 969.344 609.801 957.99 610.359 946.637 610.917 936.981 602.166 936.423 590.813 934.539 579.301 933.237 567.927 932.038 556.552 930.839 545.177 929.982 533.597 929.297 522.017 928.612 510.436 928.2 498.822 928.235 486.865 928.543 484.021 928.612 480.972 928.714 477.888Z" fill="#743700" fill-rule="nonzero" fill-opacity="1" transform="matrix(1.00055 0 0 1 1100 529.303)"/><path d="M1001.88 478.407C1003.1 471.283 1004.87 464.262 1007.15 457.405 1009.04 451.409 1010.79 446.27 1012.36 441.028L1013.53 437.122C1013.73 436.3 1013.94 435.478 1014.18 434.621L1014.38 434.005 1014.38 433.216 1014.66 431.64C1014.66 430.578 1015.07 429.585 1015.21 428.214 1015.58 425.302 1015.89 422.253 1016.17 419.066L1007.77 400.223 1010.58 359.417 1016.85 359.417C1018.31 347.529 1029.13 339.075 1041.02 340.534 1049.62 341.591 1056.77 347.669 1059.2 355.991 1060.16 359.417 1060.91 362.227 1061.7 365.344 1062.49 368.462 1063.1 371.477 1063.75 374.561 1064.99 380.728 1066.15 386.929 1067.18 393.233 1069.22 406.457 1069.96 419.848 1069.41 433.217 1069.41 434.964 1069.17 436.917 1068.96 438.801L1068.65 441.679 1068.65 443.118 1068.38 444.66 1067.22 450.896 1066.08 455.658C1064.54 461.928 1062.66 468.163 1061.19 473.611 1059.77 478.106 1058.63 482.682 1057.76 487.315 1057.13 491.729 1056.82 496.183 1056.83 500.642L1056.83 508.214C1056.83 510.612 1056.83 512.325 1057.38 515.066L1057.83 518.938 1058.55 522.946C1058.92 525.687 1059.27 528.428 1059.75 531.237 1061.46 542.441 1063.48 553.953 1065.47 565.498 1069.44 588.591 1073.59 612.06 1076.84 635.46 1078.54 647.298 1070.32 658.27 1058.48 659.968 1048.4 661.414 1038.67 655.632 1035.11 646.081 1030.8 634.638 1027.1 623.228 1023.5 611.82 1019.9 600.411 1016.65 588.659 1013.49 576.908 1010.34 565.156 1007.57 553.302 1005.1 541.036 1004.45 537.987 1003.9 534.835 1003.35 531.683 1003.08 530.072 1002.77 528.565 1002.5 526.92L1001.81 521.884C1001.3 518.766 1000.99 514.689 1000.68 510.989 1000.37 507.289 1000.34 504.137 1000.34 500.71 1000.25 493.246 1000.76 485.787 1001.88 478.407Z" fill="#743700" fill-rule="nonzero" fill-opacity="1" transform="matrix(1.00055 0 0 1 1100 529.303)"/><path d="M822.013 235.999C835.718 236.992 849.046 237.815 862.579 238.568 876.112 239.322 889.612 239.973 903.145 240.692L908.216 240.967 911.265 240.967C912.295 240.962 913.324 240.905 914.349 240.796 925.848 238.875 937.146 235.893 948.096 231.888L952.789 229.627C954.331 228.873 955.873 228.119 957.415 227.434L966.665 223.117C972.832 220.205 979.034 217.464 985.303 214.757 992.737 211.537 996.232 201.772 993.08 192.966 989.928 184.161 981.397 179.604 973.962 182.688L972.386 183.51C966.516 187.074 960.6 190.5 954.639 193.789L945.697 198.86C944.224 199.715 942.716 200.573 941.243 201.361L936.823 203.793C934.384 205.072 931.839 206.138 929.217 206.979 926.42 207.977 923.543 208.734 920.618 209.241 917.738 209.535 914.839 209.592 911.95 209.412L908.009 209.412 902.939 209.206C889.235 208.658 875.906 207.973 862.373 207.561 848.84 207.149 835.34 206.67 821.842 206.396 814.99 206.396 809.405 212.734 809.645 220.82 809.292 228.294 814.622 234.835 822.013 235.997Z" fill="#FFE3AA" fill-rule="nonzero" fill-opacity="1" transform="matrix(1.00055 0 0 1 1100 529.303)"/><path d="M1039.69 188.346C1038.59 188.038 1075.46 196.945 1086.32 216.372 1097.18 235.798 1106.88 369.69 1091.15 381.953 1075.42 394.216 1025.57 377.293 1025.57 377.293L958.456 337.104C958.456 337.104 947.732 215.545 958.456 193.213 969.18 170.874 1039.69 188.348 1039.69 188.348Z" fill="#FF94FF" fill-rule="nonzero" fill-opacity="1" transform="matrix(1.00055 0 0 1 1100 529.303)"/><path d="M1034.25 161.152C1034.25 161.152 1036.27 190.103 1037.68 194.455 1039.08 198.807 1012.39 198.806 1012.39 198.806L1014.96 146.42Z" fill="#FFE3AA" fill-rule="nonzero" fill-opacity="1" transform="matrix(1.00055 0 0 1 1100 529.303)"/><path d="M1052.51 90.7115C1052.51 90.7115 1078.38 125.726 1062.79 144.811 1047.2 163.894 1025.61 184.348 1014.82 181.024 1004.03 177.701 962.778 160.467 973.056 123.944 983.334 87.4225 1029.79 64.7407 1052.51 90.7115Z" fill="#FFE3AA" fill-rule="nonzero" fill-opacity="1" transform="matrix(1.00055 0 0 1 1100 529.303)"/><path d="M940.757 352.412C954.461 344.977 967.859 337.371 981.323 329.731 994.788 322.091 1008.18 314.279 1021.61 306.57L1026.62 303.658 1028.06 302.802 1029.63 301.809C1030.59 301.124 1031.62 300.473 1032.48 299.753 1035.82 296.851 1038.99 293.75 1041.97 290.468 1048.51 284.437 1054.27 277.599 1059.1 270.118L1062.18 264.978C1063.17 263.3 1064.2 261.552 1065.23 260.01L1071.4 250.075C1075.47 243.428 1079.69 236.885 1083.97 230.374 1089.07 222.631 1086.23 210.982 1077.63 204.369 1069.03 197.757 1057.97 198.716 1052.86 206.493 1052.5 207.045 1052.17 207.617 1051.87 208.207 1048.44 215.333 1045.02 222.425 1041.59 229.38L1036.24 239.864C1035.35 241.645 1034.46 243.29 1033.54 245.106L1030.83 250.176C1029.28 252.928 1027.52 255.551 1025.56 258.022 1023.5 260.723 1021.21 263.234 1018.7 265.525 1016.13 267.607 1013.39 269.474 1010.51 271.11L1008.63 272.309 1006.68 273.475 1001.68 276.421C988.348 284.301 974.951 292.044 961.727 300.061 948.502 308.078 935.175 315.992 922.052 324.044 915.2 328.258 914.137 337.748 919.482 345.594 924.827 353.44 934.009 356.078 940.759 352.412Z" fill="#FFE3AA" fill-rule="nonzero" fill-opacity="1" transform="matrix(1.00055 0 0 1 1100 529.303)"/><path d="M995.273 108.452C986.914 108.452 986.914 108.452 984.995 104.306 983.076 100.161 994.725 87.4841 1013.88 81.385 1033.03 75.2865 1060.47 83.4749 1063.49 86.627 1066.5 89.7789 1079.9 111.261 1078.46 115.063 1077.02 118.866 1072.81 125.033 1072.81 133.324 1073.52 140.843 1075.46 148.194 1078.56 155.08 1079.08 156.142 1080.14 158.506 1078.56 164.502 1076.99 170.498 1071.4 177.419 1072.09 181.291 1072.77 185.162 1084.87 197.462 1081.95 197.565 1079.04 197.669 1074.11 202.053 1074.11 202.053L1038 186.944 1035.63 175.809C1035.63 175.809 1047.52 170.67 1047.52 162.379 1047.52 154.087 1047.73 147.646 1047.73 147.646 1047.73 147.646 1054.58 151.278 1055.3 145.419 1056.02 139.561 1062.15 122.978 1055.88 122.978 1049.61 122.978 1049.61 125.034 1049.61 125.034 1043.34 112.597 995.273 108.451 995.273 108.451Z" fill="#FFFA7A" fill-rule="nonzero" fill-opacity="1" transform="matrix(1.00055 0 0 1 1100 529.303)"/><path d="M814.244 221.625 950.728 332.341" stroke="#00FF00" stroke-width="6.85231" stroke-linecap="butt" stroke-linejoin="miter" stroke-miterlimit="10" stroke-opacity="1" fill="#00FF00" fill-rule="nonzero" fill-opacity="1" transform="matrix(1.00055 0 0 1 1100 529.303)"/><path d="M5583.16 3029.62 5569.11 3046.93 5593.1 3052.03Z" stroke="#00FF00" stroke-width="3.42609" stroke-linecap="butt" stroke-linejoin="miter" stroke-miterlimit="10" stroke-opacity="1" fill="#00FF00" fill-rule="nonzero" fill-opacity="1" transform="matrix(1.00055 0 0 1 -3538.24 -2185.36)"/><path d="M1057.04 499.773C1057.38 493.401 1058 487.508 1058.55 482.643 1059.1 477.778 1059.58 473.598 1060.02 469.316L1060.36 466.164 1060.57 464.108 1060.57 459.002C1060.57 456.638 1060.78 454.137 1060.85 451.533L1058.45 436.185 1059.27 402.951 1061.05 402.951C1061.33 396.099 1063 390.069 1065.5 388.013 1068.93 385.306 1072.36 390.685 1073.18 400.038 1073.49 402.779 1073.69 405.143 1073.9 407.644L1074.52 415.148C1074.86 420.184 1075.2 425.426 1075.44 430.394 1075.95 440.672 1076.3 451.19 1076.09 462.942L1076.09 472.295 1075.75 477.366 1075.41 481.237C1074.99 486.342 1074.48 491.516 1074 495.867 1073.52 500.218 1073.25 503.782 1073.08 507.036 1072.91 510.291 1072.84 513.889 1072.8 517.932L1072.8 536.261C1072.8 538.488 1073.01 540.681 1073.14 543.113 1073.62 552.227 1074.21 561.615 1074.75 571.002 1075.92 589.846 1077.08 608.929 1078.18 628.013 1078.56 636.031 1076.98 644.013 1074.21 646.961 1071.43 649.907 1067.35 645.795 1066.22 636.682 1065.09 627.569 1063.93 618.044 1062.8 608.656 1061.67 599.269 1060.81 589.778 1059.95 580.22 1059.1 570.661 1058.24 560.999 1057.52 550.995 1057.52 548.528 1057.18 545.924 1057.04 543.355 1057.04 542.053 1057.04 540.819 1056.8 539.483L1056.6 535.406C1056.6 532.836 1056.36 529.547 1056.25 526.498 1056.15 523.449 1056.25 521.016 1056.25 518.104 1056.56 512.245 1056.67 506.078 1057.04 499.774Z" fill="#5D2300" fill-rule="nonzero" fill-opacity="1" transform="matrix(1.00055 0 0 1 1100 529.303)"/><path d="M5032.93 3118.05 5128.17 3071.46 5131.26 3077.42 5033.96 3125.14 5032.93 3123.12Z" fill="#00FE00" fill-rule="nonzero" fill-opacity="1" transform="matrix(1.00055 0 0 1 -3353.1 -2185.36)"/><path d="M5032.93 3118.05 5034.98 3116.65 5130.57 3070.05 5128.17 3071.46Z" fill="#008000" fill-rule="nonzero" fill-opacity="1" transform="matrix(1.00055 0 0 1 -3353.1 -2185.36)"/><path d="M5122.01 3060.36 5124.41 3058.95 5148.39 3064.84 5145.99 3066.25Z" fill="#008100" fill-rule="nonzero" fill-opacity="1" transform="matrix(1.00055 0 0 1 -3353.1 -2185.36)"/><path d="M5145.99 3066.25 5148.39 3064.84 5139.48 3086.77 5137.08 3088.18Z" fill="#008500" fill-rule="nonzero" fill-opacity="1" transform="matrix(1.00055 0 0 1 -3353.1 -2185.36)"/><path d="M5031.56 2893.51 5033.96 2892.1 5132.29 3037.64 5129.54 3039.05Z" fill="#008A00" fill-rule="nonzero" fill-opacity="1" transform="matrix(1.00055 0 0 1 -3353.1 -2185.36)"/><path d="M5031.56 2893.51 5129.54 3039.05 5126.8 3041.99 5031.56 2900.6Z" fill="#00FE00" fill-rule="nonzero" fill-opacity="1" transform="matrix(1.00055 0 0 1 -3353.1 -2185.36)"/><path d="M5134.68 3034.01 5137.08 3032.61 5147.7 3063.37 5145.31 3064.78Z" fill="#008B00" fill-rule="nonzero" fill-opacity="1" transform="matrix(1.00055 0 0 1 -3353.1 -2185.36)"/><g clip-path="url(#clip4)"><path d="M5150.79 3004.41 5153.22 3003C5156.57 3001.47 5160.5 3001.84 5163.5 3004L5161.06 3005.4C5158.07 3003.25 5154.14 3002.87 5150.79 3004.41" fill="#000000" fill-rule="nonzero" fill-opacity="1" transform="matrix(1.00055 0 0 1 -3353.1 -2185.36)"/></g><g clip-path="url(#clip5)"><path d="M5357.72 3240.43 5360.12 3239.03C5360.46 3242.67 5358.82 3246.23 5355.84 3248.35L5353.44 3249.75C5356.43 3247.63 5358.06 3244.08 5357.72 3240.43" fill="#000000" fill-rule="nonzero" fill-opacity="1" transform="matrix(1.00055 0 0 1 -3353.1 -2185.36)"/></g><path d="M5358.07 3135.87 5360.46 3134.46 5360.12 3238.99 5357.72 3240.4Z" fill="#894E00" fill-rule="nonzero" fill-opacity="1" transform="matrix(1.00055 0 0 1 -3353.1 -2185.36)"/><path d="M5161.06 3005.4 5163.81 3004 5346.07 3109.32 5343.68 3110.72Z" fill="#844C00" fill-rule="nonzero" fill-opacity="1" transform="matrix(1.00055 0 0 1 -3353.1 -2185.36)"/><path d="M893.079 396.18C901.648 401.772 907.042 411.11 907.605 421.327L907.33 525.893C907.33 535.109 900.718 538.844 892.7 534.219L710.298 428.899C701.71 423.304 696.302 413.951 695.737 403.717L696.045 299.186C696.045 289.97 702.658 286.236 710.675 290.861Z" fill="#FE9100" fill-rule="nonzero" fill-opacity="1" transform="matrix(1.00055 0 0 1 1100 529.303)"/><g clip-path="url(#clip6)"><path d="M5343.68 3110.89 5346.11 3109.49C5354.66 3115.1 5360.05 3124.43 5360.63 3134.63L5358.2 3136.04C5357.64 3125.82 5352.25 3116.48 5343.68 3110.89" fill="#000000" fill-rule="nonzero" fill-opacity="1" transform="matrix(1.00055 0 0 1 -3353.1 -2185.36)"/></g><g clip-path="url(#clip7)"><path d="M5150.79 3004.41 5153.22 3003C5156.57 3001.47 5160.5 3001.84 5163.5 3004L5161.06 3005.4C5158.07 3003.25 5154.14 3002.87 5150.79 3004.41" fill="#000000" fill-rule="nonzero" fill-opacity="1" transform="matrix(1.00055 0 0 1 -3679.99 -2248.29)"/></g><g clip-path="url(#clip8)"><path d="M5357.72 3240.43 5360.12 3239.03C5360.46 3242.67 5358.82 3246.23 5355.84 3248.35L5353.44 3249.75C5356.43 3247.63 5358.06 3244.08 5357.72 3240.43" fill="#000000" fill-rule="nonzero" fill-opacity="1" transform="matrix(1.00055 0 0 1 -3679.99 -2248.29)"/></g><path d="M5357.72 3240.4 5358.07 3135.87 5360.46 3134.46 5360.12 3238.99Z" fill="#894E00" fill-rule="nonzero" fill-opacity="1" transform="matrix(1.00055 0 0 1 -3679.99 -2248.29)"/><path d="M5343.68 3110.72 5161.06 3005.4 5163.81 3004 5346.07 3109.32Z" fill="#844C00" fill-rule="nonzero" fill-opacity="1" transform="matrix(1.00055 0 0 1 -3679.99 -2248.29)"/><path d="M566.241 333.247C574.811 338.839 580.205 348.177 580.768 358.394L580.493 462.96C580.493 472.176 573.881 475.911 565.863 471.286L383.461 365.966C374.873 360.371 369.465 351.018 368.9 340.784L369.208 236.253C369.208 227.037 375.821 223.303 383.838 227.927Z" fill="#FE9100" fill-rule="nonzero" fill-opacity="1" transform="matrix(1.00055 0 0 1 1100 529.303)"/><g clip-path="url(#clip9)"><path d="M5343.68 3110.89 5346.11 3109.49C5354.66 3115.1 5360.05 3124.43 5360.63 3134.63L5358.2 3136.04C5357.64 3125.82 5352.25 3116.48 5343.68 3110.89" fill="#000000" fill-rule="nonzero" fill-opacity="1" transform="matrix(1.00055 0 0 1 -3679.99 -2248.29)"/></g><g clip-path="url(#clip10)"><path d="M5150.79 3004.41 5153.22 3003C5156.57 3001.47 5160.5 3001.84 5163.5 3004L5161.06 3005.4C5158.07 3003.25 5154.14 3002.87 5150.79 3004.41" fill="#000000" fill-rule="nonzero" fill-opacity="1" transform="matrix(1.00055 0 0 1 -3677.78 -2472.7)"/></g><g clip-path="url(#clip11)"><path d="M5357.72 3240.43 5360.12 3239.03C5360.46 3242.67 5358.82 3246.23 5355.84 3248.35L5353.44 3249.75C5356.43 3247.63 5358.06 3244.08 5357.72 3240.43" fill="#000000" fill-rule="nonzero" fill-opacity="1" transform="matrix(1.00055 0 0 1 -3677.78 -2472.7)"/></g><path d="M5357.72 3240.4 5358.07 3135.87 5360.46 3134.46 5360.12 3238.99Z" fill="#894E00" fill-rule="nonzero" fill-opacity="1" transform="matrix(1.00055 0 0 1 -3677.78 -2472.7)"/><path d="M5343.68 3110.72 5161.06 3005.4 5163.81 3004 5346.07 3109.32Z" fill="#844C00" fill-rule="nonzero" fill-opacity="1" transform="matrix(1.00055 0 0 1 -3677.78 -2472.7)"/><path d="M568.572 108.84C577.142 114.432 582.536 123.771 583.099 133.988L582.824 238.554C582.824 247.77 576.212 251.504 568.194 246.879L385.792 141.56C377.204 135.965 371.796 126.612 371.231 116.377L371.539 11.8464C371.539 2.63011 378.151-1.10405 386.169 3.52088Z" fill="#FE9100" fill-rule="nonzero" fill-opacity="1" transform="matrix(1.00055 0 0 1 1100 529.303)"/><g clip-path="url(#clip12)"><path d="M5343.68 3110.89 5346.11 3109.49C5354.66 3115.1 5360.05 3124.43 5360.63 3134.63L5358.2 3136.04C5357.64 3125.82 5352.25 3116.48 5343.68 3110.89" fill="#000000" fill-rule="nonzero" fill-opacity="1" transform="matrix(1.00055 0 0 1 -3677.78 -2472.7)"/></g><path d="M121.86 464.037C133.214 464.037 142.419 473.241 142.419 484.596L142.419 612.847C142.419 624.201 133.214 633.406 121.86 633.406L-135.302 633.406C-146.657 633.406-155.862 624.201-155.862 612.847L-155.862 484.596C-155.862 473.241-146.657 464.037-135.302 464.037Z" fill="#FF9200" fill-rule="nonzero" fill-opacity="1" transform="matrix(0.887236 -0.462004 0.46226 0.886745 1100 529.303)"/><path d="M121.168 528.469C110.067 520.703 99.0577 512.834 88.1398 504.862 77.142 496.982 66.2816 488.896 55.3512 480.879L51.2742 477.864 50.1093 476.973 48.8416 475.98C48.0536 475.295 47.2313 474.644 46.5461 473.924 43.8698 471.122 41.3533 468.17 39.0086 465.085 33.7083 459.295 29.1086 452.901 25.3045 446.035L22.9748 441.376C22.221 439.868 21.4331 438.361 20.645 436.853L15.9512 427.842C12.8334 421.778 9.57863 415.817 6.28954 409.89 2.56306 402.222 5.44432 392.978 12.8677 388.785 19.5257 384.241 28.6064 385.955 33.15 392.613 33.305 392.841 33.4535 393.072 33.5955 393.308 33.8744 393.819 34.126 394.345 34.3492 394.884 36.8504 401.222 39.4199 407.56 42.0923 413.831L46.1009 423.253C46.7518 424.829 47.4371 426.37 48.1222 427.946L50.1436 432.469C51.3116 434.964 52.6629 437.369 54.1865 439.664 57.2248 444.714 61.3289 449.04 66.2122 452.34L67.754 453.573 69.3643 454.772 73.4072 457.822C84.2337 465.942 95.1294 473.924 105.886 482.147 116.644 490.369 127.436 498.49 138.092 506.815 143.476 511.437 144.093 519.549 139.471 524.932 139.39 525.027 139.307 525.121 139.223 525.213 134.925 530.761 127.131 532.166 121.166 528.468Z" stroke="#C69C6D" stroke-width="1.71305" stroke-linecap="butt" stroke-linejoin="miter" stroke-miterlimit="10" stroke-opacity="1" fill="#C69C6D" fill-rule="nonzero" fill-opacity="1" transform="matrix(1.00055 0 0 1 1100 529.303)"/><path d="M695.345 351.635 686.608 373.562 671.395 345.742Z" fill="#99FF99" fill-rule="nonzero" fill-opacity="1" transform="matrix(1.00055 0 0 1 1100 529.303)"/><path d="M682.007 365.102C673.948 350.362 672.835 348.325 672.131 347.044 671.751 346.353 671.444 345.783 671.451 345.775 671.451 345.775 676.816 347.081 683.361 348.691 694.499 351.431 695.259 351.625 695.24 351.719 695.201 351.809 686.62 373.414 686.59 373.444 686.59 373.444 684.52 369.697 682.008 365.101Z" fill="#00FE00" fill-rule="nonzero" fill-opacity="1" transform="matrix(1.00055 0 0 1 1100 529.303)"/><path d="M683.949 319.262C684.579 318.787 694.697 349.995 694.677 350.09 694.638 350.181 679.435 339.272 668.503 331.882 668.503 331.882 681.851 320.845 683.949 319.262Z" fill="#00FE00" fill-rule="nonzero" fill-opacity="1" transform="matrix(1.00055 0 0 1 1100 529.303)"/></g></g></g><path d="M922.34 383.842C905.991 329.476 990.172 279.408 1110.36 272.013 1159.07 269.017 1208.58 273.496 1250.99 284.735 1295.93 246.419 1400.94 231.857 1485.53 252.21 1500.33 255.769 1513.9 260.28 1525.84 265.602 1560.84 233.84 1646.09 220.937 1716.24 236.78 1735.66 241.165 1752.6 247.507 1765.76 255.319 1822.17 225.283 1921.85 221.573 1988.4 247.032 2016.37 257.732 2035.22 272.491 2041.72 288.778 2134.15 300.186 2188.68 343.398 2163.51 385.294 2161.39 388.816 2158.74 392.268 2155.57 395.623 2229.69 439.278 2211.55 501.849 2115.03 535.38 2084.99 545.817 2049.51 552.575 2012.01 555.001 2011.17 601.967 1926.26 639.736 1822.36 639.359 1787.64 639.233 1753.68 634.768 1724.23 626.458 1689.09 679.114 1566.5 708.876 1450.42 692.933 1401.78 686.251 1359.74 672.121 1331.5 652.953 1212.65 685.382 1058.39 667.938 986.949 613.99 986.048 613.31 985.164 612.626 984.295 611.937 906.514 616.056 836.06 590.948 826.931 555.856 822.065 537.152 835.713 518.431 864.239 504.681 796.892 486.745 774.27 447.376 813.709 416.748 836.462 399.078 876.369 387.397 921.157 385.297Z" fill="#FFFFFF" fill-rule="evenodd" fill-opacity="1"/><path d="M1218.27 753.876C1218.27 761.04 1212.46 766.849 1205.3 766.849 1198.13 766.849 1192.32 761.04 1192.32 753.876 1192.32 746.711 1198.13 740.903 1205.3 740.903 1212.46 740.903 1218.27 746.711 1218.27 753.876Z" fill="#FFFFFF" fill-rule="evenodd" fill-opacity="1"/><path d="M1248.64 736.528C1248.64 750.857 1237.02 762.473 1222.69 762.473 1208.36 762.473 1196.75 750.857 1196.75 736.528 1196.75 722.2 1208.36 710.584 1222.69 710.584 1237.02 710.584 1248.64 722.2 1248.64 736.528Z" fill="#FFFFFF" fill-rule="evenodd" fill-opacity="1"/><path d="M1297.37 700.864C1297.37 722.357 1279.95 739.781 1258.46 739.781 1236.96 739.781 1219.54 722.357 1219.54 700.864 1219.54 679.371 1236.96 661.947 1258.46 661.947 1279.95 661.947 1297.37 679.371 1297.37 700.864Z" fill="#FFFFFF" fill-rule="evenodd" fill-opacity="1"/><path d="M922.34 383.842C905.991 329.476 990.172 279.408 1110.36 272.013 1159.07 269.017 1208.58 273.496 1250.99 284.735 1295.93 246.419 1400.94 231.857 1485.53 252.21 1500.33 255.769 1513.9 260.28 1525.84 265.602 1560.84 233.84 1646.09 220.937 1716.24 236.78 1735.66 241.165 1752.6 247.507 1765.76 255.319 1822.17 225.283 1921.85 221.573 1988.4 247.032 2016.37 257.732 2035.22 272.491 2041.72 288.778 2134.15 300.186 2188.68 343.398 2163.51 385.294 2161.39 388.816 2158.74 392.268 2155.57 395.623 2229.69 439.278 2211.55 501.849 2115.03 535.38 2084.99 545.817 2049.51 552.575 2012.01 555.001 2011.17 601.967 1926.26 639.736 1822.36 639.359 1787.64 639.233 1753.68 634.768 1724.23 626.458 1689.09 679.114 1566.5 708.876 1450.42 692.933 1401.78 686.251 1359.74 672.121 1331.5 652.953 1212.65 685.382 1058.39 667.938 986.949 613.99 986.048 613.31 985.164 612.626 984.295 611.937 906.514 616.056 836.06 590.948 826.931 555.856 822.065 537.152 835.713 518.431 864.239 504.681 796.892 486.745 774.27 447.376 813.709 416.748 836.462 399.078 876.369 387.397 921.157 385.297Z" stroke="#FFC000" stroke-width="9.16667" stroke-linecap="butt" stroke-linejoin="round" stroke-miterlimit="10" stroke-opacity="1" fill="none" fill-rule="evenodd"/><path d="M1218.27 753.876C1218.27 761.04 1212.46 766.849 1205.3 766.849 1198.13 766.849 1192.32 761.04 1192.32 753.876 1192.32 746.711 1198.13 740.903 1205.3 740.903 1212.46 740.903 1218.27 746.711 1218.27 753.876Z" stroke="#FFC000" stroke-width="9.16667" stroke-linecap="butt" stroke-linejoin="round" stroke-miterlimit="10" stroke-opacity="1" fill="none" fill-rule="evenodd"/><path d="M1248.64 736.528C1248.64 750.857 1237.02 762.473 1222.69 762.473 1208.36 762.473 1196.75 750.857 1196.75 736.528 1196.75 722.2 1208.36 710.584 1222.69 710.584 1237.02 710.584 1248.64 722.2 1248.64 736.528Z" stroke="#FFC000" stroke-width="9.16667" stroke-linecap="butt" stroke-linejoin="round" stroke-miterlimit="10" stroke-opacity="1" fill="none" fill-rule="evenodd"/><path d="M1297.37 700.864C1297.37 722.357 1279.95 739.781 1258.46 739.781 1236.96 739.781 1219.54 722.357 1219.54 700.864 1219.54 679.371 1236.96 661.947 1258.46 661.947 1279.95 661.947 1297.37 679.371 1297.37 700.864Z" stroke="#FFC000" stroke-width="9.16667" stroke-linecap="butt" stroke-linejoin="round" stroke-miterlimit="10" stroke-opacity="1" fill="none" fill-rule="evenodd"/><path d="M948.131 511.478C919.38 512.497 890.631 509.49 865.746 502.862M1020.82 605.765C1009.26 607.847 997.139 609.233 984.775 609.888M1331.42 651.07C1322.72 645.169 1315.44 638.863 1309.7 632.26M1733.04 604.165C1731.77 611.164 1728.86 618.082 1724.37 624.804M1905.48 476.637C1970.67 490.99 2011.81 521 2011.23 553.774M2154.9 394.48C2144.35 405.64 2128.23 415.54 2107.82 423.404M2041.92 287.156C2043.72 291.663 2044.55 296.238 2044.4 300.816M1741.21 271.222C1747.34 264.92 1755.47 259.052 1765.33 253.801M1515.59 279.524C1518.1 274.316 1522.02 269.269 1527.28 264.5M1250.82 284.627C1266.17 288.693 1280.36 293.588 1293.1 299.203M929.723 399.182C926.373 394.166 923.906 389.038 922.345 383.846" stroke="#FFC000" stroke-width="9.16667" stroke-linecap="butt" stroke-linejoin="round" stroke-miterlimit="10" stroke-opacity="1" fill="none" fill-rule="evenodd"/><text fill="#00B050" fill-opacity="1" font-family="Arial,Arial_MSFontService,sans-serif" font-style="normal" font-variant="normal" font-weight="400" font-stretch="normal" font-size="92" text-anchor="start" direction="ltr" writing-mode="lr-tb" unicode-bidi="normal" text-decoration="none" transform="matrix(1 0 0 1 992.918 429)">What should one know to <tspan fill="#00B050" fill-opacity="1" font-family="Arial,Arial_MSFontService,sans-serif" font-style="normal" font-variant="normal" font-weight="400" font-stretch="normal" font-size="92" text-anchor="start" direction="ltr" writing-mode="lr-tb" unicode-bidi="normal" text-decoration="none" x="40.6771" y="110">learn what I’m sharing?</tspan></text></g></svg>