<?xml version="1.0" encoding="UTF-8"?>
<svg width="84.902mm" height="61.579mm" version="1.1" viewBox="0 0 84.900435 61.578759" xmlns="http://www.w3.org/2000/svg">
<defs>
<clipPath id="d" transform="translate(0)">
<path class="cls-1" d="m1503.4 876.92 0.71-0.41a3 3 0 0 1 3 0.29l-0.71 0.41a3 3 0 0 0 -3 -0.29z"/>
</clipPath>
<clipPath id="e" transform="translate(0)">
<path class="cls-1" d="m1563.3 948.12-0.7 0.41a3 3 0 0 0 1.25 -2.72l0.7-0.41a3 3 0 0 1 -1.25 2.72z"/>
</clipPath>
<clipPath id="f" transform="translate(0)">
<path class="cls-1" d="m1559.7 908 0.71-0.41a9.43 9.43 0 0 1 4.24 7.34l-0.71 0.41a9.38 9.38 0 0 0 -4.24 -7.34z"/>
</clipPath>
</defs>
<path class="cls-35" d="m1.5812 60.541c2.6458 0.80963 5.7494 1.7277 5.0509 0.26459-0.6985-1.4632-3.175-1.9288-4.6461-1.6378-0.83873 0.16668-0.40481 1.3732-0.40481 1.3732z" fill="#93278f" stroke-width=".26458"/>
<path class="cls-35" d="m8.0602 57.081c2.6061 0.98954 5.6383 2.1167 5.0271 0.61119-0.61119-1.5055-3.0506-2.1405-4.5429-1.95-0.84402 0.10583-0.48419 1.3388-0.48419 1.3388z" fill="#93278f" stroke-width=".26458"/>
<path class="cls-36" d="m10.674 47.751v-0.31221l-0.01588-0.32808c0-0.20373-0.03969-0.46567-0.0635-0.70379-0.02381-0.23813-0.06085-0.43127-0.10319-0.65882a9.3451 9.3451 0 0 0 -0.35719 -1.3891 9.9907 9.9907 0 0 0 -0.55562 -1.2621c-0.18256-0.35454-0.3466-0.65881-0.50006-0.97102l-0.11642-0.23019c-0.02117-0.0503-0.04233-0.10054-0.06879-0.15081l-0.01587-0.037-0.01852-0.0476-0.0344-0.0953c-0.02381-0.0661-0.05027-0.127-0.07144-0.20108a17.523 17.523 0 0 1 -0.4789 -1.9712c-0.06879-0.35189-0.13494-0.71173-0.19579-1.0742l-0.18785-1.0583v-0.045a1.2885 1.2885 0 0 0 -2.5665 0.14288c-0.01588 0.22489-0.02381 0.41804-0.0344 0.62441-0.01058 0.20638 0 0.40482 0 0.60854 0 0.40746 0 0.81492 0.0291 1.225a14.351 14.351 0 0 0 0.34396 2.5585c0.02381 0.11112 0.05821 0.23283 0.0926 0.34925l0.05292 0.17727 0.02646 0.0873 0.0344 0.0979 0.14288 0.37835 0.12171 0.28575c0.16404 0.37571 0.34396 0.75142 0.50006 1.0742a7.9613 7.9613 0 0 1 0.3519 0.82814 6.133 6.133 0 0 1 0.21431 0.83344c0.0291 0.15081 0.05821 0.32544 0.08202 0.4789s0.03704 0.26458 0.04762 0.44185l0.02117 0.25136 0.01587 0.26458c0 0.17727 0.02117 0.35454 0.02646 0.52917 0.03175 0.73025 0.05292 1.487 0.07144 2.241 0.04233 1.5134 0.07673 3.0506 0.16404 4.5746a1.3626 1.3626 0 0 0 1.0848 1.2938 1.3229 1.3229 0 0 0 1.487 -1.1589c0.11642-0.77788 0.19844-1.5478 0.26458-2.3257 0.06615-0.77787 0.12964-1.5531 0.17198-2.3363 0.04233-0.78317 0.06879-1.569 0.06615-2.3812-0.01852-0.19314-0.02381-0.40217-0.0291-0.60854z" fill="#6371bc" stroke-width=".26458"/>
<path class="cls-36" d="m6.0792 47.771a10.218 10.218 0 0 0 -0.32808 -1.4208c-0.11906-0.40482-0.22754-0.75407-0.32544-1.1086l-0.07408-0.26458c0-0.0556-0.02646-0.11113-0.04233-0.16934v-0.0952l-0.01852-0.10583c0-0.0714-0.02646-0.14023-0.0344-0.22225-0.02381-0.19579-0.04498-0.40481-0.06085-0.61912l0.52917-1.2753-0.17727-2.7622h-0.39158a1.4393 1.4393 0 0 0 -0.97102 -1.2409 1.3467 1.3467 0 0 0 -1.6828 1.0001c-0.06085 0.2249-0.10583 0.42069-0.1561 0.63236-0.05027 0.21166-0.08996 0.41539-0.12965 0.62177-0.07937 0.41804-0.15081 0.83873-0.20638 1.2674a15.097 15.097 0 0 0 -0.14023 2.704c0 0.11907 0.01587 0.25136 0.0291 0.37836l0.01852 0.19314v0.0979l0.01852 0.10583 0.07144 0.42334 0.07144 0.32014c0.0979 0.42334 0.20902 0.84667 0.30692 1.2171a8.218 8.218 0 0 1 0.20373 0.92868 6.6146 6.6146 0 0 1 0.05821 0.90223v0.51329c0 0.16405 0 0.27782-0.0344 0.46303l-0.0291 0.26458-0.0344 0.26458c-0.02117 0.18521-0.04498 0.37042-0.07408 0.56092-0.10848 0.75935-0.23283 1.5372-0.35983 2.3204-0.24871 1.561-0.508 3.1486-0.71173 4.7334a1.4843 1.4843 0 0 0 0.86783 1.5875 1.3229 1.3229 0 0 0 1.7462 -0.85725c0.26458-0.77523 0.50271-1.5452 0.7276-2.3283 0.2249-0.78317 0.43392-1.5663 0.62706-2.3627s0.37306-1.5875 0.52917-2.4262c0.03969-0.20638 0.07673-0.42069 0.11112-0.63236 0.01588-0.10847 0.03704-0.21166 0.05292-0.32279l0.04233-0.34131c0.03175-0.21167 0.05292-0.48683 0.07144-0.73819 0.01852-0.25135 0.02117-0.45508 0.02117-0.6985a9.7287 9.7287 0 0 0 -0.12171 -1.5081z" fill="#6371bc" stroke-width=".26458"/>
<path class="cls-37" d="m2.9722 47.341c-0.0291-0.52917-0.07408-1.0239-0.11642-1.4261-0.04233-0.40216-0.08202-0.75406-0.11642-1.1112l-0.02646-0.26458v-0.59526c0-0.19844-0.01587-0.40482-0.02117-0.62177l0.18521-1.2779-0.06085-2.7702h-0.17727c-0.02117-0.5715-0.15081-1.0742-0.34131-1.2462-0.26458-0.22489-0.52917 0.22225-0.59531 1.0028-0.02117 0.22755-0.03704 0.42334-0.05556 0.635-0.01852 0.21167-0.03175 0.4154-0.04498 0.62442-0.0291 0.42069-0.05292 0.84138-0.07408 1.27-0.03969 0.8599-0.0635 1.733-0.04762 2.7146v0.77518l0.02646 0.42597 0.02381 0.32015c0.0344 0.42598 0.07408 0.84931 0.10848 1.2197 0.0344 0.37042 0.05821 0.65881 0.07144 0.93133s0.02117 0.56886 0.02117 0.90752v0.5133c0 0.16404 0 0.26458-0.01323 0.46566v0.52917c0 0.18521-0.01587 0.37042-0.02646 0.56356-0.03969 0.75936-0.08202 1.5425-0.127 2.3257-0.08731 1.569-0.17992 3.1591-0.26458 4.7625-0.03175 0.6641 0.0926 1.3229 0.30692 1.5875 0.21431 0.26458 0.52917-0.0979 0.61648-0.85725 0.08731-0.75936 0.17727-1.5531 0.26458-2.3363 0.08731-0.78317 0.15346-1.5716 0.22225-2.3812 0.06879-0.80963 0.12965-1.6034 0.18521-2.4368 0-0.20373 0.02646-0.42069 0.03969-0.635 0-0.10848 0-0.20903 0.01852-0.3228l0.01588-0.34131c0-0.21167 0.01587-0.48683 0.02381-0.74083 0.0079-0.254 0-0.45773 0-0.6985 0.01323-0.47096 0.0053-0.98425-0.02117-1.5108z" fill="#6358bc" stroke-width=".26458"/>
<path class="cls-38" d="m14.371 38.081c-0.70908-0.55298-1.4102-1.1165-2.1167-1.6801-0.70644-0.56356-1.3944-1.1377-2.0929-1.7066l-0.26458-0.21431-0.07408-0.0609-0.07937-0.0714c-0.05027-0.0476-0.10319-0.0953-0.14817-0.14552a7.157 7.157 0 0 1 -0.4736 -0.62177 6.8792 6.8792 0 0 1 -0.84138 -1.3229l-0.14288-0.32544c-0.04762-0.10583-0.0926-0.21166-0.14288-0.31485l-0.2884-0.62706c-0.18786-0.42069-0.38894-0.83609-0.59002-1.2488a1.1377 1.1377 0 0 1 0.4789 -1.4367 0.93133 0.93133 0 0 1 1.3494 0.3519 1.0292 1.0292 0 0 1 0.04498 0.10848c0.15081 0.43921 0.30162 0.87842 0.46567 1.3229l0.24077 0.65352c0.03704 0.10848 0.07937 0.21696 0.12171 0.32543l0.12171 0.31486a3.5084 3.5084 0 0 0 0.24871 0.50006 2.7279 2.7279 0 0 0 0.75935 0.89429l0.0979 0.0873 0.10054 0.0847 0.26458 0.21696c0.69056 0.57679 1.3864 1.1456 2.0717 1.7277 0.68527 0.58208 1.3758 1.1642 2.0532 1.7542a0.90487 0.90487 0 0 1 0.0344 1.2621 0.87842 0.87842 0 0 1 -1.1986 0.17198z" fill="#c69c6d" stroke="#c69c6d" stroke-miterlimit="10" stroke-width=".13229px"/>
<path class="cls-39" d="m3.7242 28.151c0.06615-0.0212-2.2437 0.57944-2.9104 1.8944-0.6667 1.315-1.2859 10.377-0.30427 11.208 0.98163 0.831 4.1116-0.31486 4.1116-0.31486l4.2069-2.7226s0.6694-8.2259 0-9.742-5.1038-0.32279-5.1038-0.32279z" fill="#e8c63f" stroke-width=".26458"/>
<path class="cls-38" d="m4.0682 26.311s-0.12965 1.9606-0.22754 2.2542c-0.0979 0.29369 1.5875 0.29634 1.5875 0.29634l-0.1614-3.5454z" fill="#c69c6d" stroke="#c69c6d" stroke-miterlimit="10" stroke-width=".13229px"/>
<path class="cls-38" d="m2.5382 21.491s-1.7013 2.3574-0.66146 3.6565c1.0398 1.2991 2.4897 2.6988 3.1935 2.4792 0.70379-0.21961 3.4396-1.3679 2.749-3.8444-0.69056-2.4765-3.7835-4.0296-5.2811-2.2913z" fill="#c69c6d" stroke="#c69c6d" stroke-miterlimit="10" stroke-width=".13229px"/>
<path class="cls-40" d="m7.0232 21.871s-1.3229 1.1218-2.4765 1.2594c-1.1536 0.13758-1.2991-0.28046-1.4367 0.13758l-0.13494 0.41805s-0.41804-0.0767-0.48154 0.10054a1.2938 1.2938 0 0 0 0 0.71702c0.07408 0.1561 0.85725 0.55298 0.85725 0.55298l-0.04762 1.6801s-1.352-0.86519-1.7912-1.6801c-0.43921-0.81492 0.0979-1.8521 0.43921-2.9289s0.96044-1.5081 1.3996-1.7145c0.43921-0.20638 1.7568 0.10054 2.0505 0.2249 0.29369 0.12435 1.5875 0.53181 1.6219 1.233z" stroke="#000" stroke-miterlimit="10" stroke-width=".13229px"/>
<path class="cls-41" d="m82.89 51.825c-3.3523 0.58208-7.2522 1.2356-6.223-0.33073 1.0292-1.5663 4.109-1.7939 5.887-1.2753 1.0054 0.29104 0.33602 1.606 0.33602 1.606z" fill="#e9d700" stroke-width=".26458"/>
<path class="cls-41" d="m74.92 47.845c-3.302 0.82285-7.1438 1.7515-6.2309 0.11377 0.91281-1.6378 3.9688-2.0796 5.7811-1.6933 1.0239 0.20902 0.44979 1.5796 0.44979 1.5796z" fill="#e9d700" stroke-width=".26458"/>
<path class="cls-42" d="m71.72 36.905v-0.35454l0.0238-0.37307c0-0.23548 0.045-0.52916 0.0767-0.80698 0.0318-0.27781 0.0741-0.48947 0.127-0.74877a9.9007 9.9007 0 0 1 0.43921 -1.5875 10.493 10.493 0 0 1 0.68792 -1.4393c0.22225-0.40481 0.42333-0.74877 0.61383-1.106l0.14288-0.26458c0.0265-0.0582 0.0529-0.11377 0.082-0.17198l0.0238-0.0423 0.0212-0.0529 0.0423-0.11113c0.0291-0.0741 0.0609-0.14287 0.09-0.23018a18.815 18.815 0 0 0 0.58737 -2.249c0.0873-0.39952 0.16669-0.80963 0.24342-1.2224l0.23019-1.2224v-0.0556a1.5875 1.5875 0 0 1 3.1618 0.16668c0.0212 0.26459 0.0317 0.47625 0.0423 0.71173s0 0.46302 0.0159 0.69586c0 0.46302 0 0.92868-0.0344 1.397a15.24 15.24 0 0 1 -0.42598 2.9104 3.8153 3.8153 0 0 1 -0.11377 0.39688l-0.0635 0.20108-0.0317 0.10054-0.0423 0.10848-0.17727 0.43392-0.15082 0.32808c-0.20372 0.42863-0.42068 0.85461-0.61647 1.225a8.7921 8.7921 0 0 0 -0.43392 0.94457 6.6701 6.6701 0 0 0 -0.26458 0.94985c-0.037 0.17198-0.0714 0.37306-0.10319 0.54769-0.0317 0.17462-0.045 0.30162-0.0582 0.50535l-0.0238 0.28575-0.0212 0.30163c-0.0132 0.20108-0.0265 0.40481-0.0318 0.61648-0.0423 0.83343-0.0661 1.6933-0.09 2.5585-0.0503 1.7251-0.0926 3.4793-0.19844 5.2176a1.5894 1.5894 0 0 1 -3.175 0.1561c-0.14552-0.889-0.24606-1.7674-0.33866-2.6458s-0.15875-1.7727-0.21167-2.667c-0.0529-0.89429-0.0847-1.7912-0.082-2.7146 0.0238-0.21961 0.0291-0.45509 0.037-0.69321z" fill="#743700" stroke-width=".26458"/>
<path class="cls-42" d="m77.37 36.945a11.049 11.049 0 0 1 0.40746 -1.6219c0.14552-0.46302 0.28046-0.85989 0.40217-1.2647l0.09-0.30162c0.0159-0.0635 0.0317-0.127 0.0503-0.19315l0.0159-0.0476v-0.0609l0.0212-0.12171c0-0.082 0.0317-0.15875 0.0423-0.26458 0.0291-0.22489 0.0529-0.46037 0.0741-0.70644l-0.64822-1.4552 0.21695-3.1512h0.48419a1.6748 1.6748 0 0 1 3.2702 -0.26459c0.0741 0.26459 0.13229 0.48155 0.19315 0.72232 0.0609 0.24077 0.10848 0.4736 0.15875 0.71173 0.0953 0.47625 0.18521 0.95514 0.26458 1.442a15.933 15.933 0 0 1 0.17198 3.0877c0 0.13494-0.0185 0.28575-0.0344 0.43127l-0.0238 0.22225v0.11113l-0.0212 0.11906-0.0899 0.48154-0.0873 0.36777c-0.11906 0.48419-0.26458 0.96573-0.37835 1.3864a9.0937 9.0937 0 0 0 -0.26458 1.0583 7.1146 7.1146 0 0 0 -0.0714 1.0292v0.58473c0 0.18521 0 0.3175 0.0423 0.52917l0.0344 0.29898 0.0556 0.30956c0.0291 0.21167 0.0556 0.42333 0.0926 0.64029 0.1323 0.86519 0.2884 1.7542 0.44186 2.6458 0.30692 1.7833 0.62706 3.5957 0.87842 5.4028a1.6722 1.6722 0 0 1 -3.2226 0.82021c-0.33337-0.88371-0.61911-1.7648-0.89693-2.6458-0.27781-0.88106-0.52916-1.7886-0.77258-2.6961s-0.45773-1.823-0.64823-2.7702c-0.0503-0.23548-0.0926-0.4789-0.13494-0.72231-0.0212-0.12436-0.045-0.24077-0.0661-0.36777l-0.0529-0.38894c-0.0397-0.24077-0.0635-0.55563-0.0873-0.84138s-0.0265-0.52916-0.0265-0.79375a10.623 10.623 0 0 1 0.11906 -1.7224z" fill="#743700" stroke-width=".26458"/>
<path class="cls-43" d="m63.48 18.225c1.0583 0.0767 2.0876 0.14023 3.1327 0.19844 1.0451 0.0582 2.0876 0.10848 3.1327 0.16404l0.39158 0.0212h0.23548a2.3495 2.3495 0 0 0 0.23813 -0.0132 14.584 14.584 0 0 0 2.6061 -0.68792l0.36248-0.17462c0.11906-0.0582 0.23813-0.11642 0.35719-0.16934l0.71437-0.33337c0.47625-0.2249 0.95515-0.43657 1.4393-0.64559 0.57414-0.2487 0.84402-1.0028 0.6006-1.6828s-0.90223-1.0319-1.4764-0.79375l-0.12171 0.0635q-0.67998 0.41275-1.3705 0.79375l-0.69057 0.39159c-0.11377 0.0661-0.23018 0.13229-0.34395 0.19314l-0.34132 0.18786a3.7042 3.7042 0 0 1 -0.58737 0.24606 4.019 4.019 0 0 1 -0.66411 0.17462 4.0746 4.0746 0 0 1 -0.66939 0.0132h-0.30427l-0.39159-0.0159c-1.0583-0.0423-2.0876-0.0952-3.1327-0.127s-2.0876-0.0688-3.13-0.09c-0.52917 0-0.96044 0.48948-0.94192 1.1139a1.1324 1.1324 0 0 0 0.95515 1.1721z" fill="#ffe3aa" stroke-width=".26458"/>
<path class="cls-44" d="m80.29 14.545c-0.0847-0.0238 2.7622 0.66411 3.601 2.1643 0.83872 1.5002 1.5875 11.84 0.37306 12.787-1.2144 0.947-5.0641-0.35983-5.0641-0.35983l-5.1832-3.1036s-0.82815-9.3874 0-11.112c0.82815-1.7251 6.2733-0.37571 6.2733-0.37571z" fill="#ff94ff" stroke-width=".26458"/>
<path class="cls-43" d="m79.87 12.445s0.1561 2.2357 0.26458 2.5718-1.9526 0.33602-1.9526 0.33602l0.19843-4.0455z" fill="#ffe3aa" stroke-width=".26458"/>
<path class="cls-43" d="m81.28 7.0052s1.9976 2.704 0.79374 4.1778c-1.2038 1.4737-2.8707 3.0533-3.7042 2.7966-0.83344-0.25665-4.019-1.5875-3.2253-4.408 0.79375-2.8204 4.3815-4.572 6.1357-2.5664z" fill="#ffe3aa" stroke-width=".26458"/>
<path class="cls-43" d="m72.65 27.215c1.0583-0.57414 2.0929-1.1615 3.1327-1.7515s2.0743-1.1933 3.1115-1.7886l0.38629-0.2249 0.11113-0.0661 0.12171-0.0767c0.0741-0.0529 0.15345-0.10319 0.2196-0.15875a8.5699 8.5699 0 0 0 0.73289 -0.71702 8.1254 8.1254 0 0 0 1.3229 -1.5716l0.23813-0.39687c0.0767-0.12965 0.1561-0.26459 0.23548-0.38365l0.47625-0.76729c0.31485-0.51329 0.64029-1.0186 0.97101-1.5214 0.39423-0.59795 0.17462-1.4975-0.48948-2.0082-0.66411-0.51065-1.5187-0.43657-1.9129 0.16404a1.3229 1.3229 0 0 0 -0.0767 0.13229c-0.26458 0.55033-0.52917 1.098-0.79375 1.6351l-0.41275 0.80963c-0.0688 0.13758-0.13758 0.26458-0.20902 0.40481l-0.20902 0.39159a4.5879 4.5879 0 0 1 -0.40746 0.60589 4.3789 4.3789 0 0 1 -0.52917 0.57944 4.6964 4.6964 0 0 1 -0.63235 0.43127l-0.14552 0.0926-0.15081 0.09-0.38629 0.22754c-1.0292 0.60855-2.0638 1.2065-3.085 1.8256-1.0213 0.61912-2.0505 1.2303-3.0639 1.8521-0.52917 0.32544-0.61119 1.0583-0.19844 1.6642s1.1218 0.80963 1.6431 0.52652z" fill="#ffe3aa" stroke-width=".26458"/>
<path class="cls-45" d="m76.86 8.3752c-0.64559 0-0.64559 0-0.79375-0.32014-0.14817-0.32015 0.75141-1.2991 2.2304-1.7701 1.479-0.47096 3.5983 0.16139 3.8312 0.40481 0.23283 0.24341 1.2674 1.9024 1.1562 2.196-0.11113 0.29369-0.43656 0.76994-0.43656 1.4102a5.3049 5.3049 0 0 0 0.4445 1.6801c0.0397 0.082 0.12171 0.26459 0 0.72761s-0.55298 0.99748-0.50007 1.2965c0.0529 0.29898 0.98689 1.2488 0.762 1.2568-0.22489 8e-3 -0.60589 0.3466-0.60589 0.3466l-2.7887-1.1668-0.18256-0.85989s0.9181-0.39688 0.9181-1.0372c0-0.6403 0.0159-1.1377 0.0159-1.1377s0.52916 0.28046 0.58472-0.17198c0.0556-0.45244 0.52916-1.733 0.045-1.733-0.48419 0-0.48419 0.15875-0.48419 0.15875-0.48419-0.96044-4.1963-1.2806-4.1963-1.2806z" fill="#fffa7a" stroke-width=".26458"/>
<line class="cls-46" x1="62.88" x2="73.42" y1="17.115" y2="25.665" fill="#0f0" stroke="#0f0" stroke-miterlimit="10" stroke-width=".52917px"/>
<rect class="cls-1" transform="rotate(-51.22)" x="25.146" y="72.286" width="1.7145" height="1.6933" fill="none" stroke-width=".26458"/>
<polygon class="cls-47" transform="matrix(.26458 0 0 .26458 -357.99 -209.64)" points="1629.6 884.28 1625.5 889.33 1632.5 890.82" fill="#0f0" stroke="#0f0" stroke-miterlimit="10"/>
<path class="cls-48" d="m81.63 38.595c0.0265-0.49213 0.0741-0.94721 0.11642-1.3229 0.0423-0.37571 0.0794-0.6985 0.11377-1.0292l0.0265-0.24341 0.0159-0.15875v-0.39427c0-0.18256 0.0159-0.37571 0.0212-0.57679l-0.18521-1.1853 0.0635-2.5665h0.13759c0.0212-0.52916 0.15081-0.99483 0.34395-1.1536 0.26459-0.20902 0.52917 0.20638 0.59267 0.92869 0.0238 0.21167 0.0397 0.39423 0.0556 0.58737l0.0476 0.57944c0.0265 0.38894 0.0529 0.79375 0.0714 1.1774 0.0397 0.79375 0.0661 1.606 0.0503 2.5135v0.72231l-0.0265 0.39158-0.0265 0.29898c-0.0318 0.39423-0.0714 0.79375-0.10848 1.1298-0.037 0.33603-0.0582 0.61119-0.0714 0.86255-0.0132 0.25135-0.0185 0.52916-0.0212 0.84137v1.4155c0 0.17198 0.0159 0.34131 0.0265 0.52917 0.037 0.70379 0.082 1.4288 0.12435 2.1537 0.09 1.4552 0.17992 2.9289 0.26458 4.4027 0.0291 0.61913-0.0926 1.2356-0.30691 1.4632-0.21432 0.22754-0.52917-0.09-0.61648-0.79375-0.0873-0.70379-0.17727-1.4393-0.26459-2.1643-0.0873-0.72496-0.15345-1.4579-0.2196-2.196-0.0661-0.73819-0.13229-1.4843-0.18785-2.2569 0-0.1905-0.0265-0.39158-0.037-0.59002 0-0.10054 0-0.19579-0.0185-0.29898l-0.0159-0.31485c0-0.19844-0.0185-0.45244-0.0265-0.68792s0-0.42333 0-0.64823c0.0238-0.45244 0.0318-0.92869 0.0609-1.4155z" fill="#5d2300" stroke-width=".26458"/>
<polygon class="cls-177" transform="matrix(.26458 0 0 .26458 -343.7 -209.64)" points="1469 910.09 1496.8 896.49 1497.7 898.23 1469.3 912.16 1469 911.57" fill="#00fe00" style="isolation:isolate"/>
<polygon class="cls-178" transform="matrix(.26458 0 0 .26458 -343.7 -209.64)" points="1469 910.09 1469.6 909.68 1497.5 896.08 1496.8 896.49" fill="#008000" style="isolation:isolate"/>
<polygon class="cls-185" transform="matrix(.26458 0 0 .26458 -343.7 -209.64)" points="1495 893.25 1495.7 892.84 1502.7 894.56 1502 894.97" fill="#008100" style="isolation:isolate"/>
<polygon class="cls-175" transform="matrix(.26458 0 0 .26458 -343.7 -209.64)" points="1502 894.97 1502.7 894.56 1500.1 900.96 1499.4 901.37" fill="#008500" style="isolation:isolate"/>
<polygon class="cls-203" transform="matrix(.26458 0 0 .26458 -343.7 -209.64)" points="1468.6 844.55 1469.3 844.14 1498 886.62 1497.2 887.03" fill="#008a00" style="isolation:isolate"/>
<polygon class="cls-177" transform="matrix(.26458 0 0 .26458 -343.7 -209.64)" points="1468.6 844.55 1497.2 887.03 1496.4 887.89 1468.6 846.62" fill="#00fe00" style="isolation:isolate"/>
<polygon class="cls-179" transform="matrix(.26458 0 0 .26458 -343.7 -209.64)" points="1498.7 885.56 1499.4 885.15 1502.5 894.13 1501.8 894.54" fill="#008b00" style="isolation:isolate"/>
<g class="cls-3" transform="matrix(.26458 0 0 .26458 -343.7 -209.64)" style="isolation:isolate">
<g class="cls-208" clip-path="url(#d)">
<g class="cls-3">
<path class="cls-169" d="m1503.4 876.92 0.71-0.41a3 3 0 0 1 3 0.29l-0.71 0.41a3 3 0 0 0 -3 -0.29"/>
</g>
</g>
</g>
<g class="cls-3" transform="matrix(.26458 0 0 .26458 -343.7 -209.64)" style="isolation:isolate">
<g class="cls-209" clip-path="url(#e)">
<g class="cls-3">
<path class="cls-169" d="m1563.8 945.81 0.7-0.41a3 3 0 0 1 -1.25 2.72l-0.7 0.41a3 3 0 0 0 1.25 -2.72"/>
</g>
</g>
</g>
<polygon class="cls-200" transform="matrix(.26458 0 0 .26458 -343.7 -209.64)" points="1563.9 915.29 1564.6 914.88 1564.5 945.39 1563.8 945.8" fill="#894e00" style="isolation:isolate"/>
<polygon class="cls-201" transform="matrix(.26458 0 0 .26458 -343.7 -209.64)" points="1506.4 877.21 1507.2 876.8 1560.4 907.54 1559.7 907.95" fill="#844c00" style="isolation:isolate"/>
<path class="cls-172" d="m68.968 30.595a2.4818 2.4818 0 0 1 1.1218 1.942l-0.0212 8.0751c0 0.71173-0.51065 1.0001-1.1298 0.64294l-14.086-8.1333a2.4844 2.4844 0 0 1 -1.1245 -1.9447l0.0238-8.0724c0-0.71173 0.51064-1.0001 1.1298-0.64293z" fill="#fe9100" stroke-width=".26458" style="isolation:isolate"/>
<g class="cls-3" transform="matrix(.26458 0 0 .26458 -343.7 -209.64)" style="isolation:isolate">
<g class="cls-210" clip-path="url(#f)">
<g class="cls-3">
<path class="cls-169" d="m1559.7 908 0.71-0.41a9.43 9.43 0 0 1 4.24 7.34l-0.71 0.41a9.38 9.38 0 0 0 -4.24 -7.34"/>
</g>
</g>
</g>
<g class="cls-3" transform="matrix(.26458 0 0 .26458 -368.93 -214.5)" style="isolation:isolate">
<g class="cls-208" clip-path="url(#d)">
<g class="cls-3">
<path class="cls-169" d="m1503.4 876.92 0.71-0.41a3 3 0 0 1 3 0.29l-0.71 0.41a3 3 0 0 0 -3 -0.29"/>
</g>
</g>
</g>
<g class="cls-3" transform="matrix(.26458 0 0 .26458 -368.93 -214.5)" style="isolation:isolate">
<g class="cls-209" clip-path="url(#e)">
<g class="cls-3">
<path class="cls-169" d="m1563.8 945.81 0.7-0.41a3 3 0 0 1 -1.25 2.72l-0.7 0.41a3 3 0 0 0 1.25 -2.72"/>
</g>
</g>
</g>
<polygon class="cls-200" transform="matrix(.26458 0 0 .26458 -368.93 -214.5)" points="1563.8 945.8 1563.9 915.29 1564.6 914.88 1564.5 945.39" fill="#894e00" style="isolation:isolate"/>
<polygon class="cls-201" transform="matrix(.26458 0 0 .26458 -368.93 -214.5)" points="1559.7 907.95 1506.4 877.21 1507.2 876.8 1560.4 907.54" fill="#844c00" style="isolation:isolate"/>
<path class="cls-172" d="m43.728 25.735a2.4818 2.4818 0 0 1 1.1218 1.942l-0.0212 8.0751c0 0.71173-0.51064 1.0001-1.1298 0.64294l-14.086-8.1333a2.4844 2.4844 0 0 1 -1.1245 -1.9447l0.0238-8.0724c0-0.71173 0.51065-1.0001 1.1298-0.64294z" fill="#fe9100" stroke-width=".26458" style="isolation:isolate"/>
<g class="cls-3" transform="matrix(.26458 0 0 .26458 -368.93 -214.5)" style="isolation:isolate">
<g class="cls-210" clip-path="url(#f)">
<g class="cls-3">
<path class="cls-169" d="m1559.7 908 0.71-0.41a9.43 9.43 0 0 1 4.24 7.34l-0.71 0.41a9.38 9.38 0 0 0 -4.24 -7.34"/>
</g>
</g>
</g>
<g class="cls-3" transform="matrix(.26458 0 0 .26458 -368.76 -231.83)" style="isolation:isolate">
<g class="cls-208" clip-path="url(#d)">
<g class="cls-3">
<path class="cls-169" d="m1503.4 876.92 0.71-0.41a3 3 0 0 1 3 0.29l-0.71 0.41a3 3 0 0 0 -3 -0.29"/>
</g>
</g>
</g>
<g class="cls-3" transform="matrix(.26458 0 0 .26458 -368.76 -231.83)" style="isolation:isolate">
<g class="cls-209" clip-path="url(#e)">
<g class="cls-3">
<path class="cls-169" d="m1563.8 945.81 0.7-0.41a3 3 0 0 1 -1.25 2.72l-0.7 0.41a3 3 0 0 0 1.25 -2.72"/>
</g>
</g>
</g>
<polygon class="cls-200" transform="matrix(.26458 0 0 .26458 -368.76 -231.83)" points="1563.8 945.8 1563.9 915.29 1564.6 914.88 1564.5 945.39" fill="#894e00" style="isolation:isolate"/>
<polygon class="cls-201" transform="matrix(.26458 0 0 .26458 -368.76 -231.83)" points="1559.7 907.95 1506.4 877.21 1507.2 876.8 1560.4 907.54" fill="#844c00" style="isolation:isolate"/>
<path class="cls-172" d="m43.908 8.4052a2.4818 2.4818 0 0 1 1.1218 1.942l-0.0212 8.0751c0 0.71173-0.51065 1.0001-1.1298 0.64294l-14.086-8.1333a2.4844 2.4844 0 0 1 -1.1245 -1.9447l0.0238-8.0724c0-0.71173 0.51065-1.0001 1.1298-0.64294z" fill="#fe9100" stroke-width=".26458" style="isolation:isolate"/>
<g class="cls-3" transform="matrix(.26458 0 0 .26458 -368.76 -231.83)" style="isolation:isolate">
<g class="cls-210" clip-path="url(#f)">
<g class="cls-3">
<path class="cls-169" d="m1559.7 908 0.71-0.41a9.43 9.43 0 0 1 4.24 7.34l-0.71 0.41a9.38 9.38 0 0 0 -4.24 -7.34"/>
</g>
</g>
</g>
<rect class="cls-223" transform="rotate(-27.52)" x="-12.035" y="35.831" width="23.032" height="13.078" rx="1.5875" fill="#ff9200" stroke-width=".26458"/>
<path class="cls-38" d="m9.3572 40.811q-1.2859-0.89959-2.5506-1.823c-0.84931-0.60854-1.688-1.233-2.5321-1.8521l-0.31485-0.23283-0.08996-0.0688-0.0979-0.0767c-0.06085-0.0529-0.12435-0.10319-0.17727-0.15875a7.9798 7.9798 0 0 1 -0.58208 -0.68263 7.7179 7.7179 0 0 1 -1.0583 -1.4711l-0.17991-0.35985c-0.05821-0.11642-0.11906-0.23284-0.17992-0.34925l-0.36248-0.69586c-0.24077-0.46831-0.49212-0.92868-0.74612-1.3864a1.2462 1.2462 0 0 1 0.508 -1.6298 1.1271 1.1271 0 0 1 1.6007 0.34925 1.2726 1.2726 0 0 1 0.05821 0.12171c0.19315 0.48948 0.39158 0.97896 0.59796 1.4632l0.30956 0.7276c0.05027 0.12171 0.10319 0.24077 0.1561 0.36248l0.1561 0.34925a4.3048 4.3048 0 0 0 0.31221 0.55563 3.1274 3.1274 0 0 0 0.92869 0.97895l0.11906 0.0952 0.12436 0.0926 0.31221 0.23548c0.83608 0.62706 1.6775 1.2435 2.5082 1.8785 0.83079 0.635 1.6642 1.2621 2.4871 1.905a0.99219 0.99219 0 0 1 0.08731 1.4208 1.0583 1.0583 0 0 1 -1.3944 0.25136z" fill="#c69c6d" stroke="#c69c6d" stroke-miterlimit="10" stroke-width=".13229px"/>
<path d="m53.698 27.155-0.67469 1.6933-1.1748-2.1484z" fill="#9f9" stroke-width=".26458"/>
<path d="m52.668 28.195c-0.62233-1.1383-0.70834-1.2956-0.76269-1.3945-0.0293-0.0534-0.053-0.0974-0.0525-0.098 0 0 0.41431 0.1008 0.91972 0.22516 0.86018 0.21158 0.91887 0.22656 0.91736 0.23383-3e-3 7e-3 -0.66567 1.6754-0.66797 1.6777 0 0-0.15983-0.28932-0.35388-0.64423z" fill="#00fe00" stroke-width=".0038817"/>
<path d="m52.818 24.655c0.0486-0.0367 0.82997 2.3734 0.82846 2.3807-3e-3 7e-3 -1.1771-0.83545-2.0213-1.4061 0 0 1.0308-0.85233 1.1928-0.97462z" fill="#00fe00" stroke-width=".0038817"/>
</svg>
