<?xml version="1.0" encoding="utf-8"?>
<!-- Generator: Adobe Illustrator 26.0.1, SVG Export Plug-In . SVG Version: 6.00 Build 0)  -->
<svg version="1.1" id="Layer_1" xmlns="http://www.w3.org/2000/svg" xmlns:xlink="http://www.w3.org/1999/xlink" x="0px" y="0px"
	 viewBox="0 0 930.79 74.2" style="enable-background:new 0 0 930.79 74.2;" xml:space="preserve">
<style type="text/css">
	.st0{enable-background:new    ;}
	.st1{fill:#FFFFFF;}
</style>
<g class="st0">
	<path class="st1" d="M17.75,60.29c0,7.42,1.37,9.47,4.49,10.84c0.1,0.1,0,0.59-0.1,0.59c-1.86-0.1-5.86-0.2-10.06-0.2
		s-8.2,0.1-9.96,0.2c-0.2,0-0.29-0.49-0.2-0.59c3.13-1.37,4.59-3.42,4.59-10.84V14.58c0-7.42-1.46-9.47-4.59-10.84
		c-0.1-0.1,0-0.59,0.2-0.59c1.76,0.1,5.76,0.2,9.96,0.2s8.2-0.1,10.06-0.2c0.1,0,0.2,0.49,0.1,0.59c-3.13,1.37-4.49,3.42-4.49,10.84
		v17.78c2.93,0.1,8.3,0.29,14.16,0.29h8.11c5.76,0,11.23-0.2,14.16-0.29V14.58c0-7.42-1.37-9.47-4.49-10.84
		c-0.1-0.1,0-0.59,0.1-0.59c1.76,0.1,5.76,0.2,9.96,0.2s8.3-0.1,10.06-0.2c0.1,0,0.2,0.49,0.1,0.59c-3.03,1.37-4.49,3.42-4.49,10.84
		v45.71c0,7.42,1.47,9.47,4.49,10.84c0.1,0.1,0,0.59-0.1,0.59c-1.76-0.1-5.86-0.2-10.06-0.2s-8.2,0.1-9.96,0.2
		c-0.1,0-0.2-0.49-0.1-0.59c3.13-1.37,4.49-3.42,4.49-10.84V39.2c-2.93-0.2-8.3-0.29-14.16-0.29h-8.11c-5.96,0-11.23,0.1-14.16,0.29
		V60.29z"/>
	<path class="st1" d="M117.47,1.79c21,0,36.04,14.55,36.04,35.06c0,20.9-15.33,36.24-36.63,36.24c-21,0-36.14-14.55-36.14-35.06
		C80.75,17.12,96.18,1.79,117.47,1.79z M118.25,66.93c14.55,0,23.73-10.16,23.73-26.27c0-19.24-10.65-32.72-25.79-32.72
		c-14.65,0-23.93,10.16-23.93,26.27C92.27,53.46,103.02,66.93,118.25,66.93z"/>
	<path class="st1" d="M169.04,13.31c0-4.59-1.95-7.03-5.96-9.67c-0.1-0.2,0-0.49,0.2-0.49c0.59,0,3.71,0.1,7.72,0.1
		c3.13,0,5.96-0.1,6.84-0.1c0.59,0,0.78,0.2,1.76,1.27l38.29,46.69v-33.8c0-8.99-1.47-12.11-5.37-13.58c-0.1-0.2,0-0.59,0.2-0.59
		c1.86,0.1,5.18,0.2,8.5,0.2c3.42,0,6.84-0.1,8.5-0.2c0.29,0,0.39,0.39,0.29,0.59c-3.91,1.46-5.37,4.59-5.37,13.58V72.4
		c-0.49,0.39-2.44,0.49-2.93,0.2L175.9,17.61v39.95c0,8.99,1.47,12.11,5.27,13.58c0.1,0.2,0,0.59-0.2,0.59
		c-1.76-0.1-5.18-0.2-8.5-0.2c-3.42,0-6.74,0.1-8.59,0.2c-0.1,0-0.2-0.39-0.1-0.59c3.81-1.46,5.27-4.59,5.27-13.58V13.31H169.04z"/>
	<path class="st1" d="M276.28,1.79c21,0,36.04,14.55,36.04,35.06c0,20.9-15.33,36.24-36.63,36.24c-21,0-36.14-14.55-36.14-35.06
		C239.56,17.12,254.99,1.79,276.28,1.79z M277.06,66.93c14.55,0,23.73-10.16,23.73-26.27c0-19.24-10.65-32.72-25.79-32.72
		c-14.65,0-23.93,10.16-23.93,26.27C251.08,53.46,261.83,66.93,277.06,66.93z"/>
	<path class="st1" d="M327.75,14.97c0-7.62-1.37-9.87-4.4-11.23c-0.1-0.1,0-0.59,0.1-0.59c1.86,0.1,6.74,0.2,9.86,0.2
		c5.86,0,10.84-0.29,16.8-0.29c14.94,0,23.93,5.37,23.93,17.78c0,9.47-5.37,16.21-14.36,19.24c6.45,17.29,13.48,29.01,21.29,29.59
		c0.2,0,0.29,0.39,0.2,0.59c-1.56,1.56-4,2.44-7.03,2.44c-9.67,0-17.68-10.74-26.27-30.08c-3.13,0-6.15,0-8.89-0.1V59.9
		c0,7.62,1.27,9.87,4.3,11.23c0.1,0.1,0,0.59-0.1,0.59c-1.66-0.1-6.74-0.2-9.86-0.2s-8.01,0.1-9.86,0.2c-0.1,0-0.2-0.49-0.1-0.59
		c3.03-1.37,4.4-3.61,4.4-11.23V14.97H327.75z M338.98,35.58c3.03,0.49,6.15,0.78,8.99,0.78c9.96,0,14.75-5.27,14.75-13.38
		c0-8.59-5.57-13.97-16.02-13.97c-2.64,0-5.37,0.29-7.33,0.68c-0.29,1.66-0.39,3.81-0.39,6.45V35.58z"/>
</g>
<g>
	<path class="st1" d="M450.88,9.3c-0.29,1.86-0.39,4.3-0.39,7.72V59.7c0,7.81,1.46,10.16,4.79,11.53c0.1,0.1,0,0.59-0.2,0.59
		c-1.76-0.1-6.93-0.2-10.16-0.2s-8.4,0.1-10.26,0.2c-0.1,0-0.2-0.49-0.1-0.59c3.32-1.37,4.69-3.71,4.69-11.53V17.01
		c0-3.61-0.1-6.06-0.39-7.72h-6.84c-8.2,0-12.6,1.66-15.92,8.01c-0.1,0.1-0.59,0-0.59-0.1c0.59-5.27,0.98-10.35,0.98-13.77
		c0-0.2,0.1-0.29,0.29-0.29c2.34,0.1,9.86,0.29,15.24,0.29h25.79c5.27,0,12.89-0.2,15.24-0.29c0.2,0,0.29,0.1,0.29,0.29
		c0,3.42,0.39,8.5,0.98,13.77c0,0.1-0.49,0.2-0.59,0.1c-3.32-6.35-7.72-8.01-15.92-8.01H450.88z"/>
	<path class="st1" d="M485.54,14.67c0-7.42-1.46-9.47-4.59-10.84c-0.1-0.1,0-0.59,0.2-0.59c0.68,0,4.1,0.1,11.13,0.1h18.56
		c4.98,0,12.5-0.1,14.55-0.2c0.2,0,0.29,0.1,0.29,0.29c0.1,3.61,0.39,8.5,1.07,13.38c0,0.29-0.49,0.39-0.59,0.29
		c-3.32-6.35-7.81-7.91-16.41-7.91h-6.15c-2.64,0-4.79,0.2-6.45,0.39c-0.29,1.86-0.39,3.61-0.39,5.96v17.29h7.33
		c8.5,0,11.92-1.47,13.77-5.57c0.2-0.1,0.59,0,0.59,0.2c-0.2,1.66-0.29,5.47-0.29,8.4s0.1,6.64,0.29,8.3c0,0.2-0.39,0.29-0.59,0.2
		c-1.86-4-5.27-5.57-13.77-5.57h-7.33v20.41c0,2.54,0.1,4.3,0.39,5.86c1.95,0.49,4.69,0.88,8.2,0.88h6.45
		c8.69,0,14.26-2.64,18.95-9.28c0.1-0.1,0.59,0.2,0.59,0.39c-1.86,5.86-3.03,11.23-3.71,14.65c-0.1,0.29-0.29,0.39-0.49,0.39
		c-2.44-0.2-9.47-0.39-15.24-0.39h-19.63c-7.03,0-10.45,0.1-11.13,0.1c-0.2,0-0.29-0.39-0.2-0.59c3.13-1.37,4.59-3.42,4.59-10.84
		V14.67z"/>
	<path class="st1" d="M577.65,49.54h-22.76l-4.2,10.16c-2.83,6.93-2.44,9.67,2.44,11.53c0.1,0.2,0,0.59-0.2,0.59
		c-1.76-0.1-5.27-0.2-8.69-0.2c-3.61,0-7.23,0.1-9.08,0.2c-0.2,0-0.39-0.39-0.2-0.59c3.81-1.76,5.57-4.3,9.38-13.19l23.34-55.67
		c0.29-0.2,1.47-0.2,1.76,0l24.42,57.43c3.42,7.91,4.79,9.77,7.91,11.43c0.1,0.1,0,0.59-0.1,0.59c-2.15-0.1-6.06-0.2-10.84-0.2
		c-4.59,0-8.3,0.1-10.16,0.2c-0.1,0-0.2-0.49-0.1-0.59c3.71-1.47,4.4-4.2,1.95-9.87L577.65,49.54z M575.01,43.38l-8.79-21.29
		l-8.79,21.29H575.01z"/>
	<path class="st1" d="M600.83,38.11c0-20.9,15.04-36.24,35.94-36.24c10.06,0,16.12,3.71,20.12,3.71c1.27,0,2.54-0.78,3.32-1.56
		c0.1-0.1,0.59,0,0.59,0.29c0,5.08,0.29,11.53,1.08,17.58c0,0.1-0.49,0.29-0.68,0.1c-5.18-9.47-14.36-13.97-25.1-13.97
		c-14.65,0-23.83,10.35-23.83,27.45c0,18.56,10.84,31.45,25.98,31.45c9.38,0,18.66-4.49,24.42-14.36c0.2-0.1,0.68,0,0.68,0.2
		c-1.46,6.15-2.83,12.6-3.71,17.68c-0.1,0.29-0.59,0.29-0.68,0.2c-0.59-0.49-1.37-0.88-2.44-0.88c-4.49,0-9.87,3.42-19.73,3.42
		C615.77,73.17,600.83,58.52,600.83,38.11z"/>
	<path class="st1" d="M687.12,60.38c0,7.42,1.37,9.47,4.49,10.84c0.1,0.1,0,0.59-0.1,0.59c-1.86-0.1-5.86-0.2-10.06-0.2
		c-4.2,0-8.2,0.1-9.96,0.2c-0.2,0-0.29-0.49-0.2-0.59c3.12-1.37,4.59-3.42,4.59-10.84V14.67c0-7.42-1.47-9.47-4.59-10.84
		c-0.1-0.1,0-0.59,0.2-0.59c1.76,0.1,5.76,0.2,9.96,0.2c4.2,0,8.21-0.1,10.06-0.2c0.1,0,0.2,0.49,0.1,0.59
		c-3.12,1.37-4.49,3.42-4.49,10.84v17.78c2.93,0.1,8.3,0.29,14.16,0.29h8.11c5.76,0,11.23-0.2,14.16-0.29V14.67
		c0-7.42-1.37-9.47-4.49-10.84c-0.1-0.1,0-0.59,0.1-0.59c1.76,0.1,5.76,0.2,9.96,0.2s8.3-0.1,10.06-0.2c0.1,0,0.2,0.49,0.1,0.59
		c-3.03,1.37-4.49,3.42-4.49,10.84v45.71c0,7.42,1.46,9.47,4.49,10.84c0.1,0.1,0,0.59-0.1,0.59c-1.76-0.1-5.86-0.2-10.06-0.2
		s-8.2,0.1-9.96,0.2c-0.1,0-0.2-0.49-0.1-0.59c3.12-1.37,4.49-3.42,4.49-10.84v-21.1c-2.93-0.2-8.3-0.29-14.16-0.29h-8.11
		c-5.96,0-11.23,0.1-14.16,0.29V60.38z"/>
	<path class="st1" d="M753.13,14.96c0-7.52-1.47-9.77-4.88-11.13c-0.1-0.1,0-0.59,0.2-0.59c1.86,0.1,6.06,0.2,10.35,0.2
		c4.2,0,8.5-0.1,10.35-0.2c0.1,0,0.2,0.49,0.1,0.59c-3.32,1.37-4.88,3.61-4.88,11.13v45.12c0,7.52,1.56,9.77,4.88,11.13
		c0.1,0.1,0,0.59-0.1,0.59c-1.86-0.1-6.15-0.2-10.35-0.2c-4.3,0-8.5,0.1-10.35,0.2c-0.2,0-0.29-0.49-0.2-0.59
		c3.42-1.37,4.88-3.61,4.88-11.13V14.96z"/>
	<path class="st1" d="M783.55,13.4c0-4.59-1.95-7.03-5.96-9.67c-0.1-0.2,0-0.49,0.2-0.49c0.59,0,3.71,0.1,7.72,0.1
		c3.12,0,5.96-0.1,6.84-0.1c0.59,0,0.78,0.2,1.76,1.27l38.29,46.69V17.4c0-8.99-1.46-12.11-5.37-13.58c-0.1-0.2,0-0.59,0.2-0.59
		c1.86,0.1,5.18,0.2,8.5,0.2c3.42,0,6.84-0.1,8.5-0.2c0.29,0,0.39,0.39,0.29,0.59c-3.91,1.46-5.37,4.59-5.37,13.58v55.09
		c-0.49,0.39-2.44,0.49-2.93,0.2L790.38,17.7v39.95c0,8.99,1.46,12.11,5.27,13.58c0.1,0.2,0,0.59-0.2,0.59
		c-1.76-0.1-5.18-0.2-8.5-0.2c-3.42,0-6.74,0.1-8.59,0.2c-0.1,0-0.2-0.39-0.1-0.59c3.81-1.47,5.27-4.59,5.27-13.58V13.4z"/>
	<path class="st1" d="M887.42,1.88c10.06,0,16.12,3.71,20.12,3.71c1.27,0,2.54-0.78,3.32-1.56c0.1-0.1,0.59,0,0.59,0.29
		c0,5.08,0.29,11.53,1.08,17.58c0,0.1-0.49,0.29-0.68,0.1c-5.18-9.47-14.36-13.97-25.1-13.97C872.08,8.03,863,18.38,863,35.47
		c0,18.26,10.06,31.55,26.47,31.55c5.86,0,10.84-1.76,14.65-4.98c0.29-1.56,0.39-3.32,0.39-5.18v-5.18c0-5.67-1.56-7.62-4.79-9.08
		c-0.1-0.1,0-0.39,0.1-0.59c1.86,0.2,5.96,0.2,10.06,0.2c4.2,0,8.01,0,9.77-0.2c0.2,0.2,0.29,0.49,0.2,0.59
		c-3.03,1.37-4.3,3.32-4.3,8.79v5.57c0,3.91,0.68,4.98,2.15,5.37c0.1,0.1,0.1,0.39,0,0.59c-6.45,5.67-17.58,10.26-29.59,10.26
		c-20.8,0-36.63-13.77-36.63-35.06C851.47,17.21,866.61,1.88,887.42,1.88z"/>
</g>
</svg>
