<svg width="404" height="363" viewBox="0 0 404 363" fill="none" xmlns="http://www.w3.org/2000/svg">
<g clip-path="url(#clip0_958_3375)">
<path d="M191.09 344.88V328.945H196.661C197.771 328.945 198.686 329.137 199.407 329.521C200.128 329.9 200.665 330.411 201.018 331.054C201.37 331.692 201.547 332.4 201.547 333.178C201.547 333.863 201.425 334.428 201.181 334.874C200.942 335.32 200.626 335.673 200.232 335.932C199.843 336.192 199.42 336.384 198.964 336.508V336.664C199.451 336.695 199.941 336.866 200.434 337.177C200.927 337.488 201.339 337.934 201.671 338.515C202.003 339.096 202.169 339.807 202.169 340.647C202.169 341.446 201.988 342.164 201.625 342.802C201.261 343.44 200.688 343.946 199.905 344.32C199.122 344.693 198.103 344.88 196.847 344.88H191.09ZM193.019 343.168H196.847C198.108 343.168 199.003 342.924 199.532 342.437C200.066 341.944 200.333 341.348 200.333 340.647C200.333 340.108 200.196 339.61 199.921 339.153C199.646 338.692 199.254 338.323 198.746 338.049C198.237 337.768 197.636 337.628 196.941 337.628H193.019V343.168ZM193.019 335.948H196.598C197.179 335.948 197.703 335.834 198.17 335.605C198.642 335.377 199.016 335.056 199.29 334.641C199.571 334.226 199.711 333.738 199.711 333.178C199.711 332.478 199.467 331.884 198.979 331.396C198.492 330.903 197.719 330.657 196.661 330.657H193.019V335.948ZM208.608 345.16C207.85 345.16 207.163 345.017 206.546 344.732C205.929 344.442 205.438 344.024 205.075 343.479C204.712 342.93 204.531 342.266 204.531 341.488C204.531 340.803 204.665 340.248 204.935 339.823C205.205 339.392 205.565 339.055 206.017 338.811C206.468 338.567 206.966 338.386 207.511 338.266C208.06 338.142 208.613 338.043 209.168 337.971C209.894 337.877 210.483 337.807 210.934 337.761C211.39 337.709 211.722 337.623 211.93 337.504C212.143 337.385 212.249 337.177 212.249 336.881V336.819C212.249 336.052 212.039 335.455 211.619 335.03C211.204 334.604 210.573 334.392 209.728 334.392C208.851 334.392 208.164 334.584 207.666 334.967C207.168 335.351 206.818 335.761 206.616 336.197L204.873 335.574C205.184 334.848 205.599 334.283 206.118 333.878C206.642 333.468 207.212 333.183 207.83 333.022C208.452 332.856 209.064 332.773 209.666 332.773C210.05 332.773 210.491 332.82 210.988 332.913C211.492 333.002 211.977 333.186 212.443 333.466C212.915 333.746 213.307 334.169 213.618 334.734C213.93 335.299 214.085 336.057 214.085 337.006V344.88H212.249V343.262H212.156C212.031 343.521 211.824 343.798 211.533 344.094C211.243 344.39 210.856 344.641 210.374 344.849C209.891 345.056 209.303 345.16 208.608 345.16ZM208.888 343.511C209.614 343.511 210.226 343.368 210.724 343.083C211.227 342.797 211.606 342.429 211.86 341.978C212.119 341.526 212.249 341.052 212.249 340.554V338.873C212.171 338.967 212 339.052 211.735 339.13C211.476 339.203 211.175 339.268 210.833 339.325C210.496 339.376 210.166 339.423 209.845 339.465C209.528 339.501 209.272 339.532 209.074 339.558C208.597 339.62 208.151 339.721 207.736 339.861C207.326 339.996 206.994 340.201 206.74 340.476C206.491 340.746 206.367 341.114 206.367 341.581C206.367 342.219 206.603 342.701 207.075 343.028C207.552 343.35 208.156 343.511 208.888 343.511ZM225.902 335.605L224.252 336.072C224.149 335.797 223.996 335.53 223.793 335.271C223.596 335.006 223.326 334.789 222.984 334.617C222.642 334.446 222.203 334.361 221.669 334.361C220.938 334.361 220.328 334.529 219.841 334.866C219.358 335.198 219.117 335.621 219.117 336.135C219.117 336.591 219.283 336.952 219.615 337.216C219.947 337.481 220.466 337.701 221.171 337.877L222.945 338.313C224.014 338.572 224.81 338.969 225.334 339.504C225.858 340.033 226.12 340.715 226.12 341.55C226.12 342.234 225.923 342.847 225.528 343.386C225.139 343.925 224.595 344.351 223.894 344.662C223.194 344.973 222.38 345.129 221.451 345.129C220.232 345.129 219.224 344.864 218.425 344.335C217.626 343.806 217.12 343.033 216.908 342.017L218.65 341.581C218.816 342.224 219.13 342.707 219.592 343.028C220.059 343.35 220.668 343.511 221.42 343.511C222.276 343.511 222.956 343.329 223.459 342.966C223.967 342.598 224.221 342.157 224.221 341.643C224.221 341.228 224.076 340.881 223.786 340.601C223.495 340.315 223.049 340.103 222.447 339.963L220.455 339.496C219.361 339.236 218.557 338.834 218.043 338.29C217.535 337.74 217.281 337.053 217.281 336.228C217.281 335.554 217.47 334.957 217.849 334.438C218.233 333.92 218.754 333.513 219.413 333.217C220.077 332.921 220.829 332.773 221.669 332.773C222.852 332.773 223.78 333.033 224.455 333.551C225.134 334.07 225.617 334.755 225.902 335.605ZM228.884 344.88V332.929H230.72V344.88H228.884ZM229.817 330.937C229.459 330.937 229.151 330.815 228.891 330.571C228.637 330.328 228.51 330.035 228.51 329.692C228.51 329.35 228.637 329.057 228.891 328.813C229.151 328.569 229.459 328.447 229.817 328.447C230.175 328.447 230.481 328.569 230.735 328.813C230.995 329.057 231.124 329.35 231.124 329.692C231.124 330.035 230.995 330.328 230.735 330.571C230.481 330.815 230.175 330.937 229.817 330.937ZM238.938 345.129C237.818 345.129 236.853 344.864 236.044 344.335C235.235 343.806 234.612 343.077 234.176 342.149C233.741 341.22 233.523 340.16 233.523 338.967C233.523 337.753 233.746 336.682 234.192 335.753C234.643 334.82 235.271 334.091 236.075 333.567C236.884 333.038 237.828 332.773 238.907 332.773C239.747 332.773 240.505 332.929 241.179 333.24C241.853 333.551 242.406 333.987 242.836 334.547C243.267 335.108 243.534 335.761 243.638 336.508H241.801C241.661 335.963 241.35 335.481 240.868 335.061C240.39 334.636 239.747 334.423 238.938 334.423C238.222 334.423 237.595 334.61 237.055 334.983C236.521 335.351 236.103 335.873 235.803 336.547C235.507 337.216 235.359 338.002 235.359 338.904C235.359 339.828 235.504 340.632 235.795 341.316C236.09 342.001 236.505 342.533 237.04 342.911C237.579 343.29 238.212 343.479 238.938 343.479C239.415 343.479 239.848 343.396 240.237 343.23C240.626 343.064 240.956 342.826 241.226 342.515C241.495 342.203 241.687 341.83 241.801 341.394H243.638C243.534 342.1 243.277 342.735 242.867 343.3C242.463 343.861 241.926 344.307 241.257 344.639C240.593 344.965 239.82 345.129 238.938 345.129Z" fill="#FFC61A"/>
<path d="M168.913 17.4299H166.89L172.741 1.49539H174.733L180.584 17.4299H178.561L173.799 4.01628H173.675L168.913 17.4299ZM169.66 11.2055H177.814V12.9172H169.66V11.2055ZM187.33 17.6789C186.334 17.6789 185.455 17.4273 184.692 16.9242C183.93 16.4159 183.333 15.7001 182.903 14.7768C182.472 13.8483 182.257 12.7512 182.257 11.4856C182.257 10.2303 182.472 9.14106 182.903 8.21777C183.333 7.29448 183.932 6.58127 184.7 6.07812C185.468 5.57498 186.355 5.32341 187.361 5.32341C188.139 5.32341 188.754 5.45309 189.205 5.71244C189.661 5.9666 190.009 6.25708 190.247 6.58386C190.491 6.90545 190.681 7.16999 190.815 7.37747H190.971V1.49539H192.807V17.4299H191.033V15.5937H190.815C190.681 15.8116 190.489 16.0865 190.24 16.4185C189.991 16.7452 189.635 17.0383 189.174 17.2977C188.712 17.5518 188.097 17.6789 187.33 17.6789ZM187.579 16.0294C188.315 16.0294 188.938 15.8375 189.446 15.4537C189.954 15.0646 190.341 14.5278 190.605 13.8431C190.87 13.1532 191.002 12.357 191.002 11.4545C191.002 10.5623 190.872 9.78166 190.613 9.11253C190.354 8.43822 189.97 7.91433 189.462 7.54087C188.953 7.16221 188.326 6.97289 187.579 6.97289C186.801 6.97289 186.152 7.17259 185.634 7.57199C185.12 7.9662 184.734 8.50306 184.474 9.18256C184.22 9.85687 184.093 10.6142 184.093 11.4545C184.093 12.3051 184.223 13.078 184.482 13.7731C184.747 14.463 185.136 15.0128 185.649 15.4226C186.168 15.8271 186.811 16.0294 187.579 16.0294ZM206.198 5.47902L201.778 17.4299H199.911L195.492 5.47902H197.483L200.782 15.0024H200.907L204.206 5.47902H206.198ZM211.774 17.71C211.017 17.71 210.33 17.5674 209.712 17.2821C209.095 16.9916 208.605 16.5741 208.242 16.0294C207.879 15.4796 207.697 14.8157 207.697 14.0376C207.697 13.3529 207.832 12.7979 208.102 12.3726C208.372 11.9421 208.732 11.6049 209.183 11.3611C209.635 11.1173 210.133 10.9358 210.677 10.8165C211.227 10.692 211.779 10.5934 212.334 10.5208C213.061 10.4274 213.649 10.3574 214.101 10.3107C214.557 10.2589 214.889 10.1733 215.097 10.054C215.309 9.93468 215.416 9.7272 215.416 9.43154V9.36929C215.416 8.60161 215.205 8.0051 214.785 7.57977C214.37 7.15443 213.74 6.94176 212.895 6.94176C212.018 6.94176 211.331 7.13368 210.833 7.51752C210.335 7.90136 209.985 8.31114 209.782 8.74685L208.04 8.12441C208.351 7.39822 208.766 6.83284 209.284 6.42825C209.808 6.01847 210.379 5.73319 210.996 5.57239C211.619 5.4064 212.231 5.32341 212.832 5.32341C213.216 5.32341 213.657 5.37009 214.155 5.46346C214.658 5.55164 215.143 5.73578 215.61 6.01588C216.082 6.29598 216.474 6.71872 216.785 7.28411C217.096 7.84949 217.252 8.6068 217.252 9.55603V17.4299H215.416V15.8116H215.322C215.198 16.0709 214.99 16.3484 214.7 16.6441C214.409 16.9398 214.023 17.1913 213.54 17.3988C213.058 17.6063 212.469 17.71 211.774 17.71ZM212.054 16.0606C212.781 16.0606 213.393 15.9179 213.891 15.6326C214.394 15.3473 214.772 14.9791 215.027 14.5278C215.286 14.0765 215.416 13.6019 215.416 13.104V11.4234C215.338 11.5167 215.167 11.6023 214.902 11.6801C214.643 11.7527 214.342 11.8176 214 11.8746C213.662 11.9265 213.333 11.9732 213.011 12.0147C212.695 12.051 212.438 12.0821 212.241 12.108C211.764 12.1703 211.318 12.2714 210.903 12.4115C210.493 12.5463 210.161 12.7512 209.907 13.0261C209.658 13.2959 209.533 13.6642 209.533 14.131C209.533 14.769 209.769 15.2514 210.242 15.5782C210.719 15.8998 211.323 16.0606 212.054 16.0606ZM222.439 10.2407V17.4299H220.603V5.47902H222.377V7.34635H222.533C222.813 6.73947 223.238 6.25189 223.809 5.88361C224.379 5.51014 225.116 5.32341 226.018 5.32341C226.828 5.32341 227.536 5.4894 228.143 5.82137C228.749 6.14815 229.221 6.6461 229.559 7.31523C229.896 7.97917 230.064 8.81947 230.064 9.83612V17.4299H228.228V9.96061C228.228 9.02176 227.984 8.29039 227.497 7.7665C227.009 7.23742 226.34 6.97289 225.489 6.97289C224.903 6.97289 224.379 7.09997 223.918 7.35413C223.461 7.6083 223.101 7.97917 222.836 8.46675C222.572 8.95433 222.439 9.54565 222.439 10.2407ZM238.275 17.6789C237.154 17.6789 236.19 17.4144 235.38 16.8853C234.571 16.3562 233.949 15.6274 233.513 14.699C233.077 13.7705 232.86 12.7097 232.86 11.5167C232.86 10.303 233.083 9.23184 233.529 8.30336C233.98 7.36969 234.608 6.64092 235.412 6.11703C236.221 5.58795 237.165 5.32341 238.244 5.32341C239.084 5.32341 239.841 5.47902 240.516 5.79024C241.19 6.10147 241.742 6.53718 242.173 7.09737C242.603 7.65757 242.87 8.31114 242.974 9.05807H241.138C240.998 8.51343 240.687 8.03104 240.204 7.61089C239.727 7.18555 239.084 6.97289 238.275 6.97289C237.559 6.97289 236.931 7.15962 236.392 7.53308C235.858 7.90136 235.44 8.42266 235.139 9.09697C234.844 9.7661 234.696 10.5519 234.696 11.4545C234.696 12.3778 234.841 13.1818 235.131 13.8664C235.427 14.5511 235.842 15.0828 236.376 15.4615C236.916 15.8401 237.549 16.0294 238.275 16.0294C238.752 16.0294 239.185 15.9464 239.574 15.7805C239.963 15.6145 240.293 15.3759 240.562 15.0646C240.832 14.7534 241.024 14.38 241.138 13.9442H242.974C242.87 14.6497 242.614 15.2851 242.204 15.8505C241.799 16.4107 241.263 16.8568 240.593 17.1887C239.929 17.5155 239.157 17.6789 238.275 17.6789ZM250.669 17.6789C249.518 17.6789 248.524 17.4247 247.689 16.9164C246.859 16.4029 246.219 15.6871 245.767 14.769C245.321 13.8457 245.098 12.772 245.098 11.5478C245.098 10.3237 245.321 9.2448 245.767 8.31114C246.219 7.37229 246.846 6.64092 247.65 6.11703C248.46 5.58795 249.404 5.32341 250.482 5.32341C251.105 5.32341 251.72 5.42715 252.326 5.63463C252.933 5.84211 253.486 6.17927 253.984 6.6461C254.482 7.10775 254.878 7.71982 255.174 8.48231C255.47 9.2448 255.618 10.1837 255.618 11.2989V12.0769H246.405V10.4897H253.75C253.75 9.81538 253.615 9.21368 253.346 8.6846C253.081 8.15553 252.702 7.73797 252.21 7.43194C251.722 7.1259 251.146 6.97289 250.482 6.97289C249.751 6.97289 249.118 7.15443 248.584 7.51752C248.055 7.87543 247.648 8.34226 247.362 8.91802C247.077 9.49378 246.935 10.111 246.935 10.7698V11.8279C246.935 12.7305 247.09 13.4956 247.401 14.1232C247.718 14.7456 248.156 15.2203 248.716 15.547C249.276 15.8686 249.927 16.0294 250.669 16.0294C251.152 16.0294 251.587 15.962 251.976 15.8271C252.371 15.6871 252.71 15.4796 252.996 15.2047C253.281 14.9246 253.501 14.5771 253.657 14.1621L255.431 14.6601C255.244 15.2618 254.93 15.7908 254.489 16.2473C254.049 16.6986 253.504 17.0513 252.856 17.3054C252.207 17.5544 251.478 17.6789 250.669 17.6789ZM262.924 17.6789C261.928 17.6789 261.048 17.4273 260.286 16.9242C259.523 16.4159 258.927 15.7001 258.496 14.7768C258.066 13.8483 257.851 12.7512 257.851 11.4856C257.851 10.2303 258.066 9.14106 258.496 8.21777C258.927 7.29448 259.526 6.58127 260.294 6.07812C261.061 5.57498 261.948 5.32341 262.955 5.32341C263.733 5.32341 264.347 5.45309 264.799 5.71244C265.255 5.9666 265.603 6.25708 265.841 6.58386C266.085 6.90545 266.274 7.16999 266.409 7.37747H266.565V1.49539H268.401V17.4299H266.627V15.5937H266.409C266.274 15.8116 266.082 16.0865 265.833 16.4185C265.584 16.7452 265.229 17.0383 264.768 17.2977C264.306 17.5518 263.691 17.6789 262.924 17.6789ZM263.173 16.0294C263.909 16.0294 264.532 15.8375 265.04 15.4537C265.548 15.0646 265.935 14.5278 266.199 13.8431C266.464 13.1532 266.596 12.357 266.596 11.4545C266.596 10.5623 266.466 9.78166 266.207 9.11253C265.948 8.43822 265.564 7.91433 265.055 7.54087C264.547 7.16221 263.919 6.97289 263.173 6.97289C262.394 6.97289 261.746 7.17259 261.227 7.57199C260.714 7.9662 260.327 8.50306 260.068 9.18256C259.814 9.85687 259.687 10.6142 259.687 11.4545C259.687 12.3051 259.817 13.078 260.076 13.7731C260.34 14.463 260.729 15.0128 261.243 15.4226C261.762 15.8271 262.405 16.0294 263.173 16.0294Z" fill="#029D41"/>
<path d="M301.039 96.7C299.739 108.6 298.339 121.9 303.539 128C308.739 134.1 318.539 131.6 318.539 131.6L319.239 132.9C319.603 133.672 320.185 134.321 320.914 134.765C321.643 135.21 322.486 135.43 323.339 135.4C330.739 134.8 352.339 129.6 352.339 129.6C352.339 129.6 368.039 133.5 371.84 124.6C374.539 118.1 371.539 115.1 369.739 112.2C367.439 108.6 368.439 99.5 367.739 92.7999C367.039 86.0999 365.139 81.6 359.239 79.5C355.239 78.1 343.14 72.6 341.44 70.2L335.639 79.6C335.28 80.1652 334.777 80.6255 334.182 80.9345C333.588 81.2434 332.922 81.3901 332.253 81.3597C331.583 81.3292 330.934 81.1228 330.37 80.7612C329.805 80.3995 329.347 79.8955 329.039 79.2999C327.974 77.0417 326.63 74.9253 325.039 73C325.035 73.0515 325.012 73.0998 324.976 73.1364C324.939 73.1729 324.891 73.1954 324.839 73.2C322.539 76.3 303.939 85.6 302.539 90.4C301.892 92.4622 301.391 94.5674 301.039 96.7Z" fill="#7794FF"/>
<path d="M300.94 97.2999C300.952 97.0969 300.985 96.8957 301.04 96.7" stroke="black" stroke-width="0.65" stroke-miterlimit="10"/>
<path d="M287.44 93.6001C287.518 93.7794 287.619 93.9475 287.74 94.1001" stroke="black" stroke-width="0.65" stroke-miterlimit="10"/>
<path d="M275.94 84.7C276.02 84.9039 276.141 85.0891 276.296 85.244C276.451 85.3989 276.636 85.5201 276.84 85.6C276.832 85.9017 276.891 86.2014 277.012 86.4779C277.133 86.7543 277.313 87.0009 277.54 87.2C277.83 87.5359 278.213 87.7793 278.64 87.9C278.54 88.6 278.54 90.1 279.04 90.4C279.448 90.5792 279.896 90.6482 280.34 90.6C280.269 91.0497 280.376 91.5093 280.637 91.8822C280.898 92.2551 281.293 92.5124 281.74 92.6C282.409 92.7757 283.119 92.7047 283.74 92.4C283.74 92.4 285.64 93.3 286.84 93.9C287.133 94.1031 287.483 94.2081 287.84 94.2C292.04 102.5 304.54 127.3 311.94 128C313.487 128.231 315.067 127.95 316.44 127.2C320.24 125.2 320.94 119.6 316.14 113C313.64 109.6 306.54 102.2 301.24 96.7C297.54 92.9 294.74 90.1 294.74 90.1C294.74 90.1 291.84 86.9 290.04 85.1C288.24 83.3 286.64 81.6 284.64 81.3C282.792 81.2087 280.941 81.377 279.14 81.8L277.44 82C276.34 81.9 275.64 83.9 275.94 84.7Z" fill="#FEC2A0"/>
<path d="M279.24 84.6001C279.44 85.0001 279.14 85.4001 278.44 85.9001C278.175 85.9861 277.894 86.0128 277.618 85.9782C277.341 85.9437 277.076 85.8487 276.84 85.7001C277.038 85.9504 277.302 86.1395 277.603 86.2457C277.904 86.3519 278.229 86.3707 278.54 86.3001C279.54 86.1001 279.24 84.6001 279.24 84.6001Z" fill="#F99979"/>
<path d="M288.44 95.6999C288.909 95.3201 289.454 95.0471 290.04 94.8999C290.702 94.788 291.378 94.788 292.04 94.8999C292.04 94.8999 290.64 93.7999 289.94 93.9999C289.188 94.1939 288.405 94.228 287.64 94.0999L288.44 95.6999Z" fill="#F99979"/>
<path d="M285.94 90.1001C285.992 90.3873 285.974 90.6831 285.887 90.9619C285.8 91.2406 285.647 91.494 285.44 91.7001C284.913 92.0895 284.291 92.3312 283.64 92.4001C283.64 92.4001 285.84 90.9001 285.94 90.1001Z" fill="#F99979"/>
<path d="M265.74 77.3001C268.24 81.1001 272.74 83.0001 275.04 81.5001C277.34 80.0001 276.74 75.5001 274.24 71.7001C271.74 67.9001 267.74 66.0001 265.44 67.6001C263.14 69.2001 263.24 73.5001 265.74 77.3001Z" fill="#4F6DDB"/>
<path d="M277.34 84.0001L274.34 80.8001L275.64 79.6001L277.64 81.7001L277.34 84.0001Z" fill="#4F6DDB"/>
<path d="M277.04 83L274.84 80.6L276.24 79.2L278.54 81.6L277.04 83Z" fill="#7794FF"/>
<path d="M284.84 89.1001C284.003 89.6283 283.093 90.0325 282.14 90.3001C281.514 90.4412 280.879 90.5414 280.24 90.6001C280.24 90.6001 280.64 91.3001 282.54 90.8001C283.032 90.7222 283.498 90.5271 283.898 90.2312C284.298 89.9353 284.622 89.5473 284.84 89.1001Z" fill="#F99979"/>
<path d="M285.54 83.5001C284.02 83.217 282.518 82.8497 281.04 82.4001C279.24 81.8001 277.44 80.2001 276.94 81.5001C276.44 82.8001 277.34 84.1001 279.14 84.5001C280.94 84.9001 282.94 85.3001 283.24 86.2001C283.54 87.1001 284.34 91.0001 289.34 90.9001" fill="#FEC2A0"/>
<path d="M285.54 83.5001C284.02 83.217 282.518 82.8497 281.04 82.4001C279.24 81.8001 277.44 80.2001 276.94 81.5001C276.44 82.8001 277.34 84.1001 279.14 84.5001C280.94 84.9001 282.94 85.3001 283.24 86.2001C283.54 87.1001 284.34 91.0001 289.34 90.9001" stroke="#F99979" stroke-width="0.65" stroke-miterlimit="10" stroke-linecap="round"/>
<path d="M283.34 86.3C283.34 86.3 280.94 88.1001 280.14 88.1001C279.631 88.1322 279.122 88.0643 278.64 87.9001C278.982 88.1853 279.389 88.3804 279.826 88.4677C280.263 88.555 280.714 88.5318 281.14 88.4001C282.111 88.002 282.897 87.2521 283.34 86.3Z" fill="#F99979"/>
<path d="M275.219 80.7391C277.57 79.1873 277.428 74.8281 274.903 71.0025C272.377 67.177 268.424 65.3336 266.074 66.8854C263.723 68.4371 263.865 72.7963 266.39 76.6219C268.915 80.4475 272.868 82.2908 275.219 80.7391Z" fill="#7794FF"/>
<path d="M267.94 75.5C269.84 78.3 272.339 80.1 274.039 78.9C275.739 77.7 275.64 74.5 273.84 71.7C272.04 68.9 269.04 67.5 267.34 68.6C265.64 69.7 266.04 72.7 267.94 75.5Z" fill="white"/>
<path d="M18.6396 126.5V33.3C18.6423 28.1821 20.6765 23.2746 24.2954 19.6558C27.9143 16.0369 32.8218 14.0026 37.9396 14C43.0575 14.0026 47.965 16.0369 51.5839 19.6558C55.2028 23.2746 57.237 28.1821 57.2396 33.3V126.5H18.6396Z" fill="#029D41"/>
<path d="M57.2699 126.53H18.6699V239.03H57.2699V126.53Z" fill="#FF9C1A"/>
<path d="M18.6396 332.2V239H57.2396V332.2C57.237 337.318 55.2028 342.225 51.5839 345.844C47.965 349.463 43.0575 351.497 37.9396 351.5C32.8275 351.479 27.9307 349.439 24.3158 345.824C20.7009 342.209 18.6607 337.312 18.6396 332.2Z" fill="#FFC61A"/>
<path d="M37.94 101.4C53.0726 101.4 65.34 89.1327 65.34 74.0001C65.34 58.8675 53.0726 46.6001 37.94 46.6001C22.8074 46.6001 10.54 58.8675 10.54 74.0001C10.54 89.1327 22.8074 101.4 37.94 101.4Z" fill="white" stroke="#029D41" stroke-width="6.75" stroke-miterlimit="10"/>
<path d="M37.94 210.1C53.0726 210.1 65.34 197.833 65.34 182.7C65.34 167.567 53.0726 155.3 37.94 155.3C22.8074 155.3 10.54 167.567 10.54 182.7C10.54 197.833 22.8074 210.1 37.94 210.1Z" fill="white" stroke="#FF9C1A" stroke-width="6.75" stroke-miterlimit="10"/>
<path d="M37.94 318.3C53.0726 318.3 65.34 306.033 65.34 290.9C65.34 275.767 53.0726 263.5 37.94 263.5C22.8074 263.5 10.54 275.767 10.54 290.9C10.54 306.033 22.8074 318.3 37.94 318.3Z" fill="white" stroke="#FFC61A" stroke-width="6.75" stroke-miterlimit="10"/>
<path d="M24.4404 307.5H39.0404L31.7404 289.4L24.4404 307.5Z" fill="#FFC61A"/>
<path d="M37.9398 287.3C40.7565 287.3 43.0398 285.017 43.0398 282.2C43.0398 279.383 40.7565 277.1 37.9398 277.1C35.1232 277.1 32.8398 279.383 32.8398 282.2C32.8398 285.017 35.1232 287.3 37.9398 287.3Z" fill="#FFC61A"/>
<path d="M50.74 292.8H39.04V302.8H50.74V292.8Z" fill="#FFC61A"/>
<path d="M20.6668 288.13H19.0953L23.6404 275.752H25.1877L29.7328 288.13H28.1614L24.4624 277.71H24.3657L20.6668 288.13ZM21.247 283.295H27.5812V284.624H21.247V283.295Z" fill="#FFC61A"/>
<path d="M46.5585 287.15V274.772H47.9849V279.341H48.1058C48.2105 279.18 48.3556 278.974 48.5409 278.725C48.7303 278.471 49.0003 278.245 49.3508 278.048C49.7054 277.846 50.1849 277.745 50.7893 277.745C51.571 277.745 52.26 277.941 52.8564 278.332C53.4527 278.723 53.9181 279.277 54.2525 279.994C54.587 280.711 54.7542 281.557 54.7542 282.532C54.7542 283.515 54.587 284.368 54.2525 285.089C53.9181 285.806 53.4547 286.362 52.8624 286.757C52.2701 287.148 51.5871 287.343 50.8135 287.343C50.2171 287.343 49.7397 287.245 49.3811 287.047C49.0224 286.846 48.7464 286.618 48.553 286.364C48.3596 286.106 48.2105 285.893 48.1058 285.724H47.9365V287.15H46.5585ZM47.9607 282.508C47.9607 283.209 48.0635 283.828 48.269 284.364C48.4744 284.895 48.7746 285.313 49.1695 285.615C49.5644 285.913 50.0479 286.062 50.6201 286.062C51.2164 286.062 51.7141 285.905 52.113 285.591C52.5159 285.272 52.8181 284.845 53.0196 284.309C53.2251 283.769 53.3278 283.169 53.3278 282.508C53.3278 281.855 53.2271 281.267 53.0256 280.743C52.8282 280.215 52.528 279.798 52.125 279.492C51.7261 279.182 51.2245 279.027 50.6201 279.027C50.0399 279.027 49.5523 279.174 49.1574 279.468C48.7625 279.758 48.4644 280.165 48.2629 280.689C48.0614 281.209 47.9607 281.815 47.9607 282.508Z" fill="#FFC61A"/>
<path d="M18.6699 194.9H55.9099" stroke="#FF9C1A" stroke-miterlimit="10" stroke-linecap="round"/>
<path d="M20.8701 170.6V197.35" stroke="#FF9C1A" stroke-miterlimit="10" stroke-linecap="round"/>
<path d="M25.4102 194.9C27.048 189.374 29.2077 184.017 31.8602 178.9C33.1389 176.591 35.0143 174.667 37.2906 173.33C39.5668 171.993 42.1603 171.292 44.8002 171.3H55.9102" stroke="#FF9C1A" stroke-miterlimit="10" stroke-linecap="round"/>
<path d="M25.4102 194.9C27.9687 190.497 30.8676 186.301 34.0802 182.35C38.0802 177.47 43.6002 176.1 48.9702 176.1H55.9102" stroke="#FF9C1A" stroke-miterlimit="10" stroke-linecap="round"/>
<path d="M26.4102 194.04C26.4102 194.04 35.9402 181.7 48.9702 181.7H55.9102" stroke="#FF9C1A" stroke-miterlimit="10" stroke-linecap="round"/>
<path d="M325.44 67.6C325.94 68.9 327.04 70.3 325.04 73.2C326.64 75.2103 328.015 77.39 329.14 79.7C329.441 80.2743 329.886 80.7599 330.432 81.1084C330.979 81.457 331.607 81.6564 332.254 81.6867C332.902 81.7171 333.546 81.5773 334.122 81.2814C334.699 80.9855 335.188 80.5437 335.54 80L342.94 71.7C342.052 70.8831 341.247 69.9785 340.54 69C338.603 66.0505 337.151 62.8093 336.24 59.4C338.54 58.8 340.84 57.1 341.24 55.2C341.74 52.9 340.54 49.2 337.94 49C333.34 48.8 332.34 49.2 331.04 43.7C329.74 38.2 316.74 44.5 316.74 44.5C316.74 44.5 316.34 50.5 316.84 52.1C317.204 53.0572 317.373 54.0768 317.34 55.1C317.378 56.6694 317.311 58.2395 317.14 59.8C316.84 62.3 319.64 68.9 325.44 67.6Z" fill="#FEC2A0"/>
<path d="M326.84 51.9001C324.54 50.9001 323.54 51.5001 323.54 51.5001L323.34 50.3C323.328 50.1546 323.374 50.0106 323.468 49.8985C323.561 49.7864 323.694 49.7152 323.84 49.7001C324.815 49.6732 325.79 49.774 326.74 50.0001C327.44 50.4001 326.84 51.9001 326.84 51.9001Z" fill="white"/>
<path d="M317.14 50.9C317.463 50.9092 317.781 50.985 318.073 51.1227C318.366 51.2603 318.627 51.4568 318.84 51.7L318.94 50.2999C318.938 50.1461 318.889 49.9964 318.8 49.8711C318.711 49.7459 318.585 49.6512 318.44 49.6L317.14 49.2V50.9Z" fill="white"/>
<path d="M324.84 56.5C325.282 56.5 325.64 55.7837 325.64 54.9001C325.64 54.0164 325.282 53.3 324.84 53.3C324.398 53.3 324.04 54.0164 324.04 54.9001C324.04 55.7837 324.398 56.5 324.84 56.5Z" fill="#303134"/>
<path d="M318.34 56.2C318.726 56.2 319.04 55.5284 319.04 54.7C319.04 53.8715 318.726 53.2 318.34 53.2C317.953 53.2 317.64 53.8715 317.64 54.7C317.64 55.5284 317.953 56.2 318.34 56.2Z" fill="#303134"/>
<path d="M320.04 57C318.84 58.1 318.84 60.7 320.94 59.7" stroke="#303134" stroke-width="0.45" stroke-miterlimit="10" stroke-linecap="round"/>
<path d="M325.44 67.6C325.44 67.6 328.14 66.7 328.94 64.5C328.874 65.4889 328.588 66.4507 328.104 67.3155C327.62 68.1803 326.949 68.9265 326.14 69.5L325.44 67.6Z" fill="#F99979"/>
<path d="M38.9404 65.9V61.2" stroke="#029D41" stroke-miterlimit="10" stroke-linecap="round"/>
<path d="M40.4157 59.8703C40.9779 59.0504 40.769 57.93 39.9492 57.3678C39.1293 56.8056 38.0089 57.0145 37.4467 57.8344C36.8845 58.6542 37.0933 59.7746 37.9132 60.3368C38.7331 60.899 39.8535 60.6902 40.4157 59.8703Z" stroke="#029D41" stroke-miterlimit="10" stroke-linecap="round"/>
<path d="M47.4404 81.6001L51.4404 84.0001" stroke="#029D41" stroke-miterlimit="10" stroke-linecap="round"/>
<path d="M47.4404 70.6001L51.3404 68.1001" stroke="#029D41" stroke-miterlimit="10" stroke-linecap="round"/>
<path d="M30.3404 70.6001L26.4404 68.1001" stroke="#029D41" stroke-miterlimit="10" stroke-linecap="round"/>
<path d="M26.0084 85.9383C26.4089 85.0284 25.996 83.9661 25.0862 83.5656C24.1763 83.1651 23.114 83.578 22.7135 84.4878C22.313 85.3977 22.7259 86.4599 23.6357 86.8605C24.5456 87.261 25.6078 86.8481 26.0084 85.9383Z" stroke="#029D41" stroke-miterlimit="10" stroke-linecap="round"/>
<path d="M39.84 70.9C39.84 70.9 39.64 68 41.94 67.9C42.2145 67.8488 42.497 67.86 42.7666 67.9328C43.0361 68.0056 43.2858 68.1382 43.4972 68.3207C43.7085 68.5032 43.876 68.731 43.9873 68.987C44.0986 69.2431 44.1508 69.521 44.14 69.8C44.6737 69.8669 45.1698 70.1097 45.5501 70.49C45.9303 70.8703 46.1731 71.3664 46.24 71.9C46.4026 72.3868 46.4027 72.9132 46.2404 73.4001C46.0781 73.887 45.7622 74.3081 45.34 74.6C45.7168 74.6225 46.0838 74.7287 46.4144 74.9109C46.7449 75.093 47.0307 75.3466 47.251 75.653C47.4713 75.9595 47.6205 76.3112 47.6878 76.6826C47.7551 77.054 47.7388 77.4357 47.64 77.8C47.14 80.7 45.94 81.5 44.74 81.3C45.04 82.6 44.74 84.6 42.54 84.7C40.34 84.8 39.64 83.6 39.54 81.7" stroke="#029D41" stroke-miterlimit="10" stroke-linecap="round"/>
<path d="M38.14 70.9C38.14 70.9 38.44 68.2 36.14 67.9C35.867 67.8355 35.5831 67.8332 35.3091 67.8933C35.0352 67.9534 34.7782 68.0744 34.5574 68.2472C34.3365 68.4201 34.1573 68.6404 34.0332 68.8919C33.909 69.1433 33.843 69.4195 33.84 69.7C33.3019 69.7376 32.7921 69.9554 32.393 70.3183C31.9938 70.6811 31.7286 71.1679 31.64 71.7C31.14 73.7 32.34 74.4 32.34 74.4C31.9689 74.4049 31.6034 74.49 31.2684 74.6496C30.9334 74.8092 30.6369 75.0394 30.3994 75.3245C30.1618 75.6095 29.9888 75.9427 29.8923 76.3009C29.7957 76.6592 29.7779 77.0342 29.84 77.4C30.14 80.3 31.44 81.2 32.54 81C32.14 82.2 32.44 84.3 34.54 84.5C36.64 84.7 37.54 83.2 37.74 81.3" stroke="#029D41" stroke-miterlimit="10" stroke-linecap="round"/>
<path d="M43.04 70.7001C43.14 70.6001 44.14 69.8 44.14 69.8" stroke="#029D41" stroke-miterlimit="10" stroke-linecap="round"/>
<path d="M43.9404 80.5L44.8404 81.1" stroke="#029D41" stroke-miterlimit="10" stroke-linecap="round"/>
<path d="M38.9404 65.9V61.2" stroke="#029D41" stroke-miterlimit="10" stroke-linecap="round"/>
<path d="M40.4157 59.8703C40.9779 59.0504 40.769 57.93 39.9492 57.3678C39.1293 56.8056 38.0089 57.0145 37.4467 57.8344C36.8845 58.6542 37.0933 59.7746 37.9132 60.3368C38.7331 60.899 39.8535 60.6902 40.4157 59.8703Z" stroke="#029D41" stroke-miterlimit="10" stroke-linecap="round"/>
<path d="M55.1815 66.9123C55.2106 65.9186 54.4287 65.0894 53.435 65.0603C52.4414 65.0311 51.6122 65.813 51.583 66.8067C51.5539 67.8004 52.3358 68.6296 53.3295 68.6587C54.3232 68.6879 55.1524 67.906 55.1815 66.9123Z" stroke="#029D41" stroke-miterlimit="10" stroke-linecap="round"/>
<path d="M54.1389 86.8548C55.0488 86.4543 55.4617 85.392 55.0611 84.4821C54.6606 83.5723 53.5983 83.1594 52.6884 83.5599C51.7786 83.9605 51.3657 85.0227 51.7662 85.9326C52.1668 86.8424 53.2291 87.2553 54.1389 86.8548Z" stroke="#029D41" stroke-miterlimit="10" stroke-linecap="round"/>
<path d="M24.4858 68.7019C25.4795 68.6728 26.2614 67.8436 26.2323 66.8499C26.2031 65.8563 25.374 65.0743 24.3803 65.1035C23.3866 65.1326 22.6047 65.9618 22.6338 66.9555C22.663 67.9492 23.4921 68.7311 24.4858 68.7019Z" stroke="#029D41" stroke-miterlimit="10" stroke-linecap="round"/>
<path d="M30.3398 81.6001L26.3398 84.0001" stroke="#029D41" stroke-miterlimit="10" stroke-linecap="round"/>
<path d="M32.4404 74.4C32.4404 74.4 34.2404 75.5 34.7404 74" stroke="#029D41" stroke-miterlimit="10" stroke-linecap="round"/>
<path d="M45.34 74.5001C45.34 74.5001 42.74 75.2001 42.54 74.1001" stroke="#029D41" stroke-miterlimit="10" stroke-linecap="round"/>
<path d="M344.14 52.9C344.694 51.9992 345.421 51.2173 346.279 50.5994C347.137 49.9814 348.11 49.5398 349.14 49.3C346.64 36.5 341.24 38.4 337.14 37.4C335.84 37.1 333.34 34.9 337.44 31.9C333.48 31.7221 329.513 32.0582 325.64 32.9C325.64 32.9 313.84 35.2 315.14 44.4C315.84 48.9 314.74 49.5 313.24 52.9C312.961 53.5513 312.861 54.2648 312.949 54.9676C313.037 55.6704 313.31 56.3372 313.74 56.9C314.34 57.4 315.74 57.3 317.24 58.8C317.753 56.5658 317.787 54.2483 317.34 52C316.84 50.4 317.34 47.1 317.94 45.5C318.24 44.6 319.04 43 321.74 45.9C323.44 43.9 325.94 44.7 327.24 45.4C327.477 45.5105 327.683 45.6779 327.84 45.8872C327.997 46.0965 328.1 46.3414 328.14 46.6L329.04 55.4L332.54 56C332.54 56 332.44 49.9 337.04 50.1C341.64 50.3 341.34 57.8 336.14 59.3C336.609 61.199 337.28 63.0427 338.14 64.8C338.14 64.8 340.34 58 350.44 58.9C349.44 52.9 344.14 52.9 344.14 52.9Z" fill="white"/>
<path d="M319.84 60.3001C319.04 60.3001 318.74 59.8001 317.94 59.8001C316.24 59.8001 315.84 61.1001 316.14 61.3001C316.44 61.5001 317.34 61.1001 317.44 61.2001C317.54 61.3001 317.24 62.2001 317.44 62.5001C317.64 62.8001 318.64 62.0001 319.04 62.0001C319.44 62.0001 319.74 63.4001 320.14 63.3001C320.54 63.2001 321.04 61.9001 321.34 62.0001C321.64 62.1001 322.84 63.1001 323.14 62.9001C323.44 62.7001 323.04 61.7001 323.34 61.6001C323.64 61.5001 324.64 62.3001 324.94 62.1001C325.24 61.9001 325.04 60.1001 322.84 59.8001C321.94 59.6001 321.04 60.3001 319.84 60.3001Z" fill="white"/>
<path d="M325.74 72L332.74 76.4L325.04 83L324.84 73.2L325.74 72Z" fill="white"/>
<path d="M341.74 70.5L332.74 76.4L340.74 83L343.24 71.9L341.74 70.5Z" fill="white"/>
<path d="M339.24 81.7C337.999 82.9121 336.438 83.7447 334.74 84.1C334.144 84.189 333.541 84.2225 332.94 84.2C332.305 84.2193 331.669 84.1858 331.04 84.1C329.393 83.7415 327.874 82.9471 326.64 81.8L332.74 76.5L339.24 81.7Z" fill="#F0F0F0"/>
<path d="M330.04 78.7999L331.64 81.6999H334.04L335.64 78.7999L332.74 76.3999L330.04 78.7999Z" fill="#F66A31"/>
<path d="M334.64 84.1C334.045 84.189 333.442 84.2225 332.84 84.2C332.205 84.2192 331.57 84.1858 330.94 84.1L331.64 81.7H333.94L334.64 84.1Z" fill="#F66A31"/>
<path d="M371.44 79.8999C371.24 76.2999 371.74 71.9999 369.64 72.0999C369.64 71.0999 369.34 70.1999 368.54 70.0999C367.74 69.9999 366.84 69.7999 366.74 68.5999C366.74 68.3999 366.74 68.1299 366.67 67.8199L363.9 67.6899C363.951 68.2649 363.897 68.8445 363.74 69.3999C363.44 69.7999 363.04 69.5999 362.14 70.8999C361.24 72.1999 358.54 75.4999 358.54 75.9999C358.534 76.2113 358.588 76.4198 358.697 76.6012C358.806 76.7825 358.964 76.9291 359.153 77.0236C359.342 77.1182 359.554 77.1567 359.764 77.1348C359.974 77.1129 360.174 77.0314 360.34 76.8999C359.24 78.1999 358.84 78.7999 359.74 79.4999C360.021 79.6889 360.365 79.7631 360.699 79.7073C361.034 79.6516 361.334 79.4701 361.54 79.1999C361.54 79.1999 362.14 80.0999 362.64 80.8999C363.223 81.6695 363.632 82.5566 363.84 83.4999C363.921 85.3673 363.65 87.2332 363.04 88.9999C362.14 91.6999 357.24 103.6 354.74 111C353.84 113.6 352.54 117.7 353.34 121.4C354.24 125.3 361.94 127 365.14 125.5C368.34 124 369.24 120.1 370.04 116.1C371.44 109.1 371.64 83.4999 371.44 79.8999Z" fill="#FEC2A0"/>
<path d="M360.14 73.9001C360.14 73.9001 358.04 71.1001 359.14 70.2001C360.24 69.3001 361.64 71.2001 361.84 71.4001L360.14 73.9001Z" fill="#FEC2A0"/>
<path d="M360.64 76.6001L363.74 72.6001L367.14 71.6001" fill="#FEC2A0"/>
<path d="M360.64 76.6001L363.74 72.6001L367.14 71.6001" stroke="#F99979" stroke-width="0.65" stroke-miterlimit="10" stroke-linecap="round"/>
<path d="M361.44 79.1C361.44 79.1 364.74 74.8 365.14 74.7C365.54 74.6 368.04 73.7 368.04 73.7" fill="#FEC2A0"/>
<path d="M361.44 79.1C361.44 79.1 364.74 74.8 365.14 74.7C365.54 74.6 368.04 73.7 368.04 73.7" stroke="#F99979" stroke-width="0.65" stroke-miterlimit="10" stroke-linecap="round"/>
<path d="M363.34 82.1001C365.01 82.7756 366.756 83.2457 368.54 83.5001C367.831 83.8848 367.033 84.078 366.227 84.0604C365.42 84.0429 364.632 83.8153 363.94 83.4001L363.34 82.1001Z" fill="#F99979"/>
<path d="M362.74 78.9C362.74 78.9 364.84 76.6 366.04 76.6C366.802 76.526 367.546 76.3231 368.24 76" fill="#FEC2A0"/>
<path d="M362.74 78.9C362.74 78.9 364.84 76.6 366.04 76.6C366.802 76.526 367.546 76.3231 368.24 76" stroke="#F99979" stroke-width="0.65" stroke-miterlimit="10" stroke-linecap="round"/>
<path d="M182.84 95.6001C182.84 95.6001 210.44 149.4 214.64 149.2C224.44 138.1 212.44 112.8 212.04 109.5C211.64 106.2 207.74 99.2001 202.24 98.1001C196.74 97.0001 182.84 95.6001 182.84 95.6001Z" fill="#7794FF"/>
<path d="M180.44 91.8C180.44 91.8 201.14 95.0001 206.24 97.0001C212.24 99.4001 215.04 105.4 216.34 109.7C216.94 111.6 216.64 112.4 213.74 112.5H210.44C210.44 112.5 206.34 103.7 205.24 102.6C203.24 100.7 191.14 99.3001 187.44 98.7001C185.822 98.1646 184.349 97.2637 183.135 96.0671C181.921 94.8705 180.999 93.4104 180.44 91.8Z" fill="#4F6DDB"/>
<path d="M155.94 78.6001C156.073 77.392 155.971 76.1696 155.64 75.0001C155.14 73.2001 155.44 68.0001 158.74 66.5001C162.04 65.0001 167.24 66.1001 168.74 72.3001C170.24 78.5001 172.84 79.4001 172.84 79.4001C172.84 79.4001 172.74 72.5001 177.94 72.8001C183.14 73.1001 182.74 81.5001 176.84 83.1001C177.186 85.253 177.932 87.3221 179.04 89.2001C182.14 80.5001 187.54 82.3001 189.94 76.2001C190.98 73.3897 190.931 70.292 189.802 67.5161C188.673 64.7403 186.546 62.4873 183.84 61.2001C179.14 52.6001 160.64 52.9001 151.44 62.1001C154.64 65.9001 153.84 69.5001 154.34 73.1001C154.74 76.3001 154.84 77.4001 155.94 78.6001Z" fill="#F66A31"/>
<path d="M151.94 62.1C151.94 62.1 173.04 52.9999 177.34 72.6999" stroke="#D4531D" stroke-width="0.73" stroke-miterlimit="10" stroke-linecap="round"/>
<path d="M151.94 62.0999C151.94 62.0999 170.84 54.8999 175.24 74.6999" stroke="#D4531D" stroke-width="0.73" stroke-miterlimit="10" stroke-linecap="round"/>
<path d="M179.24 81C179.046 82.7735 179.322 84.5666 180.04 86.2" stroke="#D4531D" stroke-width="0.73" stroke-miterlimit="10" stroke-linecap="round"/>
<path d="M179.84 80C180.301 81.3377 181.177 82.4935 182.34 83.3" stroke="#D4531D" stroke-width="0.73" stroke-miterlimit="10" stroke-linecap="round"/>
<path d="M164.74 92.4C165.24 93.9 166.64 95.5 164.34 98.7C167.44 102 172.14 112.8 172.14 112.8L182.84 95.5C182.44 95 182.14 94.4 181.74 93.9C179.543 90.5473 177.889 86.8687 176.84 83C177.974 82.7 179.003 82.0933 179.814 81.2465C180.626 80.3997 181.188 79.3456 181.44 78.2C182.04 75.6 180.84 72.9 177.94 72.7C172.74 72.4 172.84 79.3 172.84 79.3C172.84 79.3 170.24 78.3 168.74 72.2C167.24 66.1 162.04 64.8 158.74 66.4C155.44 68 155.14 73.2 155.64 74.9C155.87 76.0855 155.971 77.2926 155.94 78.5C155.932 80.1787 155.764 81.8529 155.44 83.5C155.04 86.4 158.24 93.9 164.74 92.4Z" fill="#FEC2A0"/>
<path d="M140.34 125.3C143.24 116 159.74 102.8 164.14 99.1001C164.24 99.0001 164.24 98.9001 164.34 98.8001L164.44 98.9001C165.555 100.152 166.948 101.126 168.506 101.745C170.064 102.363 171.746 102.61 173.416 102.464C175.086 102.318 176.7 101.785 178.127 100.906C179.555 100.026 180.758 98.8261 181.64 97.4001L182.74 95.6001C184.64 98.3001 199.04 103.2 202.84 106.1C207.74 109.9 212.84 118 214.34 126.8C209.34 132.7 200.54 135.9 197.84 140.5C195.14 147.2 200.04 161 200.04 162.7C198.24 164.2 156.34 157.1 156.34 157.1L143.94 127.7C142.782 126.839 141.58 126.038 140.34 125.3Z" fill="white"/>
<path d="M143.94 127.6C150.94 132.3 155.94 135.4 155.94 135.4C155.94 135.4 159.44 156.1 155.34 157.9C151.64 159.5 147.84 160.8 143.44 154.3C140.24 149.5 142.94 138.7 143.94 127.6Z" fill="#F99979"/>
<path d="M162.64 74.3C162.64 74.3 163.84 73.5 166.34 74.7" stroke="#303134" stroke-width="0.51" stroke-miterlimit="10" stroke-linecap="round"/>
<path d="M157.34 74.6C157.11 74.3183 156.821 74.0915 156.492 73.9358C156.163 73.7801 155.804 73.6996 155.44 73.7" stroke="#303134" stroke-width="0.51" stroke-miterlimit="10" stroke-linecap="round"/>
<path d="M164.14 80C164.637 80 165.04 79.1493 165.04 78.1C165.04 77.0506 164.637 76.2 164.14 76.2C163.643 76.2 163.24 77.0506 163.24 78.1C163.24 79.1493 163.643 80 164.14 80Z" fill="#303134"/>
<path d="M156.84 79.6001C157.226 79.6001 157.54 78.9285 157.54 78.1001C157.54 77.2717 157.226 76.6001 156.84 76.6001C156.453 76.6001 156.14 77.2717 156.14 78.1001C156.14 78.9285 156.453 79.6001 156.84 79.6001Z" fill="#303134"/>
<path d="M158.74 80.5C157.44 81.8 157.44 84.7 159.74 83.5" stroke="#303134" stroke-width="0.51" stroke-miterlimit="10" stroke-linecap="round"/>
<path d="M163.14 84.3999C163.14 84.3999 162.74 86.8999 159.24 85.9999" stroke="#303134" stroke-width="0.51" stroke-miterlimit="10" stroke-linecap="round"/>
<path d="M164.74 92.3999C164.74 92.3999 167.74 91.2999 168.74 88.8999C168.74 92.3999 165.54 94.5999 165.54 94.5999L164.74 92.3999Z" fill="#F99979"/>
<path d="M164.54 82.5C166.473 82.5 168.04 80.933 168.04 79C168.04 77.067 166.473 75.5 164.54 75.5C162.607 75.5 161.04 77.067 161.04 79C161.04 80.933 162.607 82.5 164.54 82.5Z" stroke="#303134" stroke-width="0.53" stroke-miterlimit="10"/>
<path d="M155.94 82.3C157.542 82.3 158.84 80.733 158.84 78.8C158.84 76.8671 157.542 75.3 155.94 75.3C154.338 75.3 153.04 76.8671 153.04 78.8C153.04 80.733 154.338 82.3 155.94 82.3Z" stroke="#303134" stroke-width="0.53" stroke-miterlimit="10"/>
<path d="M161.14 78.1001H158.84" stroke="#303134" stroke-width="0.53" stroke-miterlimit="10"/>
<path d="M168.04 77.9L174.14 76.2" stroke="#303134" stroke-width="0.53" stroke-miterlimit="10"/>
<path d="M159.44 99.3C159.44 99.3 162.24 130.6 165.04 158.4C163.54 158.2 161.14 157.8 159.44 157.5C158.84 134.5 154.74 103.6 154.74 103.6L159.44 99.3Z" fill="#7794FF"/>
<path d="M190.44 97.2C190.44 97.2 175.34 130.6 182.64 161.2L188.14 162.1C188.14 162.1 180.44 126.9 196.94 98.7L190.44 97.2Z" fill="#7794FF"/>
<path d="M196.84 98.6001L200.64 104.6L195.04 102L196.84 98.6001Z" fill="#4F6DDB"/>
<path d="M159.44 99.3L162.24 100.7L159.74 102.8L159.44 99.3Z" fill="#4F6DDB"/>
<path d="M169.64 120.9C169.64 120.9 162.24 120.5 160.44 120.1C158.64 119.7 158.34 118.2 159.34 118C160.34 117.8 173.24 117.9 173.24 117.9C173.24 117.9 186.64 127.3 192.14 131.1C193.94 132.4 196.84 134.9 200.04 137.8C203.34 134.8 208.34 132.7 211.64 128.9C212.84 135.4 221.44 155.8 220.94 162C220.44 168.2 207.64 172.9 200.54 163.2C198.04 159.8 188.84 139.1 188.24 138.3C187.04 136.8 183.94 135.5 181.94 135.3C179.94 135.1 176.04 131.4 175.24 130.5C174.44 129.6 173.54 129.3 172.44 131C172.744 131.56 172.947 132.17 173.04 132.8C173.067 132.948 173.044 133.101 172.976 133.236C172.908 133.371 172.799 133.48 172.664 133.547C172.529 133.615 172.376 133.637 172.228 133.61C172.079 133.584 171.944 133.51 171.84 133.4C170.74 132.3 169.34 130.7 169.24 129.7C168.14 129.8 166.74 127.5 166.74 127.5C166.443 127.18 166.218 126.801 166.08 126.387C165.942 125.973 165.894 125.534 165.94 125.1C166.04 123.7 169.64 120.9 169.64 120.9Z" fill="#FEC2A0"/>
<path d="M166.64 127.6C168.24 123.7 173.34 123.4 173.34 123.4C171.86 123.839 170.446 124.478 169.14 125.3C168.25 126.002 167.414 126.771 166.64 127.6Z" fill="#F99979"/>
<path d="M169.24 129.7C170.94 126.4 175.14 126 175.14 126C173.966 126.481 172.83 127.049 171.74 127.7C170.64 128.5 169.24 129.7 169.24 129.7Z" fill="#F99979"/>
<path d="M169.64 120.9L172.24 120.8L168.94 121.5L169.64 120.9Z" fill="#F99979"/>
<path d="M201.44 139.2L217.84 158.6C217.84 158.6 218.44 155.7 211.74 147.7C205.04 139.7 201.44 139.2 201.44 139.2Z" fill="#F99979"/>
<path d="M214.44 126.7L212.44 131.9C212.151 131.049 211.917 130.181 211.74 129.3C212.14 128.9 214.44 126.7 214.44 126.7Z" fill="#303134"/>
<path opacity="0.8" d="M0.0399856 296V295.1C-0.0263494 295.396 -0.0263494 295.704 0.0399856 296Z" fill="#029D41"/>
<path d="M343.64 264.8C343.64 264.8 371.24 318.6 375.44 318.4C385.24 307.3 373.24 282 372.84 278.7C372.44 275.4 368.54 268.4 363.04 267.3C357.54 266.2 343.64 264.8 343.64 264.8Z" fill="#7794FF"/>
<path d="M341.24 261C341.24 261 361.94 264.2 367.04 266.2C373.04 268.6 375.84 274.6 377.14 278.9C377.74 280.8 377.44 281.6 374.54 281.7H371.34C371.34 281.7 367.24 272.9 366.14 271.8C364.14 269.9 352.04 268.5 348.34 267.9C346.715 267.357 345.232 266.455 344.003 265.26C342.774 264.066 341.829 262.61 341.24 261Z" fill="#4F6DDB"/>
<path d="M316.84 247.8C316.973 246.592 316.871 245.37 316.54 244.2C316.04 242.4 316.34 237.2 319.64 235.7C322.94 234.2 328.14 235.3 329.64 241.5C331.14 247.7 333.74 248.6 333.74 248.6C333.74 248.6 333.64 241.7 338.84 242C344.04 242.3 343.64 250.7 337.74 252.3C338.086 254.453 338.832 256.522 339.94 258.4C343.04 249.7 348.44 251.5 350.84 245.4C351.88 242.59 351.83 239.492 350.701 236.716C349.572 233.94 347.446 231.687 344.74 230.4C340.04 221.8 321.54 222.1 312.34 231.3C315.54 235.1 314.74 238.7 315.24 242.3C315.54 245.5 315.64 246.6 316.84 247.8Z" fill="#F66A31"/>
<path d="M312.84 231.4C312.84 231.4 333.94 222.3 338.24 242" stroke="#D4531D" stroke-width="0.73" stroke-miterlimit="10" stroke-linecap="round"/>
<path d="M312.84 231.4C312.84 231.4 331.74 224.2 336.14 244" stroke="#D4531D" stroke-width="0.73" stroke-miterlimit="10" stroke-linecap="round"/>
<path d="M340.14 250.2C339.947 251.973 340.223 253.767 340.94 255.4" stroke="#D4531D" stroke-width="0.73" stroke-miterlimit="10" stroke-linecap="round"/>
<path d="M340.64 249.2C341.101 250.538 341.977 251.693 343.14 252.5" stroke="#D4531D" stroke-width="0.73" stroke-miterlimit="10" stroke-linecap="round"/>
<path d="M325.64 261.6C326.14 263.1 327.54 264.7 325.24 267.9C328.34 271.2 333.04 282 333.04 282L343.74 264.7C343.34 264.2 343.04 263.6 342.64 263.1C340.443 259.747 338.789 256.069 337.74 252.2C338.874 251.9 339.903 251.293 340.715 250.446C341.526 249.6 342.089 248.546 342.34 247.4C342.94 244.8 341.74 242.1 338.84 241.9C333.64 241.6 333.74 248.5 333.74 248.5C333.74 248.5 331.14 247.5 329.64 241.4C328.14 235.3 322.94 234 319.64 235.6C316.34 237.2 316.04 242.4 316.54 244.1C316.771 245.285 316.871 246.493 316.84 247.7C316.832 249.379 316.665 251.053 316.34 252.7C315.94 255.7 319.14 263.1 325.64 261.6Z" fill="#FEC2A0"/>
<path d="M302.44 295.3C306.04 282.1 320.54 272 324.94 268.3C325.04 268.2 325.04 268.1 325.14 268L325.24 268.1C326.356 269.352 327.748 270.326 329.307 270.945C330.865 271.563 332.546 271.81 334.217 271.664C335.887 271.518 337.5 270.985 338.928 270.105C340.356 269.226 341.558 268.026 342.44 266.6L343.54 264.8C345.44 267.5 359.84 272.4 363.64 275.3C368.54 279.1 373.64 287.2 375.14 296C370.14 301.9 361.34 305.1 358.64 309.7C355.94 316.4 360.84 330.2 360.84 331.9C359.04 333.4 317.14 326.3 317.14 326.3L304.74 296.9C304.055 296.258 303.281 295.719 302.44 295.3Z" fill="white"/>
<path d="M304.84 296.8C311.84 301.5 316.84 304.6 316.84 304.6C316.84 304.6 320.34 325.3 316.24 327.1C312.54 328.7 308.74 330 304.34 323.5C301.04 318.7 303.84 307.9 304.84 296.8Z" fill="#F99979"/>
<path d="M323.54 243.5C323.54 243.5 324.74 242.7 327.24 243.9" stroke="#303134" stroke-width="0.51" stroke-miterlimit="10" stroke-linecap="round"/>
<path d="M318.24 243.8C318.01 243.518 317.72 243.291 317.391 243.136C317.063 242.98 316.703 242.9 316.34 242.9" stroke="#303134" stroke-width="0.51" stroke-miterlimit="10" stroke-linecap="round"/>
<path d="M324.94 249.2C325.437 249.2 325.84 248.349 325.84 247.3C325.84 246.251 325.437 245.4 324.94 245.4C324.443 245.4 324.04 246.251 324.04 247.3C324.04 248.349 324.443 249.2 324.94 249.2Z" fill="#303134"/>
<path d="M317.74 248.8C318.127 248.8 318.44 248.128 318.44 247.3C318.44 246.472 318.127 245.8 317.74 245.8C317.353 245.8 317.04 246.472 317.04 247.3C317.04 248.128 317.353 248.8 317.74 248.8Z" fill="#303134"/>
<path d="M319.54 249.7C318.24 251 318.24 253.9 320.54 252.7" stroke="#303134" stroke-width="0.51" stroke-miterlimit="10" stroke-linecap="round"/>
<path d="M324.04 253.6C324.04 253.6 323.64 256.1 320.14 255.2" stroke="#303134" stroke-width="0.51" stroke-miterlimit="10" stroke-linecap="round"/>
<path d="M325.64 261.6C325.64 261.6 328.64 260.5 329.64 258.1C329.64 261.6 326.44 263.8 326.44 263.8L325.64 261.6Z" fill="#F99979"/>
<path d="M285.64 277.8V281.6C284.84 279.9 285.54 278.8 285.64 277.8Z" fill="#FEC2A0"/>
<path d="M271.14 274.2C271.94 274.2 275.34 278.9 275.64 278.2C275.94 277.5 274.24 276.4 273.24 275.1C272.24 273.8 270.34 268.3 270.64 267.4C270.94 266.5 272.44 267.8 272.44 267.8C272.44 267.8 271.44 266.5 272.44 266C273.44 265.5 275.04 269 275.94 270.5C277.046 272.008 278.284 273.413 279.64 274.7C279.64 274.7 277.94 271.8 277.44 270.6C276.94 269.4 275.24 265.2 276.34 264.9C277.44 264.6 278.24 267.3 278.24 267.3C278.24 267.3 280.84 271.8 281.74 273.2C282.987 274.711 284.323 276.147 285.74 277.5V278C285.64 279.1 284.94 280.1 285.74 281.8V277.5C285.734 275.341 286.003 273.191 286.54 271.1C286.94 269.6 288.64 267.7 288.64 269.8C288.64 271.9 288.24 274.2 289.24 277.5C289.821 279.662 289.821 281.938 289.24 284.1C289.24 284.1 309.34 305.9 314.54 313C321.74 322.8 317.44 331.4 309.44 329.5C299.94 327.2 283.24 289.4 282.44 288.1C280.618 285.683 278.576 283.441 276.34 281.4C274.601 280.092 273.023 278.581 271.64 276.9C270.24 275 270.24 274.2 271.14 274.2Z" fill="#FEC2A0"/>
<path d="M285.04 246.1L298.34 273.4C298.34 273.4 289.94 276.8 282.14 280.5C274.54 284.2 270.54 292.6 270.54 292.6L251.64 259.6C251.64 259.6 258.04 253.9 268.84 255.8C268.84 250 285.04 246.1 285.04 246.1Z" fill="white"/>
<path d="M251.64 259.6L250.74 266.7L266.14 292.2L270.54 292.6L251.64 259.6Z" fill="#7794FF"/>
<path d="M268.84 255.8L282.74 280.2L280.84 281.2L268.84 255.8Z" fill="#DBDBDB"/>
<path d="M273.84 250.1L285.04 272.3L283.64 271.4L283.74 273.4L272.54 250.9L273.84 250.1Z" fill="#7794FF"/>
<path d="M325.34 251.7C327.273 251.7 328.84 250.133 328.84 248.2C328.84 246.267 327.273 244.7 325.34 244.7C323.407 244.7 321.84 246.267 321.84 248.2C321.84 250.133 323.407 251.7 325.34 251.7Z" stroke="#303134" stroke-width="0.53" stroke-miterlimit="10"/>
<path d="M316.84 251.5C318.442 251.5 319.74 249.933 319.74 248C319.74 246.067 318.442 244.5 316.84 244.5C315.239 244.5 313.94 246.067 313.94 248C313.94 249.933 315.239 251.5 316.84 251.5Z" stroke="#303134" stroke-width="0.53" stroke-miterlimit="10"/>
<path d="M322.04 247.3H319.64" stroke="#303134" stroke-width="0.53" stroke-miterlimit="10"/>
<path d="M328.84 247.2L335.04 245.4" stroke="#303134" stroke-width="0.53" stroke-miterlimit="10"/>
<path d="M285.84 278.1C286.54 280.2 287.64 281.6 289.54 281.8C289.864 280.007 289.796 278.164 289.34 276.4C288.34 273.1 288.74 270.8 288.74 268.7C288.74 266.6 287.04 268.4 286.64 270C286.146 272.099 285.878 274.244 285.84 276.4V278.1Z" fill="#FEC2A0"/>
<path d="M320.24 268.5C320.24 268.5 323.04 299.8 325.84 327.6C324.34 327.4 321.94 327 320.24 326.7C319.64 303.7 315.54 272.8 315.54 272.8L320.24 268.5Z" fill="#7794FF"/>
<path d="M351.24 266.4C351.24 266.4 336.14 299.8 343.44 330.4L348.94 331.3C348.94 331.3 341.24 296.1 357.74 267.9L351.24 266.4Z" fill="#7794FF"/>
<path d="M357.74 267.8L361.44 273.9L355.84 271.2L357.74 267.8Z" fill="#4F6DDB"/>
<path d="M320.24 268.5L323.04 269.9L320.54 272L320.24 268.5Z" fill="#4F6DDB"/>
<path d="M330.54 290.1C330.54 290.1 323.14 289.7 321.34 289.3C319.54 288.9 319.24 287.4 320.24 287.2C321.24 287 334.14 287.1 334.14 287.1C334.14 287.1 347.54 296.5 353.04 300.3C354.84 301.6 357.74 304.1 360.94 307C364.24 304 369.24 301.9 372.54 298.1C373.74 304.6 382.34 325 381.84 331.2C381.34 337.4 368.54 342.1 361.44 332.4C358.94 329 349.74 308.3 349.14 307.5C347.94 306 344.84 304.7 342.84 304.5C340.84 304.3 336.94 300.6 336.14 299.7C335.34 298.8 334.44 298.5 333.34 300.2C333.643 300.76 333.846 301.37 333.94 302C333.966 302.148 333.943 302.301 333.876 302.436C333.808 302.571 333.698 302.68 333.563 302.747C333.429 302.815 333.276 302.837 333.127 302.81C332.979 302.784 332.843 302.71 332.74 302.6C331.64 301.5 330.24 299.9 330.14 298.9C329.04 299 327.64 296.7 327.64 296.7C327.343 296.38 327.117 296.001 326.979 295.587C326.841 295.173 326.794 294.734 326.84 294.3C326.84 292.9 330.54 290.1 330.54 290.1Z" fill="#FEC2A0"/>
<path d="M327.54 296.8C329.14 292.9 334.24 292.6 334.24 292.6C332.76 293.039 331.347 293.678 330.04 294.5C329.15 295.203 328.314 295.972 327.54 296.8Z" fill="#F99979"/>
<path d="M330.14 299C331.84 295.7 336.04 295.3 336.04 295.3C334.865 295.781 333.729 296.349 332.64 297C331.759 297.605 330.924 298.274 330.14 299Z" fill="#F99979"/>
<path d="M330.54 290.1L333.14 290L329.74 290.7L330.54 290.1Z" fill="#F99979"/>
<path d="M362.34 308.4L378.74 327.8C378.74 327.8 379.34 324.9 372.64 316.9C365.94 308.9 362.34 308.4 362.34 308.4Z" fill="#F99979"/>
<path d="M375.24 295.9L373.24 301.1C372.95 300.249 372.717 299.381 372.54 298.5C373.04 298.1 375.24 295.9 375.24 295.9Z" fill="#303134"/>
<path d="M221.04 28.4001C217.99 28.4001 215.065 29.6117 212.908 31.7683C210.751 33.925 209.54 36.8501 209.54 39.9001C209.14 49.4001 218.54 64.8001 221.04 64.8001C223.54 64.8001 232.54 51.4001 232.54 39.9001C232.548 38.3876 232.256 36.8886 231.681 35.4898C231.105 34.091 230.259 32.8201 229.189 31.7506C228.12 30.6811 226.849 29.8344 225.45 29.2592C224.051 28.6841 222.552 28.3921 221.04 28.4001ZM221.04 33.6001C222.286 33.6001 223.504 33.9695 224.54 34.6618C225.576 35.3541 226.383 36.338 226.86 37.4892C227.337 38.6403 227.462 39.907 227.219 41.1291C226.976 42.3512 226.376 43.4738 225.495 44.3548C224.613 45.2359 223.491 45.8359 222.269 46.079C221.047 46.3221 219.78 46.1973 218.629 45.7205C217.478 45.2437 216.494 44.4362 215.801 43.4002C215.109 42.3641 214.74 41.1461 214.74 39.9001C214.75 38.2324 215.417 36.6361 216.597 35.4569C217.776 34.2777 219.372 33.6105 221.04 33.6001Z" fill="#029D41"/>
<path d="M232.84 277.7C229.79 277.7 226.864 278.912 224.708 281.068C222.551 283.225 221.34 286.15 221.34 289.2C220.94 298.7 230.34 314.1 232.84 314.1C235.34 314.1 244.34 300.7 244.34 289.2C244.34 286.15 243.128 283.225 240.971 281.068C238.815 278.912 235.89 277.7 232.84 277.7ZM232.84 283C234.086 283 235.304 283.369 236.34 284.062C237.376 284.754 238.183 285.738 238.66 286.889C239.137 288.04 239.262 289.307 239.018 290.529C238.775 291.751 238.175 292.874 237.294 293.755C236.413 294.636 235.291 295.236 234.069 295.479C232.847 295.722 231.58 295.597 230.429 295.12C229.277 294.644 228.294 293.836 227.601 292.8C226.909 291.764 226.54 290.546 226.54 289.3C226.55 287.632 227.217 286.036 228.396 284.857C229.576 283.678 231.172 283.01 232.84 283Z" fill="#FFC61A"/>
<path d="M195.04 230.1C206.24 240.8 211.54 260.5 202.94 274.1C173.74 320.2 115.94 321.2 115.14 297.9C114.34 274.6 179.04 272.7 214.44 322.2" stroke="#FFC61A" stroke-width="2" stroke-miterlimit="10" stroke-linecap="round" stroke-dasharray="6 6"/>
<path d="M221.04 147.4C240.24 173.8 216.54 200.9 185.84 214.6C157.24 227.3 122.14 228.2 115.84 215.8C104.44 193.1 150.34 180.3 189.54 225.6" stroke="#FF9C1A" stroke-width="2" stroke-miterlimit="10" stroke-linecap="round" stroke-dasharray="6 6"/>
<path d="M388.24 164.1C390.74 144.4 339.34 134.5 300.84 154.8C292.34 159.3 284.14 168.1 277.64 175.7" stroke="#FFC61A" stroke-width="2" stroke-miterlimit="10" stroke-linecap="round" stroke-dasharray="6 6"/>
<path d="M256.74 108.8C247.04 134.5 278.84 151.2 316.34 168.8C343.44 181.6 381.04 192.8 387.34 169.4" stroke="#FF9C1A" stroke-width="2" stroke-miterlimit="10" stroke-linecap="round" stroke-dasharray="6 6"/>
<path d="M276.44 90.1001C266.64 95.7001 261.54 101.6 258.24 105" stroke="#029D41" stroke-width="2" stroke-miterlimit="10" stroke-linecap="round" stroke-dasharray="5.51 5.51"/>
<path d="M320.04 70.5C309.74 73.6 299.64 78.4 290.64 82.5" stroke="#029D41" stroke-width="2" stroke-miterlimit="10" stroke-linecap="round" stroke-dasharray="6 6"/>
<path d="M221.04 64.7C232.54 130 389.61 134.2 391.91 84.2C392.41 73.3 379.84 65.7 361.64 65.6C352.24 65.6 342.44 66.5 342.44 66.5" stroke="#029D41" stroke-width="2" stroke-miterlimit="10" stroke-linecap="round" stroke-dasharray="6 6"/>
<path d="M378.74 235C352.44 188.5 258.04 204.2 258.04 204.2" stroke="#029D41" stroke-width="2" stroke-miterlimit="10" stroke-linecap="round" stroke-dasharray="6 6"/>
<path d="M283.84 301C278.84 303.8 276.94 307.7 279.64 312.6C290.24 332.3 404.84 287.2 382.04 239.6" stroke="#FF9C1A" stroke-width="2" stroke-miterlimit="10" stroke-linecap="round" stroke-dasharray="6 6"/>
<path d="M390.04 340.8C418.44 316.6 391.94 297.2 379.34 294" stroke="#FF9C1A" stroke-width="2" stroke-miterlimit="10" stroke-linecap="round" stroke-dasharray="6 6"/>
<path d="M232.84 313.7C268.84 383.1 367.14 361.6 390.04 340.7" stroke="#FFC61A" stroke-width="2" stroke-miterlimit="10" stroke-linecap="round" stroke-dasharray="6 6"/>
<path d="M153.54 143.6C148.84 137.2 127.64 114.9 124.84 112.3C123.837 111.407 122.687 110.696 121.44 110.2C117.74 110.6 114.14 111.8 110.44 112.7C109.65 113.797 108.468 114.549 107.14 114.8L120.24 120.9C120.825 120.553 121.469 120.316 122.14 120.2H122.24C125.64 127.5 139.94 158 148.44 160.1C156.44 162 160.74 153.4 153.54 143.6Z" fill="#FEC2A0"/>
<path d="M94.04 114.8C94.04 114.8 94.84 113.5 96.74 114.3C97.6677 114.623 98.5187 115.133 99.24 115.8" stroke="#F99979" stroke-width="0.33" stroke-miterlimit="10"/>
<path d="M124.24 105C124.74 104.7 125.24 104.4 125.24 104C125.24 103.3 124.14 103.1 123.84 102.9C123.54 102.7 123.44 102.2 123.74 102C124.24 101.5 124.94 101.7 124.94 100.8C124.94 99.9 122.24 98.6 123.54 97C124.64 95.7 125.24 95.5 124.94 94.5C124.44 93 120.34 91.2 119.14 89.2C118.44 88.1 118.84 84.6 118.54 83.1C118.24 81.6 117.14 79.2 112.64 76.1C110.444 74.7348 107.925 73.9757 105.34 73.9C103.376 73.7176 101.398 73.7512 99.4404 74C101.74 74.2 108.44 74.7 110.54 76.1C115.04 79.2 114.74 81.5 115.04 83.1C115.34 84.7 114.94 88.1 115.64 89.2C116.74 91.1 120.04 92.9 120.44 94.5C120.74 95.4 120.14 95.6 119.04 97C117.64 98.6 120.44 99.9 120.44 100.8C120.44 101.7 119.64 101.5 119.24 102C119.175 102.059 119.125 102.134 119.094 102.216C119.063 102.299 119.052 102.388 119.061 102.475C119.071 102.563 119.101 102.647 119.15 102.721C119.198 102.795 119.264 102.856 119.34 102.9C119.54 103 120.74 103.3 120.74 104C120.74 104.5 120.14 104.7 119.74 105C119.14 105.4 118.94 106.3 119.34 107.5C119.94 108.9 119.04 110.7 116.74 111.5C114.44 112.3 110.84 112.2 109.04 112.6C105.94 113.4 105.64 116.7 103.34 117.5C102.815 117.637 102.28 117.738 101.74 117.8C101.84 117.9 101.84 118 101.94 118.1C103.592 118.1 105.237 117.898 106.84 117.5C109.14 116.7 109.94 113.4 111.84 112.9C113.14 112.6 118.74 112.4 121.14 111.5C123.54 110.6 124.74 108.9 124.24 107.5C123.84 106.3 123.64 105.4 124.24 105Z" fill="#F2AA79"/>
<path d="M119.44 102.9C119.14 102.7 119.04 102.2 119.34 102C119.84 101.5 120.54 101.7 120.54 100.8C120.54 99.9 117.84 98.6001 119.14 97.0001C120.24 95.7001 120.84 95.5001 120.54 94.5001C120.04 93.0001 116.84 91.2 115.74 89.2C115.04 88.1 115.44 84.6 115.14 83.1C114.84 81.6 115.14 79.2 110.64 76.1C108.469 74.7733 105.984 74.0484 103.44 74.0001C102.108 73.8978 100.771 73.8978 99.4396 74.0001C101.987 74.1124 104.464 74.8694 106.64 76.2C111.14 79.3 111.34 81.6 111.64 83.2C111.94 84.8 111.54 88.2 112.24 89.3C113.34 91.2 116.64 93 117.04 94.6C117.34 95.5 116.74 95.7001 115.64 97.1C114.24 98.7001 117.04 100 117.04 100.9C117.04 101.8 116.24 101.6 115.84 102.1C115.774 102.16 115.724 102.234 115.693 102.316C115.662 102.399 115.651 102.488 115.661 102.575C115.67 102.663 115.701 102.747 115.749 102.821C115.798 102.895 115.863 102.956 115.94 103C116.14 103.1 117.34 103.4 117.34 104.1C117.34 104.6 116.74 104.8 116.34 105.1C115.74 105.5 115.54 106.4 115.94 107.6C116.54 109 114.94 111.3 112.34 111.7C110.04 112 106.44 110.6 104.04 113C102.54 114.4 102.24 116.2 99.9396 117C99.3501 117.177 98.7485 117.31 98.1396 117.4L98.4396 118.3C100.124 118.297 101.802 118.096 103.44 117.7C105.74 116.9 106.14 113.6 109.14 112.8C110.94 112.4 114.44 112.5 116.84 111.7C119.24 110.9 120.04 109.1 119.44 107.7C119.208 107.301 119.121 106.834 119.194 106.379C119.267 105.923 119.495 105.507 119.84 105.2C120.34 104.9 120.84 104.6 120.84 104.2C120.84 103.3 119.74 103 119.44 102.9Z" fill="#F37F2F"/>
<path d="M86.24 81.4C87.4551 81.4 88.44 80.415 88.44 79.2C88.44 77.985 87.4551 77 86.24 77C85.025 77 84.04 77.985 84.04 79.2C84.04 80.415 85.025 81.4 86.24 81.4Z" fill="#F37F2F"/>
<path d="M89.24 105.1C90.4551 105.1 91.44 104.115 91.44 102.9C91.44 101.685 90.4551 100.7 89.24 100.7C88.025 100.7 87.04 101.685 87.04 102.9C87.04 104.115 88.025 105.1 89.24 105.1Z" fill="#F37F2F"/>
<path d="M82.8402 93.8001C84.2762 93.8001 85.4402 92.636 85.4402 91.2001C85.4402 89.7642 84.2762 88.6001 82.8402 88.6001C81.4043 88.6001 80.2402 89.7642 80.2402 91.2001C80.2402 92.636 81.4043 93.8001 82.8402 93.8001Z" fill="#F37F2F"/>
<path d="M100.64 85.3001C101.524 85.3001 102.24 84.5838 102.24 83.7001C102.24 82.8164 101.524 82.1001 100.64 82.1001C99.7564 82.1001 99.04 82.8164 99.04 83.7001C99.04 84.5838 99.7564 85.3001 100.64 85.3001Z" fill="#F37F2F"/>
<path d="M99.8398 76.7C100.668 76.7 101.34 76.0284 101.34 75.2C101.34 74.3715 100.668 73.7 99.8398 73.7C99.0114 73.7 98.3398 74.3715 98.3398 75.2C98.3398 76.0284 99.0114 76.7 99.8398 76.7Z" fill="#F37F2F"/>
<path d="M94.8402 91.8001C95.7239 91.8001 96.4402 91.0838 96.4402 90.2001C96.4402 89.3164 95.7239 88.6001 94.8402 88.6001C93.9566 88.6001 93.2402 89.3164 93.2402 90.2001C93.2402 91.0838 93.9566 91.8001 94.8402 91.8001Z" fill="#F37F2F"/>
<path d="M96.7398 99.1C97.513 99.1 98.1398 98.4732 98.1398 97.7C98.1398 96.9268 97.513 96.3 96.7398 96.3C95.9666 96.3 95.3398 96.9268 95.3398 97.7C95.3398 98.4732 95.9666 99.1 96.7398 99.1Z" fill="#F37F2F"/>
<path d="M99.0396 108.3C99.8128 108.3 100.44 107.673 100.44 106.9C100.44 106.127 99.8128 105.5 99.0396 105.5C98.2665 105.5 97.6396 106.127 97.6396 106.9C97.6396 107.673 98.2665 108.3 99.0396 108.3Z" fill="#F37F2F"/>
<path d="M91.6402 115C92.4134 115 93.0402 114.373 93.0402 113.6C93.0402 112.827 92.4134 112.2 91.6402 112.2C90.867 112.2 90.2402 112.827 90.2402 113.6C90.2402 114.373 90.867 115 91.6402 115Z" fill="#F37F2F"/>
<path d="M87.7402 78.6L99.0402 75.5" stroke="#F37F2F" stroke-width="0.46" stroke-miterlimit="10"/>
<path d="M87.8398 79.5L99.9398 83.5" stroke="#F37F2F" stroke-width="0.46" stroke-miterlimit="10"/>
<path d="M87.1396 80.3L94.5396 89.7" stroke="#F37F2F" stroke-width="0.46" stroke-miterlimit="10"/>
<path d="M86.04 80.6001L83.04 89.7001" stroke="#F37F2F" stroke-width="0.46" stroke-miterlimit="10"/>
<path d="M83.6396 92.8C83.7396 92.8 88.4396 101.8 88.4396 101.8" stroke="#F37F2F" stroke-width="0.46" stroke-miterlimit="10"/>
<path d="M90.54 102L96.34 98" stroke="#F37F2F" stroke-width="0.46" stroke-miterlimit="10"/>
<path d="M90.3398 103.5C90.4398 103.5 98.9398 106.9 98.9398 106.9" stroke="#F37F2F" stroke-width="0.46" stroke-miterlimit="10"/>
<path d="M89.54 104.2L91.44 112.8" stroke="#F37F2F" stroke-width="0.46" stroke-miterlimit="10"/>
<path d="M106.94 114.9C104.84 115.3 102.64 115.7 100.44 114.9C98.2401 114.1 95.7401 112.1 94.3401 112.6C92.9401 113.1 93.1401 114.2 94.0401 114.7C93.9401 115.5 93.9401 115.9 95.6401 116.6C97.3401 117.3 98.9401 119.7 100.44 120.4C102.313 121.088 104.259 121.557 106.24 121.8C108.937 122.368 111.684 122.67 114.44 122.7C116.475 122.433 118.442 121.788 120.24 120.8L110.44 114.9C109.276 115 108.105 115 106.94 114.9Z" fill="#FEC2A0"/>
<path d="M108.94 122C108.74 122 100.24 118.1 99.2401 117.5C98.2401 116.9 98.2401 115.6 100.04 115.7C101.84 115.8 104.54 117.4 105.54 117.8C107.135 118.25 108.783 118.485 110.44 118.5" stroke="#F99979" stroke-width="0.33" stroke-miterlimit="10"/>
<path d="M124.34 89.3C136.64 90.1 147.64 97.5001 154.64 103.6" stroke="#029D41" stroke-width="2" stroke-miterlimit="10" stroke-linecap="round" stroke-dasharray="6 6"/>
<path d="M221.04 64.7C214.34 154.4 88.4405 168.8 80.2405 123.3C78.8405 115.3 79.8405 110.8 84.0405 106.8" stroke="#029D41" stroke-width="2" stroke-miterlimit="10" stroke-linecap="round" stroke-dasharray="6 6"/>
<path d="M367.34 60.6C368.04 58.4 367.14 57.5 366.14 58.3C365.44 59 364.54 60.2 364.14 63.3C363.971 64.7571 363.891 66.2232 363.9 67.69L366.67 67.82C366.382 65.393 366.61 62.9326 367.34 60.6Z" fill="#FEC2A0"/>
</g>
<defs>
<clipPath id="clip0_958_3375">
<rect width="403.7" height="362.1" fill="white"/>
</clipPath>
</defs>
</svg>
