<svg xmlns="http://www.w3.org/2000/svg" xmlns:xlink="http://www.w3.org/1999/xlink" viewBox="0 0 380.23 356.76"><defs><style>.cls-1,.cls-13,.cls-18,.cls-2,.cls-21,.cls-22,.cls-24,.cls-30,.cls-33,.cls-35,.cls-37,.cls-4,.cls-6,.cls-7{fill:none;}.cls-13,.cls-18,.cls-2,.cls-21,.cls-22,.cls-30{stroke:#303134;stroke-linecap:round;}.cls-13,.cls-18,.cls-2,.cls-21,.cls-22,.cls-24,.cls-30,.cls-33,.cls-35,.cls-37,.cls-4,.cls-6,.cls-7{stroke-miterlimit:10;}.cls-2{stroke-width:2.37px;stroke-dasharray:10.81 10.81;}.cls-3{fill:#fec2a0;}.cls-33,.cls-4{stroke:#f99979;}.cls-4{stroke-width:0.42px;}.cls-5{fill:#794300;}.cls-6{stroke:#f4706b;stroke-width:2.13px;}.cls-7{stroke:#029d41;stroke-width:1.9px;}.cls-8{fill:#029d41;}.cls-9{fill:#c0c4c3;}.cls-10{fill:#8f918b;}.cls-11{fill:#ffc61a;}.cls-12{fill:#ff9c1a;}.cls-13{stroke-width:0.61px;}.cls-14{fill:#303134;}.cls-15{fill:#f99979;}.cls-16{fill:#4f6ddb;}.cls-17{fill:#949690;}.cls-18{stroke-width:1.1px;}.cls-19{fill:#fff;}.cls-20{fill:#5473e8;}.cls-21{stroke-width:0.58px;}.cls-22{stroke-width:0.61px;}.cls-23{clip-path:url(#clip-path);}.cls-24{stroke:#dbaa16;stroke-width:1.11px;}.cls-25{fill:#01692b;}.cls-26{fill:#452600;}.cls-27{fill:#7794ff;}.cls-28{fill:#fed1b7;}.cls-29{fill:#d1d1d1;}.cls-30{stroke-width:0.55px;}.cls-31{fill:#f0f0f0;}.cls-32{fill:#f66a31;}.cls-33{stroke-width:0.74px;}.cls-34{clip-path:url(#clip-path-2);}.cls-35{stroke:#bfbfbf;}.cls-36{clip-path:url(#clip-path-3);}.cls-37{stroke:#028f3b;}</style><clipPath id="clip-path" transform="translate(-20.5 -19.48)"><path class="cls-1" d="M326.8,255.71s-8.86-13.69,15.37-14.6c33.65-1.25,28.24,22,26.25,28.23-4.61,14.39-23.33,13.6-23.33,13.6Z"/></clipPath><clipPath id="clip-path-2" transform="translate(-20.5 -19.48)"><path class="cls-1" d="M344.16,21.75c-7.8-5.88-32.41,1.5-32.41,1.5s3.77,9.83,4.84,11.33c0,0,12.91-.66,14.48,0A1.78,1.78,0,0,1,332.12,36s.41,4.16.8,5.74c.59,2.4.56,4.35,3.12,4.78,0,0-.14-7.08,5.51-6.81,2.53.12,3.75,2.82,3.53,5.52a12,12,0,0,1-3.3,5.42l.73,3.07a1.06,1.06,0,0,0,.45-.11,16.17,16.17,0,0,0,8.33-10.5C352.83,36.22,355,21.63,344.16,21.75Z"/></clipPath><clipPath id="clip-path-3" transform="translate(-20.5 -19.48)"><path class="cls-1" d="M103.35,221a15.5,15.5,0,0,1,.31-4.38c.65-2.13.22-8.43-3.73-10.34s-10.24-.43-12.06,7-5,8.64-5,8.64.16-8.32-6.13-8-5.86,10.56,1.28,12.48a18.34,18.34,0,0,1-2.67,7.33c-3.75-10.48-10.31-8.31-13.13-15.67-2.15-5.62-.62-14.42,7.35-18.12,5.73-10.45,28-10.06,39.22,1.05-3.84,4.65-2.92,8.92-3.48,13.33C104.85,218.29,104.72,219.63,103.35,221Z"/></clipPath></defs><title>Developing Learning Pathways_light_mode</title><g id="Слой_4" data-name="Слой 4"><rect class="cls-2" x="54.27" y="80.33" width="253.7" height="159.38" rx="15.18" ry="15.18"/></g><g id="Слой_2" data-name="Слой 2"><path class="cls-3" d="M176,216.59c.57-1,.64-1.81-.31-2.07s-4.54,3.44-4.54,3.44l1.55-3c.22-.43.18-1.44-1-1.12s-2.09,2.28-2.9,3.89a16.77,16.77,0,0,1-4.24,4.58c-1.71,1.43-5.91,2.69-6,2.08s3.1-3.51,4.24-4.79a2.35,2.35,0,0,0,.37-3.1c-.46-.4-1-.57-2.12.62a48.78,48.78,0,0,1-5.37,4.33,36.49,36.49,0,0,0-7.16,7.09,30,30,0,0,1-4.66,8c-4.81,5.69-19.77,31.66-19.77,31.66s-13.26-4-15.22-1.63c-10.6,12.51-13.32,26.08-3.7,23.77,5-1.2,17.24,1.68,25.82-2.82s22.64-49.38,22.8-49.54c.77-.76,5.33-2.72,7.69-3.16s7.51-3.79,8-4.62,1.46-3.42,2-4.42,4.54-6.89,4.93-7.67S176.39,216.72,176,216.59Z" transform="translate(-20.5 -19.48)"/><path class="cls-4" d="M165.73,225a18.31,18.31,0,0,0,3.13-3.08c.76-1.22,2.31-4,2.31-4" transform="translate(-20.5 -19.48)"/><path class="cls-4" d="M176,216.59s-.54-.49-1.3.14a39.41,39.41,0,0,0-3.15,4.27" transform="translate(-20.5 -19.48)"/><path class="cls-4" d="M164.42,229.44a6.23,6.23,0,0,0,2.87-1.79c.86-1.06,1.23-1.13,1.63-2.56s1.22-4.56,2.67-4-.33,4.1-.33,4.1" transform="translate(-20.5 -19.48)"/><path class="cls-5" d="M391.7,328.35s4.23,6.58,8.8,21.34a4.82,4.82,0,0,1,0,2.74c-2.46,8.61-21.56,20-21.56,20l-4.26-35.86Z" transform="translate(-20.5 -19.48)"/><rect class="cls-6" x="69.87" y="126.1" width="52.7" height="39.67" rx="1.87" ry="1.87"/><rect class="cls-6" x="154.63" y="97.92" width="52.7" height="39.67" rx="1.87" ry="1.87"/><line class="cls-7" x1="125.26" y1="133.8" x2="149.17" y2="120.07"/><polygon class="cls-8" points="145.66 122.03 147.62 125.67 149.78 122.15 151.95 118.64 147.82 118.52 143.7 118.4 145.66 122.03"/><line class="cls-7" x1="125.26" y1="155.9" x2="149.17" y2="169.63"/><polygon class="cls-8" points="145.66 167.67 147.62 164.04 149.78 167.55 151.95 171.06 147.82 171.18 143.7 171.3 145.66 167.67"/><rect class="cls-6" x="154.63" y="154.28" width="52.7" height="39.67" rx="1.87" ry="1.87"/><rect class="cls-6" x="239.65" y="126.1" width="52.7" height="39.67" rx="1.87" ry="1.87"/><line class="cls-7" x1="210.28" y1="161.98" x2="234.2" y2="148.25"/><polygon class="cls-8" points="230.68 150.21 232.64 153.84 234.81 150.33 236.97 146.81 232.85 146.69 228.72 146.57 230.68 150.21"/><line class="cls-7" x1="210.28" y1="184.08" x2="234.2" y2="197.81"/><polygon class="cls-8" points="230.68 195.85 232.64 192.21 234.81 195.73 236.97 199.24 232.85 199.36 228.72 199.48 230.68 195.85"/><rect class="cls-6" x="239.65" y="182.45" width="52.7" height="39.67" rx="1.87" ry="1.87"/><path class="cls-9" d="M90.94,237.69s2,.66,2.73,1a5.38,5.38,0,0,1,2.72,2.95c.83,1.89-.18,5.13-.18,5.13l-2.09-1.88Z" transform="translate(-20.5 -19.48)"/><path class="cls-10" d="M93.67,239.86c.55.3,2.63,1.76,1.31,5.23a51.29,51.29,0,0,0-5-1.36l2.08-4.52A13.7,13.7,0,0,1,93.67,239.86Z" transform="translate(-20.5 -19.48)"/><path class="cls-11" d="M70.86,241.58S36,314.89,30.94,314.75c-23.59-6.83-.24-48.79,2.52-59.49,2.4-9.29,7.17-9.77,13.92-10.61C53.83,243.84,61.38,242.51,70.86,241.58Z" transform="translate(-20.5 -19.48)"/><path class="cls-8" d="M103.35,221a15.5,15.5,0,0,1,.31-4.38c.65-2.13.22-8.43-3.73-10.34s-10.24-.43-12.06,7-5,8.64-5,8.64.16-8.32-6.13-8-5.86,10.56,1.28,12.48a18.34,18.34,0,0,1-2.67,7.33c-3.75-10.48-10.31-8.31-13.13-15.67-2.15-5.62-.62-14.42,7.35-18.12,5.73-10.45,28-10.06,39.22,1.05-3.84,4.65-2.92,8.92-3.48,13.33C104.85,218.29,104.72,219.63,103.35,221Z" transform="translate(-20.5 -19.48)"/><path class="cls-3" d="M92.68,237.78c-.63,1.77-2.24,3.73.53,7.68-3.74,3.94-9.4,17.05-9.4,17.05l-13-20.93c.44-.64.88-1.29,1.31-2a45.65,45.65,0,0,0,5.89-13.14,7.61,7.61,0,0,1-5.54-5.85c-.67-3.18.75-6.44,4.26-6.62,6.29-.32,6.13,8,6.13,8s3.15-1.18,5-8.64,8.11-9,12.06-7,4.38,8.21,3.73,10.34a15.5,15.5,0,0,0-.31,4.38,52.18,52.18,0,0,0,.55,6.07C104.41,230.53,100.57,239.59,92.68,237.78Z" transform="translate(-20.5 -19.48)"/><path class="cls-12" d="M117.08,266.42,103.74,285l-.92,30.89s-59.79,4.37-62,2.58a3.91,3.91,0,0,1,.12-.69c1-4.27,7.67-23.71,8.35-25.64l0-.08,0-.07h0a95.49,95.49,0,0,1-14.16-7,33,33,0,0,1-7.78-6.25c8.36-3.14,12.35-20.58,18.3-25.15,4.58-3.51,22.84-8.72,25.18-12l1.37,2.23a13.11,13.11,0,0,0,20.87,1.78l.12-.12a1.05,1.05,0,0,0,.22.31C98.8,250.32,117.08,266.42,117.08,266.42Z" transform="translate(-20.5 -19.48)"/><path class="cls-13" d="M95.21,213.88s-1.4-.91-4.48.49" transform="translate(-20.5 -19.48)"/><path class="cls-13" d="M101.64,214.23a3.08,3.08,0,0,1,2.26-1.13" transform="translate(-20.5 -19.48)"/><ellipse class="cls-14" cx="73" cy="199" rx="1.1" ry="2.24"/><ellipse class="cls-14" cx="81.76" cy="199" rx="0.9" ry="1.83"/><path class="cls-13" d="M100,221.31c1.61,1.53,1.61,5-1.24,3.68" transform="translate(-20.5 -19.48)"/><path class="cls-13" d="M94.59,226.07s.44,3.08,4.72,1.88" transform="translate(-20.5 -19.48)"/><path class="cls-15" d="M92.68,237.78s-3.68-1.28-4.8-4.24c0,4.24,3.84,6.88,3.84,6.88Z" transform="translate(-20.5 -19.48)"/><path class="cls-3" d="M49.31,292a95.49,95.49,0,0,1-14.16-7c-2.47,8.73-9,23.44-8.47,30,.23,2.73,4.09,4.63,7.16,6.14,1.67-2.24,5.66-3.14,7.1-3.4l.53-.08,7.81-25.56,0-.08a.39.39,0,0,1,0-.07Z" transform="translate(-20.5 -19.48)"/><path class="cls-16" d="M70.27,237.69l2.35,4.06,2.75,2.66-3.52,7.5s-2.09-3.53-2.87-4.65c-1.21-1.73-2.57-3.55,0-7.75C69.31,239,70.27,237.69,70.27,237.69Z" transform="translate(-20.5 -19.48)"/><path class="cls-17" d="M70.27,237.69a7.3,7.3,0,0,1,3.65-1c-.48,1-2,3.33-2,3.33Z" transform="translate(-20.5 -19.48)"/><path class="cls-9" d="M71.44,238.67c0-1,2.1-1.29,2.1-1.29l.79-1.49s-3.32-.27-4.06,1.79c0,0-1,2.12,3.19,7.4a7.79,7.79,0,0,1,1.91-1.66C73.58,242.55,71.43,239.66,71.44,238.67Z" transform="translate(-20.5 -19.48)"/><path class="cls-14" d="M51.71,250.3s7.19,20.77,3.19,35.25-6.81,21.1-6.81,21.1l9.62,3.8a98.84,98.84,0,0,0,7.9-30.22c1.41-16.49-5.1-33.43-5.1-33.43Z" transform="translate(-20.5 -19.48)"/><path class="cls-11" d="M52.46,248.88s7.65,22.2,3.65,36.68-6.81,21.1-6.81,21.1l9.62,3.8a98.84,98.84,0,0,0,7.9-30.22c1.41-16.49-5.45-34.4-5.45-34.4Z" transform="translate(-20.5 -19.48)"/><path class="cls-16" d="M82.44,334.24l29.85-22.45a1.19,1.19,0,0,0,.25-1.64L90.31,279a1.19,1.19,0,0,0-1.65-.28L57.9,300.46a1.19,1.19,0,0,0-.28,1.67L80.77,334A1.19,1.19,0,0,0,82.44,334.24Z" transform="translate(-20.5 -19.48)"/><line class="cls-18" x1="91.86" y1="289.87" x2="93.83" y2="288.44"/><line class="cls-18" x1="90.07" y1="287.38" x2="92.04" y2="285.95"/><line class="cls-18" x1="88.28" y1="284.89" x2="90.25" y2="283.46"/><line class="cls-18" x1="86.49" y1="282.4" x2="88.46" y2="280.97"/><line class="cls-18" x1="84.71" y1="279.91" x2="86.67" y2="278.48"/><line class="cls-18" x1="82.92" y1="277.42" x2="84.89" y2="275.99"/><line class="cls-18" x1="81.13" y1="274.93" x2="83.1" y2="273.5"/><line class="cls-18" x1="79.34" y1="272.44" x2="81.31" y2="271.01"/><line class="cls-18" x1="77.55" y1="269.95" x2="79.52" y2="268.52"/><line class="cls-18" x1="75.77" y1="267.46" x2="77.73" y2="266.03"/><line class="cls-18" x1="73.98" y1="264.97" x2="75.94" y2="263.54"/><line class="cls-18" x1="72.19" y1="262.48" x2="74.16" y2="261.05"/><line class="cls-18" x1="70.4" y1="259.99" x2="72.37" y2="258.56"/><path class="cls-3" d="M39.94,302.67c.43,0,15.46,6.9,21,8.42s13.52,3.38,19.32,3,11.8-2.62,14.42-2.83,5.38-1.87,7.45-2.83,3.24-2.48,4.21-1.51.07,2.28-.76,3.31a17.79,17.79,0,0,1-5.11,3.17c-.9.28-2.55,1.52-1.86,2.83s3.38,3.11,3.86,2.9a8.59,8.59,0,0,0,1.1-.62s1.73,1.66,1.73,2.35-.28,2.83-3.52,2.55c-.41,1.38-.35,3.11-1.86,3.86s-2.14.41-2.14,1.1,0,1.93-1.29,2-1.61-.21-2,.83-1,1.59-2.76,1.59-6.28-1.24-7.52-2.42-1.93-3.24-3.93-3.45-5.11-.76-10.49-1-14.9-.83-21.18-1.45a49.55,49.55,0,0,1-16-3.91C27.86,318.43,26.55,301.57,39.94,302.67Z" transform="translate(-20.5 -19.48)"/><path class="cls-14" d="M27.37,278.74s.25,7.9,6.1,11.52c.67-2,1.23-3.7,1.68-5.27A33.7,33.7,0,0,1,27.37,278.74Z" transform="translate(-20.5 -19.48)"/><path class="cls-16" d="M99,256.7a7.26,7.26,0,0,1-3.42-.3,6.12,6.12,0,0,0,2.68.18c3.68-.57,6.07-4.41,5.33-8.57s-4.32-7.06-8-6.49a6.08,6.08,0,0,0-2.4.93,7,7,0,0,1,3.07-1.26A7.87,7.87,0,0,1,105,247.8,7.49,7.49,0,0,1,99,256.7Z" transform="translate(-20.5 -19.48)"/><path class="cls-19" d="M98.27,256.59a6.12,6.12,0,0,1-2.68-.18l-.09,0a7.66,7.66,0,0,1-4.73-4.54l-.13-.34a8.66,8.66,0,0,1-.37-1.4c0-.15-.05-.32-.06-.47a7.43,7.43,0,0,1,3-7.16,6.08,6.08,0,0,1,2.4-.93c3.68-.57,7.26,2.33,8,6.49S102,256,98.27,256.59Z" transform="translate(-20.5 -19.48)"/><path class="cls-14" d="M100.1,253.35a4.44,4.44,0,0,1-3.2,1.42c-2.64,0-4.78-2.47-4.78-5.53A5.53,5.53,0,0,1,95.39,244a5.91,5.91,0,0,0-1.59,4.11c0,3.05,2.14,5.53,4.79,5.53A4.22,4.22,0,0,0,100.1,253.35Z" transform="translate(-20.5 -19.48)"/><path class="cls-20" d="M101.68,249.23a5.91,5.91,0,0,1-1.59,4.11,4.22,4.22,0,0,1-1.51.28c-2.65,0-4.79-2.48-4.79-5.53A5.91,5.91,0,0,1,95.39,244a4.21,4.21,0,0,1,1.51-.28C99.54,243.7,101.68,246.18,101.68,249.23Z" transform="translate(-20.5 -19.48)"/><path class="cls-14" d="M83.2,258.37a7.13,7.13,0,0,1-3.07,1.1H80a10,10,0,0,1-7.56-2.94l-.31-.33A11.31,11.31,0,0,1,71,254.77c-.11-.16-.22-.34-.31-.51a9.89,9.89,0,0,1-.33-9.74,7.18,7.18,0,0,1,2.19-2.25c3.79-2.46,9.24-.85,12.18,3.6S87,255.91,83.2,258.37Z" transform="translate(-20.5 -19.48)"/><path class="cls-16" d="M81.08,258.34a5.15,5.15,0,0,1-2.48.86h-.09a8.58,8.58,0,0,1-6.3-2.87l-.27-.3a11.17,11.17,0,0,1-1-1.31c-.1-.15-.19-.31-.27-.46a9.43,9.43,0,0,1-.61-8.63,5.46,5.46,0,0,1,1.72-1.92c3-2,7.55-.43,10.11,3.61S84.1,256.3,81.08,258.34Z" transform="translate(-20.5 -19.48)"/><path class="cls-19" d="M78.5,256.42a3.49,3.49,0,0,1-1.63.57h-.06a5.56,5.56,0,0,1-4.12-1.81l-.17-.19a7,7,0,0,1-.63-.84l-.18-.3a6,6,0,0,1-.34-5.56,3.64,3.64,0,0,1,1.14-1.25c2-1.33,5-.32,6.61,2.26S80.5,255.09,78.5,256.42Z" transform="translate(-20.5 -19.48)"/><path class="cls-11" d="M326.8,255.71s-8.86-13.69,15.37-14.6c33.65-1.25,28.24,22,26.25,28.23-4.61,14.39-23.33,13.6-23.33,13.6Z" transform="translate(-20.5 -19.48)"/><path class="cls-5" d="M323.61,265.75c2.68-6.11,1.85-7.1,3.19-10a25.18,25.18,0,0,1,1.75-3.7c.85-.76.58,2.29,3.35,2.2,12.78-.42,5.7,15.18,13.28,17.2.89-1,2.86-4.13,5.69-4.61s6.61,4.45,3.78,9.31c-2,3.4-9.28,3.25-9.28,3.25s-.72,6.21,2.86,9.53c-.38,9.17-18.55,2.78-18.55,2.78s4.06-6.13-3.13-8.1C318.45,281.34,322.52,268.22,323.61,265.75Z" transform="translate(-20.5 -19.48)"/><path class="cls-21" d="M325.33,268.32s-3.87,3.84,1.06,4.19" transform="translate(-20.5 -19.48)"/><path class="cls-21" d="M328.46,278.17s-3.52,1.81-4.8-1.26" transform="translate(-20.5 -19.48)"/><ellipse class="cls-14" cx="332.41" cy="266.49" rx="2.23" ry="1.09" transform="translate(-20 514.12) rotate(-77.54)"/><ellipse class="cls-14" cx="325.64" cy="263.92" rx="2.02" ry="0.89" transform="translate(-22.8 505.49) rotate(-77.54)"/><path class="cls-22" d="M336.39,260.66s-2.52-3.79-5-1.16" transform="translate(-20.5 -19.48)"/><path class="cls-22" d="M328.74,258.25s-.71-2.26-2.32-.87" transform="translate(-20.5 -19.48)"/><g class="cls-23"><path class="cls-24" d="M336.39,237.81s21,33.67,38.57,25" transform="translate(-20.5 -19.48)"/><path class="cls-24" d="M333.91,238.59s20.16,13.24,39.08,17.13" transform="translate(-20.5 -19.48)"/><path class="cls-24" d="M343.82,236.05l-7.43,5s1.17,24.82,33.6,28.1" transform="translate(-20.5 -19.48)"/></g><path class="cls-25" d="M277.56,286.35s-6.27,2.71-6.27,8.29c0,9.82,32.82,7.06,27.6-3.75S277.56,286.35,277.56,286.35Z" transform="translate(-20.5 -19.48)"/><path class="cls-5" d="M297.13,294.2c-1.21-5-8.29-33-8.77-37.61a13.89,13.89,0,0,1,.84-6.64A19.74,19.74,0,0,0,290.89,239c-.78-4.51-3.58-8.21-3.84-10.25s-1.79-2.55-2.84-1.76-1.67,3-.73,5.06,2.53,5,1.69,5.34-3.52-6.27-4.27-7.77-2.33-3.86-2.69-5.85-2.48-7.55-4-8.07-2.53.6-2.21,2.24c-.6.58-.51,1.71-.42,2.84s0,2.63,0,2.63a1.62,1.62,0,0,0-2.16-1.19c-1.07.38-1,.89-.86,2.43a26.88,26.88,0,0,0,.57,4.73,33.82,33.82,0,0,0,1.78,4.38s-2.3-3.83-3.09-4.21a1.38,1.38,0,0,0-2,.94,9.83,9.83,0,0,0,1.66,3.61c1.17,1.87,4,6.6,5,8.71s4.43,6.88,4.78,8.32a92.15,92.15,0,0,1-.17,10c-.4,8.27.42,36.62,1.67,41.07s9.1,6.39,16.54,1.6C299,301.76,298.34,299.23,297.13,294.2Z" transform="translate(-20.5 -19.48)"/><path class="cls-26" d="M277.55,234.56a9.5,9.5,0,0,0-1.36-3.45,20.8,20.8,0,0,1-1.9-5.47c-.23-.8-2.3-7.69-2.3-7.69s1.17,7.2,1.68,9.15S277.55,234.56,277.55,234.56Z" transform="translate(-20.5 -19.48)"/><path class="cls-26" d="M274.43,237.9s-.19-1.21-.32-2.32-2.43-5.17-2.73-6.75a22.77,22.77,0,0,1,.2-5.08s-.12,3.78.72,5.69S275.26,234.5,274.43,237.9Z" transform="translate(-20.5 -19.48)"/><path class="cls-26" d="M273.46,239.39a36,36,0,0,0-2.31-5l1.81,5.33Z" transform="translate(-20.5 -19.48)"/><path class="cls-8" d="M379.82,342.79c-6.56-21.46,8.71-31-.44-40.74-5.25-5.61-12.1-7.12-26.06-11.92-15.46-5.32-32,3.26-38,5-8.54,2.53-8.49,4.65-16.47-4.27-2.2-2.46-27.6,3.75-27.6,3.75s.85,10.55,5.18,16.93c2.74,4,28.85,26,32.29,29.06,2.9,8.88,5.95,19.46,7.77,25.95a8.66,8.66,0,0,0,7.92,6.31c10.38.5,31.06,3.28,42.65,3.34,3.91,0,8.09-.13,11.65-.31a8.31,8.31,0,0,0,7.81-9.34C385.66,359.4,381.6,348.61,379.82,342.79Z" transform="translate(-20.5 -19.48)"/><path class="cls-8" d="M374.74,298.52c5.88,2.38,25.63,23.81,25.63,23.81l-23.48,17.79Z" transform="translate(-20.5 -19.48)"/><polygon class="cls-25" points="379.86 302.86 375.21 316.98 371.38 309.28 379.86 302.86"/><path class="cls-27" d="M294.68,95.54c-2,16.79-7.84,30.66-1.46,38.1s25.73,5.13,25.73,5.13l.82,1.59a5.33,5.33,0,0,0,5,3.11c9-.79,35.45-7.1,35.45-7.1s19.28,4.74,23.87-6.12c3.35-7.93-.31-11.67-2.52-15.12-2.78-4.4.56-16.3-.21-24.44S378.19,77,370.91,74.43c-4.88-1.75-21.92-7.71-24-10.66l-7.16,11.56a4.63,4.63,0,0,1-8.07-.34,38.6,38.6,0,0,0-4.85-7.74l-.2.29C314.29,84.88,296.69,78.75,294.68,95.54Z" transform="translate(-20.5 -19.48)"/><path class="cls-28" d="M303.33,115.81c-4.25-.51-42.73-1.85-45.81-.88-3.31,1-14.74,4.59-16.31,5.61s-6.59,7.08-8.32,9.74-2.48,3.48-1.28,4.11,2.25-.86,2.25-.86a2.28,2.28,0,0,0,2.12-.65c.76.36,1.31-.15,2.65-1.73a24.42,24.42,0,0,1,6.13-5c1.93-1,2.65-.77,3-.07s-.78,3.2-1.86,4.74-2.67,3.16-2.25,4.86,2,2.46,2.76,1.4,1.82-4,3.31-5.25,3.22-2.79,4.7-3.06a12.58,12.58,0,0,0,4.51-2.55c1.07-.86,1.44-1.55,2.72-1.74,12.68-1.89,35,10.48,42.09,10.62,7.93.16,9.27-4.52,9.72-9.07S311.87,116.85,303.33,115.81Z" transform="translate(-20.5 -19.48)"/><path class="cls-28" d="M327.28,60.35c.56,1.59,2,3.35-.47,6.9a39.53,39.53,0,0,1,5,8,4.49,4.49,0,0,0,7.82.33l9-10.21A20.26,20.26,0,0,1,345.7,62c-2.28-3.56-2.9-7.08-3.87-11.05,2.5-2.92,3.12-4,3.59-6.32.6-2.86.22-6.94-2.93-7.1-5.65-.29-6.85.27-8.47-6.43s-17.44.92-17.44.92-.43,7.37.15,9.28A10.79,10.79,0,0,1,317.4,45c0,1.81-.51,3.82-.45,5.92C317,54,320.2,62,327.28,60.35Z" transform="translate(-20.5 -19.48)"/><path class="cls-29" d="M329,41.13c-2.77-1.26-4-.44-4-.44l-.21-1.48a.67.67,0,0,1,.67-.77,11.13,11.13,0,0,1,3.56.39C329.74,39.28,329,41.13,329,41.13Z" transform="translate(-20.5 -19.48)"/><path class="cls-29" d="M316.53,40.05a5.73,5.73,0,0,1,2.71.95l.18-1.71a.78.78,0,0,0-.56-.83L316.43,38" transform="translate(-20.5 -19.48)"/><ellipse class="cls-14" cx="306.05" cy="25.33" rx="0.99" ry="2.01"/><ellipse class="cls-14" cx="298.18" cy="25.15" rx="0.81" ry="1.83"/><path class="cls-30" d="M320.68,47.36c-1.44,1.38-1.44,4.53,1.11,3.31" transform="translate(-20.5 -19.48)"/><path class="cls-15" d="M327.28,60.35s3.31-1.15,4.31-3.8c0,3.8-3.45,6.18-3.45,6.18Z" transform="translate(-20.5 -19.48)"/><polygon class="cls-19" points="307.16 46.33 315.72 51.71 306.39 59.78 306.04 47.81 307.16 46.33"/><polygon class="cls-19" points="326.81 44.45 315.72 51.71 325.54 59.72 328.65 46.21 326.81 44.45"/><path class="cls-31" d="M344.16,77.67a10.81,10.81,0,0,1-5.53,2.89,13.5,13.5,0,0,1-2.25.17,12.19,12.19,0,0,1-2.26-.18,10.59,10.59,0,0,1-5.39-2.87l7.49-6.48Z" transform="translate(-20.5 -19.48)"/><polygon class="cls-32" points="312.42 54.56 314.45 58.19 317.3 58.19 319.3 54.63 315.72 51.71 312.42 54.56"/><polygon class="cls-32" points="319.3 87.59 314.58 95.88 309.74 88.26 314.45 58.19 317.3 58.19 319.3 87.59"/><circle class="cls-30" cx="305.88" cy="25.33" r="3.86"/><polyline class="cls-30" points="309.74 25.58 311.59 25.58 311.59 43.02"/><path class="cls-30" d="M319.49,54.74s2.86,2.81,5-.26" transform="translate(-20.5 -19.48)"/><path class="cls-28" d="M394.67,50.1c-.09-.8-1-.66-1-.66s0-1.6-.8-1.79-1.64,1-2.68,4.84c.28-1.79.14-3.29-.28-3.85s-1-.28-1.64.89S388,53,388,54.47s-1.27,4-2.16,5.59-3.52,4-3.76,3.57.56-2.63,1.32-4.37A4.12,4.12,0,0,0,383,55c-.75-.8-1.74,0-2.07,1.46s-2.07,4.37-3.19,6.86a33.44,33.44,0,0,0-2.63,8.88c-.66,3.9-1.21,8.95-2.25,13.28-.82,3.42-6.53,18.93-9.69,28a.35.35,0,0,1,0,.05c-1.13,3.22-2.73,8.2-1.67,12.79,1.1,4.76,10.55,6.81,14.49,5s5-6.61,6-11.45c1.28-6.44.52-38,.47-39.12-.13-2.78.54-4.64,3.78-7s7.19-7.8,7.66-9.44a15,15,0,0,0-.09-4.89S394.77,50.9,394.67,50.1Z" transform="translate(-20.5 -19.48)"/><path class="cls-3" d="M390.21,52.5s-.33,3.34-.61,5a21.27,21.27,0,0,1-1,3.52" transform="translate(-20.5 -19.48)"/><path class="cls-15" d="M390.21,52.5a21.49,21.49,0,0,1-.13,4.39,9,9,0,0,1-.5,2.16,9.56,9.56,0,0,1-1,2c.11-.73.23-1.45.36-2.16s.25-1.39.31-2.12A21.39,21.39,0,0,1,390.21,52.5Z" transform="translate(-20.5 -19.48)"/><path class="cls-3" d="M393.69,49.44a1.27,1.27,0,0,0-1.22,1.13c-.28,1.17-.7,4.75-.7,4.75" transform="translate(-20.5 -19.48)"/><path class="cls-15" d="M393.69,49.44a1.28,1.28,0,0,0-.88,1.08l-.21,1.59a13.77,13.77,0,0,1-.83,3.21,11.05,11.05,0,0,1,0-3.33,8.41,8.41,0,0,1,.41-1.65,1.57,1.57,0,0,1,.59-.75A1.12,1.12,0,0,1,393.69,49.44Z" transform="translate(-20.5 -19.48)"/><path class="cls-3" d="M389.41,65.28s1.74-1.32,1.69-2.54a6.54,6.54,0,0,1,.42-2.35c.14-.66-1.13-4.79.23-5.07s1.69,3.24,1.69,3.24" transform="translate(-20.5 -19.48)"/><path class="cls-15" d="M389.41,65.28a6.8,6.8,0,0,0,1.12-1.45,2.29,2.29,0,0,0,.29-.79c0-.23,0-.56,0-.9a9,9,0,0,1,.36-1.85,6.33,6.33,0,0,0-.1-.8l-.16-.92a11.24,11.24,0,0,1-.15-1.92,2.74,2.74,0,0,1,.22-1,1.09,1.09,0,0,1,.43-.49,1.06,1.06,0,0,1,.67-.11,1.31,1.31,0,0,1,.87.74,4,4,0,0,1,.33.93,8.13,8.13,0,0,1,.18,1.88,11.9,11.9,0,0,0-.55-1.76c-.21-.53-.57-1.16-.93-1.18-.2,0-.28.07-.37.28a2.11,2.11,0,0,0-.1.77,11.69,11.69,0,0,0,.18,1.78l.14.92a4.35,4.35,0,0,1,.07,1,12.48,12.48,0,0,0-.48,1.77,8.07,8.07,0,0,1-.1,1,2.65,2.65,0,0,1-.47.9A5.48,5.48,0,0,1,389.41,65.28Z" transform="translate(-20.5 -19.48)"/><path class="cls-33" d="M243.67,125.67a11.44,11.44,0,0,0-4.38,2.38c-1.76,1.68-5.14,5.24-5.14,5.24" transform="translate(-20.5 -19.48)"/><path class="cls-29" d="M344.16,21.75c-7.8-5.88-32.41,1.5-32.41,1.5s3.77,9.83,4.84,11.33c0,0,12.91-.66,14.48,0A1.78,1.78,0,0,1,332.12,36s.41,4.16.8,5.74c.59,2.4.56,4.35,3.12,4.78,0,0-.14-7.08,5.51-6.81,2.53.12,3.75,2.82,3.53,5.52a12,12,0,0,1-3.3,5.42l.73,3.07a1.06,1.06,0,0,0,.45-.11,16.17,16.17,0,0,0,8.33-10.5C352.83,36.22,355,21.63,344.16,21.75Z" transform="translate(-20.5 -19.48)"/><g class="cls-34"><path class="cls-35" d="M316.08,20.42s5.25,8,3.63,14.58" transform="translate(-20.5 -19.48)"/><path class="cls-35" d="M322.52,19.92s2.73,8.5,1.11,15.08" transform="translate(-20.5 -19.48)"/><path class="cls-35" d="M323.59,20.42s5.25,8,3.63,14.58" transform="translate(-20.5 -19.48)"/></g><g class="cls-36"><path class="cls-37" d="M91.44,210.88S88,195,96.15,191.63" transform="translate(-20.5 -19.48)"/><path class="cls-37" d="M96.11,207.13c.39-.5-3.71-10,0-15.06" transform="translate(-20.5 -19.48)"/><path class="cls-37" d="M99.32,208.38c.17-.5-.26-11.94,3.45-14.75" transform="translate(-20.5 -19.48)"/></g></g></svg>