<?xml version="1.0" encoding="UTF-8"?>
<svg width="77.584mm" height="61.852mm" version="1.1" viewBox="0 0 77.584543 61.851921" xmlns="http://www.w3.org/2000/svg">
<defs>
<clipPath id="d" transform="translate(0)">
<path class="cls-1" d="m1503.4 876.92 0.71-0.41a3 3 0 0 1 3 0.29l-0.71 0.41a3 3 0 0 0 -3 -0.29z"/>
</clipPath>
<clipPath id="e" transform="translate(0)">
<path class="cls-1" d="m1563.3 948.12-0.7 0.41a3 3 0 0 0 1.25 -2.72l0.7-0.41a3 3 0 0 1 -1.25 2.72z"/>
</clipPath>
<clipPath id="f" transform="translate(0)">
<path class="cls-1" d="m1559.7 908 0.71-0.41a9.43 9.43 0 0 1 4.24 7.34l-0.71 0.41a9.38 9.38 0 0 0 -4.24 -7.34z"/>
</clipPath>
</defs>
<polygon class="cls-29" transform="matrix(.26458 0 0 .26458 -82.806 -190.94)" points="326.66 788.59 329.21 785.64 330.58 786.39 328.03 789.34" fill="#0e6700" style="isolation:isolate"/>
<polygon class="cls-29" transform="matrix(.26458 0 0 .26458 -82.806 -190.94)" points="326.11 782.65 339.92 766.7 341.29 767.45 327.48 783.39" fill="#0e6700" style="isolation:isolate"/>
<polygon class="cls-30" transform="matrix(.26458 0 0 .26458 -82.806 -190.94)" points="344.33 770.52 330.58 786.39 328.03 789.34 324.99 786.26 327.48 783.39 341.29 767.45 342.81 768.99" fill="#1abc00" style="isolation:isolate"/>
<polygon class="cls-31" transform="matrix(.26458 0 0 .26458 -82.806 -190.94)" points="326.66 788.59 323.62 785.52 324.99 786.26 328.03 789.34" fill="#0d6000" style="isolation:isolate"/>
<polygon class="cls-29" transform="matrix(.26458 0 0 .26458 -82.806 -190.94)" points="323.62 785.52 326.11 782.65 327.48 783.39 324.99 786.26" fill="#0e6700" style="isolation:isolate"/>
<polygon class="cls-29" transform="matrix(.26458 0 0 .26458 -82.806 -190.94)" points="316.86 780.6 320.05 776.8 321.42 777.54 318.23 781.34" fill="#0e6700" style="isolation:isolate"/>
<polygon class="cls-30" transform="matrix(.26458 0 0 .26458 -82.806 -190.94)" points="327.48 783.39 324.99 786.26 328.03 789.34 330.58 786.39 330.64 786.45 329.05 788.34 327.46 790.25 318.23 781.34 321.42 777.54" fill="#1abc00" style="isolation:isolate"/>
<polygon class="cls-31" transform="matrix(.26458 0 0 .26458 -82.806 -190.94)" points="326.09 789.5 316.86 780.6 318.23 781.34 327.46 790.25" fill="#0d6000" style="isolation:isolate"/>
<polygon class="cls-32" transform="matrix(.26458 0 0 .26458 -83.336 -190.94)" points="424.7 736.03 426.07 736.77 432.19 742.95 430.82 742.2" fill="#800000" style="isolation:isolate"/>
<polygon class="cls-33" transform="matrix(.26458 0 0 .26458 -83.336 -190.94)" points="429.31 733.02 426.27 729.95 432.8 722.42 435.84 725.49" fill="#ea0000" style="isolation:isolate"/>
<polygon class="cls-32" transform="matrix(.26458 0 0 .26458 -83.336 -190.94)" points="424.9 729.21 426.27 729.95 429.31 733.02 427.95 732.28" fill="#800000" style="isolation:isolate"/>
<polygon class="cls-34" transform="matrix(.26458 0 0 .26458 -83.336 -190.94)" points="431.44 721.67 432.8 722.42 426.27 729.95 424.9 729.21" fill="#820000" style="isolation:isolate"/>
<polygon class="cls-32" transform="matrix(.26458 0 0 .26458 -83.336 -190.94)" points="421.66 732.96 423.02 733.7 426.07 736.77 424.7 736.03" fill="#800000" style="isolation:isolate"/>
<polygon class="cls-32" transform="matrix(.26458 0 0 .26458 -83.336 -190.94)" points="415.13 740.49 416.5 741.24 419.54 744.31 418.17 743.56" fill="#800000" style="isolation:isolate"/>
<polygon class="cls-33" transform="matrix(.26458 0 0 .26458 -83.336 -190.94)" points="426.07 736.77 419.54 744.31 416.5 741.24 423.02 733.7" fill="#ea0000" style="isolation:isolate"/>
<polygon class="cls-32" transform="matrix(.26458 0 0 .26458 -83.336 -190.94)" points="415.54 726.79 416.9 727.53 423.02 733.7 421.66 732.96" fill="#800000" style="isolation:isolate"/>
<polygon class="cls-34" transform="matrix(.26458 0 0 .26458 -83.336 -190.94)" points="421.66 732.96 423.02 733.7 416.5 741.24 415.13 740.49" fill="#820000" style="isolation:isolate"/>
<polygon class="cls-33" transform="matrix(.26458 0 0 .26458 -83.336 -190.94)" points="423.02 733.7 416.9 727.53 420.15 723.78 426.27 729.95 429.31 733.02 435.43 739.2 432.19 742.95 426.07 736.77" fill="#ea0000" style="isolation:isolate"/>
<polygon class="cls-34" transform="matrix(.26458 0 0 .26458 -83.336 -190.94)" points="418.79 723.04 420.15 723.78 416.9 727.53 415.54 726.79" fill="#820000" style="isolation:isolate"/>
<path d="m1.5952 60.698c2.6458 0.80962 5.7494 1.7304 5.0509 0.26458s-3.175-1.9288-4.6487-1.6404c-0.83344 0.17198-0.40217 1.3758-0.40217 1.3758z" stroke-width=".26458"/>
<path d="m8.0802 57.238c2.6035 0.98689 5.6383 2.1167 5.0271 0.61118-0.61119-1.5055-3.0506-2.1405-4.5429-1.9526-0.84667 0.10848-0.48419 1.3414-0.48419 1.3414z" stroke-width=".26458"/>
<path class="cls-49" d="m10.694 47.908v-0.31221l-0.01852-0.32808c0-0.20373-0.03704-0.46567-0.06085-0.70644s-0.06085-0.42863-0.10319-0.65617a9.3742 9.3742 0 0 0 -0.35719 -1.3917 9.7711 9.7711 0 0 0 -0.55827 -1.2621c-0.17992-0.35189-0.34396-0.65616-0.50006-0.96837l-0.11377-0.23019c-0.02117-0.0503-0.04498-0.10054-0.06879-0.15081l-0.01852-0.037-0.01588-0.0476-0.03704-0.0979c-0.02117-0.0635-0.04763-0.12435-0.06879-0.20108a17.246 17.246 0 0 1 -0.4789 -1.9711c-0.07144-0.3519-0.13494-0.70909-0.19579-1.0583l-0.18785-1.0716v-0.0476a1.2885 1.2885 0 0 0 -2.5665 0.14553c-0.01587 0.22489-0.02646 0.41804-0.0344 0.62441-0.0079 0.20638 0 0.40481-0.01323 0.60854 0 0.40746 0 0.81492 0.0291 1.225a14.145 14.145 0 0 0 0.34396 2.5585c0.02117 0.11112 0.05821 0.23018 0.09261 0.34925l0.05027 0.17727 0.02646 0.0873 0.0344 0.0952 0.14288 0.381 0.12435 0.28575c0.16404 0.37571 0.34131 0.74877 0.50006 1.0742a7.7285 7.7285 0 0 1 0.3519 0.82814 6.6146 6.6146 0 0 1 0.21431 0.83079c0.0291 0.15082 0.05556 0.32809 0.08202 0.48155 0.02646 0.15345 0.03704 0.26458 0.04763 0.44185l0.01852 0.26458 0.01588 0.26459c0 0.17727 0.02381 0.35454 0.0291 0.52916 0.03175 0.73025 0.05027 1.4843 0.07144 2.241 0.03969 1.5134 0.07673 3.0506 0.1614 4.5746a1.3679 1.3679 0 0 0 1.0874 1.2965 1.3229 1.3229 0 0 0 1.4843 -1.1589c0.11642-0.77787 0.19844-1.5478 0.26458-2.3257 0.06615-0.77788 0.13229-1.5531 0.17198-2.3363 0.03969-0.78317 0.06879-1.569 0.06879-2.3812-0.0079-0.21167-0.01058-0.41805-0.01587-0.62442z" fill="#1b8eb9" stroke-width=".26458"/>
<path class="cls-49" d="m6.1072 47.938a10.173 10.173 0 0 0 -0.32808 -1.4235c-0.11906-0.40217-0.22754-0.75142-0.32808-1.106l-0.07408-0.26458c0-0.0556-0.02381-0.11377-0.03969-0.16934l-0.01323-0.0423v-0.0529l-0.01588-0.10583a1.7806 1.7806 0 0 1 -0.0344 -0.22225c-0.02646-0.19844-0.04498-0.40481-0.06085-0.61912l0.52917-1.2753-0.17727-2.7622h-0.39158a1.4393 1.4393 0 0 0 -0.97102 -1.2409 1.3441 1.3441 0 0 0 -1.6828 1.0001c-0.06085 0.2249-0.10848 0.42069-0.1561 0.63236-0.04763 0.21166-0.08996 0.41539-0.13229 0.62177-0.07673 0.41804-0.14817 0.83873-0.20373 1.2674a15.081 15.081 0 0 0 -0.14023 2.704c0 0.11907 0.01588 0.24871 0.0291 0.37836l0.01852 0.19314v0.0979l0.01588 0.10583 0.07408 0.42334 0.07144 0.32014c0.09525 0.42334 0.20638 0.84667 0.30692 1.2144a8.4667 8.4667 0 0 1 0.20373 0.92869 7.1252 7.1252 0 0 1 0.05821 0.90487v0.51065c0 0.16404-0.01323 0.28046-0.03704 0.46566l-0.02646 0.26459-0.0344 0.26458c-0.02381 0.18521-0.04498 0.37042-0.07673 0.56092-0.10583 0.75935-0.23283 1.5372-0.35719 2.3204-0.24871 1.561-0.508 3.1486-0.71173 4.7334a1.487 1.487 0 0 0 0.86783 1.5875 1.3229 1.3229 0 0 0 1.7489 -0.85725c0.26458-0.77523 0.50271-1.5452 0.7276-2.3283 0.2249-0.78317 0.43392-1.5663 0.62706-2.3627 0.19315-0.7964 0.37306-1.5875 0.52917-2.4262 0.03969-0.20638 0.07408-0.42069 0.11112-0.635 0.01587-0.10584 0.03439-0.20902 0.05027-0.32279l0.04498-0.33867c0.03175-0.21167 0.05027-0.48683 0.07144-0.73819 0.02117-0.25135 0.02117-0.45773 0.02117-0.6985a9.7287 9.7287 0 0 0 -0.11377 -1.5081z" fill="#1b8eb9" stroke-width=".26458"/>
<path class="cls-50" d="m2.9902 47.498c-0.02646-0.52917-0.07408-1.0213-0.11642-1.4235-0.04233-0.40216-0.07938-0.75406-0.11377-1.1112l-0.02646-0.26458-0.01587-0.16933v-0.42598c0-0.19844-0.01588-0.40746-0.02117-0.62177l0.18521-1.2779-0.0635-2.7702h-0.16404c-0.02117-0.5715-0.15081-1.0742-0.34131-1.2462-0.26458-0.22489-0.52917 0.22225-0.59531 1.0028-0.02117 0.22755-0.03969 0.42334-0.05556 0.635l-0.04763 0.62442c-0.02646 0.42069-0.05292 0.84138-0.07144 1.27-0.03969 0.8599-0.06615 1.733-0.05027 2.712v0.77788l0.02646 0.42334 0.02646 0.32279c0.0344 0.42598 0.07144 0.84931 0.10848 1.2197s0.05821 0.65881 0.07144 0.93133 0.02117 0.56886 0.02117 0.90488v0.51329c0 0.16404 0 0.28046-0.01323 0.46831v0.52917c0 0.18521-0.01852 0.37041-0.0291 0.56356-0.03704 0.75935-0.08202 1.5425-0.12435 2.3257-0.08996 1.5663-0.17992 3.1591-0.25135 4.7493-0.0291 0.66675 0.0926 1.3229 0.30692 1.5875 0.24871 0.28575 0.52917-0.0979 0.61912-0.8599 0.08996-0.762 0.17727-1.5505 0.26458-2.3336 0.08731-0.78317 0.15346-1.5716 0.2196-2.3812 0.06615-0.80963 0.13229-1.6034 0.18785-2.4368 0.01323-0.20638 0.02646-0.42069 0.03704-0.635 0-0.10848 0.01323-0.21167 0.01852-0.3228l0.01588-0.34131c0.01323-0.21167 0.01852-0.48683 0.02646-0.74083 0.0079-0.254 0-0.45773 0-0.70115 0.0026-0.45508-0.0053-0.97102-0.0344-1.4975z" fill="#1b68b9" stroke-width=".26458"/>
<path class="cls-51" d="m14.391 38.238c-0.70908-0.55298-1.4129-1.1165-2.1167-1.6828-0.70379-0.56621-1.3944-1.1351-2.0929-1.7039l-0.26458-0.21431-0.07408-0.0609-0.08202-0.0714c-0.04763-0.0503-0.10054-0.0953-0.14552-0.14552a7.583 7.583 0 0 1 -0.4736 -0.62177 6.6913 6.6913 0 0 1 -0.84138 -1.3229l-0.14552-0.32279c-0.04498-0.10584-0.0926-0.21167-0.14023-0.31486l-0.2884-0.62971c-0.1905-0.41804-0.38894-0.83343-0.59002-1.2488a1.1351 1.1351 0 0 1 0.4789 -1.434 0.93133 0.93133 0 0 1 1.3467 0.34925 0.62706 0.62706 0 0 1 0.04498 0.10848c0.15081 0.44185 0.30427 0.88106 0.46567 1.3229l0.24077 0.65352 0.12171 0.32543 0.12435 0.31486a3.2491 3.2491 0 0 0 0.24871 0.50006 2.7279 2.7279 0 0 0 0.75935 0.89429l0.0979 0.0847 0.10054 0.0873 0.26458 0.21431c0.69056 0.5768 1.3891 1.1483 2.0743 1.7304s1.3732 1.1615 2.0532 1.7542a0.90223 0.90223 0 0 1 0.03175 1.2621 0.87842 0.87842 0 0 1 -1.1986 0.17198z" fill="#42210b" stroke-width=".26458"/>
<path class="cls-52" d="m3.7412 28.308c0.06879-0.0212-2.241 0.57944-2.9236 1.8944-0.6826 1.315-1.2832 10.377-0.30162 11.208 0.98158 0.831 4.109-0.3175 4.109-0.3175l4.2069-2.7199s0.67204-8.2259 0-9.7446-5.0906-0.32015-5.0906-0.32015z" fill="#1bd556" stroke-width=".26458"/>
<path class="cls-51" d="m4.0852 26.478s-0.127 1.9579-0.2249 2.2542c-0.0979 0.29634 1.5875 0.29634 1.5875 0.29634l-0.16404-3.5375z" fill="#42210b" stroke-width=".26458"/>
<path class="cls-53" d="m2.4842 21.718s-1.6351 2.4024-0.56092 3.6751c1.0742 1.2726 2.5612 2.6273 3.2597 2.3812 0.6985-0.24607 3.4105-1.4632 2.6458-3.9211-0.76464-2.458-3.8947-3.9158-5.3446-2.1352z" fill="#42210b" stroke="#42210b" stroke-miterlimit="10" stroke-width=".13229px"/>
<path class="cls-40" d="m7.0412 22.028s-1.3097 1.1218-2.4739 1.2594-1.3018-0.28046-1.4367 0.13758l-0.13494 0.4154s-0.41804-0.0741-0.48154 0.10319a1.2938 1.2938 0 0 0 0 0.71702c0.07144 0.15345 0.85725 0.55298 0.85725 0.55298l-0.04763 1.6774s-1.352-0.86254-1.7939-1.6774c-0.44185-0.81492 0.10054-1.8521 0.44186-2.9289 0.34131-1.0769 0.95779-1.5081 1.3996-1.7145 0.44185-0.20638 1.7568 0.10054 2.0505 0.22489 0.29369 0.12436 1.5875 0.53182 1.6192 1.233z" stroke="#000" stroke-miterlimit="10" stroke-width=".13229px"/>
<path class="cls-51" d="m9.3742 40.978q-1.2806-0.89959-2.5506-1.823c-0.84931-0.60855-1.6854-1.2356-2.5294-1.8521l-0.31485-0.23018-0.08996-0.0688-0.0979-0.0767c-0.06085-0.0529-0.12435-0.10583-0.17992-0.16139a15.211 15.211 0 0 1 -1.6245 -2.1511l-0.18256-0.35984c-0.05821-0.11641-0.11642-0.23283-0.17727-0.34925l-0.36512-0.6985c-0.23812-0.46566-0.48948-0.92604-0.74348-1.3838a1.2435 1.2435 0 0 1 0.50535 -1.6298 1.1298 1.1298 0 0 1 1.6034 0.34925 1.0107 1.0107 0 0 1 0.05556 0.12171c0.19579 0.48948 0.39158 0.97896 0.6006 1.4631l0.30692 0.72761c0.05292 0.11906 0.10319 0.24077 0.15875 0.35983l0.1561 0.3519a4.0111 4.0111 0 0 0 0.31221 0.55562 4.5455 4.5455 0 0 0 0.41804 0.54769 4.7466 4.7466 0 0 0 0.51064 0.43127l0.11906 0.0952 0.12171 0.0926 0.31485 0.23548c0.83608 0.62707 1.6775 1.2435 2.5082 1.8785 0.83079 0.635 1.6616 1.2621 2.4844 1.905a0.99219 0.99219 0 0 1 0.08996 1.4208 1.0583 1.0583 0 0 1 -1.4102 0.24871z" fill="#42210b" stroke-width=".26458"/>
<path class="cls-54" d="m26.244 47.088c2.6458 0.80962 5.7494 1.7277 5.0509 0.26458-0.6985-1.4631-3.175-1.9288-4.6461-1.6378-0.83608 0.16669-0.40481 1.3732-0.40481 1.3732z" fill="#93bf8f" stroke-width=".26458"/>
<path class="cls-54" d="m32.725 43.618c2.6061 0.98954 5.6409 2.1167 5.0271 0.61119s-3.0533-2.1405-4.5429-1.95c-0.84403 0.10583-0.48419 1.3388-0.48419 1.3388z" fill="#93bf8f" stroke-width=".26458"/>
<path class="cls-55" d="m35.345 34.288v-0.3122l-0.0185-0.32544c0-0.20638-0.037-0.46831-0.0635-0.70644-0.0265-0.23812-0.0609-0.43127-0.10319-0.65881a9.3451 9.3451 0 0 0 -0.35719 -1.3891 9.6255 9.6255 0 0 0 -0.55562 -1.2621c-0.18256-0.35454-0.34396-0.65881-0.50006-0.97102l-0.11378-0.23018-0.0688-0.15082-0.0185-0.037-0.0185-0.0476-0.0344-0.0953c-0.0238-0.0661-0.0503-0.127-0.0714-0.20109a17.545 17.545 0 0 1 -0.47625 -1.9711c-0.0714-0.3519-0.13758-0.71173-0.19843-1.0742l-0.18786-1.0583v-0.045a1.2859 1.2859 0 0 0 -2.5638 0.14288c-0.0185 0.22489-0.0265 0.41804-0.037 0.62442-0.0106 0.20637 0 0.40745-0.0132 0.60854 0 0.40746 0 0.81492 0.0291 1.2277a14.663 14.663 0 0 0 0.34396 2.5585c0.0238 0.10848 0.0582 0.23018 0.0926 0.3466l0.0529 0.17727 0.0265 0.09 0.0344 0.0952 0.14287 0.37835 0.12171 0.28575c0.16669 0.37836 0.34396 0.75142 0.50006 1.0742a8.681 8.681 0 0 1 0.35455 0.82815 6.5696 6.5696 0 0 1 0.21166 0.83344c0.0291 0.15081 0.0582 0.32543 0.082 0.47889s0.037 0.26459 0.0476 0.4445l0.0212 0.24871 0.0159 0.26458c0 0.17727 0.0212 0.35455 0.0265 0.52917 0.0344 0.73025 0.0529 1.487 0.0714 2.241 0.0423 1.5134 0.0767 3.0506 0.16405 4.5746a1.3626 1.3626 0 0 0 1.0848 1.2938 1.3229 1.3229 0 0 0 1.487 -1.1589c0.11641-0.77787 0.19843-1.5478 0.26458-2.3257 0.0662-0.77788 0.12964-1.5531 0.17198-2.3363 0.0423-0.78317 0.0688-1.569 0.0688-2.3812-8e-3 -0.19315-0.0132-0.40217-0.0159-0.60855z" fill="#1f4b7f" stroke-width=".26458"/>
<path class="cls-55" d="m30.755 34.318a10.583 10.583 0 0 0 -0.32014 -1.4208c-0.11642-0.40481-0.22755-0.75142-0.32544-1.1086l-0.0741-0.26459c-0.0132-0.0556-0.0265-0.11112-0.0423-0.16933v-0.0952l-0.0185-0.10583c0-0.0714-0.0265-0.14023-0.0344-0.22225-0.0238-0.1958-0.045-0.40482-0.0582-0.61913l0.52917-1.2753-0.21167-2.7543h-0.39158a1.442 1.442 0 0 0 -0.96838 -1.2409 1.3494 1.3494 0 0 0 -1.6854 1.0001c-0.0609 0.22489-0.10584 0.42333-0.15611 0.63235s-0.08731 0.4154-0.12965 0.62442c-0.07673 0.41539-0.15081 0.83608-0.20638 1.2647a14.864 14.864 0 0 0 -0.13758 2.704c0 0.11906 0 0.26458 0.02646 0.37835l0.01852 0.19579v0.0952l0.01852 0.10584 0.07408 0.42333 0.06879 0.32015c0.0979 0.42333 0.20902 0.84666 0.30692 1.2171a8.345 8.345 0 0 1 0.20373 0.92869 6.6146 6.6146 0 0 1 0.0582 0.90223v0.51329c0 0.16404 0 0.26458-0.0344 0.46566l-0.0291 0.26459-0.0317 0.26458c-0.0238 0.18521-0.0476 0.37042-0.0767 0.56092-0.10848 0.75935-0.23283 1.5372-0.35719 2.3204-0.24871 1.561-0.508 3.1485-0.71438 4.7334a1.487 1.487 0 0 0 0.86783 1.5743 1.3229 1.3229 0 0 0 1.7489 -0.85725c0.26458-0.77523 0.50006-1.5452 0.7276-2.3283 0.22754-0.78317 0.43127-1.5663 0.62442-2.3601s0.37306-1.5875 0.52917-2.4289c0.0397-0.20638 0.0767-0.42069 0.11112-0.63236 0.0185-0.10848 0.037-0.21166 0.0529-0.32279l0.0423-0.34131c0.0344-0.21167 0.0529-0.48683 0.0714-0.73819 0.0185-0.25135 0.0212-0.45508 0.0212-0.6985a9.7155 9.7155 0 0 0 -0.0979 -1.5055z" fill="#1f4b7f" stroke-width=".26458"/>
<path class="cls-56" d="m27.635 33.888c-0.0291-0.52916-0.0741-1.0239-0.11642-1.4261-0.0423-0.40217-0.0794-0.75406-0.11641-1.1112l-0.0265-0.26459c0-0.0556 0-0.11377-0.0132-0.16933v-0.20368c0-0.0714 0-0.14023-0.0132-0.22225 0-0.19579-0.0159-0.40481-0.0212-0.62177l0.18785-1.2779-0.0635-2.7702h-0.13758c-0.0238-0.5715-0.15346-1.0742-0.34396-1.2436-0.26458-0.22754-0.52917 0.21961-0.59531 1.0001-0.02117 0.22754-0.03704 0.42598-0.05556 0.635s-0.0291 0.41804-0.04498 0.62706c-0.02646 0.41804-0.05292 0.83873-0.07144 1.2674-0.03969 0.85989-0.06615 1.733-0.05027 2.7146v0.77528l0.02646 0.42598 0.02381 0.32015c0.03439 0.42597 0.07408 0.84931 0.10848 1.2197 0.0344 0.37042 0.05821 0.65882 0.07144 0.93134s0.02117 0.56885 0.02117 0.90752v0.51329c0 0.16404 0 0.27781-0.01323 0.46567v0.26458l-0.01323 0.26458c0 0.18786-0.01588 0.37042-0.02646 0.56357-0.03704 0.762-0.08202 1.5425-0.127 2.3257-0.08731 1.569-0.17992 3.1591-0.25135 4.7493-0.03175 0.66675 0.0926 1.3229 0.30692 1.5875 0.24606 0.28575 0.52917-0.0979 0.61648-0.85725s0.17727-1.5504 0.26458-2.3363c0.0873-0.78581 0.15346-1.5716 0.22225-2.3812 0.0688-0.80962 0.13229-1.6034 0.18521-2.4368 0.0159-0.20373 0.0265-0.41804 0.0397-0.635 0-0.10583 0.0132-0.20902 0.0185-0.32279l0.0159-0.33867c0-0.21431 0.0185-0.48948 0.0238-0.74348 5e-3 -0.254 0-0.45773 0-0.6985 3e-3 -0.45773-3e-3 -0.97102-0.0318-1.4975z" fill="#002b50" stroke-width=".26458"/>
<path class="cls-38" d="m39.035 24.618c-0.70908-0.55298-1.4102-1.1165-2.1167-1.6801-0.70643-0.56356-1.3944-1.1377-2.0928-1.7066l-0.26458-0.21432-0.0741-0.0609-0.082-0.0714a1.8865 1.8865 0 0 1 -0.14552 -0.14552 7.1967 7.1967 0 0 1 -0.47625 -0.62177 6.8792 6.8792 0 0 1 -0.84138 -1.3229l-0.14287-0.32544c-0.045-0.10584-0.0926-0.21167-0.14288-0.31486l-0.28575-0.62706c-0.1905-0.42069-0.39158-0.83608-0.59267-1.2488a1.1377 1.1377 0 0 1 0.4789 -1.4367 0.93133 0.93133 0 0 1 1.3494 0.3519 1.0292 1.0292 0 0 1 0.045 0.10848c0.15082 0.4392 0.30428 0.87841 0.46567 1.3229l0.24077 0.65352c0.0397 0.10848 0.0794 0.21696 0.12171 0.32544l0.12171 0.3175a4.3206 4.3206 0 0 0 0.58737 0.99483 4.1751 4.1751 0 0 0 0.42069 0.39688l0.0979 0.0873 0.10319 0.0847 0.26458 0.21696c0.69056 0.57679 1.3864 1.1456 2.0717 1.7277 0.68527 0.58208 1.3758 1.1642 2.0558 1.7542a0.90487 0.90487 0 0 1 0.0318 1.2621 0.87842 0.87842 0 0 1 -1.1986 0.17198z" fill="#c69c6d" stroke="#c69c6d" stroke-miterlimit="10" stroke-width=".13229px"/>
<path class="cls-57" d="m28.385 14.698c0.0661-0.0212-2.2437 0.57943-2.9104 1.8944s-1.2859 10.377-0.30162 11.208c0.98425 0.8308 4.109-0.31485 4.109-0.31485l4.2069-2.7199s0.67204-8.2285 0-9.7446-5.1038-0.32279-5.1038-0.32279z" fill="#cad93f" stroke-width=".26458"/>
<path class="cls-38" d="m28.735 12.858s-0.127 1.9606-0.2249 2.2542 1.5875 0.29633 1.5875 0.29633l-0.16404-3.5454z" fill="#c69c6d" stroke="#c69c6d" stroke-miterlimit="10" stroke-width=".13229px"/>
<path class="cls-38" d="m27.205 8.0283s-1.7013 2.3574-0.66146 3.6592c1.0398 1.3018 2.4897 2.6961 3.1935 2.4792 0.70379-0.21696 3.4396-1.3705 2.749-3.847-0.69057-2.4765-3.7835-4.0322-5.2811-2.2913z" fill="#c69c6d" stroke="#c69c6d" stroke-miterlimit="10" stroke-width=".13229px"/>
<path class="cls-58" d="m31.685 8.4183s-1.3229 1.1218-2.4765 1.2594c-1.1536 0.13759-1.2991-0.28045-1.4367 0.13759l-0.13493 0.41804s-0.4154-0.0767-0.4789 0.10054a1.2488 1.2488 0 0 0 0 0.71702c0.0714 0.15611 0.85461 0.55298 0.85461 0.55298l-0.0476 1.6801s-1.352-0.86519-1.7912-1.6801c-0.43921-0.81492 0.0979-1.8521 0.44186-2.9289s0.95779-1.5081 1.397-1.7145c0.43921-0.20637 1.7595 0.10055 2.0505 0.2249s1.5902 0.53181 1.6219 1.233z" fill="#5f2b00" stroke-width=".26458"/>
<path class="cls-38" d="m34.025 27.358c-0.85725-0.59796-1.7039-1.2091-2.5506-1.823-0.84666-0.61383-1.6854-1.233-2.5294-1.8521l-0.3175-0.23284-0.09-0.0688-0.0979-0.0767c-0.0582-0.0529-0.12436-0.10318-0.17727-0.15875a8.4878 8.4878 0 0 1 -0.58208 -0.68262 7.7179 7.7179 0 0 1 -1.0451 -1.4711l-0.17992-0.35719c-0.05821-0.11906-0.11906-0.23548-0.17992-0.3519l-0.36248-0.69585c-0.24077-0.46831-0.49212-0.92869-0.74612-1.3864a1.2462 1.2462 0 0 1 0.508 -1.6298 1.1271 1.1271 0 0 1 1.6007 0.34925 1.2726 1.2726 0 0 1 0.0582 0.12171q0.29104 0.73818 0.59795 1.4631l0.30957 0.72761c0.0503 0.1217 0.10318 0.24077 0.1561 0.36248l0.1561 0.35189a4.1857 4.1857 0 0 0 0.31486 0.55298 3.0798 3.0798 0 0 0 0.92604 0.97896l0.12171 0.0953 0.12171 0.0926 0.31221 0.23548c0.83608 0.62706 1.6774 1.2435 2.5082 1.8785 0.83079 0.635 1.6642 1.2621 2.4871 1.905a0.98954 0.98954 0 0 1 0.0873 1.4208 1.0583 1.0583 0 0 1 -1.4076 0.25135z" fill="#c69c6d" stroke="#c69c6d" stroke-miterlimit="10" stroke-width=".13229px"/>
<polygon class="cls-177" transform="matrix(-.32756 0 0 .26458 538.23 -189.26)" points="1497.7 898.23 1469.3 912.16 1469 911.57 1469 910.09 1496.8 896.49" fill="#00fe00" style="isolation:isolate"/>
<polygon class="cls-178" transform="matrix(-.32756 0 0 .26458 538.23 -189.26)" points="1469.6 909.68 1497.5 896.08 1496.8 896.49 1469 910.09" fill="#008000" style="isolation:isolate"/>
<polygon class="cls-185" transform="matrix(-.32756 0 0 .26458 538.23 -189.26)" points="1495.7 892.84 1502.7 894.56 1502 894.97 1495 893.25" fill="#008100" style="isolation:isolate"/>
<polygon class="cls-175" transform="matrix(-.32756 0 0 .26458 538.23 -189.26)" points="1502.7 894.56 1500.1 900.96 1499.4 901.37 1502 894.97" fill="#008500" style="isolation:isolate"/>
<polygon class="cls-203" transform="matrix(-.32756 0 0 .26458 538.23 -189.26)" points="1469.3 844.14 1498 886.62 1497.2 887.03 1468.6 844.55" fill="#008a00" style="isolation:isolate"/>
<polygon class="cls-177" transform="matrix(-.32756 0 0 .26458 538.23 -189.26)" points="1497.2 887.03 1496.4 887.89 1468.6 846.62 1468.6 844.55" fill="#00fe00" style="isolation:isolate"/>
<polygon class="cls-179" transform="matrix(-.32756 0 0 .26458 538.23 -189.26)" points="1499.4 885.15 1502.5 894.13 1501.8 894.54 1498.7 885.56" fill="#008b00" style="isolation:isolate"/>
<g class="cls-3" transform="matrix(-.32756 0 0 .26458 538.23 -189.26)" style="isolation:isolate">
<g class="cls-208" clip-path="url(#d)">
<g class="cls-3">
<path class="cls-169" d="m1503.4 876.92 0.71-0.41a3 3 0 0 1 3 0.29l-0.71 0.41a3 3 0 0 0 -3 -0.29"/>
</g>
</g>
</g>
<g class="cls-3" transform="matrix(-.32756 0 0 .26458 538.23 -189.26)" style="isolation:isolate">
<g class="cls-209" clip-path="url(#e)">
<g class="cls-3">
<path class="cls-169" d="m1563.8 945.81 0.7-0.41a3 3 0 0 1 -1.25 2.72l-0.7 0.41a3 3 0 0 0 1.25 -2.72"/>
</g>
</g>
</g>
<polygon class="cls-200" transform="matrix(-.32756 0 0 .26458 538.23 -189.26)" points="1564.6 914.88 1564.5 945.39 1563.8 945.8 1563.9 915.29" fill="#894e00" style="isolation:isolate"/>
<polygon class="cls-201" transform="matrix(-.32756 0 0 .26458 538.23 -189.26)" points="1507.2 876.8 1560.4 907.54 1559.7 907.95 1506.4 877.21" fill="#844c00" style="isolation:isolate"/>
<path class="cls-172" d="m27.345 50.988a3.0725 2.4818 0 0 0 -1.3888 1.942l0.02625 8.0751c0 0.71173 0.63219 1.0001 1.3987 0.64294l17.439-8.1333a3.0758 2.4844 0 0 0 1.3921 -1.9447l-0.0295-8.0724c0-0.71173-0.63218-1.0001-1.3987-0.64294z" fill="#fe9100" stroke-width=".29439" style="isolation:isolate"/>
<g class="cls-3" transform="matrix(-.32756 0 0 .26458 538.23 -189.26)" style="isolation:isolate">
<g class="cls-210" clip-path="url(#f)">
<g class="cls-3">
<path class="cls-169" d="m1559.7 908 0.71-0.41a9.43 9.43 0 0 1 4.24 7.34l-0.71 0.41a9.38 9.38 0 0 0 -4.24 -7.34"/>
</g>
</g>
</g>
<g class="cls-3" transform="matrix(-.32756 0 0 .26458 569.47 -194.12)" style="isolation:isolate">
<g class="cls-208" clip-path="url(#d)">
<g class="cls-3">
<path class="cls-169" d="m1503.4 876.92 0.71-0.41a3 3 0 0 1 3 0.29l-0.71 0.41a3 3 0 0 0 -3 -0.29"/>
</g>
</g>
</g>
<g class="cls-3" transform="matrix(-.32756 0 0 .26458 569.47 -194.12)" style="isolation:isolate">
<g class="cls-209" clip-path="url(#e)">
<g class="cls-3">
<path class="cls-169" d="m1563.8 945.81 0.7-0.41a3 3 0 0 1 -1.25 2.72l-0.7 0.41a3 3 0 0 0 1.25 -2.72"/>
</g>
</g>
</g>
<polygon class="cls-200" transform="matrix(-.32756 0 0 .26458 569.47 -194.12)" points="1563.9 915.29 1564.6 914.88 1564.5 945.39 1563.8 945.8" fill="#894e00" style="isolation:isolate"/>
<polygon class="cls-201" transform="matrix(-.32756 0 0 .26458 569.47 -194.12)" points="1506.4 877.21 1507.2 876.8 1560.4 907.54 1559.7 907.95" fill="#844c00" style="isolation:isolate"/>
<path class="cls-172" d="m58.585 46.118a3.0725 2.4818 0 0 0 -1.3888 1.942l0.0263 8.0751c0 0.71173 0.63218 1.0001 1.3987 0.64294l17.439-8.1333a3.0758 2.4844 0 0 0 1.3921 -1.9447l-0.0295-8.0724c0-0.71173-0.63219-1.0001-1.3987-0.64294z" fill="#fe9100" stroke-width=".29439" style="isolation:isolate"/>
<g class="cls-3" transform="matrix(-.32756 0 0 .26458 569.47 -194.12)" style="isolation:isolate">
<g class="cls-210" clip-path="url(#f)">
<g class="cls-3">
<path class="cls-169" d="m1559.7 908 0.71-0.41a9.43 9.43 0 0 1 4.24 7.34l-0.71 0.41a9.38 9.38 0 0 0 -4.24 -7.34"/>
</g>
</g>
</g>
<g class="cls-3" transform="matrix(-.32756 0 0 .26458 569.25 -211.45)" style="isolation:isolate">
<g class="cls-208" clip-path="url(#d)">
<g class="cls-3">
<path class="cls-169" d="m1503.4 876.92 0.71-0.41a3 3 0 0 1 3 0.29l-0.71 0.41a3 3 0 0 0 -3 -0.29"/>
</g>
</g>
</g>
<g class="cls-3" transform="matrix(-.32756 0 0 .26458 569.25 -211.45)" style="isolation:isolate">
<g class="cls-209" clip-path="url(#e)">
<g class="cls-3">
<path class="cls-169" d="m1563.8 945.81 0.7-0.41a3 3 0 0 1 -1.25 2.72l-0.7 0.41a3 3 0 0 0 1.25 -2.72"/>
</g>
</g>
</g>
<polygon class="cls-200" transform="matrix(-.32756 0 0 .26458 569.25 -211.45)" points="1563.9 915.29 1564.6 914.88 1564.5 945.39 1563.8 945.8" fill="#894e00" style="isolation:isolate"/>
<polygon class="cls-201" transform="matrix(-.32756 0 0 .26458 569.25 -211.45)" points="1506.4 877.21 1507.2 876.8 1560.4 907.54 1559.7 907.95" fill="#844c00" style="isolation:isolate"/>
<path class="cls-172" d="m58.365 28.788a3.0725 2.4818 0 0 0 -1.3888 1.942l0.0263 8.0751c0 0.71173 0.63219 1.0001 1.3987 0.64294l17.439-8.1333a3.0758 2.4844 0 0 0 1.3921 -1.9447l-0.0295-8.0724c0-0.71173-0.63218-1.0001-1.3987-0.64294z" fill="#fe9100" stroke-width=".29439" style="isolation:isolate"/>
<g class="cls-3" transform="matrix(-.32756 0 0 .26458 569.25 -211.45)" style="isolation:isolate">
<g class="cls-210" clip-path="url(#f)">
<g class="cls-3">
<path class="cls-169" d="m1559.7 908 0.71-0.41a9.43 9.43 0 0 1 4.24 7.34l-0.71 0.41a9.38 9.38 0 0 0 -4.24 -7.34"/>
</g>
</g>
</g>
<path d="m46.245 47.538 0.83527 1.6933 1.4544-2.1484z" fill="#9f9" stroke-width=".29439"/>
<path d="m47.515 48.578c0.77045-1.1383 0.87693-1.2956 0.94422-1.3945 0.0363-0.0534 0.0656-0.0974 0.065-0.098 0 0-0.51292 0.1008-1.1386 0.22516-1.0649 0.21159-1.1376 0.22656-1.1357 0.23384 4e-3 7e-3 0.82411 1.6753 0.82696 1.6777 0 0 0.19786-0.28932 0.4381-0.64424z" fill="#00fe00" stroke-width=".004319"/>
<path d="m47.335 45.038c-0.0602-0.0367-1.0275 2.3734-1.0256 2.3807 4e-3 7e-3 1.4572-0.83544 2.5024-1.4061 0 0-1.2762-0.85233-1.4767-0.97462z" fill="#00fe00" stroke-width=".004319"/>
</svg>
