<?xml version="1.0" encoding="UTF-8"?>
<svg width="85.984mm" height="75.6mm" version="1.1" viewBox="0 0 85.983402 75.600533" xmlns="http://www.w3.org/2000/svg">
<defs>
<clipPath id="d" transform="translate(0)">
<path class="cls-1" d="m1503.4 876.92 0.71-0.41a3 3 0 0 1 3 0.29l-0.71 0.41a3 3 0 0 0 -3 -0.29z"/>
</clipPath>
<clipPath id="e" transform="translate(0)">
<path class="cls-1" d="m1563.3 948.12-0.7 0.41a3 3 0 0 0 1.25 -2.72l0.7-0.41a3 3 0 0 1 -1.25 2.72z"/>
</clipPath>
<clipPath id="f" transform="translate(0)">
<path class="cls-1" d="m1559.7 908 0.71-0.41a9.43 9.43 0 0 1 4.24 7.34l-0.71 0.41a9.38 9.38 0 0 0 -4.24 -7.34z"/>
</clipPath>
</defs>
<path class="cls-60" d="m2.9218 52.957c2.7808 0.51064 6.014 1.0795 5.162-0.2884-0.85196-1.3679-3.4105-1.5663-4.8842-1.1139-0.83608 0.254-0.27781 1.4023-0.27781 1.4023z" fill="#a60000" stroke="#a60000" stroke-miterlimit="10" stroke-width=".13229px"/>
<path class="cls-60" d="m9.5578 49.687c2.7834 0.51065 6.0166 1.0795 5.1647-0.28839-0.85196-1.3679-3.4105-1.5637-4.8842-1.1139-0.83608 0.24606-0.28046 1.4023-0.28046 1.4023z" fill="#a60000" stroke="#a60000" stroke-miterlimit="10" stroke-width=".13229px"/>
<path class="cls-61" d="m12.185 39.937v-0.31221l-0.01852-0.32543c0-0.20373-0.03969-0.46302-0.0635-0.70379-0.02381-0.24078-0.0635-0.42863-0.10583-0.65353a9.3768 9.3768 0 0 0 -0.36512 -1.3864 9.7896 9.7896 0 0 0 -0.56885 -1.2568c-0.18521-0.3519-0.3519-0.65352-0.51065-0.96573l-0.11906-0.23019c-0.02117-0.0503-0.04498-0.10054-0.06879-0.14817l-0.01852-0.037-0.01852-0.0503-0.0344-0.0952c-0.02381-0.0635-0.05027-0.12435-0.07408-0.19844a16.682 16.682 0 0 1 -0.48683 -1.9658c-0.07408-0.34925-0.14023-0.70644-0.20373-1.0583l-0.1905-1.0583v-0.045a1.3229 1.3229 0 0 0 -2.6247 0.14288c-0.01588 0.22225-0.02646 0.41539-0.0344 0.62177-0.0079 0.20637 0 0.40481-0.01323 0.6059 0 0.40481 0 0.81227 0.0291 1.2224a13.875 13.875 0 0 0 0.3519 2.5479c0.02381 0.11112 0.05821 0.23019 0.09525 0.3466l0.05292 0.17727 0.02646 0.0873 0.0344 0.0952 0.14817 0.37835 0.12435 0.28575c0.16933 0.37571 0.34925 0.74612 0.51065 1.0583a6.9559 6.9559 0 0 1 0.35983 0.8255 6.1145 6.1145 0 0 1 0.2196 0.82815c0.0291 0.15081 0.05821 0.32544 0.08467 0.47889 0.02646 0.15346 0.03704 0.26459 0.04762 0.44186l0.02117 0.24871 0.01588 0.26458c0 0.17727 0.02117 0.35454 0.0291 0.52917 0.03175 0.7276 0.05292 1.479 0.07144 2.2331 0.04233 1.5055 0.07937 3.0374 0.16669 4.5535a1.3705 1.3705 0 0 0 1.1112 1.2912 1.3229 1.3229 0 0 0 1.5187 -1.1536c0.11906-0.77787 0.20373-1.5425 0.27781-2.3178 0.07408-0.77523 0.13494-1.5478 0.17727-2.3283 0.04233-0.78052 0.06879-1.5637 0.06879-2.368-0.01587-0.19315-0.01852-0.39952-0.02381-0.6059z" fill="#002d76" stroke-width=".26458"/>
<path class="cls-61" d="m7.4938 39.967a10.163 10.163 0 0 0 -0.33602 -1.4155c-0.12171-0.40216-0.23283-0.74877-0.33338-1.1033l-0.07673-0.26458c-0.01323-0.0556-0.02646-0.11113-0.04233-0.16933v-0.0952l-0.01588-0.10584c-0.01323-0.0714-0.0291-0.13758-0.03704-0.22225-0.02381-0.19314-0.04498-0.40216-0.06086-0.61648l0.52917-1.27-0.18256-2.749h-0.4101a1.4473 1.4473 0 0 0 -0.99219 -1.2382 1.3811 1.3811 0 0 0 -1.7224 0.99748c-0.06085 0.2249-0.10848 0.42069-0.15875 0.62971s-0.0926 0.41275-0.13494 0.61912c-0.07673 0.41805-0.15346 0.83609-0.20902 1.2621a14.729 14.729 0 0 0 -0.14288 2.6935c0 0.11906 0.01588 0.2487 0.0291 0.37835l0.01852 0.19315v0.0952l0.01852 0.10583 0.07408 0.42069 0.07408 0.32014c0.0979 0.42334 0.21167 0.84402 0.31221 1.2118a7.8661 7.8661 0 0 1 0.20902 0.9234 6.5908 6.5908 0 0 1 0.06085 0.89958v0.51065c0 0.16139-0.01323 0.27781-0.03704 0.46302l-0.0291 0.26458-0.0344 0.26459c-0.02381 0.1852-0.04762 0.37041-0.07673 0.56091-0.11112 0.75407-0.23812 1.5319-0.36777 2.3098-0.26458 1.5558-0.52917 3.138-0.7276 4.7149a1.4711 1.4711 0 0 0 0.88635 1.569 1.3679 1.3679 0 0 0 1.7859 -0.8546c0.27781-0.76994 0.51329-1.5399 0.74612-2.3178 0.23283-0.77788 0.44185-1.561 0.64029-2.3548 0.19844-0.79375 0.381-1.5875 0.52917-2.4183 0.04233-0.20373 0.07673-0.41804 0.11377-0.62971 0.01588-0.10848 0.03704-0.20902 0.05292-0.32279l0.04498-0.33602c0.03175-0.21167 0.05292-0.48683 0.07408-0.73819 0.02117-0.25135 0.01852-0.45243 0.01852-0.6932a9.3821 9.3821 0 0 0 -0.08996 -1.4922z" fill="#002d76" stroke-width=".26458"/>
<path class="cls-62" d="m19.715 17.287c-0.63765 0.63765-1.2859 1.2674-1.9341 1.8944-0.64823 0.62706-1.3018 1.2462-1.9526 1.8706l-0.24342 0.23284-0.07144 0.0661-0.08202 0.0714c-0.05292 0.0423-0.10583 0.09-0.1614 0.127a7.3898 7.3898 0 0 1 -0.67469 0.39158 6.6675 6.6675 0 0 1 -1.4235 0.66146l-0.33867 0.0979-0.33073 0.0979-0.65881 0.20109q-0.65881 0.19844-1.3097 0.41804a1.143 1.143 0 0 1 -1.36 -0.68792 0.94985 0.94985 0 0 1 0.52917 -1.3229l0.11112-0.0291c0.45508-0.0873 0.91017-0.17991 1.36-0.2831l0.67733-0.14817 0.33867-0.0767 0.32808-0.0794a3.7703 3.7703 0 0 0 0.52917 -0.17992 3.7174 3.7174 0 0 0 0.52917 -0.26458 3.9688 3.9688 0 0 0 0.44715 -0.37042l0.0979-0.0873 0.0979-0.09 0.24606-0.23019c0.65881-0.61648 1.3229-1.2382 1.9764-1.8521s1.3229-1.225 1.995-1.8256a0.89165 0.89165 0 0 1 1.2541 0.14817 0.91017 0.91017 0 0 1 0.02381 1.2488z" fill="#bf9c60" stroke="#bf9c60" stroke-miterlimit="10" stroke-width=".13229px"/>
<path class="cls-63" d="m5.0758 20.417c0.06879-0.0212-2.2913 0.57944-2.9871 1.8891-0.69585 1.3097-1.3229 10.337-0.30956 11.163 1.0134 0.8255 4.2016-0.31485 4.2016-0.31485l4.3021-2.7093s0.68527-8.2021 0-9.7076c-0.68527-1.5055-5.207-0.32014-5.207-0.32014z" fill="#00cc53" stroke-width=".26458"/>
<path class="cls-62" d="m5.4278 18.587s-0.12965 1.9526-0.23019 2.2463c-0.10054 0.29369 1.6192 0.29369 1.6192 0.29369l-0.16404-3.5322z" fill="#bf9c60" stroke="#bf9c60" stroke-miterlimit="10" stroke-width=".13229px"/>
<path class="cls-64" d="m3.8668 13.787s-1.741 2.3495-0.67733 3.6433c1.0636 1.2938 2.5453 2.6882 3.265 2.4712 0.71967-0.21696 3.5269-1.3652 2.8099-3.8312s-3.8682-4.027-5.3975-2.2834z" fill="#bf9c60" stroke-width=".26458"/>
<path class="cls-40" d="m8.7748 14.527a3.0295 3.0295 0 0 0 -1.2515 -1.4632l-0.07937-0.0423a4.1778 4.1778 0 0 0 -2.0055 -0.39688 3.0983 3.0983 0 0 0 -1.2171 0.34925 2.9104 2.9104 0 0 0 -1.2859 1.2594 11.541 11.541 0 0 0 -0.64294 2.7596 13.433 13.433 0 0 0 -0.19315 2.9475 11.311 11.311 0 0 0 0.26458 1.9024 8.4429 8.4429 0 0 1 1.3917 -0.87842 8.0195 8.0195 0 0 1 1.5293 -0.58473v-0.42598l0.14023-0.29369-0.69585-0.58472c-0.04763-0.38894-0.0926-0.78053-0.14023-1.1695-0.64029-0.18786-1.0134-0.57944-0.97367-0.87842 0.0344-0.24342 0.34925-0.49742 0.55827-0.43921 0.20902 0.0582 0.21696 0.30692 0.27781 0.29369 0.11906-0.0291-0.2249-1.0583 0.13758-1.4632 0.36248-0.40481 0.99483 0.0159 1.9473 0a3.7253 3.7253 0 0 0 2.2384 -0.89164z" stroke="#000" stroke-miterlimit="10" stroke-width=".13229px"/>
<path class="cls-56" d="m4.0408 41.627c-0.02117-0.43391-0.05821-0.84137-0.08996-1.1721s-0.0635-0.62177-0.08996-0.91281l-0.02117-0.21961v-0.50007c0-0.1614-0.01323-0.33338-0.01588-0.51065l0.14552-1.0583-0.05027-2.2754h-0.14286c-0.01588-0.47095-0.11642-0.8837-0.26458-1.0239-0.19844-0.18786-0.40746 0.18256-0.46567 0.82285-0.01588 0.18785-0.0291 0.34925-0.04233 0.52917-0.01323 0.17991-0.02381 0.34131-0.03704 0.51329-0.02117 0.34396-0.03969 0.69056-0.05556 1.0425-0.03175 0.70643-0.05027 1.4261-0.03969 2.2331v0.63766l0.02117 0.34925 0.01852 0.26458c0.02646 0.34925 0.05821 0.6985 0.08467 1.0028s0.04762 0.52917 0.05821 0.76729c0.01058 0.23813 0.01588 0.46831 0.01588 0.74348v1.2488c0 0.15346-0.01323 0.30428-0.02117 0.46303-0.02911 0.62706-0.0635 1.27-0.10054 1.9129-0.06879 1.2885-0.14023 2.5982-0.19579 3.9052-0.02381 0.54769 0.07144 1.0954 0.23812 1.2965 0.16669 0.20108 0.4101-0.0794 0.48419-0.70644 0.07408-0.62706 0.13758-1.2753 0.20108-1.9182 0.0635-0.64293 0.11906-1.2938 0.17198-1.95 0.05292-0.65617 0.10319-1.3229 0.14552-2.0029 0-0.16933 0.02117-0.34396 0.03175-0.52917 0-0.09 0-0.17462 0.01323-0.26458l0.01323-0.28046c0-0.17462 0-0.39952 0.01852-0.60854s0-0.37571 0-0.57679c-0.01323-0.36777-0.0291-0.78846-0.0291-1.2224z" fill="#002b50" stroke-width=".26458"/>
<path class="cls-62" d="m1.4608 35.637c-0.2249-1.0186-0.43656-2.0399-0.64558-3.0586-0.20902-1.0186-0.40481-2.0452-0.61119-3.0665l-0.07408-0.38365-0.02117-0.10848-0.01852-0.12435c0-0.0794-0.02117-0.1614-0.02381-0.23813a8.1333 8.1333 0 0 1 0.03969 -0.89164 7.321 7.321 0 0 1 0.23812 -1.7806l0.11377-0.38629c0.03704-0.12435 0.07408-0.26458 0.10848-0.37571l0.21167-0.75671c0.14552-0.5027 0.27781-1.0081 0.40481-1.5161a1.2753 1.2753 0 0 1 1.5134 -0.84667 1.1245 1.1245 0 0 1 0.95779 1.3388 0.89429 0.89429 0 0 1 -0.04233 0.127c-0.19315 0.49212-0.38629 0.9816-0.56621 1.4764l-0.26458 0.73819c-0.04498 0.12435-0.08996 0.24871-0.13229 0.37306l-0.127 0.36248a3.6883 3.6883 0 0 0 -0.15081 0.61648 4.1751 4.1751 0 0 0 -0.06879 0.68262 4.3445 4.3445 0 0 0 0.08202 0.66146l0.02381 0.15082 0.02646 0.15081 0.07408 0.38364c0.1905 1.0239 0.39158 2.0452 0.57414 3.0692 0.18256 1.0239 0.36777 2.0505 0.52917 3.0771a0.98954 0.98954 0 0 1 -0.92075 1.098 1.0901 1.0901 0 0 1 -1.2303 -0.77259z" fill="#bf9c60" stroke="#bf9c60" stroke-miterlimit="10" stroke-width=".13229px"/>
<path d="m59.498 74.151c2.7146 0.68527 5.8738 1.4578 5.125 0.10848-0.74877-1.3494-3.2623-1.7198-4.7625-1.4049-0.83344 0.17727-0.36248 1.2965-0.36248 1.2965z" stroke-width=".26458"/>
<path d="m65.258 70.561c2.7146 0.68263 5.8738 1.4552 5.1276 0.10584-0.74612-1.3494-3.2623-1.7198-4.7625-1.4049-0.83344 0.17198-0.36512 1.2991-0.36512 1.2991z" stroke-width=".26458"/>
<path class="cls-43" d="m70.478 43.831c0.0741 0.97367 0.13759 1.9473 0.19844 2.9104 0.0609 0.96308 0.10848 1.9473 0.16404 2.9104l0.0185 0.36248v0.4445a7.1437 7.1437 0 0 1 -0.16139 0.82021 6.5749 6.5749 0 0 1 -0.48154 1.606l-0.16404 0.33867-0.15875 0.33337-0.31221 0.66675c-0.20902 0.44186-0.40746 0.889-0.60325 1.3388-0.23548 0.52916-0.94457 0.79375-1.5875 0.56091-0.64294-0.23283-0.97367-0.84402-0.74084-1.3785a0.73554 0.73554 0 0 1 0.0582 -0.11112c0.26459-0.42334 0.51329-0.84931 0.75671-1.2779l0.37042-0.64294 0.18256-0.32279 0.17198-0.31485a3.5137 3.5137 0 0 0 0.23283 -0.54769 3.5798 3.5798 0 0 0 0.1614 -0.62177 3.7915 3.7915 0 0 0 0.0132 -0.62177v-0.28575l-0.0159-0.36513c-0.0423-0.97102-0.0952-1.9447-0.127-2.9104s-0.0741-1.9447-0.0953-2.9104c0-0.50006 0.45773-0.89429 1.0583-0.87577a1.0742 1.0742 0 0 1 1.061 0.89429z" fill="#ffe3aa" stroke-width=".26458"/>
<path class="cls-65" d="m62.398 58.811 6.9903-4.0375z" fill="#d0dcdc" stroke="#999" stroke-miterlimit="10" stroke-width=".26458"/>
<path class="cls-65" d="m62.398 58.811 0.96308 6.7575z" fill="#d0dcdc" stroke="#999" stroke-miterlimit="10" stroke-width=".26458"/>
<path class="cls-68" d="m66.308 44.401c-0.26458 0.16933-0.6641 0.43656-1.2965 0.82814-0.35454 0.21961-0.51329 0.31221-0.90752 0.55034-0.19314 0.11641-1.3229 0.80962-1.5531 0.96572-0.6694 0.46567-1.0319 1.6642-0.90752 6.2018 0.0847 3.048 0.13758 4.5852 0.77787 5.1012 1.2356 0.99748 3.8788 0.0344 6.477-2.2066a3.8047 3.8047 0 0 0 0.52917 -0.68792c0.61383-1.0583 0.49742-2.1167 0.38894-3.9978-0.0873-1.5134-0.13229-2.2728-0.12965-2.8945 0-0.96838-0.0423-2.0241-0.12964-4.1354-0.0265-0.63235-0.045-0.9525-0.26459-1.1033-0.41275-0.28575-1.27 0.26987-2.9845 1.3785z" fill="#5fb8cc" stroke-width=".26458"/>
<path class="cls-43" d="m63.908 47.731c-0.0318 0.97632-0.0794 1.95-0.127 2.9236s-0.11112 1.9447-0.16404 2.9104l-0.0212 0.36512v0.21961a1.8997 1.8997 0 0 1 -0.037 0.2196 7.0088 7.0088 0 0 1 -0.26458 0.79375 6.6146 6.6146 0 0 1 -0.65617 1.5425l-0.20108 0.32015c-0.0661 0.10318-0.13229 0.20637-0.19579 0.31221l-0.38365 0.62706c-0.26458 0.41804-0.50535 0.83873-0.75142 1.2647-0.29104 0.50535-1.0266 0.67468-1.6404 0.37835-0.61384-0.29633-0.87577-0.94721-0.58209-1.4526a0.87312 0.87312 0 0 1 0.0688 -0.10319c0.30428-0.39423 0.6059-0.79375 0.8943-1.1853l0.4392-0.59796 0.21696-0.29898 0.20902-0.29633a3.384 3.384 0 0 0 0.29105 -0.52917 3.5375 3.5375 0 0 0 0.23018 -0.59796 3.9476 3.9476 0 0 0 0.082 -0.61648v-0.2831l0.0238-0.36513c0.0688-0.97102 0.12435-1.9447 0.20108-2.9104 0.0767-0.96573 0.14552-1.942 0.23283-2.9104 0.0423-0.49742 0.55298-0.83608 1.1377-0.75406a1.0583 1.0583 0 0 1 0.99748 1.0239z" fill="#ffe3aa" stroke-width=".26458"/>
<path class="cls-43" d="m67.888 37.991s1.7251 2.2146 0.67204 3.4396-2.5241 2.5321-3.2385 2.3283c-0.71438-0.20373-3.4978-1.2859-2.7887-3.6116 0.70908-2.3257 3.8365-3.7941 5.3552-2.1564z" fill="#ffe3aa" stroke-width=".26458"/>
<path class="cls-43" d="m64.588 43.431a3.7333 3.7333 0 0 1 0.26458 1.2303 3.6221 3.6221 0 0 1 -0.037 0.68262l1.9315-1.2409v-1.1033a5.7811 5.7811 0 0 1 -0.55298 0.41275 5.0059 5.0059 0 0 1 -0.50536 0.29368 4.3815 4.3815 0 0 1 -0.68791 -0.13758 3.9688 3.9688 0 0 1 -0.41275 -0.13758z" fill="#ffe3aa" stroke-width=".26458"/>
<path class="cls-66" d="m67.158 43.281" fill="#8c6239" stroke-width=".26458"/>
<path class="cls-67" d="m64.308 43.711" fill="#fff" stroke="#000" stroke-miterlimit="10" stroke-width=".13229px"/>
<path class="cls-67" d="m66.928 43.431" fill="#fff" stroke="#000" stroke-miterlimit="10" stroke-width=".13229px"/>
<path class="cls-69" d="m62.228 57.351s1.3441 1.2859 4.3312-0.93662c2.9872-2.2225 3.3205-2.8363 3.3205-2.8363a29.898 29.898 0 0 0 -0.47095 8.6122c0.35983 3.8629 1.5399 7.9772 0.4101 8.5222a1.487 1.487 0 0 1 -1.1774 -0.0423 1.6087 1.6087 0 0 1 -0.75141 -0.89429c-0.19579-0.56621-0.44186-1.3229-0.68792-2.2066-0.0238-0.09-0.46037-1.6775-0.69056-3.0348a25.358 25.358 0 0 1 -0.13759 -6.4796 28.84 28.84 0 0 0 -1.1033 4.9636c-0.79375 6.0219 0.55827 10.634-0.96573 11.266-0.39158 0.16139-1.225 0.16139-1.5161-0.23548-0.11906-0.16404-0.14817-0.39952-0.20637-0.87048-0.0238-0.19315-0.0238-0.30163-0.0688-0.79375 0-0.14552-0.0264-0.26459-0.0397-0.39688-0.1614-1.5214-0.58209-4.2122-0.65088-6.4982-0.0794-2.6802 0.26458-6.4558 0.26458-7.0512v-0.8255z" fill="#df6666" stroke="#df6666" stroke-miterlimit="10" stroke-width=".26458"/>
<path class="cls-40" d="m62.918 38.951c0.19315 0.20373 0.90488 0.93398 1.6166 1.0583a2.9871 2.9871 0 0 0 0.77787 0.082c0.4789 0 0.58738-0.11112 0.66146 0.17463l0.10319 0.40216s0.42598-0.0344 0.47625 0.13759a1.1298 1.1298 0 0 1 -0.0582 0.67204c-0.0873 0.13758-0.91017 0.43921-0.91017 0.43921l-0.0899 1.5875a4.2519 4.2519 0 0 0 2.241 -1.0822c0.30162-0.2831 1.2965-1.225 1.1774-2.3812a3.7994 3.7994 0 0 0 -0.56621 -1.434 3.8682 3.8682 0 0 0 -0.61383 -0.88371c-0.85989-0.84402-2.6802-1.0054-3.8576-0.10054a2.9104 2.9104 0 0 0 -0.9578 1.3282z" stroke="#000" stroke-miterlimit="10" stroke-width=".13229px"/>
<path class="cls-70" d="m66.398 58.101" fill="#666" stroke="#666" stroke-miterlimit="10" stroke-width=".26458"/>
<path class="cls-71" d="m66.598 59.491c0-0.10583-0.21696-0.33073-0.26458-0.37041-0.0476-0.0397-0.0741-0.0741-0.127-0.12171-0.0503 0.42333-0.09 0.88106-0.10848 1.3705a16.155 16.155 0 0 0 0.0212 1.6192 9.5647 9.5647 0 0 0 0.0132 1.2462 11.758 11.758 0 0 0 0.36512 1.95c0.58738 2.45 0.75936 2.5135 0.9525 3.3972 0.24871 0.72496 0.52917 1.5293 0.59796 1.5134 0.0688-0.0159 0-0.14552 0-0.21695-0.15081-0.9869 0-1.1562-0.21431-1.8732-0.24871-0.86255-0.74084-2.0929-0.87313-3.0798s-0.29633-2.8496-0.29633-2.8496v-1.9659c0-0.0847 0-0.1614-0.0212-0.22754-0.0212-0.0661-0.037-0.15082-0.045-0.26459v-0.12435z" fill="#b85566" stroke="#b85566" stroke-miterlimit="10" stroke-width=".26458"/>
<path class="cls-107" d="m45.316 74.751c-2.7146 0.68262-5.8738 1.4578-5.1276 0.10847 0.74612-1.3494 3.265-1.7224 4.7625-1.4049 0.82815 0.17727 0.36512 1.2965 0.36512 1.2965z" fill="#8a3556" stroke-width=".26458"/>
<path class="cls-107" d="m39.548 71.151c-2.7146 0.68263-5.8738 1.4579-5.1276 0.10848 0.74612-1.3494 3.265-1.7224 4.7625-1.4049 0.84138 0.17727 0.36512 1.2965 0.36512 1.2965z" fill="#8a3556" stroke-width=".26458"/>
<path class="cls-108" d="m34.336 44.421c-0.07673 0.97367-0.14023 1.9473-0.19844 2.9104-0.05821 0.96308-0.10848 1.9447-0.16404 2.9104l-0.02117 0.36513v0.4445a6.985 6.985 0 0 0 0.1614 0.81756 6.8342 6.8342 0 0 0 0.48154 1.6087l0.16404 0.33866c0.05556 0.10848 0.10848 0.21961 0.15875 0.33073l0.31221 0.66675q0.31485 0.66675 0.6059 1.3414c0.23283 0.52917 0.94456 0.79375 1.5875 0.55827s0.97631-0.84402 0.74083-1.3785a0.889 0.889 0 0 0 -0.05821 -0.11112c-0.26458-0.42334-0.51065-0.84667-0.75671-1.2779l-0.36776-0.64294c-0.0635-0.10583-0.12435-0.21431-0.18256-0.32014l-0.17462-0.3175a3.6645 3.6645 0 0 1 -0.23283 -0.54769 4.0931 4.0931 0 0 1 -0.1614 -0.61913 4.1434 4.1434 0 0 1 -0.01323 -0.62441v-0.28311l0.01587-0.36512c0.04233-0.97367 0.09525-1.9473 0.12965-2.9104 0.0344-0.96308 0.07144-1.9473 0.0926-2.9104 0-0.5027-0.45773-0.89429-1.0583-0.87841a1.0583 1.0583 0 0 0 -1.061 0.89429z" fill="#c69c6d" stroke-width=".26458"/>
<path class="cls-65" d="m42.406 59.411-6.9956-4.0402z" fill="#d0dcdc" stroke="#999" stroke-miterlimit="10" stroke-width=".26458"/>
<path class="cls-65" d="m42.406 59.411-0.96044 6.7575z" fill="#d0dcdc" stroke="#999" stroke-miterlimit="10" stroke-width=".26458"/>
<path class="cls-109" d="m38.498 45.001c0.26458 0.17197 0.66675 0.43656 1.2965 0.82814 0.35719 0.21961 0.51329 0.31221 0.90752 0.55033 0.19315 0.11907 1.3229 0.80963 1.5558 0.96573 0.66675 0.46567 1.0292 1.6669 0.90488 6.2045-0.08202 3.048-0.13758 4.5826-0.77788 5.0985-1.2356 1.0001-3.8788 0.037-6.477-2.204a3.8418 3.8418 0 0 1 -0.52917 -0.69056c-0.61383-1.0583-0.49742-2.1167-0.38894-3.9978 0.08731-1.5134 0.13229-2.2701 0.12965-2.8945 0-0.96838 0.04233-2.0241 0.12965-4.1354 0.02646-0.63236 0.04498-0.94986 0.26458-1.1033 0.41275-0.28575 1.27 0.26987 2.9845 1.3785z" fill="#5f388c" stroke-width=".26458"/>
<path class="cls-108" d="m40.903 48.321c0.0344 0.97631 0.07937 1.95 0.12965 2.9236 0.05027 0.97367 0.10848 1.9473 0.1614 2.9104l0.02117 0.36513v0.22225c0.01323 0.0714 0.01852 0.14816 0.03704 0.2196a6.9612 6.9612 0 0 0 0.26458 0.79375 6.6966 6.6966 0 0 0 0.65881 1.5452l0.20108 0.3175c0.06615 0.10318 0.12965 0.20902 0.19315 0.3122l0.39158 0.64559c0.26458 0.41804 0.50535 0.84137 0.74877 1.2647 0.29369 0.50535 1.0266 0.67733 1.6404 0.381 0.61383-0.29634 0.87577-0.94721 0.58473-1.4552-0.02117-0.0344-0.04762-0.0714-0.07144-0.10319-0.30162-0.39158-0.60325-0.79375-0.89429-1.1853l-0.44715-0.60854c-0.07408-0.0979-0.14552-0.19844-0.21696-0.29898l-0.20902-0.29369a3.773 3.773 0 0 1 -0.29104 -0.52917 3.9873 3.9873 0 0 1 -0.23019 -0.59796 4.3259 4.3259 0 0 1 -0.08202 -0.61912l-0.01323-0.14023v-0.14288l-0.01587-0.35454c-0.06615-0.97102-0.12171-1.9447-0.19844-2.9104-0.07673-0.96573-0.14552-1.942-0.23283-2.9104-0.04498-0.49742-0.55562-0.83608-1.1404-0.75406a1.0583 1.0583 0 0 0 -0.98954 1.0028z" fill="#c69c6d" stroke-width=".26458"/>
<path class="cls-108" d="m36.918 38.591s-1.7251 2.2119-0.6694 3.4396 2.5241 2.5321 3.2385 2.3257c0.71438-0.20638 3.4978-1.2832 2.7861-3.6089-0.71173-2.3257-3.8365-3.7994-5.3552-2.1564z" fill="#c69c6d" stroke-width=".26458"/>
<path class="cls-108" d="m40.223 44.031a3.646 3.646 0 0 0 -0.26458 1.2303 3.5798 3.5798 0 0 0 0.03704 0.67998l-1.9288-1.2409v-1.1033a5.4081 5.4081 0 0 0 0.55033 0.41539 5.5562 5.5562 0 0 0 0.50535 0.29369 4.3524 4.3524 0 0 0 0.69056 -0.13758c0.14552-0.0397 0.2831-0.0873 0.4101-0.13759z" fill="#c69c6d" stroke-width=".26458"/>
<path class="cls-66" d="m37.643 43.871" fill="#8c6239" stroke-width=".26458"/>
<path class="cls-67" d="m40.498 44.311" fill="#fff" stroke="#000" stroke-miterlimit="10" stroke-width=".13229px"/>
<path class="cls-67" d="m37.879 44.031" fill="#fff" stroke="#000" stroke-miterlimit="10" stroke-width=".13229px"/>
<path class="cls-110" d="m42.575 57.941s-1.3414 1.2885-4.3286-0.93398-3.3232-2.839-3.3232-2.839a30.028 30.028 0 0 1 0.4736 8.6148c-0.35983 3.8629-1.5425 7.9772-0.41275 8.5196a1.4817 1.4817 0 0 0 1.18 -0.0423 1.6034 1.6034 0 0 0 0.74877 -0.89429c0.19844-0.56357 0.4445-1.3229 0.69056-2.2066 0.02381-0.0873 0.45773-1.6748 0.68792-3.0321a25.135 25.135 0 0 0 0.13758 -6.4823 28.84 28.84 0 0 1 1.1033 4.9609c0.79375 6.0219-0.55562 10.636 0.96573 11.266 0.39423 0.16404 1.225 0.1614 1.5161-0.23283 0.12171-0.16405 0.15081-0.39952 0.20902-0.87313 0.02117-0.19314 0.02117-0.30162 0.06879-0.79375 0.01323-0.14287 0.02381-0.26458 0.03969-0.39687 0.15875-1.5214 0.58208-4.2122 0.64823-6.4982 0.07937-2.6776-0.26458-6.4532-0.26458-7.0485v-0.82815z" fill="#326666" stroke="#326666" stroke-miterlimit="10" stroke-width=".26458"/>
<path class="cls-111" d="m41.89 39.541c-0.19315 0.20637-0.90223 0.93398-1.614 1.0583a3.0083 3.0083 0 0 1 -0.78052 0.082c-0.4789 0-0.58738-0.11377-0.65881 0.17463l-0.10319 0.40216s-0.42862-0.0344-0.4789 0.13494a1.1298 1.1298 0 0 0 0.06085 0.67204c0.08467 0.13759 0.91017 0.44186 0.91017 0.44186l0.08731 1.5743a4.2333 4.2333 0 0 1 -2.241 -1.0795c-0.29898-0.28575-1.2965-1.2277-1.1774-2.3812a5.678 5.678 0 0 1 1.18 -2.3178c0.8599-0.84667 2.6829-1.0081 3.8603-0.10054a2.9104 2.9104 0 0 1 0.95515 1.3388z" fill="#b17700" stroke="#b17700" stroke-miterlimit="10" stroke-width=".13229px"/>
<path class="cls-70" d="m38.408 58.701" fill="#666" stroke="#666" stroke-miterlimit="10" stroke-width=".26458"/>
<path class="cls-112" d="m38.212 60.091c0-0.10848 0.21696-0.33338 0.26458-0.37042 0.04763-0.037 0.07408-0.0767 0.127-0.12435 0.05027 0.42333 0.08996 0.88371 0.10848 1.3732 0.02117 0.58208 0 1.1245-0.01852 1.6192a9.652 9.652 0 0 1 -0.01587 1.2462 11.806 11.806 0 0 1 -0.36512 1.95c-0.58473 2.45-0.75935 2.5135-0.9525 3.3946-0.24871 0.72495-0.52917 1.5319-0.59531 1.5134-0.06615-0.0185 0-0.14552 0-0.21696 0.15081-0.98425 0-1.1536 0.21431-1.8732 0.24871-0.86254 0.74348-2.0928 0.87312-3.0798 0.12965-0.98689 0.29898-2.8469 0.29898-2.8469v-1.9659c0-0.0847 0.01323-0.16139 0.02117-0.22754 0.0079-0.0661 0.03704-0.15346 0.04498-0.26458a0.48154 0.48154 0 0 0 0 -0.0661 0.36777 0.36777 0 0 0 -0.0053 -0.0609z" fill="#025366" stroke="#025366" stroke-miterlimit="10" stroke-width=".26458"/>
<path class="cls-113" d="m27.589 72.657c-2.7887 0.70379-6.0325 1.4975-5.2652 0.11112 0.76729-1.3864 3.3523-1.7674 4.8816-1.442 0.85196 0.18257 0.38365 1.3309 0.38365 1.3309z" fill="#ac8528" stroke-width=".26458"/>
<path class="cls-113" d="m21.657 69.257c-2.7861 0.70114-6.0325 1.4975-5.2626 0.11112 0.76994-1.3864 3.3496-1.7674 4.8816-1.4446 0.86519 0.1852 0.381 1.3335 0.381 1.3335z" fill="#ac8528" stroke-width=".26458"/>
<path class="cls-66" d="m16.305 41.807c-0.07937 1.0001-0.14288 1.9976-0.20373 2.9977s-0.11112 1.9976-0.16933 2.9977l-0.01852 0.3757v0.22755a2.1881 2.1881 0 0 0 0.01323 0.22754 7.4083 7.4083 0 0 0 0.16404 0.84137 6.9453 6.9453 0 0 0 0.49477 1.651l0.16933 0.34661c0.05556 0.11377 0.11112 0.22754 0.1614 0.34131l0.32279 0.68527c0.21431 0.45508 0.41804 0.91546 0.61912 1.3758 0.24077 0.55034 0.97102 0.79375 1.6325 0.57415 0.66146-0.21961 1.0001-0.86519 0.762-1.4155-0.01852-0.037-0.03969-0.0794-0.06085-0.11377-0.26458-0.43392-0.52917-0.87048-0.77788-1.3229l-0.37835-0.65881c-0.0635-0.11113-0.127-0.22225-0.18786-0.33338l-0.17727-0.32279a3.5031 3.5031 0 0 1 -0.24077 -0.56356 3.6671 3.6671 0 0 1 -0.16404 -0.635 4.019 4.019 0 0 1 -0.01323 -0.64029v-0.29369l0.01588-0.37306c0.04233-1.0001 0.0979-2.0002 0.13229-2.9977 0.0344-0.99748 0.07408-2.0002 0.09525-2.9977 0-0.51329-0.47096-0.91811-1.0769-0.90223a1.1007 1.1007 0 0 0 -1.1139 0.92869z" fill="#8c6239" stroke-width=".26458"/>
<path class="cls-65" d="m24.591 57.197-7.1834-4.1487z" fill="#d0dcdc" stroke="#999" stroke-miterlimit="10" stroke-width=".26458"/>
<path class="cls-114" d="m20.58 42.397c0.26458 0.17462 0.68262 0.44714 1.3229 0.84931 0.36512 0.2249 0.52917 0.32015 0.93133 0.56621 0.19844 0.12171 1.3679 0.83079 1.5875 0.98954 0.68792 0.4789 1.0583 1.7118 0.93398 6.3712-0.08731 3.1327-0.14288 4.7069-0.79375 5.2388-1.27 1.0239-3.9846 0.037-6.6543-2.2648a4.0878 4.0878 0 0 1 -0.52917 -0.70908c-0.62971-1.0795-0.51065-2.1643-0.39952-4.1037 0.08996-1.5558 0.13494-2.3336 0.13494-2.9739 0-0.99484 0.04233-2.0796 0.13229-4.2466 0.02646-0.65087 0.04498-0.97631 0.26458-1.1324 0.42598-0.29369 1.307 0.27516 3.0692 1.4155z" fill="#f395ff" stroke-width=".26458"/>
<path class="cls-66" d="m22.443 46.057c0.14023 0.99218 0.29369 1.9817 0.44979 2.9713 0.1561 0.98954 0.32544 1.9764 0.48683 2.9633l0.06085 0.37042 0.01852 0.10583 0.02381 0.11642c0.02117 0.0741 0.03704 0.15081 0.06086 0.2196a6.8924 6.8924 0 0 0 0.34396 0.79375 6.9929 6.9929 0 0 0 0.84138 1.5055l0.24077 0.30162 0.23283 0.29898 0.46038 0.59796c0.30956 0.39688 0.60854 0.79375 0.90488 1.2092 0.3519 0.48419 1.1218 0.57679 1.7171 0.20902 0.59531-0.36777 0.79375-1.0583 0.43656-1.5478a1.0028 1.0028 0 0 0 -0.08202 -0.0979q-0.52917-0.55033-1.0583-1.1139l-0.51329-0.56091c-0.08467-0.0926-0.17198-0.18786-0.26458-0.28311l-0.24606-0.27781a3.892 3.892 0 0 1 -0.35454 -0.49742 2.7675 2.7675 0 0 1 -0.44979 -1.2065l-0.0291-0.14287-0.02646-0.14552-0.06615-0.37042c-0.17462-0.98425-0.33602-1.9711-0.52917-2.9528-0.19314-0.9816-0.35983-1.9685-0.55562-2.9475-0.10054-0.50535-0.65617-0.79375-1.2462-0.64558a1.1007 1.1007 0 0 0 -0.85725 1.1271z" fill="#8c6239" stroke-width=".26458"/>
<path class="cls-66" d="m18.958 35.827s-1.7727 2.2728-0.69056 3.5269c1.0821 1.2541 2.5929 2.6009 3.3258 2.3812 0.7329-0.2196 3.593-1.3229 2.8628-3.7042s-3.9396-3.9026-5.498-2.204z" fill="#8c6239" stroke-width=".26458"/>
<path class="cls-66" d="m22.35 41.397a5.6197 5.6197 0 0 0 -0.26458 1.2647 4.9795 4.9795 0 0 0 -0.02381 0.58208l-1.8283-1.1377c-0.04763-0.2831-0.0926-0.56621-0.14023-0.84931a2.7596 2.7596 0 0 0 1.1324 0.42333 4.6381 4.6381 0 0 0 0.70908 -0.14023c0.14552-0.045 0.28575-0.0926 0.4154-0.14287z" fill="#8c6239" stroke-width=".26458"/>
<path class="cls-67" d="m19.943 41.397" fill="#fff" stroke="#000" stroke-miterlimit="10" stroke-width=".13229px"/>
<path class="cls-53" d="m23.356 35.317a2.8099 2.8099 0 0 0 -0.56621 -0.42598 3.175 3.175 0 0 0 -0.70908 -0.28311 4.3471 4.3471 0 0 0 -0.70908 -0.14023c-0.60325-0.0767-1.0028-0.127-1.4155 0a2.1749 2.1749 0 0 0 -0.98954 0.70644 4.2651 4.2651 0 0 0 -0.85196 1.5584 6.6675 6.6675 0 0 0 -0.42333 1.5584c-0.1905 1.4526 0.23283 2.1378 0.42333 3.8232a11.935 11.935 0 0 1 0 2.6908c1.6113 1.5875 2.1484 1.9394 2.2675 1.8521 0.11906-0.0873-0.36777-0.77259-0.14288-1.5584a1.7145 1.7145 0 0 1 0.42598 -0.70908l0.84931-0.98954v-2.1167c0.04762-0.5715 0.09525-1.1404 0.14023-1.7118-0.65088-0.18257-1.0319-0.55827-0.98954-0.84932a0.55562 0.55562 0 0 1 0.56621 -0.42598c0.17992 0.0503 0.2249 0.29634 0.2831 0.28311 0.12965-0.0265-0.26458-1.1456 0.14023-1.5452 0.3466-0.33337 1.3494-0.12435 1.9844 0 0.20902 0.0423 0.34131 0.0767 0.42333 0 0.22754-0.24077-0.15875-1.1668-0.70644-1.7171z" fill="#42210b" stroke="#42210b" stroke-miterlimit="10" stroke-width=".13229px"/>
<path class="cls-115" d="m24.769 55.687s-1.3811 1.3229-4.4476-0.96043c-3.0665-2.2834-3.4131-2.9104-3.4131-2.9104a30.75 30.75 0 0 1 0.48683 8.845c-0.37042 3.9688-1.5875 8.2021-0.42333 8.7524a1.5293 1.5293 0 0 0 1.2091 -0.0423 1.6536 1.6536 0 0 0 0.77258 -0.92075c0.20108-0.57943 0.45508-1.3494 0.70644-2.2648 0.02646-0.09 0.47096-1.7224 0.70908-3.1168a25.884 25.884 0 0 0 0.14023 -6.6543 29.353 29.353 0 0 1 1.1324 5.0985c0.81227 6.1833-0.5715 10.922 0.99219 11.568 0.40481 0.16669 1.2594 0.16669 1.5584-0.24077 0.12435-0.16669 0.15346-0.4101 0.21167-0.89429 0.02381-0.19844 0.02381-0.30956 0.07144-0.79375 0-0.14817 0.02646-0.26458 0.04233-0.40746 0.16404-1.561 0.59531-4.3259 0.66675-6.6728 0.07938-2.7517-0.2831-6.6146-0.2831-7.239v-0.85196c-0.04498-0.10848-0.08996-0.20108-0.13229-0.29369z" fill="#a1162e" stroke="#a1162e" stroke-miterlimit="10" stroke-width=".26458"/>
<path class="cls-116" d="m20.268 58.167c0-0.10847 0.21696-0.33337 0.26458-0.37306l0.12435-0.12171c0.05292 0.42334 0.0926 0.88107 0.10848 1.3706a15.481 15.481 0 0 1 -0.01852 1.6219 9.525 9.525 0 0 1 -0.01323 1.2435 11.771 11.771 0 0 1 -0.36512 1.9526c-0.58738 2.45-0.762 2.5135-0.9525 3.3946-0.24871 0.72496-0.52917 1.5319-0.59796 1.5134s0-0.14552 0-0.21696c0.15081-0.9869 0-1.1536 0.21431-1.8732 0.24871-0.86254 0.74083-2.0928 0.87312-3.0798 0.13229-0.9869 0.29633-2.8469 0.29633-2.8469v-1.9685c0-0.0873 0-0.16139 0.02117-0.23018a2.413 2.413 0 0 0 0.04233 -0.26459v-0.0661z" fill="#72162e" stroke="#72162e" stroke-miterlimit="10" stroke-width=".26458"/>
<polygon class="cls-177" transform="matrix(.26458 0 0 .26458 -353.02 -209.75)" points="1496.8 896.49 1497.7 898.23 1469.3 912.16 1469 911.57 1469 910.09" fill="#00fe00" style="isolation:isolate"/>
<polygon class="cls-178" transform="matrix(.26458 0 0 .26458 -353.02 -209.75)" points="1496.8 896.49 1469 910.09 1469.6 909.68 1497.5 896.08" fill="#008000" style="isolation:isolate"/>
<polygon class="cls-185" transform="matrix(.26458 0 0 .26458 -353.02 -209.75)" points="1502 894.97 1495 893.25 1495.7 892.84 1502.7 894.56" fill="#008100" style="isolation:isolate"/>
<polygon class="cls-175" transform="matrix(.26458 0 0 .26458 -353.02 -209.75)" points="1499.4 901.37 1502 894.97 1502.7 894.56 1500.1 900.96" fill="#008500" style="isolation:isolate"/>
<polygon class="cls-203" transform="matrix(.26458 0 0 .26458 -353.02 -209.75)" points="1497.2 887.03 1468.6 844.55 1469.3 844.14 1498 886.62" fill="#008a00" style="isolation:isolate"/>
<polygon class="cls-177" transform="matrix(.26458 0 0 .26458 -353.02 -209.75)" points="1468.6 846.62 1468.6 844.55 1497.2 887.03 1496.4 887.89" fill="#00fe00" style="isolation:isolate"/>
<polygon class="cls-179" transform="matrix(.26458 0 0 .26458 -353.02 -209.75)" points="1501.8 894.54 1498.7 885.56 1499.4 885.15 1502.5 894.13" fill="#008b00" style="isolation:isolate"/>
<g class="cls-3" transform="matrix(.26458 0 0 .26458 -378.25 -214.62)" style="isolation:isolate">
<g class="cls-208" clip-path="url(#d)">
<g class="cls-3">
<path class="cls-169" d="m1503.4 876.92 0.71-0.41a3 3 0 0 1 3 0.29l-0.71 0.41a3 3 0 0 0 -3 -0.29"/>
</g>
</g>
</g>
<g class="cls-3" transform="matrix(.26458 0 0 .26458 -378.25 -214.62)" style="isolation:isolate">
<g class="cls-209" clip-path="url(#e)">
<g class="cls-3">
<path class="cls-169" d="m1563.8 945.81 0.7-0.41a3 3 0 0 1 -1.25 2.72l-0.7 0.41a3 3 0 0 0 1.25 -2.72"/>
</g>
</g>
</g>
<polygon class="cls-200" transform="matrix(.26458 0 0 .26458 -378.25 -214.62)" points="1564.5 945.39 1563.8 945.8 1563.9 915.29 1564.6 914.88" fill="#894e00" style="isolation:isolate"/>
<polygon class="cls-201" transform="matrix(.26458 0 0 .26458 -378.25 -214.62)" points="1560.4 907.54 1559.7 907.95 1506.4 877.21 1507.2 876.8" fill="#844c00" style="isolation:isolate"/>
<path class="cls-172" d="m34.415 25.627a2.4818 2.4818 0 0 1 1.1218 1.942l-0.02119 8.0751c0 0.71173-0.51064 1.0001-1.1298 0.64294l-14.086-8.1333a2.4844 2.4844 0 0 1 -1.1245 -1.9447l0.02381-8.0724c0-0.71173 0.51065-1.0001 1.1298-0.64294z" fill="#fe9100" stroke-width=".26458" style="isolation:isolate"/>
<g class="cls-3" transform="matrix(.26458 0 0 .26458 -378.25 -214.62)" style="isolation:isolate">
<g class="cls-210" clip-path="url(#f)">
<g class="cls-3">
<path class="cls-169" d="m1559.7 908 0.71-0.41a9.43 9.43 0 0 1 4.24 7.34l-0.71 0.41a9.38 9.38 0 0 0 -4.24 -7.34"/>
</g>
</g>
</g>
<g class="cls-3" transform="matrix(.26458 0 0 .26458 -378.07 -231.95)" style="isolation:isolate">
<g class="cls-209" clip-path="url(#e)">
<g class="cls-3">
<path class="cls-169" d="m1563.8 945.81 0.7-0.41a3 3 0 0 1 -1.25 2.72l-0.7 0.41a3 3 0 0 0 1.25 -2.72"/>
</g>
</g>
</g>
<polygon class="cls-200" transform="matrix(.26458 0 0 .26458 -378.07 -231.95)" points="1564.5 945.39 1563.8 945.8 1563.9 915.29 1564.6 914.88" fill="#894e00" style="isolation:isolate"/>
<polygon class="cls-201" transform="matrix(.26458 0 0 .26458 -378.07 -231.95)" points="1560.4 907.54 1559.7 907.95 1506.4 877.21 1507.2 876.8" fill="#844c00" style="isolation:isolate"/>
<path class="cls-172" d="m34.594 8.2866a2.4818 2.4818 0 0 1 1.1218 1.942l-0.02119 8.0751c0 0.71173-0.51065 1.0001-1.1298 0.64294l-14.086-8.1333a2.4844 2.4844 0 0 1 -1.1245 -1.9447l0.02381-8.0724c0-0.71173 0.51065-1.0001 1.1298-0.64293z" fill="#fe9100" stroke-width=".26458" style="isolation:isolate"/>
<g class="cls-3" transform="matrix(.26458 0 0 .26458 -378.07 -231.95)" style="isolation:isolate">
<g class="cls-210" clip-path="url(#f)">
<g class="cls-3">
<path class="cls-169" d="m1559.7 908 0.71-0.41a9.43 9.43 0 0 1 4.24 7.34l-0.71 0.41a9.38 9.38 0 0 0 -4.24 -7.34"/>
</g>
</g>
</g>
<path d="m44.384 27.047-0.67469 1.6933-1.1748-2.1484z" fill="#9f9" stroke-width=".26458"/>
<path d="m43.356 28.087c-0.62233-1.1383-0.70834-1.2956-0.76269-1.3945-0.0293-0.0534-0.053-0.0974-0.0525-0.098 0 0 0.41431 0.1008 0.91972 0.22516 0.86018 0.21158 0.91887 0.22656 0.91736 0.23383-3e-3 7e-3 -0.66567 1.6754-0.66797 1.6777 0 0-0.15983-0.28932-0.35388-0.64423z" fill="#00fe00" stroke-width=".0038817"/>
<path d="m43.503 24.547c0.0486-0.0367 0.82997 2.3734 0.82846 2.3807-3e-3 7e-3 -1.1771-0.83545-2.0213-1.4061 0 0 1.0309-0.85233 1.1928-0.97462z" fill="#00fe00" stroke-width=".0038817"/>
<polygon class="cls-177" transform="matrix(.26458 0 0 .26458 -327.81 -205.26)" points="1469 911.57 1469 910.09 1496.8 896.49 1497.7 898.23 1469.3 912.16" fill="#00fe00" style="isolation:isolate"/>
<polygon class="cls-178" transform="matrix(.26458 0 0 .26458 -327.81 -205.26)" points="1496.8 896.49 1469 910.09 1469.6 909.68 1497.5 896.08" fill="#008000" style="isolation:isolate"/>
<polygon class="cls-185" transform="matrix(.26458 0 0 .26458 -327.81 -205.26)" points="1502 894.97 1495 893.25 1495.7 892.84 1502.7 894.56" fill="#008100" style="isolation:isolate"/>
<polygon class="cls-175" transform="matrix(.26458 0 0 .26458 -327.81 -205.26)" points="1499.4 901.37 1502 894.97 1502.7 894.56 1500.1 900.96" fill="#008500" style="isolation:isolate"/>
<polygon class="cls-203" transform="matrix(.26458 0 0 .26458 -327.81 -205.26)" points="1497.2 887.03 1468.6 844.55 1469.3 844.14 1498 886.62" fill="#008a00" style="isolation:isolate"/>
<polygon class="cls-177" transform="matrix(.26458 0 0 .26458 -327.81 -205.26)" points="1468.6 846.62 1468.6 844.55 1497.2 887.03 1496.4 887.89" fill="#00fe00" style="isolation:isolate"/>
<polygon class="cls-179" transform="matrix(.26458 0 0 .26458 -327.81 -205.26)" points="1501.8 894.54 1498.7 885.56 1499.4 885.15 1502.5 894.13" fill="#008b00" style="isolation:isolate"/>
<g class="cls-3" transform="matrix(.26458 0 0 .26458 -327.81 -205.26)" style="isolation:isolate">
<g class="cls-208" clip-path="url(#d)">
<g class="cls-3">
<path class="cls-169" d="m1503.4 876.92 0.71-0.41a3 3 0 0 1 3 0.29l-0.71 0.41a3 3 0 0 0 -3 -0.29"/>
</g>
</g>
</g>
<polygon class="cls-201" transform="matrix(.26458 0 0 .26458 -327.81 -205.26)" points="1559.7 907.95 1506.4 877.21 1507.2 876.8 1560.4 907.54" fill="#844c00" style="isolation:isolate"/>
<path class="cls-172" d="m84.862 34.987a2.4818 2.4818 0 0 1 1.1218 1.942l-0.0212 8.0751c0 0.71173-0.51065 1.0001-1.1298 0.64294l-14.086-8.1333a2.4844 2.4844 0 0 1 -1.1245 -1.9447l0.0238-8.0724c0-0.71173 0.51064-1.0001 1.1298-0.64293z" fill="#fe9100" stroke-width=".26458" style="isolation:isolate"/>
<g class="cls-3" transform="matrix(.26458 0 0 .26458 -353.04 -210.12)" style="isolation:isolate">
<g class="cls-208" clip-path="url(#d)">
<g class="cls-3">
<path class="cls-169" d="m1503.4 876.92 0.71-0.41a3 3 0 0 1 3 0.29l-0.71 0.41a3 3 0 0 0 -3 -0.29"/>
</g>
</g>
</g>
<g class="cls-3" transform="matrix(.26458 0 0 .26458 -353.04 -210.12)" style="isolation:isolate">
<g class="cls-209" clip-path="url(#e)">
<g class="cls-3">
<path class="cls-169" d="m1563.8 945.81 0.7-0.41a3 3 0 0 1 -1.25 2.72l-0.7 0.41a3 3 0 0 0 1.25 -2.72"/>
</g>
</g>
</g>
<polygon class="cls-200" transform="matrix(.26458 0 0 .26458 -353.04 -210.12)" points="1564.5 945.39 1563.8 945.8 1563.9 915.29 1564.6 914.88" fill="#894e00" style="isolation:isolate"/>
<polygon class="cls-201" transform="matrix(.26458 0 0 .26458 -353.04 -210.12)" points="1560.4 907.54 1559.7 907.95 1506.4 877.21 1507.2 876.8" fill="#844c00" style="isolation:isolate"/>
<path class="cls-172" d="m59.622 30.117a2.4818 2.4818 0 0 1 1.1218 1.942l-0.0212 8.0751c0 0.71173-0.51064 1.0001-1.1298 0.64294l-14.086-8.1333a2.4844 2.4844 0 0 1 -1.1245 -1.9447l0.02381-8.0724c0-0.71173 0.51065-1.0001 1.1298-0.64294z" fill="#fe9100" stroke-width=".26458" style="isolation:isolate"/>
<g class="cls-3" transform="matrix(.26458 0 0 .26458 -353.04 -210.12)" style="isolation:isolate">
<g class="cls-210" clip-path="url(#f)">
<g class="cls-3">
<path class="cls-169" d="m1559.7 908 0.71-0.41a9.43 9.43 0 0 1 4.24 7.34l-0.71 0.41a9.38 9.38 0 0 0 -4.24 -7.34"/>
</g>
</g>
</g>
<g class="cls-3" transform="matrix(.26458 0 0 .26458 -352.86 -227.45)" style="isolation:isolate">
<g class="cls-208" clip-path="url(#d)">
<g class="cls-3">
<path class="cls-169" d="m1503.4 876.92 0.71-0.41a3 3 0 0 1 3 0.29l-0.71 0.41a3 3 0 0 0 -3 -0.29"/>
</g>
</g>
</g>
<g class="cls-3" transform="matrix(.26458 0 0 .26458 -352.86 -227.45)" style="isolation:isolate">
<g class="cls-209" clip-path="url(#e)">
<g class="cls-3">
<path class="cls-169" d="m1563.8 945.81 0.7-0.41a3 3 0 0 1 -1.25 2.72l-0.7 0.41a3 3 0 0 0 1.25 -2.72"/>
</g>
</g>
</g>
<polygon class="cls-200" transform="matrix(.26458 0 0 .26458 -352.86 -227.45)" points="1564.5 945.39 1563.8 945.8 1563.9 915.29 1564.6 914.88" fill="#894e00" style="isolation:isolate"/>
<polygon class="cls-201" transform="matrix(.26458 0 0 .26458 -352.86 -227.45)" points="1560.4 907.54 1559.7 907.95 1506.4 877.21 1507.2 876.8" fill="#844c00" style="isolation:isolate"/>
<path class="cls-172" d="m59.802 12.787a2.4818 2.4818 0 0 1 1.1218 1.942l-0.0212 8.0751c0 0.71173-0.51065 1.0001-1.1298 0.64294l-14.086-8.1333a2.4844 2.4844 0 0 1 -1.1245 -1.9447l0.02381-8.0724c0-0.71173 0.51065-1.0001 1.1298-0.64294z" fill="#fe9100" stroke-width=".26458" style="isolation:isolate"/>
<g class="cls-3" transform="matrix(.26458 0 0 .26458 -352.86 -227.45)" style="isolation:isolate">
<g class="cls-210" clip-path="url(#f)">
<g class="cls-3">
<path class="cls-169" d="m1559.7 908 0.71-0.41a9.43 9.43 0 0 1 4.24 7.34l-0.71 0.41a9.38 9.38 0 0 0 -4.24 -7.34"/>
</g>
</g>
</g>
<path d="m69.592 31.537-0.67469 1.6933-1.1748-2.1484z" fill="#9f9" stroke-width=".26458"/>
<path d="m68.562 32.577c-0.62233-1.1383-0.70834-1.2956-0.76269-1.3945-0.0293-0.0534-0.053-0.0974-0.0525-0.098 0 0 0.41431 0.1008 0.91972 0.22516 0.86018 0.21158 0.91887 0.22656 0.91736 0.23383-3e-3 7e-3 -0.66567 1.6754-0.66797 1.6777 0 0-0.15983-0.28932-0.35388-0.64423z" fill="#00fe00" stroke-width=".0038817"/>
<path d="m68.712 29.037c0.0486-0.0367 0.82997 2.3734 0.82846 2.3807-3e-3 7e-3 -1.1771-0.83545-2.0213-1.4061 0 0 1.0308-0.85233 1.1928-0.97462z" fill="#00fe00" stroke-width=".0038817"/>
</svg>
