<svg xmlns="http://www.w3.org/2000/svg" xmlns:xlink="http://www.w3.org/1999/xlink" viewBox="0 0 411.13 353.76"><defs><style>.cls-1,.cls-12,.cls-16,.cls-17,.cls-2,.cls-20,.cls-26,.cls-29,.cls-3,.cls-30,.cls-34,.cls-35,.cls-4,.cls-9{fill:none;}.cls-2{stroke:#f6eeca;stroke-width:1.95px;stroke-dasharray:8.76 8.76;}.cls-14,.cls-2,.cls-20,.cls-35,.cls-9{stroke-linecap:round;}.cls-12,.cls-14,.cls-16,.cls-17,.cls-2,.cls-20,.cls-26,.cls-29,.cls-3,.cls-30,.cls-34,.cls-35,.cls-4,.cls-9{stroke-miterlimit:10;}.cls-3{stroke:#f4706b;stroke-width:0.97px;}.cls-4{stroke:#029d41;stroke-width:1.45px;}.cls-5{fill:#029d41;}.cls-6{fill:#ff9c1a;}.cls-14,.cls-7{fill:#fec2a0;}.cls-8{fill:#303134;}.cls-20,.cls-9{stroke:#303134;}.cls-9{stroke-width:0.63px;}.cls-10{fill:#f99979;}.cls-11{fill:#4f6ddb;}.cls-12{stroke:#f99055;stroke-width:0.56px;}.cls-13{fill:#eb6c18;}.cls-14{stroke:#f99979;stroke-width:1.01px;}.cls-15{clip-path:url(#clip-path);}.cls-16{stroke:#4762c4;stroke-width:0.9px;}.cls-17{stroke:#eb6c18;stroke-width:1.82px;}.cls-18{fill:#7794ff;}.cls-19{fill:#d1d1d1;}.cls-20{stroke-width:0.55px;}.cls-21{fill:#f0f0f0;}.cls-22{fill:#f66a31;}.cls-23{fill:#494a4f;}.cls-24{fill:#794300;}.cls-25{fill:#232426;}.cls-26{stroke:#232426;}.cls-26,.cls-29{stroke-width:1.4px;}.cls-27{fill:#452600;}.cls-28{fill:#3d54a8;}.cls-29{stroke:#f66a31;}.cls-30{stroke:#c45527;stroke-width:0.93px;}.cls-31{fill:#fe3737;}.cls-32{fill:#d12d2d;}.cls-33{fill:#fdc383;}.cls-34{stroke:#1f1f1f;stroke-width:1.31px;}.cls-35{stroke:#3d54a8;stroke-width:1.91px;}</style><clipPath id="clip-path" transform="translate(-6.15 -25.3)"><path class="cls-1" d="M360.92,39.2c-4.6-8.44-20.22-7.86-26.86-8.16-7.81-.35-14.6-3.79-14.6,4.79A45.18,45.18,0,0,0,322.8,52a20.62,20.62,0,0,1,1.66-8.65c.42-1.25,2.53.93,6.14,1.08s7.92-.24,8.06.46l2.94,10.23a4,4,0,0,0,3.18,2.85h0s-.14-8.49,6.26-8.21,6,10.72-1.25,12.8a38.4,38.4,0,0,0,2.78,7.65S365.53,47.64,360.92,39.2Z"/></clipPath></defs><title>Learning _Through_Teaching</title><g id="Слой_3" data-name="Слой 3"><rect class="cls-2" x="110.11" y="0.97" width="194.96" height="139.9" rx="12.47" ry="12.47"/><rect class="cls-3" x="186.49" y="12.49" width="40.21" height="30.27" rx="1.43" ry="1.43"/><rect class="cls-3" x="186.49" y="78.14" width="40.21" height="30.27" rx="1.43" ry="1.43"/><rect class="cls-3" x="252.42" y="46.48" width="40.21" height="30.27" rx="1.43" ry="1.43"/><rect class="cls-3" x="122.56" y="13.1" width="40.21" height="30.27" rx="1.43" ry="1.43"/><line class="cls-4" x1="164.58" y1="27.62" x2="181.65" y2="27.62"/><polygon class="cls-5" points="180.1 27.62 180.1 24.47 182.82 26.05 185.55 27.62 182.82 29.2 180.1 30.77 180.1 27.62"/><rect class="cls-3" x="122.56" y="56.09" width="40.21" height="30.27" rx="1.43" ry="1.43"/><line class="cls-4" x1="164.58" y1="71.23" x2="182.82" y2="81.7"/><polygon class="cls-5" points="180.14 80.21 181.64 77.44 183.29 80.12 184.94 82.8 181.79 82.89 178.65 82.98 180.14 80.21"/><line class="cls-4" x1="163.88" y1="115.83" x2="182.44" y2="105.94"/><polygon class="cls-5" points="179.72 107.35 181.12 110.16 182.86 107.54 184.6 104.91 181.45 104.72 178.31 104.53 179.72 107.35"/><line class="cls-4" x1="230.04" y1="38.58" x2="248.28" y2="49.06"/><polygon class="cls-5" points="245.6 47.56 247.09 44.79 248.75 47.47 250.4 50.15 247.25 50.24 244.1 50.34 245.6 47.56"/><line class="cls-4" x1="229.34" y1="83.19" x2="247.9" y2="73.29"/><polygon class="cls-5" points="245.17 74.7 246.58 77.52 248.32 74.89 250.05 72.26 246.91 72.08 243.77 71.89 245.17 74.7"/><rect class="cls-3" x="122.56" y="99.09" width="40.21" height="30.27" rx="1.43" ry="1.43"/><path class="cls-6" d="M313,155.36l0,.33a10.27,10.27,0,0,0,8.14,11.61c9.35,1.87,24,4.75,36.85,7,20.85,3.73,21.35-10.71,23-21.75,3.76-9,13.05-29.85,13.57-39.21.51-9.16-.11-17.6-8.32-20.52-5.57-1.95-26.67-11.85-29-15.19l-8.07,13.08a5.3,5.3,0,0,1-9.19-.42c-1.81-3.48-3.9-7.1-5.57-8.77a.3.3,0,0,1-.28.28c-3.2,4.31-28.51,14.59-30.45,21.27C302.22,108,297.88,134.37,313,155.36Z" transform="translate(-6.15 -25.3)"/><path class="cls-7" d="M334.9,74.06c.7,1.81,2.23,3.76-.56,7.79a48.93,48.93,0,0,1,5.71,9,5.16,5.16,0,0,0,8.91.42l10.3-11.55A25,25,0,0,1,355.91,76a45.85,45.85,0,0,1-6-13.36c3.2-.84,6.4-3.2,7-5.85.7-3.2-1-8.35-4.59-8.63-6.4-.28-7.79.28-9.6-7.38s-19.9,1.11-19.9,1.11-.56,8.35.14,10.58a10.79,10.79,0,0,1,.7,4.18,49.29,49.29,0,0,1-.28,6.54C322.93,66.68,326.82,75.87,334.9,74.06Z" transform="translate(-6.15 -25.3)"/><ellipse class="cls-8" cx="327.91" cy="31.09" rx="1.11" ry="2.23"/><ellipse class="cls-8" cx="318.86" cy="30.81" rx="0.97" ry="2.09"/><path class="cls-9" d="M327.38,59.31c-1.67,1.53-1.67,5.15,1.25,3.76" transform="translate(-6.15 -25.3)"/><path class="cls-10" d="M334.9,74.06s3.76-1.25,4.87-4.31c0,4.31-3.9,7-3.9,7Z" transform="translate(-6.15 -25.3)"/><path class="cls-11" d="M360.92,39.2c-4.6-8.44-20.22-7.86-26.86-8.16-7.81-.35-14.6-3.79-14.6,4.79A45.18,45.18,0,0,0,322.8,52a20.62,20.62,0,0,1,1.66-8.65c.42-1.25,2.53.93,6.14,1.08s7.92-.24,8.06.46l2.94,10.23a4,4,0,0,0,3.18,2.85h0s-.14-8.49,6.26-8.21,6,10.72-1.25,12.8a38.4,38.4,0,0,0,2.78,7.65S365.53,47.64,360.92,39.2Z" transform="translate(-6.15 -25.3)"/><path class="cls-9" d="M327.44,68.08s3.55,1.67,5.3-1.69" transform="translate(-6.15 -25.3)"/><path class="cls-9" d="M331.76,52s2.61-1.75,4.8-.29" transform="translate(-6.15 -25.3)"/><path class="cls-9" d="M326.11,51.52a2.34,2.34,0,0,0-2.48-.44" transform="translate(-6.15 -25.3)"/><path class="cls-7" d="M312.93,140.36c-2-5.16-21.63-38.37-21.61-41.29s-3.32-6.43-7-10.09-5.66-4.28-8.24-6.89-3.21-1.91-3.51-.51,1.05,3.17,2.38,4.32,3.79,2.8,3.82,3.42-2,1.37-5.33-.52-4.54-3.38-5.82-6-2.26-5-3.88-4.66-.51,1.81-.51,1.81-1.07-.25-.52,1.39a34.19,34.19,0,0,1,1.32,4.76c.41,2,.21,2.65.69,3.5S268,94.14,269,95.32s3.3,3.17,4.18,4.19a15.63,15.63,0,0,0,4.44,2.84c1.48.69,5.54,1,6.21,2.59.45,1.09,10.66,50,18.65,53a9.42,9.42,0,0,0,6,.52C314,157.22,316.76,150.36,312.93,140.36Z" transform="translate(-6.15 -25.3)"/><path class="cls-12" d="M263.25,79.94a3.06,3.06,0,0,1,2.73,1.6,5.94,5.94,0,0,1,.8,2.82" transform="translate(-6.15 -25.3)"/><path class="cls-12" d="M270.6,96.43c.06-.13-2.9-5.12-3.85-7.65s-2-3.33-.68-4.27,3,2.22,3.6,3.52,1.35,3.69,2.59,4.73,2,1.77,2,1.77" transform="translate(-6.15 -25.3)"/><path class="cls-12" d="M281.32,95.87c.43.09,3.77-1.06,6.45,2.24" transform="translate(-6.15 -25.3)"/><polygon class="cls-13" points="372.24 120 371.74 97.6 373.92 102.16 376.37 113.78 372.24 120"/><path class="cls-7" d="M415.4,67.09c.24-1.53,0-3-1.2-3.32s-2.52-.86-2.39-2.72c0-.31,0-.73.07-1.2A26.8,26.8,0,0,1,414.64,49c1.59-3.19.43-4.78-1.28-3.8-1.24.9-2.9,2.52-4.25,7.16A56.15,56.15,0,0,0,407.69,59a7.3,7.3,0,0,1-.65,2.57c-.55.54-1.12.14-2.8,1.91s-6.59,6.16-6.71,6.93a1.71,1.71,0,0,0,2.53,1.8c-2,1.72-2.74,2.54-1.54,3.83a2.06,2.06,0,0,0,2.82,0s.7,1.52,1.27,2.86a10.31,10.31,0,0,1,1.21,4.26c.07,1.57-1.21,5.75-2.53,8.21-.85,1.65-22.08,50-22.08,50-2.23,5.46-1.59,14.94,3.76,17.43,4.35,2,11.34,1.64,14.68-2.6C408.84,141.88,416,82,416.29,79.43,416.84,73.89,418.63,67.44,415.4,67.09Z" transform="translate(-6.15 -25.3)"/><path class="cls-7" d="M400.47,67.57s-2.54-4.78-.64-5.89,3.58,2.12,3.84,2.48Z" transform="translate(-6.15 -25.3)"/><polyline class="cls-14" points="394.43 46.52 400.12 41.15 405.55 40.44"/><path class="cls-14" d="M401.21,75.82s6.07-5.78,6.7-5.83,4.67-.83,4.67-.83" transform="translate(-6.15 -25.3)"/><path class="cls-10" d="M403.4,80.86s5.16,3,7.61,3.38A7.18,7.18,0,0,1,404,83Z" transform="translate(-6.15 -25.3)"/><path class="cls-14" d="M403.25,75.83s3.76-3,5.59-2.72a10.45,10.45,0,0,0,3.5-.39" transform="translate(-6.15 -25.3)"/><g class="cls-15"><path class="cls-16" d="M331.76,45s-7.05-10.4,1.43-14.71" transform="translate(-6.15 -25.3)"/><path class="cls-16" d="M358,33.84s-16.33-1.05-19.64,14.22" transform="translate(-6.15 -25.3)"/><path class="cls-16" d="M362.88,38.13S345.72,44.9,339.77,52" transform="translate(-6.15 -25.3)"/><path class="cls-16" d="M328.71,44.78s-9.24-8.3-.66-15.15" transform="translate(-6.15 -25.3)"/></g><path class="cls-17" d="M362.45,82.15s-9,15.72-17,16" transform="translate(-6.15 -25.3)"/><path class="cls-18" d="M103.84,113.82h0c1,14.55,2,30.81-4.62,38s-18.44,3.63-18.44,3.63L79.87,157a5.31,5.31,0,0,1-5.12,2.84c-9-1.1-35-8.52-35-8.52s-19.31,4-23.48-7.07c-3-8,.84-11.55,3.18-15,3-4.27,2.22-15.39,3.41-23.51s3.73-13.5,11-15.76c4.94-1.5,19.94-7.59,22.13-10.42l6.59,11.73a4.64,4.64,0,0,0,8,0c1.71-3,3.66-6.07,5.19-7.47a.26.26,0,0,0,.23.25c2.64,3.89,24.82,16.14,26.28,22.06A56.12,56.12,0,0,1,103.84,113.82Z" transform="translate(-6.15 -25.3)"/><path class="cls-7" d="M75.61,77.18c-.67,1.56-2.08,3.21.21,6.84a42.82,42.82,0,0,0-5.32,7.71,4.52,4.52,0,0,1-7.8,0L54.1,81.29a21.84,21.84,0,0,0,3.06-3.17,40.14,40.14,0,0,0,5.72-11.47c-2.77-.85-5.48-3-5.87-5.36-.49-2.82,1.15-7.27,4.33-7.38,5.61,0,6.81.52,8.66-6.1S87.36,49.5,87.36,49.5s.19,7.32-.5,9.25a9.44,9.44,0,0,0-.76,3.63,43.14,43.14,0,0,0,0,5.73C86.34,71.16,82.6,79,75.61,77.18Z" transform="translate(-6.15 -25.3)"/><path class="cls-19" d="M74.69,58c2.85-1.1,4-.32,4-.32l.3-1.45a.68.68,0,0,0-.58-.76,13.64,13.64,0,0,0-3.54.22C74,56.14,74.69,58,74.69,58Z" transform="translate(-6.15 -25.3)"/><path class="cls-19" d="M87.23,57.08c-1.09-.17-2.79,1.07-2.79,1.07l-.05-1.71a.92.92,0,0,1,.64-.83L87.15,55l.08,1.84Z" transform="translate(-6.15 -25.3)"/><ellipse class="cls-8" cx="76.98" cy="61.75" rx="1.95" ry="0.97" transform="translate(5.95 110.81) rotate(-87.63)"/><ellipse class="cls-8" cx="84.9" cy="61.83" rx="1.83" ry="0.85" transform="translate(13.46 118.81) rotate(-87.63)"/><path class="cls-20" d="M82.71,64.54c1.41,1.4,1.27,4.56-1.23,3.24" transform="translate(-6.15 -25.3)"/><path class="cls-10" d="M75.61,77.18s-3.24-1.23-4.1-3.95c-.16,3.77,3.16,6.23,3.16,6.23Z" transform="translate(-6.15 -25.3)"/><path class="cls-19" d="M47.68,53.71c3.69-15.45,21.64-18.78,29.43-18.78s14.25,3.39,12.2,14.53a70.86,70.86,0,0,1-2.46,9.29c.69-1.92-.36-6.11-1-8.09-.32-1.11-4.73,2.93-11.31-.59a1.94,1.94,0,0,0-1.16,1.42L71.84,62.15l-4.29.55s.43-7.42-5.18-7.41-5.62,9.16.63,11.24a33.61,33.61,0,0,1-2.71,6.59S51.78,54.73,47.68,53.71Z" transform="translate(-6.15 -25.3)"/><polygon class="cls-19" points="68.86 57.22 60.12 62.22 73.52 70.64 69.9 58.73 68.86 57.22"/><polygon class="cls-19" points="49.47 54.59 60.12 62.22 45.39 68.73 47.57 56.22 49.47 54.59"/><path class="cls-21" d="M56.63,91.78l8.25,42.06,10-40.93-8.58-5.39Z" transform="translate(-6.15 -25.3)"/><polygon class="cls-22" points="64.18 64.77 61.96 68.76 57.66 68.58 55.85 64.11 60.12 62.22 64.18 64.77"/><path class="cls-22" d="M61.58,117l3.3,16.83,4-16.53-.8-23.26-4.29-.18Z" transform="translate(-6.15 -25.3)"/><path class="cls-23" d="M5.41,115H112.77a5.41,5.41,0,0,1,5.41,5.41v7.18a0,0,0,0,1,0,0H0a0,0,0,0,1,0,0v-7.18A5.41,5.41,0,0,1,5.41,115Z"/><rect class="cls-23" x="10.67" y="127.24" width="96.85" height="12.59"/><path class="cls-23" d="M22.93,164.81l2.61,39.25a7.8,7.8,0,0,0,7.63,7.44H99.61a5.82,5.82,0,0,0,5.69-5.46l3.43-41.24Z" transform="translate(-6.15 -25.3)"/><path class="cls-20" d="M77.74,71.71s.8,2.21,3.86,1.41" transform="translate(-6.15 -25.3)"/><path class="cls-7" d="M24.07,140.32s1.55-6.61,4.13-5.14,2.93-1.2,4.54-.24c2.78,1.65,3.23-.48,4.95.62s3.07,3.84,4.91,3.23,4.54-.63,4.78,1.53C41.12,140.39,24.07,140.32,24.07,140.32Z" transform="translate(-6.15 -25.3)"/><path class="cls-24" d="M224.43,299.24a39.9,39.9,0,0,0,.28,14.4c3,15.32-12.6,29.72-.12,46.35a45.1,45.1,0,0,0,3.23,3.84C234.37,340,254.69,307.16,224.43,299.24Z" transform="translate(-6.15 -25.3)"/><path class="cls-24" d="M302,315.38c-1.13-7.15.48-12.86.84-17.64-7.9.77-13.44,4.49-14.21,13-1.88,20-3.3,41.81,1.45,61.57,7.17-3.38,12.95-7.95,16.15-13.05C312.44,349.32,304.44,331,302,315.38Z" transform="translate(-6.15 -25.3)"/><path class="cls-5" d="M291,306.79a95.59,95.59,0,0,1,14.78-2.7c.37-4.85-3.46-15.07-9.82-18.48-8.47-4.55-15.5-5-24-5.51h0c-2.07-.18-11.33-.48-17.73-.36s-20.75,4-24,6.36c-1.86,1.33-7.46,7.13-8.7,14.34,5.59,1.46,14.45,5.69,14.45,5.69s-3.29,38.26-8.63,57.7c16.91,18,49.37,17.13,67.76,8.46C290.21,352.54,291,306.79,291,306.79Z" transform="translate(-6.15 -25.3)"/><path class="cls-23" d="M233.64,318.5h59.8a5.43,5.43,0,0,1,5.39,4.76l4.89,39.59a14.44,14.44,0,0,1-14.33,16.21H238.85a14.44,14.44,0,0,1-14.38-15.8l3.77-39.84A5.43,5.43,0,0,1,233.64,318.5Z" transform="translate(-6.15 -25.3)"/><path class="cls-25" d="M282.38,290.12c-3.16.51-9.67-3.35-16-3.53-8.06-.23-11.81,3.67-15.8,3.12-11.59-1.62-9.47-59.78,16-59.78S292.6,288.47,282.38,290.12Z" transform="translate(-6.15 -25.3)"/><path class="cls-26" d="M268.86,230.92s17.31,2.7,20.66,22.86c1.35,8.14,1.85,19.33-4.86,33.68" transform="translate(-6.15 -25.3)"/><path class="cls-11" d="M209.83,272.44l-18.07-1.2,13.59,37.3s25.51-15.69,26-34c.14-5,3.17-39.25,2.74-48.06-2.82-.76-8.77,1.18-13,1.38a3.86,3.86,0,0,0-3.72,3.6C216.79,242.38,209.83,272.44,209.83,272.44Z" transform="translate(-6.15 -25.3)"/><path class="cls-24" d="M234.9,215.8c1-2,3.63-6.41,4.73-8.16a9.21,9.21,0,0,0,1.55-3.38,1.29,1.29,0,0,0-1.83-.88c-.74.35-2.9,3.94-2.9,3.94a31.69,31.69,0,0,0,1.67-4.1,25.18,25.18,0,0,0,.53-4.43c.14-1.44.2-1.92-.8-2.27a1.52,1.52,0,0,0-2,1.11s0-1.41,0-2.47.16-2.12-.39-2.66c.3-1.54-.63-2.59-2.07-2.1s-3.42,5.7-3.76,7.56-1.81,4.07-2.52,5.48-3.22,7.58-4,7.28.71-3.1,1.58-5,.3-4-.69-4.74-2.42-.26-2.66,1.65-2.87,5.38-3.6,9.6a18.5,18.5,0,0,0,1.59,10.24,14.9,14.9,0,0,1,.77,6.52,42.4,42.4,0,0,0,10.61,4.2c-.25-5.16-.42-9.09-.3-9.59C230.76,222.25,233.94,217.78,234.9,215.8Z" transform="translate(-6.15 -25.3)"/><path class="cls-27" d="M230.26,208.06a8.9,8.9,0,0,1,1.27-3.23,19.48,19.48,0,0,0,1.78-5.12c.22-.75,2.15-7.21,2.15-7.21s-1.1,6.75-1.57,8.58S230.26,208.06,230.26,208.06Z" transform="translate(-6.15 -25.3)"/><path class="cls-27" d="M233.18,211.18s.17-1.13.3-2.17,2.28-4.84,2.56-6.33a21.33,21.33,0,0,0-.18-4.76s.11,3.54-.68,5.33S232.41,208,233.18,211.18Z" transform="translate(-6.15 -25.3)"/><path class="cls-27" d="M234.09,212.58a33.68,33.68,0,0,1,2.17-4.72l-1.69,5Z" transform="translate(-6.15 -25.3)"/><path class="cls-24" d="M194,257.81c-2.39,5.6-11,5.07-11,5.07-3.19,3.74,1.31,9,1.31,9s-18.49-2-22.13-1.44c0-.07,3.28-6.11,2.93-7.56l.13.07c5.75-4.17,8.53-28.28,9.53-31.24s18.22,4.75,19.39,1a25.45,25.45,0,0,1,.32,8.22C193.59,247.16,197,250.78,194,257.81Z" transform="translate(-6.15 -25.3)"/><path class="cls-11" d="M191.76,348.78c-12,19.13-20.84,32-43.35,2-12.52-16.69-8.56-30.62-11.54-46s-.05-26.71,2.85-28.79c3.31-2.37,17.71-6.25,24.13-6.38s15.72.18,17.8.36h0c8.57.52,15.62,1,24.13,5.53,12.66,6.8,4.62,17.73,1.09,33C200.35,336.83,198,338.82,191.76,348.78Z" transform="translate(-6.15 -25.3)"/><path class="cls-23" d="M143.3,308.54h60a5.45,5.45,0,0,1,5.41,4.78l4.9,39.73a14.49,14.49,0,0,1-14.38,16.27H148.52a14.49,14.49,0,0,1-14.43-15.86l3.78-40A5.45,5.45,0,0,1,143.3,308.54Z" transform="translate(-6.15 -25.3)"/><path class="cls-22" d="M194.15,232.66c-1.17,3.76-3.09,8.62-4.79,10.11,0,0-4.63-5.16-7.3.15-3.34,6.64,2.84,10.4,4.75,10.29-1.91,4.77-2.13,8.66-7.89,9.57s-7.94-4-13.69.14l-.13-.07h0c-8.63-3.91-13.56-17.45-11.1-26.91s9.27-15.77,17.69-16.27c6-.36,13.35,1.71,18.52,2.3a5.61,5.61,0,0,1,4.95,6.49A31.2,31.2,0,0,1,194.15,232.66Z" transform="translate(-6.15 -25.3)"/><path class="cls-11" d="M156,291.55c-14.84-2.1-8.36-16.89-4-24.35a5,5,0,0,1,6.55-2,33.34,33.34,0,0,0,11.35,3.36,43.48,43.48,0,0,0,15.84-1.54,5,5,0,0,1,4.16.69l5.4,3.72S175.94,294.39,156,291.55Z" transform="translate(-6.15 -25.3)"/><path class="cls-28" d="M149.28,272.37s-6.73,13,2,17.8,27.91,0,43.95-18.7c-3.47,13.09-21.52,23.93-34.12,25.68S137.88,286.9,149.28,272.37Z" transform="translate(-6.15 -25.3)"/><path class="cls-22" d="M163.45,222.27c1.35-5.39-10.09-11.41-11.21-5.72-1.31,6.66-6.71,6-5.26,9.76s.19,9.7,11,6.19S162.1,227.66,163.45,222.27Z" transform="translate(-6.15 -25.3)"/><path class="cls-29" d="M191.76,223.31a5.54,5.54,0,0,1,5.26,6.05c-.08,5.87-7.06,11.49-7.06,11.49" transform="translate(-6.15 -25.3)"/><path class="cls-30" d="M171.69,219.66s3.9,18.62-18.13,24.66" transform="translate(-6.15 -25.3)"/><path class="cls-30" d="M171.69,219.66s9.13,21.67-16.44,31.46" transform="translate(-6.15 -25.3)"/><path class="cls-7" d="M106.65,238.29c-2.39,5.6-11,5.07-11,5.07-3.19,3.74,1.31,9,1.31,9s-18.49-2-22.13-1.44c0-.07,3.28-6.11,2.93-7.56l.13.07c5.75-4.17,8.77-23.65,9.78-26.61s18,.12,19.14-3.64a25.45,25.45,0,0,1,.32,8.22C106.2,227.64,109.64,231.26,106.65,238.29Z" transform="translate(-6.15 -25.3)"/><path class="cls-7" d="M44.29,301.27c-2.75,9.44-5.89,19,1.92,29.4A44.27,44.27,0,0,0,67.14,346C66.36,328.38,60.69,309.44,44.29,301.27Z" transform="translate(-6.15 -25.3)"/><path class="cls-31" d="M127.23,298.6c-1.06-4.28-2.09-8.58-2.73-12.7-2.28-14.46,6.59-23.08-6.08-29.88-8.5-4.56-15.56-5-24.13-5.53h0c-2.08-.18-11.37-.48-17.8-.36s-20.83,4-24.13,6.38C49.43,258.59,41,266.76,44,282.27c1.12,5.78-5.45,11.84-7.1,17.53C53.28,308,66.36,328.38,67.14,346a57.33,57.33,0,0,0,25.8,2.57c.26-12.13.93-24.08,6.62-34.2C105.16,304.75,116.61,301.73,127.23,298.6Z" transform="translate(-6.15 -25.3)"/><path class="cls-7" d="M127.23,298.6c-10.62,3.12-22.06,6.15-27.66,15.75-5.69,10.12-6.36,22.07-6.62,34.2,15.72-1.87,30-9.36,35.8-18.63C133.35,322.57,130.19,310.65,127.23,298.6Z" transform="translate(-6.15 -25.3)"/><path class="cls-23" d="M55.92,289h60a5.45,5.45,0,0,1,5.41,4.78l4.9,39.73a14.49,14.49,0,0,1-14.38,16.27H61.14a14.49,14.49,0,0,1-14.43-15.86l3.78-40A5.45,5.45,0,0,1,55.92,289Z" transform="translate(-6.15 -25.3)"/><path class="cls-25" d="M77.18,207.1s5-7.82,15.81-4.88c4.4,1.19,11.94,5.35,13.36,8.54s-2.76,11.52-6.1,14.68c-1.49,1.41-.69-2.31-3.53-.88s-2.74,6.86.33,9.2,6.22,9.45,6.61,13.72c.44,4.84,1.85,13.3-10.1,13.85s-27.37-13.61-25.67.16c.69,5.61-10.39,13.58-21,9.42-8.49-3.32-3.6-14.38,5.56-24.16,8.08-8.64,5.66-15.78,5.66-23.51S63.21,195.65,77.18,207.1Z" transform="translate(-6.15 -25.3)"/><circle class="cls-25" cx="59.02" cy="189.62" r="14.89"/><path class="cls-32" d="M36.88,299.8A81.77,81.77,0,0,0,42,310.12c.36-1.65,1.57-6.22,1.57-6.22S38.57,299.92,36.88,299.8Z" transform="translate(-6.15 -25.3)"/><path class="cls-33" d="M340.42,252.07C342.35,257.83,351,258,351,258c2.87,4-2,8.8-2,8.8s22.66.2,26.23,1.08c0-.08-2.92-14.39-3.84-14.51-5.38-4.6-9.14-10.67-11.88-17.63-2.4-6.11-16.35-4.81-17.21-8.64a25.36,25.36,0,0,0-1,8.14C341.71,241.53,338,244.85,340.42,252.07Z" transform="translate(-6.15 -25.3)"/><path class="cls-33" d="M320.34,298.56c0,.22-4.5-2.27-4.45-2,3,15.32-8,32.44,4.45,49.07a44.19,44.19,0,0,0,7.5,7.82C332.37,334.86,342.9,306.29,320.34,298.56Z" transform="translate(-6.15 -25.3)"/><path class="cls-33" d="M406.93,297.83c-7.72,2.09-21.88,3.91-22.62,7.65-5.2,14.84,1.56,32.83,8,49.17a33,33,0,0,0,10.27-9.81C408.8,334.91,407,299.09,406.93,297.83Z" transform="translate(-6.15 -25.3)"/><path class="cls-11" d="M391.31,311.61c.75-3.74,9.64-9.53,17.36-11.61-1.13-12.22-3.93-20.17-15.37-26.31-8.47-4.55-16.53-7.48-25.06-8h0c-2.07-.18-11.33-.48-17.73-.36s-24.2,9.25-27.5,11.61c-2.85,2-10.26,8.21-7.57,23.28,22.56,7.73,17,34.64,12.42,53.18,19.11,15.52,47.89,11.89,64.47,1.24C385.86,338.31,386.12,326.45,391.31,311.61Z" transform="translate(-6.15 -25.3)"/><path class="cls-23" d="M330,304.09h59.8a5.43,5.43,0,0,1,5.39,4.76l4.89,39.59a14.44,14.44,0,0,1-14.33,16.21H335.21a14.44,14.44,0,0,1-14.38-15.8L324.6,309A5.43,5.43,0,0,1,330,304.09Z" transform="translate(-6.15 -25.3)"/><path class="cls-31" d="M347.49,238.91s2.87-5.16,6.7-.61-2.41,15.71,3.24,17.06c7.59-8.58,14.92,0,14.92,0,8.88-3.2,10.55-14.86,8.85-24.45s-9-15.22-15.57-15c-6.78-3.21-15,0-20.94-.1a5.6,5.6,0,0,0-5.55,6.67C340.69,230.28,347.49,238.91,347.49,238.91Z" transform="translate(-6.15 -25.3)"/><path class="cls-34" d="M340.65,241.19c-2.47-.48-2.7-2.12-2.7-4,0-2.27.91-4.16,3.27-4" transform="translate(-6.15 -25.3)"/><line class="cls-34" x1="331.79" y1="211.68" x2="342.92" y2="213.16"/><path class="cls-34" d="M353.68,239.59s5.85-.07,2.93,6.48" transform="translate(-6.15 -25.3)"/><path class="cls-33" d="M345.61,239.66l3.93-2.84s4.63.22,5.33,2.36a5.68,5.68,0,0,1,.39,3.63C354.72,244.33,345.61,239.66,345.61,239.66Z" transform="translate(-6.15 -25.3)"/><line class="cls-35" x1="371.56" y1="245.75" x2="367.29" y2="245.37"/><polyline class="cls-35" points="361.3 244.83 357.03 244.44 355.14 247.75 353.16 243.89 345.42 244.15"/></g></svg>