<svg width="397" height="363" viewBox="0 0 397 363" fill="none" xmlns="http://www.w3.org/2000/svg">
<path d="M184.09 344.88V328.945H189.661C190.771 328.945 191.686 329.137 192.407 329.521C193.128 329.9 193.665 330.411 194.018 331.054C194.37 331.692 194.547 332.4 194.547 333.178C194.547 333.863 194.425 334.428 194.181 334.874C193.942 335.32 193.626 335.673 193.232 335.932C192.843 336.192 192.42 336.384 191.964 336.508V336.664C192.451 336.695 192.941 336.866 193.434 337.177C193.927 337.488 194.339 337.934 194.671 338.515C195.003 339.096 195.169 339.807 195.169 340.647C195.169 341.446 194.988 342.164 194.625 342.802C194.261 343.44 193.688 343.946 192.905 344.32C192.122 344.693 191.103 344.88 189.847 344.88H184.09ZM186.019 343.168H189.847C191.108 343.168 192.003 342.924 192.532 342.437C193.066 341.944 193.333 341.348 193.333 340.647C193.333 340.108 193.196 339.61 192.921 339.153C192.646 338.692 192.254 338.323 191.746 338.049C191.237 337.768 190.636 337.628 189.941 337.628H186.019V343.168ZM186.019 335.948H189.598C190.179 335.948 190.703 335.834 191.17 335.605C191.642 335.377 192.016 335.056 192.29 334.641C192.571 334.226 192.711 333.738 192.711 333.178C192.711 332.478 192.467 331.884 191.979 331.396C191.492 330.903 190.719 330.657 189.661 330.657H186.019V335.948ZM201.608 345.16C200.85 345.16 200.163 345.017 199.546 344.732C198.929 344.442 198.438 344.024 198.075 343.479C197.712 342.93 197.531 342.266 197.531 341.488C197.531 340.803 197.665 340.248 197.935 339.823C198.205 339.392 198.565 339.055 199.017 338.811C199.468 338.567 199.966 338.386 200.511 338.266C201.06 338.142 201.613 338.043 202.168 337.971C202.894 337.877 203.483 337.807 203.934 337.761C204.39 337.709 204.722 337.623 204.93 337.504C205.143 337.385 205.249 337.177 205.249 336.881V336.819C205.249 336.052 205.039 335.455 204.619 335.03C204.204 334.604 203.573 334.392 202.728 334.392C201.851 334.392 201.164 334.584 200.666 334.967C200.168 335.351 199.818 335.761 199.616 336.197L197.873 335.574C198.184 334.848 198.599 334.283 199.118 333.878C199.642 333.468 200.212 333.183 200.83 333.022C201.452 332.856 202.064 332.773 202.666 332.773C203.05 332.773 203.491 332.82 203.988 332.913C204.492 333.002 204.977 333.186 205.443 333.466C205.915 333.746 206.307 334.169 206.618 334.734C206.93 335.299 207.085 336.057 207.085 337.006V344.88H205.249V343.262H205.156C205.031 343.521 204.824 343.798 204.533 344.094C204.243 344.39 203.856 344.641 203.374 344.849C202.891 345.056 202.303 345.16 201.608 345.16ZM201.888 343.511C202.614 343.511 203.226 343.368 203.724 343.083C204.227 342.797 204.606 342.429 204.86 341.978C205.119 341.526 205.249 341.052 205.249 340.554V338.873C205.171 338.967 205 339.052 204.735 339.13C204.476 339.203 204.175 339.268 203.833 339.325C203.496 339.376 203.166 339.423 202.845 339.465C202.528 339.501 202.272 339.532 202.074 339.558C201.597 339.62 201.151 339.721 200.736 339.861C200.326 339.996 199.994 340.201 199.74 340.476C199.491 340.746 199.367 341.114 199.367 341.581C199.367 342.219 199.603 342.701 200.075 343.028C200.552 343.35 201.156 343.511 201.888 343.511ZM218.902 335.605L217.252 336.072C217.149 335.797 216.996 335.53 216.793 335.271C216.596 335.006 216.326 334.789 215.984 334.617C215.642 334.446 215.203 334.361 214.669 334.361C213.938 334.361 213.328 334.529 212.841 334.866C212.358 335.198 212.117 335.621 212.117 336.135C212.117 336.591 212.283 336.952 212.615 337.216C212.947 337.481 213.466 337.701 214.171 337.877L215.945 338.313C217.014 338.572 217.81 338.969 218.334 339.504C218.858 340.033 219.12 340.715 219.12 341.55C219.12 342.234 218.923 342.847 218.528 343.386C218.139 343.925 217.595 344.351 216.894 344.662C216.194 344.973 215.38 345.129 214.451 345.129C213.232 345.129 212.224 344.864 211.425 344.335C210.626 343.806 210.12 343.033 209.908 342.017L211.65 341.581C211.816 342.224 212.13 342.707 212.592 343.028C213.059 343.35 213.668 343.511 214.42 343.511C215.276 343.511 215.956 343.329 216.459 342.966C216.967 342.598 217.221 342.157 217.221 341.643C217.221 341.228 217.076 340.881 216.786 340.601C216.495 340.315 216.049 340.103 215.447 339.963L213.455 339.496C212.361 339.236 211.557 338.834 211.043 338.29C210.535 337.74 210.281 337.053 210.281 336.228C210.281 335.554 210.47 334.957 210.849 334.438C211.233 333.92 211.754 333.513 212.413 333.217C213.077 332.921 213.829 332.773 214.669 332.773C215.852 332.773 216.78 333.033 217.455 333.551C218.134 334.07 218.617 334.755 218.902 335.605ZM221.884 344.88V332.929H223.72V344.88H221.884ZM222.817 330.937C222.459 330.937 222.151 330.815 221.891 330.571C221.637 330.328 221.51 330.035 221.51 329.692C221.51 329.35 221.637 329.057 221.891 328.813C222.151 328.569 222.459 328.447 222.817 328.447C223.175 328.447 223.481 328.569 223.735 328.813C223.995 329.057 224.124 329.35 224.124 329.692C224.124 330.035 223.995 330.328 223.735 330.571C223.481 330.815 223.175 330.937 222.817 330.937ZM231.938 345.129C230.818 345.129 229.853 344.864 229.044 344.335C228.235 343.806 227.612 343.077 227.176 342.149C226.741 341.22 226.523 340.16 226.523 338.967C226.523 337.753 226.746 336.682 227.192 335.753C227.643 334.82 228.271 334.091 229.075 333.567C229.884 333.038 230.828 332.773 231.907 332.773C232.747 332.773 233.505 332.929 234.179 333.24C234.853 333.551 235.406 333.987 235.836 334.547C236.267 335.108 236.534 335.761 236.638 336.508H234.801C234.661 335.963 234.35 335.481 233.868 335.061C233.39 334.636 232.747 334.423 231.938 334.423C231.222 334.423 230.595 334.61 230.055 334.983C229.521 335.351 229.103 335.873 228.803 336.547C228.507 337.216 228.359 338.002 228.359 338.904C228.359 339.828 228.504 340.632 228.795 341.316C229.09 342.001 229.505 342.533 230.04 342.911C230.579 343.29 231.212 343.479 231.938 343.479C232.415 343.479 232.848 343.396 233.237 343.23C233.626 343.064 233.956 342.826 234.226 342.515C234.495 342.203 234.687 341.83 234.801 341.394H236.638C236.534 342.1 236.277 342.735 235.867 343.3C235.463 343.861 234.926 344.307 234.257 344.639C233.593 344.965 232.82 345.129 231.938 345.129Z" fill="#FFC61A"/>
<path d="M161.923 17.4299H159.9L165.751 1.49539H167.743L173.594 17.4299H171.571L166.809 4.01628H166.685L161.923 17.4299ZM162.67 11.2055H170.824V12.9172H162.67V11.2055ZM180.34 17.6789C179.344 17.6789 178.464 17.4273 177.702 16.9242C176.939 16.4159 176.343 15.7001 175.912 14.7768C175.482 13.8483 175.267 12.7512 175.267 11.4856C175.267 10.2303 175.482 9.14106 175.912 8.21777C176.343 7.29448 176.942 6.58127 177.71 6.07812C178.477 5.57498 179.364 5.32341 180.371 5.32341C181.149 5.32341 181.763 5.45309 182.215 5.71244C182.671 5.9666 183.019 6.25708 183.257 6.58386C183.501 6.90545 183.69 7.16999 183.825 7.37747H183.981V1.49539H185.817V17.4299H184.043V15.5937H183.825C183.69 15.8116 183.498 16.0865 183.249 16.4185C183 16.7452 182.645 17.0383 182.184 17.2977C181.722 17.5518 181.107 17.6789 180.34 17.6789ZM180.588 16.0294C181.325 16.0294 181.947 15.8375 182.456 15.4537C182.964 15.0646 183.351 14.5278 183.615 13.8431C183.88 13.1532 184.012 12.357 184.012 11.4545C184.012 10.5623 183.882 9.78166 183.623 9.11253C183.364 8.43822 182.98 7.91433 182.471 7.54087C181.963 7.16221 181.335 6.97289 180.588 6.97289C179.81 6.97289 179.162 7.17259 178.643 7.57199C178.13 7.9662 177.743 8.50306 177.484 9.18256C177.23 9.85687 177.103 10.6142 177.103 11.4545C177.103 12.3051 177.232 13.078 177.492 13.7731C177.756 14.463 178.145 15.0128 178.659 15.4226C179.178 15.8271 179.821 16.0294 180.588 16.0294ZM199.207 5.47902L194.788 17.4299H192.921L188.501 5.47902H190.493L193.792 15.0024H193.917L197.216 5.47902H199.207ZM204.784 17.71C204.027 17.71 203.339 17.5674 202.722 17.2821C202.105 16.9916 201.615 16.5741 201.252 16.0294C200.889 15.4796 200.707 14.8157 200.707 14.0376C200.707 13.3529 200.842 12.7979 201.112 12.3726C201.381 11.9421 201.742 11.6049 202.193 11.3611C202.644 11.1173 203.142 10.9358 203.687 10.8165C204.237 10.692 204.789 10.5934 205.344 10.5208C206.07 10.4274 206.659 10.3574 207.11 10.3107C207.567 10.2589 207.899 10.1733 208.106 10.054C208.319 9.93468 208.425 9.7272 208.425 9.43154V9.36929C208.425 8.60161 208.215 8.0051 207.795 7.57977C207.38 7.15443 206.75 6.94176 205.904 6.94176C205.028 6.94176 204.341 7.13368 203.843 7.51752C203.345 7.90136 202.995 8.31114 202.792 8.74685L201.049 8.12441C201.361 7.39822 201.776 6.83284 202.294 6.42825C202.818 6.01847 203.389 5.73319 204.006 5.57239C204.628 5.4064 205.24 5.32341 205.842 5.32341C206.226 5.32341 206.667 5.37009 207.165 5.46346C207.668 5.55164 208.153 5.73578 208.62 6.01588C209.092 6.29598 209.483 6.71872 209.795 7.28411C210.106 7.84949 210.262 8.6068 210.262 9.55603V17.4299H208.425V15.8116H208.332C208.207 16.0709 208 16.3484 207.71 16.6441C207.419 16.9398 207.033 17.1913 206.55 17.3988C206.068 17.6063 205.479 17.71 204.784 17.71ZM205.064 16.0606C205.79 16.0606 206.402 15.9179 206.9 15.6326C207.403 15.3473 207.782 14.9791 208.036 14.5278C208.296 14.0765 208.425 13.6019 208.425 13.104V11.4234C208.348 11.5167 208.176 11.6023 207.912 11.6801C207.652 11.7527 207.352 11.8176 207.009 11.8746C206.672 11.9265 206.343 11.9732 206.021 12.0147C205.705 12.051 205.448 12.0821 205.251 12.108C204.774 12.1703 204.328 12.2714 203.913 12.4115C203.503 12.5463 203.171 12.7512 202.917 13.0261C202.668 13.2959 202.543 13.6642 202.543 14.131C202.543 14.769 202.779 15.2514 203.251 15.5782C203.728 15.8998 204.333 16.0606 205.064 16.0606ZM215.449 10.2407V17.4299H213.613V5.47902H215.387V7.34635H215.543C215.823 6.73947 216.248 6.25189 216.819 5.88361C217.389 5.51014 218.126 5.32341 219.028 5.32341C219.837 5.32341 220.545 5.4894 221.152 5.82137C221.759 6.14815 222.231 6.6461 222.568 7.31523C222.906 7.97917 223.074 8.81947 223.074 9.83612V17.4299H221.238V9.96061C221.238 9.02176 220.994 8.29039 220.507 7.7665C220.019 7.23742 219.35 6.97289 218.499 6.97289C217.913 6.97289 217.389 7.09997 216.928 7.35413C216.471 7.6083 216.111 7.97917 215.846 8.46675C215.581 8.95433 215.449 9.54565 215.449 10.2407ZM231.285 17.6789C230.164 17.6789 229.199 17.4144 228.39 16.8853C227.581 16.3562 226.959 15.6274 226.523 14.699C226.087 13.7705 225.869 12.7097 225.869 11.5167C225.869 10.303 226.092 9.23184 226.538 8.30336C226.99 7.36969 227.617 6.64092 228.421 6.11703C229.23 5.58795 230.175 5.32341 231.253 5.32341C232.094 5.32341 232.851 5.47902 233.525 5.79024C234.2 6.10147 234.752 6.53718 235.183 7.09737C235.613 7.65757 235.88 8.31114 235.984 9.05807H234.148C234.008 8.51343 233.697 8.03104 233.214 7.61089C232.737 7.18555 232.094 6.97289 231.285 6.97289C230.569 6.97289 229.941 7.15962 229.402 7.53308C228.867 7.90136 228.45 8.42266 228.149 9.09697C227.853 9.7661 227.705 10.5519 227.705 11.4545C227.705 12.3778 227.851 13.1818 228.141 13.8664C228.437 14.5511 228.852 15.0828 229.386 15.4615C229.926 15.8401 230.558 16.0294 231.285 16.0294C231.762 16.0294 232.195 15.9464 232.584 15.7805C232.973 15.6145 233.302 15.3759 233.572 15.0646C233.842 14.7534 234.034 14.38 234.148 13.9442H235.984C235.88 14.6497 235.623 15.2851 235.214 15.8505C234.809 16.4107 234.272 16.8568 233.603 17.1887C232.939 17.5155 232.166 17.6789 231.285 17.6789ZM243.679 17.6789C242.527 17.6789 241.534 17.4247 240.699 16.9164C239.869 16.4029 239.228 15.6871 238.777 14.769C238.331 13.8457 238.108 12.772 238.108 11.5478C238.108 10.3237 238.331 9.2448 238.777 8.31114C239.228 7.37229 239.856 6.64092 240.66 6.11703C241.469 5.58795 242.413 5.32341 243.492 5.32341C244.115 5.32341 244.729 5.42715 245.336 5.63463C245.943 5.84211 246.496 6.17927 246.993 6.6461C247.491 7.10775 247.888 7.71982 248.184 8.48231C248.48 9.2448 248.627 10.1837 248.627 11.2989V12.0769H239.415V10.4897H246.76C246.76 9.81538 246.625 9.21368 246.355 8.6846C246.091 8.15553 245.712 7.73797 245.219 7.43194C244.732 7.1259 244.156 6.97289 243.492 6.97289C242.761 6.97289 242.128 7.15443 241.594 7.51752C241.065 7.87543 240.658 8.34226 240.372 8.91802C240.087 9.49378 239.944 10.111 239.944 10.7698V11.8279C239.944 12.7305 240.1 13.4956 240.411 14.1232C240.728 14.7456 241.166 15.2203 241.726 15.547C242.286 15.8686 242.937 16.0294 243.679 16.0294C244.161 16.0294 244.597 15.962 244.986 15.8271C245.38 15.6871 245.72 15.4796 246.005 15.2047C246.291 14.9246 246.511 14.5771 246.667 14.1621L248.441 14.6601C248.254 15.2618 247.94 15.7908 247.499 16.2473C247.058 16.6986 246.514 17.0513 245.865 17.3054C245.217 17.5544 244.488 17.6789 243.679 17.6789ZM255.933 17.6789C254.937 17.6789 254.058 17.4273 253.296 16.9242C252.533 16.4159 251.937 15.7001 251.506 14.7768C251.076 13.8483 250.86 12.7512 250.86 11.4856C250.86 10.2303 251.076 9.14106 251.506 8.21777C251.937 7.29448 252.536 6.58127 253.303 6.07812C254.071 5.57498 254.958 5.32341 255.964 5.32341C256.742 5.32341 257.357 5.45309 257.808 5.71244C258.265 5.9666 258.612 6.25708 258.851 6.58386C259.095 6.90545 259.284 7.16999 259.419 7.37747H259.575V1.49539H261.411V17.4299H259.637V15.5937H259.419C259.284 15.8116 259.092 16.0865 258.843 16.4185C258.594 16.7452 258.239 17.0383 257.777 17.2977C257.316 17.5518 256.701 17.6789 255.933 17.6789ZM256.182 16.0294C256.919 16.0294 257.541 15.8375 258.05 15.4537C258.558 15.0646 258.944 14.5278 259.209 13.8431C259.473 13.1532 259.606 12.357 259.606 11.4545C259.606 10.5623 259.476 9.78166 259.217 9.11253C258.957 8.43822 258.573 7.91433 258.065 7.54087C257.557 7.16221 256.929 6.97289 256.182 6.97289C255.404 6.97289 254.756 7.17259 254.237 7.57199C253.724 7.9662 253.337 8.50306 253.078 9.18256C252.824 9.85687 252.697 10.6142 252.697 11.4545C252.697 12.3051 252.826 13.078 253.086 13.7731C253.35 14.463 253.739 15.0128 254.253 15.4226C254.771 15.8271 255.415 16.0294 256.182 16.0294Z" fill="#029D41"/>
<path d="M294.09 96.73C292.79 108.63 291.39 121.93 296.59 128.03C301.79 134.13 311.59 131.63 311.59 131.63L312.29 132.93C312.654 133.702 313.236 134.351 313.965 134.795C314.694 135.24 315.537 135.46 316.39 135.43C323.79 134.83 345.39 129.63 345.39 129.63C345.39 129.63 361.09 133.53 364.89 124.63C367.59 118.13 364.59 115.13 362.79 112.23C360.49 108.63 361.39 99.53 360.79 92.83C360.19 86.13 358.19 81.63 352.29 79.53C348.29 78.13 336.19 72.63 334.49 70.23L328.69 79.63C328.33 80.1952 327.828 80.6556 327.233 80.9645C326.638 81.2735 325.973 81.4201 325.303 81.3897C324.634 81.3593 323.984 81.1528 323.42 80.7912C322.856 80.4296 322.397 79.9256 322.09 79.33C321.024 77.0717 319.681 74.9553 318.09 73.03C318.086 73.0815 318.063 73.1298 318.027 73.1664C317.99 73.203 317.942 73.2255 317.89 73.23C315.59 76.33 296.99 85.63 295.59 90.43C294.943 92.4922 294.442 94.5974 294.09 96.73Z" fill="#7794FF"/>
<path d="M293.99 97.33C294.002 97.1269 294.035 96.9258 294.09 96.73" stroke="black" stroke-width="0.65" stroke-miterlimit="10"/>
<path d="M280.39 93.6299C280.467 93.8092 280.568 93.9773 280.69 94.1299" stroke="black" stroke-width="0.65" stroke-miterlimit="10"/>
<path d="M268.89 84.73C268.97 84.9339 269.091 85.1192 269.246 85.274C269.401 85.4289 269.586 85.5501 269.79 85.63C269.782 85.9317 269.841 86.2314 269.962 86.5079C270.083 86.7844 270.263 87.0309 270.49 87.23C270.78 87.5659 271.162 87.8093 271.59 87.93C271.49 88.63 271.49 90.13 271.99 90.43C272.398 90.6092 272.846 90.6782 273.29 90.63C273.219 91.0797 273.325 91.5393 273.587 91.9122C273.848 92.2852 274.243 92.5424 274.69 92.63C275.359 92.8057 276.069 92.7347 276.69 92.43C276.69 92.43 278.59 93.33 279.79 93.93C280.083 94.1331 280.433 94.2381 280.79 94.23C284.99 102.53 297.49 127.33 304.89 128.03C306.437 128.261 308.017 127.98 309.39 127.23C313.19 125.23 313.89 119.63 309.09 113.03C306.59 109.63 299.49 102.23 294.19 96.73C290.49 92.93 287.69 90.13 287.69 90.13C287.69 90.13 284.79 86.93 282.99 85.13C281.19 83.33 279.59 81.63 277.59 81.33C275.742 81.2387 273.891 81.407 272.09 81.83L270.39 82.03C269.39 81.93 268.69 83.93 268.89 84.73Z" fill="#FEC2A0"/>
<path d="M272.29 84.53C272.49 84.93 272.19 85.33 271.49 85.83C271.225 85.9161 270.944 85.9427 270.667 85.9082C270.391 85.8736 270.125 85.7787 269.89 85.63C270.087 85.8803 270.352 86.0695 270.653 86.1756C270.954 86.2818 271.279 86.3007 271.59 86.23C272.59 86.03 272.29 84.53 272.29 84.53Z" fill="#F99979"/>
<path d="M281.49 95.7299C281.959 95.3504 282.505 95.0774 283.09 94.9299C283.752 94.818 284.428 94.818 285.09 94.9299C285.09 94.9299 283.69 93.8299 282.99 94.0299C282.239 94.2239 281.456 94.258 280.69 94.1299L281.49 95.7299Z" fill="#F99979"/>
<path d="M278.89 90.1299C278.943 90.4171 278.925 90.7129 278.837 90.9916C278.75 91.2704 278.597 91.5238 278.39 91.7299C277.863 92.1193 277.241 92.361 276.59 92.4299C276.59 92.4299 278.79 90.9299 278.89 90.1299Z" fill="#F99979"/>
<path d="M258.69 77.3299C261.19 81.1299 265.69 83.0299 267.99 81.5299C270.29 80.0299 269.69 75.5299 267.19 71.7299C264.69 67.9299 260.69 66.0299 258.39 67.6299C256.09 69.2299 256.19 73.4299 258.69 77.3299Z" fill="#4F6DDB"/>
<path d="M270.39 84.0299L267.39 80.8299L268.69 79.6299L270.69 81.7299L270.39 84.0299Z" fill="#4F6DDB"/>
<path d="M270.09 82.93L267.79 80.63L269.29 79.23L271.49 81.63L270.09 82.93Z" fill="#7794FF"/>
<path d="M277.79 89.1299C276.953 89.6581 276.044 90.0623 275.09 90.3299C274.464 90.471 273.83 90.5712 273.19 90.6299C273.19 90.6299 273.59 91.3299 275.49 90.8299C275.975 90.7319 276.432 90.5289 276.829 90.2351C277.226 89.9414 277.555 89.5641 277.79 89.1299Z" fill="#F99979"/>
<path d="M278.59 83.5301C277.071 83.247 275.569 82.8798 274.09 82.4301C272.29 81.8301 270.49 80.2301 269.99 81.5301C269.49 82.8301 270.39 84.1301 272.19 84.5301C273.99 84.9301 275.99 85.3301 276.29 86.2301C276.59 87.1301 277.39 91.0301 282.39 90.9301" fill="#FEC2A0"/>
<path d="M278.59 83.5301C277.071 83.247 275.569 82.8798 274.09 82.4301C272.29 81.8301 270.49 80.2301 269.99 81.5301C269.49 82.8301 270.39 84.1301 272.19 84.5301C273.99 84.9301 275.99 85.3301 276.29 86.2301C276.59 87.1301 277.39 91.0301 282.39 90.9301" stroke="#F99979" stroke-width="0.65" stroke-miterlimit="10" stroke-linecap="round"/>
<path d="M276.39 86.3301C276.39 86.3301 273.99 88.1301 273.19 88.1301C272.682 88.1622 272.173 88.0943 271.69 87.9301C272.032 88.2153 272.44 88.4104 272.877 88.4977C273.314 88.5851 273.765 88.5618 274.19 88.4301C275.138 87.9952 275.912 87.256 276.39 86.3301Z" fill="#F99979"/>
<path d="M268.274 80.7159C270.624 79.1641 270.483 74.8049 267.957 70.9793C265.432 67.1538 261.479 65.3104 259.128 66.8622C256.778 68.4139 256.919 72.7731 259.445 76.5987C261.97 80.4243 265.923 82.2676 268.274 80.7159Z" fill="#7794FF"/>
<path d="M260.89 75.5301C262.79 78.3301 265.29 80.1301 266.99 78.9301C268.69 77.7301 268.59 74.53 266.79 71.73C264.99 68.93 261.99 67.5301 260.29 68.6301C258.59 69.7301 259.09 72.6301 260.89 75.5301Z" fill="#BFBFBF"/>
<path d="M11.6904 126.53V33.2299C11.6931 28.1121 13.7273 23.2046 17.3462 19.5857C20.9651 15.9668 25.8726 13.9326 30.9904 13.9299C36.1083 13.9326 41.0158 15.9668 44.6347 19.5857C48.2535 23.2046 50.2878 28.1121 50.2904 33.2299V126.43H11.6904V126.53Z" fill="#029D41"/>
<path d="M50.2504 126.47H11.6504V238.97H50.2504V126.47Z" fill="#FF9C1A"/>
<path d="M11.6904 332.23V239.03H50.2904V332.23C50.2878 337.348 48.2535 342.255 44.6347 345.874C41.0158 349.493 36.1083 351.527 30.9904 351.53C25.8782 351.509 20.9814 349.469 17.3665 345.854C13.7516 342.239 11.7115 337.342 11.6904 332.23Z" fill="#FFC61A"/>
<path d="M30.9898 101.43C46.1224 101.43 58.3898 89.1625 58.3898 74.0299C58.3898 58.8973 46.1224 46.6299 30.9898 46.6299C15.8572 46.6299 3.58984 58.8973 3.58984 74.0299C3.58984 89.1625 15.8572 101.43 30.9898 101.43Z" fill="white" stroke="#029D41" stroke-width="6.75" stroke-miterlimit="10"/>
<path d="M30.9898 210.13C46.1224 210.13 58.3898 197.863 58.3898 182.73C58.3898 167.597 46.1224 155.33 30.9898 155.33C15.8572 155.33 3.58984 167.597 3.58984 182.73C3.58984 197.863 15.8572 210.13 30.9898 210.13Z" fill="white" stroke="#FF9C1A" stroke-width="6.75" stroke-miterlimit="10"/>
<path d="M30.9898 318.33C46.1224 318.33 58.3898 306.063 58.3898 290.93C58.3898 275.797 46.1224 263.53 30.9898 263.53C15.8572 263.53 3.58984 275.797 3.58984 290.93C3.58984 306.063 15.8572 318.33 30.9898 318.33Z" fill="white" stroke="#FFC61A" stroke-width="6.75" stroke-miterlimit="10"/>
<path d="M17.4902 307.53H32.0902L24.7902 289.43L17.4902 307.53Z" fill="#FFC61A"/>
<path d="M30.9897 287.33C33.8063 287.33 36.0896 285.047 36.0896 282.23C36.0896 279.413 33.8063 277.13 30.9897 277.13C28.173 277.13 25.8896 279.413 25.8896 282.23C25.8896 285.047 28.173 287.33 30.9897 287.33Z" fill="#FFC61A"/>
<path d="M43.7898 292.83H32.0898V302.83H43.7898V292.83Z" fill="#FFC61A"/>
<path d="M13.6765 288.13H12.1051L16.6502 275.752H18.1975L22.7426 288.13H21.1711L17.4722 277.71H17.3755L13.6765 288.13ZM14.2568 283.295H20.5909V284.624H14.2568V283.295Z" fill="#FFC61A"/>
<path d="M39.5585 287.15V274.772H40.9849V279.341H41.1058C41.2105 279.18 41.3556 278.974 41.5409 278.725C41.7303 278.471 42.0003 278.245 42.3508 278.048C42.7054 277.846 43.1849 277.745 43.7893 277.745C44.571 277.745 45.26 277.941 45.8564 278.332C46.4527 278.723 46.9181 279.277 47.2525 279.994C47.587 280.711 47.7542 281.557 47.7542 282.532C47.7542 283.515 47.587 284.368 47.2525 285.089C46.9181 285.806 46.4547 286.362 45.8624 286.757C45.2701 287.148 44.5871 287.343 43.8135 287.343C43.2171 287.343 42.7397 287.245 42.3811 287.047C42.0224 286.846 41.7464 286.618 41.553 286.364C41.3596 286.106 41.2105 285.893 41.1058 285.724H40.9365V287.15H39.5585ZM40.9607 282.508C40.9607 283.209 41.0635 283.828 41.269 284.364C41.4744 284.895 41.7746 285.313 42.1695 285.615C42.5644 285.913 43.0479 286.062 43.6201 286.062C44.2164 286.062 44.7141 285.905 45.113 285.591C45.5159 285.272 45.8181 284.845 46.0196 284.309C46.2251 283.769 46.3278 283.169 46.3278 282.508C46.3278 281.855 46.2271 281.267 46.0256 280.743C45.8282 280.215 45.528 279.798 45.125 279.492C44.7261 279.182 44.2245 279.027 43.6201 279.027C43.0399 279.027 42.5523 279.174 42.1574 279.468C41.7625 279.758 41.4644 280.165 41.2629 280.689C41.0614 281.209 40.9607 281.815 40.9607 282.508Z" fill="#FFC61A"/>
<path d="M318.39 67.5299C318.89 68.8299 319.99 70.2299 317.99 73.1299C319.59 75.1402 320.965 77.3199 322.09 79.6299C322.39 80.2042 322.835 80.6898 323.382 81.0384C323.928 81.3869 324.556 81.5863 325.203 81.6167C325.851 81.647 326.495 81.5073 327.071 81.2113C327.648 80.9154 328.137 80.4736 328.49 79.9299L335.89 71.6299C335.001 70.813 334.197 69.9084 333.49 68.9299C331.552 65.9804 330.1 62.7393 329.19 59.3299C331.49 58.7299 333.79 57.0299 334.19 55.1299C334.69 52.8299 333.49 49.1299 330.89 48.9299C326.29 48.7299 325.29 49.1299 323.99 43.6299C322.69 38.1299 309.69 44.4299 309.69 44.4299C309.69 44.4299 309.29 50.4299 309.79 52.0299C310.153 52.9871 310.323 54.0067 310.29 55.0299C310.327 56.5993 310.26 58.1694 310.09 59.7299C309.79 62.2299 312.59 68.9299 318.39 67.5299Z" fill="#FEC2A0"/>
<path d="M319.79 51.83C317.49 50.83 316.49 51.43 316.49 51.43L316.29 50.23C316.279 50.0846 316.325 49.9405 316.418 49.8284C316.511 49.7164 316.645 49.6452 316.79 49.63C317.765 49.6031 318.74 49.7039 319.69 49.93C320.39 50.33 319.79 51.83 319.79 51.83Z" fill="#BFBFBF"/>
<path d="M310.19 50.93C310.514 50.9392 310.831 51.015 311.124 51.1527C311.416 51.2904 311.677 51.4869 311.89 51.73L311.99 50.33C311.989 50.1761 311.94 50.0264 311.851 49.9012C311.761 49.776 311.636 49.6813 311.49 49.63L310.19 49.23V50.93Z" fill="#BFBFBF"/>
<path d="M317.79 56.43C318.232 56.43 318.59 55.7136 318.59 54.83C318.59 53.9463 318.232 53.23 317.79 53.23C317.348 53.23 316.99 53.9463 316.99 54.83C316.99 55.7136 317.348 56.43 317.79 56.43Z" fill="#303134"/>
<path d="M311.39 56.23C311.777 56.23 312.09 55.5584 312.09 54.73C312.09 53.9016 311.777 53.23 311.39 53.23C311.004 53.23 310.69 53.9016 310.69 54.73C310.69 55.5584 311.004 56.23 311.39 56.23Z" fill="#303134"/>
<path d="M312.99 56.9299C311.79 58.0299 311.79 60.6299 313.89 59.6299" stroke="#303134" stroke-width="0.45" stroke-miterlimit="10" stroke-linecap="round"/>
<path d="M318.39 67.5299C318.39 67.5299 321.09 66.6299 321.89 64.4299C321.823 65.4189 321.537 66.3806 321.053 67.2454C320.569 68.1102 319.898 68.8565 319.09 69.4299L318.39 67.5299Z" fill="#F99979"/>
<path d="M31.8896 65.83V61.23" stroke="#029D41" stroke-miterlimit="10" stroke-linecap="round"/>
<path d="M33.4059 59.9299C33.9681 59.11 33.7593 57.9896 32.9394 57.4274C32.1195 56.8652 30.9991 57.0741 30.4369 57.8939C29.8747 58.7138 30.0836 59.8342 30.9034 60.3964C31.7233 60.9586 32.8437 60.7497 33.4059 59.9299Z" stroke="#029D41" stroke-miterlimit="10" stroke-linecap="round"/>
<path d="M40.4902 81.53L44.3902 84.03" stroke="#029D41" stroke-miterlimit="10" stroke-linecap="round"/>
<path d="M40.4902 70.6299L44.3902 68.1299" stroke="#029D41" stroke-miterlimit="10" stroke-linecap="round"/>
<path d="M23.2896 70.6299L19.3896 68.1299" stroke="#029D41" stroke-miterlimit="10" stroke-linecap="round"/>
<path d="M19.0377 85.9742C19.4382 85.0643 19.0253 84.002 18.1155 83.6015C17.2056 83.201 16.1433 83.6139 15.7428 84.5237C15.3423 85.4336 15.7552 86.4958 16.665 86.8964C17.5749 87.2969 18.6371 86.884 19.0377 85.9742Z" stroke="#029D41" stroke-miterlimit="10" stroke-linecap="round"/>
<path d="M32.8898 70.8299C32.8898 70.8299 32.6898 67.9299 34.9898 67.8299C35.2643 67.7787 35.5468 67.7899 35.8164 67.8627C36.0859 67.9356 36.3356 68.0681 36.547 68.2506C36.7583 68.4331 36.9258 68.6609 37.0371 68.917C37.1484 69.1731 37.2006 69.4509 37.1898 69.7299C37.7235 69.7969 38.2196 70.0396 38.5999 70.4199C38.9801 70.8002 39.2229 71.2963 39.2898 71.8299C39.4524 72.3167 39.4525 72.8432 39.2902 73.3301C39.1279 73.817 38.812 74.238 38.3898 74.5299C38.7666 74.5524 39.1336 74.6586 39.4642 74.8408C39.7947 75.023 40.0805 75.2765 40.3008 75.583C40.5211 75.8895 40.6703 76.2412 40.7376 76.6126C40.8049 76.9839 40.7886 77.3656 40.6898 77.7299C40.1898 80.6299 38.9898 81.4299 37.7898 81.2299C38.0898 82.5299 37.7898 84.5299 35.5898 84.6299C33.3898 84.7299 32.6898 83.5299 32.5898 81.6299" stroke="#029D41" stroke-miterlimit="10" stroke-linecap="round"/>
<path d="M31.0902 70.93C31.0902 70.93 31.3902 68.23 29.0902 67.93C28.8172 67.8655 28.5333 67.8632 28.2593 67.9233C27.9854 67.9834 27.7284 68.1044 27.5076 68.2772C27.2867 68.4501 27.1075 68.6704 26.9834 68.9219C26.8592 69.1734 26.7932 69.4496 26.7902 69.73C26.2521 69.7676 25.7423 69.9855 25.3432 70.3483C24.944 70.7112 24.6788 71.1979 24.5902 71.73C24.0902 73.73 25.2902 74.43 25.2902 74.43C24.9191 74.4349 24.5536 74.52 24.2186 74.6796C23.8836 74.8392 23.5871 75.0695 23.3496 75.3545C23.112 75.6396 22.939 75.9727 22.8425 76.331C22.7459 76.6893 22.7281 77.0642 22.7902 77.43C23.0902 80.33 24.3902 81.23 25.4902 81.03C25.0902 82.23 25.3902 84.33 27.4902 84.53C29.5902 84.73 30.4902 83.23 30.6902 81.33" stroke="#029D41" stroke-miterlimit="10" stroke-linecap="round"/>
<path d="M36.0898 70.7301C36.1898 70.6301 37.1898 69.8301 37.1898 69.8301" stroke="#029D41" stroke-miterlimit="10" stroke-linecap="round"/>
<path d="M36.8896 80.53L37.8896 81.13" stroke="#029D41" stroke-miterlimit="10" stroke-linecap="round"/>
<path d="M31.8896 65.83V61.23" stroke="#029D41" stroke-miterlimit="10" stroke-linecap="round"/>
<path d="M33.4059 59.9299C33.9681 59.11 33.7593 57.9896 32.9394 57.4274C32.1195 56.8652 30.9991 57.0741 30.4369 57.8939C29.8747 58.7138 30.0836 59.8342 30.9034 60.3964C31.7233 60.9586 32.8437 60.7497 33.4059 59.9299Z" stroke="#029D41" stroke-miterlimit="10" stroke-linecap="round"/>
<path d="M48.1004 66.9653C48.1296 65.9716 47.3477 65.1424 46.354 65.1133C45.3603 65.0841 44.5311 65.866 44.502 66.8597C44.4728 67.8534 45.2548 68.6826 46.2484 68.7117C47.2421 68.7409 48.0713 67.9589 48.1004 66.9653Z" stroke="#029D41" stroke-miterlimit="10" stroke-linecap="round"/>
<path d="M47.1165 86.886C48.0263 86.4855 48.4392 85.4232 48.0387 84.5134C47.6381 83.6035 46.5758 83.1906 45.666 83.5912C44.7561 83.9917 44.3433 85.054 44.7438 85.9638C45.1443 86.8737 46.2066 87.2866 47.1165 86.886Z" stroke="#029D41" stroke-miterlimit="10" stroke-linecap="round"/>
<path d="M17.5454 68.6292C18.5391 68.6 19.321 67.7709 19.2918 66.7772C19.2627 65.7835 18.4335 65.0016 17.4399 65.0307C16.4462 65.0599 15.6643 65.889 15.6934 66.8827C15.7225 67.8764 16.5517 68.6583 17.5454 68.6292Z" stroke="#029D41" stroke-miterlimit="10" stroke-linecap="round"/>
<path d="M23.2896 81.53L19.3896 84.03" stroke="#029D41" stroke-miterlimit="10" stroke-linecap="round"/>
<path d="M25.4902 74.43C25.4902 74.43 27.2902 75.53 27.7902 74.03" stroke="#029D41" stroke-miterlimit="10" stroke-linecap="round"/>
<path d="M38.3898 74.5299C38.3898 74.5299 35.7898 75.2299 35.5898 74.1299" stroke="#029D41" stroke-miterlimit="10" stroke-linecap="round"/>
<path d="M337.19 52.93C337.744 52.0293 338.472 51.2473 339.33 50.6294C340.188 50.0115 341.16 49.5698 342.19 49.33C339.69 36.53 334.29 38.43 330.19 37.43C328.89 37.13 326.39 34.93 330.49 31.93C326.53 31.7521 322.564 32.0882 318.69 32.93C318.69 32.93 306.89 35.23 308.19 44.43C308.89 48.93 307.79 49.53 306.29 52.93C306.012 53.5813 305.912 54.2948 306 54.9976C306.087 55.7004 306.36 56.3673 306.79 56.93C307.39 57.43 308.79 57.33 310.29 58.83C310.804 56.5959 310.838 54.2783 310.39 52.03C309.89 50.43 310.39 47.13 310.99 45.53C311.29 44.63 312.09 43.03 314.79 45.93C316.49 43.93 318.99 44.73 320.29 45.43C320.528 45.5405 320.734 45.7079 320.891 45.9172C321.048 46.1266 321.151 46.3714 321.19 46.63L322.09 55.43L325.59 56.03C325.59 56.03 325.49 49.93 330.09 50.13C334.69 50.33 334.39 57.83 329.19 59.33C329.66 61.2291 330.331 63.0728 331.19 64.83C331.19 64.83 333.39 58.03 343.39 58.93C342.39 52.93 337.19 52.93 337.19 52.93Z" fill="#BFBFBF"/>
<path d="M312.79 60.23C311.99 60.23 311.69 59.73 310.89 59.73C309.19 59.73 308.79 61.03 309.09 61.23C309.39 61.43 310.29 61.03 310.39 61.13C310.49 61.23 310.19 62.13 310.39 62.43C310.59 62.73 311.59 61.93 311.99 61.93C312.39 61.93 312.69 63.33 313.09 63.23C313.49 63.13 313.99 61.83 314.29 61.93C314.59 62.03 315.79 63.03 316.09 62.83C316.39 62.63 315.99 61.63 316.29 61.53C316.59 61.43 317.59 62.23 317.89 62.03C318.19 61.83 317.99 60.03 315.79 59.73C314.99 59.63 314.09 60.23 312.79 60.23Z" fill="#BFBFBF"/>
<path d="M318.69 72.03L325.69 76.43L318.09 83.03L317.79 73.23L318.69 72.03Z" fill="#BFBFBF"/>
<path d="M334.79 70.53L325.69 76.43L333.69 82.93L336.29 71.93L334.79 70.53Z" fill="#BFBFBF"/>
<path d="M332.19 81.73C330.949 82.9421 329.388 83.7748 327.69 84.13C327.094 84.2191 326.492 84.2525 325.89 84.23C325.255 84.2493 324.619 84.2159 323.99 84.13C322.344 83.7715 320.824 82.9772 319.59 81.83L325.69 76.53L332.19 81.73Z" fill="#F0F0F0"/>
<path d="M322.99 78.7299L324.69 81.7299H326.99L328.59 78.8299L325.69 76.4299L322.99 78.7299Z" fill="#F66A31"/>
<path d="M327.69 84.0299C327.095 84.1189 326.492 84.1524 325.89 84.1299C325.255 84.1492 324.62 84.1157 323.99 84.0299L324.69 81.6299H326.99L327.69 84.0299Z" fill="#F66A31"/>
<path d="M364.39 79.93C364.19 76.33 364.69 72.03 362.59 72.13C362.59 71.13 362.29 70.23 361.49 70.13C360.69 70.03 359.88 69.84 359.72 68.78L356.84 68.49C356.862 68.813 356.814 69.1369 356.7 69.44C356.4 69.84 356 69.64 355.1 70.94C354.2 72.24 351.5 75.54 351.5 76.04C351.495 76.2513 351.549 76.4599 351.658 76.6412C351.766 76.8226 351.925 76.9691 352.114 77.0637C352.303 77.1582 352.515 77.1968 352.725 77.1749C352.935 77.153 353.135 77.0715 353.3 76.94C352.2 78.24 351.8 78.84 352.7 79.54C352.982 79.729 353.325 79.8031 353.66 79.7474C353.995 79.6916 354.295 79.5101 354.5 79.24C354.5 79.24 355.1 80.14 355.6 80.94C356.184 81.7096 356.593 82.5967 356.8 83.54C356.882 85.4073 356.611 87.2733 356 89.04C355.1 91.74 350.2 103.64 347.7 111.04C346.8 113.64 345.5 117.74 346.3 121.44C347.2 125.34 354.9 127.04 358.1 125.54C361.3 124.04 362.2 120.14 363 116.14C364.49 109.13 364.59 83.53 364.39 79.93Z" fill="#FEC2A0"/>
<path d="M353.19 73.83C353.19 73.83 351.09 71.03 352.19 70.13C353.29 69.23 354.69 71.13 354.89 71.33L353.19 73.83Z" fill="#FEC2A0"/>
<path d="M353.69 76.63L356.69 72.63L360.19 71.53" fill="#FEC2A0"/>
<path d="M353.69 76.63L356.69 72.63L360.19 71.53" stroke="#F99979" stroke-width="0.65" stroke-miterlimit="10" stroke-linecap="round"/>
<path d="M354.49 79.13C354.49 79.13 357.79 74.83 358.19 74.73C358.59 74.63 361.09 73.73 361.09 73.73" fill="#FEC2A0"/>
<path d="M354.49 79.13C354.49 79.13 357.79 74.83 358.19 74.73C358.59 74.63 361.09 73.73 361.09 73.73" stroke="#F99979" stroke-width="0.65" stroke-miterlimit="10" stroke-linecap="round"/>
<path d="M356.29 82.03C357.96 82.7055 359.706 83.1756 361.49 83.43C360.781 83.8148 359.983 84.0079 359.177 83.9904C358.37 83.9728 357.582 83.7452 356.89 83.33L356.29 82.03Z" fill="#F99979"/>
<path d="M355.79 78.93C355.79 78.93 357.89 76.63 359.09 76.63C359.852 76.5561 360.596 76.3532 361.29 76.03" fill="#FEC2A0"/>
<path d="M355.79 78.93C355.79 78.93 357.89 76.63 359.09 76.63C359.852 76.5561 360.596 76.3532 361.29 76.03" stroke="#F99979" stroke-width="0.65" stroke-miterlimit="10" stroke-linecap="round"/>
<path d="M175.79 95.6299C175.79 95.6299 203.39 149.43 207.59 149.23C217.39 138.13 205.39 112.83 204.99 109.53C204.59 106.23 200.69 99.2299 195.19 98.1299C189.69 97.0299 175.79 95.6299 175.79 95.6299Z" fill="#7794FF"/>
<path d="M173.39 91.73C173.39 91.73 194.09 94.93 199.19 96.93C205.19 99.33 207.99 105.33 209.29 109.63C209.89 111.53 209.59 112.33 206.69 112.43H203.49C203.49 112.43 199.39 103.63 198.29 102.53C196.29 100.63 184.19 99.23 180.49 98.63C178.864 98.087 177.381 97.1847 176.152 95.9902C174.923 94.7956 173.979 93.3395 173.39 91.73Z" fill="#4F6DDB"/>
<path d="M148.99 78.6299C149.123 77.4218 149.021 76.1994 148.69 75.0299C148.19 73.2299 148.49 68.0299 151.79 66.5299C155.09 65.0299 160.29 66.1299 161.79 72.3299C163.29 78.5299 165.89 79.4299 165.89 79.4299C165.89 79.4299 165.79 72.5299 170.99 72.8299C176.19 73.1299 175.79 81.5299 169.89 83.1299C170.236 85.2828 170.982 87.3519 172.09 89.2299C175.19 80.5299 180.59 82.3299 182.99 76.2299C184.03 73.4195 183.98 70.3218 182.852 67.5459C181.723 64.7701 179.596 62.5171 176.89 61.2299C172.19 52.6299 153.69 52.9299 144.49 62.1299C147.69 65.9299 146.89 69.5299 147.39 73.1299C147.69 76.3299 147.79 77.4299 148.99 78.6299Z" fill="#F66A31"/>
<path d="M144.99 62.13C144.99 62.13 166.09 53.03 170.39 72.73" stroke="#D4531D" stroke-width="0.73" stroke-miterlimit="10" stroke-linecap="round"/>
<path d="M144.99 62.13C144.99 62.13 163.89 54.93 168.29 74.73" stroke="#D4531D" stroke-width="0.73" stroke-miterlimit="10" stroke-linecap="round"/>
<path d="M172.29 81.03C172.097 82.8035 172.373 84.5966 173.09 86.23" stroke="#D4531D" stroke-width="0.73" stroke-miterlimit="10" stroke-linecap="round"/>
<path d="M172.79 80.03C173.252 81.3677 174.127 82.5236 175.29 83.33" stroke="#D4531D" stroke-width="0.73" stroke-miterlimit="10" stroke-linecap="round"/>
<path d="M157.79 92.43C158.29 93.93 159.69 95.53 157.39 98.73C160.49 102.03 165.19 112.83 165.19 112.83L175.89 95.53C175.49 95.03 175.19 94.43 174.79 93.93C172.593 90.5774 170.94 86.8987 169.89 83.03C171.024 82.73 172.054 82.1233 172.865 81.2765C173.677 80.4297 174.239 79.3756 174.49 78.23C175.09 75.63 173.89 72.93 170.99 72.73C165.79 72.43 165.89 79.33 165.89 79.33C165.89 79.33 163.29 78.33 161.79 72.23C160.29 66.13 155.09 64.83 151.79 66.43C148.49 68.03 148.19 73.23 148.69 74.93C148.921 76.1155 149.022 77.3227 148.99 78.53C148.983 80.2087 148.815 81.883 148.49 83.53C148.09 86.43 151.29 93.93 157.79 92.43Z" fill="#FEC2A0"/>
<path d="M133.39 125.33C136.29 116.03 152.79 102.83 157.19 99.1299C157.29 99.0299 157.29 98.9299 157.39 98.8299L157.49 98.9299C158.605 100.182 159.998 101.156 161.556 101.774C163.114 102.393 164.796 102.639 166.466 102.494C168.136 102.348 169.749 101.814 171.177 100.935C172.605 100.056 173.808 98.8558 174.69 97.4299L175.79 95.6299C177.69 98.3299 192.09 103.23 195.89 106.13C200.79 109.93 205.89 118.03 207.39 126.83C202.39 132.73 193.59 135.93 190.89 140.53C188.19 147.23 193.09 161.03 193.09 162.73C191.29 164.23 149.39 157.13 149.39 157.13L136.99 127.73C135.84 126.858 134.637 126.056 133.39 125.33Z" fill="#BFBFBF"/>
<path d="M136.99 127.53C143.99 132.23 148.99 135.33 148.99 135.33C148.99 135.33 152.49 156.03 148.39 157.83C144.69 159.43 140.89 160.73 136.49 154.23C133.19 149.53 135.99 138.73 136.99 127.53Z" fill="#F99979"/>
<path d="M155.69 74.3301C155.69 74.3301 156.89 73.5301 159.39 74.7301" stroke="#303134" stroke-width="0.51" stroke-miterlimit="10" stroke-linecap="round"/>
<path d="M150.39 74.63C150.16 74.3484 149.87 74.1215 149.542 73.9658C149.213 73.8102 148.854 73.7296 148.49 73.73" stroke="#303134" stroke-width="0.51" stroke-miterlimit="10" stroke-linecap="round"/>
<path d="M157.09 80.03C157.587 80.03 157.99 79.1793 157.99 78.13C157.99 77.0806 157.587 76.23 157.09 76.23C156.593 76.23 156.19 77.0806 156.19 78.13C156.19 79.1793 156.593 80.03 157.09 80.03Z" fill="#303134"/>
<path d="M149.89 79.6299C150.277 79.6299 150.59 78.9583 150.59 78.1299C150.59 77.3015 150.277 76.6299 149.89 76.6299C149.504 76.6299 149.19 77.3015 149.19 78.1299C149.19 78.9583 149.504 79.6299 149.89 79.6299Z" fill="#303134"/>
<path d="M151.69 80.4299C150.39 81.7299 150.39 84.6299 152.69 83.4299" stroke="#303134" stroke-width="0.51" stroke-miterlimit="10" stroke-linecap="round"/>
<path d="M156.19 84.4299C156.19 84.4299 155.79 86.9299 152.29 86.0299" stroke="#303134" stroke-width="0.51" stroke-miterlimit="10" stroke-linecap="round"/>
<path d="M157.79 92.4299C157.79 92.4299 160.79 91.3299 161.79 88.9299C161.79 92.4299 158.59 94.6299 158.59 94.6299L157.79 92.4299Z" fill="#F99979"/>
<path d="M157.49 82.53C159.423 82.53 160.99 80.963 160.99 79.03C160.99 77.097 159.423 75.53 157.49 75.53C155.557 75.53 153.99 77.097 153.99 79.03C153.99 80.963 155.557 82.53 157.49 82.53Z" stroke="#303134" stroke-width="0.53" stroke-miterlimit="10"/>
<path d="M148.99 82.23C150.591 82.23 151.89 80.663 151.89 78.73C151.89 76.797 150.591 75.23 148.99 75.23C147.388 75.23 146.09 76.797 146.09 78.73C146.09 80.663 147.388 82.23 148.99 82.23Z" stroke="#303134" stroke-width="0.53" stroke-miterlimit="10"/>
<path d="M154.19 78.03H151.79" stroke="#303134" stroke-width="0.53" stroke-miterlimit="10"/>
<path d="M160.99 77.93L167.19 76.23" stroke="#303134" stroke-width="0.53" stroke-miterlimit="10"/>
<path d="M152.39 99.3301C152.39 99.3301 155.19 130.63 157.99 158.43C156.49 158.23 154.09 157.83 152.39 157.53C151.79 134.53 147.69 103.63 147.69 103.63L152.39 99.3301Z" fill="#7794FF"/>
<path d="M183.39 97.23C183.39 97.23 168.29 130.63 175.59 161.23L181.09 162.13C181.09 162.13 173.39 126.93 189.89 98.73L183.39 97.23Z" fill="#7794FF"/>
<path d="M189.89 98.6299L193.59 104.63L187.99 102.03L189.89 98.6299Z" fill="#4F6DDB"/>
<path d="M152.39 99.3301L155.19 100.73L152.69 102.73L152.39 99.3301Z" fill="#4F6DDB"/>
<path d="M162.69 120.93C162.69 120.93 155.29 120.53 153.49 120.13C151.69 119.73 151.39 118.23 152.39 118.03C153.39 117.83 166.29 117.93 166.29 117.93C166.29 117.93 179.69 127.33 185.19 131.13C186.99 132.43 189.89 134.93 193.09 137.83C196.39 134.83 201.39 132.73 204.69 128.93C205.89 135.43 214.49 155.83 213.99 162.03C213.49 168.23 200.69 172.93 193.59 163.23C191.09 159.83 181.89 139.13 181.29 138.33C180.09 136.83 176.99 135.53 174.99 135.33C172.99 135.13 169.09 131.43 168.29 130.53C167.49 129.63 166.59 129.33 165.49 131.03C165.794 131.59 165.997 132.2 166.09 132.83C166.116 132.979 166.094 133.131 166.026 133.266C165.958 133.401 165.849 133.51 165.714 133.577C165.579 133.645 165.426 133.667 165.278 133.64C165.129 133.614 164.993 133.54 164.89 133.43C163.79 132.33 162.39 130.73 162.29 129.73C161.19 129.83 159.79 127.53 159.79 127.53C159.493 127.211 159.268 126.831 159.13 126.417C158.992 126.003 158.944 125.564 158.99 125.13C158.99 123.73 162.69 120.93 162.69 120.93Z" fill="#FEC2A0"/>
<path d="M159.69 127.53C161.29 123.63 166.39 123.33 166.39 123.33C164.91 123.769 163.497 124.408 162.19 125.23C161.09 126.13 159.69 127.53 159.69 127.53Z" fill="#F99979"/>
<path d="M162.29 129.73C163.99 126.43 168.19 126.03 168.19 126.03C167.016 126.511 165.879 127.079 164.79 127.73C163.888 128.306 163.05 128.977 162.29 129.73Z" fill="#F99979"/>
<path d="M162.69 120.93L165.29 120.83L161.89 121.53L162.69 120.93Z" fill="#F99979"/>
<path d="M194.49 139.23L210.89 158.63C210.89 158.63 211.49 155.73 204.79 147.73C198.09 139.73 194.49 139.23 194.49 139.23Z" fill="#F99979"/>
<path d="M207.39 126.73L205.39 131.93C205.101 131.079 204.867 130.211 204.69 129.33C205.19 128.93 207.39 126.73 207.39 126.73Z" fill="#303134"/>
<path d="M336.69 264.83C336.69 264.83 364.29 318.63 368.49 318.43C378.29 307.33 366.29 282.03 365.89 278.73C365.49 275.43 361.59 268.43 356.09 267.33C350.59 266.23 336.69 264.83 336.69 264.83Z" fill="#7794FF"/>
<path d="M334.29 261.03C334.29 261.03 354.99 264.23 360.09 266.23C366.09 268.63 368.89 274.63 370.19 278.93C370.79 280.83 370.49 281.63 367.59 281.73H364.39C364.39 281.73 360.29 272.93 359.19 271.83C357.19 269.93 345.09 268.53 341.39 267.93C339.764 267.387 338.282 266.485 337.053 265.29C335.824 264.096 334.879 262.64 334.29 261.03Z" fill="#4F6DDB"/>
<path d="M309.79 247.83C309.923 246.622 309.821 245.4 309.49 244.23C308.99 242.43 309.29 237.23 312.59 235.73C315.89 234.23 321.09 235.33 322.59 241.53C324.09 247.73 326.69 248.63 326.69 248.63C326.69 248.63 326.59 241.73 331.79 242.03C336.99 242.33 336.59 250.73 330.69 252.33C331.036 254.483 331.782 256.552 332.89 258.43C335.99 249.73 341.39 251.53 343.79 245.43C344.83 242.62 344.78 239.522 343.651 236.746C342.523 233.97 340.396 231.717 337.69 230.43C332.99 221.83 314.49 222.13 305.29 231.33C308.49 235.13 307.69 238.73 308.19 242.33C308.59 245.53 308.69 246.63 309.79 247.83Z" fill="#F66A31"/>
<path d="M305.79 231.33C305.79 231.33 326.89 222.23 331.19 241.93" stroke="#D4531D" stroke-width="0.73" stroke-miterlimit="10" stroke-linecap="round"/>
<path d="M305.79 231.33C305.79 231.33 324.69 224.13 329.09 243.93" stroke="#D4531D" stroke-width="0.73" stroke-miterlimit="10" stroke-linecap="round"/>
<path d="M333.19 250.23C332.997 252.003 333.273 253.797 333.99 255.43" stroke="#D4531D" stroke-width="0.73" stroke-miterlimit="10" stroke-linecap="round"/>
<path d="M333.69 249.23C334.152 250.568 335.028 251.723 336.19 252.53" stroke="#D4531D" stroke-width="0.73" stroke-miterlimit="10" stroke-linecap="round"/>
<path d="M318.69 261.63C319.19 263.13 320.59 264.73 318.29 267.93C321.39 271.23 326.09 282.03 326.09 282.03L336.79 264.73C336.39 264.23 336.09 263.63 335.69 263.13C333.493 259.777 331.839 256.099 330.79 252.23C331.924 251.93 332.953 251.323 333.764 250.476C334.576 249.63 335.138 248.576 335.39 247.43C335.99 244.83 334.79 242.13 331.89 241.93C326.69 241.63 326.79 248.53 326.79 248.53C326.79 248.53 324.19 247.53 322.69 241.43C321.19 235.33 315.99 234.03 312.69 235.63C309.39 237.23 309.09 242.43 309.59 244.13C309.82 245.315 309.921 246.523 309.89 247.73C309.882 249.409 309.715 251.083 309.39 252.73C308.99 255.63 312.09 263.13 318.69 261.63Z" fill="#FEC2A0"/>
<path d="M295.49 295.33C299.09 282.13 313.59 272.03 317.99 268.33C318.09 268.23 318.09 268.13 318.19 268.03L318.29 268.13C319.406 269.382 320.798 270.356 322.356 270.975C323.915 271.593 325.596 271.84 327.266 271.694C328.937 271.548 330.55 271.015 331.978 270.136C333.405 269.256 334.608 268.056 335.49 266.63L336.59 264.83C338.49 267.53 352.89 272.43 356.69 275.33C361.59 279.13 366.69 287.23 368.19 296.03C363.19 301.93 354.39 305.13 351.69 309.73C348.99 316.43 353.89 330.23 353.89 331.93C352.09 333.43 310.19 326.33 310.19 326.33L297.79 296.93C297.105 296.288 296.33 295.749 295.49 295.33Z" fill="#BFBFBF"/>
<path d="M297.89 296.83C304.89 301.53 309.89 304.63 309.89 304.63C309.89 304.63 313.39 325.33 309.29 327.13C305.59 328.73 301.79 330.03 297.39 323.53C294.09 318.73 296.79 307.93 297.89 296.83Z" fill="#F99979"/>
<path d="M316.59 243.53C316.59 243.53 317.79 242.73 320.29 243.93" stroke="#303134" stroke-width="0.51" stroke-miterlimit="10" stroke-linecap="round"/>
<path d="M311.19 243.83C310.96 243.548 310.67 243.321 310.341 243.166C310.013 243.01 309.654 242.93 309.29 242.93" stroke="#303134" stroke-width="0.51" stroke-miterlimit="10" stroke-linecap="round"/>
<path d="M317.99 249.23C318.487 249.23 318.89 248.379 318.89 247.33C318.89 246.281 318.487 245.43 317.99 245.43C317.493 245.43 317.09 246.281 317.09 247.33C317.09 248.379 317.493 249.23 317.99 249.23Z" fill="#303134"/>
<path d="M310.69 248.83C311.077 248.83 311.39 248.159 311.39 247.33C311.39 246.502 311.077 245.83 310.69 245.83C310.304 245.83 309.99 246.502 309.99 247.33C309.99 248.159 310.304 248.83 310.69 248.83Z" fill="#303134"/>
<path d="M312.59 249.73C311.29 251.03 311.29 253.93 313.59 252.73" stroke="#303134" stroke-width="0.51" stroke-miterlimit="10" stroke-linecap="round"/>
<path d="M317.09 253.63C317.09 253.63 316.69 256.13 313.19 255.23" stroke="#303134" stroke-width="0.51" stroke-miterlimit="10" stroke-linecap="round"/>
<path d="M318.69 261.63C318.69 261.63 321.69 260.53 322.69 258.13C322.69 261.63 319.49 263.83 319.49 263.83L318.69 261.63Z" fill="#F99979"/>
<path d="M278.69 277.83V281.63C277.89 279.93 278.59 278.83 278.69 277.83Z" fill="#FEC2A0"/>
<path d="M264.09 274.23C264.89 274.23 268.29 278.93 268.59 278.23C268.89 277.53 267.19 276.43 266.19 275.13C265.19 273.83 263.29 268.33 263.59 267.43C263.89 266.53 265.39 267.83 265.39 267.83C265.39 267.83 264.39 266.53 265.39 266.03C266.39 265.53 267.99 269.03 268.89 270.53C269.995 272.038 271.234 273.443 272.59 274.73C272.59 274.73 270.89 271.83 270.39 270.63C269.89 269.43 268.19 265.23 269.29 264.93C270.39 264.63 271.19 267.33 271.19 267.33C271.19 267.33 273.79 271.83 274.69 273.23C275.937 274.741 277.273 276.177 278.69 277.53V278.03C278.59 279.13 277.89 280.13 278.69 281.83V277.53C278.684 275.371 278.953 273.221 279.49 271.13C279.89 269.63 281.59 267.73 281.59 269.83C281.59 271.93 281.19 274.23 282.19 277.53C282.77 279.692 282.77 281.968 282.19 284.13C282.19 284.13 302.29 305.93 307.49 313.03C314.69 322.83 310.39 331.43 302.39 329.53C292.89 327.23 276.19 289.43 275.39 288.13C273.567 285.713 271.525 283.471 269.29 281.43C267.55 280.122 265.973 278.611 264.59 276.93C263.29 274.93 263.29 274.23 264.09 274.23Z" fill="#FEC2A0"/>
<path d="M277.99 246.03L291.29 273.33C291.29 273.33 282.89 276.73 275.09 280.43C267.49 284.13 263.49 292.53 263.49 292.53L244.59 259.53C244.59 259.53 250.99 253.83 261.79 255.73C261.89 250.03 277.99 246.03 277.99 246.03Z" fill="#BFBFBF"/>
<path d="M244.69 259.63L243.69 266.73L259.19 292.23L263.49 292.63L244.69 259.63Z" fill="#7794FF"/>
<path d="M261.89 255.83L275.79 280.23L273.79 281.23L261.89 255.83Z" fill="#DBDBDB"/>
<path d="M266.89 250.13L277.99 272.33L276.59 271.43L276.69 273.43L265.49 250.93L266.89 250.13Z" fill="#7794FF"/>
<path d="M318.39 251.73C320.323 251.73 321.89 250.163 321.89 248.23C321.89 246.297 320.323 244.73 318.39 244.73C316.457 244.73 314.89 246.297 314.89 248.23C314.89 250.163 316.457 251.73 318.39 251.73Z" stroke="#303134" stroke-width="0.53" stroke-miterlimit="10"/>
<path d="M309.89 251.43C311.492 251.43 312.79 249.863 312.79 247.93C312.79 245.997 311.492 244.43 309.89 244.43C308.289 244.43 306.99 245.997 306.99 247.93C306.99 249.863 308.289 251.43 309.89 251.43Z" stroke="#303134" stroke-width="0.53" stroke-miterlimit="10"/>
<path d="M314.99 247.23H312.69" stroke="#303134" stroke-width="0.53" stroke-miterlimit="10"/>
<path d="M321.89 247.13L327.99 245.43" stroke="#303134" stroke-width="0.53" stroke-miterlimit="10"/>
<path d="M278.89 278.03C279.59 280.13 280.69 281.53 282.59 281.73C282.914 279.937 282.846 278.094 282.39 276.33C281.39 273.03 281.79 270.73 281.79 268.63C281.79 266.53 280.09 268.33 279.69 269.93C279.196 272.029 278.927 274.174 278.89 276.33V278.03Z" fill="#FEC2A0"/>
<path d="M313.29 268.53C313.29 268.53 316.09 299.83 318.89 327.63C317.39 327.43 314.99 327.03 313.29 326.73C312.69 303.73 308.59 272.83 308.59 272.83L313.29 268.53Z" fill="#7794FF"/>
<path d="M344.29 266.43C344.29 266.43 329.19 299.83 336.49 330.43L341.99 331.33C341.99 331.33 334.29 296.13 350.79 267.93L344.29 266.43Z" fill="#7794FF"/>
<path d="M350.79 267.83L354.49 273.83L348.89 271.23L350.79 267.83Z" fill="#4F6DDB"/>
<path d="M313.29 268.53L316.09 269.93L313.59 272.03L313.29 268.53Z" fill="#4F6DDB"/>
<path d="M323.49 290.13C323.49 290.13 316.09 289.73 314.29 289.33C312.49 288.93 312.19 287.43 313.19 287.23C314.19 287.03 327.09 287.13 327.09 287.13C327.09 287.13 340.49 296.53 345.99 300.33C347.79 301.63 350.69 304.13 353.89 307.03C357.19 304.03 362.19 301.93 365.49 298.13C366.69 304.63 375.29 325.03 374.79 331.23C374.29 337.43 361.49 342.13 354.39 332.43C351.89 329.03 342.69 308.33 342.09 307.53C340.89 306.03 337.79 304.73 335.79 304.53C333.79 304.33 329.89 300.63 329.09 299.73C328.29 298.83 327.39 298.53 326.29 300.23C326.594 300.79 326.797 301.4 326.89 302.03C326.916 302.178 326.894 302.331 326.826 302.466C326.758 302.601 326.648 302.71 326.514 302.777C326.379 302.845 326.226 302.867 326.077 302.84C325.929 302.814 325.793 302.74 325.69 302.63C324.59 301.53 323.19 299.93 323.09 298.93C321.99 299.03 320.59 296.73 320.59 296.73C320.293 296.41 320.067 296.031 319.929 295.617C319.791 295.203 319.744 294.764 319.79 294.33C319.89 292.93 323.49 290.13 323.49 290.13Z" fill="#FEC2A0"/>
<path d="M320.59 296.83C322.19 292.93 327.29 292.63 327.29 292.63C325.81 293.069 324.397 293.708 323.09 294.53C322.2 295.232 321.364 296.001 320.59 296.83Z" fill="#F99979"/>
<path d="M323.09 298.93C324.79 295.63 328.99 295.23 328.99 295.23C327.816 295.711 326.679 296.279 325.59 296.93C324.59 297.63 323.09 298.93 323.09 298.93Z" fill="#F99979"/>
<path d="M323.49 290.13L326.09 290.03L322.79 290.73L323.49 290.13Z" fill="#F99979"/>
<path d="M355.39 308.43L371.79 327.83C371.79 327.83 372.39 324.93 365.69 316.93C358.99 308.93 355.39 308.43 355.39 308.43Z" fill="#F99979"/>
<path d="M368.29 295.93L366.29 301.13C366 300.279 365.766 299.411 365.59 298.53C365.99 298.13 368.29 295.93 368.29 295.93Z" fill="#303134"/>
<path d="M214.09 28.3301C211.04 28.3301 208.114 29.5417 205.958 31.6983C203.801 33.855 202.59 36.7801 202.59 39.8301C202.19 49.3301 211.59 64.7301 214.09 64.7301C216.59 64.7301 225.59 51.3301 225.59 39.8301C225.571 36.7858 224.354 33.8713 222.201 31.7186C220.048 29.5659 217.134 28.3484 214.09 28.3301ZM214.09 33.6301C215.336 33.6301 216.554 33.9996 217.59 34.6918C218.626 35.3841 219.433 36.368 219.91 37.5192C220.387 38.6703 220.512 39.9371 220.268 41.1591C220.025 42.3812 219.425 43.5038 218.544 44.3849C217.663 45.2659 216.541 45.8659 215.319 46.109C214.097 46.3521 212.83 46.2274 211.679 45.7505C210.527 45.2737 209.544 44.4662 208.851 43.4302C208.159 42.3941 207.79 41.1761 207.79 39.9301C207.786 39.1016 207.946 38.2806 208.261 37.5145C208.576 36.7483 209.04 36.0522 209.626 35.4664C210.212 34.8806 210.908 34.4167 211.674 34.1015C212.44 33.7863 213.261 33.6261 214.09 33.6301Z" fill="#029D41"/>
<path d="M225.89 277.73C222.84 277.73 219.915 278.942 217.759 281.098C215.602 283.255 214.39 286.18 214.39 289.23C213.99 298.73 223.39 314.13 225.89 314.13C228.39 314.13 237.39 300.73 237.39 289.23C237.372 286.186 236.154 283.271 234.002 281.119C231.849 278.966 228.935 277.748 225.89 277.73ZM225.89 283.03C227.136 283.03 228.354 283.399 229.39 284.092C230.426 284.784 231.234 285.768 231.711 286.919C232.188 288.07 232.312 289.337 232.069 290.559C231.826 291.781 231.226 292.904 230.345 293.785C229.464 294.666 228.341 295.266 227.119 295.509C225.897 295.752 224.631 295.627 223.479 295.15C222.328 294.674 221.344 293.866 220.652 292.83C219.96 291.794 219.59 290.576 219.59 289.33C219.586 288.502 219.747 287.681 220.062 286.914C220.377 286.148 220.841 285.452 221.427 284.866C222.012 284.281 222.709 283.817 223.475 283.501C224.241 283.186 225.062 283.026 225.89 283.03Z" fill="#FFC61A"/>
<path d="M187.99 230.13C199.19 240.83 204.49 260.53 195.89 274.13C166.69 320.23 108.89 321.23 108.09 297.93C107.29 274.63 171.99 272.73 207.39 322.23" stroke="#FFC61A" stroke-width="2" stroke-miterlimit="10" stroke-linecap="round" stroke-dasharray="6 6"/>
<path d="M214.09 147.43C233.29 173.83 209.59 200.93 178.89 214.63C150.29 227.33 115.19 228.23 108.89 215.83C97.4901 193.13 143.39 180.33 182.59 225.63" stroke="#FF9C1A" stroke-width="2" stroke-miterlimit="10" stroke-linecap="round" stroke-dasharray="6 6"/>
<path d="M381.19 164.13C383.69 144.43 332.29 134.53 293.79 154.83C285.29 159.33 277.09 168.13 270.59 175.73" stroke="#FFC61A" stroke-width="2" stroke-miterlimit="10" stroke-linecap="round" stroke-dasharray="6 6"/>
<path d="M249.79 108.83C240.09 134.53 271.89 151.23 309.39 168.83C336.49 181.63 374.09 192.83 380.39 169.43" stroke="#FF9C1A" stroke-width="2" stroke-miterlimit="10" stroke-linecap="round" stroke-dasharray="6 6"/>
<path d="M269.49 90.1299C259.69 95.7299 254.59 101.63 251.29 105.03" stroke="#029D41" stroke-width="2" stroke-miterlimit="10" stroke-linecap="round" stroke-dasharray="5.51 5.51"/>
<path d="M313.09 70.53C302.79 73.63 292.69 78.43 283.69 82.53" stroke="#029D41" stroke-width="2" stroke-miterlimit="10" stroke-linecap="round" stroke-dasharray="6 6"/>
<path d="M214.09 64.73C225.59 130.03 382.84 134.23 385.14 84.23C385.64 73.33 372.89 65.73 354.69 65.63C345.29 65.63 335.49 66.53 335.49 66.53" stroke="#029D41" stroke-width="2" stroke-miterlimit="10" stroke-linecap="round" stroke-dasharray="6 6"/>
<path d="M371.79 235.03C345.49 188.53 251.09 204.23 251.09 204.23" stroke="#029D41" stroke-width="2" stroke-miterlimit="10" stroke-linecap="round" stroke-dasharray="6 6"/>
<path d="M276.79 301.03C271.79 303.83 269.89 307.73 272.59 312.63C283.19 332.33 397.79 287.23 374.99 239.63" stroke="#FF9C1A" stroke-width="2" stroke-miterlimit="10" stroke-linecap="round" stroke-dasharray="6 6"/>
<path d="M382.99 340.83C411.39 316.63 384.89 297.23 372.29 294.03" stroke="#FF9C1A" stroke-width="2" stroke-miterlimit="10" stroke-linecap="round" stroke-dasharray="6 6"/>
<path d="M225.89 313.73C261.89 383.13 360.19 361.63 383.09 340.73" stroke="#FFC61A" stroke-width="2" stroke-miterlimit="10" stroke-linecap="round" stroke-dasharray="6 6"/>
<path d="M146.59 143.63C141.89 137.23 120.69 114.93 117.89 112.33C116.888 111.437 115.738 110.726 114.49 110.23C110.79 110.63 107.19 111.83 103.49 112.73C102.701 113.827 101.519 114.579 100.19 114.83L113.29 120.93C113.876 120.583 114.52 120.346 115.19 120.23H115.29C118.69 127.53 132.99 158.03 141.49 160.13C149.49 162.03 153.79 153.43 146.59 143.63Z" fill="#FEC2A0"/>
<path d="M87.0898 114.83C87.0898 114.83 87.8898 113.53 89.7898 114.33C90.7175 114.653 91.5686 115.163 92.2898 115.83" stroke="#F99979" stroke-width="0.33" stroke-miterlimit="10"/>
<path d="M117.19 105.03C117.69 104.73 118.19 104.43 118.19 104.03C118.19 103.33 117.09 103.13 116.79 102.93C116.49 102.73 116.39 102.23 116.69 102.03C117.19 101.53 117.89 101.73 117.89 100.83C117.89 99.93 115.19 98.63 116.49 97.03C117.59 95.73 118.19 95.53 117.89 94.53C117.39 93.03 113.29 91.23 112.09 89.23C111.39 88.13 111.79 84.63 111.49 83.13C111.19 81.63 110.09 79.23 105.59 76.13C103.393 74.7648 100.875 74.0057 98.2896 73.93C96.3252 73.7477 94.3468 73.7812 92.3896 74.03C94.6896 74.23 101.39 74.73 103.49 76.13C107.99 79.23 107.69 81.53 107.99 83.13C108.29 84.73 107.89 88.13 108.59 89.23C109.69 91.13 112.99 92.93 113.39 94.53C113.69 95.43 113.09 95.63 111.99 97.03C110.59 98.63 113.39 99.93 113.39 100.83C113.39 101.73 112.59 101.53 112.19 102.03C112.124 102.09 112.074 102.164 112.043 102.246C112.012 102.329 112.001 102.418 112.011 102.505C112.02 102.593 112.051 102.677 112.099 102.751C112.148 102.825 112.213 102.886 112.29 102.93C112.49 103.03 113.69 103.33 113.69 104.03C113.69 104.53 113.09 104.73 112.69 105.03C112.09 105.43 111.89 106.33 112.29 107.53C112.89 108.93 111.99 110.73 109.69 111.53C107.39 112.33 103.79 112.23 101.99 112.63C98.8896 113.43 98.5897 116.73 96.2896 117.53C95.764 117.667 95.2294 117.768 94.6897 117.83C94.7897 117.93 94.7896 118.03 94.8896 118.13C96.5413 118.13 98.1867 117.928 99.7896 117.53C102.09 116.73 102.89 113.43 104.79 112.93C106.09 112.63 111.69 112.43 114.09 111.53C116.49 110.63 117.69 108.93 117.19 107.53C116.89 106.33 116.59 105.43 117.19 105.03Z" fill="#F2AA79"/>
<path d="M112.49 102.93C112.19 102.73 112.09 102.23 112.39 102.03C112.89 101.53 113.59 101.73 113.59 100.83C113.59 99.9301 110.89 98.6301 112.19 97.0301C113.29 95.7301 113.89 95.5301 113.59 94.5301C113.09 93.0301 109.89 91.2301 108.79 89.2301C108.09 88.1301 108.49 84.6301 108.19 83.1301C107.89 81.6301 108.19 79.2301 103.69 76.1301C101.519 74.8033 99.0343 74.0785 96.4904 74.0301C95.1591 73.9278 93.8218 73.9278 92.4904 74.0301C95.0379 74.1425 97.5152 74.8994 99.6904 76.2301C104.19 79.3301 104.39 81.6301 104.69 83.2301C104.99 84.8301 104.59 88.2301 105.29 89.3301C106.39 91.2301 109.69 93.0301 110.09 94.6301C110.39 95.5301 109.79 95.7301 108.69 97.1301C107.29 98.7301 110.09 100.03 110.09 100.93C110.09 101.83 109.29 101.63 108.89 102.13C108.825 102.19 108.775 102.264 108.744 102.346C108.713 102.429 108.702 102.518 108.711 102.606C108.721 102.693 108.751 102.777 108.8 102.851C108.848 102.925 108.914 102.986 108.99 103.03C109.19 103.13 110.39 103.43 110.39 104.13C110.39 104.63 109.79 104.83 109.39 105.13C108.79 105.53 108.59 106.43 108.99 107.63C109.59 109.03 107.99 111.33 105.39 111.73C103.09 112.03 99.4904 110.63 97.0904 113.03C95.5904 114.43 95.2904 116.23 92.9904 117.03C92.4009 117.207 91.7993 117.34 91.1904 117.43L91.4904 118.33C93.1749 118.327 94.8531 118.126 96.4904 117.73C98.7904 116.93 99.1904 113.63 102.19 112.83C103.99 112.43 107.49 112.53 109.89 111.73C112.29 110.93 113.09 109.13 112.49 107.73C112.258 107.331 112.172 106.864 112.244 106.409C112.317 105.953 112.546 105.537 112.89 105.23C113.39 104.93 113.89 104.63 113.89 104.23C113.89 103.33 112.69 103.03 112.49 102.93Z" fill="#F37F2F"/>
<path d="M79.2898 81.43C80.5049 81.43 81.4898 80.4451 81.4898 79.23C81.4898 78.015 80.5049 77.03 79.2898 77.03C78.0748 77.03 77.0898 78.015 77.0898 79.23C77.0898 80.4451 78.0748 81.43 79.2898 81.43Z" fill="#F37F2F"/>
<path d="M82.1902 105.13C83.4053 105.13 84.3902 104.145 84.3902 102.93C84.3902 101.715 83.4053 100.73 82.1902 100.73C80.9752 100.73 79.9902 101.715 79.9902 102.93C79.9902 104.145 80.9752 105.13 82.1902 105.13Z" fill="#F37F2F"/>
<path d="M75.89 93.8299C77.326 93.8299 78.49 92.6658 78.49 91.2299C78.49 89.7939 77.326 88.6299 75.89 88.6299C74.4541 88.6299 73.29 89.7939 73.29 91.2299C73.29 92.6658 74.4541 93.8299 75.89 93.8299Z" fill="#F37F2F"/>
<path d="M93.5902 85.3299C94.4739 85.3299 95.1902 84.6135 95.1902 83.7299C95.1902 82.8462 94.4739 82.1299 93.5902 82.1299C92.7066 82.1299 91.9902 82.8462 91.9902 83.7299C91.9902 84.6135 92.7066 85.3299 93.5902 85.3299Z" fill="#F37F2F"/>
<path d="M92.79 76.73C93.6185 76.73 94.29 76.0584 94.29 75.23C94.29 74.4016 93.6185 73.73 92.79 73.73C91.9616 73.73 91.29 74.4016 91.29 75.23C91.29 76.0584 91.9616 76.73 92.79 76.73Z" fill="#F37F2F"/>
<path d="M87.89 91.8299C88.7737 91.8299 89.49 91.1135 89.49 90.2299C89.49 89.3462 88.7737 88.6299 87.89 88.6299C87.0064 88.6299 86.29 89.3462 86.29 90.2299C86.29 91.1135 87.0064 91.8299 87.89 91.8299Z" fill="#F37F2F"/>
<path d="M89.7896 99.1301C90.5628 99.1301 91.1897 98.5033 91.1897 97.7301C91.1897 96.9569 90.5628 96.3301 89.7896 96.3301C89.0165 96.3301 88.3896 96.9569 88.3896 97.7301C88.3896 98.5033 89.0165 99.1301 89.7896 99.1301Z" fill="#F37F2F"/>
<path d="M91.9898 108.23C92.763 108.23 93.3898 107.603 93.3898 106.83C93.3898 106.057 92.763 105.43 91.9898 105.43C91.2166 105.43 90.5898 106.057 90.5898 106.83C90.5898 107.603 91.2166 108.23 91.9898 108.23Z" fill="#F37F2F"/>
<path d="M84.69 115.03C85.4632 115.03 86.09 114.403 86.09 113.63C86.09 112.857 85.4632 112.23 84.69 112.23C83.9168 112.23 83.29 112.857 83.29 113.63C83.29 114.403 83.9168 115.03 84.69 115.03Z" fill="#F37F2F"/>
<path d="M80.79 78.63L91.99 75.53" stroke="#F37F2F" stroke-width="0.46" stroke-miterlimit="10"/>
<path d="M80.79 79.4299L92.99 83.5299" stroke="#F37F2F" stroke-width="0.46" stroke-miterlimit="10"/>
<path d="M80.1904 80.3301L87.5904 89.7301" stroke="#F37F2F" stroke-width="0.46" stroke-miterlimit="10"/>
<path d="M79.0898 80.6299L76.0898 89.7299" stroke="#F37F2F" stroke-width="0.46" stroke-miterlimit="10"/>
<path d="M76.6904 92.8301C76.7904 92.8301 81.4904 101.83 81.4904 101.83" stroke="#F37F2F" stroke-width="0.46" stroke-miterlimit="10"/>
<path d="M83.5898 102.03L89.3898 98.03" stroke="#F37F2F" stroke-width="0.46" stroke-miterlimit="10"/>
<path d="M83.29 103.53C83.39 103.53 91.89 106.93 91.89 106.93" stroke="#F37F2F" stroke-width="0.46" stroke-miterlimit="10"/>
<path d="M82.5898 104.23L84.3898 112.83" stroke="#F37F2F" stroke-width="0.46" stroke-miterlimit="10"/>
<path d="M99.8903 114.93C97.7903 115.33 95.5903 115.73 93.3903 114.93C91.1903 114.13 88.6903 112.13 87.2903 112.63C85.8903 113.13 86.0903 114.23 86.9903 114.73C86.8903 115.53 86.8902 115.93 88.5902 116.63C90.2902 117.33 91.8903 119.73 93.3903 120.43C95.2635 121.118 97.2096 121.587 99.1903 121.83C101.887 122.398 104.634 122.7 107.39 122.73C109.425 122.463 111.392 121.818 113.19 120.83L103.39 114.93C103.39 115.03 99.9903 114.93 99.8903 114.93Z" fill="#FEC2A0"/>
<path d="M101.99 122.03C101.79 122.03 93.2899 118.13 92.2899 117.53C91.2899 116.93 91.2899 115.63 93.0899 115.73C94.8899 115.83 97.5899 117.43 98.5899 117.83C100.183 118.287 101.832 118.522 103.49 118.53" stroke="#F99979" stroke-width="0.33" stroke-miterlimit="10"/>
<path d="M117.39 89.3301C129.69 90.1301 140.69 97.5301 147.69 103.63" stroke="#029D41" stroke-width="2" stroke-miterlimit="10" stroke-linecap="round" stroke-dasharray="6 6"/>
<path d="M214.09 64.73C207.39 154.53 81.4903 168.83 73.2903 123.43C71.8903 115.43 72.8903 110.93 77.0903 106.93" stroke="#029D41" stroke-width="2" stroke-miterlimit="10" stroke-linecap="round" stroke-dasharray="6 6"/>
<path d="M359.69 68.63C359.3 65.9516 359.505 63.2203 360.29 60.63C360.99 58.43 360.09 57.53 359.09 58.33C358.39 59.03 357.49 60.23 357.09 63.33C356.908 65.0406 356.821 66.7599 356.83 68.48L359.71 68.77C359.71 68.77 359.69 68.68 359.69 68.63Z" fill="#FEC2A0"/>
<path d="M11.8203 193.83H49.0603" stroke="#FF9C1A" stroke-miterlimit="10" stroke-linecap="round"/>
<path d="M14.0098 169.53V196.28" stroke="#FF9C1A" stroke-miterlimit="10" stroke-linecap="round"/>
<path d="M18.5596 193.83C20.1974 188.304 22.3571 182.947 25.0096 177.83C26.2883 175.521 28.1637 173.597 30.44 172.26C32.7162 170.923 35.3098 170.222 37.9496 170.23H49.0596" stroke="#FF9C1A" stroke-miterlimit="10" stroke-linecap="round"/>
<path d="M18.5596 193.83C21.1182 189.427 24.017 185.231 27.2296 181.28C31.2296 176.4 36.7496 175.03 42.1196 175.03H49.0596" stroke="#FF9C1A" stroke-miterlimit="10" stroke-linecap="round"/>
<path d="M19.5596 192.97C19.5596 192.97 29.0896 180.63 42.1196 180.63H49.0596" stroke="#FF9C1A" stroke-miterlimit="10" stroke-linecap="round"/>
</svg>
