<svg id="Слой_2" data-name="Слой 2" xmlns="http://www.w3.org/2000/svg" xmlns:xlink="http://www.w3.org/1999/xlink" viewBox="0 0 385.27 331.88"><defs><style>.cls-1,.cls-10,.cls-11,.cls-12,.cls-13,.cls-14,.cls-15,.cls-21,.cls-23,.cls-25,.cls-28,.cls-31,.cls-33,.cls-34{fill:none;}.cls-2{fill:#4f6ddb;}.cls-3{fill:#fff;}.cls-4{clip-path:url(#clip-path);}.cls-5{fill:#fe3737;}.cls-6{fill:#f6eeca;}.cls-7{fill:#f56930;}.cls-8{fill:#ffc61a;}.cls-16,.cls-9{fill:#029d41;}.cls-10{stroke:#f6eeca;}.cls-10,.cls-11,.cls-21,.cls-24,.cls-31,.cls-34{stroke-linecap:round;}.cls-10,.cls-11,.cls-12,.cls-13,.cls-14,.cls-15,.cls-21,.cls-23,.cls-24,.cls-25,.cls-28,.cls-31,.cls-33,.cls-34{stroke-miterlimit:10;}.cls-10,.cls-33{stroke-width:2px;}.cls-11,.cls-15{stroke:#029d41;}.cls-11,.cls-34{stroke-width:3px;}.cls-12{stroke:#fe3737;}.cls-12,.cls-13{stroke-width:2.87px;}.cls-13{stroke:#4f6ddb;}.cls-14,.cls-34{stroke:#fff;}.cls-14{stroke-width:2.15px;}.cls-16{font-size:10.2px;font-family:MyriadPro-Regular, Myriad Pro;}.cls-17{letter-spacing:-0.08em;}.cls-18{fill:#494a4f;}.cls-19,.cls-24{fill:#fec2a0;}.cls-20{fill:#303134;}.cls-21,.cls-31{stroke:#303134;}.cls-21{stroke-width:0.99px;}.cls-22{fill:#f99979;}.cls-23{stroke:#f99055;stroke-width:0.88px;}.cls-24{stroke:#f99979;stroke-width:1.58px;}.cls-25{stroke:#1d1d1f;stroke-width:1.42px;}.cls-26{fill:#8698db;}.cls-27{fill:#5f7ce8;}.cls-28{stroke:#5f7ce8;stroke-width:1.58px;}.cls-29{fill:#535357;}.cls-30{clip-path:url(#clip-path-2);}.cls-31{stroke-width:0.25px;}.cls-32{fill:#4964c9;}.cls-33{stroke:#4964c9;}</style><clipPath id="clip-path" transform="translate(-27.54 -33.17)"><path class="cls-1" d="M326.82,42.29a14.93,14.93,0,1,0,14.93,14.93A14.93,14.93,0,0,0,326.82,42.29Z"/></clipPath><clipPath id="clip-path-2" transform="translate(-27.54 -33.17)"><rect class="cls-1" x="332.17" y="280.51" width="25.33" height="24"/></clipPath></defs><title>Qualifications_dark_mode</title><rect class="cls-2" x="17.48" y="10.54" width="65.17" height="42.88" rx="4.7" ry="4.7"/><rect class="cls-3" x="22.1" y="15.1" width="55.92" height="33.76" rx="3.86" ry="3.86"/><g class="cls-4"><path class="cls-3" d="M341.75,57.22A14.93,14.93,0,0,1,312,58.8h14.85V42.29A14.93,14.93,0,0,1,341.75,57.22Z" transform="translate(-27.54 -33.17)"/><rect class="cls-5" x="299.29" y="8.54" width="9.22" height="3.77"/><rect class="cls-5" x="299.29" y="15.35" width="16.68" height="3.77"/><rect class="cls-5" x="299.29" y="21.86" width="16.68" height="3.77"/><rect class="cls-5" x="283.18" y="28.85" width="32.79" height="3.77"/><rect class="cls-5" x="283.18" y="35.85" width="32.79" height="3.77"/><path class="cls-2" d="M326.82,42.29V58.8H312a14.93,14.93,0,0,1,14.85-16.51Z" transform="translate(-27.54 -33.17)"/><polygon class="cls-3" points="288.06 15.66 289.11 15.86 288.32 16.57 288.46 17.62 287.54 17.09 286.58 17.55 286.8 16.52 286.07 15.75 287.12 15.63 287.63 14.7 288.06 15.66"/><polygon class="cls-3" points="288.06 20.22 289.11 20.41 288.32 21.12 288.46 22.17 287.54 21.65 286.58 22.11 286.8 21.07 286.07 20.3 287.12 20.18 287.63 19.25 288.06 20.22"/><polygon class="cls-3" points="291.1 13.28 292.14 13.47 291.36 14.18 291.5 15.24 290.58 14.71 289.62 15.17 289.84 14.13 289.11 13.36 290.16 13.25 290.66 12.31 291.1 13.28"/><polygon class="cls-3" points="294.14 11.04 295.18 11.23 294.4 11.94 294.54 12.99 293.62 12.47 292.66 12.93 292.88 11.89 292.14 11.12 293.2 11.01 293.7 10.07 294.14 11.04"/><polygon class="cls-3" points="294.14 15.56 295.18 15.76 294.4 16.47 294.54 17.52 293.62 16.99 292.66 17.45 292.88 16.41 292.14 15.65 293.2 15.53 293.7 14.6 294.14 15.56"/><polygon class="cls-3" points="294.14 20.09 295.18 20.28 294.4 21 294.54 22.05 293.62 21.52 292.66 21.98 292.88 20.94 292.14 20.18 293.2 20.06 293.7 19.12 294.14 20.09"/><polygon class="cls-3" points="297.21 13.28 298.25 13.47 297.46 14.18 297.61 15.24 296.69 14.71 295.73 15.17 295.94 14.13 295.21 13.36 296.27 13.25 296.77 12.31 297.21 13.28"/><polygon class="cls-3" points="297.21 17.97 298.25 18.16 297.46 18.87 297.61 19.92 296.69 19.39 295.73 19.86 295.94 18.82 295.21 18.05 296.27 17.93 296.77 17 297.21 17.97"/><polygon class="cls-3" points="297.21 22.65 298.25 22.84 297.46 23.55 297.61 24.61 296.69 24.08 295.73 24.54 295.94 23.5 295.21 22.73 296.27 22.62 296.77 21.68 297.21 22.65"/><polygon class="cls-3" points="291.1 22.65 292.14 22.84 291.36 23.55 291.5 24.61 290.58 24.08 289.62 24.54 289.84 23.5 289.11 22.73 290.16 22.62 290.66 21.68 291.1 22.65"/><polygon class="cls-3" points="285.02 22.65 286.07 22.84 285.28 23.55 285.42 24.61 284.5 24.08 283.54 24.54 283.76 23.5 283.03 22.73 284.08 22.62 284.58 21.68 285.02 22.65"/><polygon class="cls-3" points="291.1 17.97 292.14 18.16 291.36 18.87 291.5 19.92 290.58 19.39 289.62 19.86 289.84 18.82 289.11 18.05 290.16 17.93 290.66 17 291.1 17.97"/></g><path class="cls-2" d="M287.75,42.29a14.93,14.93,0,1,0,14.93,14.93A14.93,14.93,0,0,0,287.75,42.29Z" transform="translate(-27.54 -33.17)"/><path class="cls-3" d="M296.76,49.72V62c-7.34-1.48-8.86,1.85-9,2.19v0h0V51.43C291.46,47.05,296.76,49.72,296.76,49.72Z" transform="translate(-27.54 -33.17)"/><path class="cls-5" d="M298.49,50.83V65.53a11.56,11.56,0,0,0-10.74-1.26h0v0c.13-.34,1.65-3.67,9-2.19V50.83Z" transform="translate(-27.54 -33.17)"/><path class="cls-3" d="M287.75,51.43V64.27h0v0c-.13-.34-1.65-3.67-9-2.19V49.72S284,47.05,287.75,51.43Z" transform="translate(-27.54 -33.17)"/><path class="cls-5" d="M287.75,64.27A11.56,11.56,0,0,0,277,65.53V50.83h1.74V62c7.34-1.48,8.86,1.85,9,2.19v0Z" transform="translate(-27.54 -33.17)"/><path class="cls-2" d="M365.5,42.29a14.93,14.93,0,1,0,14.93,14.93A14.93,14.93,0,0,0,365.5,42.29Z" transform="translate(-27.54 -33.17)"/><path class="cls-3" d="M376.47,51.19V63.74c-8.94-1.51-10.79,1.88-11,2.23v0h0V52.93C370,48.47,376.47,51.19,376.47,51.19Z" transform="translate(-27.54 -33.17)"/><path class="cls-3" d="M365.5,52.93V66h0v0c-.16-.35-2-3.74-11-2.23V51.19S361,48.47,365.5,52.93Z" transform="translate(-27.54 -33.17)"/><rect class="cls-5" x="361.96" y="52.15" width="12.33" height="2.19" transform="translate(65.88 270.86) rotate(-50.62)"/><path class="cls-5" d="M373.27,48.71l-1.69-1.39.67-.82a.52.52,0,0,1,.73-.07l.89.73a.52.52,0,0,1,.07.73Z" transform="translate(-27.54 -33.17)"/><polygon class="cls-5" points="335.42 24.65 334.4 27.63 337.12 26.04 335.42 24.65"/><rect class="cls-6" y="111.78" width="68.54" height="68.54" rx="4.33" ry="4.33"/><path class="cls-7" d="M297.93,88.28H380.1a5.17,5.17,0,0,1,5.17,5.17v23.17a5.17,5.17,0,0,1-5.17,5.17H292.77a0,0,0,0,1,0,0V93.45A5.17,5.17,0,0,1,297.93,88.28Z"/><polygon class="cls-7" points="292.77 121.78 292.77 133.28 314.16 121.78 292.77 121.78"/><rect class="cls-8" x="314.16" y="132.16" width="71.11" height="13.89" rx="6.94" ry="6.94"/><rect class="cls-9" x="314.16" y="153.66" width="71.11" height="13.89" rx="6.94" ry="6.94"/><rect class="cls-5" x="314.16" y="175.16" width="71.11" height="13.89" rx="6.94" ry="6.94"/><rect class="cls-3" x="303.46" y="96.66" width="72.56" height="4.25" rx="2.12" ry="2.12"/><rect class="cls-3" x="303.46" y="106.28" width="72.56" height="4.25" rx="2.12" ry="2.12"/><circle class="cls-3" cx="321.85" cy="139.19" r="4.72"/><circle class="cls-3" cx="321.85" cy="160.6" r="4.72"/><circle class="cls-3" cx="321.85" cy="182.02" r="4.72"/><rect class="cls-10" x="99.54" y="11.65" width="27.21" height="27.21"/><path class="cls-11" d="M133.58,48.75l6.9,15.13a.21.21,0,0,0,.39,0l11.6-29.14" transform="translate(-27.54 -33.17)"/><rect class="cls-10" x="85.04" y="113.36" width="27.21" height="27.21"/><path class="cls-11" d="M119.07,150.46l6.9,15.13a.21.21,0,0,0,.39,0L138,136.44" transform="translate(-27.54 -33.17)"/><rect class="cls-10" x="201.15" y="11.58" width="27.21" height="27.21"/><path class="cls-11" d="M235.19,48.68l6.9,15.13a.21.21,0,0,0,.39,0l11.6-29.14" transform="translate(-27.54 -33.17)"/><rect class="cls-10" x="245.8" y="88.75" width="27.21" height="27.21"/><path class="cls-11" d="M279.84,125.85l6.9,15.13a.21.21,0,0,0,.39,0l11.6-29.14" transform="translate(-27.54 -33.17)"/><line class="cls-12" x1="30.71" y1="22.27" x2="69.48" y2="22.27"/><line class="cls-13" x1="26.64" y1="30.4" x2="71.87" y2="30.4"/><line class="cls-13" x1="26.64" y1="38.42" x2="71.87" y2="38.42"/><polygon class="cls-5" points="42.56 59.71 37.76 74.13 42.97 72.23 46.55 76.09 51.49 62 42.56 59.71"/><polygon class="cls-5" points="57.28 59.71 62.08 74.13 56.86 72.23 53.28 76.09 48.35 62 57.28 59.71"/><path class="cls-8" d="M79.21,75.21l1-.67a1.69,1.69,0,0,1,2.41.65l.57,1.1a1.69,1.69,0,0,0,1.58.91l1.24-.06a1.69,1.69,0,0,1,1.76,1.76l-.06,1.24a1.69,1.69,0,0,0,.91,1.58l1.1.57a1.69,1.69,0,0,1,.65,2.41l-.67,1a1.69,1.69,0,0,0,0,1.82l.67,1A1.69,1.69,0,0,1,89.78,91l-1.1.57a1.69,1.69,0,0,0-.91,1.58l.06,1.24a1.69,1.69,0,0,1-1.76,1.76l-1.24-.06a1.69,1.69,0,0,0-1.58.91l-.57,1.1a1.69,1.69,0,0,1-2.41.65l-1-.67a1.69,1.69,0,0,0-1.82,0l-1,.67a1.69,1.69,0,0,1-2.41-.65L73.37,97a1.69,1.69,0,0,0-1.58-.91l-1.24.06a1.69,1.69,0,0,1-1.76-1.76l.06-1.24a1.69,1.69,0,0,0-.91-1.58L66.83,91a1.69,1.69,0,0,1-.65-2.41l.67-1a1.69,1.69,0,0,0,0-1.82l-.67-1a1.69,1.69,0,0,1,.65-2.41l1.1-.57a1.69,1.69,0,0,0,.91-1.58l-.06-1.24a1.69,1.69,0,0,1,1.76-1.76l1.24.06a1.69,1.69,0,0,0,1.58-.91l.57-1.1a1.69,1.69,0,0,1,2.41-.65l1,.67A1.69,1.69,0,0,0,79.21,75.21Z" transform="translate(-27.54 -33.17)"/><circle class="cls-14" cx="50.77" cy="53.49" r="7.8"/><rect class="cls-15" x="4" y="161.6" width="56.88" height="12.73" rx="0.98" ry="0.98"/><text class="cls-16" transform="translate(8 171.82)">G<tspan class="cls-17" x="6.59" y="0">P</tspan><tspan x="11.15" y="0">A: 3.4-4.0</tspan></text><rect class="cls-18" x="4.75" y="116.19" width="20" height="2.62" rx="0.72" ry="0.72"/><rect class="cls-18" x="29.81" y="116.19" width="8.5" height="2.62" rx="0.72" ry="0.72"/><rect class="cls-18" x="42.31" y="116.19" width="8.5" height="2.62" rx="0.72" ry="0.72"/><rect class="cls-18" x="54.81" y="116.19" width="8.5" height="2.62" rx="0.72" ry="0.72"/><rect class="cls-18" x="4.75" y="123.38" width="20" height="2.62" rx="0.72" ry="0.72"/><rect class="cls-18" x="29.81" y="123.38" width="8.5" height="2.62" rx="0.72" ry="0.72"/><rect class="cls-18" x="42.31" y="123.38" width="8.5" height="2.62" rx="0.72" ry="0.72"/><rect class="cls-18" x="54.81" y="123.38" width="8.5" height="2.62" rx="0.72" ry="0.72"/><rect class="cls-18" x="4.75" y="130.56" width="20" height="2.62" rx="0.72" ry="0.72"/><rect class="cls-18" x="29.81" y="130.56" width="8.5" height="2.62" rx="0.72" ry="0.72"/><rect class="cls-18" x="42.31" y="130.56" width="8.5" height="2.62" rx="0.72" ry="0.72"/><rect class="cls-18" x="54.81" y="130.56" width="8.5" height="2.62" rx="0.72" ry="0.72"/><rect class="cls-18" x="4.75" y="137.75" width="20" height="2.62" rx="0.72" ry="0.72"/><rect class="cls-18" x="29.81" y="137.75" width="8.5" height="2.62" rx="0.72" ry="0.72"/><rect class="cls-18" x="42.31" y="137.75" width="8.5" height="2.62" rx="0.72" ry="0.72"/><rect class="cls-18" x="54.81" y="137.75" width="8.5" height="2.62" rx="0.72" ry="0.72"/><rect class="cls-18" x="4.75" y="144.94" width="20" height="2.62" rx="0.72" ry="0.72"/><rect class="cls-18" x="29.81" y="144.94" width="8.5" height="2.62" rx="0.72" ry="0.72"/><rect class="cls-18" x="42.31" y="144.94" width="8.5" height="2.62" rx="0.72" ry="0.72"/><rect class="cls-18" x="54.81" y="144.94" width="8.5" height="2.62" rx="0.72" ry="0.72"/><rect class="cls-18" x="4.75" y="152.13" width="20" height="2.62" rx="0.72" ry="0.72"/><rect class="cls-18" x="29.81" y="152.13" width="8.5" height="2.62" rx="0.72" ry="0.72"/><rect class="cls-18" x="42.31" y="152.13" width="8.5" height="2.62" rx="0.72" ry="0.72"/><rect class="cls-18" x="54.81" y="152.13" width="8.5" height="2.62" rx="0.72" ry="0.72"/><path class="cls-2" d="M154.93,318.4l-.08.51a16.19,16.19,0,0,0,12.83,18.3c14.74,2.95,37.82,7.48,58.08,11.1,32.87,5.88,33.66-16.89,36.32-34.28,5.92-14.26,20.58-47,21.39-61.8.8-14.43-.17-27.74-13.12-32.34-8.77-3.07-42-18.67-45.76-23.94l-12.72,20.62a8.35,8.35,0,0,1-14.48-.66c-2.85-5.48-6.14-11.19-8.77-13.82a.47.47,0,0,1-.44.44c-5,6.8-44.93,23-48,33.53C138,243.74,131.14,285.32,154.93,318.4Z" transform="translate(-27.54 -33.17)"/><path class="cls-19" d="M189.49,190.25c1.1,2.85,3.51,5.92-.88,12.28,2.63,2.85,6.14,8.77,9,14.26a8.14,8.14,0,0,0,14,.66l16.23-18.21a39.33,39.33,0,0,1-5.26-5.92,72.28,72.28,0,0,1-9.43-21.06c5-1.32,10.09-5,11-9.21,1.1-5-1.54-13.16-7.24-13.6-10.09-.44-12.28.44-15.14-11.63s-31.37,1.75-31.37,1.75-.77,12.24,0,15.83c1,4.36.84,13.29.85,17.73C171.3,179.82,176.77,193.11,189.49,190.25Z" transform="translate(-27.54 -33.17)"/><ellipse class="cls-20" cx="163.71" cy="127.85" rx="1.75" ry="3.51"/><ellipse class="cls-20" cx="148.33" cy="127.85" rx="1.54" ry="3.29"/><path class="cls-21" d="M181.4,167c-2.63,2.41-2.63,8.12,2,5.92" transform="translate(-27.54 -33.17)"/><path class="cls-22" d="M189.49,190.25s5.92-2,7.68-6.8c0,6.8-6.14,11-6.14,11Z" transform="translate(-27.54 -33.17)"/><path class="cls-9" d="M227.07,138.43c-7.26-13.3-28.42-15.51-38.89-16-12.31-.56-15.81-1.26-15.79,12.27,0,4.48-2.85,3.95-5.82,7.93a85,85,0,0,0,3.87,12.77A32.5,32.5,0,0,1,173,141.77c.66-2,4,1.47,9.67,1.7s18.46-1.18,18.68-.08l1.77,14.38c1,7,5.42,9.23,5.42,9.23s.79-14.45,8.37-13c9.91,1.95,7.42,14.72-4,18a60.53,60.53,0,0,0,4.39,12.07s10.53-10.7,11.82-31.89C225.76,144.42,229.13,142.2,227.07,138.43Z" transform="translate(-27.54 -33.17)"/><path class="cls-21" d="M180.22,180.83s5.6,2.63,8.36-2.67" transform="translate(-27.54 -33.17)"/><path class="cls-21" d="M187.68,154.73a7.24,7.24,0,0,1,7.14.23" transform="translate(-27.54 -33.17)"/><path class="cls-21" d="M178.24,155.06s-3.11-3.4-5.95-.33" transform="translate(-27.54 -33.17)"/><path class="cls-19" d="M115.57,233.38c-.7-4.54-6.75-9.2-13.36-14s-9.87-5.26-14.52-8.69-5.47-2.17-5.59.07,2.42,4.67,4.77,6.14,6.59,3.43,6.79,4.38-2.73,2.62-8.42.5-7.9-4.14-10.54-7.92-4.76-7.23-7.19-6.3-.35,3-.35,3-1.73-.13-.47,2.3a53.91,53.91,0,0,1,3.23,7.09c1.13,3.06,1,4.07,1.93,5.28s6.25,6.25,8.06,7.85,5.92,4.12,7.55,5.48,5.14,2.62,7.61,3.33,8.87.15,10.3,2.49c.5.82,8.25,21,17.43,40.58l13.62-22.79C126,248.78,115.92,235.68,115.57,233.38Z" transform="translate(-27.54 -33.17)"/><path class="cls-23" d="M67.15,210.54a4.82,4.82,0,0,1,4.65,1.82,9.37,9.37,0,0,1,1.94,4.19" transform="translate(-27.54 -33.17)"/><path class="cls-23" d="M82.67,234.39c.07-.22-5.78-7.26-7.88-11s-4-4.69-2.11-6.49,5.2,2.73,6.48,4.58,3,5.41,5.2,6.72,3.47,2.27,3.47,2.27" transform="translate(-27.54 -33.17)"/><path class="cls-23" d="M99.2,230.88c.69,0,5.6-2.58,10.6,1.89" transform="translate(-27.54 -33.17)"/><path class="cls-19" d="M316.39,179.27c.38-2.41,0-4.69-1.89-5.23s-4-1.36-3.77-4.29c0-.49.07-1.16.11-1.9a42.25,42.25,0,0,1,4.34-17.13c2.51-5,.69-7.54-2-6-1.95,1.42-4.57,4-6.69,11.28a88.5,88.5,0,0,0-2.24,10.48c-.36,2.16-.63,3.67-1,4-.87.85-1.76.22-4.41,3s-10.39,9.72-10.58,10.92c-.3,1.93,1.36,3.91,4,2.84-3.14,2.71-4.32,4-2.42,6,2.14,2.06,4.44,0,4.44,0s1.11,2.39,2,4.51c1.27,2.91,1.8,4.23,1.91,6.71s-1.91,9.07-4,12.94c-1.34,2.59-34.8,78.77-34.8,78.77-3.51,8.6-2.5,23.55,5.92,27.48,6.85,3.19,17.88,2.59,23.13-4.1,17.65-22.46,29-116.85,29.38-120.88C318.66,190,321.48,179.82,316.39,179.27Z" transform="translate(-27.54 -33.17)"/><path class="cls-19" d="M292.85,180s-4-7.53-1-9.28,5.64,3.35,6,3.9Z" transform="translate(-27.54 -33.17)"/><polyline class="cls-24" points="265.5 153.55 274.47 145.09 283.03 143.96"/><path class="cls-24" d="M294,193s9.56-9.11,10.56-9.2,7.36-1.32,7.36-1.32" transform="translate(-27.54 -33.17)"/><path class="cls-22" d="M297.47,201s8.14,4.72,12,5.33a11.31,11.31,0,0,1-11-2Z" transform="translate(-27.54 -33.17)"/><path class="cls-24" d="M297.23,193s5.92-4.74,8.81-4.29a16.47,16.47,0,0,0,5.52-.62" transform="translate(-27.54 -33.17)"/><path class="cls-25" d="M184.55,144.42s-11.12-16.39,2.26-23.19" transform="translate(-27.54 -33.17)"/><path class="cls-25" d="M179.74,144.1s-14.56-13.08-1-23.87" transform="translate(-27.54 -33.17)"/><path class="cls-26" d="M204.06,223.91l-4.15,9.39s-15.39-13.79-19.69-24.72c4.18-3.56,8.16-7.23,8.16-7.23s7.78,17.14,11.53,14.67Z" transform="translate(-27.54 -33.17)"/><path class="cls-5" d="M218.17,216,214,223.91h-10L199.91,216c.4-.28,1-1.51,1.49-1.79,3-1.8,7-2.56,7.56-2.8l.07,0,.07,0c.56.24,7.6,2.73,7.61,2.73C217.26,214.46,217.73,215.71,218.17,216Z" transform="translate(-27.54 -33.17)"/><path class="cls-26" d="M237.3,204.44c-.12,2.68-.72,4.12-2.24,8-4.3,10.93-16.89,20.87-16.89,20.87L214,223.91l4.15-7.89a82.48,82.48,0,0,1,6.7,5s9.75-11.54,5.71-21.91A28.27,28.27,0,0,0,237.3,204.44Z" transform="translate(-27.54 -33.17)"/><polygon class="cls-5" points="190.63 200.14 181.5 213.02 172.38 200.14 176.53 190.74 186.48 190.74 190.63 200.14"/><path class="cls-3" d="M209,211.39l-.07,0a32.44,32.44,0,0,0-7.75,3.76c-.47.28-.91.56-1.31.84a80.47,80.47,0,0,0-6.7,4.95s-8.39-8.38-6.93-17.68a4.38,4.38,0,0,1,3.51-3.61l.5-.08C190.75,203.58,199.08,207.41,209,211.39Z" transform="translate(-27.54 -33.17)"/><path class="cls-3" d="M224.87,221a82.48,82.48,0,0,0-6.7-5q-.66-.46-1.46-.93h0a31.7,31.7,0,0,0-7.57-3.65l-.07,0c10.22-4.08,15.14-8.22,17.51-11.21l-1.46-3.87.47-.07a4.58,4.58,0,0,1,5,2.79v0h0C234.62,209.43,224.87,221,224.87,221Z" transform="translate(-27.54 -33.17)"/><polygon class="cls-2" points="142.81 90.31 120.98 84.99 146.16 70.91 223.7 90.42 197.24 100.47 142.81 90.31"/><path class="cls-27" d="M178.36,149.86l-11.8-7.22L171,117.81a110.1,110.1,0,0,1,37.7,3.81c17.45,4.86,20.47,8.47,20.47,8.47V152S197,140.54,178.36,149.86Z" transform="translate(-27.54 -33.17)"/><path class="cls-2" d="M126.32,241.28l-23,29.32,19.36,49.87a27.72,27.72,0,0,0,21.73,15.82l43.23,4.87Z" transform="translate(-27.54 -33.17)"/><path class="cls-2" d="M292.51,216.19l31.63,17.12-33.47,97.27c-4.11,12.59-16.33,18.21-29.48,19.78-10.64,1.27-32-1.51-32-1.51Z" transform="translate(-27.54 -33.17)"/><line class="cls-28" x1="209.76" y1="92.65" x2="209.76" y2="131.36"/><polygon class="cls-27" points="207.63 128.44 212.03 128.44 213.19 140.11 206.31 140.1 207.63 128.44"/><rect class="cls-3" x="298.43" y="240.88" width="72.97" height="91" rx="4.24" ry="4.24"/><rect class="cls-29" x="304.64" y="247.34" width="25.33" height="24"/><g class="cls-30"><path class="cls-19" d="M342.55,300.76a4.17,4.17,0,0,1-.71,3.75c.65.71,11.75.25,11.75.25-.44-.38-1.75-1.94-2.81-3.23a18,18,0,0,1-2.34-5.23,3.7,3.7,0,0,0,2.72-2.29c.27-1.25-.38-3.27-1.8-3.38-2.51-.11-3.05.11-3.76-2.89s-7.79.44-7.79.44a25.65,25.65,0,0,0,0,3.93,27.43,27.43,0,0,1,.21,4.4C338,298.17,339.39,301.47,342.55,300.76Z" transform="translate(-27.54 -33.17)"/><ellipse class="cls-20" cx="315.45" cy="260.33" rx="0.44" ry="0.87"/><ellipse class="cls-20" cx="311.63" cy="260.33" rx="0.38" ry="0.82"/><path class="cls-31" d="M340.54,295c-.65.6-.65,2,.49,1.47" transform="translate(-27.54 -33.17)"/><path class="cls-22" d="M342.55,300.76a3.31,3.31,0,0,0,1.91-1.69,3.64,3.64,0,0,1-1.53,2.72Z" transform="translate(-27.54 -33.17)"/><path class="cls-9" d="M351.16,285.75c-1.67-2.63-6.23-2.63-8.83-2.74-3.06-.14-6.13-.5-6.13,2.86,0,1.11,1.31,1.73.66,3.07s.62,2.27,1,3.17a8.07,8.07,0,0,1,.65-3.39c.16-.49,1,.36,2.4.42s4.58-.29,4.64,0l.44,3.57A3,3,0,0,0,347.3,295s.2-3.59,2.08-3.22c2.46.48,1.84,3.66-1,4.47a15,15,0,0,0,1.09,3s2.62-4.37,3-7.22A7.81,7.81,0,0,0,351.16,285.75Z" transform="translate(-27.54 -33.17)"/><path class="cls-31" d="M340.25,298.42a1.56,1.56,0,0,0,2.08-.66" transform="translate(-27.54 -33.17)"/><path class="cls-31" d="M342.1,291.93a1.8,1.8,0,0,1,1.77.06" transform="translate(-27.54 -33.17)"/><path class="cls-31" d="M339.76,292s-.77-.84-1.48-.08" transform="translate(-27.54 -33.17)"/></g><rect class="cls-18" x="341.62" y="247.38" width="19.69" height="2.75" rx="1.37" ry="1.37"/><rect class="cls-18" x="333.24" y="257.96" width="33.69" height="2.75" rx="1.37" ry="1.37"/><rect class="cls-18" x="333.24" y="268.55" width="33.69" height="2.75" rx="1.37" ry="1.37"/><rect class="cls-18" x="304.74" y="279.13" width="62.69" height="2.75" rx="1.37" ry="1.37"/><rect class="cls-18" x="304.74" y="289.44" width="62.69" height="2.75" rx="1.37" ry="1.37"/><rect class="cls-18" x="304.74" y="299.75" width="62.69" height="2.75" rx="1.37" ry="1.37"/><rect class="cls-18" x="304.74" y="310.06" width="62.69" height="2.75" rx="1.37" ry="1.37"/><rect class="cls-18" x="304.74" y="320.37" width="62.69" height="2.75" rx="1.37" ry="1.37"/><rect class="cls-3" y="240.93" width="72.7" height="72.97" rx="3.79" ry="3.79"/><rect class="cls-18" x="15.11" y="251.73" width="52.13" height="2.75" rx="1.37" ry="1.37"/><rect class="cls-18" x="5.11" y="262.31" width="62.13" height="2.75" rx="1.37" ry="1.37"/><rect class="cls-18" x="15.05" y="272.89" width="52.69" height="2.75" rx="1.37" ry="1.37"/><rect class="cls-18" x="5.05" y="283.2" width="62.69" height="2.75" rx="1.37" ry="1.37"/><rect class="cls-18" x="5.05" y="293.52" width="62.69" height="2.75" rx="1.37" ry="1.37"/><polygon class="cls-32" points="177.97 229.97 166.2 309.17 177.97 311.42 177.97 229.97"/><line class="cls-33" x1="233.73" y1="236.71" x2="205.25" y2="297.85"/><line class="cls-33" x1="122.78" y1="240.93" x2="143.75" y2="289.18"/><rect class="cls-10" x="253.17" y="240.88" width="27.21" height="27.21"/><path class="cls-34" d="M287.2,278l6.9,15.13a.21.21,0,0,0,.39,0L306.09,264" transform="translate(-27.54 -33.17)"/><rect class="cls-10" x="91.45" y="240.88" width="27.21" height="27.21"/><path class="cls-34" d="M125.48,278l6.9,15.13a.21.21,0,0,0,.39,0L144.37,264" transform="translate(-27.54 -33.17)"/></svg>