<svg id="Слой_2" data-name="Слой 2" xmlns="http://www.w3.org/2000/svg" xmlns:xlink="http://www.w3.org/1999/xlink" viewBox="0 0 382.04 320.96"><defs><style>.cls-1{fill:none;}.cls-2{fill:#ffc61a;}.cls-3{fill:#fe3737;}.cls-4{fill:#029d41;}.cls-5{fill:#5c5d63;}.cls-6{clip-path:url(#clip-path);}.cls-7{fill:#4e4f54;}.cls-8{fill:#fff;}.cls-9{fill:#7d7f87;}.cls-10{fill:#494a4f;}.cls-11{fill:#f66a31;}.cls-12{fill:#db9770;}.cls-13{fill:#303134;}.cls-14{fill:#b87f5e;}.cls-15{fill:#4f6ddb;}.cls-16{fill:#fec2a0;}.cls-17{fill:#f99979;}.cls-18{fill:#dedede;}.cls-19{fill:#f0f0f0;}.cls-20{fill:#4059b3;}.cls-21{fill:#c92c2c;}</style><clipPath id="clip-path" transform="translate(-25.65 -30.31)"><path class="cls-1" d="M298.68,137.79a16.16,16.16,0,0,0,.45-4.56c-.3-2.31,20.39,9.1,20.39,9.1s-3.89,3.77.51,8.64c7.93,8.76,29-14.93,17.9-27.72-5.53-6.4-8.49,1.87-14.9-9.78s-23.59-6.78-21.82,1.75c1.38,6.62-8.84,3.13-8.84,11.78C292.38,134.5,297.51,136.11,298.68,137.79Z"/></clipPath></defs><title>Apply to Join this Community</title><path class="cls-2" d="M400.58,232.45H250a7.12,7.12,0,0,1-7.11-7.11V130a7.12,7.12,0,0,1,7.11-7.11H400.58a7.12,7.12,0,0,1,7.11,7.11v95.35A7.12,7.12,0,0,1,400.58,232.45ZM250,124.38a5.61,5.61,0,0,0-5.61,5.61v95.35A5.61,5.61,0,0,0,250,231H400.58a5.61,5.61,0,0,0,5.61-5.61V130a5.61,5.61,0,0,0-5.61-5.61Z" transform="translate(-25.65 -30.31)"/><circle class="cls-2" cx="355.45" cy="103.58" r="5.74"/><circle class="cls-3" cx="370.29" cy="103.48" r="5.74"/><circle class="cls-4" cx="340.34" cy="103.58" r="5.74"/><rect class="cls-2" x="217.98" y="113.2" width="163.3" height="1.5"/><path class="cls-5" d="M298.68,137.79a16.16,16.16,0,0,0,.45-4.56c-.3-2.31,20.39,9.1,20.39,9.1s-3.89,3.77.51,8.64c7.93,8.76,29-14.93,17.9-27.72-5.53-6.4-8.49,1.87-14.9-9.78s-23.59-6.78-21.82,1.75c1.38,6.62-8.84,3.13-8.84,11.78C292.38,134.5,297.51,136.11,298.68,137.79Z" transform="translate(-25.65 -30.31)"/><g class="cls-6"><path class="cls-7" d="M309.73,129.39c-.32-.94-7.81-23.18,1.15-29.45l.57.82c-8.35,5.84-.85,28.08-.78,28.3Z" transform="translate(-25.65 -30.31)"/><path class="cls-7" d="M312.09,130.84c-.21-.87-5-21.51,4-27.75l.57.82c-8.38,5.86-3.61,26.5-3.56,26.71Z" transform="translate(-25.65 -30.31)"/></g><rect class="cls-4" y="63.42" width="183.86" height="253.43" rx="9.36" ry="9.36"/><rect class="cls-8" x="7.81" y="71.67" width="168.25" height="236.93" rx="8.65" ry="8.65"/><rect class="cls-4" x="50.97" y="54.22" width="75.58" height="22.98" rx="6.41" ry="6.41"/><circle class="cls-9" cx="38.89" cy="107.62" r="24.16"/><rect class="cls-9" x="88.76" y="94.07" width="69.76" height="8.25" rx="4.13" ry="4.13"/><rect class="cls-9" x="88.76" y="114.84" width="69.76" height="5.6" rx="2.8" ry="2.8"/><rect class="cls-9" x="53.88" y="153.91" width="114.55" height="5.6" rx="2.8" ry="2.8"/><rect class="cls-9" x="53.88" y="164.76" width="114.55" height="5.6" rx="2.8" ry="2.8"/><rect class="cls-9" x="53.88" y="188.62" width="114.55" height="5.6" rx="2.8" ry="2.8"/><rect class="cls-9" x="53.88" y="199.47" width="114.55" height="5.6" rx="2.8" ry="2.8"/><rect class="cls-9" x="53.88" y="223.33" width="114.55" height="5.6" rx="2.8" ry="2.8"/><rect class="cls-9" x="53.88" y="234.18" width="114.55" height="5.6" rx="2.8" ry="2.8"/><rect class="cls-10" x="53.88" y="258.05" width="114.55" height="5.6" rx="2.8" ry="2.8"/><rect class="cls-9" x="88.76" y="126.19" width="35.73" height="5.6" rx="2.8" ry="2.8"/><path class="cls-11" d="M65.43,202.17H46V182.72H65.43ZM47.75,200.4H63.66V184.49H47.75Z" transform="translate(-25.65 -30.31)"/><path class="cls-4" d="M55.68,196.83l-4.8-8.75a1,1,0,1,1,1.75-1l3.1,5.66,10.75-18.37a1,1,0,1,1,1.73,1Z" transform="translate(-25.65 -30.31)"/><path class="cls-11" d="M65.43,236.88H46V217.43H65.43Zm-17.68-1.77H63.66V219.2H47.75Z" transform="translate(-25.65 -30.31)"/><path class="cls-4" d="M55.68,231.54l-4.8-8.75a1,1,0,1,1,1.75-1l3.1,5.66,10.75-18.37a1,1,0,0,1,1.73,1Z" transform="translate(-25.65 -30.31)"/><path class="cls-11" d="M65.43,271.59H46V252.15H65.43Zm-17.68-1.77H63.66V253.91H47.75Z" transform="translate(-25.65 -30.31)"/><path class="cls-4" d="M55.68,266.26l-4.8-8.75a1,1,0,1,1,1.75-1l3.1,5.66,10.75-18.37a1,1,0,0,1,1.73,1Z" transform="translate(-25.65 -30.31)"/><path class="cls-11" d="M65.43,306.31H46V286.86H65.43Zm-17.68-1.77H63.66V288.63H47.75Z" transform="translate(-25.65 -30.31)"/><path class="cls-4" d="M55.68,301l-4.8-8.75a1,1,0,1,1,1.75-1l3.1,5.66,10.75-18.37a1,1,0,0,1,1.73,1Z" transform="translate(-25.65 -30.31)"/><path class="cls-12" d="M146.46,219.9c-.38,2.42-1.57,8.44,2.94,12.69-1.58,2.68-3.52,4.7-4.84,9.48s-13,10.2-16.45,6.63L117.89,233.4c1.12-1.5,2-6.17,2.32-7.14,3.9-3.74,4.46-10.68,4.65-16.47-4.17-.18-8.76-2.26-10.14-5.37-1.71-3.77-1-10.57,3.39-11.87,7.83-2,9.7-1.72,9.91-11.66S152.63,172,152.63,172s3.17,15.12,2.9,18.06a13.63,13.63,0,0,0,.25,5.34,62.26,62.26,0,0,0,2.08,8C159.29,207.61,156.91,220,146.46,219.9Z" transform="translate(-25.65 -30.31)"/><ellipse class="cls-13" cx="142.81" cy="197.84" rx="1.41" ry="2.81" transform="translate(-63.98 4.06) rotate(-12.11)"/><ellipse class="cls-13" cx="153.91" cy="195.1" rx="1.23" ry="2.64" transform="translate(-63.16 6.32) rotate(-12.11)"/><path class="cls-13" d="M152.29,205.18a4.77,4.77,0,0,1-1.1-.14.4.4,0,0,1-.29-.48.39.39,0,0,1,.48-.29c.79.19,1.8.25,2.11-.53.38-1-.39-2.86-1.85-3.72a.4.4,0,0,1,.4-.68c1.69,1,2.76,3.28,2.19,4.7A1.88,1.88,0,0,1,152.29,205.18Z" transform="translate(-25.65 -30.31)"/><path class="cls-14" d="M146.46,219.9s-5-.55-7.16-4c1.14,5.33,6.66,7.56,6.66,7.56Z" transform="translate(-25.65 -30.31)"/><path class="cls-15" d="M103.45,177.69c3.45-11.64,24.88-13.87,33-16,9.55-2.51,14.83-.66,17.53,8.42a42.15,42.15,0,0,1,1.56,19.29,26,26,0,0,0-4.34-10.25c-.85-1.44-4.33-3.67-8.75-2.54s-7.51,3.3-8.38,8.19c-.58,3.31-.92,13.42-.92,13.42a5.08,5.08,0,0,1-3.18,4.37h0s-2.08-10.52-9.91-8.48-4.55,14.82,4.94,15.48c0,7-1.41,10.19-1.41,10.19S100,189.33,103.45,177.69Z" transform="translate(-25.65 -30.31)"/><path class="cls-13" d="M150.67,212.07a4.91,4.91,0,0,1-3.89-2,.4.4,0,0,1,.61-.5c2.77,3.34,6.31.74,6.45.62a.4.4,0,0,1,.48.63A6.78,6.78,0,0,1,150.67,212.07Z" transform="translate(-25.65 -30.31)"/><path class="cls-13" d="M138.46,193.08a.4.4,0,0,1-.28-.67c2.48-2.54,6.28-1.07,6.44-1a.4.4,0,0,1-.29.74s-3.48-1.34-5.58.82A.4.4,0,0,1,138.46,193.08Z" transform="translate(-25.65 -30.31)"/><path class="cls-13" d="M151.33,190.12a.39.39,0,0,1-.34-.59,3.32,3.32,0,0,1,3.33-1.39.4.4,0,1,1-.07.79,2.58,2.58,0,0,0-2.57,1A.4.4,0,0,1,151.33,190.12Z" transform="translate(-25.65 -30.31)"/><path class="cls-16" d="M306.73,156.86c.34,1.92,1.66,4.22-1.88,7.8,3.16,4.7,6.69,19.17,6.69,19.17l16.57-15.68c-.34-.73-4-15.63-4.38-20.37a7.94,7.94,0,0,0,6.71-5.05c1.24-3.16.35-6.76-3.22-7.55-6.41-1.42-7.7,7.15-7.7,7.15s-3-1.76-3.59-9.74-8.43-1.36-11.17-9.34c-4.39,1.28-5.93,7.67-5.64,10a16.16,16.16,0,0,1-.45,4.56,54.4,54.4,0,0,1-1.63,6.15C295.94,147.37,298.31,157.36,306.73,156.86Z" transform="translate(-25.65 -30.31)"/><path class="cls-15" d="M275.08,198.22l3,1.88,11.56,31.38h68s-7.37-17-8.07-19l0-.09,0-.08h0A79.84,79.84,0,0,0,364.26,205c10-6.52,1.53-28.49-5.24-32.43-9.86-5.73-25.55-5.1-32-12.84l-1.43,2.32a13.67,13.67,0,0,1-21.76,1.85c-.05-.05-.24.11-.35.2C297.89,168.86,270.51,176.61,275.08,198.22Z" transform="translate(-25.65 -30.31)"/><path class="cls-13" d="M312.46,135.52a.32.32,0,0,1-.18-.05c-2.71-1.83-4.2-1.26-4.21-1.25a.32.32,0,0,1-.42-.17.32.32,0,0,1,.17-.42c.07,0,1.79-.74,4.82,1.31a.32.32,0,0,1-.18.58Z" transform="translate(-25.65 -30.31)"/><path class="cls-13" d="M301.28,133.47a.32.32,0,0,1-.28-.16,2.91,2.91,0,0,0-1.87-1.4.32.32,0,1,1,.06-.64,3.51,3.51,0,0,1,2.37,1.72.32.32,0,0,1-.28.48Z" transform="translate(-25.65 -30.31)"/><ellipse class="cls-13" cx="308.91" cy="138.93" rx="2.34" ry="1.15" transform="translate(94.67 389.97) rotate(-80.38)"/><ellipse class="cls-13" cx="300.35" cy="137.18" rx="2.09" ry="1.02" transform="translate(89.27 380.08) rotate(-80.38)"/><path class="cls-13" d="M301.41,145.17a1.48,1.48,0,0,1-1.46-.84c-.52-1.11.24-3,1.57-3.89a.32.32,0,1,1,.36.53c-1.14.77-1.69,2.34-1.34,3.09s1.08.51,1.71.33a.32.32,0,0,1,.18.62A3.67,3.67,0,0,1,301.41,145.17Z" transform="translate(-25.65 -30.31)"/><path class="cls-13" d="M303.79,148.65a6.32,6.32,0,0,1-2.65-.69.32.32,0,1,1,.27-.58,4.25,4.25,0,0,0,3.47.42,2.42,2.42,0,0,0,1.27-1.34.32.32,0,0,1,.61.2,3.06,3.06,0,0,1-1.63,1.73A3.34,3.34,0,0,1,303.79,148.65Z" transform="translate(-25.65 -30.31)"/><path class="cls-17" d="M306.73,156.86s4-.68,5.67-3.52c-.74,4.36-5.15,6.4-5.15,6.4Z" transform="translate(-25.65 -30.31)"/><path class="cls-15" d="M349.49,212.27c12.74-4.85,14.25-36.75,16.85-29.28,6.46,18.59,9.66,46.68,9.11,53.56-.24,2.85-6.62,4.6-9.83,6.18-1.74-2.33-5.9-3.28-7.4-3.54l-.55-.09-8.15-26.65,0-.09a.41.41,0,0,0,0-.08Z" transform="translate(-25.65 -30.31)"/><path class="cls-15" d="M359.26,223.44c-.35,0-22.91,6.3-33,9.12l5.91,16.28a115.83,115.83,0,0,0,15.58-1.51c6.46-1.22,14.21-3,19.18-5.23S373.22,222.29,359.26,223.44Z" transform="translate(-25.65 -30.31)"/><path class="cls-16" d="M253.18,180.34a15.23,15.23,0,0,0-2.82-2.06c-2.12-1.31-4.07-2.11-5.7-4.23s-2.84-4.39-4.11-4.8-2,2.58-1.17,4,2.85,3.56,3,4.07a5.31,5.31,0,0,1,.07,1.33s-15-2.34-17-2.36-3.78.08-3.54,1.39,1.51,1.72,5.19,2.36,8.15.89,8,1.06-2.77.22-2.65,1.9.68,1.85.68,1.85a1.32,1.32,0,0,0-.71,1.67,3.16,3.16,0,0,0,1.45,1.61s-1.41.64-.46,2.38,4.63,2,7.66,2,5.92.4,7.78-.72a8.54,8.54,0,0,1,5.61-1.34l1.23-8.41Z" transform="translate(-25.65 -30.31)"/><path class="cls-16" d="M261.34,187.43a45,45,0,0,0-5.65-5.4c-6.83-5.08-5,6.14-5,6.14a73,73,0,0,1,3.57,6.42A36.73,36.73,0,0,0,261.34,187.43Z" transform="translate(-25.65 -30.31)"/><path class="cls-18" d="M261.58,187c-1.92,2.82-7.91,7.94-10.49,10.11,0,0,.63,1.72,1.72,4.42l11.52-11.39C263.39,189.08,262.47,188,261.58,187Z" transform="translate(-25.65 -30.31)"/><path class="cls-15" d="M299.34,212s-15.48-9.85-24.29-15.84c-.17,1.87-.33,3.81-.46,5.78-3.19-4.43-6.52-8.83-9.61-12.51l-12.17,12.19c3.87,9.66,13.68,32.33,23,39.55,3.31,2.56,9.77,1.53,13.49-.06C298.47,237.18,299.34,212,299.34,212Z" transform="translate(-25.65 -30.31)"/><path class="cls-16" d="M236,191.19c.14,0,4.41.34,5.77-.36s.62-2.41-1.28-2.52c2.28-.67,1.91-1.46,1.69-2.42s-2.2-1-2.2-1,2-.08,1.92-1.7-5.55-2-5.55-2" transform="translate(-25.65 -30.31)"/><path class="cls-17" d="M238.33,191.57c-1.29,0-2.39-.09-2.41-.1a.29.29,0,0,1-.25-.32.28.28,0,0,1,.32-.25h0c.39,0,4.39.3,5.6-.33a.81.81,0,0,0,.53-.9,1.68,1.68,0,0,0-1.69-1.08l-1.65-.09,1.58-.47c1.86-.55,1.74-1,1.54-1.88l0-.2c-.13-.6-1.47-.75-1.92-.75v-.57a2.25,2.25,0,0,0,1.37-.55,1.12,1.12,0,0,0,.28-.85c0-.95-3.12-1.59-5.29-1.74a.29.29,0,0,1-.27-.31.3.3,0,0,1,.31-.27c1,.07,5.74.5,5.82,2.29a1.68,1.68,0,0,1-.43,1.26,2,2,0,0,1-.46.36,1.52,1.52,0,0,1,1.16,1l0,.2a1.6,1.6,0,0,1-1,2.22,2,2,0,0,1,1.22,1.31,1.37,1.37,0,0,1-.82,1.53A9.32,9.32,0,0,1,238.33,191.57Z" transform="translate(-25.65 -30.31)"/><polygon class="cls-19" points="290 201.16 282.07 201.16 281.51 184.73 279.99 144.06 288.46 137.63 300.05 145.97 290 201.16"/><polygon class="cls-3" points="284.1 141.24 286.82 145.98 290.49 145.98 293.12 141.35 288.46 137.63 284.1 141.24"/><polygon class="cls-20" points="325.21 184.24 327.71 194.72 305.32 200.92 323.81 193.07 325.21 184.24"/><polygon class="cls-20" points="271.14 180.02 270.52 200.92 276.72 200.92 271.14 180.02"/><rect class="cls-2" x="84.46" y="17.08" width="81.11" height="1.5"/><rect class="cls-2" x="196.49" y="17.08" width="81.11" height="1.5"/><circle class="cls-3" cx="68.15" cy="17.83" r="16.21"/><path class="cls-8" d="M93.18,42.77h0l-2.52,1.36-.38-1.49,3.17-1.7h1.67v14.5h-1.9Z" transform="translate(-25.65 -30.31)"/><circle class="cls-15" cx="181.28" cy="16.21" r="16.21"/><path class="cls-8" d="M202,53.26V52.06l1.54-1.49C207.29,47,209,45.17,209,43a2.59,2.59,0,0,0-2.88-2.83A4.94,4.94,0,0,0,203,41.37L202.4,40a6.36,6.36,0,0,1,4.11-1.47,4.08,4.08,0,0,1,4.44,4.22c0,2.68-1.94,4.84-5,7.79l-1.16,1.07v0h6.51v1.63Z" transform="translate(-25.65 -30.31)"/><circle class="cls-5" cx="294.23" cy="17.83" r="16.21"/><path class="cls-8" d="M315.47,52.54a6.57,6.57,0,0,0,3.21.91c2.52,0,3.3-1.61,3.28-2.81,0-2-1.85-2.9-3.75-2.9h-1.09V46.28h1.09c1.43,0,3.24-.74,3.24-2.45,0-1.16-.74-2.19-2.54-2.19a5.33,5.33,0,0,0-2.9,1l-.51-1.43a6.89,6.89,0,0,1,3.79-1.12c2.86,0,4.15,1.7,4.15,3.46a3.6,3.6,0,0,1-2.68,3.41v0A3.78,3.78,0,0,1,324,50.69C324,53,322.18,55,318.7,55a7.37,7.37,0,0,1-3.77-1Z" transform="translate(-25.65 -30.31)"/><path class="cls-16" d="M322.41,236.27c-7.45.59-17-5.23-20.57-5s-7.1,1.76-7.72,3,.61,3.1.61,3.1-1.26,1.18-.84,2l.41.85s-.85,2.3-.27,2.76,3.25,2.67,3.25,2.67-.86,1,.85,1.82a6.1,6.1,0,0,0,4.21.73,12.29,12.29,0,0,0,2.69-1.58c.24,0,6.23,2.69,9.56,2.29s4.93-1.09,8-.7c1.18.15,2.62,0,6.88.41-1.31-4.55-1.08-8.43-3.17-12.85C324.69,236,323.35,236.2,322.41,236.27Z" transform="translate(-25.65 -30.31)"/><polygon class="cls-17" points="271.63 215.33 273.81 210.32 270.52 214.41 271.63 215.33"/><polygon class="cls-17" points="268.65 209.9 273.15 206.91 268.24 211.41 268.65 209.9"/><path class="cls-17" d="M294.73,237.34c.31-.31,3.59-2.56,3.59-2.56l-4.12,1.5Z" transform="translate(-25.65 -30.31)"/><path class="cls-18" d="M332.13,248.83,327,234.76l-4.85,1.35L326.4,249S328.76,249,332.13,248.83Z" transform="translate(-25.65 -30.31)"/><path class="cls-12" d="M263.34,271.39c1.14-1,1.58-1.88.55-2.62s-7,2.09-7,2.09l3.21-3c.46-.42.86-1.64-.72-1.8s-3.52,1.79-5.22,3.35-4.44,2.64-7.13,3.58-8.28.58-8.16-.21,5.28-2.82,7.22-3.84,2.2-2.86,1.83-3.54-1-1.14-2.82-.21a62.36,62.36,0,0,1-8.37,2.78A46.65,46.65,0,0,0,225,273.3a38.31,38.31,0,0,1-9.16,7.48c-15.09,8.46-43,22.41-50.52,26.63-18.3,10.24-14.14,25.07-1.58,26.62,14.42,1.77,62.88-46.88,63.35-47.09,1.26-.56,7.61-.87,10.63-.34s10.69-1.18,11.69-1.93,3.28-3.44,4.34-4.41,8.52-6.22,9.34-7S263.72,271.72,263.34,271.39Z" transform="translate(-25.65 -30.31)"/><path class="cls-14" d="M247.31,277.16l-.16-.51a23.33,23.33,0,0,0,5-2.24c1.44-1.1,4.52-3.73,4.55-3.76l.35.41s-3.12,2.67-4.57,3.77A23.24,23.24,0,0,1,247.31,277.16Z" transform="translate(-25.65 -30.31)"/><path class="cls-14" d="M256.19,274.9l-.31-.43a49.07,49.07,0,0,1,5.76-3.74,1.5,1.5,0,0,1,1.94.54l-.48.24.24-.12-.24.12c0-.06-.36-.6-1.29-.28A50.86,50.86,0,0,0,256.19,274.9Z" transform="translate(-25.65 -30.31)"/><path class="cls-14" d="M244.2,281.91a1.35,1.35,0,0,1-.68-.11l.16-.21.12-.24a8.17,8.17,0,0,0,4-.85c.38-.22.69-.38,1-.52a4.63,4.63,0,0,0,2.05-1.74l.1-.14c1-1.38,2.69-3.7,4.19-3.88a1.38,1.38,0,0,1,1.11.33,1.25,1.25,0,0,1,.45,1c0,1.64-2.56,4.09-2.67,4.2l-.37-.39c.71-.66,2.53-2.63,2.5-3.79a.73.73,0,0,0-.26-.57.87.87,0,0,0-.7-.21c-1.26.15-2.93,2.44-3.82,3.66l-.1.14a5.1,5.1,0,0,1-2.24,1.91c-.27.14-.57.29-.94.51A9,9,0,0,1,244.2,281.91Z" transform="translate(-25.65 -30.31)"/><path class="cls-3" d="M175.54,320.31c-1.38,11-2.91,17.79-9.71,19.15-11.81,2.36-30.31,6-46.55,8.9-26.34,4.71-29-13.87-32.75-27.45C83.2,309,73.69,283.19,73,271.36c-.64-11.57.14-22.23,10.51-25.92,7-2.46,33.68-15,36.67-19.18l10.2,16.53c2.81,4.4,8.79,3.83,11.6-.53,3.07-4.75,6-9.25,7-11.08,3.49,4.2,36.36,18.78,38.82,27.22C189.63,264.55,176.91,309.29,175.54,320.31Z" transform="translate(-25.65 -30.31)"/><path class="cls-21" d="M135,253.22c-10.7,0-22-19.9-22.5-20.74l2-1.13c.11.2,11.13,19.57,20.49,19.57h0c3.22,0,6.9-.89,13.36-11.27l2,1.21c-6.39,10.26-10.6,12.33-15.3,12.35Z" transform="translate(-25.65 -30.31)"/><path class="cls-12" d="M123,323.43l-4.36-29.21-33.08,8.5s8.42,39.37,17.18,42.9a22,22,0,0,0,2.51.78l20.67-22Z" transform="translate(-25.65 -30.31)"/><polygon class="cls-3" points="161.87 227.23 170.84 260.89 154.22 269.88 161.87 227.23"/><path class="cls-12" d="M97.42,337.62c-.3,14,20.9,13.1,36.9,13.6S172.07,349,176,348.51s5.89.38,10,.88,11.64-2.91,11.94-2.86,1.93,1.62,3.36,2a7.61,7.61,0,0,0,5.26-.91c2.14-1.05,1.06-2.27,1.06-2.27s3.32-2.76,4.06-3.33-.33-3.45-.33-3.45l.52-1.06c.52-1.06-1.05-2.53-1.05-2.53s1.54-2.33.76-3.88-5.2-3.49-9.64-3.74-16.39,7-25.69,6.29-52-10.11-55.47-10.83C108,320.15,97.83,318.54,97.42,337.62Z" transform="translate(-25.65 -30.31)"/><polygon class="cls-14" points="181.96 315.01 179.24 308.75 183.34 313.86 181.96 315.01"/><polygon class="cls-14" points="185.68 308.23 180.06 304.5 186.2 310.11 185.68 308.23"/><path class="cls-14" d="M210.8,335c-.39-.39-4.48-3.2-4.48-3.2l5.14,1.87Z" transform="translate(-25.65 -30.31)"/><polygon class="cls-20" points="297.01 191.6 296.08 191.24 311.22 152.31 307.57 144.5 313.42 142.47 309.83 136.68 310.69 136.15 314.93 143.01 308.95 145.08 312.3 152.27 312.23 152.47 297.01 191.6"/><polygon class="cls-20" points="276.9 186.4 268.96 151.4 273.86 146.15 268.67 143.84 274.09 137.95 274.82 138.63 270.35 143.49 275.55 145.8 270.06 151.7 277.87 186.18 276.9 186.4"/><rect class="cls-20" x="291.78" y="202.46" width="57.95" height="1" transform="translate(38.92 452.72) rotate(-79.88)"/><rect class="cls-20" x="306.14" y="173.67" width="1" height="57.83" transform="translate(-33.01 -18.71) rotate(-2.14)"/><polygon class="cls-18" points="301.27 129.43 288.46 137.63 301.83 148.28 303.24 131.31 301.27 129.43"/><polygon class="cls-18" points="279.41 132 288.46 137.63 276.72 147.35 278.21 133.56 279.41 132"/><polygon class="cls-3" points="294.38 184.96 286.99 194.56 279.47 184.79 286.82 145.97 290.5 145.97 294.38 184.96"/><rect class="cls-12" x="130.38" y="181.15" width="2" height="9.6" transform="translate(-105.29 241.14) rotate(-76.81)"/><rect class="cls-12" x="130.38" y="186.11" width="2" height="9.6" transform="translate(-110.13 244.95) rotate(-76.81)"/></svg>