<?xml version="1.0" encoding="UTF-8" standalone="no"?>
<svg
   width="1318.509"
   height="1002.0522"
   overflow="hidden"
   version="1.1"
   id="svg439"
   sodipodi:docname="Learning_Deeply.svg"
   inkscape:version="1.1.1 (3bf5ae0d25, 2021-09-20)"
   xmlns:inkscape="http://www.inkscape.org/namespaces/inkscape"
   xmlns:sodipodi="http://sodipodi.sourceforge.net/DTD/sodipodi-0.dtd"
   xmlns="http://www.w3.org/2000/svg"
   xmlns:svg="http://www.w3.org/2000/svg">
  <sodipodi:namedview
     id="namedview441"
     pagecolor="#505050"
     bordercolor="#eeeeee"
     borderopacity="1"
     inkscape:pageshadow="0"
     inkscape:pageopacity="0"
     inkscape:pagecheckerboard="0"
     showgrid="false"
     inkscape:zoom="0.6997319"
     inkscape:cx="899.63027"
     inkscape:cy="525.20115"
     inkscape:window-width="1920"
     inkscape:window-height="1001"
     inkscape:window-x="-9"
     inkscape:window-y="-9"
     inkscape:window-maximized="1"
     inkscape:current-layer="svg439" />
  <defs
     id="defs265">
    <clipPath
       id="clip0">
      <rect
         x="788"
         y="210"
         width="1421"
         height="1119"
         id="rect226" />
    </clipPath>
    <clipPath
       id="clip1">
      <rect
         x="1100"
         y="529"
         width="1100"
         height="798"
         id="rect229" />
    </clipPath>
    <clipPath
       id="clip2">
      <rect
         x="1100"
         y="529"
         width="1100"
         height="798"
         id="rect232" />
    </clipPath>
    <clipPath
       id="clip3">
      <rect
         x="1100"
         y="529"
         width="1100"
         height="798"
         id="rect235" />
    </clipPath>
    <clipPath
       id="clip4">
      <path
         d="m 1800.54,819.047 2.44,-1.404 c 3.36,-1.539 7.28,-1.16 10.28,0.993 l -2.43,1.405 c -3,-2.153 -6.93,-2.533 -10.29,-0.994 z"
         fill-rule="nonzero"
         clip-rule="nonzero"
         id="path238" />
    </clipPath>
    <clipPath
       id="clip5">
      <path
         d="m 2005.88,1062.98 -2.4,1.41 c 2.99,-2.12 4.62,-5.67 4.29,-9.32 l 2.4,-1.4 c 0.33,3.64 -1.3,7.19 -4.29,9.31 z"
         fill-rule="nonzero"
         clip-rule="nonzero"
         id="path241" />
    </clipPath>
    <clipPath
       id="clip6">
      <path
         d="m 1993.54,925.53 2.43,-1.404 c 8.56,5.611 13.95,14.938 14.54,25.147 l -2.44,1.405 c -0.56,-10.217 -5.96,-19.556 -14.53,-25.148 z"
         fill-rule="nonzero"
         clip-rule="nonzero"
         id="path244" />
    </clipPath>
    <clipPath
       id="clip7">
      <path
         d="m 1473.66,756.114 2.43,-1.405 c 3.36,-1.538 7.28,-1.159 10.28,0.994 l -2.43,1.405 c -3,-2.153 -6.93,-2.533 -10.28,-0.994 z"
         fill-rule="nonzero"
         clip-rule="nonzero"
         id="path247" />
    </clipPath>
    <clipPath
       id="clip8">
      <path
         d="m 1678.99,1000.05 -2.4,1.41 c 2.99,-2.125 4.62,-5.675 4.29,-9.322 l 2.4,-1.405 c 0.33,3.647 -1.3,7.198 -4.29,9.317 z"
         fill-rule="nonzero"
         clip-rule="nonzero"
         id="path250" />
    </clipPath>
    <clipPath
       id="clip9">
      <path
         d="m 1666.65,862.597 2.44,-1.405 c 8.55,5.612 13.94,14.939 14.53,25.148 l -2.43,1.405 c -0.57,-10.218 -5.96,-19.556 -14.54,-25.148 z"
         fill-rule="nonzero"
         clip-rule="nonzero"
         id="path253" />
    </clipPath>
    <clipPath
       id="clip10">
      <path
         d="m 1475.86,531.705 2.43,-1.405 c 3.36,-1.539 7.29,-1.159 10.29,0.994 l -2.44,1.405 c -3,-2.153 -6.92,-2.533 -10.28,-0.994 z"
         fill-rule="nonzero"
         clip-rule="nonzero"
         id="path256" />
    </clipPath>
    <clipPath
       id="clip11">
      <path
         d="m 1681.2,775.643 -2.4,1.404 c 2.98,-2.121 4.62,-5.671 4.28,-9.318 l 2.4,-1.405 c 0.34,3.647 -1.3,7.197 -4.28,9.319 z"
         fill-rule="nonzero"
         clip-rule="nonzero"
         id="path259" />
    </clipPath>
    <clipPath
       id="clip12">
      <path
         d="m 1668.85,638.188 2.44,-1.405 c 8.55,5.611 13.94,14.939 14.53,25.148 l -2.43,1.404 c -0.56,-10.217 -5.96,-19.555 -14.54,-25.147 z"
         fill-rule="nonzero"
         clip-rule="nonzero"
         id="path262" />
    </clipPath>
  </defs>
  <path
     d="m 56.216422,988.61494 c 34.27984,10.484 74.490948,22.37196 65.440968,3.426 -9.04997,-18.947 -41.136208,-24.976 -60.196188,-21.208 -10.86687,2.158 -5.24488,17.782 -5.24488,17.782 z"
     fill="#93278f"
     fill-rule="nonzero"
     fill-opacity="1"
     id="path285"
     style="stroke-width:1.00028" />
  <path
     d="m 140.16037,943.81094 c 33.76556,12.813 73.05115,27.409 65.1328,7.914 -7.91935,-19.495 -39.52473,-27.718 -58.85936,-25.251 -10.93551,1.371 -6.27344,17.337 -6.27344,17.337 z"
     fill="#93278f"
     fill-rule="nonzero"
     fill-opacity="1"
     id="path287"
     style="stroke-width:1.00028" />
  <path
     d="m 174.02498,822.99494 v -4.043 l -0.20511,-4.248 c 0,-2.638 -0.51429,-6.03 -0.82245,-9.114 -0.30917,-3.083 -0.78844,-5.584 -1.33774,-8.531 -1.07859,-6.106 -2.62644,-12.119 -4.62754,-17.988 -2.02011,-5.607 -4.42544,-11.067 -7.19896,-16.343 -2.3653,-4.591 -4.49047,-8.531 -6.47856,-12.574 l -1.50883,-2.98 c -0.27415,-0.652 -0.5483,-1.302 -0.89049,-1.953 l -0.20611,-0.48 -0.24014,-0.616 -0.44524,-1.234 c -0.30917,-0.856 -0.65136,-1.644 -0.92551,-2.604 -2.56041,-8.381 -4.63155,-16.904 -6.20541,-25.525 -0.89049,-4.557 -1.74796,-9.216 -2.5364,-13.91 l -2.43433,-13.704 v -0.583 c -1.16564,-9.141 -9.52484,-15.606 -18.67077,-14.441 -8.23823,1.05 -14.45184,7.992 -14.58111,16.291 -0.20571,2.912 -0.30847,5.413 -0.44565,8.086 -0.13707,2.672 0,5.242 0,7.88 0,5.276 0,10.552 0.37701,15.863 0.48667,11.155 1.97819,22.243 4.45645,33.13 0.30847,1.439 0.75421,3.015 1.19976,4.523 l 0.68568,2.295 0.34279,1.131 0.44564,1.267 1.85122,4.9 1.57696,3.7 c 2.12537,4.865 4.45645,9.73 6.47887,13.91 1.72084,3.486 3.24308,7.066 4.5593,10.724 1.17725,3.528 2.10516,7.134 2.77673,10.792 0.37701,1.953 0.75421,4.214 1.06268,6.201 0.30847,1.987 0.47987,3.426 0.61694,5.722 l 0.27425,3.255 0.20572,3.426 c 0,2.295 0.27425,4.591 0.34278,6.852 0.41133,9.456 0.68568,19.256 0.92561,29.019 0.5484,19.598 0.99415,39.503 2.12537,59.237 0.24163,8.163 6.05523,15.093 14.05463,16.754 9.38516,1.237 17.99589,-5.364 19.23357,-14.744 0.012,-0.087 0.023,-0.175 0.033,-0.263 1.50783,-10.072 2.57041,-20.042 3.42788,-30.116 0.85647,-10.072 1.67993,-20.111 2.22823,-30.253 0.5483,-10.141 0.89149,-20.317 0.85647,-30.834 -0.23913,-2.501 -0.30817,-5.208 -0.37621,-7.88 z"
     fill="#6371bc"
     fill-rule="nonzero"
     fill-opacity="1"
     id="path289"
     style="stroke-width:1.00028" />
  <path
     d="m 114.49386,823.25394 c -0.97674,-6.226 -2.39722,-12.375 -4.25074,-18.398 -1.54255,-5.242 -2.94802,-9.765 -4.21642,-14.356 l -0.95983,-3.426 c 0,-0.72 -0.34278,-1.439 -0.5485,-2.193 v -1.232 l -0.23993,-1.371 c 0,-0.924 -0.34279,-1.816 -0.44564,-2.878 -0.30847,-2.535 -0.58282,-5.242 -0.78844,-8.017 l 6.85607,-16.514 -2.29676,-35.768 h -5.07339 c -0.62734,-7.379 -5.565658,-13.686 -12.580818,-16.069 -9.26799,-2.638 -18.9206,2.733 -21.55975,11.996 -0.09,0.316 -0.17109,0.634 -0.24313,0.955 -0.78833,2.912 -1.37115,5.447 -2.02241,8.188 -0.65136,2.741 -1.16554,5.379 -1.67983,8.052 -1.02836,5.413 -1.95397,10.86 -2.67387,16.411 -1.6538,11.594 -2.26184,23.313 -1.81689,35.015 0,1.542 0.20561,3.255 0.377,4.899 l 0.23993,2.501 v 1.268 l 0.23994,1.371 0.92561,5.481 0.9256,4.146 c 1.2684,5.482 2.70819,10.964 3.97659,15.76 1.11131,3.955 1.9927,7.97 2.63955,12.026 0.51769,3.873 0.76972,7.776 0.75422,11.683 v 6.647 c 0,2.124 0,3.597 -0.44575,5.996 l -0.37701,3.426 -0.44564,3.426 c -0.27435,2.398 -0.58282,4.797 -0.95983,7.263 -1.40547,9.833 -3.01666,19.906 -4.66206,30.048 -3.22237,20.213 -6.58182,40.771 -9.22137,61.293 -1.34644,8.607 3.2677,17.043 11.24388,20.557 8.82665,3.418 18.75451,-0.962 22.17449,-9.784 0.16769,-0.433 0.31777,-0.872 0.44975,-1.317 3.42798,-10.038 6.51328,-20.009 9.42698,-30.149 2.913898,-10.142 5.621988,-20.282 8.124358,-30.595 2.50238,-10.313 4.83346,-20.557 6.85607,-31.417 0.51429,-2.673 0.99415,-5.448 1.43979,-8.189 0.20572,-1.405 0.47987,-2.741 0.68558,-4.18 l 0.5485,-4.42 c 0.41133,-2.74 0.68558,-6.304 0.92551,-9.558 0.24003,-3.255 0.27435,-5.893 0.27435,-9.045 -0.0176,-6.541 -0.5449,-13.07 -1.57696,-19.529 z"
     fill="#6371bc"
     fill-rule="nonzero"
     fill-opacity="1"
     id="path291"
     style="stroke-width:1.00028" />
  <path
     d="m 74.238632,817.68594 c -0.37701,-6.853 -0.95973,-13.259 -1.50833,-18.467 -0.5484,-5.208 -1.06269,-9.765 -1.50843,-14.389 l -0.34279,-3.426 v -7.708 c 0,-2.57 -0.20561,-5.243 -0.27425,-8.052 l 2.39962,-16.548 -0.78843,-35.871 h -2.29677 c -0.27425,-7.401 -1.95387,-13.91 -4.42203,-16.138 -3.42798,-2.912 -6.85617,2.878 -7.71304,12.986 -0.27435,2.946 -0.47996,5.482 -0.71989,8.223 -0.23993,2.741 -0.41133,5.379 -0.58272,8.085 -0.37711,5.448 -0.68568,10.895 -0.95983,16.446 -0.51428,11.135 -0.82275,22.441 -0.61694,35.152 v 10.037 l 0.34279,5.516 0.30847,4.146 c 0.44574,5.516 0.95983,10.998 1.40547,15.794 0.44575,4.797 0.75422,8.531 0.92561,12.06 0.17139,3.529 0.27435,7.366 0.27435,11.752 v 6.647 c 0,2.124 0,3.426 -0.17149,6.03 v 6.852 c 0,2.398 -0.20562,4.796 -0.34279,7.297 -0.51418,9.834 -1.06269,19.975 -1.64541,30.116 -1.13122,20.318 -2.33118,40.908 -3.42798,61.671 -0.41143,8.599 1.19976,17.13 3.97648,20.557 2.77673,3.426 6.85607,-1.268 7.9873,-11.101 1.13122,-9.833 2.29676,-20.111 3.42798,-30.253 1.13122,-10.142 1.98829,-20.351 2.87958,-30.835 0.89129,-10.484 1.67973,-20.762 2.39962,-31.554 0,-2.638 0.34279,-5.448 0.51418,-8.223 0,-1.405 0,-2.707 0.24004,-4.18 l 0.20571,-4.42 c 0,-2.741 0.20561,-6.304 0.30847,-9.593 0.10236,-3.289 0,-5.927 0,-9.045 0.17139,-6.098 0.0687,-12.745 -0.27425,-19.563 z"
     fill="#6358bc"
     fill-rule="nonzero"
     fill-opacity="1"
     id="path293"
     style="stroke-width:1.00028" />
  <path
     d="m 221.92531,697.77594 c -9.18705,-7.16 -18.27104,-14.457 -27.42507,-21.755 -9.15304,-7.298 -18.06594,-14.733 -27.11591,-22.1 l -3.42788,-2.775 -0.96053,-0.788 -1.02757,-0.925 c -0.65136,-0.616 -1.33773,-1.234 -1.92005,-1.884 -2.19021,-2.57 -4.23933,-5.258 -6.13638,-8.052 -4.27535,-5.276 -7.93236,-11.023 -10.90099,-17.13 l -1.85102,-4.214 c -0.61733,-1.371 -1.19965,-2.741 -1.85101,-4.077 l -3.73696,-8.12 c -2.43394,-5.448 -5.03927,-10.827 -7.6445,-16.171 -2.96163,-6.876 -0.29256,-14.879 6.20481,-18.604 5.53384,-3.711 13.02996,-2.236 16.74301,3.295 0.27214,0.405 0.51928,0.827 0.7404,1.262 0.22112,0.456 0.41523,0.925 0.58232,1.404 1.95408,5.688 3.90815,11.375 6.03332,17.131 l 3.11971,8.462 c 0.48027,1.405 1.02857,2.81 1.57687,4.214 l 1.57687,4.078 c 0.90049,2.24 1.97808,4.405 3.22277,6.475 2.40032,4.527 5.75716,8.479 9.83841,11.58 l 1.26769,1.131 1.30272,1.096 3.42788,2.81 c 8.94792,7.469 17.96288,14.834 26.84176,22.372 8.87888,7.538 17.8258,15.076 26.60162,22.716 4.55551,4.427 4.75261,11.674 0.44625,16.343 -3.75607,4.759 -10.58582,5.738 -15.52954,2.227 z"
     stroke="#c69c6d"
     stroke-width="1.71352"
     stroke-linecap="butt"
     stroke-linejoin="miter"
     stroke-miterlimit="10"
     stroke-opacity="1"
     fill="#c69c6d"
     fill-rule="nonzero"
     fill-opacity="1"
     id="path295" />
  <path
     d="m 83.981782,569.19094 c 0.85708,-0.274 -29.07008,7.503 -37.70802,24.531 -8.63793,17.028 -16.66046,134.374 -3.94218,145.134 12.7183,10.761 53.27109,-4.077 53.27109,-4.077 l 54.506158,-35.255 c 0,0 8.67277,-106.519 0,-126.151 -8.67276,-19.632 -66.126648,-4.18 -66.126648,-4.18 z"
     fill="#e8c63f"
     fill-rule="nonzero"
     fill-opacity="1"
     id="path297"
     style="stroke-width:1.00028" />
  <path
     d="m 88.438732,545.36494 c 0,0 -1.67972,25.388 -2.94802,29.19 -1.26849,3.803 20.568108,3.837 20.568108,3.837 l -2.09115,-45.91 z"
     stroke="#c69c6d"
     stroke-width="1.71352"
     stroke-linecap="butt"
     stroke-linejoin="miter"
     stroke-miterlimit="10"
     stroke-opacity="1"
     fill="#c69c6d"
     fill-rule="nonzero"
     fill-opacity="1"
     id="path299" />
  <path
     d="m 68.615642,482.94994 c 0,0 -22.04252,30.526 -8.57011,47.348 13.472,16.823 32.25733,34.948 41.375938,32.104 9.11851,-2.844 44.5641,-17.713 35.61718,-49.782 -8.94742,-32.069 -49.020448,-52.18 -68.423808,-29.67 z"
     stroke="#c69c6d"
     stroke-width="1.71352"
     stroke-linecap="butt"
     stroke-linejoin="miter"
     stroke-miterlimit="10"
     stroke-opacity="1"
     fill="#c69c6d"
     fill-rule="nonzero"
     fill-opacity="1"
     id="path301" />
  <path
     d="m 126.72458,487.86994 c 0,0 -17.13982,14.527 -32.086238,16.309 -14.94641,1.781 -16.83155,-3.632 -18.61433,1.781 l -1.74826,5.413 c 0,0 -5.41628,-0.993 -6.23903,1.302 -0.87518,3.034 -0.87518,6.252 0,9.285 0.95983,2.022 11.1068,7.161 11.1068,7.161 l -0.61693,21.756 c 0,0 -17.51693,-11.204 -23.20736,-21.756 -5.69053,-10.553 1.2684,-23.983 5.69053,-37.927 4.42213,-13.944 12.44374,-19.529 18.13366,-22.201 5.69053,-2.673 22.761618,1.302 26.566808,2.912 3.80519,1.61 20.5682,6.886 21.01385,15.966 z"
     stroke="#000000"
     stroke-width="1.71352"
     stroke-linecap="butt"
     stroke-linejoin="miter"
     stroke-miterlimit="10"
     stroke-opacity="1"
     fill="#000000"
     fill-rule="nonzero"
     fill-opacity="1"
     id="path303" />
  <path
     d="m 1289.6803,977.74994 c -43.4338,7.537 -93.9646,16 -80.6303,-4.283 13.3334,-20.282 53.2353,-23.229 76.278,-16.514 13.0271,3.769 4.3523,20.796 4.3523,20.796 z"
     fill="#e9d700"
     fill-rule="nonzero"
     fill-opacity="1"
     id="path305"
     style="stroke-width:1.00028" />
  <path
     d="m 1186.4156,926.21194 c -42.7815,10.655 -92.5569,22.681 -80.7294,1.473 11.8265,-21.208 51.4213,-26.929 74.9012,-21.927 13.2663,2.707 5.8282,20.455 5.8282,20.455 z"
     fill="#e9d700"
     fill-rule="nonzero"
     fill-opacity="1"
     id="path307"
     style="stroke-width:1.00028" />
  <path
     d="m 1144.9558,784.54794 v -4.591 l 0.3082,-4.831 c 0,-3.049 0.5833,-6.852 0.9935,-10.449 0.4122,-3.598 0.9605,-6.339 1.6459,-9.696 1.3217,-6.999 3.2258,-13.875 5.6901,-20.557 2.4934,-6.43 5.473,-12.66 8.9129,-18.638 2.8796,-5.242 5.4851,-9.696 7.9534,-14.322 l 1.851,-3.426 c 0.3432,-0.754 0.6854,-1.473 1.0626,-2.227 l 0.3082,-0.548 0.2741,-0.685 0.5483,-1.439 c 0.3772,-0.959 0.7895,-1.85 1.1657,-2.98 3.1347,-9.542 5.6771,-19.268 7.6102,-29.123 1.1316,-5.173 2.1601,-10.484 3.1547,-15.829 l 2.9816,-15.829 v -0.72 c 1.4408,-11.262 11.7435,-19.224 23.0107,-17.784 10.0965,1.291 17.7307,9.77 17.9508,19.942 0.2802,3.426 0.4103,6.167 0.5504,9.217 0.14,3.049 0,5.995 0.2101,9.01 0,5.996 0,12.026 -0.4503,18.09 -0.6203,12.711 -2.4613,25.332 -5.513,37.688 -0.4002,1.738 -0.8905,3.454 -1.4808,5.139 l -0.8205,2.604 -0.4102,1.302 -0.5503,1.404 -2.2913,5.619 -1.961,4.249 c -2.6355,5.55 -5.447,11.066 -7.9834,15.862 -2.1132,3.963 -3.9912,8.047 -5.6221,12.232 -1.4448,4.01 -2.5904,8.121 -3.4279,12.299 -0.4793,2.228 -0.9255,4.831 -1.3367,7.093 -0.4113,2.261 -0.5834,3.905 -0.7545,6.544 l -0.3081,3.7 -0.2752,3.906 c -0.1701,2.603 -0.3432,5.242 -0.4112,7.983 -0.5483,10.792 -0.8565,21.926 -1.1666,33.13 -0.6514,22.339 -1.1997,45.054 -2.5705,67.564 0.5584,11.353 -8.1975,21.009 -19.5577,21.567 -11.3592,0.558 -21.0206,-8.193 -21.5789,-19.546 -1.885,-11.512 -3.1877,-22.886 -4.3874,-34.261 -1.1996,-11.375 -2.0571,-22.955 -2.7425,-34.535 -0.6854,-11.581 -1.0976,-23.195 -1.0626,-35.152 0.3082,-2.844 0.3772,-5.893 0.4793,-8.977 z"
     fill="#743700"
     fill-rule="nonzero"
     fill-opacity="1"
     id="path309"
     style="stroke-width:1.00028" />
  <path
     d="m 1218.161,785.06594 c 1.2207,-7.124 2.9917,-14.145 5.2729,-21.002 1.8911,-5.996 3.642,-11.135 5.2129,-16.377 l 1.1706,-3.906 c 0.2002,-0.822 0.4103,-1.644 0.6504,-2.501 l 0.2001,-0.616 v -0.789 l 0.2802,-1.576 c 0,-1.062 0.4102,-2.055 0.5503,-3.426 0.3702,-2.912 0.6803,-5.961 0.9605,-9.148 l -8.4046,-18.843 2.8115,-40.806 h 6.2735 c 1.4608,-11.888 12.2867,-20.342 24.1833,-18.883 8.6047,1.057 15.7586,7.135 18.19,15.457 0.9605,3.426 1.7109,6.236 2.5013,9.353 0.7905,3.118 1.4008,6.133 2.0512,9.217 1.2406,6.167 2.4013,12.368 3.4318,18.672 2.0412,13.224 2.7816,26.615 2.2313,39.984 0,1.747 -0.2402,3.7 -0.4503,5.584 l -0.3101,2.878 v 1.439 l -0.2702,1.542 -1.1606,6.236 -1.1407,4.762 c -1.5408,6.27 -3.4218,12.505 -4.8926,17.953 -1.4208,4.495 -2.5615,9.071 -3.4319,13.704 -0.6304,4.414 -0.9405,8.868 -0.9305,13.327 v 7.572 c 0,2.398 0,4.111 0.5503,6.852 l 0.4502,3.872 0.7204,4.008 c 0.3702,2.741 0.7204,5.482 1.2007,8.291 1.7109,11.204 3.732,22.716 5.7231,34.261 3.9722,23.093 8.1245,46.562 11.3763,69.962 1.7009,11.838 -6.5236,22.81 -18.3701,24.508 -10.0856,1.446 -19.8209,-4.336 -23.3829,-13.887 -4.3124,-11.443 -8.0144,-22.853 -11.6164,-34.261 -3.602,-11.409 -6.8537,-23.161 -10.0155,-34.912 -3.1517,-11.752 -5.9232,-23.606 -8.3946,-35.872 -0.6504,-3.049 -1.2007,-6.201 -1.751,-9.353 -0.2701,-1.611 -0.5803,-3.118 -0.8504,-4.763 l -0.6904,-5.036 c -0.5103,-3.118 -0.8205,-7.195 -1.1306,-10.895 -0.3102,-3.7 -0.3402,-6.852 -0.3402,-10.279 -0.09,-7.464 0.4202,-14.923 1.5408,-22.303 z"
     fill="#743700"
     fill-rule="nonzero"
     fill-opacity="1"
     id="path311"
     style="stroke-width:1.00028" />
  <path
     d="m 1038.1951,542.65794 c 13.7125,0.993 27.0479,1.816 40.5883,2.569 13.5405,0.754 27.0479,1.405 40.5883,2.124 l 5.0738,0.275 h 3.0507 c 1.0306,-0.005 2.0601,-0.062 3.0857,-0.171 11.5053,-1.921 22.8095,-4.903 33.7656,-8.908 l 4.6955,-2.261 c 1.5429,-0.754 3.0857,-1.508 4.6286,-2.193 l 9.2551,-4.317 c 6.1704,-2.912 12.3758,-5.653 18.6482,-8.36 7.4381,-3.22 10.935,-12.985 7.7813,-21.791 -3.1537,-8.805 -11.6894,-13.362 -19.1285,-10.278 l -1.5769,0.822 c -5.8732,3.564 -11.7925,6.99 -17.7567,10.279 l -8.947,5.071 c -1.4738,0.855 -2.9826,1.713 -4.4564,2.501 l -4.4224,2.432 c -2.4404,1.279 -4.9868,2.345 -7.6102,3.186 -2.7986,0.998 -5.6772,1.755 -8.6038,2.262 -2.8815,0.294 -5.7821,0.351 -8.6727,0.171 h -3.9432 l -5.0728,-0.206 c -13.7115,-0.548 -27.0479,-1.233 -40.5883,-1.645 -13.5404,-0.412 -27.0479,-0.891 -40.5533,-1.165 -6.8558,0 -12.4438,6.338 -12.2037,14.424 -0.3532,7.474 4.9797,14.015 12.3748,15.177 z"
     fill="#ffe3aa"
     fill-rule="nonzero"
     fill-opacity="1"
     id="path313"
     style="stroke-width:1.00028" />
  <path
     d="m 1255.9918,495.00494 c -1.1006,-0.308 35.7897,8.599 46.6557,28.026 10.8659,19.426 20.5713,153.318 4.8326,165.581 -15.7386,12.263 -65.616,-4.66 -65.616,-4.66 l -67.1509,-40.189 c 0,0 -10.7299,-121.559 0,-143.891 10.7298,-22.339 81.2786,-4.865 81.2786,-4.865 z"
     fill="#ff94ff"
     fill-rule="nonzero"
     fill-opacity="1"
     id="path315"
     style="stroke-width:1.00028" />
  <path
     d="m 1250.5488,467.81094 c 0,0 2.0211,28.951 3.4319,33.303 1.4008,4.352 -25.3039,4.351 -25.3039,4.351 l 2.5714,-52.386 z"
     fill="#ffe3aa"
     fill-rule="nonzero"
     fill-opacity="1"
     id="path317"
     style="stroke-width:1.00028" />
  <path
     d="m 1268.8189,397.37044 c 0,0 25.8842,35.0145 10.2856,54.0995 -15.5985,19.083 -37.2004,39.537 -47.9963,36.213 -10.796,-3.323 -52.0707,-20.557 -41.787,-57.08 10.2836,-36.5215 56.7652,-59.2033 79.4977,-33.2325 z"
     fill="#ffe3aa"
     fill-rule="nonzero"
     fill-opacity="1"
     id="path319"
     style="stroke-width:1.00028" />
  <path
     d="m 1157.0044,659.07094 c 13.7116,-7.435 27.1169,-15.041 40.5883,-22.681 13.4724,-7.64 26.8718,-15.452 40.3092,-23.161 l 5.0127,-2.912 1.4408,-0.856 1.5709,-0.993 c 0.9605,-0.685 1.9911,-1.336 2.8516,-2.056 3.3418,-2.902 6.5135,-6.003 9.4952,-9.285 6.5436,-6.031 12.3067,-12.869 17.1394,-20.35 l 3.0817,-5.14 c 0.9905,-1.678 2.0211,-3.426 3.0517,-4.968 l 6.1734,-9.935 c 4.0722,-6.647 8.2945,-13.19 12.5769,-19.701 5.1028,-7.743 2.2612,-19.392 -6.3435,-26.005 -8.6047,-6.612 -19.6708,-5.653 -24.7836,2.124 -0.3602,0.552 -0.6904,1.124 -0.9906,1.714 -3.4319,7.126 -6.8537,14.218 -10.2856,21.173 l -5.353,10.484 c -0.8905,1.781 -1.7809,3.426 -2.7015,5.242 l -2.7114,5.07 c -1.5509,2.752 -3.3119,5.375 -5.2729,7.846 -2.0612,2.701 -4.3524,5.212 -6.8638,7.503 -2.5714,2.082 -5.3129,3.949 -8.1945,5.585 l -1.8811,1.199 -1.951,1.166 -5.0028,2.946 c -13.3393,7.88 -26.7437,15.623 -39.975,23.64 -13.2322,8.017 -26.5666,15.931 -39.6968,23.983 -6.8557,4.214 -7.9193,13.704 -2.5714,21.55 5.348,7.846 14.535,10.484 21.2887,6.818 z"
     fill="#ffe3aa"
     fill-rule="nonzero"
     fill-opacity="1"
     id="path321"
     style="stroke-width:1.00028" />
  <path
     d="m 1211.5504,415.11094 c -8.3636,0 -8.3636,0 -10.2837,-4.146 -1.92,-4.145 9.7354,-16.8219 28.9009,-22.921 19.1606,-6.0985 46.6157,2.0899 49.6373,5.242 3.0117,3.1519 16.419,24.634 14.9783,28.436 -1.4408,3.803 -5.6532,9.97 -5.6532,18.261 0.7104,7.519 2.6515,14.87 5.7532,21.756 0.5203,1.062 1.5809,3.426 0,9.422 -1.5709,5.996 -7.1639,12.917 -6.4736,16.789 0.6804,3.871 12.7871,16.171 9.8655,16.274 -2.9116,0.104 -7.8443,4.488 -7.8443,4.488 l -36.1299,-15.109 -2.3713,-11.135 c 0,0 11.8965,-5.139 11.8965,-13.43 0,-8.292 0.2102,-14.733 0.2102,-14.733 0,0 6.8537,3.632 7.5741,-2.227 0.7204,-5.858 6.8538,-22.441 0.5803,-22.441 -6.2734,0 -6.2734,2.056 -6.2734,2.056 -6.2735,-12.437 -54.3669,-16.583 -54.3669,-16.583 z"
     fill="#fffa7a"
     fill-rule="nonzero"
     fill-opacity="1"
     id="path323"
     style="stroke-width:1.00028" />
  <path
     d="m 1030.4218,528.28394 136.5591,110.716"
     stroke="#00ff00"
     stroke-width="6.85419"
     stroke-linecap="butt"
     stroke-linejoin="miter"
     stroke-miterlimit="10"
     stroke-opacity="1"
     fill="#00ff00"
     fill-rule="nonzero"
     fill-opacity="1"
     id="path325" />
  <path
     d="m 1163.7207,621.61594 -14.0577,17.31 24.0032,5.1 z"
     stroke="#00ff00"
     stroke-width="3.42703"
     stroke-linecap="butt"
     stroke-linejoin="miter"
     stroke-miterlimit="10"
     stroke-opacity="1"
     fill="#00ff00"
     fill-rule="nonzero"
     fill-opacity="1"
     id="path327" />
  <path
     d="m 1273.3514,806.43194 c 0.3402,-6.372 0.9605,-12.265 1.5108,-17.13 0.5503,-4.865 1.0306,-9.045 1.4708,-13.327 l 0.3402,-3.152 0.2101,-2.056 v -5.106 c 0,-2.364 0.2101,-4.865 0.2802,-7.469 l -2.4014,-15.348 0.8205,-33.234 h 1.781 c 0.2801,-6.852 1.951,-12.882 4.4524,-14.938 3.4319,-2.707 6.8638,2.672 7.6842,12.025 0.3102,2.741 0.5103,5.105 0.7204,7.606 l 0.6204,7.504 c 0.3402,5.036 0.6804,10.278 0.9205,15.246 0.5103,10.278 0.8605,20.796 0.6503,32.548 v 9.353 l -0.3401,5.071 -0.3402,3.871 c -0.4203,5.105 -0.9305,10.279 -1.4108,14.63 -0.4803,4.351 -0.7504,7.915 -0.9205,11.169 -0.1701,3.255 -0.2401,6.853 -0.2802,10.896 v 18.329 c 0,2.227 0.2102,4.42 0.3402,6.852 0.4803,9.114 1.0706,18.502 1.6109,27.889 1.1707,18.844 2.3313,37.927 3.4319,57.011 0.3802,8.018 -1.2007,16 -3.9722,18.948 -2.7815,2.946 -6.8638,-1.166 -7.9944,-10.279 -1.1306,-9.113 -2.2912,-18.638 -3.4219,-28.026 -1.1306,-9.387 -1.9911,-18.878 -2.8515,-28.436 -0.8505,-9.559 -1.711,-19.221 -2.4314,-29.225 0,-2.467 -0.3402,-5.071 -0.4802,-7.64 0,-1.302 0,-2.536 -0.2402,-3.872 l -0.2001,-4.077 c 0,-2.57 -0.2401,-5.859 -0.3502,-8.908 -0.1,-3.049 0,-5.482 0,-8.394 0.3102,-5.859 0.4203,-12.026 0.7905,-18.33 z"
     fill="#5d2300"
     fill-rule="nonzero"
     fill-opacity="1"
     id="path329"
     style="stroke-width:1.00028" />
  <path
     d="m 688.32807,708.04594 95.29238,-46.59 3.0917,5.96 -97.35351,47.72 -1.03057,-2.02 z"
     fill="#00fe00"
     fill-rule="nonzero"
     fill-opacity="1"
     id="path331"
     style="stroke-width:1.00028" />
  <path
     d="m 688.32807,708.04594 2.05113,-1.4 95.64257,-46.6 -2.40132,1.41 z"
     fill="#008000"
     fill-rule="nonzero"
     fill-opacity="1"
     id="path333"
     style="stroke-width:1.00028" />
  <path
     d="m 777.45707,650.35594 2.40132,-1.41 23.99317,5.89 -2.4013,1.41 z"
     fill="#008100"
     fill-rule="nonzero"
     fill-opacity="1"
     id="path335"
     style="stroke-width:1.00028" />
  <path
     d="m 801.45026,656.24594 2.4013,-1.41 -8.9149,21.93 -2.40131,1.41 z"
     fill="#008500"
     fill-rule="nonzero"
     fill-opacity="1"
     id="path337"
     style="stroke-width:1.00028" />
  <path
     d="m 686.95732,483.50594 2.40132,-1.41 98.38408,145.54 -2.75151,1.41 z"
     fill="#008a00"
     fill-rule="nonzero"
     fill-opacity="1"
     id="path339"
     style="stroke-width:1.00028" />
  <path
     d="m 686.95732,483.50594 98.03389,145.54 -2.74151,2.94 -95.29238,-141.39 z"
     fill="#00fe00"
     fill-rule="nonzero"
     fill-opacity="1"
     id="path341"
     style="stroke-width:1.00028" />
  <path
     d="m 790.13403,624.00594 2.40132,-1.4 10.62581,30.76 -2.3913,1.41 z"
     fill="#008b00"
     fill-rule="nonzero"
     fill-opacity="1"
     id="path343"
     style="stroke-width:1.00028" />
  <g
     clip-path="url(#clip4)"
     id="g347"
     transform="translate(-994.27004,-224.64406)">
    <path
       d="m 5150.79,3004.41 2.43,-1.41 c 3.35,-1.53 7.28,-1.16 10.28,1 l -2.44,1.4 c -2.99,-2.15 -6.92,-2.53 -10.27,-0.99"
       fill="#000000"
       fill-rule="nonzero"
       fill-opacity="1"
       transform="matrix(1.00055,0,0,1,-3353.1,-2185.36)"
       id="path345" />
  </g>
  <g
     clip-path="url(#clip5)"
     id="g351"
     transform="translate(-994.27004,-224.64406)">
    <path
       d="m 5357.72,3240.43 2.4,-1.4 c 0.34,3.64 -1.3,7.2 -4.28,9.32 l -2.4,1.4 c 2.99,-2.12 4.62,-5.67 4.28,-9.32"
       fill="#000000"
       fill-rule="nonzero"
       fill-opacity="1"
       transform="matrix(1.00055,0,0,1,-3353.1,-2185.36)"
       id="path349" />
  </g>
  <path
     d="m 1013.6469,725.86594 2.3914,-1.41 -0.3402,104.53 -2.4014,1.41 z"
     fill="#894e00"
     fill-rule="nonzero"
     fill-opacity="1"
     id="path353"
     style="stroke-width:1.00028" />
  <path
     d="m 816.52856,595.39594 2.7515,-1.4 182.36024,105.32 -2.39134,1.4 z"
     fill="#844c00"
     fill-rule="nonzero"
     fill-opacity="1"
     id="path355"
     style="stroke-width:1.00028" />
  <path
     d="m 999.30016,700.83894 c 8.57374,5.592 13.97074,14.93 14.53404,25.147 l -0.2752,104.566 c 0,9.216 -6.6156,12.951 -14.63804,8.326 l -182.5023,-105.32 c -8.5928,-5.595 -14.0037,-14.948 -14.569,-25.182 l 0.3081,-104.531 c 0,-9.216 6.6167,-12.95 14.6381,-8.325 z"
     fill="#fe9100"
     fill-rule="nonzero"
     fill-opacity="1"
     id="path357"
     style="stroke-width:1.00028" />
  <g
     clip-path="url(#clip6)"
     id="g361"
     transform="translate(-994.27004,-224.64406)">
    <path
       d="m 5343.68,3110.89 2.43,-1.4 c 8.55,5.61 13.94,14.94 14.52,25.14 l -2.43,1.41 c -0.56,-10.22 -5.95,-19.56 -14.52,-25.15"
       fill="#000000"
       fill-rule="nonzero"
       fill-opacity="1"
       transform="matrix(1.00055,0,0,1,-3353.1,-2185.36)"
       id="path359" />
  </g>
  <g
     clip-path="url(#clip7)"
     id="g365"
     transform="translate(-1064.27,-324.64406)">
    <path
       d="m 5150.79,3004.41 2.43,-1.41 c 3.35,-1.53 7.28,-1.16 10.28,1 l -2.44,1.4 c -2.99,-2.15 -6.92,-2.53 -10.27,-0.99"
       fill="#000000"
       fill-rule="nonzero"
       fill-opacity="1"
       transform="matrix(1.00055,0,0,1,-3679.99,-2248.29)"
       id="path363" />
  </g>
  <g
     clip-path="url(#clip8)"
     id="g369"
     transform="translate(-994.27004,-224.64406)">
    <path
       d="m 5357.72,3240.43 2.4,-1.4 c 0.34,3.64 -1.3,7.2 -4.28,9.32 l -2.4,1.4 c 2.99,-2.12 4.62,-5.67 4.28,-9.32"
       fill="#000000"
       fill-rule="nonzero"
       fill-opacity="1"
       transform="matrix(1.00055,0,0,1,-3679.99,-2248.29)"
       id="path367" />
  </g>
  <path
     d="m 686.40671,767.46594 0.35019,-104.53 2.39131,-1.41 -0.34018,104.53 z"
     fill="#894e00"
     fill-rule="nonzero"
     fill-opacity="1"
     id="path371"
     style="stroke-width:1.00028" />
  <path
     d="m 672.35898,637.78594 -182.72044,-105.32 2.75152,-1.4 182.36024,105.32 z"
     fill="#844c00"
     fill-rule="nonzero"
     fill-opacity="1"
     id="path373"
     style="stroke-width:1.00028" />
  <path
     d="m 672.28239,637.90594 c 8.57472,5.592 13.97168,14.93 14.53499,25.147 l -0.27515,104.566 c 0,9.216 -6.61564,12.951 -14.63805,8.326 l -182.50232,-105.32 c -8.59272,-5.595 -14.00369,-14.948 -14.56901,-25.182 l 0.30817,-104.531 c 0,-9.216 6.61664,-12.95 14.63805,-8.326 z"
     fill="#fe9100"
     fill-rule="nonzero"
     fill-opacity="1"
     id="path375"
     style="stroke-width:1.00028" />
  <g
     clip-path="url(#clip9)"
     id="g379"
     transform="translate(-994.27004,-224.64406)">
    <path
       d="m 5343.68,3110.89 2.43,-1.4 c 8.55,5.61 13.94,14.94 14.52,25.14 l -2.43,1.41 c -0.56,-10.22 -5.95,-19.56 -14.52,-25.15"
       fill="#000000"
       fill-rule="nonzero"
       fill-opacity="1"
       transform="matrix(1.00055,0,0,1,-3679.99,-2248.29)"
       id="path377" />
  </g>
  <g
     clip-path="url(#clip10)"
     id="g383"
     transform="translate(-994.27004,-224.64406)">
    <path
       d="m 5150.79,3004.41 2.43,-1.41 c 3.35,-1.53 7.28,-1.16 10.28,1 l -2.44,1.4 c -2.99,-2.15 -6.92,-2.53 -10.27,-0.99"
       fill="#000000"
       fill-rule="nonzero"
       fill-opacity="1"
       transform="matrix(1.00055,0,0,1,-3677.78,-2472.7)"
       id="path381" />
  </g>
  <g
     clip-path="url(#clip11)"
     id="g387"
     transform="translate(-994.27004,-224.64406)">
    <path
       d="m 5357.72,3240.43 2.4,-1.4 c 0.34,3.64 -1.3,7.2 -4.28,9.32 l -2.4,1.4 c 2.99,-2.12 4.62,-5.67 4.28,-9.32"
       fill="#000000"
       fill-rule="nonzero"
       fill-opacity="1"
       transform="matrix(1.00055,0,0,1,-3677.78,-2472.7)"
       id="path385" />
  </g>
  <path
     d="m 688.61671,543.05594 0.35019,-104.53 2.39131,-1.41 -0.34018,104.53 z"
     fill="#894e00"
     fill-rule="nonzero"
     fill-opacity="1"
     id="path389"
     style="stroke-width:1.00028" />
  <path
     d="m 674.56898,413.37594 -182.72044,-105.32 2.75152,-1.4 182.36024,105.32 z"
     fill="#844c00"
     fill-rule="nonzero"
     fill-opacity="1"
     id="path391"
     style="stroke-width:1.00028" />
  <path
     d="m 674.61467,413.49894 c 8.57472,5.592 13.97168,14.931 14.53499,25.148 l -0.27515,104.566 c 0,9.216 -6.61563,12.95 -14.63804,8.325 l -182.50232,-105.319 c -8.59273,-5.595 -14.0037,-14.948 -14.56901,-25.183 l 0.30817,-104.5306 c 0,-9.21629 6.61563,-12.95045 14.63804,-8.32552 z"
     fill="#fe9100"
     fill-rule="nonzero"
     fill-opacity="1"
     id="path393"
     style="stroke-width:1.00028" />
  <g
     clip-path="url(#clip12)"
     id="g397"
     transform="translate(-994.27004,-224.64406)">
    <path
       d="m 5343.68,3110.89 2.43,-1.4 c 8.55,5.61 13.94,14.94 14.52,25.14 l -2.43,1.41 c -0.56,-10.22 -5.95,-19.56 -14.52,-25.15"
       fill="#000000"
       fill-rule="nonzero"
       fill-opacity="1"
       transform="matrix(1.00055,0,0,1,-3677.78,-2472.7)"
       id="path395" />
  </g>
  <path
     d="m 358.35428,559.84162 c 10.07368,-5.24559 22.49533,-1.33674 27.74429,8.73225 l 59.28531,113.72594 c 5.2485,10.0681 1.33659,22.48333 -8.73708,27.72893 L 208.48341,828.83861 c -10.07456,5.24605 -22.49667,1.33631 -27.74517,-8.73179 L 121.45293,706.38089 c -5.24896,-10.06899 -1.3366,-22.48334 8.73797,-27.7294 z"
     fill="#ff9200"
     fill-rule="nonzero"
     fill-opacity="1"
     id="path399"
     style="stroke-width:1.00016" />
  <path
     d="m 156.9646,733.12794 c -11.1071,-7.766 -22.12246,-15.635 -33.04636,-23.607 -11.00385,-7.88 -21.87023,-15.966 -32.806638,-23.983 l -4.07924,-3.015 -1.16554,-0.891 -1.2684,-0.993 c -0.78843,-0.685 -1.61118,-1.336 -2.29676,-2.056 -2.67777,-2.802 -5.19566,-5.754 -7.54165,-8.839 -5.30321,-5.79 -9.90544,-12.184 -13.71163,-19.05 l -2.33098,-4.659 c -0.75422,-1.508 -1.54255,-3.015 -2.33109,-4.523 l -4.69638,-9.011 c -3.11951,-6.064 -6.37607,-12.025 -9.66697,-17.952 -3.72853,-7.668 -0.84569,-16.912 6.58178,-21.105 6.66166,-4.544 15.74735,-2.83 20.29345,3.828 0.15509,0.228 0.30367,0.459 0.44575,0.695 0.27905,0.511 0.53079,1.037 0.75411,1.576 2.50258,6.338 5.07349,12.676 7.74736,18.947 l 4.01081,9.422 c 0.65125,1.576 1.33693,3.117 2.02241,4.693 l 2.02251,4.523 c 1.16864,2.495 2.52068,4.9 4.04512,7.195 3.03997,5.05 7.14633,9.376 12.032318,12.676 l 1.54264,1.233 1.61119,1.199 4.04512,3.05 c 10.83246,8.12 21.73415,16.102 32.49667,24.325 10.76391,8.222 21.56185,16.343 32.22371,24.668 5.38696,4.622 6.0043,12.734 1.37976,18.117 -0.0811,0.095 -0.16409,0.189 -0.24814,0.281 -4.30036,5.548 -12.09865,6.953 -18.06693,3.255 z"
     stroke="#c69c6d"
     stroke-width="1.71352"
     stroke-linecap="butt"
     stroke-linejoin="miter"
     stroke-miterlimit="10"
     stroke-opacity="1"
     fill="#c69c6d"
     fill-rule="nonzero"
     fill-opacity="1"
     id="path401" />
  <path
     d="m 801.45736,656.29394 -8.74177,21.927 -15.22136,-27.82 z"
     fill="#99ff99"
     fill-rule="nonzero"
     fill-opacity="1"
     id="path403"
     style="stroke-width:1.00028" />
  <path
     d="m 788.11206,669.76094 c -8.06343,-14.74 -9.17704,-16.777 -9.88143,-18.058 -0.38021,-0.691 -0.68738,-1.261 -0.68037,-1.269 0,0 5.36795,1.306 11.91655,2.916 11.14415,2.74 11.90455,2.934 11.88555,3.028 -0.039,0.09 -8.62476,21.695 -8.65478,21.725 0,0 -2.07113,-3.747 -4.58452,-8.343 z"
     fill="#00fe00"
     fill-rule="nonzero"
     fill-opacity="1"
     id="path405"
     style="stroke-width:1.00028" />
  <path
     d="m 790.05513,623.92094 c 0.63035,-0.475 10.75393,30.733 10.73393,30.828 -0.039,0.091 -15.25041,-10.818 -26.18842,-18.208 0,0 13.35534,-11.037 15.45449,-12.62 z"
     fill="#00fe00"
     fill-rule="nonzero"
     fill-opacity="1"
     id="path407"
     style="stroke-width:1.00028" />
  <path
     d="m 153.99996,429.23194 c 0,7.164 -5.81,12.973 -12.97,12.973 -7.17,0 -12.98,-5.809 -12.98,-12.973 0,-7.165 5.81,-12.973 12.98,-12.973 7.16,0 12.97,5.808 12.97,12.973 z"
     fill="#ffffff"
     fill-rule="evenodd"
     fill-opacity="1"
     id="path417" />
  <path
     d="m 184.36996,411.88394 c 0,14.329 -11.62,25.945 -25.95,25.945 -14.33,0 -25.94,-11.616 -25.94,-25.945 0,-14.328 11.61,-25.944 25.94,-25.944 14.33,0 25.95,11.616 25.95,25.944 z"
     fill="#ffffff"
     fill-rule="evenodd"
     fill-opacity="1"
     id="path419" />
  <path
     d="m 233.09996,376.21994 c 0,21.493 -17.42,38.917 -38.91,38.917 -21.5,0 -38.92,-17.424 -38.92,-38.917 0,-21.493 17.42,-38.917 38.92,-38.917 21.49,0 38.91,17.424 38.91,38.917 z"
     fill="#ffffff"
     fill-rule="evenodd"
     fill-opacity="1"
     id="path421" />
  <path
     d="m 153.99996,429.23194 c 0,7.164 -5.81,12.973 -12.97,12.973 -7.17,0 -12.98,-5.809 -12.98,-12.973 0,-7.165 5.81,-12.973 12.98,-12.973 7.16,0 12.97,5.808 12.97,12.973 z"
     stroke="#ffc000"
     stroke-width="9.16667"
     stroke-linecap="butt"
     stroke-linejoin="round"
     stroke-miterlimit="10"
     stroke-opacity="1"
     fill="none"
     fill-rule="evenodd"
     id="path425" />
  <path
     d="m 184.36996,411.88394 c 0,14.329 -11.62,25.945 -25.95,25.945 -14.33,0 -25.94,-11.616 -25.94,-25.945 0,-14.328 11.61,-25.944 25.94,-25.944 14.33,0 25.95,11.616 25.95,25.944 z"
     stroke="#ffc000"
     stroke-width="9.16667"
     stroke-linecap="butt"
     stroke-linejoin="round"
     stroke-miterlimit="10"
     stroke-opacity="1"
     fill="none"
     fill-rule="evenodd"
     id="path427" />
  <path
     d="m 233.09996,376.21994 c 0,21.493 -17.42,38.917 -38.91,38.917 -21.5,0 -38.92,-17.424 -38.92,-38.917 0,-21.493 17.42,-38.917 38.92,-38.917 21.49,0 38.91,17.424 38.91,38.917 z"
     stroke="#ffc000"
     stroke-width="9.16667"
     stroke-linecap="butt"
     stroke-linejoin="round"
     stroke-miterlimit="10"
     stroke-opacity="1"
     fill="none"
     fill-rule="evenodd"
     id="path429" />
  <g
     id="g945"
     transform="translate(-88.270038,-14.644056)">
    <path
       d="m 1229.44,460.875 c 0,7.165 5.808,12.973 12.972,12.973 7.165,0 12.973,-5.808 12.973,-12.973 0,-7.164 -5.808,-12.972 -12.973,-12.972 -7.164,0 -12.972,5.808 -12.972,12.972 z"
       fill="#ffffff"
       fill-rule="evenodd"
       fill-opacity="1"
       id="path269" />
    <path
       d="m 1200.446,443.74 c 0,14.329 11.616,25.945 25.945,25.945 14.329,0 25.945,-11.616 25.945,-25.945 0,-14.329 -11.616,-25.945 -25.945,-25.945 -14.329,0 -25.945,11.616 -25.945,25.945 z"
       fill="#ffffff"
       fill-rule="evenodd"
       fill-opacity="1"
       id="path271" />
    <path
       d="m 1153.732,407.653 c 0,21.493 17.424,38.916 38.917,38.916 21.492,0 38.916,-17.423 38.916,-38.916 0,-21.493 -17.424,-38.916 -38.916,-38.916 -21.493,0 -38.917,17.423 -38.917,38.916 z"
       fill="#ffffff"
       fill-rule="evenodd"
       fill-opacity="1"
       id="path273" />
    <path
       d="m 1229.44,460.875 c 0,7.165 5.808,12.973 12.972,12.973 7.165,0 12.973,-5.808 12.973,-12.973 0,-7.164 -5.808,-12.972 -12.973,-12.972 -7.164,0 -12.972,5.808 -12.972,12.972 z"
       stroke="#ffc000"
       stroke-width="9.16667"
       stroke-linecap="butt"
       stroke-linejoin="round"
       stroke-miterlimit="10"
       stroke-opacity="1"
       fill="none"
       fill-rule="evenodd"
       id="path277" />
    <path
       d="m 1200.446,443.74 c 0,14.329 11.616,25.945 25.945,25.945 14.329,0 25.945,-11.616 25.945,-25.945 0,-14.329 -11.616,-25.945 -25.945,-25.945 -14.329,0 -25.945,11.616 -25.945,25.945 z"
       stroke="#ffc000"
       stroke-width="9.16667"
       stroke-linecap="butt"
       stroke-linejoin="round"
       stroke-miterlimit="10"
       stroke-opacity="1"
       fill="none"
       fill-rule="evenodd"
       id="path279" />
    <path
       d="m 1153.732,407.653 c 0,21.493 17.424,38.916 38.917,38.916 21.492,0 38.916,-17.423 38.916,-38.916 0,-21.493 -17.424,-38.916 -38.916,-38.916 -21.493,0 -38.917,17.423 -38.917,38.916 z"
       stroke="#ffc000"
       stroke-width="9.16667"
       stroke-linecap="butt"
       stroke-linejoin="round"
       stroke-miterlimit="10"
       stroke-opacity="1"
       fill="none"
       fill-rule="evenodd"
       id="path281" />
    <g
       id="g931"
       transform="rotate(-3.2210665,774.62436,-261.4749)">
      <path
         d="M 1256.236,162.842 C 1271.48,108.476 1192.991,58.4083 1080.927,51.0131 1035.518,48.0165 989.348,52.4961 949.807,63.7351 907.909,25.419 810.001,10.85699 731.124,31.2098 717.331,34.7688 704.673,39.2795 693.543,44.6015 660.911,12.84039 581.428,-0.06335 516.012,15.78016 497.907,20.1652 482.113,26.5072 469.844,34.3187 417.248,4.28282 324.31,0.57265 262.26,26.0318 236.18,36.7322 218.6,51.4909 212.54,67.7776 126.36,79.1855 75.52,122.397 98.99,164.294 c 1.97,3.522 4.45,6.973 7.41,10.328 -69.12,43.656 -52.2,106.227 37.79,139.758 28.01,10.437 61.09,17.195 96.06,19.62 0.78,46.967 79.94,84.736 176.824,84.359 32.369,-0.126 64.034,-4.591 91.492,-12.901 32.768,52.656 147.068,82.417 255.295,66.475 45.358,-6.682 84.547,-20.812 110.884,-39.98 110.811,32.429 254.64,14.985 321.251,-38.963 0.84,-0.68 1.664,-1.364 2.475,-2.053 72.521,4.119 138.2114,-20.989 146.7232,-56.081 4.5369,-18.704 -8.1886,-37.425 -34.7854,-51.175 62.7928,-17.936 83.8861,-57.305 47.1132,-87.933 -21.2148,-17.67 -58.4229,-29.351 -100.182,-31.451 z"
         fill="#ffffff"
         fill-rule="evenodd"
         fill-opacity="1"
         id="path267" />
      <path
         d="M 1256.236,162.842 C 1271.48,108.476 1192.991,58.4083 1080.927,51.0131 1035.518,48.0165 989.348,52.4961 949.807,63.7351 907.909,25.419 810.001,10.85699 731.124,31.2098 717.331,34.7688 704.673,39.2795 693.543,44.6015 660.911,12.84039 581.428,-0.06335 516.012,15.78016 497.907,20.1652 482.113,26.5072 469.844,34.3187 417.248,4.28282 324.31,0.57265 262.26,26.0318 236.18,36.7322 218.6,51.4909 212.54,67.7776 126.36,79.1855 75.52,122.397 98.99,164.294 c 1.97,3.522 4.45,6.973 7.41,10.328 -69.12,43.656 -52.2,106.227 37.79,139.758 28.01,10.437 61.09,17.195 96.06,19.62 0.78,46.967 79.94,84.736 176.824,84.359 32.369,-0.126 64.034,-4.591 91.492,-12.901 32.768,52.656 147.068,82.417 255.295,66.475 45.358,-6.682 84.547,-20.812 110.884,-39.98 110.811,32.429 254.64,14.985 321.251,-38.963 0.84,-0.68 1.664,-1.364 2.475,-2.053 72.521,4.119 138.2114,-20.989 146.7232,-56.081 4.5369,-18.704 -8.1886,-37.425 -34.7854,-51.175 62.7928,-17.936 83.8861,-57.305 47.1132,-87.933 -21.2148,-17.67 -58.4229,-29.351 -100.182,-31.451 z"
         stroke="#ffc000"
         stroke-width="9.16667"
         stroke-linecap="butt"
         stroke-linejoin="round"
         stroke-miterlimit="10"
         stroke-opacity="1"
         fill="none"
         fill-rule="evenodd"
         id="path275" />
      <path
         d="m 1232.189,290.478 c 26.807,1.018 53.6119,-1.988 76.8145,-8.616 M 1164.415,384.764 c 10.78,2.083 22.08,3.469 33.608,4.124 M 874.82,430.07 c 8.108,-5.901 14.897,-12.207 20.25,-18.81 M 500.348,383.165 c 1.192,6.999 3.903,13.917 8.086,20.639 M 339.57,255.637 c -60.78,14.353 -99.14,44.362 -98.6,77.137 M 107.01,173.48 c 9.85,11.16 24.88,21.06 43.91,28.924 M 212.36,66.156 c -1.68,4.5069 -2.45,9.0815 -2.32,13.6604 M 492.737,50.2218 c -5.72,-6.3021 -13.296,-12.1701 -22.491,-17.4211 m 232.849,25.7234 c -2.334,-5.2081 -5.993,-10.255 -10.893,-15.0245 m 257.761,20.1269 c -14.307,4.0666 -27.543,8.9612 -39.417,14.5762 m 338.807,99.9793 c 3.123,-5.016 5.423,-10.144 6.879,-15.336"
         stroke="#ffc000"
         stroke-width="9.16667"
         stroke-linecap="butt"
         stroke-linejoin="round"
         stroke-miterlimit="10"
         stroke-opacity="1"
         fill="none"
         fill-rule="evenodd"
         id="path283" />
    </g>
    <text
       fill="#00b050"
       fill-opacity="1"
       font-family="Arial, Arial_MSFontService, sans-serif"
       font-style="normal"
       font-variant="normal"
       font-weight="400"
       font-stretch="normal"
       font-size="92px"
       text-anchor="start"
       direction="ltr"
       writing-mode="lr-tb"
       unicode-bidi="normal"
       text-decoration="none"
       id="text435"
       style="text-decoration:none;text-decoration-line:none"
       x="246.918"
       y="209">What should one know to <tspan
   fill="#00b050"
   fill-opacity="1"
   font-family="Arial, Arial_MSFontService, sans-serif"
   font-style="normal"
   font-variant="normal"
   font-weight="400"
   font-stretch="normal"
   font-size="92px"
   text-anchor="start"
   direction="ltr"
   writing-mode="lr-tb"
   unicode-bidi="normal"
   text-decoration="none"
   x="287.59509"
   y="319"
   id="tspan433"
   style="text-decoration:none;text-decoration-line:none">learn what I’m sharing?</tspan></text>
  </g>
</svg>
