<svg id="Слой_2" data-name="Слой 2" xmlns="http://www.w3.org/2000/svg" xmlns:xlink="http://www.w3.org/1999/xlink" viewBox="0 0 347.67 328.02"><defs><style>.cls-1,.cls-10,.cls-12,.cls-17,.cls-3,.cls-37,.cls-40,.cls-42,.cls-43,.cls-47,.cls-48,.cls-50,.cls-53,.cls-54,.cls-55,.cls-56,.cls-58,.cls-6,.cls-9{fill:none;}.cls-2{fill:#ffc61a;}.cls-3{stroke:#f6eeca;}.cls-10,.cls-12,.cls-17,.cls-3,.cls-37,.cls-40,.cls-42,.cls-43,.cls-47,.cls-48,.cls-50,.cls-53,.cls-54,.cls-55,.cls-56,.cls-58,.cls-6,.cls-9{stroke-miterlimit:10;}.cls-10,.cls-3{stroke-width:2px;}.cls-4{fill:#029d41;}.cls-5{clip-path:url(#clip-path);}.cls-6{stroke:#028035;}.cls-6,.cls-9{stroke-width:1.21px;}.cls-7{fill:#fff;}.cls-8{clip-path:url(#clip-path-2);}.cls-53,.cls-9{stroke:#dbaa16;}.cls-10,.cls-12{stroke:#7d7f87;}.cls-11{fill:#7d7f87;}.cls-13{fill:#4f6ddb;}.cls-14{fill:#ff9c1a;}.cls-15{fill:#fe3737;}.cls-16{fill:#fec2a0;}.cls-17,.cls-42,.cls-43,.cls-50{stroke:#303134;}.cls-17,.cls-42,.cls-43,.cls-50,.cls-55{stroke-linecap:round;}.cls-17{stroke-width:0.56px;}.cls-18{fill:#303134;}.cls-19{fill:#f99979;}.cls-20{fill:#eb6c18;}.cls-21{fill:#232426;}.cls-22{clip-path:url(#clip-path-3);}.cls-23{fill:#4762c4;}.cls-24{fill:#57595e;}.cls-25{fill:#fec519;}.cls-26{fill:#f5aa7f;}.cls-27{clip-path:url(#clip-path-4);}.cls-28{fill:#dbaa16;}.cls-29{clip-path:url(#clip-path-5);}.cls-30{fill:#cc7100;}.cls-31{fill:#613600;}.cls-32{clip-path:url(#clip-path-6);}.cls-33{fill:#028c3a;}.cls-34{fill:#965300;}.cls-35{clip-path:url(#clip-path-7);}.cls-36{clip-path:url(#clip-path-8);}.cls-37{stroke:#fff;}.cls-38{fill:#3d54a8;}.cls-39{fill:#e6e8e7;}.cls-40{stroke:#e6e8e7;stroke-width:3px;}.cls-41{fill:#794300;}.cls-42{stroke-width:0.63px;}.cls-43{stroke-width:0.66px;}.cls-44{fill:#5c5d63;}.cls-45{fill:#494a4f;}.cls-46{fill:#f9f9f9;}.cls-47{stroke:#28282a;}.cls-47,.cls-48{stroke-width:1.17px;}.cls-48{stroke:#4f6ddb;}.cls-49{clip-path:url(#clip-path-9);}.cls-50{stroke-width:0.36px;}.cls-51{fill:#6b3b00;}.cls-52{clip-path:url(#clip-path-10);}.cls-53{stroke-width:0.36px;}.cls-54{stroke:#6b3b00;stroke-width:0.35px;}.cls-55{stroke:#ffc61a;stroke-width:1.09px;}.cls-56{stroke:#ccc;stroke-width:0.5px;}.cls-57{fill:#f7b894;}.cls-58{stroke:#e8a47d;stroke-width:0.32px;}</style><clipPath id="clip-path" transform="translate(-39.52 -25.16)"><path class="cls-1" d="M273.21,32.73c-3.53-3.4-9.38-4-15.37-2.45h0s-16.2-1.17-19,5,.21,9.2.21,9.2c-6,9.66,4,14.13,8.19,11,1.51,3.29,20.32.29,20.32.29s-2.42-7.26,3.19-8.71,8.05,7.67,2.31,11.31a16.88,16.88,0,0,0,4.35,5.7c.42-10.24,6.78-10.13,7.23-17.37C285,41.1,281.23,33.79,273.21,32.73Z"/></clipPath><clipPath id="clip-path-2" transform="translate(-39.52 -25.16)"><path class="cls-1" d="M96.88,212.89s9-10.5,1.65-17.32c-8.57-8-10.22-1.14-23.36-3.5C63.54,190,74.11,201.83,59,204.23,47.84,206,49,226.72,57.23,232c8.37,5.39,16.66,3.18,24.64,10.39C100.71,239.76,96.88,212.89,96.88,212.89Z"/></clipPath><clipPath id="clip-path-3" transform="translate(-39.52 -25.16)"><path class="cls-1" d="M217.44,188.52c3.42-5.2,9.14-3.06,12.77-2.9a2.63,2.63,0,0,1,2.4,3.36,43.1,43.1,0,0,1-1.61,4.08,7.33,7.33,0,0,0-.59-3.08c-.15-.45-.9.33-2.18.38s-2.82-.09-2.87.16l-1,3.64a1.43,1.43,0,0,1-1.13,1h0s0-3-2.23-2.92-2.13,3.81.45,4.55a13.66,13.66,0,0,1-1,2.72S215.56,191.38,217.44,188.52Z"/></clipPath><clipPath id="clip-path-4" transform="translate(-39.52 -25.16)"><path class="cls-1" d="M272,236.92c-3.13-4.76-6.41-2.89-9.67-2.81a3.44,3.44,0,0,0-3.39,3.2,6.66,6.66,0,0,0,.83,3.7,6.61,6.61,0,0,1,.53-2.77c.13-.4.81.3,2,.34s2.54-.08,2.58.15l.94,3.28a1.29,1.29,0,0,0,1,.91h0s0-2.72,2-2.63,1.92,3.44-.4,4.11a12.31,12.31,0,0,0,.89,2.45S273.71,239.49,272,236.92Z"/></clipPath><clipPath id="clip-path-5" transform="translate(-39.52 -25.16)"><path class="cls-2" d="M239.88,218.5a5.13,5.13,0,0,0-.1-1.45c-.22-.71-.07-2.79,1.23-3.42s3.39-.14,4,2.33,1.64,2.86,1.64,2.86-.05-2.75,2-2.65,1.94,3.49-.42,4.13a6.07,6.07,0,0,0,.88,2.42c1.5-.54,3.41-2.75,4.34-5.18a4.78,4.78,0,0,0-2.43-6c-1.89-3.46-13.08-3.63-13,.35s-1.9,2.94-1.51,4.55S238.93,216.61,239.88,218.5Z"/></clipPath><clipPath id="clip-path-6" transform="translate(-39.52 -25.16)"><path class="cls-1" d="M198.92,211.78c1.51-2.77,6.63-2.58,8.81-2.68,2.56-.12,4.26.76,4.26,3.57a5.84,5.84,0,0,1-.56,3.29,6.76,6.76,0,0,0-.54-2.84c-.14-.41-.83.31-2,.35s-2.6-.08-2.64.15l-1,3.36a1.32,1.32,0,0,1-1,.94h0s0-2.78-2.05-2.69-2,3.52.41,4.2a12.6,12.6,0,0,1-.91,2.51S197.41,214.55,198.92,211.78Z"/></clipPath><clipPath id="clip-path-7" transform="translate(-39.52 -25.16)"><path class="cls-1" d="M180.38,237.12c1.31-2.41,5.77-2.24,7.67-2.33,2.23-.1,3.71.66,3.71,3.11a5.09,5.09,0,0,1-.49,2.86,5.89,5.89,0,0,0-.47-2.47c-.12-.36-.72.27-1.75.31s-2.26-.07-2.3.13l-.84,2.92a1.15,1.15,0,0,1-.91.81h0s0-2.42-1.79-2.34-1.71,3.06.36,3.66a11,11,0,0,1-.79,2.19S179.07,239.53,180.38,237.12Z"/></clipPath><clipPath id="clip-path-8" transform="translate(-39.52 -25.16)"><path class="cls-1" d="M184,235.08s-3.28-5-6.28-2.61-.47,5.36,2.43,5.42A4.16,4.16,0,0,0,184,235.08Z"/></clipPath><clipPath id="clip-path-9" transform="translate(-39.52 -25.16)"><circle class="cls-1" cx="94.3" cy="91.57" r="39.91"/></clipPath><clipPath id="clip-path-10" transform="translate(-39.52 -25.16)"><path class="cls-1" d="M104.18,72.7a9,9,0,0,1,.18-2.54c.38-1.24.13-4.89-2.17-6s-5.95-.25-7,4.09-2.88,5-2.88,5,.09-4.83-3.56-4.64-3.4,6.13.74,7.24a10.65,10.65,0,0,1-1.55,4.25C85.77,74,82,75.28,80.32,71c-1.25-3.26-.38-11,4.27-10.52s5.28-9,12.27-4.23c4.79,3.28,10,.47,11.22,4.69s-2.41,5.33-2.74,7.89C105.05,71.11,105,71.89,104.18,72.7Z"/></clipPath></defs><title>By Joining Us, You Will_dark_mode</title><rect class="cls-3" x="218.34" y="42.04" width="137.31" height="90.87" rx="5.84" ry="5.84" transform="translate(534.47 149.79) rotate(-180)"/><line class="cls-3" x1="316.13" y1="34.23" x2="178.81" y2="34.23"/><path class="cls-4" d="M273.21,32.73c-3.53-3.4-9.38-4-15.37-2.45h0s-16.2-1.17-19,5,.21,9.2.21,9.2c-6,9.66,4,14.13,8.19,11,1.51,3.29,20.32.29,20.32.29s-2.42-7.26,3.19-8.71,8.05,7.67,2.31,11.31a16.88,16.88,0,0,0,4.35,5.7c.42-10.24,6.78-10.13,7.23-17.37C285,41.1,281.23,33.79,273.21,32.73Z" transform="translate(-39.52 -25.16)"/><g class="cls-5"><path class="cls-6" d="M246,25.85S233,46.74,252,51.69" transform="translate(-39.52 -25.16)"/><path class="cls-6" d="M256.45,25.6s-13,11.83-2.71,25.06" transform="translate(-39.52 -25.16)"/></g><path class="cls-7" d="M200.7,326.56h14.55a8.58,8.58,0,0,0-8.3-6.79C199.79,319.44,200.7,326.56,200.7,326.56Z" transform="translate(-39.52 -25.16)"/><path class="cls-2" d="M96.88,212.89s9-10.5,1.65-17.32c-8.57-8-10.19-1.32-23.36-3.5C64,190.23,74.11,201.83,59,204.23,47.84,206,49,226.72,57.23,232c8.37,5.39,16.66,3.18,24.64,10.39C100.71,239.76,96.88,212.89,96.88,212.89Z" transform="translate(-39.52 -25.16)"/><g class="cls-8"><path class="cls-9" d="M88.79,213.53s-28-2.8-36-14.24" transform="translate(-39.52 -25.16)"/><path class="cls-9" d="M87.79,215.59s-32,3.24-40.75-6.49" transform="translate(-39.52 -25.16)"/></g><circle class="cls-7" cx="54.77" cy="66.41" r="39.91"/><path class="cls-10" d="M121,145.39H247.28a7.07,7.07,0,0,1,7.07,7.07v86.76a4.28,4.28,0,0,1-4.28,4.28H118.2a4.28,4.28,0,0,1-4.28-4.28V152.46A7.07,7.07,0,0,1,121,145.39Z"/><path class="cls-7" d="M125.78,154.84H242.49a2.59,2.59,0,0,1,2.59,2.59v73.12a0,0,0,0,1,0,0H123.18a0,0,0,0,1,0,0V157.43A2.59,2.59,0,0,1,125.78,154.84Z"/><path class="cls-11" d="M113.92,230.55H254.34a0,0,0,0,1,0,0v8.66a4.28,4.28,0,0,1-4.28,4.28H118.2a4.28,4.28,0,0,1-4.28-4.28v-8.66A0,0,0,0,1,113.92,230.55Z"/><polyline class="cls-12" points="164.59 192.27 185.53 172.59 205.63 193.47"/><polyline class="cls-12" points="144.26 214.45 164.72 195.63 184.13 216.76 206.79 194.44 226.09 211.57"/><circle class="cls-13" cx="144.26" cy="216.76" r="11.93"/><circle class="cls-13" cx="185.3" cy="169.35" r="11.93"/><circle class="cls-13" cx="226.09" cy="216.76" r="11.93"/><circle class="cls-13" cx="164.72" cy="193.47" r="11.93"/><circle class="cls-13" cx="205.63" cy="193.47" r="11.93"/><circle class="cls-13" cx="184.13" cy="215.78" r="11.93"/><circle class="cls-14" cx="294.41" cy="25.51" r="4.82"/><circle class="cls-4" cx="307.44" cy="25.51" r="4.82"/><circle class="cls-15" cx="281.69" cy="25.51" r="4.82"/><path class="cls-16" d="M263.32,72.25c1,1.38,2.48,1.88,1.13,6.11,4.37,2.43-6.83,18.42,5.08,19.92s15.13-25.7,15.13-25.7c-.56-.44-9.44-10.68-11.6-14.27a7,7,0,0,0,3.25-6.66c-.29-3-2.43-5.46-5.56-4.65-5.62,1.45-3.19,8.71-3.19,8.71s-3.09-.17-6.73-6.22-8.34,4.24-12.53-2.87c-2.94,2.77-1.59,8.41-.44,10.11a14.27,14.27,0,0,1,1.47,3.76A48,48,0,0,1,250.53,66C251,69.1,256.89,76,263.32,72.25Z" transform="translate(-39.52 -25.16)"/><path class="cls-14" d="M304.23,117.66l0-.08,0-.07h0a87.89,87.89,0,0,0,13-6.41,30.34,30.34,0,0,0,7.16-5.76C318,91.57,313,86.4,307.56,82.2,303.34,79,288,73.29,284,71.14l-.85,2c-2.27,3.66-8.47,17.89-12.34,18-3.35.06-3.27-12-6.33-15-13.1,15-24.75,7.36-27.75,33.78.83,2.67,5.65,13,12.19,22.46l60.86-.15C307.66,125.87,304.62,118.78,304.23,117.66Z" transform="translate(-39.52 -25.16)"/><path class="cls-16" d="M239.37,109.94,253.7,121.1s-4.61,17.94-12,19.49c-4.41.92-5.94.86-8.34-7.49C231.58,127,237.6,117.67,239.37,109.94Z" transform="translate(-39.52 -25.16)"/><path class="cls-17" d="M255.08,53.71s1-1.18,4.07-.8" transform="translate(-39.52 -25.16)"/><path class="cls-17" d="M249.54,55.78a2.84,2.84,0,0,0-2.29-.37" transform="translate(-39.52 -25.16)"/><ellipse class="cls-18" cx="257.85" cy="57.27" rx="1.01" ry="2.06" transform="translate(-44.87 54.4) rotate(-17.36)"/><ellipse class="cls-18" cx="250.16" cy="59.67" rx="0.83" ry="1.69" transform="translate(-45.93 52.21) rotate(-17.36)"/><path class="cls-17" d="M252.89,61.56c-1,1.79,0,4.87,2.1,2.89" transform="translate(-39.52 -25.16)"/><path class="cls-17" d="M259,64.25s.46,2.83-3.63,2.95" transform="translate(-39.52 -25.16)"/><path class="cls-19" d="M263.32,72.25s2.88-2.14,3-5c1.16,3.72-1.49,7.1-1.49,7.1Z" transform="translate(-39.52 -25.16)"/><path class="cls-16" d="M304.21,117.51a154.5,154.5,0,0,0,15.19-7.87c2.27,8,6.13,23,5.64,29.1-.21,2.52-3.76,4.26-6.59,5.66-1.54-2.06-5.21-2.89-6.53-3.13l-.49-.08-7.19-23.52,0-.08a.36.36,0,0,0,0-.07Z" transform="translate(-39.52 -25.16)"/><path class="cls-16" d="M312.83,127.37c-.4,0-14.23,6.35-19.31,7.75s-12.45,3.11-17.78,2.73-10.86-2.41-13.27-2.6-5-1.72-6.86-2.61-3-2.28-3.87-1.39-.06,2.1.7,3a16.37,16.37,0,0,0,4.7,2.92c.83.25,2.35,1.4,1.71,2.6s-3.11,2.86-3.56,2.67a7.91,7.91,0,0,1-1-.57s-1.59,1.52-1.59,2.16.25,2.6,3.24,2.35c.38,1.27.32,2.86,1.71,3.56s2,.38,2,1,0,1.78,1.18,1.84,1.48-.19,1.8.76.89,1.46,2.54,1.46,5.78-1.14,6.92-2.22,1.78-3,3.62-3.18,4.7-.7,9.65-.89,13.72-.76,19.5-1.33a45.6,45.6,0,0,0,14.73-3.6C323.95,141.87,325.15,126.35,312.83,127.37Z" transform="translate(-39.52 -25.16)"/><path class="cls-20" d="M319.4,109.64l1.3,4.76c3.52-3.63,3.71-9.06,3.71-9.06A38.26,38.26,0,0,1,319.4,109.64Z" transform="translate(-39.52 -25.16)"/><path class="cls-16" d="M218,202.95l6.52,3s1.74-1.59,2.34-2.23a2.3,2.3,0,0,1-.2-2.77c2.87.64,4.26-2.62,4.11-3.86a17.42,17.42,0,0,1-.1-2.33,3.83,3.83,0,0,1,.25-1.49,19.54,19.54,0,0,0,0-3.76s-6.43-3.12-7.08-.4-1.14,2.53-3.41,2.62c-1.29.1-1.88,1.93-1.63,3.07a3.35,3.35,0,0,0,2.47,2.08,16.26,16.26,0,0,1-2.13,4.75A8.85,8.85,0,0,1,218,202.95Z" transform="translate(-39.52 -25.16)"/><ellipse class="cls-18" cx="187.47" cy="169.47" rx="0.4" ry="0.79"/><ellipse class="cls-18" cx="190.69" cy="169.38" rx="0.35" ry="0.74"/><path class="cls-18" d="M229.34,197.23a1.09,1.09,0,0,1-.46-.12.11.11,0,0,1,.1-.2c.21.1.48.17.61,0a1,1,0,0,0-.29-1.13.11.11,0,1,1,.15-.16,1.24,1.24,0,0,1,.32,1.42A.49.49,0,0,1,229.34,197.23Z" transform="translate(-39.52 -25.16)"/><path class="cls-19" d="M226.7,200.92a3,3,0,0,1-1.73-1.53,3.31,3.31,0,0,0,1.39,2.48Z" transform="translate(-39.52 -25.16)"/><path class="cls-18" d="M228.64,199a1.37,1.37,0,0,1-1.28-.81.11.11,0,0,1,.2-.1,1.29,1.29,0,0,0,1.74.55.11.11,0,0,1,.15.05.11.11,0,0,1-.05.15A2,2,0,0,1,228.64,199Z" transform="translate(-39.52 -25.16)"/><path class="cls-18" d="M227.81,193.17l-.06,0a1.57,1.57,0,0,0-1.59-.1.11.11,0,0,1-.12-.19,1.77,1.77,0,0,1,1.83.1.11.11,0,0,1-.06.2Z" transform="translate(-39.52 -25.16)"/><path class="cls-18" d="M229.82,193a.11.11,0,0,1-.07,0,.11.11,0,0,1,0-.16.94.94,0,0,1,1-.19.11.11,0,0,1,.07.14.11.11,0,0,1-.14.07.72.72,0,0,0-.77.12A.11.11,0,0,1,229.82,193Z" transform="translate(-39.52 -25.16)"/><path class="cls-21" d="M217.44,188.52c3.47-5.29,9.32-3,12.94-2.9a2.43,2.43,0,0,1,2.33,3,37.65,37.65,0,0,1-1.7,4.4,7.33,7.33,0,0,0-.59-3.08c-.15-.45-.9.33-2.18.38s-2.82-.09-2.87.16l-1,3.64a1.43,1.43,0,0,1-1.13,1h0s0-3-2.23-2.92-2.13,3.81.45,4.55a13.66,13.66,0,0,1-1,2.72S215.56,191.38,217.44,188.52Z" transform="translate(-39.52 -25.16)"/><g class="cls-22"><path class="cls-23" d="M226,190.9c-1.3-2.26-3-3.54-5-3.81a7.58,7.58,0,0,0-5,1.29l-.09-.09-.19-.06a7.11,7.11,0,0,1,3.81-1.48c1.92-.19,4.65.34,6.75,4Z" transform="translate(-39.52 -25.16)"/><path class="cls-23" d="M226.06,191c-.16,0-.15-.18-.12-.48.25-3.18-1.25-5.28-4.46-6.23l.09-.31c3.38,1,5,3.21,4.69,6.57,0,.1,0,.22,0,.25l-.14,0Z" transform="translate(-39.52 -25.16)"/><path class="cls-23" d="M226.45,191.46c0-.11,0-.21.22-.59.71-1.25,2.59-4.57.47-8l.27-.17c2.22,3.55.2,7.12-.46,8.3a3.57,3.57,0,0,0-.2.38l-.11,0Z" transform="translate(-39.52 -25.16)"/><path class="cls-23" d="M226,191.53c-.05,0-5.42-3.76-10.33-.36l-.18-.26c5.1-3.54,10.65.32,10.7.36Z" transform="translate(-39.52 -25.16)"/></g><path class="cls-16" d="M217,249.39l6.58,3s1.76-1.6,2.36-2.25a2.32,2.32,0,0,1-.2-2.8c2.9.65,4.3-2.65,4.15-3.9a17.58,17.58,0,0,1-.1-2.35,3.87,3.87,0,0,1,.25-1.5,19.72,19.72,0,0,0,0-3.8s-6.49-3.15-7.14-.4-1.15,2.55-3.45,2.65c-1.3.1-1.9,1.95-1.65,3.1a3.38,3.38,0,0,0,2.5,2.1,16.41,16.41,0,0,1-2.15,4.8A8.93,8.93,0,0,1,217,249.39Z" transform="translate(-39.52 -25.16)"/><ellipse class="cls-18" cx="186.53" cy="215.84" rx="0.4" ry="0.8"/><ellipse class="cls-18" cx="189.77" cy="215.74" rx="0.35" ry="0.75"/><path class="cls-18" d="M228.42,243.62a1.1,1.1,0,0,1-.47-.12.11.11,0,0,1-.05-.15.11.11,0,0,1,.15-.05c.21.1.49.18.62,0a1,1,0,0,0-.29-1.14.11.11,0,1,1,.15-.17,1.25,1.25,0,0,1,.33,1.44A.5.5,0,0,1,228.42,243.62Z" transform="translate(-39.52 -25.16)"/><path class="cls-19" d="M225.75,247.34a3,3,0,0,1-1.75-1.55,3.34,3.34,0,0,0,1.4,2.5Z" transform="translate(-39.52 -25.16)"/><path class="cls-18" d="M227.71,245.45a1.38,1.38,0,0,1-1.29-.81.11.11,0,0,1,.2-.1,1.31,1.31,0,0,0,1.76.56.11.11,0,1,1,.1.2A2,2,0,0,1,227.71,245.45Z" transform="translate(-39.52 -25.16)"/><path class="cls-18" d="M226.88,239.52l-.06,0a1.59,1.59,0,0,0-1.6-.1.11.11,0,0,1-.12-.19,1.78,1.78,0,0,1,1.85.1.11.11,0,0,1-.06.21Z" transform="translate(-39.52 -25.16)"/><path class="cls-18" d="M228.9,239.36a.11.11,0,0,1-.08-.19,1,1,0,0,1,1-.19.11.11,0,0,1-.07.21.73.73,0,0,0-.77.12A.11.11,0,0,1,228.9,239.36Z" transform="translate(-39.52 -25.16)"/><path class="cls-24" d="M216.41,234.82c4.5-6.85,14.94-2.88,15.33,1s-7.29.75-7.34,1l-1.06,3.67a1.44,1.44,0,0,1-1.14,1h0s0-3-2.25-2.95-2.15,3.85.45,4.6a13.79,13.79,0,0,1-1,2.75S214.51,237.71,216.41,234.82Z" transform="translate(-39.52 -25.16)"/><path class="cls-25" d="M268.62,234.74a2.45,2.45,0,0,1,3.77.23c1.86,2.19-1.12,5.35-2.8,3.26S268.62,234.74,268.62,234.74Z" transform="translate(-39.52 -25.16)"/><path class="cls-25" d="M270.83,236.48a2.45,2.45,0,0,1,3.16,2.07c.53,2.82-3.63,4.08-4.05,1.44S270.83,236.48,270.83,236.48Z" transform="translate(-39.52 -25.16)"/><path class="cls-25" d="M270,239.5a2.45,2.45,0,0,1,3.16,2.07c.53,2.82-3.63,4.08-4.05,1.44S270,239.5,270,239.5Z" transform="translate(-39.52 -25.16)"/><path class="cls-25" d="M268.74,242.72a2.45,2.45,0,0,1,3.16,2.07c.53,2.82-3.63,4.08-4.05,1.44S268.74,242.72,268.74,242.72Z" transform="translate(-39.52 -25.16)"/><path class="cls-26" d="M271.48,249.92l-5.88,2.68s-1.57-1.43-2.11-2a2.08,2.08,0,0,0,.18-2.5c-2.59.58-3.84-2.37-3.7-3.48a15.7,15.7,0,0,0,.09-2.1,3.45,3.45,0,0,0-.22-1.34,17.61,17.61,0,0,1,0-3.39s5.8-2.81,6.38-.36,1,2.28,3.08,2.37c1.16.09,1.7,1.74,1.47,2.77a3,3,0,0,1-2.23,1.87,14.66,14.66,0,0,0,1.92,4.28A8,8,0,0,0,271.48,249.92Z" transform="translate(-39.52 -25.16)"/><ellipse class="cls-18" cx="223.88" cy="217.27" rx="0.36" ry="0.71"/><ellipse class="cls-18" cx="220.98" cy="217.18" rx="0.31" ry="0.67"/><path class="cls-18" d="M261.29,244.77a.45.45,0,0,1-.39-.2,1.12,1.12,0,0,1,.29-1.28.1.1,0,1,1,.14.15.93.93,0,0,0-.26,1c.12.18.37.11.55,0a.1.1,0,1,1,.09.18A1,1,0,0,1,261.29,244.77Z" transform="translate(-39.52 -25.16)"/><path class="cls-19" d="M263.67,248.1a2.71,2.71,0,0,0,1.56-1.38,3,3,0,0,1-1.25,2.23Z" transform="translate(-39.52 -25.16)"/><path class="cls-18" d="M261.92,246.41a1.8,1.8,0,0,1-.68-.14.1.1,0,0,1,.09-.18,1.17,1.17,0,0,0,1.57-.5.1.1,0,0,1,.18.09A1.24,1.24,0,0,1,261.92,246.41Z" transform="translate(-39.52 -25.16)"/><path class="cls-18" d="M262.67,241.11a.1.1,0,0,1-.06-.18,1.59,1.59,0,0,1,1.65-.09.1.1,0,0,1-.11.17,1.42,1.42,0,0,0-1.43.09Z" transform="translate(-39.52 -25.16)"/><path class="cls-18" d="M260.86,241a.1.1,0,0,1-.07,0,.66.66,0,0,0-.69-.11.1.1,0,0,1-.06-.19.84.84,0,0,1,.9.17.1.1,0,0,1,0,.14Z" transform="translate(-39.52 -25.16)"/><path class="cls-25" d="M272,236.92c-3.13-4.76-6.41-2.89-9.67-2.81a3.44,3.44,0,0,0-3.39,3.2,6.66,6.66,0,0,0,.83,3.7,6.61,6.61,0,0,1,.53-2.77c.13-.4.81.3,2,.34s2.54-.08,2.58.15l.94,3.28a1.29,1.29,0,0,0,1,.91h0s0-2.72,2-2.63,1.92,3.44-.4,4.11a12.31,12.31,0,0,0,.89,2.45S273.71,239.49,272,236.92Z" transform="translate(-39.52 -25.16)"/><g class="cls-27"><path class="cls-28" d="M273.36,239.39c-.42-.9-2.6-2.35-4.92-2.48a4.32,4.32,0,0,0-4.13,2.14l-.2-.12a4.54,4.54,0,0,1,4.34-2.26c2.4.13,4.67,1.66,5.12,2.61Z" transform="translate(-39.52 -25.16)"/><path class="cls-28" d="M273.38,241.09c-3.63-3.42-9.1-1.49-9.16-1.47l-.08-.22c.06,0,5.67-2,9.4,1.52Z" transform="translate(-39.52 -25.16)"/></g><path class="cls-25" d="M265.94,235.24a2.45,2.45,0,0,1,2.62-2.73c2.87,0,3.35,4.32.67,4.25S265.94,235.24,265.94,235.24Z" transform="translate(-39.52 -25.16)"/><path class="cls-25" d="M263.41,234.9a2.45,2.45,0,0,1,2.62-2.73c2.87,0,3.35,4.32.67,4.25S263.41,234.9,263.41,234.9Z" transform="translate(-39.52 -25.16)"/><path class="cls-25" d="M260,235.76a2.45,2.45,0,0,1,2.62-2.73c2.87,0,3.35,4.32.67,4.25S260,235.76,260,235.76Z" transform="translate(-39.52 -25.16)"/><path class="cls-4" d="M239.88,218.5a5.13,5.13,0,0,0-.1-1.45c-.22-.71-.07-2.79,1.23-3.42s3.39-.14,4,2.33,1.64,2.86,1.64,2.86-.05-2.75,2-2.65,1.94,3.49-.42,4.13a6.07,6.07,0,0,0,.88,2.42c1.5-.54,3.41-2.75,4.34-5.18a4.78,4.78,0,0,0-2.43-6c-1.89-3.46-13.08-3.63-13,.35s-1.9,2.94-1.51,4.55S238.93,216.61,239.88,218.5Z" transform="translate(-39.52 -25.16)"/><path class="cls-16" d="M243.41,224a2.13,2.13,0,0,1-.17,2.54c1.24,1.3,3.3,3.18,3.3,3.18l4.09-4.46c-.15-.21-.29-.43-.43-.65a15.1,15.1,0,0,1-1.95-4.34,2.52,2.52,0,0,0,1.83-1.94,1.65,1.65,0,0,0-1.41-2.19c-2.08-.11-2,2.65-2,2.65s-1-.39-1.64-2.86-2.68-3-4-2.33-1.45,2.71-1.23,3.42a5.13,5.13,0,0,1,.1,1.45,17.26,17.26,0,0,1-.18,2C239.53,221.64,240.8,224.63,243.41,224Z" transform="translate(-39.52 -25.16)"/><path class="cls-18" d="M244.05,216.39h0c-.94-.43-1.38-.17-1.38-.17a.1.1,0,0,1-.14,0,.1.1,0,0,1,0-.14s.52-.33,1.58.15a.1.1,0,0,1,0,.19Z" transform="translate(-39.52 -25.16)"/><path class="cls-18" d="M240.45,216.35a.1.1,0,0,1-.08,0,1,1,0,0,0-.66-.34.1.1,0,0,1-.11-.09.1.1,0,0,1,.09-.11,1.11,1.11,0,0,1,.83.41.1.1,0,0,1,0,.14Z" transform="translate(-39.52 -25.16)"/><ellipse class="cls-18" cx="203.62" cy="192.49" rx="0.36" ry="0.74"/><ellipse class="cls-18" cx="200.72" cy="192.49" rx="0.3" ry="0.61"/><path class="cls-18" d="M241,220a.45.45,0,0,1-.39-.19,1.14,1.14,0,0,1,.28-1.3.1.1,0,0,1,.14.15,1,1,0,0,0-.26,1c.12.17.37.1.55,0a.1.1,0,0,1,.09.18A1,1,0,0,1,241,220Z" transform="translate(-39.52 -25.16)"/><path class="cls-18" d="M241.81,221a2.34,2.34,0,0,1-.63-.1.1.1,0,0,1-.07-.12.1.1,0,0,1,.13-.07,1.35,1.35,0,0,0,1.1-.05.78.78,0,0,0,.33-.49.1.1,0,0,1,.12-.09.1.1,0,0,1,.09.11,1,1,0,0,1-.42.63A1.16,1.16,0,0,1,241.81,221Z" transform="translate(-39.52 -25.16)"/><path class="cls-19" d="M243.41,224a2.84,2.84,0,0,0,1.59-1.4,3.06,3.06,0,0,1-1.27,2.27Z" transform="translate(-39.52 -25.16)"/><path class="cls-2" d="M239.88,218.5a5.13,5.13,0,0,0-.1-1.45c-.22-.71-.07-2.79,1.23-3.42s3.39-.14,4,2.33,1.64,2.86,1.64,2.86-.05-2.75,2-2.65,1.94,3.49-.42,4.13a6.07,6.07,0,0,0,.88,2.42c1.5-.54,3.41-2.75,4.34-5.18a4.78,4.78,0,0,0-2.43-6c-1.89-3.46-13.08-3.63-13,.35s-1.9,2.94-1.51,4.55S238.93,216.61,239.88,218.5Z" transform="translate(-39.52 -25.16)"/><g class="cls-29"><path class="cls-28" d="M243.95,215.24l-.25-.22s3.54-4.12,3.09-6a1,1,0,0,0-.65-.73l.13-.31a1.34,1.34,0,0,1,.85,1C247.59,211,244.1,215.07,243.95,215.24Z" transform="translate(-39.52 -25.16)"/><path class="cls-28" d="M242.15,214c-.1-.13,0-.24.19-.56a5.44,5.44,0,0,0,.66-5.74l.3-.15a5.75,5.75,0,0,1-.68,6.07,2.54,2.54,0,0,0-.18.28.13.13,0,0,0,0-.11Z" transform="translate(-39.52 -25.16)"/><path class="cls-28" d="M241.06,214.36l0-.11c-.31-1.27-1.28-4.23-3.57-4.23v-.33c1.78,0,3.2,1.63,3.89,4.49l0,.08Z" transform="translate(-39.52 -25.16)"/></g><path class="cls-21" d="M202.63,210.23c-2.09-1.72-6.89.26-6.68,3.6s-.37,8.53-2,8.63a4.13,4.13,0,0,0,6.28-.28C201.11,220.71,204.72,212,202.63,210.23Z" transform="translate(-39.52 -25.16)"/><path class="cls-30" d="M199.47,225.09s1.51,1.1,3.2,2.15,3.65,2.13,4.25,1.87a1.39,1.39,0,0,0,.76-1.68c-.08-.68-1.16-2.38-.21-4.22,2.65.59,3.92-2.42,3.79-3.56a15.92,15.92,0,0,1-.09-2.15,3.6,3.6,0,0,1,.23-1.37,17.85,17.85,0,0,0,0-3.47s-5.94-2.88-6.53-.36-1.05,2.33-3.15,2.42c-1.18.09-1.73,1.78-1.51,2.83a3.11,3.11,0,0,0,2.28,1.92,15.1,15.1,0,0,1-2,4.38A8.2,8.2,0,0,1,199.47,225.09Z" transform="translate(-39.52 -25.16)"/><ellipse class="cls-18" cx="168.21" cy="192.26" rx="0.37" ry="0.73"/><ellipse class="cls-18" cx="171.17" cy="192.17" rx="0.32" ry="0.68"/><path class="cls-18" d="M209.89,219.82a1,1,0,0,1-.43-.11.1.1,0,0,1,.09-.19c.19.09.44.16.56,0a1,1,0,0,0-.27-1,.1.1,0,0,1,.14-.15,1.14,1.14,0,0,1,.3,1.31A.46.46,0,0,1,209.89,219.82Z" transform="translate(-39.52 -25.16)"/><path class="cls-31" d="M207.46,223.22a2.77,2.77,0,0,1-1.6-1.42,3.05,3.05,0,0,0,1.28,2.28Z" transform="translate(-39.52 -25.16)"/><path class="cls-21" d="M198.92,211.78c1.51-2.77,6.63-2.58,8.81-2.68,2.56-.12,4.26.76,4.26,3.57a5.84,5.84,0,0,1-.56,3.29,6.76,6.76,0,0,0-.54-2.84c-.14-.41-.83.31-2,.35s-2.6-.08-2.64.15l-1,3.36a1.32,1.32,0,0,1-1,.94h0s0-2.78-2.05-2.69-2,3.52.41,4.2a12.6,12.6,0,0,1-.91,2.51S197.41,214.55,198.92,211.78Z" transform="translate(-39.52 -25.16)"/><path class="cls-18" d="M209.25,221.49a1.26,1.26,0,0,1-1.18-.74.1.1,0,0,1,.18-.1,1.2,1.2,0,0,0,1.6.51.1.1,0,0,1,.09.19A1.84,1.84,0,0,1,209.25,221.49Z" transform="translate(-39.52 -25.16)"/><path class="cls-18" d="M208.49,216.07l-.06,0A1.46,1.46,0,0,0,207,216a.1.1,0,0,1-.11-.17,1.63,1.63,0,0,1,1.69.1.1.1,0,0,1,0,.14A.1.1,0,0,1,208.49,216.07Z" transform="translate(-39.52 -25.16)"/><path class="cls-18" d="M210.34,215.93a.1.1,0,0,1-.07,0,.1.1,0,0,1,0-.14.86.86,0,0,1,.92-.17.1.1,0,1,1-.06.2.67.67,0,0,0-.71.11A.1.1,0,0,1,210.34,215.93Z" transform="translate(-39.52 -25.16)"/><g class="cls-32"><path class="cls-33" d="M208.62,213.77l-.26-.18a4.76,4.76,0,0,0,.8-3.19,2.18,2.18,0,0,0-1.21-1.4l.14-.29a2.48,2.48,0,0,1,1.38,1.61A5,5,0,0,1,208.62,213.77Z" transform="translate(-39.52 -25.16)"/><path class="cls-33" d="M206.17,214.72c-1-4.82-6.23-4.54-6.28-4.54l0-.32c.06,0,5.51-.29,6.61,4.79Z" transform="translate(-39.52 -25.16)"/><path class="cls-33" d="M205.74,216.07c-1.91-2.26-7.46-4.47-7.52-4.49l.12-.3c.23.09,5.69,2.26,7.65,4.58Z" transform="translate(-39.52 -25.16)"/><path class="cls-33" d="M209.59,213.73l-.21-.24a4.21,4.21,0,0,0,1.36-2.74,2.64,2.64,0,0,0-1.14-2l.2-.25a3,3,0,0,1,1.26,2.23A4.45,4.45,0,0,1,209.59,213.73Z" transform="translate(-39.52 -25.16)"/></g><path class="cls-14" d="M179.95,237.43s-.34,6-4.2,7.24.55,5.13,3.09,6.25c1.63-1.74,2-2.22,2-2.22l4.28-2.46s-1-8.58-2.76-9.24A1.91,1.91,0,0,0,179.95,237.43Z" transform="translate(-39.52 -25.16)"/><path class="cls-34" d="M180.86,248.7s1.32,1,2.78,1.87,3.17,1.85,3.7,1.63a1.21,1.21,0,0,0,.66-1.46c-.07-.59-1-2.07-.19-3.67,2.3.52,3.42-2.1,3.3-3.1a13.86,13.86,0,0,1-.08-1.87,3.13,3.13,0,0,1,.2-1.19,15.54,15.54,0,0,0,0-3s-5.17-2.5-5.68-.32-.91,2-2.74,2.11c-1,.08-1.51,1.55-1.31,2.46a2.71,2.71,0,0,0,2,1.67,13.14,13.14,0,0,1-1.71,3.82A7.13,7.13,0,0,1,180.86,248.7Z" transform="translate(-39.52 -25.16)"/><ellipse class="cls-18" cx="148.53" cy="216.87" rx="0.32" ry="0.64"/><ellipse class="cls-18" cx="151.11" cy="216.79" rx="0.28" ry="0.6"/><path class="cls-18" d="M189.94,244.11a.4.4,0,0,0,.35-.18,1,1,0,0,0-.26-1.14.09.09,0,0,0-.12.13.83.83,0,0,1,.23.91c-.11.16-.33.1-.49,0a.09.09,0,0,0-.08.16A.88.88,0,0,0,189.94,244.11Z" transform="translate(-39.52 -25.16)"/><path class="cls-31" d="M187.82,247.07a2.41,2.41,0,0,1-1.39-1.23,2.66,2.66,0,0,0,1.11,2Z" transform="translate(-39.52 -25.16)"/><path class="cls-14" d="M180.38,237.12c1.31-2.41,5.77-2.24,7.67-2.33,2.23-.1,3.71.66,3.71,3.11a5.09,5.09,0,0,1-.49,2.86,5.89,5.89,0,0,0-.47-2.47c-.12-.36-.72.27-1.75.31s-2.26-.07-2.3.13l-.84,2.92a1.15,1.15,0,0,1-.91.81h0s0-2.42-1.79-2.34-1.71,3.06.36,3.66a11,11,0,0,1-.79,2.19S179.07,239.53,180.38,237.12Z" transform="translate(-39.52 -25.16)"/><path class="cls-18" d="M189.38,245.57a1.6,1.6,0,0,0,.61-.12.09.09,0,0,0-.08-.16,1,1,0,0,1-1.4-.44.09.09,0,1,0-.16.08A1.1,1.1,0,0,0,189.38,245.57Z" transform="translate(-39.52 -25.16)"/><path class="cls-18" d="M188.71,240.85a.09.09,0,0,0,0-.16,1.42,1.42,0,0,0-1.47-.08.09.09,0,1,0,.1.15,1.26,1.26,0,0,1,1.27.08Z" transform="translate(-39.52 -25.16)"/><path class="cls-18" d="M190.32,240.72a.09.09,0,0,0,.07,0,.58.58,0,0,1,.61-.1.09.09,0,0,0,.05-.17.75.75,0,0,0-.8.15.09.09,0,0,0,0,.13Z" transform="translate(-39.52 -25.16)"/><g class="cls-35"><path class="cls-23" d="M188.83,238.85a4.34,4.34,0,0,0,.74-3,2.16,2.16,0,0,0-1.2-1.4l-.13.25a1.9,1.9,0,0,1,1.05,1.22,4.14,4.14,0,0,1-.7,2.78Z" transform="translate(-39.52 -25.16)"/><path class="cls-23" d="M186.69,239.68l.27-.06c-1-4.43-5.71-4.17-5.75-4.17l0,.28C181.42,235.72,185.79,235.49,186.69,239.68Z" transform="translate(-39.52 -25.16)"/><path class="cls-23" d="M186.32,240.85l.21-.18c-1.7-2-6.45-3.91-6.65-4l-.1.26S184.66,238.88,186.32,240.85Z" transform="translate(-39.52 -25.16)"/><path class="cls-23" d="M189.68,238.81a3.88,3.88,0,0,0,1.28-2.6,2.56,2.56,0,0,0-1.09-1.94l-.17.22a2.3,2.3,0,0,1,1,1.73,3.66,3.66,0,0,1-1.18,2.38Z" transform="translate(-39.52 -25.16)"/></g><path class="cls-14" d="M184,235.08s-3.28-5-6.28-2.61-.47,5.36,2.43,5.42A4.16,4.16,0,0,0,184,235.08Z" transform="translate(-39.52 -25.16)"/><g class="cls-36"><path class="cls-23" d="M177.6,237.68c4-.56,4.79-5.22,4.8-5.27l-.28,0s-.78,4.51-4.56,5Z" transform="translate(-39.52 -25.16)"/><path class="cls-23" d="M177,236.32c2.66,0,5.46-3.41,5.59-3.58l-.22-.18s-3.82,4.65-6.57,3.18l-.13.25A2.78,2.78,0,0,0,177,236.32Z" transform="translate(-39.52 -25.16)"/></g><line class="cls-37" x1="90.99" y1="301.77" x2="340.01" y2="301.77"/><path class="cls-13" d="M358,319.29a31.3,31.3,0,0,1-.85,7.6h-43.3c-.82,1.22-1.89,2.62-3,4.11-3.16,4.16-6.81,9-7,12.53-.37,6.53-8.15,1.36-6.66-3.44s5.92-5.73,4.94-11a10.31,10.31,0,0,0-.65-2.21c-2.14-.15-4.3-.27-5.4-.33l-.76,0c.42-1.31,3.08-5.17,2.87-6.53-.32-2-.18-4.56-.74-6.64a3.62,3.62,0,0,0-.26-.7,5.78,5.78,0,0,0,1,.11,41.17,41.17,0,0,0,14.22-3.91c15-7.58,30.91-13.81,39.77-5.07C356.83,308.37,358,314.5,358,319.29Z" transform="translate(-39.52 -25.16)"/><path class="cls-13" d="M365.84,341.07c-4.4-.68-1.83-8.33-1.81-14.18h-6.89a31.3,31.3,0,0,0,.85-7.6s3.55-3.57,9.72-1.19C374.23,320.62,371.38,341.93,365.84,341.07Z" transform="translate(-39.52 -25.16)"/><path class="cls-23" d="M361.54,326.89l1.84-4a10,10,0,0,1,.65,4Z" transform="translate(-39.52 -25.16)"/><path class="cls-23" d="M318.69,340.09c-.87-4.43-7.87-9.09-7.87-9.09,1.13-1.49,2.2-2.89,3-4.11l1.56-3c.51.48,4.52,5.12,6.75,7.86a6.62,6.62,0,0,1,1.2,5.88C322.31,340.57,319.21,342.72,318.69,340.09Z" transform="translate(-39.52 -25.16)"/><path class="cls-23" d="M299.12,324.23A3.56,3.56,0,0,1,298,326a4.2,4.2,0,0,1-2,.61l-.76,0c.42-1.31,3.08-5.17,2.87-6.53-.32-2-.18-4.56-.74-6.64a3.62,3.62,0,0,0-.26-.7,5.78,5.78,0,0,0,1,.11,3.4,3.4,0,0,1,.21.59c.56,2.08.42,4.61.74,6.64A9.62,9.62,0,0,1,299.12,324.23Z" transform="translate(-39.52 -25.16)"/><path class="cls-13" d="M298.12,324.23A3.56,3.56,0,0,1,297,326a4.63,4.63,0,0,1-2.2.64c-3.57.42-9.9-.1-11.27.19-1.76.37-4.53-.14-4.86-2-2.86-1.57-8.63-5.49-8-7.48s9-.78,9-.78a26.16,26.16,0,0,1,5.63-6c1.2-4,1.43-8.41,2.21-8.83s4.9,6.23,5.45,8.12c1.78.62,3.5,1.29,4.26,2.86a3.62,3.62,0,0,1,.26.7c.56,2.08.42,4.61.74,6.64A9.62,9.62,0,0,1,298.12,324.23Z" transform="translate(-39.52 -25.16)"/><path class="cls-23" d="M270.64,317.28s5.77,0,8.49,1.34l-1,2.74Z" transform="translate(-39.52 -25.16)"/><polygon class="cls-23" points="247.91 276.52 247.91 285.11 251.67 284.61 247.91 276.52"/><path class="cls-38" d="M291.66,318.23a2.12,2.12,0,0,1-.58-1.16,2.61,2.61,0,0,1,.07-1.26,2.42,2.42,0,0,1,.72-1.12,1.61,1.61,0,0,1,1.29-.41c-.16.47-.25.78-.34,1.09s-.15.59-.24.88A7.18,7.18,0,0,1,291.66,318.23Z" transform="translate(-39.52 -25.16)"/><path class="cls-38" d="M284.48,322.91a2.13,2.13,0,0,1,.51-1.16,2.55,2.55,0,0,1,1-.74,2.34,2.34,0,0,1,1.27-.21,1.51,1.51,0,0,1,1.14.68c-.45.18-.72.34-1,.48a8.21,8.21,0,0,1-.8.41A5.86,5.86,0,0,1,284.48,322.91Z" transform="translate(-39.52 -25.16)"/><path class="cls-38" d="M291.92,323.67a3,3,0,0,1,2.7-2.32,15.42,15.42,0,0,1,.18,2.72.15.15,0,0,1-.17.16Z" transform="translate(-39.52 -25.16)"/><path class="cls-38" d="M293.16,326.25a4.7,4.7,0,0,0,1-.93,1.31,1.31,0,0,0,.24-.49.61.61,0,0,0,0-.24v-.2a.55.55,0,0,1,.24-.44.57.57,0,0,1,.47-.09l.15,0,.25,0a1.19,1.19,0,0,0,.52-.15,1.91,1.91,0,0,0,.84-1,1.55,1.55,0,0,1-.49,1.43,1.49,1.49,0,0,1-.77.39,1.35,1.35,0,0,1-.46,0l-.2,0a.17.17,0,0,0,.13,0,.17.17,0,0,0,.08-.14c0-.05,0,0,0,0v.12a1.34,1.34,0,0,1-.07.46,1.65,1.65,0,0,1-.49.7A2.17,2.17,0,0,1,293.16,326.25Z" transform="translate(-39.52 -25.16)"/><path class="cls-23" d="M310.82,331s3.47-6.59,3.16-7.84a27.4,27.4,0,0,0-2.41-4.55,9.21,9.21,0,0,1,3.81,4.55c.26.74-.41,2.06-1.54,3.73Z" transform="translate(-39.52 -25.16)"/><polygon class="cls-39" points="189.02 281.53 192.13 301.74 207.34 301.74 210.63 281.53 189.02 281.53"/><path class="cls-40" d="M248.37,311.27c4.52,0,4.69,2.72,4.5,5.61-.17,2.6-1.38,5.46-5.58,5.25" transform="translate(-39.52 -25.16)"/><path class="cls-41" d="M139.25,293.92l12.63,14.18L189.78,319s9.83-4.54,12.08-4.79,6.81,2,8.73,2.08,6.15,6.07,6.81,8.06-5.4,2-6.48,1.5,1.33-3.74-2.41-3.91-3.41,4-6.57,4.57-59.7-.11-59.7-.11l-19.42-19.59,16-12.85" transform="translate(-39.52 -25.16)"/><path class="cls-41" d="M101.11,220.13c-3.84-6.15-3.09-7.36-5-10.31a27.38,27.38,0,0,0-2.46-3.7c-1-.69-.27,2.55-3.27,2.88-13.82,1.53,3.78,13.93-4.06,17.28-1.1-.91-3.72-4-6.85-4.07s-6.5,5.89-2.62,10.61a6.53,6.53,0,0,0,4.48,2.42s-3.46,10.05-6.8,14.18c1.83,9.81,25.75,4.25,25.75,4.25s-7.25-12.94.42-13.9C109.79,238.63,102.66,222.62,101.11,220.13Z" transform="translate(-39.52 -25.16)"/><path class="cls-41" d="M103.92,227.35c6.65-1.45-3.8-8.89-3.8-8.89Z" transform="translate(-39.52 -25.16)"/><path class="cls-42" d="M101.94,232.87a5.5,5.5,0,0,0,3,.11" transform="translate(-39.52 -25.16)"/><ellipse class="cls-18" cx="96.9" cy="220.57" rx="1.19" ry="2.42" transform="translate(-111.19 23.29) rotate(-20.69)"/><path class="cls-43" d="M91.72,214.91s2.12-4.47,5.16-2" transform="translate(-39.52 -25.16)"/><path class="cls-4" d="M145.54,293.27c-27.5-12.17-13.84-31.09-32.46-40.59-6-3.07-22.54,1.48-38.54-5.67-15.18,5.22-25.36,7.07-31.07,13.17-10,10.63,14,80.54,18.25,80.51,12.61-.07,30.18-2.95,41.47-3.49a9.41,9.41,0,0,0,8.61-6.86c.74-2.62,1.66-5.86,2.69-9.39,2.44,2.73,4.44,4.68,5.56,5.19,7.65,3.45,27.66,6.49,27.66,6.49S160.24,299.77,145.54,293.27Z" transform="translate(-39.52 -25.16)"/><path class="cls-44" d="M50.37,281.1h64a2.75,2.75,0,0,1,2.66,2c1.8,6.75,7.84,30,15.4,66.8a2.69,2.69,0,0,1-2.63,3.23h-18a53.92,53.92,0,0,1-53.36-45.89C57.05,298,54.58,288.71,50.37,281.1Z" transform="translate(-39.52 -25.16)"/><path class="cls-45" d="M45.28,281.1h66s7.21,25.92,16.61,72.07H73.14a21.94,21.94,0,0,1-21.71-18.82c-1.9-13.13-5.37-30.81-11.45-45.25A5.75,5.75,0,0,1,45.28,281.1Z" transform="translate(-39.52 -25.16)"/><rect class="cls-46" x="296.26" y="150.92" width="50.75" height="68.58"/><polyline class="cls-47" points="292.63 156.12 341.52 156.12 341.52 223.55"/><rect class="cls-46" x="290.18" y="156.68" width="50.75" height="68.58"/><rect class="cls-46" x="284.76" y="162.21" width="50.75" height="68.58"/><rect class="cls-14" x="291.32" y="171.3" width="6.16" height="13.06"/><rect class="cls-4" x="300.52" y="173.8" width="6.16" height="10.56"/><rect class="cls-15" x="309.76" y="167.88" width="6.16" height="16.48"/><line class="cls-48" x1="291.32" y1="192.72" x2="329.32" y2="192.72"/><line class="cls-48" x1="291.32" y1="198.3" x2="329.32" y2="198.3"/><line class="cls-48" x1="291.32" y1="203.87" x2="329.32" y2="203.87"/><line class="cls-48" x1="291.32" y1="209.45" x2="329.32" y2="209.45"/><line class="cls-48" x1="291.32" y1="215.02" x2="329.32" y2="215.02"/><polyline class="cls-47" points="287.11 161.65 335.99 161.65 335.99 231.35"/><path class="cls-13" d="M386.33,257.37l-13.45-16.68a18.13,18.13,0,1,0-6,4.71l13.57,16.83a3.83,3.83,0,1,0,5.93-4.86Zm-29.26-14.73A13.71,13.71,0,1,1,372.55,231,13.71,13.71,0,0,1,357.07,242.64Z" transform="translate(-39.52 -25.16)"/><g class="cls-49"><path class="cls-4" d="M113.25,103.09c-.8.5-10,36.38-18.33,33.11-11.31-4.44-20.28,2-24.6-3.38s-4.26-11.44-5.22-18.72c-1.16-8.77-.83-18.15,5.12-23.9,2.15-2.08,14.67-4.28,15.88-6l.71,1.15a6.79,6.79,0,0,0,10.8.92l.06-.06a.55.55,0,0,0,.11.16C100.57,88.75,111,94.82,113.25,103.09Z" transform="translate(-39.52 -25.16)"/><path class="cls-2" d="M104.18,72.7a9,9,0,0,1,.18-2.54c.38-1.24.13-4.89-2.17-6s-5.95-.25-7,4.09-2.88,5-2.88,5,.09-4.83-3.56-4.64-3.4,6.13.74,7.24a10.65,10.65,0,0,1-1.55,4.25C85.77,74,82,75.28,80.32,71c-1.25-3.26-.38-11,4.27-10.52s5.28-9,12.27-4.23c4.79,3.28,10,.47,11.22,4.69s-2.41,5.33-2.74,7.89C105.05,71.11,105,71.89,104.18,72.7Z" transform="translate(-39.52 -25.16)"/><path class="cls-41" d="M98,82.42c-.36,1-1.3,2.17.31,4.46A11.75,11.75,0,0,0,97,88.58a5.52,5.52,0,0,1-9.33-.1l-2.38-3.85c.26-.37.51-.75.76-1.15a26.51,26.51,0,0,0,3.42-7.63,4.42,4.42,0,0,1-3.21-3.4c-.39-1.85.44-3.74,2.47-3.85,3.65-.19,3.56,4.64,3.56,4.64s1.83-.68,2.88-5,4.71-5.21,7-4.09,2.54,4.76,2.17,6a9,9,0,0,0-.18,2.54,30.29,30.29,0,0,0,.32,3.53C104.79,78.21,102.56,83.48,98,82.42Z" transform="translate(-39.52 -25.16)"/><path class="cls-50" d="M99.46,69.71s-.81-.53-2.6.29" transform="translate(-39.52 -25.16)"/><path class="cls-50" d="M103.19,69.91a1.79,1.79,0,0,1,1.31-.66" transform="translate(-39.52 -25.16)"/><ellipse class="cls-18" cx="58.93" cy="47.22" rx="0.64" ry="1.3"/><ellipse class="cls-18" cx="64.02" cy="47.06" rx="0.52" ry="1.22"/><path class="cls-50" d="M102.25,74c.93.89.93,2.93-.72,2.14" transform="translate(-39.52 -25.16)"/><path class="cls-7" d="M102.88,77.88a3.49,3.49,0,0,1-3.78-1.1s-.66,2,.93,2.77S102.88,77.88,102.88,77.88Z" transform="translate(-39.52 -25.16)"/><path class="cls-51" d="M98,82.42A5,5,0,0,1,95.2,80a5.38,5.38,0,0,0,2.23,4Z" transform="translate(-39.52 -25.16)"/><g class="cls-52"><path class="cls-53" d="M99.73,65c-.3-.06-13.67-2.42-13.67-8.83" transform="translate(-39.52 -25.16)"/><path class="cls-53" d="M98.7,65.32c-.3-.06-14.21-.41-14.21-6.82" transform="translate(-39.52 -25.16)"/></g><path class="cls-2" d="M58.9,93.63h8.74a0,0,0,0,1,0,0v1.72a.72.72,0,0,1-.72.72h-7.3a.72.72,0,0,1-.72-.72V93.63A0,0,0,0,1,58.9,93.63Z"/><path class="cls-14" d="M104,114.1h-2.42a9.76,9.76,0,0,1-3.16,4.68h8.74A9.48,9.48,0,0,1,104,114.1Z" transform="translate(-39.52 -25.16)"/><path class="cls-41" d="M85.84,122.57l6.76-2.28A75.11,75.11,0,0,1,99.32,116a13.62,13.62,0,0,1,6,0c1.76.48,2.33.88,2.46,1.89,1.45.4,2,.64,2,1.22s-.79.71-1.14.67c.57.4.57,1.45.09,1.54s-6.76.57-6.76.79,2.28.66,3.42.44,2.06-1.14,2.55-.48-1.32,2.11-3.64,2.46-5.44.79-6.15,1-3,.66-5.22,1.19a38.79,38.79,0,0,0-6.59,3Z" transform="translate(-39.52 -25.16)"/><line class="cls-54" x1="62.03" y1="92.58" x2="68.22" y2="92.76"/><path class="cls-54" d="M101.86,119.84c.13,0,5.22-.48,6.76,0" transform="translate(-39.52 -25.16)"/><path class="cls-55" d="M96.66,100.24H94.2a.83.83,0,0,0-.83.83v3.29A3.76,3.76,0,0,0,94.48,107l2.12,2.1" transform="translate(-39.52 -25.16)"/><path class="cls-55" d="M109.11,100.24h2.46a.83.83,0,0,1,.83.83v3.29a3.76,3.76,0,0,1-1.11,2.67l-2.12,2.1" transform="translate(-39.52 -25.16)"/><path class="cls-2" d="M96.54,99.69v8.57a6.41,6.41,0,0,0,6.41,6.41h0a6.41,6.41,0,0,0,6.41-6.41V99.69Z" transform="translate(-39.52 -25.16)"/><path class="cls-15" d="M100.28,105.43l2.22-2.95a.58.58,0,0,1,.46-.23h.76a.45.45,0,0,1,.45.45v6.59a.63.63,0,0,1-.63.63h-1.22a.63.63,0,0,1-.63-.63v-3.46h-1.2A.25.25,0,0,1,100.28,105.43Z" transform="translate(-39.52 -25.16)"/></g><circle class="cls-7" cx="39.39" cy="124.05" r="5.67"/><circle class="cls-7" cx="45.39" cy="138.44" r="4.03"/><circle class="cls-7" cx="53.25" cy="129.71" r="2.4"/><path class="cls-16" d="M241.54,124.94l-42-6.71a19,19,0,0,0,2.48,8.41s27.69,15.67,38.53,14.22c4.32-.58,7.8-5.07,8.44-8.89C249.76,127.26,246.19,126,241.54,124.94Z" transform="translate(-39.52 -25.16)"/><path class="cls-56" d="M241.58,301c.77-1.83,5.2-5.09,8.52-.67,3.8,5.05-10.57,11-8.53,15.9" transform="translate(-39.52 -25.16)"/><polygon class="cls-7" points="194.32 281.53 196.13 276.5 198.63 274.64 204.88 276.5 206.13 278.89 205.38 281.53 194.32 281.53"/><rect class="cls-2" x="239.35" y="316.25" width="5.21" height="5.21" rx="0.9" ry="0.9" transform="translate(-115.87 51.02) rotate(-15.49)"/><path class="cls-57" d="M186.06,119.64c-2.18-.33-4.83-.67-5.34-.79a1.7,1.7,0,0,0-2.05,1.68c-.11.83.59,1.27,1.51,1.55a7.81,7.81,0,0,1-2.38,3c-1.3,1.08-.49,1.3-1.19,2.92s-2.65,1.67-2.65,1a36.47,36.47,0,0,1,1.52-5.62,52.83,52.83,0,0,1,3.09-4.47,18.34,18.34,0,0,1,5.51-.5A4.24,4.24,0,0,1,186.06,119.64Z" transform="translate(-39.52 -25.16)"/><path class="cls-16" d="M207.46,120v7.73L202,126.63c-1.57-.32-4.57,1.08-7.71.49s-4.7-2-6.44-3a8.29,8.29,0,0,0-2.38-1c-.78-.19-1.59-.3-2.59-.49-.8-.15-1.59-.27-2.33-.46l-.38-.1c-.91-.28-1.62-.72-1.51-1.55a1.7,1.7,0,0,1,2.05-1.68c.51.12,3.16.46,5.34.79a4.24,4.24,0,0,0-2-1.17,18.34,18.34,0,0,0-5.51.5,19.44,19.44,0,0,0-2.49.74c-3.3,1.24-4.92,1.3-6.22.54s6.87-5,8.87-5.19,7.68-1.14,9.73-1.35,2.22.92,8.44,3.51A34.92,34.92,0,0,0,207.46,120Z" transform="translate(-39.52 -25.16)"/><path class="cls-58" d="M186.06,119.64c.77.12,1.47.23,2,.34a33.56,33.56,0,0,0,6.6,0" transform="translate(-39.52 -25.16)"/><path class="cls-57" d="M184.35,127c-.27-.54-1.24-3.57-1.4-3.21a11.29,11.29,0,0,0,.21,3,1.35,1.35,0,0,1-1.51,1.67c-.7,0-.65-1.19-1.08-3a8.89,8.89,0,0,1,0-3.27c.74.19,1.53.3,2.33.46,1,.19,1.81.3,2.59.49.05.54.14,1.42.28,2.33C186,126.91,184.62,127.5,184.35,127Z" transform="translate(-39.52 -25.16)"/></svg>