<svg width="320" height="276" viewBox="0 0 320 276" fill="none" xmlns="http://www.w3.org/2000/svg">
<g clip-path="url(#clip0_1007_23484)">
<path d="M64.7441 9.23364H18.4223C16.2663 9.23364 14.5186 10.9773 14.5186 13.1281V40.8701C14.5186 43.0209 16.2663 44.7646 18.4223 44.7646H64.7441C66.9001 44.7646 68.6479 43.0209 68.6479 40.8701V13.1281C68.6479 10.9773 66.9001 9.23364 64.7441 9.23364Z" fill="#4F6DDB"/>
<path d="M61.5963 13.012H21.562C19.7914 13.012 18.356 14.444 18.356 16.2104V37.7875C18.356 39.5539 19.7914 40.9859 21.562 40.9859H61.5963C63.3669 40.9859 64.8023 39.5539 64.8023 37.7875V16.2104C64.8023 14.444 63.3669 13.012 61.5963 13.012Z" fill="white"/>
<mask id="mask0_1007_23484" style="mask-type:luminance" maskUnits="userSpaceOnUse" x="236" y="8" width="25" height="25">
<path d="M248.578 8.05688C246.125 8.05688 243.728 8.78244 241.688 10.1418C239.649 11.5012 238.06 13.4333 237.121 15.6938C236.183 17.9544 235.937 20.4418 236.416 22.8416C236.894 25.2413 238.075 27.4457 239.809 29.1758C241.544 30.906 243.753 32.0842 246.159 32.5615C248.564 33.0389 251.057 32.7939 253.323 31.8576C255.589 30.9212 257.526 29.3356 258.889 27.3011C260.251 25.2667 260.979 22.8749 260.979 20.4281C260.979 17.147 259.672 14.0004 257.346 11.6803C255.021 9.36027 251.867 8.05688 248.578 8.05688Z" fill="white"/>
</mask>
<g mask="url(#mask0_1007_23484)">
<path d="M260.979 20.4281C260.986 23.6009 259.772 26.6555 257.586 28.9604C255.401 31.2654 252.411 32.6444 249.235 32.8125C246.059 32.9806 242.94 31.9249 240.522 29.8636C238.104 27.8024 236.572 24.8932 236.244 21.7373H248.578V8.05688C251.867 8.05688 255.021 9.36027 257.346 11.6803C259.672 14.0004 260.979 17.147 260.979 20.4281Z" fill="white"/>
<path d="M256.244 7.57642H248.586V10.7003H256.244V7.57642Z" fill="#FE3737"/>
<path d="M262.44 13.219H248.586V16.3429H262.44V13.219Z" fill="#FE3737"/>
<path d="M262.44 18.6133H248.586V21.7372H262.44V18.6133Z" fill="#FE3737"/>
<path d="M262.44 24.4053H235.206V27.5291H262.44V24.4053Z" fill="#FE3737"/>
<path d="M262.44 30.2056H235.206V33.3294H262.44V30.2056Z" fill="#FE3737"/>
<path d="M248.578 8.05688V21.7373H236.252C236.068 20.0124 236.25 18.2682 236.785 16.6179C237.321 14.9676 238.198 13.4481 239.36 12.158C240.523 10.868 241.944 9.83617 243.532 9.12963C245.12 8.42309 246.839 8.0576 248.578 8.05688Z" fill="#4F6DDB"/>
<path d="M239.259 13.4759L240.131 13.6416L239.475 14.2299L239.591 15.1L238.827 14.6608L238.029 15.042L238.212 14.1885L237.606 13.5505L238.478 13.451L238.901 12.6804L239.259 13.4759Z" fill="white"/>
<path d="M239.259 17.2544L240.131 17.4119L239.475 18.0002L239.591 18.8702L238.827 18.4394L238.029 18.8205L238.212 17.9588L237.606 17.3207L238.478 17.2213L238.901 16.4507L239.259 17.2544Z" fill="white"/>
<path d="M241.784 11.5039L242.648 11.6614L242 12.2497L242.116 13.128L241.352 12.6889L240.554 13.07L240.737 12.2083L240.131 11.5702L241.003 11.4791L241.418 10.7002L241.784 11.5039Z" fill="white"/>
<path d="M244.309 9.64775L245.172 9.80518L244.525 10.3935L244.641 11.2635L243.877 10.8327L243.079 11.2138L243.262 10.3521L242.647 9.71404L243.528 9.62289L243.943 8.84399L244.309 9.64775Z" fill="white"/>
<path d="M244.309 13.3931L245.172 13.5588L244.525 14.1472L244.641 15.0172L243.877 14.578L243.079 14.9592L243.262 14.0974L242.647 13.4677L243.528 13.3683L243.943 12.5977L244.309 13.3931Z" fill="white"/>
<path d="M244.309 17.1468L245.172 17.3042L244.525 17.9008L244.641 18.7709L243.877 18.3317L243.079 18.7128L243.262 17.8511L242.647 17.2213L243.528 17.1219L243.943 16.343L244.309 17.1468Z" fill="white"/>
<path d="M246.858 11.5039L247.722 11.6614L247.066 12.2497L247.191 13.128L246.427 12.6889L245.629 13.07L245.804 12.2083L245.197 11.5702L246.078 11.4791L246.493 10.7002L246.858 11.5039Z" fill="white"/>
<path d="M246.858 15.3902L247.722 15.5476L247.066 16.1359L247.191 17.006L246.427 16.5668L245.629 16.9563L245.804 16.0945L245.197 15.4565L246.078 15.357L246.493 14.5864L246.858 15.3902Z" fill="white"/>
<path d="M246.858 19.2679L247.722 19.4253L247.066 20.0136L247.191 20.8919L246.427 20.4528L245.629 20.8339L245.804 19.9722L245.197 19.3342L246.078 19.243L246.493 18.4641L246.858 19.2679Z" fill="white"/>
<path d="M241.784 19.2679L242.648 19.4253L242 20.0136L242.116 20.8919L241.352 20.4528L240.554 20.8339L240.737 19.9722L240.131 19.3342L241.003 19.243L241.418 18.4641L241.784 19.2679Z" fill="white"/>
<path d="M236.734 19.2679L237.606 19.4253L236.95 20.0136L237.066 20.8919L236.302 20.4528L235.504 20.8339L235.687 19.9722L235.081 19.3342L235.953 19.243L236.368 18.4641L236.734 19.2679Z" fill="white"/>
<path d="M241.784 15.3902L242.648 15.5476L242 16.1359L242.116 17.006L241.352 16.5668L240.554 16.9563L240.737 16.0945L240.131 15.4565L241.003 15.357L241.418 14.5864L241.784 15.3902Z" fill="white"/>
</g>
<path d="M216.127 8.05688C213.674 8.05688 211.277 8.78244 209.238 10.1418C207.198 11.5012 205.609 13.4333 204.67 15.6938C203.732 17.9544 203.486 20.4418 203.965 22.8416C204.443 25.2413 205.624 27.4457 207.358 29.1758C209.093 30.906 211.302 32.0842 213.708 32.5615C216.113 33.0389 218.607 32.7939 220.873 31.8576C223.138 30.9212 225.075 29.3356 226.438 27.3011C227.8 25.2667 228.528 22.8749 228.528 20.4281C228.528 17.147 227.221 14.0004 224.896 11.6803C222.57 9.36027 219.416 8.05688 216.127 8.05688Z" fill="#4F6DDB"/>
<path d="M223.611 14.2136V24.389C217.514 23.1627 216.252 25.9219 216.135 26.2037V15.6306C219.208 12.0013 223.611 14.2136 223.611 14.2136Z" fill="white"/>
<path d="M225.056 15.1333V27.3139C223.767 26.4276 222.28 25.8691 220.725 25.6871C219.171 25.5052 217.595 25.7052 216.135 26.2699C216.243 25.9881 217.506 23.2288 223.611 24.4552V15.1333H225.056Z" fill="#FE3737"/>
<path d="M216.127 15.6306V26.27C216.019 25.9882 214.756 23.229 208.652 24.4553V14.2136C208.652 14.2136 213.045 12.0013 216.127 15.6306Z" fill="white"/>
<path d="M216.127 26.2699C214.667 25.7052 213.091 25.5052 211.537 25.6871C209.982 25.8691 208.495 26.4276 207.206 27.3139V15.1333H208.652V24.3889C214.748 23.1626 216.011 25.9218 216.127 26.2036V26.2699Z" fill="#FE3737"/>
<path d="M280.705 8.05688C278.252 8.05688 275.855 8.78244 273.815 10.1418C271.776 11.5012 270.187 13.4333 269.248 15.6938C268.31 17.9544 268.064 20.4418 268.542 22.8416C269.021 25.2413 270.202 27.4457 271.936 29.1758C273.671 30.906 275.88 32.0842 278.286 32.5615C280.691 33.0389 283.184 32.7939 285.45 31.8576C287.716 30.9212 289.653 29.3356 291.016 27.3011C292.378 25.2667 293.106 22.8749 293.106 20.4281C293.106 17.147 291.799 14.0004 289.473 11.6803C287.148 9.36027 283.994 8.05688 280.705 8.05688Z" fill="#4F6DDB"/>
<path d="M289.817 15.4315V25.8306C282.391 24.5794 280.855 27.3884 280.68 27.6784V16.8733C284.459 13.1777 289.817 15.4315 289.817 15.4315Z" fill="white"/>
<path d="M280.705 16.8733V27.7033C280.572 27.4132 279.044 24.6043 271.569 25.8555V15.4315C271.569 15.4315 276.951 13.1777 280.705 16.8733Z" fill="white"/>
<path d="M285.444 12.6241L278.947 20.5212L280.353 21.6726L286.85 13.7754L285.444 12.6241Z" fill="#FE3737"/>
<path d="M287.159 13.3759L285.788 12.2246L286.345 11.5453C286.417 11.4578 286.522 11.4025 286.636 11.3916C286.749 11.3808 286.863 11.4152 286.951 11.4874L287.69 12.092C287.778 12.1647 287.833 12.2691 287.844 12.3824C287.855 12.4957 287.821 12.6087 287.748 12.6967L287.159 13.3759Z" fill="#FE3737"/>
<path d="M278.595 20.9253L277.748 23.3946L280.007 22.0771L278.595 20.9253Z" fill="#FE3737"/>
<path d="M53.3319 93.1223H3.59644C1.61018 93.1223 0 94.7287 0 96.7102V146.328C0 148.309 1.61018 149.915 3.59644 149.915H53.3319C55.3182 149.915 56.9284 148.309 56.9284 146.328V96.7102C56.9284 94.7287 55.3182 93.1223 53.3319 93.1223Z" fill="#FFC61A"/>
<path d="M247.456 73.6499H315.706C316.845 73.6499 317.937 74.1012 318.742 74.9046C319.547 75.708 320 76.7977 320 77.9338V97.1328C320 98.269 319.547 99.3586 318.742 100.162C317.937 100.965 316.845 101.417 315.706 101.417H243.171V77.9338C243.171 77.3713 243.282 76.8142 243.498 76.2944C243.713 75.7747 244.03 75.3024 244.428 74.9046C244.827 74.5068 245.301 74.1913 245.821 73.976C246.342 73.7607 246.901 73.6499 247.465 73.6499H247.456Z" fill="#F56930"/>
<path d="M243.171 101.408V110.937L260.937 101.408H243.171Z" fill="#F56930"/>
<path d="M314.236 110.01H266.701C263.518 110.01 260.937 112.584 260.937 115.76V115.768C260.937 118.944 263.518 121.519 266.701 121.519H314.236C317.419 121.519 320 118.944 320 115.768V115.76C320 112.584 317.419 110.01 314.236 110.01Z" fill="#FFC61A"/>
<path d="M314.236 127.825H266.701C263.518 127.825 260.937 130.399 260.937 133.575V133.584C260.937 136.76 263.518 139.334 266.701 139.334H314.236C317.419 139.334 320 136.76 320 133.584V133.575C320 130.399 317.419 127.825 314.236 127.825Z" fill="#029D41"/>
<path d="M314.236 145.64H266.701C263.518 145.64 260.937 148.215 260.937 151.39V151.399C260.937 154.575 263.518 157.149 266.701 157.149H314.236C317.419 157.149 320 154.575 320 151.399V151.39C320 148.215 317.419 145.64 314.236 145.64Z" fill="#FE3737"/>
<path d="M310.556 80.5938H253.811C252.838 80.5938 252.05 81.3802 252.05 82.3504V82.3587C252.05 83.3289 252.838 84.1154 253.811 84.1154H310.556C311.529 84.1154 312.317 83.3289 312.317 82.3587V82.3504C312.317 81.3802 311.529 80.5938 310.556 80.5938Z" fill="white"/>
<path d="M310.556 88.5649H253.811C252.838 88.5649 252.05 89.3514 252.05 90.3216V90.3299C252.05 91.3001 252.838 92.0865 253.811 92.0865H310.556C311.529 92.0865 312.317 91.3001 312.317 90.3299V90.3216C312.317 89.3514 311.529 88.5649 310.556 88.5649Z" fill="white"/>
<path d="M267.324 119.746C269.489 119.746 271.245 117.995 271.245 115.835C271.245 113.675 269.489 111.924 267.324 111.924C265.159 111.924 263.404 113.675 263.404 115.835C263.404 117.995 265.159 119.746 267.324 119.746Z" fill="white"/>
<path d="M267.324 137.486C269.489 137.486 271.245 135.735 271.245 133.575C271.245 131.415 269.489 129.664 267.324 129.664C265.159 129.664 263.404 131.415 263.404 133.575C263.404 135.735 265.159 137.486 267.324 137.486Z" fill="white"/>
<path d="M267.324 155.235C269.489 155.235 271.245 153.484 271.245 151.324C271.245 149.164 269.489 147.413 267.324 147.413C265.159 147.413 263.404 149.164 263.404 151.324C263.404 153.484 265.159 155.235 267.324 155.235Z" fill="white"/>
<path d="M105.277 10.1533H82.6765V32.6999H105.277V10.1533Z" stroke="#28282A" stroke-width="2" stroke-miterlimit="10" stroke-linecap="round"/>
<path d="M88.1086 13.4099L93.8231 25.9054C93.8396 25.9386 93.865 25.9665 93.8966 25.986C93.9281 26.0055 93.9645 26.0159 94.0017 26.0159C94.0388 26.0159 94.0752 26.0055 94.1067 25.986C94.1383 25.9665 94.1637 25.9386 94.1802 25.9054L103.798 1.80103" stroke="#029D41" stroke-width="3" stroke-miterlimit="10" stroke-linecap="round"/>
<path d="M93.2333 94.4316H70.6331V116.978H93.2333V94.4316Z" stroke="#28282A" stroke-width="2" stroke-miterlimit="10" stroke-linecap="round"/>
<path d="M76.0237 97.688L81.7381 110.183C81.7546 110.217 81.7801 110.245 81.8116 110.264C81.8432 110.284 81.8796 110.294 81.9167 110.294C81.9538 110.294 81.9902 110.284 82.0218 110.264C82.0533 110.245 82.0788 110.217 82.0953 110.183L91.7135 86.0791" stroke="#029D41" stroke-width="3" stroke-miterlimit="10" stroke-linecap="round"/>
<path d="M189.673 10.0952H167.073V32.6418H189.673V10.0952Z" stroke="#28282A" stroke-width="2" stroke-miterlimit="10" stroke-linecap="round"/>
<path d="M172.471 13.3518L178.186 25.8473C178.202 25.8804 178.228 25.9084 178.259 25.9279C178.291 25.9474 178.327 25.9578 178.364 25.9578C178.401 25.9578 178.438 25.9474 178.469 25.9279C178.501 25.9084 178.526 25.8804 178.543 25.8473L188.161 1.74292" stroke="#029D41" stroke-width="3" stroke-miterlimit="10" stroke-linecap="round"/>
<path d="M226.758 74.0393H204.158V96.5859H226.758V74.0393Z" stroke="#28282A" stroke-width="2" stroke-miterlimit="10" stroke-linecap="round"/>
<path d="M209.557 77.2959L215.271 89.7914C215.288 89.8245 215.313 89.8525 215.345 89.872C215.376 89.8915 215.413 89.9018 215.45 89.9018C215.487 89.9018 215.523 89.8915 215.555 89.872C215.587 89.8525 215.612 89.8245 215.628 89.7914L225.247 65.687" stroke="#029D41" stroke-width="3" stroke-miterlimit="10" stroke-linecap="round"/>
<path d="M25.5073 18.9531H57.7092" stroke="#FE3737" stroke-width="2.87" stroke-miterlimit="10"/>
<path d="M22.1267 25.6899H59.6941" stroke="#4F6DDB" stroke-width="2.87" stroke-miterlimit="10"/>
<path d="M22.1267 32.3352H59.6941" stroke="#4F6DDB" stroke-width="2.87" stroke-miterlimit="10"/>
<path d="M35.3499 49.9766L31.363 61.9252L35.6904 60.3508L38.6639 63.5492L42.767 51.8741L35.3499 49.9766Z" fill="#FE3737"/>
<path d="M47.5761 49.9766L51.5629 61.9252L47.2272 60.3508L44.2537 63.5492L40.1589 51.8741L47.5761 49.9766Z" fill="#FE3737"/>
<path d="M42.9248 35.3349L43.7554 34.7797C43.9199 34.6751 44.1045 34.6059 44.2973 34.5764C44.4901 34.547 44.687 34.5579 44.8753 34.6086C45.0637 34.6593 45.2394 34.7486 45.3912 34.8708C45.543 34.993 45.6676 35.1454 45.7571 35.3183L46.2306 36.2298C46.3541 36.4675 46.5434 36.6649 46.776 36.7985C47.0086 36.9322 47.2748 36.9965 47.5429 36.9838L48.5728 36.9341C48.7697 36.9211 48.9671 36.9497 49.1522 37.0179C49.3372 37.0862 49.5058 37.1926 49.6469 37.3302C49.7879 37.4678 49.8983 37.6335 49.9709 37.8166C50.0434 37.9996 50.0765 38.1958 50.0679 38.3925L50.018 39.42C50.0054 39.6874 50.0698 39.9529 50.2038 40.185C50.3378 40.417 50.5356 40.6059 50.7739 40.7292L51.6875 41.2015C51.8609 41.2907 52.0136 41.4151 52.1361 41.5665C52.2586 41.718 52.3481 41.8933 52.3989 42.0812C52.4497 42.2691 52.4607 42.4655 52.4312 42.6578C52.4016 42.8502 52.3322 43.0343 52.2274 43.1984L51.6709 44.027C51.5267 44.2522 51.45 44.5139 51.45 44.7811C51.45 45.0483 51.5267 45.3099 51.6709 45.5351L52.2274 46.3637C52.3426 46.5292 52.4207 46.7175 52.4564 46.9158C52.492 47.1141 52.4843 47.3177 52.4339 47.5128C52.3834 47.7079 52.2914 47.8898 52.164 48.0461C52.0366 48.2025 51.8769 48.3296 51.6958 48.4187L50.7822 48.891C50.5439 49.0143 50.3461 49.2032 50.2121 49.4352C50.0781 49.6672 50.0137 49.9327 50.0263 50.2002L50.0762 51.2277C50.0844 51.4214 50.0522 51.6147 49.9817 51.7953C49.9111 51.976 49.8037 52.1401 49.6663 52.2772C49.5289 52.4142 49.3644 52.5214 49.1833 52.5918C49.0023 52.6622 48.8085 52.6943 48.6143 52.6861L47.5844 52.6363C47.3163 52.6237 47.0502 52.688 46.8176 52.8217C46.585 52.9553 46.3957 53.1527 46.2721 53.3904L45.7488 54.3267C45.6593 54.4996 45.5347 54.6521 45.3829 54.7743C45.2311 54.8965 45.0554 54.9857 44.867 55.0364C44.6787 55.0871 44.4818 55.0981 44.289 55.0686C44.0962 55.0391 43.9116 54.9699 43.7471 54.8653L42.9165 54.3101C42.6908 54.1662 42.4285 54.0898 42.1607 54.0898C41.8928 54.0898 41.6306 54.1662 41.4048 54.3101L40.5743 54.8653C40.4098 54.9699 40.2252 55.0391 40.0324 55.0686C39.8395 55.0981 39.6427 55.0871 39.4543 55.0364C39.266 54.9857 39.0903 54.8965 38.9385 54.7743C38.7867 54.6521 38.662 54.4996 38.5726 54.3267L38.0659 53.3904C37.9423 53.1527 37.753 52.9553 37.5204 52.8217C37.2878 52.688 37.0217 52.6237 36.7536 52.6363L35.7236 52.6861C35.5295 52.6943 35.3357 52.6622 35.1546 52.5918C34.9736 52.5214 34.8091 52.4142 34.6717 52.2772C34.5343 52.1401 34.4269 51.976 34.3563 51.7953C34.2858 51.6147 34.2536 51.4214 34.2618 51.2277L34.3116 50.2002C34.3243 49.9327 34.2598 49.6672 34.1259 49.4352C33.9919 49.2032 33.7941 49.0143 33.5558 48.891L32.6339 48.4187C32.4605 48.3294 32.3077 48.2051 32.1852 48.0536C32.0627 47.9022 31.9732 47.7269 31.9225 47.539C31.8717 47.3511 31.8607 47.1547 31.8902 46.9623C31.9197 46.77 31.9891 46.5859 32.094 46.4217L32.6505 45.5931C32.7947 45.368 32.8713 45.1063 32.8713 44.8391C32.8713 44.5719 32.7947 44.3102 32.6505 44.0851L32.094 43.2564C31.9891 43.0923 31.9197 42.9082 31.8902 42.7158C31.8607 42.5235 31.8717 42.3271 31.9225 42.1392C31.9732 41.9513 32.0627 41.776 32.1852 41.6245C32.3077 41.4731 32.4605 41.3488 32.6339 41.2595L33.5475 40.7872C33.7858 40.6639 33.9836 40.475 34.1176 40.243C34.2515 40.0109 34.316 39.7454 34.3033 39.478L34.2535 38.4505C34.2453 38.2568 34.2775 38.0635 34.348 37.8828C34.4186 37.7022 34.526 37.5381 34.6634 37.401C34.8008 37.2639 34.9653 37.1568 35.1463 37.0864C35.3274 37.016 35.5212 36.9839 35.7153 36.9921L36.7453 37.0418C37.0134 37.0545 37.2795 36.9902 37.5121 36.8565C37.7447 36.7229 37.934 36.5255 38.0576 36.2878L38.531 35.3763C38.6205 35.2034 38.7451 35.051 38.897 34.9288C39.0488 34.8066 39.2245 34.7173 39.4128 34.6666C39.6012 34.6159 39.798 34.605 39.9908 34.6344C40.1837 34.6639 40.3682 34.7331 40.5327 34.8377L41.3633 35.3929C41.6001 35.5387 41.8749 35.611 42.1529 35.6007C42.4309 35.5904 42.6996 35.4979 42.9248 35.3349Z" fill="#FFC61A"/>
<path d="M42.1688 51.2857C45.7468 51.2857 48.6473 48.3921 48.6473 44.8226C48.6473 41.253 45.7468 38.3594 42.1688 38.3594C38.5907 38.3594 35.6902 41.253 35.6902 44.8226C35.6902 48.3921 38.5907 51.2857 42.1688 51.2857Z" stroke="white" stroke-width="2.15" stroke-miterlimit="10"/>
<path d="M51.0977 134.404H5.48194C5.0324 134.404 4.66797 134.767 4.66797 135.216V144.14C4.66797 144.588 5.0324 144.952 5.48194 144.952H51.0977C51.5473 144.952 51.9117 144.588 51.9117 144.14V135.216C51.9117 134.767 51.5473 134.404 51.0977 134.404Z" fill="white" stroke="#029D41" stroke-miterlimit="10"/>
<path d="M14.3622 144.42V137.002H16.8687C17.4507 137.002 17.9264 137.107 18.2958 137.317C18.6677 137.525 18.943 137.806 19.1217 138.161C19.3004 138.516 19.3897 138.912 19.3897 139.349C19.3897 139.786 19.3004 140.184 19.1217 140.541C18.9454 140.898 18.6725 141.183 18.3031 141.396C17.9336 141.606 17.4603 141.711 16.8832 141.711H15.0866V140.914H16.8542C17.2526 140.914 17.5726 140.845 17.8141 140.708C18.0556 140.57 18.2306 140.384 18.3393 140.15C18.4504 139.913 18.5059 139.646 18.5059 139.349C18.5059 139.052 18.4504 138.787 18.3393 138.553C18.2306 138.318 18.0544 138.135 17.8105 138.002C17.5666 137.867 17.243 137.799 16.8397 137.799H15.2605V144.42H14.3622ZM20.384 144.42H19.4422L22.1661 137.002H23.0934L25.8172 144.42H24.8755L22.6587 138.176H22.6008L20.384 144.42ZM20.7317 141.523H24.5278V142.32H20.7317V141.523ZM27.4798 143.471C27.3011 143.471 27.1478 143.407 27.0198 143.279C26.8918 143.151 26.8278 142.998 26.8278 142.819C26.8278 142.641 26.8918 142.487 27.0198 142.359C27.1478 142.231 27.3011 142.167 27.4798 142.167C27.6585 142.167 27.8118 142.231 27.9398 142.359C28.0678 142.487 28.1318 142.641 28.1318 142.819C28.1318 142.938 28.1016 143.046 28.0412 143.145C27.9833 143.244 27.9048 143.324 27.8058 143.384C27.7092 143.442 27.6005 143.471 27.4798 143.471ZM27.4798 139.719C27.3011 139.719 27.1478 139.655 27.0198 139.527C26.8918 139.399 26.8278 139.246 26.8278 139.067C26.8278 138.888 26.8918 138.735 27.0198 138.607C27.1478 138.479 27.3011 138.415 27.4798 138.415C27.6585 138.415 27.8118 138.479 27.9398 138.607C28.0678 138.735 28.1318 138.888 28.1318 139.067C28.1318 139.185 28.1016 139.294 28.0412 139.393C27.9833 139.492 27.9048 139.572 27.8058 139.632C27.7092 139.69 27.6005 139.719 27.4798 139.719ZM16.7383 156.522C16.2602 156.522 15.834 156.44 15.4597 156.276C15.0878 156.111 14.792 155.883 14.5722 155.591C14.3549 155.296 14.2366 154.955 14.2173 154.566H15.1301C15.1494 154.805 15.2315 155.011 15.3764 155.185C15.5213 155.357 15.7108 155.49 15.945 155.584C16.1793 155.678 16.4389 155.725 16.7238 155.725C17.0426 155.725 17.3251 155.669 17.5714 155.558C17.8177 155.447 18.0109 155.293 18.1509 155.095C18.291 154.897 18.361 154.667 18.361 154.406C18.361 154.134 18.2934 153.893 18.1582 153.686C18.023 153.476 17.8249 153.311 17.5642 153.193C17.3034 153.075 16.9846 153.016 16.6079 153.016H16.0139V152.219H16.6079C16.9025 152.219 17.1609 152.166 17.383 152.059C17.6076 151.953 17.7827 151.803 17.9083 151.61C18.0362 151.417 18.1002 151.19 18.1002 150.929C18.1002 150.678 18.0447 150.46 17.9336 150.274C17.8225 150.088 17.6656 149.943 17.4627 149.839C17.2623 149.735 17.0257 149.683 16.7528 149.683C16.4968 149.683 16.2553 149.73 16.0284 149.824C15.8038 149.916 15.6203 150.05 15.4778 150.227C15.3353 150.4 15.258 150.61 15.246 150.857H14.3767C14.3911 150.468 14.5083 150.128 14.728 149.835C14.9477 149.541 15.2351 149.311 15.5901 149.147C15.9475 148.983 16.3399 148.901 16.7673 148.901C17.2261 148.901 17.6197 148.994 17.9481 149.18C18.2765 149.363 18.5289 149.606 18.7051 149.908C18.8814 150.21 18.9695 150.536 18.9695 150.886C18.9695 151.304 18.8597 151.66 18.6399 151.954C18.4226 152.249 18.1268 152.453 17.7525 152.566V152.624C18.221 152.702 18.5868 152.901 18.85 153.222C19.1132 153.541 19.2448 153.936 19.2448 154.406C19.2448 154.81 19.135 155.172 18.9152 155.493C18.6979 155.812 18.4009 156.063 18.0242 156.247C17.6475 156.43 17.2188 156.522 16.7383 156.522ZM21.1347 156.478C20.956 156.478 20.8027 156.414 20.6747 156.286C20.5467 156.158 20.4827 156.005 20.4827 155.826C20.4827 155.648 20.5467 155.494 20.6747 155.366C20.8027 155.238 20.956 155.174 21.1347 155.174C21.3134 155.174 21.4667 155.238 21.5947 155.366C21.7227 155.494 21.7867 155.648 21.7867 155.826C21.7867 155.945 21.7565 156.053 21.6961 156.152C21.6382 156.251 21.5597 156.331 21.4607 156.391C21.3641 156.449 21.2554 156.478 21.1347 156.478ZM23.1323 154.899V154.16L26.3923 149.002H26.9283V150.147H26.5661L24.1031 154.044V154.102H28.4931V154.899H23.1323ZM26.6241 156.42V154.675V154.33V149.002H27.4789V156.42H26.6241ZM33.0525 152.313V153.11H29.807V152.313H33.0525ZM34.3683 154.899V154.16L37.6282 149.002H38.1643V150.147H37.8021L35.339 154.044V154.102H39.729V154.899H34.3683ZM37.86 156.42V154.675V154.33V149.002H38.7148V156.42H37.86ZM41.3753 156.478C41.1966 156.478 41.0433 156.414 40.9153 156.286C40.7873 156.158 40.7233 156.005 40.7233 155.826C40.7233 155.648 40.7873 155.494 40.9153 155.366C41.0433 155.238 41.1966 155.174 41.3753 155.174C41.554 155.174 41.7074 155.238 41.8353 155.366C41.9633 155.494 42.0273 155.648 42.0273 155.826C42.0273 155.945 41.9971 156.053 41.9368 156.152C41.8788 156.251 41.8003 156.331 41.7013 156.391C41.6047 156.449 41.4961 156.478 41.3753 156.478ZM45.7074 156.522C45.1617 156.522 44.6968 156.373 44.3129 156.076C43.9289 155.777 43.6355 155.343 43.4327 154.776C43.2299 154.206 43.1284 153.518 43.1284 152.711C43.1284 151.91 43.2299 151.225 43.4327 150.658C43.638 150.088 43.9326 149.653 44.3165 149.354C44.7029 149.052 45.1665 148.901 45.7074 148.901C46.2483 148.901 46.7108 149.052 47.0947 149.354C47.4811 149.653 47.7757 150.088 47.9785 150.658C48.1838 151.225 48.2864 151.91 48.2864 152.711C48.2864 153.518 48.185 154.206 47.9821 154.776C47.7793 155.343 47.4859 155.777 47.102 156.076C46.718 156.373 46.2532 156.522 45.7074 156.522ZM45.7074 155.725C46.2483 155.725 46.6685 155.464 46.9679 154.943C47.2674 154.421 47.4171 153.677 47.4171 152.711C47.4171 152.069 47.3483 151.522 47.2106 151.07C47.0754 150.619 46.8798 150.275 46.6238 150.038C46.3703 149.802 46.0648 149.683 45.7074 149.683C45.1713 149.683 44.7524 149.948 44.4505 150.476C44.1487 151.003 43.9978 151.748 43.9978 152.711C43.9978 153.354 44.0654 153.899 44.2006 154.349C44.3358 154.798 44.5302 155.139 44.7838 155.374C45.0397 155.608 45.3476 155.725 45.7074 155.725Z" fill="#029D41"/>
<path d="M19.959 96.7766H4.54333C4.21306 96.7766 3.94531 97.0436 3.94531 97.373V98.3504C3.94531 98.6798 4.21306 98.9468 4.54333 98.9468H19.959C20.2893 98.9468 20.557 98.6798 20.557 98.3504V97.373C20.557 97.0436 20.2893 96.7766 19.959 96.7766Z" fill="white"/>
<path d="M31.2217 96.7766H25.3578C25.0275 96.7766 24.7598 97.0436 24.7598 97.373V98.3504C24.7598 98.6798 25.0275 98.9468 25.3578 98.9468H31.2217C31.552 98.9468 31.8198 98.6798 31.8198 98.3504V97.373C31.8198 97.0436 31.552 96.7766 31.2217 96.7766Z" fill="white"/>
<path d="M41.6041 96.7766H35.7401C35.4098 96.7766 35.1421 97.0436 35.1421 97.373V98.3504C35.1421 98.6798 35.4098 98.9468 35.7401 98.9468H41.6041C41.9343 98.9468 42.2021 98.6798 42.2021 98.3504V97.373C42.2021 97.0436 41.9343 96.7766 41.6041 96.7766Z" fill="white"/>
<path d="M51.9864 96.7766H46.1224C45.7922 96.7766 45.5244 97.0436 45.5244 97.373V98.3504C45.5244 98.6798 45.7922 98.9468 46.1224 98.9468H51.9864C52.3167 98.9468 52.5844 98.6798 52.5844 98.3504V97.373C52.5844 97.0436 52.3167 96.7766 51.9864 96.7766Z" fill="white"/>
<path d="M19.959 102.734H4.54333C4.21306 102.734 3.94531 103.001 3.94531 103.331V104.308C3.94531 104.637 4.21306 104.904 4.54333 104.904H19.959C20.2893 104.904 20.557 104.637 20.557 104.308V103.331C20.557 103.001 20.2893 102.734 19.959 102.734Z" fill="white"/>
<path d="M31.2217 102.734H25.3578C25.0275 102.734 24.7598 103.001 24.7598 103.331V104.308C24.7598 104.637 25.0275 104.904 25.3578 104.904H31.2217C31.552 104.904 31.8198 104.637 31.8198 104.308V103.331C31.8198 103.001 31.552 102.734 31.2217 102.734Z" fill="white"/>
<path d="M41.6041 102.734H35.7401C35.4098 102.734 35.1421 103.001 35.1421 103.331V104.308C35.1421 104.637 35.4098 104.904 35.7401 104.904H41.6041C41.9343 104.904 42.2021 104.637 42.2021 104.308V103.331C42.2021 103.001 41.9343 102.734 41.6041 102.734Z" fill="white"/>
<path d="M51.9864 102.734H46.1224C45.7922 102.734 45.5244 103.001 45.5244 103.331V104.308C45.5244 104.637 45.7922 104.904 46.1224 104.904H51.9864C52.3167 104.904 52.5844 104.637 52.5844 104.308V103.331C52.5844 103.001 52.3167 102.734 51.9864 102.734Z" fill="white"/>
<path d="M19.959 108.684H4.54333C4.21306 108.684 3.94531 108.951 3.94531 109.28V110.257C3.94531 110.587 4.21306 110.854 4.54333 110.854H19.959C20.2893 110.854 20.557 110.587 20.557 110.257V109.28C20.557 108.951 20.2893 108.684 19.959 108.684Z" fill="white"/>
<path d="M31.2217 108.684H25.3578C25.0275 108.684 24.7598 108.951 24.7598 109.28V110.257C24.7598 110.587 25.0275 110.854 25.3578 110.854H31.2217C31.552 110.854 31.8198 110.587 31.8198 110.257V109.28C31.8198 108.951 31.552 108.684 31.2217 108.684Z" fill="white"/>
<path d="M41.6041 108.684H35.7401C35.4098 108.684 35.1421 108.951 35.1421 109.28V110.257C35.1421 110.587 35.4098 110.854 35.7401 110.854H41.6041C41.9343 110.854 42.2021 110.587 42.2021 110.257V109.28C42.2021 108.951 41.9343 108.684 41.6041 108.684Z" fill="white"/>
<path d="M51.9864 108.684H46.1224C45.7922 108.684 45.5244 108.951 45.5244 109.28V110.257C45.5244 110.587 45.7922 110.854 46.1224 110.854H51.9864C52.3167 110.854 52.5844 110.587 52.5844 110.257V109.28C52.5844 108.951 52.3167 108.684 51.9864 108.684Z" fill="white"/>
<path d="M19.959 114.641H4.54333C4.21306 114.641 3.94531 114.908 3.94531 115.238V116.215C3.94531 116.545 4.21306 116.812 4.54333 116.812H19.959C20.2893 116.812 20.557 116.545 20.557 116.215V115.238C20.557 114.908 20.2893 114.641 19.959 114.641Z" fill="white"/>
<path d="M31.2217 114.641H25.3578C25.0275 114.641 24.7598 114.908 24.7598 115.238V116.215C24.7598 116.545 25.0275 116.812 25.3578 116.812H31.2217C31.552 116.812 31.8198 116.545 31.8198 116.215V115.238C31.8198 114.908 31.552 114.641 31.2217 114.641Z" fill="white"/>
<path d="M41.6041 114.641H35.7401C35.4098 114.641 35.1421 114.908 35.1421 115.238V116.215C35.1421 116.545 35.4098 116.812 35.7401 116.812H41.6041C41.9343 116.812 42.2021 116.545 42.2021 116.215V115.238C42.2021 114.908 41.9343 114.641 41.6041 114.641Z" fill="white"/>
<path d="M51.9864 114.641H46.1224C45.7922 114.641 45.5244 114.908 45.5244 115.238V116.215C45.5244 116.545 45.7922 116.812 46.1224 116.812H51.9864C52.3167 116.812 52.5844 116.545 52.5844 116.215V115.238C52.5844 114.908 52.3167 114.641 51.9864 114.641Z" fill="white"/>
<path d="M19.959 120.599H4.54333C4.21306 120.599 3.94531 120.866 3.94531 121.196V122.173C3.94531 122.502 4.21306 122.769 4.54333 122.769H19.959C20.2893 122.769 20.557 122.502 20.557 122.173V121.196C20.557 120.866 20.2893 120.599 19.959 120.599Z" fill="white"/>
<path d="M31.2217 120.599H25.3578C25.0275 120.599 24.7598 120.866 24.7598 121.196V122.173C24.7598 122.502 25.0275 122.769 25.3578 122.769H31.2217C31.552 122.769 31.8198 122.502 31.8198 122.173V121.196C31.8198 120.866 31.552 120.599 31.2217 120.599Z" fill="white"/>
<path d="M41.6041 120.599H35.7401C35.4098 120.599 35.1421 120.866 35.1421 121.196V122.173C35.1421 122.502 35.4098 122.769 35.7401 122.769H41.6041C41.9343 122.769 42.2021 122.502 42.2021 122.173V121.196C42.2021 120.866 41.9343 120.599 41.6041 120.599Z" fill="white"/>
<path d="M51.9864 120.599H46.1224C45.7922 120.599 45.5244 120.866 45.5244 121.196V122.173C45.5244 122.502 45.7922 122.769 46.1224 122.769H51.9864C52.3167 122.769 52.5844 122.502 52.5844 122.173V121.196C52.5844 120.866 52.3167 120.599 51.9864 120.599Z" fill="white"/>
<path d="M19.959 126.557H4.54333C4.21306 126.557 3.94531 126.824 3.94531 127.153V128.131C3.94531 128.46 4.21306 128.727 4.54333 128.727H19.959C20.2893 128.727 20.557 128.46 20.557 128.131V127.153C20.557 126.824 20.2893 126.557 19.959 126.557Z" fill="white"/>
<path d="M31.2217 126.557H25.3578C25.0275 126.557 24.7598 126.824 24.7598 127.153V128.131C24.7598 128.46 25.0275 128.727 25.3578 128.727H31.2217C31.552 128.727 31.8198 128.46 31.8198 128.131V127.153C31.8198 126.824 31.552 126.557 31.2217 126.557Z" fill="white"/>
<path d="M41.6041 126.557H35.7401C35.4098 126.557 35.1421 126.824 35.1421 127.153V128.131C35.1421 128.46 35.4098 128.727 35.7401 128.727H41.6041C41.9343 128.727 42.2021 128.46 42.2021 128.131V127.153C42.2021 126.824 41.9343 126.557 41.6041 126.557Z" fill="white"/>
<path d="M51.9864 126.557H46.1224C45.7922 126.557 45.5244 126.824 45.5244 127.153V128.131C45.5244 128.46 45.7922 128.727 46.1224 128.727H51.9864C52.3167 128.727 52.5844 128.46 52.5844 128.131V127.153C52.5844 126.824 52.3167 126.557 51.9864 126.557Z" fill="white"/>
<path d="M105.808 236.845L105.742 237.268C105.224 240.677 106.043 244.155 108.027 246.978C110.011 249.802 113.009 251.755 116.398 252.432C128.641 254.876 147.811 258.63 164.639 261.629C191.932 266.51 192.596 247.642 194.806 233.199C199.723 221.383 211.899 194.255 212.572 181.991C213.237 170.034 212.431 159.005 201.675 155.194C194.424 152.675 166.765 139.748 163.692 135.423L153.127 152.509C152.472 153.539 151.557 154.377 150.473 154.94C149.389 155.503 148.175 155.77 146.955 155.715C145.734 155.659 144.549 155.283 143.521 154.624C142.493 153.965 141.658 153.047 141.1 151.962C138.733 147.421 136 142.69 133.816 140.511C133.81 140.606 133.77 140.695 133.702 140.762C133.635 140.829 133.545 140.869 133.45 140.875C129.297 146.51 96.1321 159.933 93.5822 168.659C91.73 174.981 86.0488 209.435 105.808 236.845Z" fill="#4F6DDB"/>
<path d="M134.513 130.659C135.427 133.02 137.429 135.564 133.783 140.834C135.967 143.195 138.882 148.101 141.258 152.65C141.807 153.686 142.618 154.562 143.61 155.19C144.602 155.818 145.742 156.178 146.915 156.233C148.089 156.288 149.257 156.037 150.304 155.505C151.351 154.972 152.241 154.177 152.886 153.197L166.366 138.108C164.748 136.623 163.285 134.98 161.998 133.202C158.467 127.841 155.822 121.95 154.165 115.752C158.318 114.658 162.546 111.609 163.302 108.12C164.215 103.977 162.022 97.2157 157.288 96.8511C148.907 96.4865 147.089 97.2157 144.713 87.2144C142.338 77.213 118.658 88.6644 118.658 88.6644C118.658 88.6644 118.018 98.8067 118.658 101.781C119.488 105.394 119.355 112.794 119.364 116.473C119.405 122.016 123.948 133.028 134.513 130.659Z" fill="#FEC2A0"/>
<path d="M135.975 109.347C136.778 109.347 137.429 108.044 137.429 106.438C137.429 104.832 136.778 103.53 135.975 103.53C135.172 103.53 134.522 104.832 134.522 106.438C134.522 108.044 135.172 109.347 135.975 109.347Z" fill="#303134"/>
<path d="M123.201 109.164C123.907 109.164 124.48 107.944 124.48 106.438C124.48 104.932 123.907 103.712 123.201 103.712C122.495 103.712 121.922 104.932 121.922 106.438C121.922 107.944 122.495 109.164 123.201 109.164Z" fill="#303134"/>
<path d="M127.794 111.393C125.61 113.39 125.61 118.122 129.455 116.299" stroke="#303134" stroke-width="0.99" stroke-miterlimit="10" stroke-linecap="round"/>
<path d="M134.513 130.658C134.513 130.658 139.431 129.001 140.892 125.024C140.892 130.658 135.793 134.139 135.793 134.139L134.513 130.658Z" fill="#F99979"/>
<path d="M165.727 87.7197C159.697 76.6991 142.122 74.8679 133.425 74.4619C123.201 73.9978 120.294 73.4178 120.31 84.6289C120.31 88.3411 117.943 87.902 115.476 91.1998C116.268 94.8056 117.343 98.3436 118.691 101.781C118.589 97.902 119.328 94.0465 120.859 90.4789C121.407 88.8217 124.181 91.697 128.89 91.8876C133.6 92.0782 144.223 90.9098 144.406 91.8213L145.876 103.737C146.706 109.537 150.378 111.385 150.378 111.385C150.378 111.385 151.034 99.4114 157.33 100.613C165.561 102.229 163.493 112.81 154.007 115.528C154.864 118.981 156.086 122.334 157.653 125.529C157.653 125.529 166.4 116.663 167.471 99.1048C164.639 92.6831 167.438 90.8435 165.727 87.7197Z" fill="#029D41"/>
<path d="M126.814 122.853C126.814 122.853 131.465 125.032 133.758 120.641" stroke="#303134" stroke-width="0.99" stroke-miterlimit="10" stroke-linecap="round"/>
<path d="M133.01 101.226C133.931 100.744 134.961 100.508 136 100.541C137.04 100.574 138.053 100.876 138.94 101.416" stroke="#303134" stroke-width="0.99" stroke-miterlimit="10" stroke-linecap="round"/>
<path d="M125.169 101.499C125.169 101.499 122.586 98.6829 120.227 101.226" stroke="#303134" stroke-width="0.99" stroke-miterlimit="10" stroke-linecap="round"/>
<path d="M73.1166 166.397C72.5352 162.635 67.5101 158.773 62.0199 154.796C56.5298 150.819 53.8221 150.438 49.9598 147.595C46.0976 144.753 45.4165 145.797 45.3169 147.653C45.2172 149.509 47.3269 151.523 49.2787 152.741C51.2306 153.959 54.7523 155.583 54.9184 156.37C55.0845 157.158 52.6509 158.541 47.9249 156.785C43.1989 155.028 41.3633 153.354 39.1705 150.222C36.9778 147.09 35.2169 144.231 33.1986 145.002C31.1803 145.772 32.9079 147.488 32.9079 147.488C32.9079 147.488 31.471 147.38 32.5175 149.393C33.5526 151.285 34.4492 153.248 35.2003 155.268C36.1389 157.804 36.0309 158.641 36.8033 159.643C37.5758 160.646 41.9945 164.822 43.4979 166.148C45.0012 167.474 48.4149 169.562 49.7688 170.689C51.1226 171.816 54.038 172.86 56.0896 173.448C58.1411 174.036 63.4569 173.572 64.6446 175.511C65.0599 176.191 71.4969 192.912 79.1217 209.136L90.4343 190.252C81.7713 179.157 73.4073 168.302 73.1166 166.397Z" fill="#FEC2A0"/>
<path d="M32.9077 147.471C33.6281 147.347 34.369 147.421 35.0498 147.687C35.7307 147.953 36.3256 148.4 36.7699 148.979C37.5889 149.984 38.1429 151.178 38.3813 152.451" stroke="#F99055" stroke-width="0.88" stroke-miterlimit="10"/>
<path d="M45.7487 167.234C45.8068 167.051 40.9479 161.218 39.2037 158.119C37.4594 155.02 35.8813 154.233 37.4511 152.741C39.0209 151.25 41.7702 155.003 42.8333 156.536C43.8965 158.069 45.3251 161.019 47.1524 162.104C48.9797 163.19 50.0345 163.985 50.0345 163.985" stroke="#F99055" stroke-width="0.88" stroke-miterlimit="10"/>
<path d="M59.5281 164.325C60.1012 164.325 64.1794 162.188 68.3323 165.89" stroke="#F99055" stroke-width="0.88" stroke-miterlimit="10"/>
<path d="M239.915 121.56C240.23 119.563 239.915 117.674 238.345 117.227C236.775 116.779 235.023 116.1 235.214 113.672C235.214 113.266 235.272 112.711 235.305 112.098C235.49 107.166 236.719 102.329 238.91 97.9035C240.995 93.7605 239.483 91.6558 237.249 92.9318C235.629 94.1085 233.453 96.2463 231.692 102.279C230.897 105.133 230.275 108.033 229.832 110.962C229.533 112.752 229.308 114.003 229.001 114.277C228.278 114.981 227.539 114.459 225.338 116.763C223.137 119.066 216.708 124.817 216.55 125.811C216.301 127.41 217.68 129.051 219.873 128.164C217.265 130.41 216.285 131.479 217.863 133.136C219.64 134.843 221.551 133.136 221.551 133.136C221.551 133.136 222.473 135.117 223.212 136.873C224.267 139.284 224.707 140.378 224.798 142.433C224.89 144.488 223.212 149.949 221.476 153.155C220.363 155.302 192.571 218.425 192.571 218.425C189.656 225.551 190.495 237.939 197.489 241.196C203.178 243.839 212.339 243.342 216.7 237.798C231.36 219.188 240.787 140.975 241.103 137.635C241.767 130.451 244.143 122.016 239.915 121.56Z" fill="#FEC2A0"/>
<path d="M220.363 122.165C220.363 122.165 217.04 115.926 219.532 114.476C222.024 113.026 224.217 117.251 224.516 117.707L220.363 122.165Z" fill="#FEC2A0"/>
<path d="M220.521 127.734L227.971 120.723L235.081 119.787" fill="#FEC2A0"/>
<path d="M220.521 127.734L227.971 120.723L235.081 119.787" stroke="#F99979" stroke-width="1.58" stroke-miterlimit="10" stroke-linecap="round"/>
<path d="M221.335 132.937C221.335 132.937 229.275 125.389 230.106 125.314C230.936 125.239 236.219 124.22 236.219 124.22" fill="#FEC2A0"/>
<path d="M221.335 132.937C221.335 132.937 229.275 125.389 230.106 125.314C230.936 125.239 236.219 124.22 236.219 124.22" stroke="#F99979" stroke-width="1.58" stroke-miterlimit="10" stroke-linecap="round"/>
<path d="M224.2 139.566C224.2 139.566 230.961 143.477 234.167 143.983C232.631 144.52 230.981 144.65 229.379 144.359C227.778 144.069 226.279 143.368 225.031 142.325L224.2 139.566Z" fill="#F99979"/>
<path d="M224.001 132.937C224.001 132.937 228.918 129.01 231.318 129.382C232.865 129.471 234.415 129.298 235.903 128.869" fill="#FEC2A0"/>
<path d="M224.001 132.937C224.001 132.937 228.918 129.01 231.318 129.382C232.865 129.471 234.415 129.298 235.903 128.869" stroke="#F99979" stroke-width="1.58" stroke-miterlimit="10" stroke-linecap="round"/>
<path d="M130.41 92.6831C130.41 92.6831 121.174 79.1021 132.288 73.4675" stroke="#1D1D1F" stroke-width="1.42" stroke-miterlimit="10"/>
<path d="M126.424 92.4181C126.424 92.4181 114.33 81.5799 125.593 72.6392" stroke="#1D1D1F" stroke-width="1.42" stroke-miterlimit="10"/>
<path d="M146.615 158.55L143.168 166.33C143.168 166.33 130.385 154.904 126.814 145.847C130.286 142.897 133.592 139.856 133.592 139.856C133.592 139.856 140.054 154.059 143.168 152.012L146.615 158.55Z" fill="#8698DB"/>
<path d="M158.335 151.995L154.888 158.533H146.582L143.168 151.995C143.5 151.763 143.999 150.744 144.406 150.512C146.898 149.021 150.22 148.391 150.685 148.192H150.743H150.801C151.266 148.391 157.114 150.454 157.122 150.454C157.579 150.719 157.969 151.755 158.335 151.995Z" fill="#FE3737"/>
<path d="M174.224 142.416C174.124 144.637 173.626 145.83 172.363 149.045C168.792 158.102 158.335 166.338 158.335 166.338L154.888 158.558L158.335 152.02C160.259 153.306 162.116 154.689 163.9 156.163C163.9 156.163 171.998 146.551 168.675 137.967C170.287 139.723 172.158 141.223 174.224 142.416Z" fill="#8698DB"/>
<path d="M158.335 166.339L150.751 177.011L143.177 166.339L146.623 158.55H154.888L158.335 166.339Z" fill="#FE3737"/>
<path d="M150.751 148.175H150.693C148.418 148.924 146.254 149.972 144.256 151.291C143.866 151.523 143.5 151.755 143.168 151.987C141.243 153.257 139.386 154.626 137.603 156.089C137.603 156.089 130.635 149.145 131.847 141.439C131.966 140.701 132.309 140.019 132.831 139.483C133.353 138.948 134.027 138.586 134.763 138.447L135.178 138.381C135.56 141.704 142.479 144.877 150.751 148.175Z" fill="white"/>
<path d="M163.9 156.138C162.116 154.664 160.259 153.282 158.335 151.995C157.969 151.741 157.565 151.484 157.122 151.225C155.17 149.943 153.056 148.926 150.835 148.2H150.776C159.265 144.82 163.351 141.389 165.32 138.912L164.107 135.705L164.498 135.647C165.35 135.504 166.226 135.655 166.981 136.076C167.736 136.496 168.325 137.16 168.651 137.959C171.998 146.551 163.9 156.138 163.9 156.138Z" fill="white"/>
<path d="M118.616 75.3319L100.484 70.9237L121.399 59.2568L185.802 75.4231L163.825 83.7506L118.616 75.3319Z" fill="#4F6DDB"/>
<path d="M125.269 97.1909L115.468 91.2083L119.156 70.6338C129.698 69.8729 140.293 70.9411 150.469 73.7908C164.963 77.8179 167.471 80.8092 167.471 80.8092V98.9641C167.471 98.9641 140.759 89.4682 125.269 97.1909Z" fill="#5F7CE8"/>
<path d="M82.0537 172.943L62.9502 197.238L79.0303 238.56C80.6774 242.093 83.1981 245.15 86.3555 247.443C89.5129 249.736 93.2031 251.191 97.079 251.669L132.985 255.704L82.0537 172.943Z" fill="#4F6DDB"/>
<path d="M220.081 152.153L246.352 166.339L218.511 246.93C215.097 257.362 204.947 262.019 194.025 263.32C185.188 264.372 167.446 262.068 167.446 262.068L220.081 152.153Z" fill="#4F6DDB"/>
<path d="M174.224 77.271V109.347" stroke="#5F7CE8" stroke-width="1.58" stroke-miterlimit="10"/>
<path d="M172.455 106.927H176.109L177.073 116.597L171.358 116.589L172.455 106.927Z" fill="#5F7CE8"/>
<path d="M304.958 200.096H251.394C249.449 200.096 247.872 201.669 247.872 203.61V271.987C247.872 273.927 249.449 275.5 251.394 275.5H304.958C306.903 275.5 308.48 273.927 308.48 271.987V203.61C308.48 201.669 306.903 200.096 304.958 200.096Z" fill="#FFC61A"/>
<path d="M274.069 205.449H253.03V225.336H274.069V205.449Z" fill="#535357"/>
<path d="M274.069 205.449H253.03V225.336H274.069V205.449Z" fill="white"/>
<mask id="mask1_1007_23484" style="mask-type:luminance" maskUnits="userSpaceOnUse" x="253" y="205" width="22" height="21">
<path d="M274.069 205.449H253.03V225.336H274.069V205.449Z" fill="white"/>
</mask>
<g mask="url(#mask1_1007_23484)">
<path d="M261.643 222.228C261.8 222.756 261.828 223.313 261.725 223.853C261.623 224.394 261.392 224.902 261.053 225.336C261.593 225.924 270.813 225.543 270.813 225.543C270.447 225.228 269.359 223.935 268.479 222.866C267.603 221.535 266.947 220.071 266.535 218.533C267.041 218.431 267.513 218.204 267.908 217.872C268.303 217.541 268.608 217.115 268.794 216.635C269.019 215.599 268.479 213.926 267.299 213.834C265.214 213.743 264.766 213.926 264.176 211.44C263.586 208.954 257.706 211.804 257.706 211.804C257.622 212.888 257.622 213.977 257.706 215.061C257.862 216.269 257.92 217.489 257.88 218.707C257.897 220.082 259.018 222.817 261.643 222.228Z" fill="#FEC2A0"/>
<path d="M262.009 216.933C262.211 216.933 262.374 216.61 262.374 216.212C262.374 215.814 262.211 215.492 262.009 215.492C261.807 215.492 261.643 215.814 261.643 216.212C261.643 216.61 261.807 216.933 262.009 216.933Z" fill="#303134"/>
<path d="M258.836 216.891C259.01 216.891 259.151 216.587 259.151 216.212C259.151 215.837 259.01 215.533 258.836 215.533C258.661 215.533 258.52 215.837 258.52 216.212C258.52 216.587 258.661 216.891 258.836 216.891Z" fill="#303134"/>
<path d="M259.974 217.455C259.434 217.952 259.433 219.112 260.381 218.673" stroke="#303134" stroke-width="0.25" stroke-miterlimit="10" stroke-linecap="round"/>
<path d="M261.643 222.228C261.987 222.111 262.304 221.927 262.577 221.686C262.849 221.446 263.071 221.154 263.229 220.828C263.198 221.274 263.068 221.707 262.848 222.097C262.628 222.487 262.325 222.823 261.958 223.081L261.643 222.228Z" fill="#F99979"/>
<path d="M268.794 209.791C267.407 207.612 263.62 207.612 261.46 207.52C258.919 207.404 256.369 207.106 256.369 209.89C256.369 210.81 257.457 211.324 256.917 212.434C256.377 213.544 257.432 214.315 257.747 215.061C257.722 214.097 257.906 213.138 258.287 212.252C258.42 211.846 259.118 212.55 260.281 212.6C261.444 212.649 264.085 212.359 264.135 212.6L264.5 215.558C264.528 215.939 264.644 216.308 264.839 216.637C265.033 216.966 265.301 217.246 265.621 217.455C265.621 217.455 265.788 214.481 267.349 214.787C269.392 215.185 268.877 217.82 266.518 218.491C266.731 219.35 267.034 220.183 267.424 220.977C267.424 220.977 269.6 217.356 269.916 214.994C270.109 214.097 270.109 213.169 269.916 212.272C269.723 211.375 269.34 210.529 268.794 209.791Z" fill="#029D41"/>
<path d="M259.732 220.289C260.035 220.441 260.385 220.469 260.708 220.367C261.031 220.265 261.301 220.041 261.46 219.742" stroke="#303134" stroke-width="0.25" stroke-miterlimit="10" stroke-linecap="round"/>
<path d="M261.269 214.912C261.498 214.793 261.753 214.735 262.011 214.744C262.268 214.752 262.519 214.827 262.739 214.962" stroke="#303134" stroke-width="0.25" stroke-miterlimit="10" stroke-linecap="round"/>
<path d="M259.325 214.971C259.325 214.971 258.686 214.272 258.096 214.904" stroke="#303134" stroke-width="0.25" stroke-miterlimit="10" stroke-linecap="round"/>
</g>
<path d="M298.961 205.482H284.883C284.254 205.482 283.745 205.99 283.745 206.617V206.625C283.745 207.252 284.254 207.76 284.883 207.76H298.961C299.59 207.76 300.099 207.252 300.099 206.625V206.617C300.099 205.99 299.59 205.482 298.961 205.482Z" fill="white"/>
<path d="M303.629 214.249H277.923C277.294 214.249 276.785 214.757 276.785 215.384V215.392C276.785 216.019 277.294 216.527 277.923 216.527H303.629C304.258 216.527 304.767 216.019 304.767 215.392V215.384C304.767 214.757 304.258 214.249 303.629 214.249Z" fill="white"/>
<path d="M303.629 223.024H277.923C277.294 223.024 276.785 223.532 276.785 224.159V224.167C276.785 224.794 277.294 225.302 277.923 225.302H303.629C304.258 225.302 304.767 224.794 304.767 224.167V224.159C304.767 223.532 304.258 223.024 303.629 223.024Z" fill="white"/>
<path d="M304.044 231.791H254.251C253.622 231.791 253.113 232.299 253.113 232.926V232.934C253.113 233.561 253.622 234.069 254.251 234.069H304.044C304.673 234.069 305.182 233.561 305.182 232.934V232.926C305.182 232.299 304.673 231.791 304.044 231.791Z" fill="white"/>
<path d="M304.044 240.334H254.251C253.622 240.334 253.113 240.842 253.113 241.469V241.477C253.113 242.104 253.622 242.612 254.251 242.612H304.044C304.673 242.612 305.182 242.104 305.182 241.477V241.469C305.182 240.842 304.673 240.334 304.044 240.334Z" fill="white"/>
<path d="M304.044 248.877H254.251C253.622 248.877 253.113 249.385 253.113 250.011V250.02C253.113 250.647 253.622 251.155 254.251 251.155H304.044C304.673 251.155 305.182 250.647 305.182 250.02V250.011C305.182 249.385 304.673 248.877 304.044 248.877Z" fill="white"/>
<path d="M304.044 257.42H254.251C253.622 257.42 253.113 257.928 253.113 258.554V258.563C253.113 259.189 253.622 259.698 254.251 259.698H304.044C304.673 259.698 305.182 259.189 305.182 258.563V258.554C305.182 257.928 304.673 257.42 304.044 257.42Z" fill="white"/>
<path d="M304.044 265.963H254.251C253.622 265.963 253.113 266.471 253.113 267.097V267.106C253.113 267.732 253.622 268.241 254.251 268.241H304.044C304.673 268.241 305.182 267.732 305.182 267.106V267.097C305.182 266.471 304.673 265.963 304.044 265.963Z" fill="white"/>
<path d="M57.2357 200.138H3.14792C1.40937 200.138 0 201.544 0 203.278V257.461C0 259.196 1.40937 260.602 3.14792 260.602H57.2357C58.9743 260.602 60.3836 259.196 60.3836 257.461V203.278C60.3836 201.544 58.9743 200.138 57.2357 200.138Z" fill="#FFC61A"/>
<path d="M54.7106 209.087H13.688C13.0595 209.087 12.55 209.595 12.55 210.221V210.23C12.55 210.856 13.0595 211.365 13.688 211.365H54.7106C55.3391 211.365 55.8485 210.856 55.8485 210.23V210.221C55.8485 209.595 55.3391 209.087 54.7106 209.087Z" fill="white"/>
<path d="M54.7108 217.854H5.38229C4.75384 217.854 4.24438 218.362 4.24438 218.988V218.997C4.24438 219.623 4.75384 220.131 5.38229 220.131H54.7108C55.3393 220.131 55.8487 219.623 55.8487 218.997V218.988C55.8487 218.362 55.3393 217.854 54.7108 217.854Z" fill="white"/>
<path d="M55.1259 226.62H13.6381C13.0097 226.62 12.5002 227.128 12.5002 227.755V227.763C12.5002 228.39 13.0097 228.898 13.6381 228.898H55.1259C55.7544 228.898 56.2638 228.39 56.2638 227.763V227.755C56.2638 227.128 55.7544 226.62 55.1259 226.62Z" fill="white"/>
<path d="M55.1261 235.163H5.33248C4.70404 235.163 4.19458 235.671 4.19458 236.298V236.306C4.19458 236.933 4.70404 237.441 5.33248 237.441H55.1261C55.7546 237.441 56.264 236.933 56.264 236.306V236.298C56.264 235.671 55.7546 235.163 55.1261 235.163Z" fill="white"/>
<path d="M55.1261 243.714H5.33248C4.70404 243.714 4.19458 244.222 4.19458 244.849V244.857C4.19458 245.484 4.70404 245.992 5.33248 245.992H55.1261C55.7546 245.992 56.264 245.484 56.264 244.857V244.849C56.264 244.222 55.7546 243.714 55.1261 243.714Z" fill="white"/>
<path d="M147.819 191.056L138.043 256.682L147.819 258.547V191.056Z" fill="#4964C9"/>
<path d="M194.133 196.641L170.478 247.302" stroke="#4964C9" stroke-width="2" stroke-miterlimit="10"/>
<path d="M101.979 200.138L119.397 240.118" stroke="#4964C9" stroke-width="2" stroke-miterlimit="10"/>
<path d="M232.88 200.096H210.28V222.643H232.88V200.096Z" stroke="#28282A" stroke-width="2" stroke-miterlimit="10" stroke-linecap="round"/>
<path d="M215.67 203.369L221.384 215.865C221.401 215.898 221.426 215.926 221.458 215.945C221.489 215.965 221.526 215.975 221.563 215.975C221.6 215.975 221.636 215.965 221.668 215.945C221.7 215.926 221.725 215.898 221.742 215.865L231.36 191.769" stroke="white" stroke-width="3" stroke-miterlimit="10" stroke-linecap="round"/>
<path d="M98.5573 200.096H75.957V222.643H98.5573V200.096Z" stroke="#28282A" stroke-width="2" stroke-miterlimit="10" stroke-linecap="round"/>
<path d="M81.3477 203.369L87.0621 215.865C87.0786 215.898 87.1041 215.926 87.1356 215.945C87.1672 215.965 87.2035 215.975 87.2407 215.975C87.2778 215.975 87.3142 215.965 87.3457 215.945C87.3773 215.926 87.4027 215.898 87.4192 215.865L97.0374 191.769" stroke="white" stroke-width="3" stroke-miterlimit="10" stroke-linecap="round"/>
</g>
<defs>
<clipPath id="clip0_1007_23484">
<rect width="320" height="275" fill="white" transform="translate(0 0.5)"/>
</clipPath>
</defs>
</svg>
