<svg width="320" height="276" viewBox="0 0 320 276" fill="none" xmlns="http://www.w3.org/2000/svg">
<g clip-path="url(#clip0_1007_24214)">
<path d="M276.469 241.195L271.819 241.83C270.521 242.011 268.183 244.303 267.438 244.757C266.332 245.284 265.146 245.63 263.927 245.779C263.408 245.779 261.632 247.708 260.71 247.667C259.367 247.707 258.029 247.864 256.714 248.137C255.306 248.392 255.197 248.425 255.457 247.519C255.591 247.057 256.295 246.694 257.2 246.397C258.105 246.101 259.236 245.73 260.325 245.227C261.697 244.549 262.916 243.607 263.91 242.456L263.994 242.349C263.994 242.349 266.214 239.876 265.67 239.587C265.125 239.299 264.304 240.239 263.45 240.824C262.595 241.409 260.718 241.475 260.383 240.676C260.048 239.876 261.221 239.291 264.413 237.378C267.605 235.465 268.15 235.416 270.772 235.597C272.562 235.692 274.357 235.62 276.134 235.383C276.658 237.276 276.772 239.256 276.469 241.195Z" fill="#FEC2A0"/>
<path d="M264.346 245.375C264.346 245.375 265.896 245.119 267.965 242.794" stroke="#E3A988" stroke-width="0.26" stroke-miterlimit="10"/>
<path d="M263.919 242.456C262.924 243.607 261.705 244.549 260.333 245.226C259.252 245.729 258.113 246.051 257.208 246.397C256.697 246.224 255.951 245.985 255.65 245.911C255.172 245.787 254.913 245.449 255.357 245.086C255.801 244.724 259.755 244.757 259.755 244.757C259.755 244.757 256.798 244.394 256.831 243.883C256.865 243.371 257.124 243.339 257.61 243.297C258.096 243.256 261.196 243.487 261.598 243.512C260.857 243.449 260.133 243.265 259.453 242.968C259.085 242.638 258.934 242.679 259.16 242.316C259.386 241.953 260.836 242.242 261.673 242.316C262.109 242.357 263.165 242.415 263.919 242.456Z" fill="#F9B995"/>
<path d="M216.148 79.5554L305.967 79.5554C308.063 79.5554 309.762 77.8833 309.762 75.8207V19.8495C309.762 17.7869 308.063 16.1148 305.967 16.1148L216.148 16.1148C214.052 16.1148 212.353 17.7869 212.353 19.8495V75.8207C212.353 77.8833 214.052 79.5554 216.148 79.5554Z" stroke="#28282A" stroke-miterlimit="10"/>
<path d="M198.312 269.886L160.025 267.091L177.836 262.894C188.728 266.357 198.312 269.886 198.312 269.886Z" fill="#F6EECA"/>
<path d="M201.294 164.572C202.032 163.5 202.182 162.642 201.135 162.263C200.088 161.884 195.74 165.627 195.74 165.627L197.759 162.42C198.044 161.958 198.102 160.853 196.729 161.093C195.355 161.332 194.215 163.401 193.118 165.099C192.02 166.798 189.993 168.331 187.949 169.741C185.904 171.151 181.087 172.157 181.003 171.464C180.92 170.771 184.798 167.886 186.198 166.583C187.597 165.281 187.37 163.69 186.901 163.211C186.432 162.733 185.812 162.486 184.472 163.698C182.438 165.266 180.293 166.69 178.054 167.96C174.843 169.931 171.925 172.331 169.383 175.092C167.847 178.165 165.834 180.985 163.418 183.451C152.678 194.004 132.42 212.117 127.05 217.385C114.014 230.172 121.051 241.533 132.026 239.884C144.593 237.988 174.041 186.23 174.385 185.941C175.315 185.174 180.61 183.468 183.282 183.179C185.955 182.891 191.995 179.7 192.665 178.876C193.336 178.051 194.617 175.256 195.279 174.201C195.941 173.146 201.001 167.045 201.521 166.221C202.04 165.396 201.655 164.753 201.294 164.572Z" fill="#FEC2A0"/>
<path d="M188.954 172.915C190.341 172.035 191.615 170.995 192.749 169.815C193.721 168.545 195.706 165.619 195.706 165.619" stroke="#F99979" stroke-width="0.56" stroke-miterlimit="10"/>
<path d="M201.294 164.572C201.294 164.572 200.741 163.986 199.837 164.572C198.932 165.157 195.907 168.974 195.907 168.974" stroke="#F99979" stroke-width="0.56" stroke-miterlimit="10"/>
<path d="M187.052 177.639C188.306 177.385 189.465 176.798 190.403 175.941C191.467 174.861 191.886 174.811 192.464 173.27C193.042 171.728 194.257 168.364 195.815 169.073C197.373 169.782 195.061 173.55 195.061 173.55" stroke="#F99979" stroke-width="0.56" stroke-miterlimit="10"/>
<path d="M233.323 71.2781C230.349 70.6186 203.163 66.9086 200.876 67.362C198.446 67.8567 190.077 69.5056 188.887 70.1074C187.697 70.7093 183.693 74.5759 182.268 76.3154C180.844 78.055 180.258 78.5662 181.062 79.0938C181.866 79.6214 182.738 78.6486 182.738 78.6486C183 78.7328 183.28 78.7498 183.552 78.6979C183.823 78.6459 184.076 78.5268 184.287 78.3518C184.799 78.6651 185.234 78.3518 186.298 77.3295C187.693 76.076 189.286 75.0541 191.015 74.3038C192.456 73.7679 192.95 73.9575 193.168 74.4687C193.319 74.8314 192.866 75.7548 192.28 76.6205L194.056 78.6816L194.131 78.6239C195.279 77.8736 196.645 76.909 197.692 76.8266C198.899 76.572 200.04 76.0752 201.043 75.3673C201.881 74.8479 202.183 74.3945 203.104 74.3533C212.244 73.9493 227.19 84.1971 232.2 84.8072C237.822 85.4914 239.112 82.3338 239.74 79.168C240.369 76.0021 239.313 72.6219 233.323 71.2781Z" fill="#ED9D6F"/>
<path d="M294.355 25.5134C296.248 25.5134 297.782 24.0038 297.782 22.1415C297.782 20.2792 296.248 18.7695 294.355 18.7695C292.463 18.7695 290.929 20.2792 290.929 22.1415C290.929 24.0038 292.463 25.5134 294.355 25.5134Z" fill="#FFC61A"/>
<path d="M303.202 25.5134C305.095 25.5134 306.629 24.0038 306.629 22.1415C306.629 20.2792 305.095 18.7695 303.202 18.7695C301.31 18.7695 299.776 20.2792 299.776 22.1415C299.776 24.0038 301.31 25.5134 303.202 25.5134Z" fill="#FE3737"/>
<path d="M285.341 25.5134C287.233 25.5134 288.767 24.0038 288.767 22.1415C288.767 20.2792 287.233 18.7695 285.341 18.7695C283.448 18.7695 281.914 20.2792 281.914 22.1415C281.914 24.0038 283.448 25.5134 285.341 25.5134Z" fill="#029D41"/>
<path d="M309.762 28.2258H212.353" stroke="#28282A" stroke-miterlimit="10"/>
<path d="M234.353 27.5829C234.133 26.6618 233.78 25.7762 233.306 24.953C232.468 23.7658 247.272 24.2439 247.272 24.2439C247.272 24.2439 245.554 19.1736 249.534 18.1596C253.513 17.1455 255.248 23.5102 251.21 26.0577C251.938 27.5879 252.992 28.9459 254.301 30.0398C261.095 15.3812 252.81 5.39726 249.752 4.07815C244.909 1.99232 225.992 8.70326 227.132 15.4554C228.271 22.2076 233.222 26.9893 234.353 27.5829Z" fill="#029D41"/>
<path d="M244.264 35.8108C245.002 36.7754 246.392 37.6658 245.429 40.6173C248.529 42.3156 244.063 58.9116 252.558 58.9116C261.054 58.9116 259.403 36.0334 259.403 36.0334C259.001 35.7283 252.701 28.6134 251.168 26.0742C251.96 25.5885 252.596 24.8932 253.005 24.068C253.414 23.2427 253.579 22.3208 253.48 21.4078C253.279 19.3302 251.754 17.5989 249.534 18.1595C245.546 19.1736 247.272 24.2439 247.272 24.2439L240.52 16.1067L231.178 21.0533C231.178 21.0533 232.921 24.3511 233.306 24.9282C233.78 25.7514 234.133 26.637 234.353 27.5582C234.708 28.8189 234.988 30.0989 235.191 31.3918C235.543 33.6095 239.698 38.4325 244.264 35.8108Z" fill="#ED9D6F"/>
<path d="M226.671 58.7465L228.531 59.9007L237.445 79.0525L277.851 79.1349L290.778 60.9972C290.778 60.9972 285.802 45.7863 281.914 42.8596C278.924 40.6089 260.651 37.4677 259.118 35.3572C259.118 35.3572 255.114 52.6704 252.558 52.9012C250.003 53.1321 247.674 40.8809 245.747 38.8116C245.697 38.8033 225.59 47.8392 226.671 58.7465Z" fill="#FE3737"/>
<path d="M228.531 59.9092C234.043 63.6027 238.006 65.9441 238.006 65.9441C238.006 65.9441 240.788 82.0619 237.504 83.4387C234.563 84.6671 231.547 85.6729 228.095 80.6521C225.59 76.9668 227.735 68.5493 228.531 59.9092Z" fill="#ED9D6F"/>
<path d="M238.417 22.8671C238.417 22.8671 239.112 22.0426 241.298 22.3065" stroke="#303134" stroke-width="0.48" stroke-miterlimit="10" stroke-linecap="round"/>
<path d="M234.487 24.3098C234.251 24.1554 233.984 24.0521 233.703 24.0066C233.423 23.9611 233.137 23.9746 232.862 24.046" stroke="#303134" stroke-width="0.48" stroke-miterlimit="10" stroke-linecap="round"/>
<path d="M240.82 26.7408C241.2 26.6239 241.312 25.9127 241.071 25.1522C240.829 24.3917 240.325 23.8698 239.946 23.9867C239.566 24.1035 239.454 24.8148 239.695 25.5753C239.937 26.3358 240.441 26.8576 240.82 26.7408Z" fill="#303134"/>
<path d="M235.418 28.2388C235.754 28.1356 235.851 27.5023 235.636 26.8243C235.421 26.1464 234.974 25.6805 234.638 25.7837C234.303 25.887 234.205 26.5203 234.42 27.1982C234.636 27.8762 235.083 28.3421 235.418 28.2388Z" fill="#303134"/>
<path d="M236.867 28.3496C236.163 29.5945 236.867 31.7463 238.35 30.3695" stroke="#303134" stroke-width="0.48" stroke-miterlimit="10" stroke-linecap="round"/>
<path d="M241.181 30.2209C241.181 30.2209 241.508 32.1914 238.609 32.282" stroke="#303134" stroke-width="0.48" stroke-miterlimit="10" stroke-linecap="round"/>
<path d="M244.264 35.8106C244.264 35.8106 246.309 34.3184 246.426 32.2903C247.264 34.8873 245.37 37.2369 245.37 37.2369L244.264 35.8106Z" fill="#CC8760"/>
<path d="M241.725 28.5239C243.178 28.0769 243.988 26.5555 243.534 25.1257C243.079 23.696 241.533 22.8992 240.08 23.3462C238.628 23.7932 237.818 25.3146 238.272 26.7444C238.726 28.1742 240.272 28.9709 241.725 28.5239Z" stroke="#303134" stroke-width="0.5" stroke-miterlimit="10"/>
<path d="M234.188 29.6394C235.37 29.2719 235.959 27.8204 235.502 26.3973C235.045 24.9741 233.716 24.1184 232.534 24.4858C231.352 24.8532 230.763 26.3048 231.22 27.7279C231.677 29.151 233.005 30.0068 234.188 29.6394Z" stroke="#303134" stroke-width="0.498121" stroke-miterlimit="10"/>
<path d="M238.148 25.9917L236.397 26.5276" stroke="#303134" stroke-width="0.5" stroke-miterlimit="10"/>
<path d="M243.284 24.3099L246.903 21.9685" stroke="#303134" stroke-width="0.5" stroke-miterlimit="10"/>
<path d="M287.125 62.5638C287.032 62.2527 286.867 61.9668 286.644 61.728C286.42 61.4892 286.145 61.3038 285.837 61.186C285.53 61.0683 285.2 61.0213 284.871 61.0486C284.542 61.0759 284.225 61.1768 283.942 61.3436C279.527 63.9406 273.545 67.3043 273.268 67.4115V67.4609V67.5187L275.832 75.763C272.516 77.24 269.127 78.5525 265.678 79.6956C262.076 80.6685 256.848 81.8721 253.061 81.6001C249.274 81.328 245.353 79.9512 243.644 79.7863C241.935 79.6214 240.134 78.5826 238.777 77.9643C237.42 77.346 236.657 76.3731 236.029 76.9915C235.401 77.6098 235.987 78.4507 236.523 79.1185C237.514 79.9801 238.648 80.6688 239.874 81.1549C240.461 81.3363 241.55 82.1277 241.089 82.9686C240.628 83.8096 238.877 84.9638 238.576 84.8319C238.326 84.7176 238.085 84.5853 237.855 84.4361C237.855 84.4361 236.733 85.4997 236.733 85.9449C236.733 86.3901 236.917 87.7586 239.028 87.5937C239.296 88.4841 239.254 89.5889 240.243 90.0671C241.232 90.5452 241.642 90.3309 241.642 90.7761C241.642 91.2213 241.642 92.021 242.48 92.0622C243.318 92.1034 243.535 91.9303 243.762 92.5981C243.988 93.2659 244.39 93.6204 245.563 93.6204C246.736 93.6204 249.66 92.796 250.472 92.0705C251.285 91.345 251.737 89.9846 253.044 89.8527C254.351 89.7208 256.395 89.3663 259.889 89.2344C263.383 89.1025 269.624 88.6985 273.721 88.3028C277.818 87.907 288.801 85.5327 290.393 81.765C291.834 78.393 288.977 68.7471 287.125 62.5638Z" fill="#ED9D6F"/>
<path d="M235.912 232.876H315.861C317.911 232.876 319.573 231.241 319.573 229.224V180.426C319.573 178.409 317.911 176.773 315.861 176.773H235.912C233.862 176.773 232.2 178.409 232.2 180.426V229.224C232.2 231.241 233.862 232.876 235.912 232.876Z" stroke="#28282A" stroke-width="1.03" stroke-miterlimit="10"/>
<path d="M305.221 185.076C306.98 185.076 308.405 183.743 308.405 182.099C308.405 180.456 306.98 179.123 305.221 179.123C303.463 179.123 302.038 180.456 302.038 182.099C302.038 183.743 303.463 185.076 305.221 185.076Z" fill="#FFC61A"/>
<path d="M313.683 185.076C315.441 185.076 316.867 183.743 316.867 182.099C316.867 180.456 315.441 179.123 313.683 179.123C311.925 179.123 310.5 180.456 310.5 182.099C310.5 183.743 311.925 185.076 313.683 185.076Z" fill="#FE3737"/>
<path d="M296.819 185.076C298.577 185.076 300.002 183.743 300.002 182.099C300.002 180.456 298.577 179.123 296.819 179.123C295.06 179.123 293.635 180.456 293.635 182.099C293.635 183.743 295.06 185.076 296.819 185.076Z" fill="#029D41"/>
<path d="M319.573 187.483H232.2" stroke="#28282A" stroke-width="1.03" stroke-miterlimit="10"/>
<path d="M259.99 181.539C260.192 180.73 260.276 179.897 260.241 179.065C260.073 177.804 271.534 184.012 271.534 184.012C271.534 184.012 270.403 185.892 273.872 186.98C278.496 188.439 286.489 180.962 280.834 171.464C277.608 166.056 265.201 163.846 257.761 168.991C259.495 171.959 256.504 173.113 256.504 175.636C256.496 179.741 259.336 180.624 259.99 181.539Z" fill="#5C5D63"/>
<path d="M264.447 191.935C264.631 192.982 265.368 194.235 263.408 196.189C265.159 198.753 267.111 206.635 267.111 206.635L276.326 198.093C276.134 197.698 274.089 189.577 273.897 186.988C274.716 186.917 275.5 186.622 276.157 186.135C276.815 185.648 277.32 184.99 277.617 184.235C278.304 182.511 277.809 180.549 275.832 180.112C272.28 179.337 271.568 184.012 271.568 184.012C271.568 184.012 269.892 183.056 269.582 178.703C269.272 174.349 264.916 177.961 263.399 173.616C260.97 174.316 260.115 177.796 260.274 179.057C260.31 179.889 260.225 180.722 260.023 181.53C259.783 182.668 259.475 183.792 259.102 184.894C258.473 186.757 259.78 192.207 264.447 191.935Z" fill="#FEC2A0"/>
<path d="M246.912 214.475L248.587 215.497L254.988 232.604H292.613C292.613 232.604 288.533 223.329 288.139 222.233V222.184V222.142C290.996 221.104 293.736 219.778 296.316 218.185C301.837 214.632 297.153 202.661 293.417 200.509C287.955 197.384 279.267 197.731 275.698 193.51L274.91 194.771C274.291 195.753 273.448 196.579 272.447 197.184C271.446 197.788 270.315 198.154 269.145 198.253C267.975 198.351 266.798 198.18 265.707 197.751C264.616 197.323 263.642 196.649 262.863 195.785C262.863 195.785 262.729 195.851 262.67 195.892C259.554 198.473 244.381 202.694 246.912 214.475Z" fill="#4F6DDB"/>
<path d="M265.117 179.428C265.117 179.428 265.996 179.049 267.63 180.129" stroke="#303134" stroke-width="0.42" stroke-miterlimit="10" stroke-linecap="round"/>
<path d="M261.422 179.016C261.296 178.806 261.126 178.624 260.924 178.482C260.722 178.34 260.492 178.241 260.249 178.191" stroke="#303134" stroke-width="0.42" stroke-miterlimit="10" stroke-linecap="round"/>
<path d="M266.291 182.273C266.41 181.582 266.226 180.974 265.879 180.917C265.532 180.859 265.155 181.372 265.035 182.064C264.916 182.755 265.101 183.362 265.448 183.42C265.794 183.478 266.172 182.964 266.291 182.273Z" fill="#303134"/>
<path d="M261.387 181.336C261.491 180.73 261.332 180.198 261.031 180.148C260.73 180.098 260.401 180.548 260.297 181.154C260.192 181.76 260.352 182.292 260.653 182.343C260.954 182.393 261.283 181.942 261.387 181.336Z" fill="#303134"/>
<path d="M261.615 183.13C260.551 183.839 260.216 185.801 261.967 185.306" stroke="#303134" stroke-width="0.42" stroke-miterlimit="10" stroke-linecap="round"/>
<path d="M264.296 186.296C264.296 186.296 263.751 187.945 261.43 186.898" stroke="#303134" stroke-width="0.42" stroke-miterlimit="10" stroke-linecap="round"/>
<path d="M264.447 191.935C264.447 191.935 266.667 191.564 267.588 190.014C267.403 190.765 267.051 191.467 266.559 192.07C266.067 192.673 265.446 193.161 264.74 193.501L264.447 191.935Z" fill="#F99979"/>
<path d="M288.131 222.134C295.185 219.488 296.023 202.109 297.464 206.181C301.041 216.314 302.817 231.623 302.49 235.375C302.356 236.925 298.821 237.848 297.045 238.738C296.081 237.469 293.777 236.949 292.948 236.809L292.638 236.76L288.122 222.233V222.184V222.142L288.131 222.134Z" fill="#4F6DDB"/>
<path d="M293.543 228.218C293.35 228.218 280.859 231.648 275.246 233.165L278.521 242.036C281.413 241.953 284.296 241.678 287.151 241.212C290.728 240.544 295.026 239.563 297.774 238.359C300.522 237.155 301.276 227.592 293.543 228.218Z" fill="#4F6DDB"/>
<path d="M273.009 235.127L275.338 242.135C275.338 242.135 276.645 242.135 278.513 242.061L275.69 234.394L273.009 235.127Z" fill="white"/>
<path d="M234.806 204.73C234.329 204.298 233.803 203.922 233.239 203.609C232.066 202.892 230.985 202.463 230.081 201.3C229.176 200.138 228.506 198.909 227.81 198.679C227.115 198.448 226.73 200.08 227.165 200.863C227.601 201.647 228.749 202.801 228.841 203.081C228.872 203.322 228.872 203.566 228.841 203.807C228.841 203.807 220.53 202.529 219.449 202.521C218.368 202.512 217.355 202.562 217.489 203.279C217.623 203.996 218.327 204.219 220.362 204.565C222.398 204.911 224.878 205.052 224.786 205.142C224.694 205.233 223.253 205.258 223.32 206.173C223.387 207.088 223.697 207.179 223.697 207.179C223.527 207.253 223.392 207.388 223.319 207.556C223.246 207.724 223.24 207.913 223.303 208.085C223.465 208.469 223.763 208.783 224.141 208.968C224.141 208.968 223.362 209.322 223.881 210.27C224.4 211.218 226.445 211.35 228.12 211.359C229.796 211.367 231.396 211.573 232.426 210.963C233.346 210.374 234.444 210.117 235.535 210.237L236.213 205.653L234.806 204.73Z" fill="#FEC2A0"/>
<path d="M239.305 208.555C238.352 207.487 237.306 206.502 236.18 205.612C232.401 202.842 233.407 208.959 233.407 208.959C234.125 210.091 234.785 211.258 235.384 212.455C236.866 211.338 238.186 210.026 239.305 208.555Z" fill="#FEC2A0"/>
<path d="M239.439 208.391C238.375 209.932 235.057 212.719 233.633 213.898C233.633 213.898 233.985 214.83 234.588 216.305L240.963 210.097C240.444 209.495 239.933 208.91 239.439 208.391Z" fill="white"/>
<path d="M260.35 221.961C260.35 221.961 251.779 216.594 246.895 213.329C246.803 214.351 246.711 215.406 246.644 216.478C244.876 214.063 243.033 211.664 241.324 209.66L234.621 216.305C236.766 221.565 242.161 233.932 247.372 237.864C249.207 239.258 252.785 238.689 254.845 237.864C259.872 235.712 260.35 221.961 260.35 221.961Z" fill="#4F6DDB"/>
<path d="M225.247 210.641C225.33 210.641 227.685 210.831 228.447 210.452C229.209 210.072 228.79 209.133 227.735 209.075C229 208.704 228.79 208.25 228.673 207.756C228.556 207.261 227.458 207.22 227.458 207.22C227.458 207.22 228.564 207.179 228.522 206.296C228.48 205.414 225.448 205.2 225.448 205.2" fill="#FEC2A0"/>
<path d="M225.247 210.641C225.33 210.641 227.685 210.831 228.447 210.452C229.209 210.072 228.79 209.133 227.735 209.075C229 208.704 228.79 208.25 228.673 207.756C228.556 207.261 227.458 207.22 227.458 207.22C227.458 207.22 228.564 207.179 228.522 206.296C228.48 205.414 225.448 205.2 225.448 205.2" stroke="#F99979" stroke-width="0.38" stroke-miterlimit="10" stroke-linecap="round"/>
<path d="M90.2629 10.0388H4.03817C2.03933 10.0388 0.418945 11.6334 0.418945 13.6004V67.3374C0.418945 69.3044 2.03933 70.8989 4.03817 70.8989H90.2629C92.2617 70.8989 93.8821 69.3044 93.8821 67.3374V13.6004C93.8821 11.6334 92.2617 10.0388 90.2629 10.0388Z" stroke="#28282A" stroke-miterlimit="10"/>
<path d="M15.2057 19.0498C17.0195 19.0498 18.4899 17.6029 18.4899 15.818C18.4899 14.0331 17.0195 12.5862 15.2057 12.5862C13.392 12.5862 11.9216 14.0331 11.9216 15.818C11.9216 17.6029 13.392 19.0498 15.2057 19.0498Z" fill="#FFC61A"/>
<path d="M6.48455 19.0498C8.29832 19.0498 9.76867 17.6029 9.76867 15.818C9.76867 14.0331 8.29832 12.5862 6.48455 12.5862C4.67079 12.5862 3.20044 14.0331 3.20044 15.818C3.20044 17.6029 4.67079 19.0498 6.48455 19.0498Z" fill="#029D41"/>
<path d="M23.8517 19.0498C25.6655 19.0498 27.1359 17.6029 27.1359 15.818C27.1359 14.0331 25.6655 12.5862 23.8517 12.5862C22.038 12.5862 20.5676 14.0331 20.5676 15.818C20.5676 17.6029 22.038 19.0498 23.8517 19.0498Z" fill="#FE3737"/>
<path d="M0.418945 21.655H93.8821" stroke="#28282A" stroke-miterlimit="10"/>
<path d="M74.6298 28.1847C71.2787 26.338 56.1986 23.8729 53.6852 23.4277C53.4004 16.5684 49.0271 16.6178 48.7172 11.7619C48.5929 9.52806 49.3269 7.32993 50.7734 5.60404C52.2199 3.87815 54.2731 2.75075 56.5253 2.44573C61.9039 -2.6493 76.9505 3.08055 78.9193 9.32156C80.8881 15.5626 76.8751 25.53 74.6298 28.1847Z" fill="#FEC519"/>
<path d="M63.2611 28.9266C62.5573 29.85 61.2252 30.7074 62.1384 33.5435C59.1643 35.1924 53.3333 41.8456 53.3333 41.8456L48.7339 29.141C49.1193 28.8442 55.1597 21.9931 56.6342 19.5857C55.8786 19.1202 55.2708 18.4554 54.8799 17.667C54.4889 16.8786 54.3304 15.9981 54.4224 15.1255C54.6151 13.1304 56.098 11.4732 58.2092 12.0091C62.0295 12.982 60.3791 17.8461 60.3791 17.8461C60.3791 17.8461 62.4819 17.7307 64.9534 13.6745C67.4249 9.61824 71.6557 14.1279 71.6557 14.1279C71.6557 14.1279 74.5209 17.4257 73.7334 18.5222C73.2782 19.3118 72.9396 20.1613 72.728 21.045C72.376 22.2535 72.0962 23.4812 71.8902 24.722C71.6305 26.8243 67.6343 31.4494 63.2611 28.9266Z" fill="#FEC2A0"/>
<path d="M80.1424 50.9393L78.3579 52.0523L63.2778 70.5032H30.6964C30.6964 70.5032 34.9942 60.544 35.4131 59.3321V59.2826V59.2414C32.3404 58.053 29.3728 56.6163 26.541 54.9461C24.9049 53.8454 23.3536 52.6274 21.8997 51.302C21.8997 51.302 29.4397 38.4078 33.1343 35.5965C36.0079 33.4364 47.4437 30.2211 48.9098 28.1765L49.7476 29.5451C50.4237 30.6052 51.3408 31.4963 52.4266 32.148C53.5124 32.7998 54.7372 33.1943 56.0044 33.3007C57.2717 33.407 58.5467 33.2221 59.729 32.7607C60.9112 32.2992 61.9684 31.5738 62.817 30.6416L62.8924 30.5674C62.9244 30.6409 62.9698 30.708 63.0265 30.7653C66.4111 33.5766 77.3861 41.0872 80.1424 50.9393Z" fill="#029D41"/>
<path d="M68.8658 16.5107C68.8658 16.5107 68.2039 15.6863 66.1011 15.9748" stroke="#303134" stroke-width="0.46" stroke-miterlimit="10" stroke-linecap="round"/>
<path d="M72.6443 17.8956C72.8718 17.749 73.1281 17.6511 73.3966 17.6085C73.6651 17.5659 73.9397 17.5795 74.2026 17.6483" stroke="#303134" stroke-width="0.46" stroke-miterlimit="10" stroke-linecap="round"/>
<path d="M67.6369 19.0942C67.8688 18.3641 67.7632 17.6819 67.4011 17.5705C67.039 17.4591 66.5574 17.9606 66.3255 18.6907C66.0935 19.4208 66.1991 20.103 66.5612 20.2144C66.9233 20.3258 67.4049 19.8243 67.6369 19.0942Z" fill="#303134"/>
<path d="M72.7601 20.6649C72.9493 20.0695 72.8627 19.5131 72.5669 19.4221C72.271 19.3311 71.8778 19.7399 71.6887 20.3353C71.4995 20.9307 71.5861 21.4871 71.8819 21.5781C72.1778 21.6692 72.571 21.2603 72.7601 20.6649Z" fill="#303134"/>
<path d="M70.3571 21.7705C71.0273 22.9659 70.3571 25.0683 68.9329 23.7079" stroke="#303134" stroke-width="0.46" stroke-miterlimit="10" stroke-linecap="round"/>
<path d="M66.2185 23.5679C66.2185 23.5679 65.9086 25.4641 68.69 25.5465" stroke="#303134" stroke-width="0.46" stroke-miterlimit="10" stroke-linecap="round"/>
<path d="M63.2612 28.9266C63.2612 28.9266 61.3008 27.4921 61.1835 25.5547C60.3876 28.028 62.1972 30.3117 62.1972 30.3117L63.2612 28.9266Z" fill="#F99979"/>
<path d="M68.9973 20.2244C69.4336 18.8511 68.656 17.3898 67.2604 16.9605C65.8649 16.5312 64.38 17.2964 63.9437 18.6697C63.5075 20.043 64.2851 21.5043 65.6806 21.9336C67.0761 22.3629 68.5611 21.5976 68.9973 20.2244Z" stroke="white" stroke-width="0.48" stroke-miterlimit="10"/>
<path d="M74.7714 21.7852C75.2077 20.4119 74.6377 19.0145 73.4983 18.664C72.3589 18.3135 71.0816 19.1426 70.6454 20.5159C70.2091 21.8892 70.7791 23.2866 71.9185 23.6371C73.0579 23.9876 74.3352 23.1585 74.7714 21.7852Z" stroke="white" stroke-width="0.48" stroke-miterlimit="10"/>
<path d="M69.1255 19.5034L70.8094 20.0228" stroke="white" stroke-width="0.48" stroke-miterlimit="10"/>
<path d="M64.1994 17.8957L60.731 15.645" stroke="white" stroke-width="0.48" stroke-miterlimit="10"/>
<path d="M71.1613 66.6364L90.1874 41.0293C90.0822 40.3474 90.0569 39.6559 90.112 38.9682C90.1707 37.4925 90.4304 36.2723 89.911 34.7718C89.3915 33.2714 88.6794 31.9275 88.8972 31.169C89.1151 30.4106 90.8409 31.0619 91.2849 31.9193C91.729 32.7767 92.1227 34.4915 92.3154 34.7224C92.5069 34.9046 92.7208 35.0624 92.9521 35.1923C92.9521 35.1923 96.8143 27.0633 97.4678 26.1235C98.1212 25.1836 98.7747 24.2932 99.3444 24.8456C99.9141 25.398 99.6963 26.1565 98.7747 28.1434C97.8532 30.1303 96.4876 32.4387 96.63 32.4057C96.7724 32.3727 97.6688 31.1196 98.4647 31.7297C99.2606 32.3398 99.1601 32.6778 99.1601 32.6778C99.3334 32.5793 99.5368 32.5451 99.7335 32.5814C99.9302 32.6177 100.107 32.7221 100.232 32.8756C100.484 33.2407 100.597 33.6816 100.551 34.1205C100.551 34.1205 101.347 33.6424 101.891 34.6812C102.436 35.72 101.33 37.6079 100.316 39.1002C99.3025 40.5924 98.5318 42.1341 97.3421 42.6782C95.6665 43.4285 94.7701 44.3931 93.7731 47.394C90.8325 56.265 86.8782 70.8328 79.69 76.2989C77.3442 78.0879 73.6496 77.7664 71.4881 76.2989C68.8407 74.4439 69.4271 69.3324 71.1613 66.6364Z" fill="#FEC2A0"/>
<path d="M101.372 36.1735C101.372 36.2477 100.065 38.4489 99.2606 38.8859C98.4563 39.3228 97.8531 38.3912 98.4228 37.4266C97.3253 38.3253 97.0572 37.8801 96.6467 37.4266C96.2362 36.9732 96.8981 36.0251 96.8981 36.0251C96.8981 36.0251 96.1859 36.9814 95.4068 36.4043C94.6277 35.8272 96.2446 33.0159 96.2446 33.0159" fill="#FEC2A0"/>
<path d="M101.372 36.1735C101.372 36.2477 100.065 38.4489 99.2606 38.8859C98.4563 39.3228 97.8531 38.3912 98.4228 37.4266C97.3253 38.3253 97.0572 37.8801 96.6467 37.4266C96.2362 36.9732 96.8981 36.0251 96.8981 36.0251C96.8981 36.0251 96.1859 36.9814 95.4068 36.4043C94.6277 35.8272 96.2446 33.0159 96.2446 33.0159" stroke="#F99979" stroke-width="0.41" stroke-miterlimit="10" stroke-linecap="round"/>
<path d="M30.6882 159.04C33.7505 159.629 36.4785 161.324 38.3374 163.79C40.1963 166.256 41.052 169.317 40.7368 172.372C40.4216 175.427 38.9581 178.256 36.6334 180.304C34.3086 182.352 31.2902 183.472 28.1699 183.444C25.0497 183.416 22.0526 182.242 19.7663 180.152C17.4799 178.063 16.0693 175.208 15.8108 172.148C15.5524 169.088 16.4648 166.043 18.3693 163.61C20.2737 161.178 23.0327 159.533 26.1055 158.999" stroke="#FE3737" stroke-width="3" stroke-miterlimit="10"/>
<path d="M24.3628 155.618L25.8289 162.832L28.8617 158.248L24.3628 155.618Z" fill="#FE3737"/>
<path d="M23.2626 174.194V173.279L26.7003 169.515C27.1037 169.075 27.4359 168.692 27.697 168.366C27.958 168.037 28.1512 167.729 28.2767 167.441C28.4055 167.149 28.4699 166.844 28.4699 166.525C28.4699 166.159 28.3818 165.842 28.2055 165.574C28.0326 165.307 27.7953 165.1 27.4935 164.954C27.1918 164.808 26.8528 164.735 26.4765 164.735C26.0765 164.735 25.7273 164.818 25.4289 164.985C25.134 165.147 24.9052 165.376 24.7424 165.671C24.5831 165.966 24.5034 166.312 24.5034 166.708H23.3033C23.3033 166.098 23.444 165.563 23.7254 165.101C24.0068 164.64 24.3899 164.281 24.8747 164.023C25.3628 163.766 25.9103 163.637 26.5172 163.637C27.1274 163.637 27.6681 163.766 28.1394 164.023C28.6106 164.281 28.9801 164.629 29.248 165.066C29.5158 165.503 29.6497 165.99 29.6497 166.525C29.6497 166.908 29.5802 167.283 29.4412 167.649C29.3056 168.012 29.0683 168.417 28.7293 168.865C28.3936 169.309 27.9275 169.851 27.3308 170.492L24.9916 172.994V173.075H29.8328V174.194H23.2626ZM26.5172 191.336C25.9205 191.336 25.3832 191.218 24.9052 190.98C24.4272 190.743 24.0441 190.418 23.7559 190.004C23.4677 189.59 23.3101 189.119 23.283 188.59H24.5034C24.5509 189.061 24.7645 189.451 25.1442 189.76C25.5273 190.065 25.9849 190.217 26.5172 190.217C26.9443 190.217 27.324 190.117 27.6563 189.917C27.9919 189.717 28.2546 189.443 28.4445 189.094C28.6377 188.741 28.7343 188.343 28.7343 187.899C28.7343 187.444 28.6343 187.039 28.4343 186.683C28.2377 186.324 27.9665 186.041 27.6207 185.834C27.2749 185.627 26.8799 185.522 26.4358 185.519C26.1171 185.515 25.79 185.565 25.4544 185.666C25.1187 185.765 24.8424 185.892 24.6255 186.048L23.4457 185.905L24.0763 180.779H29.487V181.898H25.134L24.7679 184.97H24.8289C25.0425 184.8 25.3103 184.659 25.6324 184.547C25.9544 184.436 26.29 184.38 26.6392 184.38C27.2766 184.38 27.8444 184.532 28.3428 184.837C28.8445 185.139 29.2378 185.553 29.5226 186.078C29.8107 186.604 29.9548 187.204 29.9548 187.878C29.9548 188.543 29.8056 189.136 29.5073 189.658C29.2124 190.177 28.8055 190.587 28.2868 190.889C27.7681 191.187 27.1783 191.336 26.5172 191.336Z" fill="#28282A"/>
<path d="M22.318 176.143V178.505H21.7146V173.269H22.318V175.191H22.3692C22.4612 174.989 22.5993 174.828 22.7834 174.708C22.9692 174.587 23.2163 174.527 23.5249 174.527C23.7925 174.527 24.0268 174.58 24.228 174.688C24.4291 174.793 24.5851 174.956 24.6959 175.176C24.8084 175.394 24.8646 175.672 24.8646 176.01V178.505H24.2612V176.051C24.2612 175.739 24.1803 175.497 24.0183 175.327C23.8581 175.155 23.6356 175.069 23.351 175.069C23.1533 175.069 22.976 175.111 22.8192 175.194C22.6641 175.278 22.5413 175.399 22.451 175.56C22.3624 175.72 22.318 175.914 22.318 176.143ZM27.564 178.587C27.2094 178.587 26.8984 178.503 26.6307 178.334C26.3648 178.165 26.1569 177.929 26.0069 177.626C25.8586 177.322 25.7844 176.968 25.7844 176.562C25.7844 176.153 25.8586 175.796 26.0069 175.491C26.1569 175.186 26.3648 174.949 26.6307 174.78C26.8984 174.611 27.2094 174.527 27.564 174.527C27.9185 174.527 28.2288 174.611 28.4947 174.78C28.7623 174.949 28.9702 175.186 29.1185 175.491C29.2685 175.796 29.3435 176.153 29.3435 176.562C29.3435 176.968 29.2685 177.322 29.1185 177.626C28.9702 177.929 28.7623 178.165 28.4947 178.334C28.2288 178.503 27.9185 178.587 27.564 178.587ZM27.564 178.045C27.8333 178.045 28.0549 177.976 28.2288 177.838C28.4026 177.7 28.5313 177.518 28.6148 177.293C28.6984 177.068 28.7401 176.824 28.7401 176.562C28.7401 176.299 28.6984 176.055 28.6148 175.828C28.5313 175.601 28.4026 175.418 28.2288 175.278C28.0549 175.139 27.8333 175.069 27.564 175.069C27.2947 175.069 27.0731 175.139 26.8992 175.278C26.7254 175.418 26.5967 175.601 26.5131 175.828C26.4296 176.055 26.3879 176.299 26.3879 176.562C26.3879 176.824 26.4296 177.068 26.5131 177.293C26.5967 177.518 26.7254 177.7 26.8992 177.838C27.0731 177.976 27.2947 178.045 27.564 178.045ZM32.7396 176.899V174.578H33.343V178.505H32.7396V177.84H32.6987C32.6067 178.04 32.4635 178.209 32.2692 178.349C32.0749 178.487 31.8294 178.556 31.5328 178.556C31.2874 178.556 31.0692 178.503 30.8783 178.395C30.6874 178.286 30.5374 178.122 30.4283 177.904C30.3192 177.684 30.2646 177.407 30.2646 177.073V174.578H30.868V177.032C30.868 177.319 30.9481 177.547 31.1084 177.718C31.2703 177.888 31.4766 177.973 31.7271 177.973C31.8771 177.973 32.0297 177.935 32.1848 177.858C32.3416 177.782 32.4729 177.664 32.5785 177.505C32.6859 177.347 32.7396 177.145 32.7396 176.899ZM34.4482 178.505V174.578H35.0312V175.171H35.0721C35.1437 174.977 35.2732 174.819 35.4607 174.698C35.6482 174.577 35.8596 174.516 36.0948 174.516C36.1391 174.516 36.1945 174.517 36.261 174.519C36.3275 174.521 36.3778 174.523 36.4119 174.527V175.14C36.3914 175.135 36.3445 175.128 36.2712 175.117C36.1996 175.105 36.1238 175.099 36.0437 175.099C35.8528 175.099 35.6823 175.14 35.5323 175.22C35.384 175.298 35.2664 175.407 35.1795 175.547C35.0942 175.685 35.0516 175.843 35.0516 176.02V178.505H34.4482ZM24.4964 184.457L23.9544 184.611C23.9203 184.52 23.87 184.433 23.8035 184.347C23.7388 184.261 23.6501 184.189 23.5376 184.133C23.4251 184.076 23.2811 184.048 23.1055 184.048C22.8652 184.048 22.6649 184.104 22.5047 184.215C22.3462 184.324 22.2669 184.463 22.2669 184.631C22.2669 184.781 22.3214 184.9 22.4305 184.987C22.5396 185.074 22.7101 185.146 22.9419 185.204L23.5249 185.347C23.876 185.432 24.1376 185.563 24.3098 185.738C24.482 185.912 24.568 186.136 24.568 186.411C24.568 186.636 24.5033 186.837 24.3737 187.014C24.2459 187.191 24.0669 187.331 23.8368 187.434C23.6067 187.536 23.3391 187.587 23.0339 187.587C22.6334 187.587 22.3018 187.5 22.0393 187.326C21.7768 187.152 21.6106 186.898 21.5408 186.564L22.1135 186.421C22.168 186.632 22.2712 186.791 22.4229 186.897C22.5763 187.002 22.7766 187.055 23.0237 187.055C23.305 187.055 23.5283 186.995 23.6936 186.876C23.8606 186.755 23.9442 186.61 23.9442 186.441C23.9442 186.305 23.8964 186.191 23.801 186.099C23.7055 186.005 23.5589 185.935 23.3612 185.889L22.7067 185.736C22.347 185.651 22.0828 185.518 21.9141 185.34C21.747 185.159 21.6635 184.933 21.6635 184.662C21.6635 184.44 21.7257 184.244 21.8501 184.074C21.9763 183.903 22.1476 183.77 22.3641 183.672C22.5822 183.575 22.8294 183.527 23.1055 183.527C23.4942 183.527 23.7993 183.612 24.0209 183.782C24.2442 183.953 24.4027 184.178 24.4964 184.457Z" fill="#28282A"/>
<path d="M75.1156 163.805C79.0809 163.805 82.2954 160.642 82.2954 156.74C82.2954 152.837 79.0809 149.674 75.1156 149.674C71.1503 149.674 67.9358 152.837 67.9358 156.74C67.9358 160.642 71.1503 163.805 75.1156 163.805Z" fill="#4F6DDB"/>
<path d="M67.9359 156.74C71.9012 156.74 75.1157 153.576 75.1157 149.674C75.1157 145.772 71.9012 142.609 67.9359 142.609C63.9706 142.609 60.7561 145.772 60.7561 149.674C60.7561 153.576 63.9706 156.74 67.9359 156.74Z" fill="#4F6DDB"/>
<path d="M105.812 135.782C109.777 135.782 112.992 132.619 112.992 128.717C112.992 124.815 109.777 121.651 105.812 121.651C101.847 121.651 98.6323 124.815 98.6323 128.717C98.6323 132.619 101.847 135.782 105.812 135.782Z" fill="#4F6DDB"/>
<path d="M95.3231 135.782C99.2884 135.782 102.503 132.619 102.503 128.717C102.503 124.815 99.2884 121.651 95.3231 121.651C91.3578 121.651 88.1433 124.815 88.1433 128.717C88.1433 132.619 91.3578 135.782 95.3231 135.782Z" fill="#4F6DDB"/>
<path d="M87.339 136.788C91.3043 136.788 94.5188 133.625 94.5188 129.723C94.5188 125.821 91.3043 122.657 87.339 122.657C83.3737 122.657 80.1592 125.821 80.1592 129.723C80.1592 133.625 83.3737 136.788 87.339 136.788Z" fill="#4F6DDB"/>
<path d="M76.9169 139.558C80.8822 139.558 84.0967 136.395 84.0967 132.493C84.0967 128.591 80.8822 125.427 76.9169 125.427C72.9516 125.427 69.7371 128.591 69.7371 132.493C69.7371 136.395 72.9516 139.558 76.9169 139.558Z" fill="#4F6DDB"/>
<path d="M71.3204 146.624C75.2857 146.624 78.5002 143.46 78.5002 139.558C78.5002 135.656 75.2857 132.493 71.3204 132.493C67.3551 132.493 64.1406 135.656 64.1406 139.558C64.1406 143.46 67.3551 146.624 71.3204 146.624Z" fill="#4F6DDB"/>
<path d="M123.975 256.423C122.819 265.491 117.432 266.382 111.735 267.503C101.841 269.449 86.342 272.45 72.7364 274.841C50.6691 278.724 50.1162 263.686 48.3568 252.193C44.3774 242.77 34.5418 221.112 33.9972 211.359C33.461 201.82 34.1145 193.031 42.8023 189.989C48.6668 187.961 71.0189 177.623 73.5239 174.177L82.0693 187.804C82.5984 188.625 83.3383 189.293 84.2142 189.742C85.0901 190.19 86.0708 190.403 87.0571 190.359C88.0435 190.314 89.0004 190.014 89.8311 189.489C90.6618 188.964 91.3367 188.232 91.7876 187.368C93.7061 183.74 95.9095 179.948 97.6521 178.233C97.6578 178.307 97.6906 178.378 97.7444 178.43C97.7982 178.483 97.8694 178.516 97.9453 178.521C101.296 183.015 128.106 193.716 130.175 200.674C131.674 205.736 125.131 247.304 123.975 256.423Z" fill="#FEC519"/>
<path d="M97.0908 170.4C96.3535 172.288 94.7366 174.317 97.6772 178.513C95.9095 180.401 93.5553 184.284 91.6368 187.936C91.195 188.769 90.5392 189.473 89.7348 189.979C88.9303 190.484 88.0052 190.774 87.0518 190.818C86.0983 190.862 85.1497 190.66 84.3005 190.231C83.4513 189.802 82.7311 189.161 82.2117 188.373L71.3206 176.345C72.6301 175.16 73.8146 173.848 74.856 172.429C77.7111 168.154 79.8496 163.455 81.1897 158.512C77.8385 157.646 74.412 155.214 73.8255 152.428C73.0883 149.13 74.856 143.73 78.6847 143.441C85.4624 143.153 86.9285 143.73 88.847 135.758C90.7655 127.785 109.909 136.92 109.909 136.92C109.909 136.92 110.495 145.618 109.758 147.935C109.223 149.321 108.973 150.797 109.021 152.279C108.965 154.553 109.063 156.828 109.314 159.089C109.758 162.717 105.636 172.28 97.0908 170.4Z" fill="#FEC2A0"/>
<path d="M97.9789 154.307C98.6313 154.307 99.1602 153.27 99.1602 151.991C99.1602 150.711 98.6313 149.674 97.9789 149.674C97.3265 149.674 96.7976 150.711 96.7976 151.991C96.7976 153.27 97.3265 154.307 97.9789 154.307Z" fill="#303134"/>
<path d="M107.546 153.879C108.115 153.879 108.577 152.904 108.577 151.702C108.577 150.5 108.115 149.526 107.546 149.526C106.977 149.526 106.516 150.5 106.516 151.702C106.516 152.904 106.977 153.879 107.546 153.879Z" fill="#303134"/>
<path d="M105.05 155.033C106.817 156.624 106.817 160.392 103.726 158.949" stroke="#303134" stroke-width="0.79" stroke-miterlimit="10" stroke-linecap="round"/>
<path d="M97.0908 170.4C97.0908 170.4 93.1114 169.098 91.9385 165.907C91.9385 170.4 96.0604 173.154 96.0604 173.154L97.0908 170.4Z" fill="#F99979"/>
<path d="M69.5527 134.1C74.4286 125.312 90.9497 125.914 97.9787 125.601C106.239 125.23 113.436 121.651 113.427 130.588C113.304 136.352 112.106 142.045 109.892 147.382C109.976 144.289 109.379 141.215 108.141 138.371C107.697 137.068 105.46 139.336 101.648 139.492C97.8363 139.649 93.2704 139.245 93.1196 139.962L90.0114 150.614C89.7913 151.368 89.3605 152.046 88.768 152.571C88.1755 153.095 87.4452 153.446 86.6603 153.582C86.6603 153.582 86.8111 144.744 80.0334 145.033C73.2557 145.321 73.6997 156.195 81.3571 158.364C80.6641 161.117 79.6755 163.789 78.4081 166.336C78.4081 166.336 64.6768 142.881 69.5527 134.1Z" fill="#4F6DDB"/>
<path d="M104.949 164.168C104.949 164.168 101.187 165.907 99.3359 162.403" stroke="#303134" stroke-width="0.79" stroke-miterlimit="10" stroke-linecap="round"/>
<path d="M100.408 147.382C100.408 147.382 97.6437 145.56 95.323 147.077" stroke="#303134" stroke-width="0.79" stroke-miterlimit="10" stroke-linecap="round"/>
<path d="M106.39 146.929C106.74 146.619 107.172 146.412 107.635 146.332C108.099 146.252 108.576 146.302 109.012 146.475" stroke="#303134" stroke-width="0.79" stroke-miterlimit="10" stroke-linecap="round"/>
<mask id="mask0_1007_24214" style="mask-type:luminance" maskUnits="userSpaceOnUse" x="68" y="124" width="46" height="43">
<path d="M69.5527 134.1C74.4286 125.312 90.9497 125.914 97.9787 125.601C106.239 125.23 113.436 121.651 113.427 130.588C113.304 136.352 112.106 142.045 109.892 147.382C109.976 144.289 109.379 141.215 108.141 138.371C107.697 137.068 105.46 139.336 101.648 139.492C97.8363 139.649 93.2704 139.245 93.1196 139.962L90.0114 150.614C89.7913 151.368 89.3605 152.046 88.768 152.571C88.1755 153.095 87.4452 153.446 86.6603 153.582C86.6603 153.582 86.8111 144.744 80.0334 145.033C73.2557 145.321 73.6997 156.195 81.3571 158.364C80.6641 161.117 79.6755 163.789 78.4081 166.336C78.4081 166.336 64.6768 142.881 69.5527 134.1Z" fill="white"/>
</mask>
<g mask="url(#mask0_1007_24214)">
<path d="M100.408 140.127C100.408 140.127 107.873 129.294 98.8921 124.809" stroke="#4762C4" stroke-width="1.14" stroke-miterlimit="10"/>
<path d="M72.6526 128.519C72.6526 128.519 89.9361 127.422 93.438 143.359" stroke="#4762C4" stroke-width="1.14" stroke-miterlimit="10"/>
<path d="M67.4751 132.988C67.4751 132.988 85.6299 140.037 91.9384 147.382" stroke="#4762C4" stroke-width="1.14" stroke-miterlimit="10"/>
<path d="M103.634 139.905C103.634 139.905 113.411 131.264 104.329 124.133" stroke="#4762C4" stroke-width="1.14" stroke-miterlimit="10"/>
</g>
<path d="M67.9358 178.826C67.9358 178.826 77.453 195.48 85.9649 195.447C89.0731 195.447 92.374 194.548 97.9703 185.71" stroke="#E0AD14" stroke-width="2.3" stroke-miterlimit="10"/>
<path d="M128.039 202.199L97.8784 240.824L120.029 250.008L135.947 255.895L173.522 216.437L128.039 202.199Z" fill="#029D41"/>
<path d="M173.497 216.445L134.389 204.194L137.011 200.921L139.994 202.183L173.497 216.445Z" fill="white"/>
<path d="M173.497 216.445L139.994 202.183L143.043 198.67L149.402 202.38L173.497 216.445Z" fill="white"/>
<path d="M173.497 216.445L149.402 202.381L158.056 193.625L173.497 216.445Z" fill="#029D41"/>
<path d="M157.411 233.289C156.942 238.755 151.463 238.169 150.709 239.348C149.917 240.598 148.744 241.571 147.358 242.127C146.745 242.38 146.058 242.4 145.431 242.184C145.624 243.009 144.4 245.177 142.834 245.177C141.267 245.177 141.937 246.224 139.432 246.472C136.927 246.719 133.484 245.425 133.484 245.425C133.484 245.425 127.176 247.626 120.029 249.984C112.548 252.457 104.17 255.037 101.162 255.474C95.214 256.299 63.3112 260.281 55.9639 257.371C48.6165 254.46 44.6035 237.172 44.6035 237.172L72.3174 230.164L75.9702 238.549C75.9702 238.549 100.928 238.994 106.482 238.549C111.09 238.161 115.555 237.502 119.711 236.842C128.926 235.383 127.921 234.426 129.563 232.555C131.205 230.684 136.123 224.039 140.454 223.272C144.786 222.505 148.464 225.539 147.065 226.669C145.665 227.798 142.381 226.949 141.711 227.279C140.697 228.045 139.955 229.107 139.591 230.313C139.591 230.997 143.169 233.256 148.413 234.517C153.658 235.779 155.317 234.534 157.411 233.289Z" fill="#FEC2A0"/>
<path d="M7.40613 76.4473L5.74731 222.15H31.484" stroke="#28282A" stroke-width="2" stroke-miterlimit="10" stroke-linecap="round" stroke-dasharray="10.44 10.44"/>
<path d="M104.581 36.6599H208.675" stroke="#28282A" stroke-width="2" stroke-miterlimit="10" stroke-linecap="round" stroke-dasharray="11 11"/>
<path d="M280.825 91.0894V164.077" stroke="#28282A" stroke-width="2" stroke-miterlimit="10" stroke-linecap="round" stroke-dasharray="10.44 10.44"/>
<path d="M228.832 224.813H185.561" stroke="#28282A" stroke-width="2" stroke-miterlimit="10" stroke-linecap="round" stroke-dasharray="10.44 10.44"/>
<path d="M198.312 275.5L160.025 272.689V267.083L198.312 269.886V275.5Z" fill="#E3DCBA"/>
<path d="M198.312 269.885V275.5L220.672 266.538V261.814L198.312 269.885Z" fill="#F6EECA"/>
<path d="M220.681 261.806L198.32 269.886C198.32 269.886 185.385 268.385 174.519 264.939C168.654 263.051 163.318 260.586 161.047 257.47C164.499 256.2 173.111 252.036 175.29 250.981C179.353 256.249 186.39 262.523 198.329 266.703C201.981 265.12 205.869 263.405 210.527 261.386L220.681 261.806Z" fill="#E3DCBA"/>
<path d="M224.635 255.186L211.616 260.883C206.958 262.911 201.973 265.096 198.32 266.654C186.382 262.466 179.344 256.2 175.281 250.932C171.092 245.532 170.079 241.17 170.079 241.17C170.079 241.17 186.834 236.982 193.796 235.342C198.136 251.27 224.635 255.186 224.635 255.186Z" fill="#F6EECA"/>
<path d="M181.347 66.4635C181.138 66.2571 180.89 66.0933 180.617 65.9816C180.344 65.8698 180.051 65.8123 179.755 65.8123C179.459 65.8123 179.166 65.8698 178.893 65.9816C178.62 66.0933 178.372 66.2571 178.163 66.4635L169.459 75.1036L169.015 74.3369C168.611 73.48 168.108 72.6721 167.515 71.9295C166.778 71.2036 165.779 70.7953 164.736 70.7946C163.694 70.7938 162.694 71.2006 161.956 71.9254C161.218 72.6503 160.804 73.6338 160.803 74.6596C160.802 75.6855 161.215 76.6696 161.952 77.3956C162.698 78.0271 163.548 78.529 164.465 78.8796C164.736 78.9928 164.999 79.1222 165.253 79.267L160.31 84.1312C159.889 84.5456 159.652 85.1076 159.652 85.6936C159.652 86.2795 159.889 86.8415 160.31 87.2559L165.27 92.1448C165.434 91.879 165.583 91.6037 165.714 91.3204C166.072 90.4185 166.582 89.5824 167.222 88.847C167.958 88.1211 168.958 87.7128 170 87.7121C171.043 87.7113 172.043 88.1181 172.78 88.8429C173.518 89.5677 173.933 90.5513 173.934 91.5771C173.934 92.603 173.521 93.5871 172.785 94.3131C172.03 94.8969 171.209 95.3922 170.338 95.7888L169.5 96.2752L174.418 101.115C174.627 101.321 174.875 101.485 175.148 101.597C175.421 101.708 175.714 101.766 176.01 101.766C176.306 101.766 176.599 101.708 176.872 101.597C177.145 101.485 177.393 101.321 177.602 101.115L195.43 83.447C195.851 83.0326 196.087 82.4706 196.087 81.8846C196.087 81.2987 195.851 80.7367 195.43 80.3223L181.347 66.4635Z" fill="#4F6DDB"/>
<path d="M143.336 120.654C143.336 121.679 143.75 122.663 144.487 123.388C145.224 124.113 146.224 124.52 147.266 124.52C148.218 124.407 149.154 124.186 150.055 123.861L151.027 123.638V135.716H140.387C139.55 126.301 136.391 123.803 133.777 120.588C130.997 117.064 129 113.006 127.913 108.675H135.796L135.562 109.499C135.229 110.385 135.004 111.307 134.892 112.244C134.892 113.271 135.306 114.256 136.044 114.981C136.781 115.707 137.782 116.115 138.825 116.115C139.868 116.115 140.869 115.707 141.606 114.981C142.344 114.256 142.758 113.271 142.758 112.244C142.687 111.29 142.455 110.354 142.071 109.474C141.96 109.205 141.865 108.93 141.787 108.65H148.782C149.378 108.65 149.949 108.883 150.37 109.297C150.791 109.711 151.027 110.273 151.027 110.859V117.76C150.708 117.681 150.395 117.582 150.089 117.463C149.195 117.085 148.244 116.857 147.274 116.787C146.757 116.786 146.245 116.885 145.768 117.079C145.29 117.273 144.856 117.558 144.49 117.917C144.124 118.276 143.834 118.702 143.636 119.172C143.438 119.642 143.336 120.145 143.336 120.654Z" fill="#FEC519"/>
<path d="M176.722 108.65C175.649 112.978 173.665 117.036 170.899 120.563C168.286 123.778 165.144 126.276 164.289 135.691H153.649V123.638L152.694 123.894C151.793 124.219 150.857 124.44 149.905 124.553C148.861 124.553 147.861 124.146 147.123 123.42C146.386 122.694 145.971 121.709 145.971 120.683C145.971 119.656 146.386 118.671 147.123 117.946C147.861 117.22 148.861 116.812 149.905 116.812C150.875 116.882 151.826 117.11 152.72 117.488C153.026 117.606 153.339 117.706 153.658 117.785V110.859C153.658 110.273 153.894 109.711 154.315 109.297C154.737 108.883 155.308 108.65 155.903 108.65H162.706C162.636 108.395 162.549 108.144 162.446 107.9C162.063 107.02 161.831 106.084 161.759 105.13C161.759 104.103 162.174 103.118 162.911 102.393C163.649 101.667 164.649 101.259 165.693 101.259C166.736 101.259 167.736 101.667 168.474 102.393C169.212 103.118 169.626 104.103 169.626 105.13C169.511 106.067 169.286 106.988 168.956 107.875L168.738 108.65H176.722Z" fill="#FE3737"/>
<path d="M143.336 93.7275C143.336 94.753 143.75 95.7365 144.487 96.4616C145.224 97.1868 146.224 97.5941 147.266 97.5941C148.236 97.5261 149.188 97.2975 150.081 96.9181C150.387 96.7995 150.7 96.7004 151.019 96.6213V103.522C151.019 104.108 150.782 104.67 150.361 105.084C149.94 105.499 149.369 105.731 148.774 105.731H141.812C141.89 106.011 141.985 106.287 142.096 106.556C142.48 107.435 142.712 108.371 142.783 109.326C142.783 110.353 142.369 111.337 141.631 112.063C140.894 112.789 139.893 113.197 138.85 113.197C137.807 113.197 136.806 112.789 136.069 112.063C135.331 111.337 134.917 110.353 134.917 109.326C135.03 108.388 135.255 107.467 135.587 106.581L135.821 105.756H127.938C127.667 104.484 127.518 103.189 127.494 101.889C127.492 98.8461 128.099 95.8321 129.28 93.0195C130.462 90.207 132.194 87.651 134.38 85.4974C136.565 83.3439 139.16 81.6351 142.016 80.4684C144.873 79.3017 147.935 78.7002 151.027 78.698V90.776L150.072 90.5205C149.171 90.1957 148.235 89.9744 147.282 89.8609C146.765 89.8587 146.252 89.9571 145.774 90.1505C145.295 90.3438 144.86 90.6283 144.493 90.9876C144.127 91.3468 143.836 91.7738 143.637 92.244C143.439 92.7142 143.336 93.2184 143.336 93.7275Z" fill="#019C40"/>
<path d="M141.879 138.05V145.692C141.879 147.286 142.522 148.815 143.667 149.942C144.813 151.069 146.366 151.702 147.986 151.702H156.49C158.109 151.702 159.663 151.069 160.808 149.942C161.954 148.815 162.597 147.286 162.597 145.692V138.05H141.879Z" fill="#FEC519"/>
<path d="M191.392 77.5521C190.554 78.5003 189.607 79.5803 189.766 80.7427C189.926 81.9052 190.981 82.5235 191.534 81.864C192.087 81.2044 193.21 79.267 194.282 78.5167L192.263 76.6453C191.993 76.966 191.702 77.2689 191.392 77.5521Z" fill="#ED9D6F"/>
<path d="M273.528 201.515C272.553 202.466 271.329 203.134 269.993 203.444C269.555 203.513 269.112 203.546 268.669 203.543C268.223 203.548 267.777 203.512 267.337 203.436C266.015 203.112 264.811 202.433 263.86 201.474L268.552 197.97L273.528 201.515Z" fill="#F0F0F0"/>
<path d="M266.164 200.023L267.622 202.521H269.658L271.082 200.023L268.535 197.978L266.164 200.023Z" fill="#F66A31"/>
<path d="M271.082 223.173L267.722 229.002L264.271 223.651L267.622 202.521H269.666L271.082 223.173Z" fill="#F66A31"/>
<path d="M263.525 194.903L268.535 197.978L263.064 202.694L262.855 195.76L263.525 194.903Z" fill="white"/>
<path d="M275.631 193.51L268.535 197.978L274.341 202.661L276.72 194.532L275.631 193.51Z" fill="white"/>
<path d="M288.893 223.379L290.275 229.092L277.876 232.472L288.114 228.194L288.893 223.379Z" fill="#4059B3"/>
<path d="M258.942 221.079L258.599 232.473H262.034L258.942 221.079Z" fill="#4059B3"/>
<path d="M246.635 46.7017C246.635 46.7017 248.981 56.2817 252.341 56.2817C255.7 56.2817 259.529 41.887 259.529 41.887" stroke="#D62E2E" stroke-width="1.05" stroke-miterlimit="10"/>
<path d="M239.95 5.04272L245.454 14.598" stroke="#028537" stroke-width="1.05" stroke-miterlimit="10"/>
<path d="M243.669 4.28418L249.174 13.8312" stroke="#028537" stroke-width="1.05" stroke-miterlimit="10"/>
<path d="M247.398 3.69873L252.902 13.254" stroke="#028537" stroke-width="1.05" stroke-miterlimit="10"/>
<path d="M79.9412 50.2632C74.6464 53.8083 53.5762 61.1623 53.5762 61.1623C53.5762 61.1623 64.7355 75.7219 71.4377 78.6981C78.14 81.6743 82.0273 79.9183 85.3366 75.1035C76.389 74.5924 76.3639 59.67 76.3639 59.67L81.0639 53.3466C81.0639 53.3466 80.2931 51.2443 79.9412 50.2632Z" fill="#029D41"/>
<path d="M29.5486 65.8534C29.8251 65.8534 39.2334 70.1075 42.6851 71.0391C46.1367 71.9707 51.1551 73.1249 54.791 72.8693C58.427 72.6138 62.1803 71.2205 63.8224 71.1215C65.4644 71.0226 67.1735 69.9673 68.4888 69.3737C69.8041 68.7801 70.5162 67.8485 71.1278 68.4421C71.7394 69.0357 71.1697 69.8436 70.6503 70.4867C69.7039 71.312 68.6217 71.9727 67.45 72.4406C66.8886 72.6138 65.8498 73.3805 66.2854 74.1884C66.8302 75.0649 67.5836 75.7978 68.4804 76.3237C69.5947 77.1482 69.8795 79.3247 67.8521 79.1598C67.5924 79.9843 68.0532 80.5284 67.1065 80.9983C66.1598 81.4682 65.766 81.2539 65.766 81.6826C65.766 82.1113 65.766 82.8698 64.9282 82.9193C64.0904 82.9687 63.9145 82.7956 63.7051 83.4304C63.4956 84.0652 63.1019 84.4115 61.9792 84.4115C60.8566 84.4115 58.0416 83.6448 57.2709 82.9193C56.5001 82.1937 56.1064 80.9076 54.8497 80.7675C53.593 80.6273 51.6493 80.2975 48.2815 80.1739C44.9136 80.0502 38.9485 79.6627 35.011 79.2835C31.5464 79.0409 28.148 78.2272 24.9575 76.8761C22.0085 75.5653 21.1708 65.1691 29.5486 65.8534Z" fill="#FEC2A0"/>
<path d="M35.4131 59.2414C35.0948 59.1259 25.921 53.7423 21.8997 51.302C16.8227 60.6594 14.3596 67.7908 14.3596 71.8553C14.3596 77.5357 38.2784 83.3974 42.0819 83.3974C42.66 82.6307 44.5199 70.6104 44.5199 70.6104C44.5199 70.6104 32.6987 67.3126 32.8998 66.6943C34.324 62.6298 35.4131 59.332 35.4131 59.332V59.2826V59.2414Z" fill="#029D41"/>
<path d="M85.3114 75.1036C85.3114 75.1036 85.9398 70.8907 86.1911 67.7578C84.9336 69.9595 83.5344 72.0799 82.0022 74.106C82.4451 74.5018 82.9714 74.7964 83.5435 74.9689C84.1155 75.1413 84.7192 75.1873 85.3114 75.1036Z" fill="#027832"/>
<path d="M42.0986 83.4057L46.4216 80.108L42.9532 79.9019L42.0986 83.4057Z" fill="#027832"/>
<path d="M174.117 244.081L193.101 238.73" stroke="#727278" stroke-miterlimit="10"/>
<path d="M176.421 248.293L194.709 242.654" stroke="#727278" stroke-miterlimit="10"/>
<path d="M180.048 250.956L186.75 248.698L191.71 253.784L185.075 256.324L180.048 250.956Z" stroke="#727278" stroke-miterlimit="10"/>
<path d="M189.683 258.863L205.533 252.135" stroke="#727278" stroke-miterlimit="10"/>
<path d="M200.088 259.671C200.155 259.465 210.351 254.658 210.351 254.658" stroke="#727278" stroke-miterlimit="10"/>
<path d="M33.4281 99.4241V108.151H32.3713V100.532H32.3202L30.1895 101.947V100.873L32.3713 99.4241H33.4281ZM38.7847 108.271C38.1426 108.271 37.5957 108.096 37.144 107.747C36.6923 107.394 36.3472 106.884 36.1085 106.217C35.8699 105.546 35.7506 104.737 35.7506 103.788C35.7506 102.845 35.8699 102.039 36.1085 101.372C36.35 100.701 36.6966 100.19 37.1483 99.8374C37.6028 99.4823 38.1483 99.3048 38.7847 99.3048C39.421 99.3048 39.9651 99.4823 40.4168 99.8374C40.8713 100.19 41.2179 100.701 41.4565 101.372C41.698 102.039 41.8188 102.845 41.8188 103.788C41.8188 104.737 41.6994 105.546 41.4608 106.217C41.2222 106.884 40.877 107.394 40.4253 107.747C39.9736 108.096 39.4267 108.271 38.7847 108.271ZM38.7847 107.333C39.421 107.333 39.9153 107.026 40.2676 106.413C40.6199 105.799 40.796 104.924 40.796 103.788C40.796 103.032 40.7151 102.389 40.5531 101.857C40.394 101.326 40.1639 100.921 39.8628 100.643C39.5645 100.364 39.2051 100.225 38.7847 100.225C38.154 100.225 37.6611 100.536 37.306 101.158C36.9509 101.778 36.7733 102.654 36.7733 103.788C36.7733 104.543 36.8528 105.185 37.0119 105.714C37.171 106.242 37.3997 106.644 37.698 106.92C37.9992 107.195 38.3614 107.333 38.7847 107.333ZM46.5063 99.4241V108.151H45.4494V100.532H45.3983L43.2676 101.947V100.873L45.4494 99.4241H46.5063ZM33.2065 123.271C32.5645 123.271 32.0176 123.096 31.5659 122.747C31.1142 122.394 30.769 121.884 30.5304 121.217C30.2918 120.546 30.1725 119.737 30.1725 118.788C30.1725 117.845 30.2918 117.039 30.5304 116.372C30.7719 115.701 31.1185 115.19 31.5702 114.837C32.0247 114.482 32.5702 114.305 33.2065 114.305C33.8429 114.305 34.3869 114.482 34.8386 114.837C35.2932 115.19 35.6398 115.701 35.8784 116.372C36.1199 117.039 36.2406 117.845 36.2406 118.788C36.2406 119.737 36.1213 120.546 35.8827 121.217C35.644 121.884 35.2989 122.394 34.8472 122.747C34.3955 123.096 33.8486 123.271 33.2065 123.271ZM33.2065 122.333C33.8429 122.333 34.3372 122.026 34.6895 121.413C35.0418 120.799 35.2179 119.924 35.2179 118.788C35.2179 118.032 35.1369 117.389 34.975 116.857C34.8159 116.326 34.5858 115.921 34.2847 115.643C33.9864 115.364 33.627 115.225 33.2065 115.225C32.5759 115.225 32.083 115.536 31.7278 116.158C31.3727 116.778 31.1952 117.654 31.1952 118.788C31.1952 119.543 31.2747 120.185 31.4338 120.714C31.5929 121.242 31.8216 121.644 32.1199 121.92C32.421 122.195 32.7832 122.333 33.2065 122.333Z" fill="#28282A"/>
<path d="M33.4281 107.726V116.454H32.3713V108.834H32.3202L30.1895 110.249V109.175L32.3713 107.726H33.4281ZM38.7847 116.573C38.1426 116.573 37.5957 116.398 37.144 116.049C36.6923 115.697 36.3472 115.187 36.1085 114.519C35.8699 113.848 35.7506 113.039 35.7506 112.09C35.7506 111.147 35.8699 110.341 36.1085 109.674C36.35 109.003 36.6966 108.492 37.1483 108.14C37.6028 107.785 38.1483 107.607 38.7847 107.607C39.421 107.607 39.9651 107.785 40.4168 108.14C40.8713 108.492 41.2179 109.003 41.4565 109.674C41.698 110.341 41.8188 111.147 41.8188 112.09C41.8188 113.039 41.6994 113.848 41.4608 114.519C41.2222 115.187 40.877 115.697 40.4253 116.049C39.9736 116.398 39.4267 116.573 38.7847 116.573ZM38.7847 115.635C39.421 115.635 39.9153 115.329 40.2676 114.715C40.6199 114.101 40.796 113.226 40.796 112.09C40.796 111.334 40.7151 110.691 40.5531 110.16C40.394 109.628 40.1639 109.223 39.8628 108.945C39.5645 108.667 39.2051 108.527 38.7847 108.527C38.154 108.527 37.6611 108.839 37.306 109.461C36.9509 110.08 36.7733 110.956 36.7733 112.09C36.7733 112.846 36.8528 113.488 37.0119 114.016C37.171 114.545 37.3997 114.947 37.698 115.222C37.9992 115.498 38.3614 115.635 38.7847 115.635ZM46.5063 107.726V116.454H45.4494V108.834H45.3983L43.2676 110.249V109.175L45.4494 107.726H46.5063ZM33.2065 131.573C32.5645 131.573 32.0176 131.398 31.5659 131.049C31.1142 130.697 30.769 130.187 30.5304 129.519C30.2918 128.848 30.1725 128.039 30.1725 127.09C30.1725 126.147 30.2918 125.341 30.5304 124.674C30.7719 124.003 31.1185 123.492 31.5702 123.14C32.0247 122.785 32.5702 122.607 33.2065 122.607C33.8429 122.607 34.3869 122.785 34.8386 123.14C35.2932 123.492 35.6398 124.003 35.8784 124.674C36.1199 125.341 36.2406 126.147 36.2406 127.09C36.2406 128.039 36.1213 128.848 35.8827 129.519C35.644 130.187 35.2989 130.697 34.8472 131.049C34.3955 131.398 33.8486 131.573 33.2065 131.573ZM33.2065 130.635C33.8429 130.635 34.3372 130.329 34.6895 129.715C35.0418 129.101 35.2179 128.226 35.2179 127.09C35.2179 126.334 35.1369 125.691 34.975 125.16C34.8159 124.628 34.5858 124.223 34.2847 123.945C33.9864 123.667 33.627 123.527 33.2065 123.527C32.5759 123.527 32.083 123.839 31.7278 124.461C31.3727 125.08 31.1952 125.956 31.1952 127.09C31.1952 127.846 31.2747 128.488 31.4338 129.016C31.5929 129.545 31.8216 129.947 32.1199 130.222C32.421 130.498 32.7832 130.635 33.2065 130.635Z" fill="#28282A"/>
<path d="M33.4281 116.028V124.756H32.3713V117.136H32.3202L30.1895 118.551V117.477L32.3713 116.028H33.4281ZM39.0063 116.028V124.756H37.9494V117.136H37.8983L35.7676 118.551V117.477L37.9494 116.028H39.0063ZM44.3628 124.875C43.7207 124.875 43.1739 124.7 42.7222 124.351C42.2705 123.999 41.9253 123.489 41.6867 122.821C41.448 122.151 41.3287 121.341 41.3287 120.392C41.3287 119.449 41.448 118.643 41.6867 117.976C41.9281 117.305 42.2747 116.794 42.7264 116.442C43.181 116.087 43.7264 115.909 44.3628 115.909C44.9992 115.909 45.5432 116.087 45.9949 116.442C46.4494 116.794 46.796 117.305 47.0347 117.976C47.2761 118.643 47.3969 119.449 47.3969 120.392C47.3969 121.341 47.2776 122.151 47.0389 122.821C46.8003 123.489 46.4551 123.999 46.0034 124.351C45.5517 124.7 45.0048 124.875 44.3628 124.875ZM44.3628 123.937C44.9992 123.937 45.4935 123.631 45.8457 123.017C46.198 122.403 46.3742 121.528 46.3742 120.392C46.3742 119.636 46.2932 118.993 46.1313 118.462C45.9722 117.93 45.7421 117.526 45.4409 117.247C45.1426 116.969 44.7832 116.829 44.3628 116.829C43.7321 116.829 43.2392 117.141 42.8841 117.763C42.529 118.382 42.3514 119.258 42.3514 120.392C42.3514 121.148 42.431 121.79 42.5901 122.318C42.7492 122.847 42.9778 123.249 43.2761 123.524C43.5773 123.8 43.9395 123.937 44.3628 123.937ZM33.4281 131.028V139.756H32.3713V132.136H32.3202L30.1895 133.551V132.477L32.3713 131.028H33.4281Z" fill="#28282A"/>
<path d="M272.07 104.676C272.07 104.676 271.836 104.965 271.442 105.501C270.018 107.405 266.574 112.385 265.259 117.562C264.036 122.41 263.198 125.04 262.855 126.079L262.804 126.21C262.804 126.21 262.804 126.293 262.804 126.326L262.687 126.631C257.04 117.373 251.369 114.965 245.412 110.645C245.434 110.626 245.451 110.601 245.461 110.574C245.471 110.547 245.474 110.517 245.471 110.488C245.219 108.699 244.909 102.368 252.232 98.4104C263.014 101.321 272.07 104.676 272.07 104.676Z" fill="#F6EECA"/>
<path d="M262.628 126.598C262.126 126.178 251.737 117.669 241.835 122.698C237.316 119.658 232.957 116.395 228.774 112.921C228.003 112.286 227.559 111.906 227.559 111.906C227.559 111.906 240.126 106.663 245.152 110.629C245.186 110.653 245.227 110.666 245.27 110.666C245.312 110.666 245.353 110.653 245.387 110.629C251.31 114.932 256.982 117.34 262.628 126.598Z" fill="#F6EECA"/>
<path d="M262.645 126.615C262.645 126.615 250.154 121.165 241.508 125.716C236.33 121.593 230.936 117.74 225.347 114.174C226.416 113.584 227.572 113.161 228.774 112.921C232.956 116.403 237.316 119.675 241.835 122.723C251.746 117.694 262.126 126.202 262.629 126.623C262.637 126.606 262.645 126.606 262.645 126.615Z" fill="#5C5D63"/>
<path d="M275.556 107.578C269.691 111.049 263.827 123.515 262.804 126.194C263.123 125.254 264.321 112.5 271.442 105.484C272.958 105.864 274.365 106.58 275.556 107.578Z" fill="#5C5D63"/>
<path d="M245.354 110.612C247.208 111.387 248.979 112.343 250.64 113.465C252.32 114.57 253.906 115.808 255.382 117.166C256.136 117.834 256.823 118.56 257.527 119.277C258.23 119.994 258.884 120.753 259.462 121.577C260.694 123.148 261.761 124.839 262.645 126.623C262.017 125.848 261.506 124.974 260.853 124.257L259.939 123.086C259.621 122.707 259.286 122.344 258.968 121.973C257.668 120.494 256.283 119.091 254.82 117.768C253.38 116.433 251.846 115.179 250.271 113.976C249.484 113.377 248.68 112.8 247.858 112.244C247.037 111.676 246.2 111.14 245.354 110.612Z" fill="#5C5D63"/>
<path d="M253.999 98.905L256.219 97.3633L275.555 104.783C269.983 108.425 265.895 113.884 264.011 120.2C257.895 107.974 253.999 98.905 253.999 98.905Z" fill="#F6EECA"/>
<path d="M253.999 98.905C256.915 99.8696 259.805 100.892 262.687 101.939C265.569 102.986 268.434 104.074 271.308 105.146L271.852 105.352L271.45 105.789C270.163 107.195 268.973 108.685 267.89 110.249C266.807 111.822 265.852 113.476 265.033 115.196C264.216 116.911 263.589 118.707 263.165 120.555C262.771 122.422 262.649 124.335 262.804 126.235C262.463 124.328 262.438 122.379 262.729 120.464C263.081 118.555 263.643 116.689 264.405 114.899C265.21 113.131 266.16 111.43 267.245 109.812C268.314 108.183 269.531 106.651 270.881 105.237L271.023 105.88C268.175 104.75 265.309 103.662 262.478 102.483C259.646 101.304 256.806 100.125 253.999 98.905Z" fill="#5C5D63"/>
<mask id="mask1_1007_24214" style="mask-type:luminance" maskUnits="userSpaceOnUse" x="256" y="166" width="27" height="22">
<path d="M259.99 181.539C260.192 180.73 260.276 179.897 260.241 179.065C260.073 177.804 271.534 184.012 271.534 184.012C271.534 184.012 270.403 185.892 273.872 186.98C278.496 188.439 286.489 180.962 280.834 171.464C277.608 166.056 265.201 163.846 257.761 168.991C259.495 171.959 256.504 173.113 256.504 175.636C256.496 179.741 259.336 180.624 259.99 181.539Z" fill="white"/>
</mask>
<g mask="url(#mask1_1007_24214)">
<path d="M262.646 163.5C262.646 163.5 264.455 175.413 283.305 173.303" stroke="#494A4F" stroke-miterlimit="10"/>
<path d="M267.588 162.387C267.588 162.387 268.007 172.915 282.777 171.975" stroke="#494A4F" stroke-miterlimit="10"/>
</g>
<path d="M64.8528 15.2409L62.1216 10.9868" stroke="#FEC2A0" stroke-width="2" stroke-miterlimit="10"/>
<path d="M66.9809 13.1139L64.2498 8.85156" stroke="#FEC2A0" stroke-width="2" stroke-miterlimit="10"/>
<path d="M54.3889 33.049L57.6395 39.0014L59.734 31.2517H54.3889V33.049Z" fill="#FEC2A0"/>
</g>
<defs>
<clipPath id="clip0_1007_24214">
<rect width="320" height="275" fill="white" transform="translate(0 0.5)"/>
</clipPath>
</defs>
</svg>
