<svg id="Слой_2" data-name="Слой 2" xmlns="http://www.w3.org/2000/svg" xmlns:xlink="http://www.w3.org/1999/xlink" viewBox="0 0 381.96 333.56"><defs><style>.cls-1{fill:none;}.cls-2{fill:#fec2a0;}.cls-3{fill:#e3a988;}.cls-4{fill:#f9b995;}.cls-5{fill:#f6eeca;}.cls-6{fill:#f5f5f5;}.cls-7{fill:#f99979;}.cls-8{fill:#ed9d6f;}.cls-9{fill:#ffc61a;}.cls-10{fill:#fe3737;}.cls-11{fill:#029d41;}.cls-12{fill:#303134;}.cls-13{fill:#cc8760;}.cls-14{fill:#5c5d63;}.cls-15{fill:#4f6ddb;}.cls-16{fill:#fff;}.cls-17{fill:#fec519;}.cls-18{clip-path:url(#clip-path);}.cls-19{fill:#4762c4;}.cls-20{fill:#e0ad14;}.cls-21{fill:#019c40;}.cls-22{fill:#f0f0f0;}.cls-23{fill:#f66a31;}.cls-24{fill:#4059b3;}.cls-25{fill:#d62e2e;}.cls-26{fill:#028537;}.cls-27{fill:#027832;}.cls-28{fill:#727278;}.cls-29{clip-path:url(#clip-path-2);}.cls-30{fill:#494a4f;}</style><clipPath id="clip-path" transform="translate(-25.71 -33.64)"><path class="cls-1" d="M108.73,195.69c5.82-10.66,25.54-9.93,33.93-10.31,9.86-.45,18.45-4.79,18.44,6.05a57.07,57.07,0,0,1-4.22,20.37,26,26,0,0,0-2.09-10.93c-.53-1.58-3.2,1.17-7.75,1.36s-10-.3-10.18.57l-3.71,12.92a5.08,5.08,0,0,1-4,3.6h0s.18-10.72-7.91-10.37-7.56,13.54,1.58,16.17a48.51,48.51,0,0,1-3.52,9.67S102.91,206.34,108.73,195.69Z"/></clipPath><clipPath id="clip-path-2" transform="translate(-25.71 -33.64)"><path class="cls-1" d="M336,253.23a10.68,10.68,0,0,0,.3-3c-.2-1.53,13.48,6,13.48,6s-1.35,2.28,2.79,3.6c5.52,1.77,15.06-7.3,8.31-18.82-3.85-6.56-18.66-9.24-27.54-3,2.07,3.6-1.5,5-1.5,8.06C331.87,251.05,335.26,252.12,336,253.23Z"/></clipPath></defs><title>Responsibilities_dark_mode</title><path class="cls-2" d="M355.71,325.59l-5.55.77c-1.55.22-4.34,3-5.23,3.55a13.39,13.39,0,0,1-4.19,1.24c-.62,0-2.74,2.34-3.84,2.29a27.13,27.13,0,0,0-4.77.57c-1.68.31-1.81.35-1.5-.75.16-.56,1-1,2.08-1.36s2.43-.81,3.73-1.42a13.66,13.66,0,0,0,4.28-3.36l.1-.13s2.65-3,2-3.35-1.63.79-2.65,1.5-3.26.79-3.66-.18,1-1.68,4.81-4,4.46-2.38,7.59-2.16a34,34,0,0,0,6.4-.26A17,17,0,0,1,355.71,325.59Z" transform="translate(-25.71 -33.64)"/><path class="cls-3" d="M341.26,330.79l0-.26s1.84-.34,4.24-3.09l.2.17C343.18,330.44,341.34,330.77,341.26,330.79Z" transform="translate(-25.71 -33.64)"/><path class="cls-4" d="M340.73,327.12a13.66,13.66,0,0,1-4.28,3.36c-1.29.61-2.65,1-3.73,1.42-.61-.21-1.5-.5-1.86-.59-.57-.15-.88-.56-.35-1s5.25-.4,5.25-.4-3.53-.44-3.49-1.06.35-.66.93-.71,4.28.23,4.76.26a8,8,0,0,1-2.56-.66c-.44-.4-.62-.35-.35-.79s2-.09,3,0C338.57,327,339.83,327.07,340.73,327.12Z" transform="translate(-25.71 -33.64)"/><path class="cls-5" d="M390.92,130H283.7a5,5,0,0,1-5-5V57.11a5,5,0,0,1,5-5H390.92a5,5,0,0,1,5,5V125A5,5,0,0,1,390.92,130ZM283.7,53.08a4,4,0,0,0-4,4V125a4,4,0,0,0,4,4H390.92a4,4,0,0,0,4-4V57.11a4,4,0,0,0-4-4Z" transform="translate(-25.71 -33.64)"/><path class="cls-6" d="M262.42,360.39,216.72,357,238,351.91C251,356.11,262.42,360.39,262.42,360.39Z" transform="translate(-25.71 -33.64)"/><path class="cls-2" d="M265.93,232.65c.88-1.3,1.06-2.34-.19-2.8s-6.44,4.08-6.44,4.08l2.41-3.89c.34-.56.41-1.9-1.23-1.61s-3,2.8-4.31,4.86-3.73,3.92-6.17,5.63-8.19,2.93-8.29,2.09,4.53-4.34,6.2-5.92,1.4-3.51.84-4.09-1.3-.88-2.9.59a65.33,65.33,0,0,1-7.66,5.17,48.86,48.86,0,0,0-10.35,8.65,40.13,40.13,0,0,1-7.12,10.14c-12.82,12.8-37,34.77-43.41,41.16-15.56,15.51-7.16,29.29,5.94,27.29,15-2.3,50.15-65.08,50.56-65.43,1.11-.93,7.43-3,10.62-3.35S254.88,251,255.68,250s2.33-4.39,3.12-5.67,6.83-8.68,7.45-9.68S266.41,232.87,265.93,232.65Z" transform="translate(-25.71 -33.64)"/><path class="cls-7" d="M251.4,243l-.31-.47a24.42,24.42,0,0,0,4.46-3.69c1.14-1.51,3.5-5,3.52-5.07l.46.31s-2.39,3.57-3.54,5.1A24.3,24.3,0,0,1,251.4,243Z" transform="translate(-25.71 -33.64)"/><path class="cls-7" d="M259.72,238.22l-.44-.35c.15-.19,3.64-4.62,4.75-5.4a1.57,1.57,0,0,1,2.11,0l-.41.38.21-.19-.2.19c-.05-.05-.53-.51-1.38.08C263.31,233.66,259.75,238.17,259.72,238.22Z" transform="translate(-25.71 -33.64)"/><path class="cls-7" d="M249,248.78l-.15,0,.1-.26.05-.27a8.59,8.59,0,0,0,3.78-2c.32-.33.59-.58.83-.8a4.83,4.83,0,0,0,1.57-2.34l.07-.18c.62-1.68,1.67-4.49,3.12-5.09a1.46,1.46,0,0,1,1.21,0,1.31,1.31,0,0,1,.73.84c.51,1.65-1.43,4.85-1.51,5l-.48-.29c.53-.87,1.81-3.37,1.45-4.53a.76.76,0,0,0-.43-.5.91.91,0,0,0-.76,0c-1.23.51-2.26,3.28-2.81,4.77l-.07.18a5.34,5.34,0,0,1-1.72,2.55c-.23.21-.5.46-.81.78A8.68,8.68,0,0,1,249,248.78Z" transform="translate(-25.71 -33.64)"/><path class="cls-8" d="M304.21,119.49c-3.55-.8-36-5.3-38.73-4.75-2.9.6-12.89,2.6-14.31,3.33s-6.2,5.42-7.9,7.53-2.4,2.73-1.44,3.37,2-.54,2-.54a1.94,1.94,0,0,0,1.85-.36c.61.38,1.13,0,2.4-1.24a20.8,20.8,0,0,1,5.63-3.67c1.72-.65,2.31-.42,2.57.2.18.44-.36,1.56-1.06,2.61l2.12,2.5.09-.07c1.37-.91,3-2.08,4.25-2.18a10.72,10.72,0,0,0,4-1.77c1-.63,1.36-1.18,2.46-1.23,10.91-.49,28.75,11.94,34.73,12.68,6.71.83,8.25-3,9-6.84S311.36,121.12,304.21,119.49Z" transform="translate(-25.71 -33.64)"/><circle class="cls-9" cx="351.35" cy="26.25" r="4.09"/><circle class="cls-10" cx="361.91" cy="26.25" r="4.09"/><circle class="cls-11" cx="340.59" cy="26.25" r="4.09"/><rect class="cls-5" x="253.47" y="33.13" width="116.27" height="1"/><path class="cls-11" d="M305.44,66.49a12.08,12.08,0,0,0-1.25-3.19c-1-1.44,16.67-.86,16.67-.86s-2.05-6.15,2.7-7.38,6.82,6.49,2,9.58a14.29,14.29,0,0,0,3.69,4.83c8.11-17.78-1.78-29.89-5.43-31.49-5.78-2.53-28.36,5.61-27,13.8S304.09,65.77,305.44,66.49Z" transform="translate(-25.71 -33.64)"/><path class="cls-8" d="M317.27,76.47c.88,1.17,2.54,2.25,1.39,5.83,3.7,2.06-1.63,22.19,8.51,22.19s8.17-27.75,8.17-27.75c-.48-.37-8-9-9.83-12.08A5.93,5.93,0,0,0,328.27,59c-.24-2.52-2.06-4.62-4.71-3.94-4.76,1.23-2.7,7.38-2.7,7.38l-8.06-9.87-11.15,6s2.08,4,2.54,4.7a12.08,12.08,0,0,1,1.25,3.19,40.66,40.66,0,0,1,1,4.65C306.86,73.8,311.82,79.65,317.27,76.47Z" transform="translate(-25.71 -33.64)"/><path class="cls-10" d="M296.27,104.29l2.22,1.4,10.64,23.23,48.23.1,15.43-22s-5.94-18.45-10.58-22c-3.57-2.73-25.38-6.54-27.21-9.1,0,0-4.78,21-7.83,21.28S321.35,82.65,319,80.14C319,80.1,295,91.06,296.27,104.29Z" transform="translate(-25.71 -33.64)"/><path class="cls-8" d="M298.49,105.7c6.58,4.48,11.31,7.32,11.31,7.32s3.32,19.55-.6,21.22c-3.51,1.49-7.11,2.71-11.23-3.38C294.94,126.39,297.54,116.18,298.49,105.7Z" transform="translate(-25.71 -33.64)"/><path class="cls-12" d="M310.29,61a.24.24,0,0,1-.18-.39s.94-1.1,3.66-.76a.24.24,0,0,1,.21.27.24.24,0,0,1-.27.21c-2.42-.3-3.22.58-3.23.59A.24.24,0,0,1,310.29,61Z" transform="translate(-25.71 -33.64)"/><path class="cls-12" d="M305.6,62.76a.24.24,0,0,1-.13,0,2.16,2.16,0,0,0-1.72-.29.24.24,0,1,1-.18-.45,2.63,2.63,0,0,1,2.16.34.24.24,0,0,1-.13.44Z" transform="translate(-25.71 -33.64)"/><ellipse class="cls-12" cx="312.64" cy="63.78" rx="0.86" ry="1.75" transform="translate(-30.5 62.56) rotate(-17.36)"/><ellipse class="cls-12" cx="306.29" cy="65.77" rx="0.7" ry="1.43" transform="translate(-31.38 60.76) rotate(-17.36)"/><path class="cls-12" d="M309.15,70.65a1,1,0,0,1-.64-.22,2.69,2.69,0,0,1-.28-3.12.24.24,0,1,1,.42.23A2.25,2.25,0,0,0,308.8,70c.39.3.9,0,1.25-.35a.24.24,0,1,1,.33.35A1.86,1.86,0,0,1,309.15,70.65Z" transform="translate(-25.71 -33.64)"/><path class="cls-12" d="M310.51,72.43a.24.24,0,0,1,0-.48,3.18,3.18,0,0,0,2.45-.89,1.83,1.83,0,0,0,.4-1.33.24.24,0,0,1,.47-.08,2.29,2.29,0,0,1-.5,1.7,3.62,3.62,0,0,1-2.81,1.07Z" transform="translate(-25.71 -33.64)"/><path class="cls-13" d="M317.27,76.47s2.44-1.81,2.58-4.27c1,3.15-1.26,6-1.26,6Z" transform="translate(-25.71 -33.64)"/><path class="cls-12" d="M313.26,68a3.55,3.55,0,1,1,1.06-.16A3.57,3.57,0,0,1,313.26,68Zm0-6.59a3.06,3.06,0,0,0-.91.14,3,3,0,1,0,.91-.14Z" transform="translate(-25.71 -33.64)"/><path class="cls-12" d="M305.82,70.13a2.84,2.84,0,0,1-1.57-.5,3.93,3.93,0,0,1-1.55-2.12c-.58-1.87.2-3.78,1.75-4.26a2.69,2.69,0,0,1,2.31.38,4.09,4.09,0,0,1,1.48,4.75A2.69,2.69,0,0,1,306.57,70,2.48,2.48,0,0,1,305.82,70.13Zm-.63-6.49a2,2,0,0,0-.59.09c-1.28.4-1.92,2-1.42,3.63a3.43,3.43,0,0,0,1.35,1.85,2.11,2.11,0,0,0,3.26-1,3.59,3.59,0,0,0-1.3-4.15A2.36,2.36,0,0,0,305.19,63.64Z" transform="translate(-25.71 -33.64)"/><rect class="cls-12" x="307.83" y="64.63" width="2.19" height="0.5" transform="translate(-31.03 61.17) rotate(-17.3)"/><rect class="cls-12" x="315.67" y="60.85" width="5.17" height="0.5" transform="translate(-6.96 151.21) rotate(-33.32)"/><path class="cls-8" d="M368.43,108.92a2.58,2.58,0,0,0-3.8-1.48c-5.27,3.15-12.41,7.23-12.74,7.36h0l0,.06,0,.07,3.06,10a130,130,0,0,1-12.12,4.77c-4.3,1.18-10.54,2.64-15.06,2.31s-9.2-2-11.24-2.2-4.19-1.46-5.81-2.21-2.53-1.93-3.28-1.18-.05,1.77.59,2.58a13.86,13.86,0,0,0,4,2.47c.7.22,2,1.18,1.45,2.2s-2.64,2.42-3,2.26a6.69,6.69,0,0,1-.86-.48s-1.34,1.29-1.34,1.83.22,2.2,2.74,2c.32,1.08.27,2.42,1.45,3s1.67.32,1.67.86,0,1.51,1,1.56,1.26-.16,1.53.65.75,1.24,2.15,1.24,4.89-1,5.86-1.88,1.51-2.53,3.07-2.69,4-.59,8.17-.75,11.62-.65,16.51-1.13,18-3.36,19.9-7.93C374,128.12,370.64,116.42,368.43,108.92Z" transform="translate(-25.71 -33.64)"/><path class="cls-5" d="M402.72,316H307.3a5,5,0,0,1-4.95-4.95V251.88a5,5,0,0,1,4.95-4.95h95.42a5,5,0,0,1,4.95,4.95v59.19A5,5,0,0,1,402.72,316ZM307.3,248a3.93,3.93,0,0,0-3.92,3.92v59.19A3.93,3.93,0,0,0,307.3,315h95.42a3.93,3.93,0,0,0,3.92-3.92V251.88a3.93,3.93,0,0,0-3.92-3.92Z" transform="translate(-25.71 -33.64)"/><ellipse class="cls-9" cx="364.32" cy="220.27" rx="3.8" ry="3.61"/><ellipse class="cls-10" cx="374.42" cy="220.27" rx="3.8" ry="3.61"/><ellipse class="cls-11" cx="354.29" cy="220.27" rx="3.8" ry="3.61"/><rect class="cls-5" x="277.16" y="226.29" width="104.29" height="1.03"/><path class="cls-14" d="M336,253.23a10.68,10.68,0,0,0,.3-3c-.2-1.53,13.48,6,13.48,6s-1.35,2.28,2.79,3.6c5.52,1.77,15.06-7.3,8.31-18.82-3.85-6.56-18.66-9.24-27.54-3,2.07,3.6-1.5,5-1.5,8.06C331.87,251.05,335.26,252.12,336,253.23Z" transform="translate(-25.71 -33.64)"/><path class="cls-2" d="M341.36,265.84c.22,1.27,1.1,2.79-1.24,5.16,2.09,3.11,4.42,12.67,4.42,12.67l11-10.36c-.23-.48-2.67-10.33-2.9-13.47A5.25,5.25,0,0,0,357,256.5c.82-2.09.23-4.47-2.13-5-4.24-.94-5.09,4.73-5.09,4.73s-2-1.16-2.37-6.44-5.57-.9-7.38-6.17c-2.9.85-3.92,5.07-3.73,6.6a10.68,10.68,0,0,1-.3,3A36,36,0,0,1,335,257.3C334.22,259.56,335.79,266.17,341.36,265.84Z" transform="translate(-25.71 -33.64)"/><path class="cls-15" d="M320.43,293.18l2,1.24L330,315.17H375s-4.87-11.25-5.34-12.58l0-.06,0-.05h0a52.78,52.78,0,0,0,9.76-4.8c6.59-4.31,1-18.83-3.46-21.44-6.52-3.79-16.89-3.37-21.15-8.49l-.94,1.53a9,9,0,0,1-14.38,1.23s-.16.08-.23.13C335.52,273.77,317.41,278.89,320.43,293.18Z" transform="translate(-25.71 -33.64)"/><path class="cls-12" d="M345.14,251.73a.21.21,0,0,1-.12,0c-1.79-1.21-2.78-.83-2.79-.83a.21.21,0,0,1-.28-.11.21.21,0,0,1,.11-.28s1.18-.49,3.19.87a.21.21,0,0,1-.12.39Z" transform="translate(-25.71 -33.64)"/><path class="cls-12" d="M337.75,250.38a.21.21,0,0,1-.18-.11,1.92,1.92,0,0,0-1.24-.92.21.21,0,0,1-.19-.23.2.2,0,0,1,.23-.19,2.31,2.31,0,0,1,1.57,1.13.21.21,0,0,1-.08.29Z" transform="translate(-25.71 -33.64)"/><ellipse class="cls-12" cx="342.8" cy="253.99" rx="1.54" ry="0.76" transform="translate(9.4 515.89) rotate(-80.38)"/><ellipse class="cls-12" cx="337.14" cy="252.83" rx="1.38" ry="0.68" transform="translate(5.83 509.35) rotate(-80.38)"/><path class="cls-12" d="M337.84,258.11a1,1,0,0,1-1-.55,2.38,2.38,0,0,1,1-2.57.21.21,0,1,1,.24.35,2,2,0,0,0-.89,2c.19.4.72.34,1.13.22a.21.21,0,0,1,.12.41A2.41,2.41,0,0,1,337.84,258.11Z" transform="translate(-25.71 -33.64)"/><path class="cls-12" d="M339.41,260.41a4.18,4.18,0,0,1-1.75-.46.21.21,0,0,1,.18-.38,2.81,2.81,0,0,0,2.29.28A1.6,1.6,0,0,0,341,259a.21.21,0,0,1,.4.13,2,2,0,0,1-1.07,1.14A2.2,2.2,0,0,1,339.41,260.41Z" transform="translate(-25.71 -33.64)"/><path class="cls-7" d="M341.36,265.84s2.65-.45,3.75-2.33a6.39,6.39,0,0,1-3.4,4.23Z" transform="translate(-25.71 -33.64)"/><path class="cls-15" d="M369.63,302.47c8.42-3.21,9.42-24.29,11.14-19.35,4.27,12.29,6.39,30.86,6,35.41-.16,1.88-4.38,3-6.5,4.08-1.15-1.54-3.9-2.17-4.89-2.34l-.37-.06-5.39-17.62,0-.06,0-.05Z" transform="translate(-25.71 -33.64)"/><path class="cls-15" d="M376.09,309.85c-.23,0-15.14,4.16-21.84,6l3.91,10.76a76.57,76.57,0,0,0,10.3-1c4.27-.81,9.4-2,12.68-3.46S385.31,309.09,376.09,309.85Z" transform="translate(-25.71 -33.64)"/><path class="cls-16" d="M351.58,318.23l2.78,8.5s1.56,0,3.79-.09l-3.37-9.3Z" transform="translate(-25.71 -33.64)"/><path class="cls-2" d="M306,281.36a10.07,10.07,0,0,0-1.87-1.36c-1.4-.87-2.69-1.39-3.77-2.8s-1.88-2.9-2.71-3.18-1.29,1.7-.77,2.65,1.89,2.35,2,2.69a3.51,3.51,0,0,1,0,.88s-9.92-1.55-11.21-1.56-2.5.05-2.34.92,1,1.14,3.43,1.56,5.39.59,5.28.7-1.83.14-1.75,1.25.45,1.22.45,1.22a.88.88,0,0,0-.47,1.1,2.09,2.09,0,0,0,1,1.07s-.93.43-.31,1.58,3.06,1.31,5.06,1.32,3.91.26,5.14-.48a5.65,5.65,0,0,1,3.71-.88l.81-5.56Z" transform="translate(-25.71 -33.64)"/><path class="cls-2" d="M311.35,286a29.72,29.72,0,0,0-3.73-3.57c-4.51-3.36-3.31,4.06-3.31,4.06a48.23,48.23,0,0,1,2.36,4.24A24.28,24.28,0,0,0,311.35,286Z" transform="translate(-25.71 -33.64)"/><path class="cls-16" d="M311.51,285.8c-1.27,1.87-5.23,5.25-6.93,6.68,0,0,.42,1.13,1.14,2.92l7.61-7.53C312.7,287.14,312.1,286.43,311.51,285.8Z" transform="translate(-25.71 -33.64)"/><path class="cls-15" d="M336.47,302.26s-10.23-6.51-16.06-10.47c-.11,1.24-.22,2.52-.3,3.82-2.11-2.93-4.31-5.84-6.35-8.27l-8,8.06c2.56,6.38,9,21.38,15.22,26.15,2.19,1.69,6.46,1,8.92,0C335.9,318.94,336.47,302.26,336.47,302.26Z" transform="translate(-25.71 -33.64)"/><path class="cls-2" d="M294.57,288.53c.1,0,2.91.23,3.82-.23s.41-1.6-.85-1.67c1.51-.45,1.26-1,1.12-1.6s-1.45-.65-1.45-.65,1.32-.05,1.27-1.12-3.67-1.33-3.67-1.33" transform="translate(-25.71 -33.64)"/><path class="cls-7" d="M296.13,288.78c-.85,0-1.57-.06-1.58-.06a.19.19,0,0,1-.16-.21.18.18,0,0,1,.21-.16c.26,0,2.9.19,3.71-.22a.53.53,0,0,0,.35-.59,1.11,1.11,0,0,0-1.12-.71l-1.09-.06,1-.31c1.23-.36,1.15-.69,1-1.24l0-.13c-.09-.4-1-.5-1.27-.5v-.38a1.48,1.48,0,0,0,.9-.37.74.74,0,0,0,.18-.56c0-.62-2.06-1-3.5-1.15a.19.19,0,0,1,0-.38h0c.63,0,3.79.33,3.85,1.51a1.11,1.11,0,0,1-.29.84,1.28,1.28,0,0,1-.3.24,1,1,0,0,1,.77.66l0,.13a1.06,1.06,0,0,1-.67,1.46,1.29,1.29,0,0,1,.81.87.9.9,0,0,1-.55,1A6.19,6.19,0,0,1,296.13,288.78Z" transform="translate(-25.71 -33.64)"/><path class="cls-5" d="M133.44,119.53H30.53a4.83,4.83,0,0,1-4.82-4.82V49.53a4.83,4.83,0,0,1,4.82-4.82H133.44a4.83,4.83,0,0,1,4.82,4.82v65.18A4.83,4.83,0,0,1,133.44,119.53ZM30.53,45.71a3.82,3.82,0,0,0-3.82,3.82v65.18a3.82,3.82,0,0,0,3.82,3.82H133.44a3.82,3.82,0,0,0,3.82-3.82V49.53a3.82,3.82,0,0,0-3.82-3.82Z" transform="translate(-25.71 -33.64)"/><circle class="cls-9" cx="18.15" cy="18.58" r="3.92"/><circle class="cls-11" cx="7.74" cy="18.58" r="3.92"/><circle class="cls-10" cx="28.47" cy="18.58" r="3.92"/><rect class="cls-5" x="0.5" y="25.16" width="111.55" height="1"/><path class="cls-17" d="M114.79,67.22c-4-2.24-22-5.23-25-5.77-.34-8.32-5.56-8.26-5.93-14.15A10.81,10.81,0,0,1,93.18,36c6.42-6.18,24.38.77,26.73,8.34S117.47,64,114.79,67.22Z" transform="translate(-25.71 -33.64)"/><path class="cls-2" d="M101.22,68.12c-.84,1.12-2.43,2.16-1.34,5.6-3.55,2-10.51,10.07-10.51,10.07L83.88,68.38c.46-.36,7.67-8.67,9.43-11.59a5.69,5.69,0,0,1-2.64-5.41c.23-2.42,2-4.43,4.52-3.78,4.56,1.18,2.59,7.08,2.59,7.08s2.51-.14,5.46-5.06,8,.55,8,.55,3.42,4,2.48,5.33a11.59,11.59,0,0,0-1.2,3.06,39,39,0,0,0-1,4.46C111.2,65.57,106.44,71.18,101.22,68.12Z" transform="translate(-25.71 -33.64)"/><path class="cls-11" d="M121.37,94.82l-2.13,1.35-18,22.38-38.89,0S67.48,106.47,68,105l0-.06,0-.05h0a71.4,71.4,0,0,1-10.59-5.21,48.1,48.1,0,0,1-5.54-4.42s9-15.64,13.41-19.05c3.43-2.62,17.08-6.52,18.83-9l1,1.66a9.8,9.8,0,0,0,15.6,1.33l.09-.09a.79.79,0,0,0,.16.24C105,73.76,118.07,82.87,121.37,94.82Z" transform="translate(-25.71 -33.64)"/><path class="cls-12" d="M107.91,53.29a.23.23,0,0,1-.17-.08s-.8-.85-3.1-.57a.22.22,0,0,1-.26-.2.23.23,0,0,1,.2-.26c2.61-.33,3.47.69,3.51.73a.23.23,0,0,1-.18.38Z" transform="translate(-25.71 -33.64)"/><path class="cls-12" d="M112.42,55a.23.23,0,0,1-.13-.42,2.53,2.53,0,0,1,2.07-.33.23.23,0,0,1-.17.43,2.08,2.08,0,0,0-1.65.28A.23.23,0,0,1,112.42,55Z" transform="translate(-25.71 -33.64)"/><ellipse class="cls-12" cx="105.66" cy="55.95" rx="1.68" ry="0.82" transform="translate(-4.98 106.47) rotate(-72.64)"/><ellipse class="cls-12" cx="111.91" cy="57.91" rx="1.37" ry="0.67" transform="translate(-2.46 113.8) rotate(-72.64)"/><path class="cls-12" d="M109,62.54a1.78,1.78,0,0,1-1.18-.58.23.23,0,1,1,.31-.34c.34.32.83.63,1.2.34a2.15,2.15,0,0,0,.15-2.41.23.23,0,1,1,.4-.22,2.58,2.58,0,0,1-.26,3A1,1,0,0,1,109,62.54Z" transform="translate(-25.71 -33.64)"/><path class="cls-12" d="M107.7,64.25h0a3.47,3.47,0,0,1-2.69-1,2.2,2.2,0,0,1-.48-1.64.23.23,0,0,1,.45.07,1.76,1.76,0,0,0,.38,1.28,3.06,3.06,0,0,0,2.35.85.23.23,0,0,1,0,.46Z" transform="translate(-25.71 -33.64)"/><path class="cls-7" d="M101.22,68.12S98.88,66.38,98.74,64c-.95,3,1.21,5.77,1.21,5.77Z" transform="translate(-25.71 -33.64)"/><path class="cls-16" d="M105.06,60a3.4,3.4,0,1,1,3.25-2.38A3.38,3.38,0,0,1,105.06,60Zm0-6.32a2.93,2.93,0,0,0-2.79,2h0a2.92,2.92,0,1,0,2.79-2Z" transform="translate(-25.71 -33.64)"/><path class="cls-16" d="M112.2,62a2.38,2.38,0,0,1-.71-.11,3.15,3.15,0,0,1-1.67-4.08,3.77,3.77,0,0,1,1.48-2,2.5,2.5,0,0,1,3.83,1.2,3.92,3.92,0,0,1-1.42,4.55A2.74,2.74,0,0,1,112.2,62Zm.6-6.23a2.26,2.26,0,0,0-1.24.4A3.29,3.29,0,0,0,110.27,58a2.68,2.68,0,0,0,1.36,3.49,2.11,2.11,0,0,0,1.81-.31,3.45,3.45,0,0,0,1.24-4,2.11,2.11,0,0,0-1.31-1.29A1.92,1.92,0,0,0,112.8,55.82Z" transform="translate(-25.71 -33.64)"/><rect class="cls-16" x="108.99" y="55.95" width="0.48" height="2.1" transform="translate(-3.48 110.61) rotate(-72.64)"/><rect class="cls-16" x="100.03" y="50.89" width="0.48" height="4.96" transform="translate(-25.12 74.21) rotate(-56.68)"/><path class="cls-2" d="M110.65,113.86,133.36,82.8a10.93,10.93,0,0,1-.09-2.5c.07-1.79.38-3.27-.24-5.09s-1.47-3.45-1.21-4.37,2.32-.13,2.85.91,1,3.12,1.23,3.4a3.81,3.81,0,0,0,.76.57s4.61-9.86,5.39-11,1.56-2.22,2.24-1.55.42,1.59-.68,4-2.73,5.21-2.56,5.17,1.24-1.56,2.19-.82.83,1.15.83,1.15a1,1,0,0,1,1.28.24,2.27,2.27,0,0,1,.38,1.51s.95-.58,1.6.68-.67,3.55-1.88,5.36-2.13,3.68-3.55,4.34c-2,.91-3.07,2.08-4.26,5.72-3.51,10.76-8.23,28.43-16.81,35.06-2.8,2.17-7.21,1.78-9.79,0C107.88,123.33,108.58,117.13,110.65,113.86Z" transform="translate(-25.71 -33.64)"/><path class="cls-2" d="M146.71,76.91c0,.09-1.56,2.76-2.52,3.29s-1.68-.6-1-1.77c-1.31,1.09-1.63.55-2.12,0s.3-1.7.3-1.7-.85,1.16-1.78.46,1-4.11,1-4.11" transform="translate(-25.71 -33.64)"/><path class="cls-7" d="M143.71,80.54a.9.9,0,0,1-.66-.28,1.4,1.4,0,0,1-.29-1.25,1.15,1.15,0,0,1-1.72-.29l-.1-.11a1.09,1.09,0,0,1-.13-1.09,1.38,1.38,0,0,1-.4.13,1.22,1.22,0,0,1-.92-.25c-1-.77.63-3.78,1-4.38a.21.21,0,0,1,.36.21c-.78,1.35-1.63,3.44-1.08,3.84a.79.79,0,0,0,.62.17,1.63,1.63,0,0,0,.88-.59l.34.23c-.18.27-.62,1.13-.32,1.45l.1.11c.41.45.66.72,1.73-.17l.91-.75-.61,1a1.21,1.21,0,0,0,0,1.44.58.58,0,0,0,.75,0c.86-.48,2.3-2.94,2.44-3.21a.21.21,0,0,1,.28-.09.2.2,0,0,1,.09.27s-1.57,2.81-2.61,3.38A1.2,1.2,0,0,1,143.71,80.54Z" transform="translate(-25.71 -33.64)"/><path class="cls-10" d="M59.47,257a16.44,16.44,0,0,1-2.86-32.63l.52,3a13.44,13.44,0,1,0,4.92,0l.57-2.95A16.44,16.44,0,0,1,59.47,257Z" transform="translate(-25.71 -33.64)"/><polygon class="cls-10" points="29.08 188.15 30.83 196.9 34.45 191.34 29.08 188.15"/><path class="cls-5" d="M52.83,241.66v-.77l1-1c2.38-2.26,3.45-3.46,3.46-4.87a1.66,1.66,0,0,0-1.85-1.82,3.17,3.17,0,0,0-2,.79l-.4-.89a4.08,4.08,0,0,1,2.63-.95,2.62,2.62,0,0,1,2.85,2.71c0,1.72-1.25,3.11-3.21,5l-.74.69v0h4.18v1Z" transform="translate(-25.71 -33.64)"/><path class="cls-5" d="M65.73,233.41H62.18l-.36,2.39a4.88,4.88,0,0,1,.76-.06,3.93,3.93,0,0,1,2,.5,2.65,2.65,0,0,1,1.33,2.39,3.23,3.23,0,0,1-3.46,3.18,4.55,4.55,0,0,1-2.32-.57l.31-1a4.16,4.16,0,0,0,2,.52,2.05,2.05,0,0,0,2.2-2c0-1.2-.82-2.06-2.68-2.06a9.61,9.61,0,0,0-1.29.1l.6-4.47h4.45Z" transform="translate(-25.71 -33.64)"/><path class="cls-5" d="M51.49,243.14h.63v2.17h0a1.17,1.17,0,0,1,.45-.45,1.3,1.3,0,0,1,.65-.18c.47,0,1.22.29,1.22,1.49v2.07h-.63v-2c0-.56-.21-1-.81-1a.91.91,0,0,0-.85.63.76.76,0,0,0,0,.3v2.1h-.63Z" transform="translate(-25.71 -33.64)"/><path class="cls-5" d="M58.64,246.48a1.7,1.7,0,0,1-1.74,1.85,1.66,1.66,0,0,1-1.67-1.79A1.7,1.7,0,0,1,57,244.69,1.65,1.65,0,0,1,58.64,246.48Zm-2.77,0c0,.76.44,1.34,1.06,1.34s1.06-.57,1.06-1.35c0-.59-.29-1.34-1-1.34S55.88,245.86,55.88,246.52Z" transform="translate(-25.71 -33.64)"/><path class="cls-5" d="M62.36,247.31c0,.36,0,.68,0,1h-.56l0-.57h0a1.31,1.31,0,0,1-1.15.65c-.55,0-1.2-.3-1.2-1.53v-2h.63v1.93c0,.66.2,1.11.78,1.11a.89.89,0,0,0,.89-.9v-2.14h.63Z" transform="translate(-25.71 -33.64)"/><path class="cls-5" d="M63.41,245.86c0-.41,0-.76,0-1.09h.55l0,.68h0a1,1,0,0,1,1-.76l.18,0v.6l-.22,0a.89.89,0,0,0-.85.81,1.75,1.75,0,0,0,0,.29v1.86h-.63Z" transform="translate(-25.71 -33.64)"/><path class="cls-5" d="M65.68,247.61a1.66,1.66,0,0,0,.83.25c.46,0,.68-.23.68-.52s-.18-.47-.65-.64c-.63-.22-.92-.57-.92-1a1.08,1.08,0,0,1,1.2-1,1.74,1.74,0,0,1,.86.22l-.16.46a1.35,1.35,0,0,0-.71-.2c-.37,0-.58.22-.58.48s.21.42.66.59c.6.23.92.53.92,1.05s-.48,1-1.3,1a2,2,0,0,1-1-.24Z" transform="translate(-25.71 -33.64)"/><circle class="cls-15" cx="89.66" cy="189.51" r="8.57"/><circle class="cls-15" cx="81.09" cy="180.94" r="8.57"/><circle class="cls-15" cx="126.3" cy="155.52" r="8.57"/><circle class="cls-15" cx="113.78" cy="155.52" r="8.57"/><circle class="cls-15" cx="104.25" cy="156.74" r="8.57"/><circle class="cls-15" cx="91.81" cy="160.1" r="8.57"/><circle class="cls-15" cx="85.13" cy="168.67" r="8.57"/><path class="cls-17" d="M173.69,344.06c-1.38,11-7.81,12.08-14.61,13.44-11.81,2.36-30.31,6-46.55,8.9-26.34,4.71-27-13.53-29.1-27.47-4.75-11.43-16.49-37.7-17.14-49.53-.64-11.57.14-22.23,10.51-25.92,7-2.46,33.68-15,36.67-19.18l10.2,16.53a6.69,6.69,0,0,0,11.6-.53c2.29-4.4,4.92-9,7-11.08a.38.38,0,0,0,.35.35c4,5.45,36,18.43,38.47,26.87C182.88,282.58,175.07,333,173.69,344.06Z" transform="translate(-25.71 -33.64)"/><path class="cls-2" d="M141.6,239.72c-.88,2.29-2.81,4.75.7,9.84-2.11,2.29-4.92,7-7.21,11.43a6.52,6.52,0,0,1-11.25.53l-13-14.59a31.52,31.52,0,0,0,4.22-4.75,57.92,57.92,0,0,0,7.56-16.88c-4-1.05-8.09-4-8.79-7.38-.88-4,1.23-10.55,5.8-10.9,8.09-.35,9.84.35,12.13-9.32s25.14,1.41,25.14,1.41.7,10.55-.18,13.36a13.63,13.63,0,0,0-.88,5.27,62.26,62.26,0,0,0,.35,8.26C156.72,230.4,151.8,242,141.6,239.72Z" transform="translate(-25.71 -33.64)"/><ellipse class="cls-12" cx="116.95" cy="183.75" rx="1.41" ry="2.81"/><ellipse class="cls-12" cx="128.37" cy="183.4" rx="1.23" ry="2.64"/><path class="cls-12" d="M151,226.62a3.87,3.87,0,0,1-1.64-.44.4.4,0,0,1,.34-.71c.73.35,1.71.62,2.17-.07.58-.86.22-2.88-1-4a.4.4,0,0,1,.54-.58c1.45,1.33,2,3.78,1.15,5A1.75,1.75,0,0,1,151,226.62Z" transform="translate(-25.71 -33.64)"/><path class="cls-7" d="M141.6,239.72s-4.75-1.58-6.15-5.45c0,5.45,4.92,8.79,4.92,8.79Z" transform="translate(-25.71 -33.64)"/><path class="cls-15" d="M108.73,195.69c5.82-10.66,25.54-9.93,33.93-10.31,9.86-.45,18.45-4.79,18.44,6.05a57.07,57.07,0,0,1-4.22,20.37,26,26,0,0,0-2.09-10.93c-.53-1.58-3.2,1.17-7.75,1.36s-10-.3-10.18.57l-3.71,12.92a5.08,5.08,0,0,1-4,3.6h0s.18-10.72-7.91-10.37-7.56,13.54,1.58,16.17a48.51,48.51,0,0,1-3.52,9.67S102.91,206.34,108.73,195.69Z" transform="translate(-25.71 -33.64)"/><path class="cls-12" d="M148.5,233.07a4.87,4.87,0,0,1-4.54-2.87.4.4,0,0,1,.7-.37c2,3.85,6,2,6.18,2a.4.4,0,0,1,.33.72A7.09,7.09,0,0,1,148.5,233.07Z" transform="translate(-25.71 -33.64)"/><path class="cls-12" d="M145.56,212.19a.39.39,0,0,1-.22-.07s-3.12-2-5.63-.37a.4.4,0,1,1-.44-.66c2.95-2,6.37.27,6.51.37a.4.4,0,0,1-.22.72Z" transform="translate(-25.71 -33.64)"/><path class="cls-12" d="M152.7,211.64a.39.39,0,0,1-.3-.66,3.34,3.34,0,0,1,3.54-.67.4.4,0,0,1-.24.76,2.57,2.57,0,0,0-2.72.44A.4.4,0,0,1,152.7,211.64Z" transform="translate(-25.71 -33.64)"/><g class="cls-18"><path class="cls-19" d="M146,203.31l-.94-.64c0-.07,4.52-6.77,3.09-12.33a8.42,8.42,0,0,0-4.69-5.43l.52-1a9.52,9.52,0,0,1,5.28,6.16C150.85,196.12,146.23,203,146,203.31Z" transform="translate(-25.71 -33.64)"/><path class="cls-19" d="M136.68,207c-4-18.6-24-17.53-24.21-17.52l-.07-1.14c.22,0,21.16-1.14,25.4,18.41Z" transform="translate(-25.71 -33.64)"/><path class="cls-19" d="M135,212.17c-7.34-8.7-28.75-17.21-29-17.3l.42-1.06c.89.35,21.89,8.7,29.42,17.62Z" transform="translate(-25.71 -33.64)"/><path class="cls-19" d="M149.79,203.15l-.76-.85c.05,0,5.42-4.94,5.25-10.58-.08-2.84-1.56-5.42-4.39-7.68l.71-.89c3.11,2.48,4.73,5.35,4.82,8.54C155.6,197.87,150,202.94,149.79,203.15Z" transform="translate(-25.71 -33.64)"/></g><path class="cls-20" d="M128.29,271.25c-10.7,0-22-19.9-22.5-20.74l2-1.13c.11.2,11.13,19.57,20.49,19.57h0c3.22,0,6.9-.89,13.36-11.27l2,1.22c-6.39,10.26-10.6,12.33-15.3,12.35Z" transform="translate(-25.71 -33.64)"/><path class="cls-11" d="M178.54,278.29l-36,46.85L169,336.28s19,7.14,19,7.14l44.85-47.86Z" transform="translate(-25.71 -33.64)"/><polygon class="cls-16" points="207.09 261.93 160.41 247.07 163.54 243.1 167.1 244.63 207.09 261.93"/><polygon class="cls-16" points="207.09 261.93 167.1 244.63 170.74 240.37 178.33 244.87 207.09 261.93"/><polygon class="cls-11" points="207.09 261.93 178.33 244.87 188.66 234.25 207.09 261.93"/><path class="cls-2" d="M213.6,316c-.56,6.63-7.1,5.92-8,7.35a8.49,8.49,0,0,1-4,3.37h0a3.21,3.21,0,0,1-2.3.07c.23,1-1.23,3.63-3.1,3.63s-1.07,1.27-4.06,1.57-7.1-1.27-7.1-1.27-7.53,2.67-16.06,5.53h0c-8.93,3-18.93,6.13-22.52,6.66-7.1,1-45.18,5.83-53.95,2.3s-13.56-24.5-13.56-24.5l33.08-8.5,4.36,10.17s29.79.54,36.42,0c5.5-.47,10.83-1.27,15.79-2.07,11-1.77,9.8-2.93,11.76-5.2s7.83-10.33,13-11.26,9.56,2.75,7.89,4.12-5.59.34-6.39.74a7.24,7.24,0,0,0-2.53,3.68c0,.83,4.27,3.57,10.53,5.1S211.1,317.51,213.6,316Z" transform="translate(-25.71 -33.64)"/><path class="cls-5" d="M54.16,303.49H43.72a1,1,0,0,1,0-2H54.16a1,1,0,1,1,0,2Zm-20.88,0H31.56l.12-10.73a1,1,0,0,1,1-1h0a1,1,0,0,1,1,1l-.1,8.75a1,1,0,0,1-.29,2Zm-.49-20.16h0a1,1,0,0,1-1-1l.12-10.44a1,1,0,0,1,1-1h0a1,1,0,0,1,1,1l-.12,10.44A1,1,0,0,1,32.79,283.33ZM33,262.45h0a1,1,0,0,1-1-1L32.15,251a1,1,0,0,1,1-1h0a1,1,0,0,1,1,1L34,261.46A1,1,0,0,1,33,262.45Zm.23-20.88h0a1,1,0,0,1-1-1l.12-10.44a1,1,0,0,1,1-1h0a1,1,0,0,1,1,1l-.12,10.44A1,1,0,0,1,33.26,241.57Zm.23-20.87h0a1,1,0,0,1-1-1l.12-10.44a1,1,0,0,1,1-1,1,1,0,0,1,1,1l-.12,10.44A1,1,0,0,1,33.5,220.7Zm.23-20.88h0a1,1,0,0,1-1-1l.12-10.44a1,1,0,0,1,1-1h0a1,1,0,0,1,1,1l-.12,10.44A1,1,0,0,1,33.73,199.82ZM34,178.95h0a1,1,0,0,1-1-1l.12-10.44a1,1,0,0,1,1-1h0a1,1,0,0,1,1,1L35,178A1,1,0,0,1,34,178.95Zm.23-20.87h0a1,1,0,0,1-1-1l.12-10.44a1,1,0,0,1,1-1,1,1,0,0,1,1,1l-.12,10.44A1,1,0,0,1,34.2,158.07Zm.23-20.88h0a1,1,0,0,1-1-1l.12-10.44a1,1,0,0,1,1-1h0a1,1,0,0,1,1,1l-.12,10.44A1,1,0,0,1,34.44,137.2Z" transform="translate(-25.71 -33.64)"/><path class="cls-5" d="M271.54,78.5h-11a1,1,0,0,1,0-2h11a1,1,0,0,1,0,2Zm-22,0h-11a1,1,0,0,1,0-2h11a1,1,0,0,1,0,2Zm-22,0h-11a1,1,0,0,1,0-2h11a1,1,0,0,1,0,2Zm-22,0h-11a1,1,0,0,1,0-2h11a1,1,0,0,1,0,2Zm-22,0h-11a1,1,0,0,1,0-2h11a1,1,0,0,1,0,2Zm-22,0h-11a1,1,0,0,1,0-2h11a1,1,0,0,1,0,2Z" transform="translate(-25.71 -33.64)"/><path class="cls-5" d="M360.91,233a1,1,0,0,1-1-1v-5a1,1,0,0,1,2,0v5A1,1,0,0,1,360.91,233Zm0-15.46a1,1,0,0,1-1-1V206.15a1,1,0,0,1,2,0v10.44A1,1,0,0,1,360.91,217.59Zm0-20.88a1,1,0,0,1-1-1V185.28a1,1,0,1,1,2,0v10.44A1,1,0,0,1,360.91,196.71Zm0-20.88a1,1,0,0,1-1-1V164.4a1,1,0,0,1,2,0v10.44A1,1,0,0,1,360.91,175.84Zm0-20.88a1,1,0,0,1-1-1V143.52a1,1,0,0,1,2,0V154A1,1,0,0,1,360.91,155Z" transform="translate(-25.71 -33.64)"/><path class="cls-5" d="M298.85,306.72H288.41a1,1,0,0,1,0-2h10.44a1,1,0,0,1,0,2Zm-20.88,0H267.54a1,1,0,0,1,0-2H278a1,1,0,0,1,0,2Zm-20.88,0h-9.9a1,1,0,1,1,0-2h9.9a1,1,0,0,1,0,2Z" transform="translate(-25.71 -33.64)"/><polygon class="cls-16" points="236.71 333.56 191.01 330.15 191.01 323.35 236.71 326.75 236.71 333.56"/><polygon class="cls-6" points="236.71 326.75 236.71 333.56 263.4 322.69 263.4 316.96 236.71 326.75"/><path class="cls-16" d="M289.12,350.59l-26.69,9.8s-15.44-1.82-28.41-6c-7-2.29-13.37-5.28-16.08-9.06,4.12-1.54,14.4-6.59,17-7.87,4.85,6.39,13.25,14,27.5,19.07,4.36-1.92,9-4,14.56-6.45Z" transform="translate(-25.71 -33.64)"/><path class="cls-6" d="M293.83,342.56l-15.54,6.91c-5.56,2.46-11.51,5.11-15.87,7-14.25-5.08-22.65-12.68-27.5-19.07-5-6.55-6.21-11.84-6.21-11.84s20-5.08,28.31-7.07C262.21,337.81,293.83,342.56,293.83,342.56Z" transform="translate(-25.71 -33.64)"/><path class="cls-15" d="M242.17,113.65a2.68,2.68,0,0,0-3.8,0L228,124.13l-.53-.93a14.79,14.79,0,0,0-1.79-2.92,4.69,4.69,0,0,0-6.64,6.63,10.34,10.34,0,0,0,3,1.8,8.61,8.61,0,0,1,.94.47l-5.9,5.9a2.68,2.68,0,0,0,0,3.79l5.92,5.93a9.44,9.44,0,0,0,.53-1,10.47,10.47,0,0,1,1.8-3,4.69,4.69,0,0,1,6.64,6.63,14.73,14.73,0,0,1-2.92,1.79l-1,.59,5.87,5.87a2.68,2.68,0,0,0,3.8,0L259,134.25a2.68,2.68,0,0,0,0-3.79Z" transform="translate(-25.71 -33.64)"/><path class="cls-17" d="M196.8,179.38a4.69,4.69,0,0,0,4.69,4.69,14.88,14.88,0,0,0,3.33-.8L206,183v14.65h-12.7c-1-11.42-4.77-14.45-7.89-18.35a38.69,38.69,0,0,1-7-14.45h9.41l-.28,1a14.56,14.56,0,0,0-.8,3.33,4.69,4.69,0,0,0,9.39,0,10.47,10.47,0,0,0-.82-3.36,9,9,0,0,1-.34-1h8.35A2.68,2.68,0,0,1,206,167.5v8.37a9.2,9.2,0,0,1-1.12-.36,10.44,10.44,0,0,0-3.36-.82A4.69,4.69,0,0,0,196.8,179.38Z" transform="translate(-25.71 -33.64)"/><path class="cls-10" d="M236.65,164.82a38.65,38.65,0,0,1-6.95,14.45c-3.12,3.9-6.87,6.93-7.89,18.35h-12.7V183l-1.14.31a14.88,14.88,0,0,1-3.33.8,4.69,4.69,0,1,1,0-9.39,10.44,10.44,0,0,1,3.36.82,9.2,9.2,0,0,0,1.12.36V167.5a2.68,2.68,0,0,1,2.68-2.68h8.12a7.4,7.4,0,0,0-.31-.91,10.47,10.47,0,0,1-.82-3.36,4.69,4.69,0,0,1,9.39,0,14.88,14.88,0,0,1-.8,3.33l-.26.94h9.53Z" transform="translate(-25.71 -33.64)"/><path class="cls-21" d="M196.8,146.72a4.69,4.69,0,0,0,4.69,4.69,10.33,10.33,0,0,0,3.36-.82,9.19,9.19,0,0,1,1.12-.36v8.37a2.68,2.68,0,0,1-2.68,2.68h-8.35a9,9,0,0,0,.34,1,10.47,10.47,0,0,1,.82,3.36,4.69,4.69,0,1,1-9.39,0,14.56,14.56,0,0,1,.8-3.33l.28-1h-9.41a25.1,25.1,0,0,1-.53-4.69A28.11,28.11,0,0,1,206,128.49v14.65l-1.14-.31a14.89,14.89,0,0,0-3.33-.8A4.69,4.69,0,0,0,196.8,146.72Z" transform="translate(-25.71 -33.64)"/><path class="cls-17" d="M195.06,200.48v9.27a7.29,7.29,0,0,0,7.29,7.29H212.5a7.29,7.29,0,0,0,7.29-7.29v-9.27Z" transform="translate(-25.71 -33.64)"/><path class="cls-8" d="M254.16,127.1c-1,1.15-2.13,2.46-1.94,3.87s1.45,2.16,2.11,1.36,2-3.15,3.28-4.06L255.2,126A11.57,11.57,0,0,1,254.16,127.1Z" transform="translate(-25.71 -33.64)"/><path class="cls-22" d="M352.2,277.46A8.9,8.9,0,0,1,348,279.8a9.49,9.49,0,0,1-1.58.12,8.57,8.57,0,0,1-1.59-.13,8.75,8.75,0,0,1-4.15-2.38l5.6-4.25Z" transform="translate(-25.71 -33.64)"/><polygon class="cls-23" points="317.7 242.01 319.44 245.04 321.87 245.04 323.57 242.01 320.53 239.53 317.7 242.01"/><polygon class="cls-23" points="323.57 270.09 319.56 277.16 315.43 270.67 319.44 245.04 321.88 245.04 323.57 270.09"/><polygon class="cls-16" points="314.54 235.8 320.53 239.53 314 245.25 313.75 236.84 314.54 235.8"/><polygon class="cls-16" points="329 234.11 320.53 239.53 327.46 245.21 330.3 235.35 329 234.11"/><polygon class="cls-24" points="344.83 270.34 346.48 277.27 331.68 281.37 343.9 276.18 344.83 270.34"/><polygon class="cls-24" points="309.08 267.55 308.67 281.37 312.76 281.37 309.08 267.55"/><path class="cls-25" d="M326.91,101.81c-4.3,0-7-10.79-7.32-12l1-.25c.75,3.12,3.35,11.22,6.3,11.22,2.63,0,6.35-10.47,8.08-17.07l1,.27C335.22,86.94,331.12,101.81,326.91,101.81Z" transform="translate(-25.71 -33.64)"/><rect class="cls-26" x="314.88" y="38.29" width="1.05" height="13.32" transform="translate(-6.85 127.77) rotate(-29.55)"/><rect class="cls-26" x="319.32" y="37.36" width="1.05" height="13.32" transform="translate(-5.81 129.84) rotate(-29.55)"/><rect class="cls-26" x="323.77" y="36.66" width="1.05" height="13.32" transform="translate(-4.88 131.94) rotate(-29.55)"/><path class="cls-11" d="M121.13,94c-6.32,4.3-31.47,13.22-31.47,13.22s13.32,17.65,21.28,21.26,12.64,1.48,16.59-4.36c-10.68-.62-10.71-18.72-10.71-18.72l5.61-7.67S121.55,95.19,121.13,94Z" transform="translate(-25.71 -33.64)"/><path class="cls-2" d="M61,112.91c.33,0,11.56,5.16,15.68,6.29s10.11,2.53,14.45,2.22,8.82-2,10.78-2.12,4-1.4,5.57-2.12,2.42-1.85,3.15-1.13.05,1.7-.57,2.48a13.3,13.3,0,0,1-3.82,2.37c-.67.21-1.91,1.14-1.39,2.12a7.68,7.68,0,0,0,2.62,2.59c1.33,1,1.67,3.64-.75,3.44-.31,1,.24,1.66-.89,2.23s-1.6.31-1.6.83,0,1.44-1,1.5-1.21-.15-1.46.62-.72,1.19-2.06,1.19-4.7-.93-5.62-1.81-1.44-2.42-2.94-2.58-3.82-.57-7.84-.72-11.14-.62-15.84-1.08a37,37,0,0,1-12-2.92C52,124.69,51,112.08,61,112.91Z" transform="translate(-25.71 -33.64)"/><path class="cls-11" d="M68,104.89c-.38-.14-11.33-6.67-16.13-9.63-6.06,11.35-9,20-9,24.93,0,6.89,28.55,14,33.09,14,.69-.93,2.91-15.51,2.91-15.51s-14.11-4-13.87-4.75C66.68,109,68,105,68,105l0-.06,0-.05Z" transform="translate(-25.71 -33.64)"/><path class="cls-27" d="M127.54,124.13s.75-5.11,1.05-8.91a71.93,71.93,0,0,1-5,7.7A4.85,4.85,0,0,0,127.54,124.13Z" transform="translate(-25.71 -33.64)"/><polygon class="cls-27" points="50.24 100.56 55.41 96.56 51.27 96.31 50.24 100.56"/><rect class="cls-28" x="233.08" y="325.35" width="23.58" height="1" transform="translate(-106 46.43) rotate(-15.99)"/><rect class="cls-28" x="235.76" y="330.28" width="22.88" height="1" transform="translate(-113.2 55.27) rotate(-17.37)"/><path class="cls-28" d="M246.48,344.53l-6.75-7.32,9-3.1,6.66,6.94Zm-5-6.87,5.25,5.69,6.9-2.69-5.18-5.4Z" transform="translate(-25.71 -33.64)"/><rect class="cls-28" x="251.27" y="342.44" width="20.6" height="1" transform="translate(-140.25 98.19) rotate(-23.36)"/><path class="cls-28" d="M264.87,348.39l-.25-.34-.56-.18c.09-.26.15-.45,12.51-6.38l.43.9C272.58,344.51,265.37,348,264.87,348.39Z" transform="translate(-25.71 -33.64)"/><path class="cls-5" d="M63.7,154.85h0l-1.36.73-.2-.8,1.7-.91h.9v7.8h-1Z" transform="translate(-25.71 -33.64)"/><path class="cls-5" d="M72.74,157.68c0,2.65-1,4.11-2.71,4.11-1.52,0-2.55-1.43-2.58-4s1.13-4.05,2.71-4.05S72.74,155.2,72.74,157.68Zm-4.23.12c0,2,.62,3.18,1.58,3.18s1.59-1.26,1.59-3.25-.49-3.18-1.58-3.18C69.18,154.55,68.51,155.68,68.51,157.8Z" transform="translate(-25.71 -33.64)"/><path class="cls-5" d="M76,154.85h0l-1.36.73-.2-.8,1.7-.91H77v7.8H76Z" transform="translate(-25.71 -33.64)"/><path class="cls-5" d="M85.06,157.68c0,2.65-1,4.11-2.71,4.11-1.52,0-2.55-1.43-2.58-4s1.13-4.05,2.71-4.05S85.06,155.2,85.06,157.68Zm-4.23.12c0,2,.62,3.18,1.58,3.18S84,159.72,84,157.73s-.49-3.18-1.58-3.18C81.49,154.55,80.82,155.68,80.82,157.8Z" transform="translate(-25.71 -33.64)"/><path class="cls-5" d="M63.7,164.92h0l-1.36.73-.2-.8,1.7-.91h.9v7.8h-1Z" transform="translate(-25.71 -33.64)"/><path class="cls-5" d="M72.74,167.75c0,2.65-1,4.11-2.71,4.11-1.52,0-2.55-1.43-2.58-4s1.13-4.05,2.71-4.05S72.74,165.27,72.74,167.75Zm-4.23.12c0,2,.62,3.18,1.58,3.18s1.59-1.26,1.59-3.25-.49-3.18-1.58-3.18C69.18,164.62,68.51,165.75,68.51,167.87Z" transform="translate(-25.71 -33.64)"/><path class="cls-5" d="M76,164.92h0l-1.36.73-.2-.8,1.7-.91H77v7.8H76Z" transform="translate(-25.71 -33.64)"/><path class="cls-5" d="M85.06,167.75c0,2.65-1,4.11-2.71,4.11-1.52,0-2.55-1.43-2.58-4s1.13-4.05,2.71-4.05S85.06,165.27,85.06,167.75Zm-4.23.12c0,2,.62,3.18,1.58,3.18S84,169.79,84,167.8s-.49-3.18-1.58-3.18C81.49,164.62,80.82,165.75,80.82,167.87Z" transform="translate(-25.71 -33.64)"/><path class="cls-5" d="M63.7,175h0l-1.36.73-.2-.8,1.7-.91h.9v7.8h-1Z" transform="translate(-25.71 -33.64)"/><path class="cls-5" d="M69.85,175h0l-1.36.73-.2-.8L70,174h.9v7.8h-1Z" transform="translate(-25.71 -33.64)"/><path class="cls-5" d="M78.9,177.82c0,2.65-1,4.11-2.71,4.11-1.52,0-2.55-1.43-2.58-4s1.13-4.05,2.71-4.05S78.9,175.33,78.9,177.82Zm-4.23.12c0,2,.62,3.18,1.58,3.18s1.59-1.26,1.59-3.25-.49-3.18-1.58-3.18C75.34,174.69,74.67,175.81,74.67,177.94Z" transform="translate(-25.71 -33.64)"/><path class="cls-5" d="M82.16,175h0l-1.36.73-.2-.8,1.7-.91h.9v7.8h-1Z" transform="translate(-25.71 -33.64)"/><path class="cls-16" d="M350.46,160s-.28.35-.75,1c-1.7,2.31-5.81,8.35-7.38,14.63-1.46,5.88-2.46,9.07-2.87,10.33l-.06.16s0,.1,0,.14l-.14.37s0,0,0,0c-6.74-11.23-13.51-14.15-20.62-19.39a.22.22,0,0,0,.07-.19c-.3-2.17-.67-9.85,8.07-14.65C339.65,155.93,350.46,160,350.46,160Z" transform="translate(-25.71 -33.64)"/><path class="cls-16" d="M339.19,186.59c-.6-.51-13-10.83-24.82-4.73A193.49,193.49,0,0,1,298.78,170c-.92-.77-1.45-1.23-1.45-1.23s15-6.36,21-1.55a.24.24,0,0,0,.28,0C325.68,172.44,332.45,175.36,339.19,186.59Z" transform="translate(-25.71 -33.64)"/><path class="cls-15" d="M339.21,186.61S324.3,180,314,185.52a226.83,226.83,0,0,0-19.29-14,14.09,14.09,0,0,1,4.11-1.51,193.49,193.49,0,0,0,15.59,11.89c11.83-6.1,24.22,4.22,24.82,4.73C339.2,186.6,339.21,186.6,339.21,186.61Z" transform="translate(-25.71 -33.64)"/><path class="cls-15" d="M354.62,163.77c-6.75,3.43-14,19.08-15.22,22.33.38-1.14,1.81-16.61,10.31-25.12A14.9,14.9,0,0,1,354.62,163.77Z" transform="translate(-25.71 -33.64)"/><path class="cls-15" d="M318.57,167.2a36.08,36.08,0,0,1,6.31,3.46,44.47,44.47,0,0,1,5.66,4.49c.9.81,1.72,1.69,2.56,2.56s1.62,1.79,2.31,2.79a35.44,35.44,0,0,1,3.8,6.12c-.75-.94-1.36-2-2.14-2.87L336,182.33c-.38-.46-.78-.9-1.16-1.35a62,62,0,0,0-4.95-5.1c-1.72-1.62-3.55-3.14-5.43-4.6q-1.41-1.09-2.88-2.1C320.58,168.49,319.58,167.84,318.57,167.2Z" transform="translate(-25.71 -33.64)"/><path class="cls-16" d="M328.89,153l2.65-1.87,23.08,9a33.92,33.92,0,0,0-13.78,18.7C333.54,164,328.89,153,328.89,153Z" transform="translate(-25.71 -33.64)"/><path class="cls-15" d="M328.89,153c3.48,1.17,6.93,2.41,10.37,3.68s6.86,2.59,10.29,3.89l.65.25-.48.53a51,51,0,0,0-4.25,5.41,44,44,0,0,0-3.41,6,31.88,31.88,0,0,0-2.23,6.5,24.33,24.33,0,0,0-.43,6.89,21.76,21.76,0,0,1-.09-7,32.53,32.53,0,0,1,2-6.75,43.67,43.67,0,0,1,3.39-6.17,39.1,39.1,0,0,1,4.34-5.55l.17.78c-3.4-1.37-6.82-2.69-10.2-4.12S332.23,154.48,328.89,153Z" transform="translate(-25.71 -33.64)"/><g class="cls-29"><path class="cls-30" d="M358.82,244c-18,0-20.09-12.48-20.11-12.62l1-.15c.09.57,2.39,14,24.11,11.47l.11,1A45.2,45.2,0,0,1,358.82,244Z" transform="translate(-25.71 -33.64)"/><path class="cls-30" d="M361.07,242.23c-5.28,0-9.42-1.33-12.33-4a12.61,12.61,0,0,1-4.13-8.23l1,0a11.81,11.81,0,0,0,3.81,7.54c3.1,2.79,7.74,4,13.79,3.62l.06,1Q362.14,242.23,361.07,242.23Z" transform="translate(-25.71 -33.64)"/></g><rect class="cls-2" x="100.07" y="45.88" width="2" height="6.11" transform="translate(-36.23 27.82) rotate(-32.24)"/><rect class="cls-2" x="102.61" y="43.3" width="2" height="6.11" transform="translate(-34.46 28.79) rotate(-32.24)"/><polygon class="cls-2" points="63.95 39.48 67.83 46.7 70.33 37.3 63.95 37.3 63.95 39.48"/></svg>