<svg id="Слой_2" data-name="Слой 2" xmlns="http://www.w3.org/2000/svg" xmlns:xlink="http://www.w3.org/1999/xlink" viewBox="0 0 334.74 325.18"><defs><style>.cls-1,.cls-10,.cls-16,.cls-19,.cls-22,.cls-25,.cls-26,.cls-3,.cls-9{fill:none;}.cls-2{fill:#fe3737;}.cls-10,.cls-3,.cls-9{stroke:#f6eeca;}.cls-10,.cls-19,.cls-26,.cls-3,.cls-9{stroke-linecap:round;}.cls-10,.cls-16,.cls-19,.cls-22,.cls-25,.cls-26,.cls-3,.cls-9{stroke-miterlimit:10;}.cls-3{stroke-width:2.5px;}.cls-4{font-size:15.4px;}.cls-4,.cls-7{fill:#f6eeca;font-family:MyriadPro-Regular, Myriad Pro;}.cls-5{letter-spacing:-0.01em;}.cls-6{letter-spacing:-0.01em;}.cls-7{font-size:20px;}.cls-8{fill:#029d41;}.cls-10,.cls-9{stroke-width:2px;}.cls-9{stroke-dasharray:10;}.cls-11{letter-spacing:0.01em;}.cls-12{clip-path:url(#clip-path);}.cls-13{fill:#ffc61a;}.cls-14{fill:#535357;}.cls-15{clip-path:url(#clip-path-2);}.cls-16{stroke:#363638;}.cls-17{fill:#db9770;}.cls-18{fill:#303134;}.cls-19,.cls-26{stroke:#303134;}.cls-19{stroke-width:1.15px;}.cls-20{fill:#b87f5e;}.cls-21{clip-path:url(#clip-path-3);}.cls-22{stroke:#c92c2c;stroke-width:1.78px;}.cls-23{fill:#4f6ddb;}.cls-24{clip-path:url(#clip-path-4);}.cls-25{stroke:#3f56ad;}.cls-26{stroke-width:0.74px;}</style><clipPath id="clip-path" transform="translate(-44.26 -33.81)"><circle class="cls-1" cx="117.41" cy="76.96" r="41.96"/></clipPath><clipPath id="clip-path-2" transform="translate(-44.26 -33.81)"><path class="cls-1" d="M132.83,104.36c19.25-10.62,4.16-32.25,6-34.42,2.9-3.45,4.44-15.32-7.17-22.66s-19.94-6-26-2.36S92.81,55.62,91.7,64.61c-2.53,20.56,3.47,19.2-2.66,40.07,5,4.46,13.78,3.93,16.39-.38,5.68-1.94,16.9-9.66,22.62-10.26C132.44,93.58,131.95,104.85,132.83,104.36Z"/></clipPath><clipPath id="clip-path-3" transform="translate(-44.26 -33.81)"><circle class="cls-1" cx="313.79" cy="76.96" r="41.96"/></clipPath><clipPath id="clip-path-4" transform="translate(-44.26 -33.81)"><path class="cls-1" d="M334.43,75.42c-2.1-1.07-5.92.29-7.12,2.69-1.7,3.39-33.91-17.51-34.21-13.54-5.65-2.21-12-16.45-4.27-18.08,10-2.12,18.38-14,32.5-5.68,10.41,6.13,12.92-.74,19,8.93C347.33,60.86,338.33,71.51,334.43,75.42Z"/></clipPath></defs><title>ACM ICER 2021_dark_mode</title><rect class="cls-2" x="70.6" y="238.4" width="21.18" height="61.11"/><rect class="cls-2" x="107.63" y="225.59" width="21.18" height="73.92"/><rect class="cls-2" x="144.65" y="212.78" width="21.18" height="86.74"/><rect class="cls-2" x="181.68" y="199.96" width="21.18" height="99.55"/><rect class="cls-2" x="223.49" y="188.16" width="21.18" height="112.36"/><rect class="cls-2" x="260.52" y="175.34" width="21.18" height="125.18"/><polyline class="cls-3" points="57.06 172.71 57.06 300.52 317.98 300.52"/><text class="cls-4" transform="translate(136.47 321.33)">Exam s<tspan class="cls-5" x="44.34" y="0">c</tspan><tspan x="51.15" y="0">o</tspan><tspan class="cls-6" x="59.6" y="0">r</tspan><tspan x="64.49" y="0">es</tspan></text><text class="cls-4" transform="translate(42.02 270.72) rotate(-90)">Spacing </text><text class="cls-7" transform="translate(41.39 138.6) scale(0.95 1)">Spacing</text><rect class="cls-8" x="49.09" y="93.59" width="8.88" height="20.39" rx="1.72" ry="1.72"/><rect class="cls-8" x="13.29" y="93.59" width="8.88" height="20.39" rx="1.72" ry="1.72"/><rect class="cls-8" x="85.59" y="93.59" width="8.88" height="20.39" rx="1.72" ry="1.72"/><rect class="cls-8" x="123.78" y="93.59" width="8.88" height="20.39" rx="1.72" ry="1.72"/><line class="cls-9" x1="143.6" y1="119.38" x2="1" y2="119.38"/><polyline class="cls-10" points="138.4 114.62 145.3 119.38 138.4 123.56"/><text class="cls-7" transform="translate(237.78 138.6) scale(0.95 1)"><tspan class="cls-11">M</tspan><tspan x="16.2" y="0">assing</tspan></text><rect class="cls-8" x="217.56" y="93.59" width="8.88" height="20.39" rx="1.72" ry="1.72"/><rect class="cls-8" x="273.91" y="93.59" width="8.88" height="20.39" rx="1.72" ry="1.72"/><rect class="cls-8" x="292.23" y="93.59" width="8.88" height="20.39" rx="1.72" ry="1.72"/><rect class="cls-8" x="311.24" y="93.59" width="8.88" height="20.39" rx="1.72" ry="1.72"/><line class="cls-9" x1="331.2" y1="119.38" x2="206.17" y2="119.38"/><polyline class="cls-10" points="326 114.62 332.9 119.38 326 123.56"/><g class="cls-12"><path class="cls-13" d="M148.52,99.82c-4-4.17-22.68-9-22.68-9l-18.43,1.1S104.57,97.8,89,104.69c-5.52,2.45-10.21,8.9-13.27,16.87S67.35,143.94,67,144.29c4.58,2.07,17.17,9.21,17.17,9.21l.93,14.58H145.7s-3.1-14.27,9.93-15c.18-1.64.25-7.21.29-8.67C156.11,135.43,152.5,104,148.52,99.82Z" transform="translate(-44.26 -33.81)"/><path class="cls-14" d="M132.83,104.36c19.25-10.62,4.16-32.25,6-34.42,2.9-3.45,4.44-15.32-7.17-22.66s-19.94-6-26-2.36S92.81,55.62,91.7,64.61c-2.53,20.56,3.47,19.2-2.66,40.07,5,4.46,13.78,3.93,16.39-.38,5.68-1.94,16.9-9.66,22.62-10.26C132.44,93.58,131.95,104.85,132.83,104.36Z" transform="translate(-44.26 -33.81)"/><g class="cls-15"><path class="cls-16" d="M131.7,65.86s12.19-5.25,5.94-20" transform="translate(-44.26 -33.81)"/><path class="cls-16" d="M132.39,63s-2.75-18.51,8.75-20.14" transform="translate(-44.26 -33.81)"/><path class="cls-16" d="M132.39,67s16.75-.69,10.5-15.44" transform="translate(-44.26 -33.81)"/></g><path class="cls-17" d="M106.17,79.29s.35,2.9,3.07,7.7,8.62,8.34,12.78,8.34c3.18,0,3.77-.74,6-3.32.71-.81,1.57-1.81,2.71-3a12.86,12.86,0,0,0,3.35-10.63c-.07-.93-.17-1.7-.17-2.23,0-2.09,1.36-4.63,1.28-10.6s-3.9-7.25-3.9-7.25c-2,10.24-14.14,17-18.32,17.49s-4.89-.55-5.16-3.9-6.8-5.35-7.43.83S106.17,79.29,106.17,79.29Z" transform="translate(-44.26 -33.81)"/><path class="cls-17" d="M106.18,79.33a1.94,1.94,0,0,0,0,.27C106.2,79.46,106.19,79.37,106.18,79.33Z" transform="translate(-44.26 -33.81)"/><path class="cls-17" d="M119.33,113.11s-13.72-4.49-13.89-8.8c-.08-2,1.67-5.9,2-12.38.2-4-.84-10.36-1.15-12.15a26.38,26.38,0,0,0,3,7.22c2.73,4.8,8.61,8.35,12.78,8.35,3.18,0,3.77-.75,6-3.32C128.61,96.77,119.33,113.11,119.33,113.11Z" transform="translate(-44.26 -33.81)"/><ellipse class="cls-18" cx="86.06" cy="44.32" rx="1.31" ry="2.47"/><ellipse class="cls-18" cx="74.32" cy="44.59" rx="1.31" ry="2.47"/><path class="cls-19" d="M134,72.4s-3.17-2.22-5,.59" transform="translate(-44.26 -33.81)"/><path class="cls-19" d="M125.24,77.38s2.72,6.39-1,5.94" transform="translate(-44.26 -33.81)"/><path class="cls-19" d="M125.7,89.67s-3.67.68-5.21-1.13" transform="translate(-44.26 -33.81)"/><path class="cls-20" d="M128,92a5.67,5.67,0,0,1-5.2,3.3c-4.07.22-7.91-1.91-11.57-5.58,1.66,3.87,4.94,7.47,10.92,7.12,4.73-.28,5.9-2.8,5.9-2.8Z" transform="translate(-44.26 -33.81)"/><path class="cls-18" d="M123.59,71.93a7.4,7.4,0,0,0-1.75-.42l-1.59,1.07,0,0a7,7,0,0,1,2.94.37.57.57,0,0,0,.44-1.06Z" transform="translate(-44.26 -33.81)"/></g><g class="cls-21"><path class="cls-17" d="M332.3,88c-3.34-1.45-5.88-6.19-7.64-9.91-5.24,4.36-10.24,8.89-15.81,12.61,1.22,2.27,2.94,6.24.87,10.41,2.14,1.74,4.38,2.83,6.95,6.4s14,4.5,15.74.46l3.81-15.88A23.32,23.32,0,0,1,332.3,88Z" transform="translate(-44.26 -33.81)"/><path class="cls-2" d="M294.95,164.41c1.22,9.79-3.92,11.67,2.11,12.88,10.48,2.1,16.84,4.44,31.25,7,23.39,4.18,45.27-31.77,45.27-31.77s1.61-10.55,2.19-21.05c.57-10.27-2-23-10.41-27.9C356.62,98.48,343.9,93.91,332.3,88l-8.55,13.2c-2.5,3.9-7.8,3.4-10.3-.47-2.72-4.21-2.68-6.22-3.59-7.84-11.75,17.72-22.5,19.12-24.69,26.62C283.62,125,293.72,154.62,294.95,164.41Z" transform="translate(-44.26 -33.81)"/><path class="cls-22" d="M338.74,91.57s-9.77,21.09-18.79,21.05c-3.29,0-4.84-.59-10.77-10.1" transform="translate(-44.26 -33.81)"/><path class="cls-23" d="M334.43,75.42c-2.1-1.07-5.92.29-7.12,2.69-1.7,3.39-33.91-17.51-34.21-13.54-5.65-2.21-12-16.45-4.27-18.08,10-2.12,18.38-14,32.5-5.68,10.41,6.13,12.92-.74,19,8.93C347.33,60.86,338.33,71.51,334.43,75.42Z" transform="translate(-44.26 -33.81)"/><path class="cls-20" d="M311.05,96s7.73-2.31,11.07-7.75c-1.95,6.07-9.59,10.92-9.64,10.83S311.05,96,311.05,96Z" transform="translate(-44.26 -33.81)"/><g class="cls-24"><path class="cls-25" d="M296,62.74s-13-10-8-20.87" transform="translate(-44.26 -33.81)"/><path class="cls-25" d="M300.33,65.49s-11.53-18.73-3.76-26.8" transform="translate(-44.26 -33.81)"/><path class="cls-25" d="M303.73,66.49s7-25.25,1.6-32.38" transform="translate(-44.26 -33.81)"/></g><path class="cls-17" d="M325.9,81.88c-4.08,9.45-10.84,13.33-18,15.11s-9.94.3-13.13-9.44-.1-9.45-1.4-17.3a23.18,23.18,0,0,1-.28-5.67,12,12,0,0,1,1.68-5.86c6.67,11.4,14-4.09,16.5,8.05,1.2,5.94,8.15.3,9.54,4.08s3.48,4.78,5.18,1.39c1.2-2.41,4.72-3.8,6.82-2.72a3.13,3.13,0,0,1,1.63,2.63C334.95,76.81,333.56,81.88,325.9,81.88Z" transform="translate(-44.26 -33.81)"/><path class="cls-26" d="M293.88,70.34s3.38-2.19,5.37,1.39" transform="translate(-44.26 -33.81)"/><path class="cls-26" d="M306.21,73.72s3.38-2.78,7.16,1.69" transform="translate(-44.26 -33.81)"/><ellipse class="cls-18" cx="252.96" cy="42.71" rx="1.24" ry="2.38"/><ellipse class="cls-18" cx="264.59" cy="45.11" rx="1.24" ry="2.38"/><path class="cls-26" d="M301.39,77s-2.93,4.92-1.14,7,3.48-.75,3.48-.75" transform="translate(-44.26 -33.81)"/><path class="cls-26" d="M299,90.08s4.23,3.28,8,0" transform="translate(-44.26 -33.81)"/></g></svg>