<svg id="Слой_2" data-name="Слой 2" xmlns="http://www.w3.org/2000/svg" xmlns:xlink="http://www.w3.org/1999/xlink" viewBox="0 0 390.55 326.8"><defs><style>.cls-1,.cls-11,.cls-12,.cls-13,.cls-16,.cls-17,.cls-19,.cls-2,.cls-8{fill:none;}.cls-2{stroke:#029d41;stroke-width:1.45px;}.cls-11,.cls-12,.cls-13,.cls-16,.cls-17,.cls-19,.cls-2,.cls-8{stroke-miterlimit:10;}.cls-3{fill:#fe3737;}.cls-14,.cls-4{font-size:31.88px;font-family:MyriadPro-Regular, Myriad Pro;}.cls-5{fill:#ed9d6f;}.cls-14,.cls-6{fill:#029d41;}.cls-7{fill:#ffc61a;}.cls-11,.cls-16,.cls-17,.cls-8{stroke:#303134;}.cls-16,.cls-17,.cls-8{stroke-linecap:round;}.cls-8{stroke-width:0.58px;}.cls-9{fill:#303134;}.cls-10{fill:#cc8760;}.cls-11{stroke-width:0.61px;}.cls-12{stroke:#b38b12;stroke-width:1.27px;}.cls-13{stroke:#fe3737;stroke-width:2px;}.cls-15{fill:#794300;}.cls-16{stroke-width:0.58px;}.cls-17{stroke-width:0.61px;}.cls-18{clip-path:url(#clip-path);}.cls-19{stroke:#dbaa16;stroke-width:1.11px;}.cls-20{fill:#452600;}.cls-21{fill:#4f6ddb;}</style><clipPath id="clip-path" transform="translate(-19.27 -35.6)"><path class="cls-1" d="M328.13,241.88s-8.86-13.69,15.37-14.6c33.65-1.25,28.24,22,26.25,28.23-4.61,14.39-23.33,13.6-23.33,13.6Z"/></clipPath></defs><title>ACM CHI 2020</title><line class="cls-2" x1="156.44" y1="138.78" x2="189.74" y2="202.69"/><line class="cls-2" x1="223.44" y1="47.91" x2="160.94" y2="113.16"/><line class="cls-2" x1="230.94" y1="47.91" x2="283.8" y2="113.16"/><line class="cls-2" x1="149.22" y1="141.3" x2="120.8" y2="201.37"/><circle class="cls-3" cx="227.2" cy="33.88" r="19"/><text class="cls-4" transform="translate(221.37 44.29)">?</text><circle class="cls-3" cx="171.14" cy="158.09" r="19" transform="translate(-62.12 30.35) rotate(-19.43)"/><text class="cls-4" transform="translate(148.09 132.97) rotate(-19.44)">?</text><path class="cls-5" d="M176.44,141.55c-2.05-2.56-7.86-8.26-9.58-9.14s-13.84-3.31-17.36-4c-3.26-.67-42.69,4.79-47,5.76-8.68,2-10.29,7-9.36,11.62s2.82,9.3,11,8.3c7.26-.89,28.91-16,42.15-15.38,1.33.06,1.78.73,3,1.5s3.35,2,4.91,2.14a9.77,9.77,0,0,1,4,1.88l3.57-2.61c-.69-1.12-1.23-2.27-1-2.74.32-.76,1-1,3.12-.25a25.24,25.24,0,0,1,6.83,4.45c1.54,1.48,2.16,2,2.91,1.5a2.36,2.36,0,0,0,2.24.44s1.24,1.43,2.41.65S178.49,144.11,176.44,141.55Z" transform="translate(-19.27 -35.6)"/><path class="cls-6" d="M101,69.83A14.66,14.66,0,0,1,102.52,66c1.19-1.74-18.19,1.21-20.35-.33-1.58,4.37-7.55,5.51-10,7.82-13.05-18.07-6.44-36.07,3.92-33.19s13.13-10.12,19.42-1.87c7.33,9.62,14.08,2.49,16,13.59C113.2,61.91,102.64,69,101,69.83Z" transform="translate(-19.27 -35.6)"/><path class="cls-5" d="M86.65,81.93C85.58,83.35,83.57,84.66,85,89c-4.49,2.5,2,26.93-10.33,26.93s-9.91-33.68-9.91-33.68c.58-.45,9.7-11,11.92-14.66a7.2,7.2,0,0,1-3.34-6.85c.3-3.06,2.5-5.61,5.71-4.78,5.77,1.49,1.77,8.16,3.28,9,5.26,2,6-10.36,14.93-10.36,5.7,0,8.84,6.67,5.42,11.23l-.12.16A14.66,14.66,0,0,0,101,69.83a49.35,49.35,0,0,0-1.22,5.64C99.28,78.7,93.25,85.8,86.65,81.93Z" transform="translate(-19.27 -35.6)"/><path class="cls-7" d="M112.13,115.7l-2.7,1.7L96.52,145.59,79.25,155.2,38,145.71,19.27,119.06s7.21-22.39,12.84-26.72c4.34-3.32,30.8-7.93,33-11,0,0,5.81,25.52,9.5,25.82s7.07-17.7,9.86-20.74C84.53,86.34,113.72,99.63,112.13,115.7Z" transform="translate(-19.27 -35.6)"/><path class="cls-5" d="M109.43,117.4c-8,5.43-13.72,8.89-13.72,8.89s-4,23.72.73,25.75c4.26,1.81,8.63,3.29,13.63-4.1C113.75,142.51,110.59,130.12,109.43,117.4Z" transform="translate(-19.27 -35.6)"/><path class="cls-8" d="M95.11,62.88s-1-1.22-4.18-.82" transform="translate(-19.27 -35.6)"/><path class="cls-8" d="M100.81,65a2.92,2.92,0,0,1,2.36-.38" transform="translate(-19.27 -35.6)"/><ellipse class="cls-9" cx="92.27" cy="66.54" rx="2.12" ry="1.04" transform="translate(-18.05 99.14) rotate(-72.64)"/><ellipse class="cls-9" cx="99.84" cy="69.38" rx="1.73" ry="0.85" transform="translate(-15.45 108.37) rotate(-72.64)"/><path class="cls-8" d="M97.37,70.95c1,1.84,0,5-2.15,3" transform="translate(-19.27 -35.6)"/><path class="cls-8" d="M91.12,73.71s-.47,2.9,3.73,3" transform="translate(-19.27 -35.6)"/><path class="cls-10" d="M86.65,81.93s-3-2.2-3.13-5.18C82.32,80.58,85,84,85,84Z" transform="translate(-19.27 -35.6)"/><circle class="cls-11" cx="91.51" cy="67.39" r="4" transform="translate(-19.39 99.01) rotate(-72.64)"/><ellipse class="cls-11" cx="100.92" cy="70" rx="4" ry="3.26" transform="translate(-15.28 109.83) rotate(-72.64)"/><line class="cls-11" x1="76.23" y1="31.87" x2="78.77" y2="32.67"/><line class="cls-11" x1="68.79" y1="29.4" x2="63.55" y2="25.95"/><path class="cls-5" d="M24.56,121.31a3.13,3.13,0,0,1,4.62-1.8c6.39,3.82,15.06,8.78,15.46,8.93h0a.37.37,0,0,0,0,.07l0,.08L40.9,140.75c4.72,2,11.46,4.89,14.71,5.79,5.22,1.44,12.79,3.2,18.27,2.81s11.16-2.48,13.64-2.68,5.09-1.77,7-2.68,3.07-2.34,4-1.43.07,2.15-.72,3.13a16.82,16.82,0,0,1-4.83,3c-.85.26-2.41,1.44-1.76,2.68s3.2,2.94,3.65,2.74a8.12,8.12,0,0,0,1-.59s1.63,1.57,1.63,2.22-.26,2.68-3.33,2.41c-.39,1.31-.33,2.94-1.76,3.65s-2,.39-2,1,0,1.83-1.22,1.89-1.52-.2-1.85.78-.91,1.5-2.61,1.5-5.94-1.17-7.11-2.28-1.83-3.07-3.72-3.26-4.83-.72-9.92-.91-14.1-.78-20-1.37-21.8-4.07-24.15-9.62C17.75,144.61,21.88,130.42,24.56,121.31Z" transform="translate(-19.27 -35.6)"/><path class="cls-12" d="M83.21,98s-3.39,14.1-8.27,14.1S64.53,90.86,64.53,90.86" transform="translate(-19.27 -35.6)"/><circle class="cls-13" cx="286.54" cy="131.97" r="19"/><text class="cls-14" transform="translate(279.58 140.62)">?</text><circle class="cls-3" cx="116.53" cy="217.05" r="19"/><text class="cls-4" transform="translate(109.45 225.71)">?</text><circle class="cls-13" cx="194.89" cy="220.98" r="19"/><text class="cls-14" transform="translate(187.93 229.64)">?</text><path class="cls-15" d="M393.43,311.35s19.67,26.72,15.92,33.18-26.72,12.85-26.72,12.85L364.1,331.75s-1.5-15.55,4.5-16.77S393.43,311.35,393.43,311.35Z" transform="translate(-19.27 -35.6)"/><circle class="cls-3" cx="238.49" cy="272.02" r="19" transform="translate(-78.06 30.27) rotate(-14.02)"/><text class="cls-4" transform="translate(214.48 246.6) rotate(-14.02)">?</text><path class="cls-7" d="M328.13,241.88s-8.86-13.69,15.37-14.6c33.65-1.25,28.24,22,26.25,28.23-4.61,14.39-23.33,13.6-23.33,13.6Z" transform="translate(-19.27 -35.6)"/><path class="cls-15" d="M324.94,251.92c2.68-6.11,1.85-7.1,3.19-10a25.18,25.18,0,0,1,1.75-3.7c.85-.76.58,2.29,3.35,2.2,12.78-.42,5.7,15.18,13.28,17.2.89-1,2.86-4.13,5.69-4.61s6.61,4.45,3.78,9.31c-2,3.4-9.28,3.25-9.28,3.25s-.72,6.21,2.86,9.53c-.38,9.17-19.78,9.63-19.78,9.63s5.29-13-1.9-14.95C319.78,267.51,323.86,254.39,324.94,251.92Z" transform="translate(-19.27 -35.6)"/><path class="cls-16" d="M326.67,254.48s-3.87,3.84,1.06,4.19" transform="translate(-19.27 -35.6)"/><path class="cls-16" d="M329.8,264.34s-3.52,1.81-4.8-1.26" transform="translate(-19.27 -35.6)"/><ellipse class="cls-9" cx="333.75" cy="252.65" rx="2.23" ry="1.09" transform="translate(-4.22 488.45) rotate(-77.54)"/><ellipse class="cls-9" cx="326.98" cy="250.08" rx="2.02" ry="0.89" transform="translate(-7.02 479.82) rotate(-77.54)"/><path class="cls-17" d="M337.73,246.82s-2.52-3.79-5-1.16" transform="translate(-19.27 -35.6)"/><path class="cls-17" d="M330.07,244.42s-.71-2.26-2.32-.87" transform="translate(-19.27 -35.6)"/><g class="cls-18"><path class="cls-19" d="M337.73,224s21,33.67,38.57,25" transform="translate(-19.27 -35.6)"/><path class="cls-19" d="M335.24,224.75S355.4,238,374.32,241.88" transform="translate(-19.27 -35.6)"/><path class="cls-19" d="M345.16,222.22l-7.43,5s1.17,24.82,33.6,28.1" transform="translate(-19.27 -35.6)"/></g><path class="cls-15" d="M304.61,310.48c-4.72-2.1-31.24-13.53-35.18-15.95a13.89,13.89,0,0,1-4.76-4.71,19.74,19.74,0,0,0-7.64-8c-4-2.13-8.69-2.16-10.47-3.19s-3.11-.14-3.13,1.18,1.38,3.17,3.57,3.66,5.52,1.05,5.26,1.91-7.11-1-8.76-1.34-4.48-.51-6.28-1.43-7.49-2.63-8.85-1.73-1.06,2.37.43,3.12c.1.83,1,1.45,2,2.06s2.11,1.57,2.11,1.57a1.62,1.62,0,0,0-2.26,1c-.35,1.08.1,1.34,1.4,2.16a26.88,26.88,0,0,0,4.1,2.43,33.82,33.82,0,0,0,4.56,1.26s-4.44-.51-5.22-.11a1.38,1.38,0,0,0-.45,2.12,9.83,9.83,0,0,0,3.87.88c2.19.21,7.68.83,10,1.3s8.15.68,9.51,1.28a92.15,92.15,0,0,1,7.84,6.23c6.32,5.36,29.31,22,33.59,23.69s10.61-3.32,11.34-12.15C311.76,313.58,309.33,312.58,304.61,310.48Z" transform="translate(-19.27 -35.6)"/><path class="cls-20" d="M245.37,289.69a9.5,9.5,0,0,0-3.56-1,20.8,20.8,0,0,1-5.49-1.82l-7.5-2.86s6.42,3.46,8.28,4.24S245.37,289.69,245.37,289.69Z" transform="translate(-19.27 -35.6)"/><path class="cls-20" d="M246.13,294.2s-1.07-.59-2-1.15-5.58-1.22-7-1.95a22.77,22.77,0,0,1-3.91-3.25s2.93,2.4,5,2.89S243.93,291.47,246.13,294.2Z" transform="translate(-19.27 -35.6)"/><path class="cls-20" d="M246.72,295.88a36,36,0,0,0-5.4-1.23l5.33,1.81Z" transform="translate(-19.27 -35.6)"/><path class="cls-21" d="M387.89,352.75c-.9-7.18-5-18-6.74-23.79-6.56-21.46,8.71-31-.44-40.74-5.25-5.61-12.1-7.12-26.06-11.92-9.9-3.4-26.41,5.07-37,11.61a17.85,17.85,0,0,0-8.34,17.47,125.49,125.49,0,0,1,1.09,22.34c2.81,8.69,5.71,18.76,7.47,25a8.66,8.66,0,0,0,7.92,6.31c10.38.5,31.06,3.28,42.65,3.34,3.91,0,8.09-.13,11.65-.31A8.31,8.31,0,0,0,387.89,352.75Z" transform="translate(-19.27 -35.6)"/><path class="cls-21" d="M314.41,302.36c-1.34,3.28-3-.11-11.37.52-3.29.25-13.83,24.17-13.83,24.17s27.9,25.86,35.6,26.3c4.86.28,19.18-23,23.7-23.83l.91.32C338.23,320.13,326.12,311.23,314.41,302.36Z" transform="translate(-19.27 -35.6)"/><path class="cls-21" d="M376.07,284.68c5.88,2.38,23.28,27.41,23.28,27.41l-21.13,14.19Z" transform="translate(-19.27 -35.6)"/></svg>