<svg id="Слой_2" data-name="Слой 2" xmlns="http://www.w3.org/2000/svg" xmlns:xlink="http://www.w3.org/1999/xlink" viewBox="0 0 411.13 353.02"><defs><style>.cls-1{fill:none;}.cls-2{fill:#a15900;}.cls-3{fill:#4f6ddb;}.cls-4{fill:#28282a;}.cls-5{fill:#fec2a0;}.cls-6{fill:#de9972;}.cls-7{fill:#ffc61a;}.cls-8{fill:#794300;}.cls-9{fill:#f4706b;}.cls-10{fill:#029d41;}.cls-11{fill:#303134;}.cls-12{fill:#f99979;}.cls-13{fill:#f99055;}.cls-14{fill:#d1a215;}.cls-15{fill:#7794ff;}.cls-16{fill:#d1d1d1;}.cls-17{fill:#f0f0f0;}.cls-18{fill:#f66a31;}.cls-19{fill:#494a4f;}.cls-20{fill:#fdc383;}.cls-21{fill:#ff9c1a;}.cls-22{fill:#fe3737;}.cls-23{fill:#36373b;}.cls-24{fill:#657ed9;}.cls-25{clip-path:url(#clip-path);}.cls-26{fill:#bfbfbf;}</style><clipPath id="clip-path" transform="translate(-8.98 -31.24)"><path class="cls-1" d="M50.51,54.65C54.2,39.2,72.15,35.87,79.94,35.87s14.25,3.39,12.2,14.53a70.86,70.86,0,0,1-2.46,9.29c.69-1.92-.36-6.11-1-8.09-.32-1.11-4.73,2.93-11.31-.59a1.94,1.94,0,0,0-1.16,1.42L74.67,63.09l-4.29.55s.43-7.42-5.18-7.41-5.62,9.16.63,11.24a33.61,33.61,0,0,1-2.71,6.59S54.61,55.67,50.51,54.65Z"/></clipPath></defs><title>ACM SIGCSE 2023_light_mode</title><circle class="cls-2" cx="358.37" cy="225.2" r="8.83"/><circle class="cls-2" cx="361.87" cy="217.37" r="8.83"/><circle class="cls-2" cx="357.8" cy="201.37" r="8.83"/><circle class="cls-2" cx="349.54" cy="197.7" r="8.83"/><circle class="cls-2" cx="340.28" cy="196.48" r="8.83"/><circle class="cls-2" cx="330.46" cy="197.7" r="8.83"/><circle class="cls-2" cx="361.87" cy="208.54" r="8.83"/><path class="cls-3" d="M358.7,72.08c-2.75-9.75-10.46-1.5-21.81-5.71-7.33-2.71-16.82,2.77-16.81,11.35,0,6.34,4,5.38,5.55,9.57v0c-.12-3.74,4.2-7.69,7.8-7.54s7.92-.24,8.05.46l2.94,10.23a4,4,0,0,0,3.19,2.85v0c0-.66.13-8.44,6.26-8.17,6.4.27,6,10.71-1.25,12.8a38.55,38.55,0,0,0,2.78,7.66l.07-.08C356.73,103.78,377.12,77,358.7,72.08Z" transform="translate(-8.98 -31.24)"/><path class="cls-4" d="M359.27,94l-.17,0a.5.5,0,0,1-.3-.64,4.83,4.83,0,0,0-.17-4,2.94,2.94,0,0,0-2.4-1.24.5.5,0,0,1-.46-.54.48.48,0,0,1,.54-.46,3.94,3.94,0,0,1,3.17,1.7,5.84,5.84,0,0,1,.27,4.88A.5.5,0,0,1,359.27,94Z" transform="translate(-8.98 -31.24)"/><path class="cls-5" d="M91.25,268.24c-2.59,6.08-12,5.5-12,5.5-3.46,4.06,1.67,11.42,1.67,11.42s-24.26,5.37-28.22,6c0-.08,10-9.41,7.92-20.33,6.24-4.53,8.88-22.74,10-26s19.52.13,20.79-4a27.64,27.64,0,0,1,.35,8.93C90.76,256.68,94.49,260.61,91.25,268.24Z" transform="translate(-8.98 -31.24)"/><path class="cls-3" d="M89.66,277.06S94,269,109.32,265s26.21-19.49,26.21-19.49l18.18-30.34h11s-12.27,44-16.86,53-35.7,22-38.32,28.07,2,52.23,2,52.23L60,355.92l-9-24-6.33,37.79h0a14.93,14.93,0,0,1-14-16.5c1.59-14.87,3.79-36.11,4.19-44,.66-12.67,3.12-14.69,15.37-20.34C61.79,283.48,89.66,277.06,89.66,277.06Z" transform="translate(-8.98 -31.24)"/><path class="cls-5" d="M155.64,210.1a5.82,5.82,0,0,1-2.41-3.92c-.55-2.84-.26-7.64-.59-8.79s-2.47-3.82-.78-5.19,3.71,2.75,4,4.41c.25,1.29.12,4.38.77,4.38s5.41-13,6-14.25,1.42-4.21,2.51-4,.11,3.87.6,4,2.14-6.4,3.68-6-2,11.06-2,11.06,3.33-8.57,4.42-8.41-.16,6.28-1.09,8.79-2.4,7-2.13,7.32,4.79-9.61,5.83-9.12.56,2.69-1.94,8c-2,4.18-2.75,5.82-4,8-.93,1.62-3,5.8-3,5.8l-.89,3.4h-11Z" transform="translate(-8.98 -31.24)"/><path class="cls-6" d="M165.73,186.74a19.13,19.13,0,0,1-.69,3.69,18.93,18.93,0,0,1-1.32,3.52,19,19,0,0,1,.69-3.69A19.16,19.16,0,0,1,165.73,186.74Z" transform="translate(-8.98 -31.24)"/><path class="cls-6" d="M167.42,191.77a7.19,7.19,0,0,1-.28,2.27,7.11,7.11,0,0,1-.92,2.1,7.1,7.1,0,0,1,.28-2.27A7.19,7.19,0,0,1,167.42,191.77Z" transform="translate(-8.98 -31.24)"/><path class="cls-7" d="M89.12,281.41c-.66-2-6.07-9.76-4.41-19.33.74-4.23,2.72-9.32,4.31-14.1.13-.38,3.84-.33,4-.71,1.79-5.59.13-10.38-3.28-13.41-5-4.4-15.49-5.17-24.72-3.81-10.35,1.53-14.79,11.87-16.63,18.82-2.36,8.86-4,17.7-3.23,22C54.79,276.23,69.1,283.46,89.12,281.41Z" transform="translate(-8.98 -31.24)"/><ellipse class="cls-8" cx="250.92" cy="269.37" rx="11.05" ry="12.79" transform="translate(-30.24 -9.74) rotate(-4.71)"/><path class="cls-4" d="M119.1,133.23a1,1,0,0,1-1-1v-4.38a1,1,0,0,1,1.95,0v4.38A1,1,0,0,1,119.1,133.23Z" transform="translate(-8.98 -31.24)"/><path class="cls-4" d="M314.06,147.25a1,1,0,0,1-1-1v-9a1,1,0,0,1,1.95,0v9A1,1,0,0,1,314.06,147.25Zm0-17.91a1,1,0,0,1-1-1v-9a1,1,0,0,1,1.95,0v9A1,1,0,0,1,314.06,129.35Zm-195-9.46a1,1,0,0,1-1-1v-9a1,1,0,1,1,1.95,0v9A1,1,0,0,1,119.1,119.89Zm195-8.45a1,1,0,0,1-1-1v-9a1,1,0,0,1,1.95,0v9A1,1,0,0,1,314.06,111.44ZM119.1,102a1,1,0,0,1-1-1v-9a1,1,0,1,1,1.95,0v9A1,1,0,0,1,119.1,102Zm195-8.45a1,1,0,0,1-1-1v-9a1,1,0,1,1,1.95,0v9A1,1,0,0,1,314.06,93.53Zm-195-9.46a1,1,0,0,1-1-1v-9a1,1,0,1,1,1.95,0v9A1,1,0,0,1,119.1,84.07Zm195-8.45a1,1,0,0,1-1-1v-9a1,1,0,1,1,1.95,0v9A1,1,0,0,1,314.06,75.62Zm-195-9.46a1,1,0,0,1-1-1v-9a1,1,0,1,1,1.95,0v9A1,1,0,0,1,119.1,66.16Zm195-8.45a1,1,0,0,1-1-1v-9a1,1,0,1,1,1.95,0v9A1,1,0,0,1,314.06,57.71Zm-195-9.46a1,1,0,0,1-1-1v-2.6a13.45,13.45,0,0,1,1.71-6.56,1,1,0,1,1,1.7,1,11.5,11.5,0,0,0-1.46,5.61v2.6A1,1,0,0,1,119.1,48.25ZM312.72,40a1,1,0,0,1-.87-.53,11.51,11.51,0,0,0-6-5.46,1,1,0,0,1,.73-1.81,13.46,13.46,0,0,1,7,6.39,1,1,0,0,1-.87,1.42Zm-185.35-6.1A1,1,0,0,1,127,32a13.42,13.42,0,0,1,4.52-.78h4.67a1,1,0,0,1,0,1.95h-4.67a11.46,11.46,0,0,0-3.87.67A1,1,0,0,1,127.37,33.91Zm170.05-.72h-9a1,1,0,1,1,0-1.95h9a1,1,0,0,1,0,1.95Zm-17.91,0h-9a1,1,0,0,1,0-1.95h9a1,1,0,0,1,0,1.95Zm-17.91,0h-9a1,1,0,0,1,0-1.95h9a1,1,0,1,1,0,1.95Zm-17.91,0h-9a1,1,0,0,1,0-1.95h9a1,1,0,0,1,0,1.95Zm-17.91,0h-9a1,1,0,0,1,0-1.95h9a1,1,0,0,1,0,1.95Zm-17.91,0h-9a1,1,0,1,1,0-1.95h9a1,1,0,0,1,0,1.95Zm-17.91,0h-9a1,1,0,0,1,0-1.95h9a1,1,0,0,1,0,1.95Zm-17.91,0h-9a1,1,0,0,1,0-1.95h9a1,1,0,0,1,0,1.95Zm-17.91,0h-9a1,1,0,0,1,0-1.95h9a1,1,0,0,1,0,1.95Z" transform="translate(-8.98 -31.24)"/><path class="cls-4" d="M314.06,160.62a1,1,0,0,1-1-1v-4.38a1,1,0,0,1,1.95,0v4.38A1,1,0,0,1,314.06,160.62Z" transform="translate(-8.98 -31.24)"/><path class="cls-4" d="M301.59,173.08h-4.38a1,1,0,0,1,0-1.95h4.38a1,1,0,1,1,0,1.95Z" transform="translate(-8.98 -31.24)"/><path class="cls-4" d="M288,173.08h-9.18a1,1,0,1,1,0-1.95H288a1,1,0,1,1,0,1.95Zm-18.36,0h-9.18a1,1,0,1,1,0-1.95h9.18a1,1,0,1,1,0,1.95Zm-18.36,0h-9.18a1,1,0,1,1,0-1.95h9.18a1,1,0,1,1,0,1.95Zm-18.36,0h-9.18a1,1,0,1,1,0-1.95h9.18a1,1,0,1,1,0,1.95Zm-18.36,0h-9.18a1,1,0,1,1,0-1.95h9.18a1,1,0,1,1,0,1.95Zm-18.36,0H187a1,1,0,1,1,0-1.95h9.18a1,1,0,1,1,0,1.95Zm-18.36,0h-9.18a1,1,0,1,1,0-1.95h9.18a1,1,0,1,1,0,1.95Zm-18.36,0H150.3a1,1,0,1,1,0-1.95h9.18a1,1,0,1,1,0,1.95Zm-18.36,0h-9.18a1,1,0,1,1,0-1.95h9.18a1,1,0,1,1,0,1.95Z" transform="translate(-8.98 -31.24)"/><path class="cls-4" d="M123.46,170.09a1,1,0,0,1-.63-.23,13.44,13.44,0,0,1-3-3.63,1,1,0,0,1,1.7-1,11.47,11.47,0,0,0,2.55,3.1,1,1,0,0,1-.63,1.71Z" transform="translate(-8.98 -31.24)"/><path class="cls-9" d="M234.26,74.48H196.9A1.92,1.92,0,0,1,195,72.57V45.16a1.92,1.92,0,0,1,1.91-1.91h37.35a1.92,1.92,0,0,1,1.91,1.91V72.57A1.92,1.92,0,0,1,234.26,74.48ZM196.9,44.21a1,1,0,0,0-.94.94V72.57a1,1,0,0,0,.94.94h37.35a1,1,0,0,0,.94-.94V45.16a1,1,0,0,0-.94-.94Z" transform="translate(-8.98 -31.24)"/><path class="cls-9" d="M234.26,140.13H196.9a1.92,1.92,0,0,1-1.91-1.91V110.81a1.92,1.92,0,0,1,1.91-1.91h37.35a1.92,1.92,0,0,1,1.91,1.91v27.41A1.92,1.92,0,0,1,234.26,140.13ZM196.9,109.86a1,1,0,0,0-.94.94v27.41a1,1,0,0,0,.94.94h37.35a1,1,0,0,0,.94-.94V110.81a1,1,0,0,0-.94-.94Z" transform="translate(-8.98 -31.24)"/><path class="cls-9" d="M300.18,108.47H262.83a1.92,1.92,0,0,1-1.91-1.91V79.15a1.92,1.92,0,0,1,1.91-1.91h37.35a1.92,1.92,0,0,1,1.91,1.91v27.41A1.92,1.92,0,0,1,300.18,108.47ZM262.83,78.2a1,1,0,0,0-.94.94v27.41a1,1,0,0,0,.94.94h37.35a1,1,0,0,0,.94-.94V79.15a1,1,0,0,0-.94-.94Z" transform="translate(-8.98 -31.24)"/><path class="cls-9" d="M170.32,75.09H133a1.92,1.92,0,0,1-1.91-1.91V45.77A1.92,1.92,0,0,1,133,43.86h37.35a1.92,1.92,0,0,1,1.91,1.91V73.18A1.92,1.92,0,0,1,170.32,75.09ZM133,44.82a1,1,0,0,0-.95.95V73.18a1,1,0,0,0,.95.95h37.35a1,1,0,0,0,.95-.95V45.77a1,1,0,0,0-.95-.95Z" transform="translate(-8.98 -31.24)"/><rect class="cls-10" x="164.58" y="26.9" width="17.07" height="1.45"/><polygon class="cls-10" points="180.1 27.62 180.1 24.47 182.82 26.05 185.55 27.62 182.82 29.2 180.1 30.77 180.1 27.62"/><path class="cls-9" d="M170.32,118.08H133a1.92,1.92,0,0,1-1.91-1.91V88.76A1.92,1.92,0,0,1,133,86.85h37.35a1.92,1.92,0,0,1,1.91,1.91v27.41A1.92,1.92,0,0,1,170.32,118.08ZM133,87.82a1,1,0,0,0-.95.94v27.41a1,1,0,0,0,.95.94h37.35a1,1,0,0,0,.95-.94V88.76a1,1,0,0,0-.95-.94Z" transform="translate(-8.98 -31.24)"/><rect class="cls-10" x="181.96" y="97.18" width="1.45" height="21.04" transform="translate(-10.66 181.27) rotate(-60.14)"/><polygon class="cls-10" points="180.14 80.21 181.64 77.44 183.29 80.12 184.94 82.8 181.79 82.89 178.65 82.98 180.14 80.21"/><rect class="cls-10" x="171.63" y="141.4" width="21.04" height="1.45" transform="translate(-54.44 71.23) rotate(-28.08)"/><polygon class="cls-10" points="179.72 107.35 181.12 110.16 182.86 107.54 184.6 104.91 181.45 104.72 178.31 104.53 179.72 107.35"/><rect class="cls-10" x="247.42" y="64.54" width="1.45" height="21.04" transform="translate(50.51 221.64) rotate(-60.14)"/><polygon class="cls-10" points="245.6 47.56 247.09 44.79 248.75 47.47 250.4 50.15 247.25 50.24 244.1 50.34 245.6 47.56"/><rect class="cls-10" x="237.08" y="108.75" width="21.04" height="1.45" transform="translate(-31.37 98.2) rotate(-28.08)"/><polygon class="cls-10" points="245.17 74.7 246.58 77.52 248.32 74.89 250.05 72.26 246.91 72.08 243.77 71.89 245.17 74.7"/><path class="cls-9" d="M170.32,161.08H133a1.92,1.92,0,0,1-1.91-1.91V131.75a1.92,1.92,0,0,1,1.91-1.91h37.35a1.92,1.92,0,0,1,1.91,1.91v27.41A1.92,1.92,0,0,1,170.32,161.08ZM133,130.81a1,1,0,0,0-.95.94v27.41a1,1,0,0,0,.95.94h37.35a1,1,0,0,0,.95-.94V131.75a1,1,0,0,0-.95-.94Z" transform="translate(-8.98 -31.24)"/><path class="cls-7" d="M315.8,190.69l0,.33a10.27,10.27,0,0,0,8.14,11.61c9.35,1.87,24,4.75,36.85,7,20.85,3.73,21.35-10.71,23-21.75,3.76-9,13.05-29.85,13.57-39.21.51-9.16-.11-17.6-8.32-20.52-5.57-1.95-26.67-11.85-29-15.19l-8.07,13.08a5.3,5.3,0,0,1-9.19-.42c-1.81-3.48-3.9-7.1-5.57-8.77a.3.3,0,0,1-.28.28c-3.2,4.31-28.51,14.59-30.45,21.27C305,143.33,300.71,169.7,315.8,190.69Z" transform="translate(-8.98 -31.24)"/><path class="cls-5" d="M362.08,115.1l-10.3,11.55a5.16,5.16,0,0,1-8.9-.42,48.86,48.86,0,0,0-5.71-9c2.78-4,1.25-6,.56-7.8-8.08,1.81-12-7.37-11.56-10.85a49,49,0,0,0,.28-6.54,10.77,10.77,0,0,0-.69-4.18,4.77,4.77,0,0,1-.13-.57c-.12-3.74,4.2-7.69,7.8-7.54s7.92-.24,8.05.46l2.94,10.23a4,4,0,0,0,3.19,2.85v0c0-.66.13-8.44,6.26-8.17,6.4.27,6,10.71-1.25,12.8a38.55,38.55,0,0,0,2.78,7.66l.07-.08a46.2,46.2,0,0,0,3.27,5.92A25.37,25.37,0,0,0,362.08,115.1Z" transform="translate(-8.98 -31.24)"/><ellipse class="cls-11" cx="327.91" cy="60.48" rx="1.11" ry="2.23"/><ellipse class="cls-11" cx="318.86" cy="60.2" rx="0.97" ry="2.09"/><path class="cls-11" d="M330.3,99a1.39,1.39,0,0,1-1.21-.62c-.68-1-.23-2.95.91-4a.31.31,0,1,1,.42.46,2.9,2.9,0,0,0-.82,3.19c.37.55,1.14.33,1.72.06a.31.31,0,0,1,.27.56A3.07,3.07,0,0,1,330.3,99Z" transform="translate(-8.98 -31.24)"/><path class="cls-12" d="M337.73,109.39s3.76-1.25,4.87-4.31c0,4.31-3.9,7-3.9,7Z" transform="translate(-8.98 -31.24)"/><path class="cls-11" d="M332.26,104.13a5.6,5.6,0,0,1-2.12-.44.31.31,0,0,1,.27-.57c.13.06,3.3,1.5,4.89-1.55a.31.31,0,1,1,.55.29A3.85,3.85,0,0,1,332.26,104.13Z" transform="translate(-8.98 -31.24)"/><path class="cls-11" d="M334.59,87.6a.31.31,0,0,1-.17-.57c.11-.08,2.81-1.85,5.15-.29a.31.31,0,1,1-.35.52c-2-1.33-4.43.28-4.46.29A.31.31,0,0,1,334.59,87.6Z" transform="translate(-8.98 -31.24)"/><path class="cls-11" d="M328.94,87.17a.31.31,0,0,1-.23-.1,2,2,0,0,0-2.15-.35.31.31,0,0,1-.19-.6,2.63,2.63,0,0,1,2.81.53.31.31,0,0,1-.23.52Z" transform="translate(-8.98 -31.24)"/><path class="cls-5" d="M315.76,175.69c-2-5.16-21.63-38.37-21.61-41.29s-3.32-6.43-7-10.09-5.66-4.28-8.24-6.89-3.21-1.91-3.51-.51,1.05,3.17,2.38,4.32,3.79,2.8,3.82,3.42-2,1.37-5.33-.52-4.54-3.38-5.82-6-2.26-5-3.88-4.66-.51,1.81-.51,1.81-1.07-.25-.52,1.39a34.19,34.19,0,0,1,1.32,4.76c.41,2,.21,2.65.69,3.5s3.29,4.54,4.27,5.72,3.3,3.17,4.18,4.19a15.63,15.63,0,0,0,4.44,2.84c1.48.69,5.54,1,6.21,2.59.45,1.09,10.66,50,18.65,53a9.42,9.42,0,0,0,6,.52C316.79,192.55,319.59,185.69,315.76,175.69Z" transform="translate(-8.98 -31.24)"/><path class="cls-13" d="M269.9,119.71l-.56,0a5.79,5.79,0,0,0-.77-2.67,2.78,2.78,0,0,0-2.47-1.45l0-.56a3.3,3.3,0,0,1,3,1.75A6.18,6.18,0,0,1,269.9,119.71Z" transform="translate(-8.98 -31.24)"/><path class="cls-13" d="M273.68,131.88l-.25-.12-.27.05c0-.13-.43-.84-.84-1.59a59.12,59.12,0,0,1-3-6c-.26-.69-.52-1.24-.75-1.72-.59-1.24-1-2.06.17-2.88a1.16,1.16,0,0,1,1-.18c1.15.3,2.28,2.24,3,3.81.15.31.3.69.47,1.09a9.75,9.75,0,0,0,2,3.54c1.24,1,1.94,1.76,2,1.79l-.4.39s-.72-.74-1.93-1.75a10.1,10.1,0,0,1-2.2-3.75c-.16-.4-.31-.76-.46-1.07-1-2-1.94-3.31-2.66-3.5a.6.6,0,0,0-.53.1c-.74.52-.61.88,0,2.18.22.47.5,1.06.77,1.77a58.66,58.66,0,0,0,3,5.95C273.77,131.7,273.77,131.7,273.68,131.88Z" transform="translate(-8.98 -31.24)"/><path class="cls-13" d="M290.38,133.62a5.83,5.83,0,0,0-5.77-2.17,1.88,1.88,0,0,1-.52,0l.1-.55.35,0a6.42,6.42,0,0,1,6.27,2.37Z" transform="translate(-8.98 -31.24)"/><polygon class="cls-14" points="372.24 149.39 371.74 126.99 373.92 131.55 376.37 143.17 372.24 149.39"/><path class="cls-5" d="M418.23,102.43c.24-1.53,0-3-1.2-3.32s-2.52-.86-2.39-2.72c0-.31,0-.73.07-1.2a26.8,26.8,0,0,1,2.75-10.87c1.59-3.19.43-4.78-1.28-3.8-1.24.9-2.9,2.52-4.25,7.16a56.15,56.15,0,0,0-1.42,6.65,7.3,7.3,0,0,1-.65,2.57c-.55.54-1.12.14-2.8,1.91s-6.59,6.16-6.71,6.93a1.71,1.71,0,0,0,2.53,1.8c-2,1.72-2.74,2.54-1.54,3.83a2.06,2.06,0,0,0,2.82,0s.7,1.52,1.27,2.86a10.31,10.31,0,0,1,1.21,4.26c.07,1.57-1.21,5.75-2.53,8.21-.85,1.65-22.08,50-22.08,50-2.23,5.46-1.59,14.94,3.76,17.43,4.35,2,11.34,1.64,14.68-2.6,11.2-14.25,18.39-74.13,18.64-76.69C419.67,109.22,421.46,102.77,418.23,102.43Z" transform="translate(-8.98 -31.24)"/><path class="cls-5" d="M403.3,102.91s-2.54-4.78-.64-5.89,3.58,2.12,3.84,2.48Z" transform="translate(-8.98 -31.24)"/><polyline class="cls-5" points="394.43 75.91 400.12 70.54 405.55 69.83"/><path class="cls-12" d="M403.42,107.65a.5.5,0,0,1-.34-.87l5.81-5.48,5.59-.74a.5.5,0,0,1,.13,1l-5.27.7-5.57,5.25A.5.5,0,0,1,403.42,107.65Z" transform="translate(-8.98 -31.24)"/><path class="cls-5" d="M404,111.16s6.07-5.78,6.7-5.83,4.67-.83,4.67-.83" transform="translate(-8.98 -31.24)"/><path class="cls-12" d="M404,111.66a.5.5,0,0,1-.35-.87c4.11-3.91,6.46-5.92,7-6s3.5-.61,4.62-.83a.5.5,0,0,1,.19,1c-.42.08-4.08.78-4.72.84a80.58,80.58,0,0,0-6.4,5.7A.5.5,0,0,1,404,111.66Z" transform="translate(-8.98 -31.24)"/><path class="cls-12" d="M406.23,116.19s5.16,3,7.61,3.38a7.18,7.18,0,0,1-7-1.25Z" transform="translate(-8.98 -31.24)"/><path class="cls-5" d="M406.08,111.16s3.76-3,5.59-2.72a10.45,10.45,0,0,0,3.5-.39" transform="translate(-8.98 -31.24)"/><path class="cls-12" d="M406.08,111.66a.5.5,0,0,1-.31-.9c.4-.32,4-3.13,6-2.83a9.8,9.8,0,0,0,3.27-.37.5.5,0,0,1,.3,1,10.78,10.78,0,0,1-3.69.41c-1.19-.18-3.85,1.5-5.24,2.62A.5.5,0,0,1,406.08,111.66Z" transform="translate(-8.98 -31.24)"/><path class="cls-14" d="M348.26,134.35l-.05-1.82c7.44-.22,16.19-15.35,16.28-15.5l1.58.9C365.69,118.6,356.72,134.11,348.26,134.35Z" transform="translate(-8.98 -31.24)"/><path class="cls-15" d="M106.67,114.76h0c1,14.55,2,30.81-4.62,38s-18.44,3.63-18.44,3.63l-.92,1.55a5.31,5.31,0,0,1-5.12,2.84c-9-1.1-35-8.52-35-8.52s-19.31,4-23.48-7.07c-3-8,.84-11.55,3.18-15,3-4.27,2.22-15.39,3.41-23.51s3.73-13.5,11-15.76c4.94-1.5,19.94-7.59,22.13-10.42l6.59,11.73a4.64,4.64,0,0,0,8,0c1.71-3,3.66-6.07,5.19-7.47a.26.26,0,0,0,.23.25c2.64,3.89,24.82,16.14,26.28,22.06A56.12,56.12,0,0,1,106.67,114.76Z" transform="translate(-8.98 -31.24)"/><path class="cls-5" d="M78.44,78.12c-.67,1.56-2.08,3.21.21,6.84a42.82,42.82,0,0,0-5.32,7.71,4.52,4.52,0,0,1-7.8,0L56.93,82.23A21.84,21.84,0,0,0,60,79.06,40.14,40.14,0,0,0,65.7,67.59c-2.77-.85-5.48-3-5.87-5.36C59.34,59.4,61,55,64.16,54.85c5.61,0,6.81.52,8.66-6.1s17.37,1.69,17.37,1.69.19,7.32-.5,9.25a9.44,9.44,0,0,0-.76,3.63,43.14,43.14,0,0,0,0,5.73C89.17,72.1,85.43,80,78.44,78.12Z" transform="translate(-8.98 -31.24)"/><path class="cls-16" d="M77.52,58.94c2.85-1.1,4-.32,4-.32l.3-1.45a.68.68,0,0,0-.58-.76,13.64,13.64,0,0,0-3.54.22C76.87,57.08,77.52,58.94,77.52,58.94Z" transform="translate(-8.98 -31.24)"/><path class="cls-16" d="M90.06,58c-1.09-.17-2.79,1.07-2.79,1.07l-.05-1.71a.92.92,0,0,1,.64-.83L90,56l.08,1.84Z" transform="translate(-8.98 -31.24)"/><ellipse class="cls-11" cx="79.8" cy="62.69" rx="1.95" ry="0.97" transform="translate(4.89 108.6) rotate(-87.63)"/><ellipse class="cls-11" cx="87.73" cy="62.77" rx="1.83" ry="0.85" transform="translate(12.4 116.6) rotate(-87.63)"/><path class="cls-11" d="M85.37,69.32A2.6,2.6,0,0,1,84.18,69a.27.27,0,0,1,.26-.48c.5.26,1.16.48,1.51,0a2.54,2.54,0,0,0-.6-2.82.27.27,0,0,1,.39-.39c1,1,1.28,2.68.65,3.53A1.21,1.21,0,0,1,85.37,69.32Z" transform="translate(-8.98 -31.24)"/><path class="cls-12" d="M78.44,78.12s-3.24-1.23-4.1-3.95c-.16,3.77,3.16,6.23,3.16,6.23Z" transform="translate(-8.98 -31.24)"/><path class="cls-16" d="M50.51,54.65C54.2,39.2,72.15,35.87,79.94,35.87s14.25,3.39,12.2,14.53a70.86,70.86,0,0,1-2.46,9.29c.69-1.92-.36-6.11-1-8.09-.32-1.11-4.73,2.93-11.31-.59a1.94,1.94,0,0,0-1.16,1.42L74.67,63.09l-4.29.55s.43-7.42-5.18-7.41-5.62,9.16.63,11.24a33.61,33.61,0,0,1-2.71,6.59S54.61,55.67,50.51,54.65Z" transform="translate(-8.98 -31.24)"/><polygon class="cls-16" points="68.86 52.22 60.12 57.22 73.52 65.64 69.9 53.73 68.86 52.22"/><polygon class="cls-16" points="49.47 49.59 60.12 57.22 45.39 63.73 47.57 51.22 49.47 49.59"/><path class="cls-17" d="M59.46,92.72l8.25,42.06,10-40.93-8.58-5.39Z" transform="translate(-8.98 -31.24)"/><polygon class="cls-18" points="64.18 59.77 61.96 63.76 57.66 63.58 55.85 59.11 60.12 57.22 64.18 59.77"/><path class="cls-18" d="M64.41,118l3.3,16.83,4-16.53L70.94,95l-4.29-.18Z" transform="translate(-8.98 -31.24)"/><path class="cls-19" d="M5.41,110H112.77a5.41,5.41,0,0,1,5.41,5.41v7.18a0,0,0,0,1,0,0H0a0,0,0,0,1,0,0v-7.18A5.41,5.41,0,0,1,5.41,110Z"/><rect class="cls-19" x="10.67" y="122.24" width="96.85" height="12.59"/><path class="cls-19" d="M25.76,165.75,28.37,201A7.8,7.8,0,0,0,36,208.45h66.44a5.82,5.82,0,0,0,5.69-5.46l3.43-37.24Z" transform="translate(-8.98 -31.24)"/><path class="cls-11" d="M83.19,74.52a3,3,0,0,1-2.88-1.77.27.27,0,0,1,.52-.19c0,.08.77,2,3.54,1.24a.28.28,0,0,1,.33.2.27.27,0,0,1-.2.33A5.25,5.25,0,0,1,83.19,74.52Z" transform="translate(-8.98 -31.24)"/><path class="cls-5" d="M26.9,141.26s1.55-6.61,4.13-5.14,2.93-1.2,4.54-.24c2.78,1.65,3.23-.48,4.95.62s3.07,3.84,4.91,3.23,4.54-.63,4.78,1.53C44,141.33,26.9,141.26,26.9,141.26Z" transform="translate(-8.98 -31.24)"/><path class="cls-8" d="M215.56,291.18c-.69,4,.31,8.82,1.39,14.35,3,15.32-11,29.77,1.47,46.4a45.1,45.1,0,0,0,3.23,3.84c4.18-15.23,14.19-37.84,12.05-51.57C232.49,296.44,226.5,294,215.56,291.18Z" transform="translate(-8.98 -31.24)"/><path class="cls-8" d="M295.81,307.32a54.42,54.42,0,0,1-.65-9.08,6.52,6.52,0,0,0-9.11-6.1c-4.53,2.05-8.15,5.43-8.61,10.53-1.88,20,1.7,41.81,6.45,61.57,7.17-3.38,12.95-7.95,16.15-13.05C306.27,341.26,298.27,323,295.81,307.32Z" transform="translate(-8.98 -31.24)"/><path class="cls-10" d="M283.79,298.73a50.19,50.19,0,0,1,12.1-2.39c.37-4.85-6.33-15.07-12.69-18.48a94,94,0,0,0-12.14-5.37c-5-1.87-9.23,5.37-18,1.47-3.12-1.39-8.77-4.83-12-4.77-6.4.12-16.83,4.56-20.5,8-1.66,1.57-5.83,8-7.07,15.17,5.59,1.46,15.15,5.69,15.15,5.69s-2.29,38.26-7.63,57.7c16.91,18,49.37,17.13,67.76,8.46C284,344.48,283.79,298.73,283.79,298.73Z" transform="translate(-8.98 -31.24)"/><path class="cls-19" d="M227.47,310.44h59.8a5.43,5.43,0,0,1,5.39,4.76l4.89,39.59A14.44,14.44,0,0,1,283.21,371H232.68a14.44,14.44,0,0,1-14.38-15.8l3.77-39.84A5.43,5.43,0,0,1,227.47,310.44Z" transform="translate(-8.98 -31.24)"/><path d="M265.92,270.75c-3,1.21-11.83-7-18-5.71-7.88,1.69-11,6.1-15,6.54-1.77-11.28-8.44-19.16-10.1-30.66-1.45-10,3-18,14.59-20.8,8-1.94,14.52.92,19.74,7.59,3.67,4.69,6.45,12.1,8.43,18,.7,2.1-2,4.93-1.55,7,.87,3.79,0,5.23,0,8.26C264,265.41,268,269.88,265.92,270.75Z" transform="translate(-8.98 -31.24)"/><path class="cls-20" d="M201.87,272.75c-2.39,5.6-11,5.07-11,5.07-3.19,3.74,1.31,9,1.31,9s-18.49-2-22.13-1.44c0-.07,3.28-6.11,2.93-7.56l.13.07c5.75-4.17,8.53-28.28,9.53-31.24s18.32,1.09,19.49-2.67c1.46,3.88.68,8.67.23,11.88C201.42,262.1,204.85,265.72,201.87,272.75Z" transform="translate(-8.98 -31.24)"/><path class="cls-21" d="M187.59,363.72c-12,19.13-20.84,32-43.35,2-12.52-16.69-8.56-30.62-11.54-46s1.24-24.95,6.17-29.43c5.81-5.29,14.39-5.61,20.82-5.73s15.72.18,17.8.36h0c8.57.52,15.63,1,24.13,5.53,12.66,6.8,4.62,17.73,1.09,33C196.18,351.77,193.84,353.76,187.59,363.72Z" transform="translate(-8.98 -31.24)"/><path class="cls-22" d="M202,247c-1.19,3.84-3.16,8.8-4.89,10.32,0,0-4.73-5.27-7.45.15-3.41,6.78,2.9,10.62,4.84,10.51-1.95,4.87-2.17,8.84-8.05,9.77s-8.11-4.11-14,.14l-.13-.07h0c-8.81-4-15.94-18.26-13.43-27.91S170.2,233,178.8,232.51c6.09-.37,13.63,1.75,18.9,2.35,3.28.37,5.82,4.56,5.28,7.82A31.85,31.85,0,0,1,202,247Z" transform="translate(-8.98 -31.24)"/><path class="cls-20" d="M334.25,260c1.93,5.75,10.58,5.9,10.58,5.9,2.87,4-2,8.8-2,8.8s22.66.2,26.23,1.08c0-.08-2.92-14.39-3.84-14.51-5.38-4.6-9.14-10.67-11.88-17.63-2.4-6.11-16.35-4.81-17.21-8.64a25.36,25.36,0,0,0-1,8.14C335.54,249.47,331.84,252.79,334.25,260Z" transform="translate(-8.98 -31.24)"/><path class="cls-20" d="M314.17,306.5c0,.22-4.5-2.27-4.45-2,3,15.32-8,32.44,4.45,49.07a44.19,44.19,0,0,0,7.5,7.82C326.2,342.8,336.73,314.23,314.17,306.5Z" transform="translate(-8.98 -31.24)"/><path class="cls-20" d="M400.76,305.77c-7.72,2.09-21.88,3.91-22.62,7.65-5.2,14.84,1.56,32.83,8,49.17a33,33,0,0,0,10.27-9.81C402.63,342.85,400.88,307,400.76,305.77Z" transform="translate(-8.98 -31.24)"/><path class="cls-3" d="M385.14,319.55c.75-3.74,9.64-9.53,17.36-11.61-1.13-12.22-3.93-20.17-15.37-26.31-8.47-4.55-16.53-7.48-25.06-8h0c-2.07-.18-11.33-.48-17.73-.36s-24.2,9.25-27.5,11.61c-2.85,2-10.26,8.21-7.57,23.28,22.56,7.73,17,34.64,12.42,53.18,19.11,15.52,47.89,11.89,64.47,1.24C379.69,346.25,379.95,334.39,385.14,319.55Z" transform="translate(-8.98 -31.24)"/><path class="cls-19" d="M323.83,312h59.8a5.43,5.43,0,0,1,5.39,4.76l4.89,39.59a14.44,14.44,0,0,1-14.33,16.21H329a14.44,14.44,0,0,1-14.38-15.8l3.77-39.84A5.43,5.43,0,0,1,323.83,312Z" transform="translate(-8.98 -31.24)"/><path class="cls-2" d="M341.32,246.85s2.87-5.16,6.7-.61-2.41,15.71,3.24,17.06c7.59-8.58,14.92,0,14.92,0,8.88-3.2,10.55-14.86,8.85-24.45s-9-15.22-15.57-15c-6.78-3.21-15,0-20.94-.1a5.6,5.6,0,0,0-5.55,6.67C334.52,238.22,341.32,246.85,341.32,246.85Z" transform="translate(-8.98 -31.24)"/><path class="cls-20" d="M339.44,247.6l3.93-2.84s4.63.22,5.33,2.36a5.68,5.68,0,0,1,.39,3.63C348.55,252.27,339.44,247.6,339.44,247.6Z" transform="translate(-8.98 -31.24)"/><polygon class="cls-23" points="10.67 122.24 107.51 122.24 107.51 125.37 10.67 122.24"/><polygon class="cls-24" points="79.65 110.03 82.84 94.09 83.54 110.03 79.65 110.03"/><path class="cls-19" d="M49.75,317h60a5.45,5.45,0,0,1,5.41,4.78l4.9,39.73a14.49,14.49,0,0,1-14.38,16.27H55a14.49,14.49,0,0,1-14.43-15.86l3.78-40A5.45,5.45,0,0,1,49.75,317Z" transform="translate(-8.98 -31.24)"/><g class="cls-25"><path class="cls-26" d="M84.47,54.1l-.9-.44c.05-.1,5-10.48,1.61-15.9-1.38-2.2-4-3.32-7.81-3.32h-.07v-1q6.36,0,8.74,3.78C89.73,43.12,84.68,53.65,84.47,54.1Z" transform="translate(-8.98 -31.24)"/><path class="cls-26" d="M83.64,53.55l-1-.1c0-.08.76-8.59-3.94-13.75-2.4-2.63-5.82-4-10.17-4h-.08v-1c4.71,0,8.39,1.42,11,4.29C84.45,44.52,83.68,53.19,83.64,53.55Z" transform="translate(-8.98 -31.24)"/><path class="cls-26" d="M54.48,59.66l-.93-.37A12.93,12.93,0,0,1,61,51.56c7.41-2.77,16.34,1.68,16.72,1.87l-.45.89c-.09,0-8.92-4.45-15.92-1.83A12,12,0,0,0,54.48,59.66Z" transform="translate(-8.98 -31.24)"/></g><path d="M222.79,234.11s-6.81,23.32.91,33.06a7.41,7.41,0,0,1,1.33,7.68c-1,2.56-3.38,4.9-1.43,7.51,3.81,5.11-4.18,9.05-.64,14.53,2.27,3.52,4.25,4.75,3.43,7.87,10.19-1.23,13.19-10.74,10-13.07s3.14-9.18,1.21-14.5c-.39-1.08-1.21-2.15-1.45-3-.92-3.33.15-5,4.73-6.91S222.79,234.11,222.79,234.11Z" transform="translate(-8.98 -31.24)"/><path class="cls-7" d="M226.24,268.75c2.45-.64,7.33-1.18,10,1.13,1,.87.69,2.38.09,3.66v0a.24.24,0,0,1-.23.15l-10.79-.39c-.83,0-.79-1.12-.66-2l0-.18C224.91,269.81,225.11,269,226.24,268.75Z" transform="translate(-8.98 -31.24)"/><path d="M257.15,227.72S270.51,248,266,259.58a7.41,7.41,0,0,0,1,7.74c1.74,2.15,4.67,3.69,3.57,6.76-2.14,6,6.33,7.35,4.88,13.7s-4.47,8.16-2.77,10.9c-10.39.65-14-8.76-11.64-11.91s-5.7-7.86-5.42-13.51c.06-1.15.53-2.41.51-3.29-.09-3.45-1.6-4.7-6.55-5.22S257.15,227.72,257.15,227.72Z" transform="translate(-8.98 -31.24)"/><path class="cls-7" d="M264.84,264.45c-2.51-.31-7.42-.19-9.81,2.46-.91,1-.37,2.45.4,3.64h0a.24.24,0,0,0,.25.11l10.64-1.82c.82-.14.64-1.22.38-2.11l-.05-.18C266.31,265.33,266,264.6,264.84,264.45Z" transform="translate(-8.98 -31.24)"/><path class="cls-22" d="M165.58,269.32c-3.89,1.66-8.71,3.27-7.13,7.88s3.2,1.13,6.17,6.08a7.89,7.89,0,0,0,10,3.5c2.68-1,2.38-4.83,7.55-4,3.14.53,7.48-7.82.09-8.67S165.58,269.32,165.58,269.32Z" transform="translate(-8.98 -31.24)"/><path class="cls-21" d="M196.2,317.83s5.76,40.37,12.3,42.48c15.14,4.89,28.89-41.73,28.89-41.73l-11.69-1-12.55,11.94s5.61-25.25-7.64-36.25C206.7,308.43,196.2,317.83,196.2,317.83Z" transform="translate(-8.98 -31.24)"/><path class="cls-19" d="M139.13,323.49h60a5.45,5.45,0,0,1,5.41,4.78l4.9,39.73a14.49,14.49,0,0,1-14.38,16.27H144.35a14.49,14.49,0,0,1-14.43-15.86l3.78-40A5.45,5.45,0,0,1,139.13,323.49Z" transform="translate(-8.98 -31.24)"/><path class="cls-20" d="M243.78,310.44c-.34-3.81-3.12-4.68-4.58-6.24s-3,2.17-5,.14-3.26,1.42-5-.47-3.73,5.27-6,5.72c-3.67.74,2.09,6.35,1.49,7.7a25.4,25.4,0,0,1-1.53,2.61,13,13,0,0,0,6.54,1.12,17,17,0,0,0,7.55-2.26,10,10,0,0,0,2.35-3.91C240.36,312.59,240.92,310.44,243.78,310.44Z" transform="translate(-8.98 -31.24)"/><path class="cls-4" d="M337,96a4.32,4.32,0,1,1,4.32-4.32A4.33,4.33,0,0,1,337,96Zm0-7.64a3.32,3.32,0,1,0,3.32,3.32A3.33,3.33,0,0,0,337,88.39Z" transform="translate(-8.98 -31.24)"/><path class="cls-4" d="M327.34,95.76a4.35,4.35,0,1,1,3.85-4.32A4.11,4.11,0,0,1,327.34,95.76Zm0-7.64a3.36,3.36,0,1,0,2.85,3.32A3.12,3.12,0,0,0,327.34,88.12Z" transform="translate(-8.98 -31.24)"/><rect class="cls-4" x="321.71" y="59.3" width="2.48" height="1"/><path class="cls-4" d="M340.75,91.54a.5.5,0,0,1-.17-1s3.88-1.38,7.83-2.56a.5.5,0,0,1,.29,1c-3.93,1.17-7.75,2.52-7.78,2.54A.48.48,0,0,1,340.75,91.54Z" transform="translate(-8.98 -31.24)"/></svg>