<svg id="Слой_2" data-name="Слой 2" xmlns="http://www.w3.org/2000/svg" viewBox="0 0 371.97 363.26"><defs><style>.cls-1{fill:#fe5e5e;}.cls-2{fill:#f6eeca;}.cls-3{fill:#bd0000;}.cls-4{fill:#eb1515;}.cls-5{fill:#fe3737;}.cls-6{fill:#ededed;}.cls-7{fill:#f67770;}.cls-8{fill:#030303;}</style></defs><title>ACM LAK 2022_dark_mode</title><circle class="cls-1" cx="166.09" cy="96.78" r="2.27" transform="translate(-51.21 41.71) rotate(-18.56)"/><circle class="cls-1" cx="102.05" cy="99.08" r="2.27" transform="translate(-55.28 21.44) rotate(-18.56)"/><circle class="cls-1" cx="99.1" cy="93.28" r="2.27" transform="translate(-53.58 20.2) rotate(-18.56)"/><circle class="cls-1" cx="101.7" cy="88.72" r="2.27" transform="translate(-52 20.79) rotate(-18.56)"/><circle class="cls-1" cx="98.05" cy="84.98" r="2.27" transform="translate(-51 19.44) rotate(-18.56)"/><circle class="cls-1" cx="105.77" cy="76.82" r="2.27" transform="translate(-48 21.47) rotate(-18.56)"/><circle class="cls-1" cx="100.98" cy="76.37" r="2.27" transform="translate(-48.1 19.92) rotate(-18.56)"/><circle class="cls-1" cx="123.86" cy="68.06" r="2.27" transform="translate(-44.27 26.77) rotate(-18.56)"/><circle class="cls-1" cx="153.24" cy="96.86" r="2.27" transform="translate(-51.91 37.62) rotate(-18.56)"/><circle class="cls-1" cx="154.26" cy="87.25" r="2.27" transform="translate(-48.79 37.45) rotate(-18.56)"/><circle class="cls-1" cx="159.17" cy="94.41" r="2.27" transform="translate(-50.82 39.38) rotate(-18.56)"/><circle class="cls-1" cx="153.83" cy="79.24" r="2.27" transform="translate(-46.27 36.89) rotate(-18.56)"/><circle class="cls-1" cx="141.9" cy="104.76" r="2.27" transform="translate(-55.01 34.42) rotate(-18.56)"/><circle class="cls-1" cx="114.26" cy="105.47" r="2.27" transform="matrix(0.95, -0.32, 0.32, 0.95, -56.68, 25.66)"/><circle class="cls-1" cx="98.83" cy="102.58" r="2.27" transform="translate(-56.56 20.6) rotate(-18.56)"/><circle class="cls-1" cx="93.81" cy="97.77" r="2.27" transform="translate(-55.29 18.75) rotate(-18.56)"/><circle class="cls-1" cx="90.19" cy="85.22" r="2.27" transform="translate(-51.48 16.95) rotate(-18.56)"/><circle class="cls-1" cx="94.77" cy="74.51" r="2.27" transform="translate(-47.83 17.85) rotate(-18.56)"/><circle class="cls-1" cx="157.47" cy="67.8" r="2.27" transform="translate(-42.44 37.46) rotate(-18.56)"/><circle class="cls-1" cx="152.07" cy="68.78" r="2.27" transform="translate(-43.03 35.79) rotate(-18.56)"/><circle class="cls-1" cx="133.37" cy="92.96" r="2.27" transform="translate(-51.7 31.09) rotate(-18.56)"/><circle class="cls-1" cx="120.4" cy="97.93" r="2.27" transform="translate(-53.96 27.22) rotate(-18.56)"/><circle class="cls-1" cx="122.72" cy="88.36" r="2.27" transform="translate(-50.79 27.46) rotate(-18.56)"/><circle class="cls-1" cx="134.72" cy="85.44" r="2.27" transform="translate(-49.23 31.13) rotate(-18.56)"/><circle class="cls-1" cx="115.74" cy="99.5" r="2.27" transform="translate(-54.7 25.82) rotate(-18.56)"/><circle class="cls-1" cx="108.96" cy="100.32" r="2.27" transform="translate(-55.31 23.71) rotate(-18.56)"/><circle class="cls-1" cx="108.08" cy="90.83" r="2.27" transform="translate(-52.34 22.93) rotate(-18.56)"/><circle class="cls-1" cx="146.56" cy="90.83" r="2.27" transform="translate(-50.33 35.18) rotate(-18.56)"/><circle class="cls-1" cx="150.05" cy="97.93" r="2.27" transform="translate(-52.41 36.66) rotate(-18.56)"/><circle class="cls-1" cx="142.59" cy="82.07" r="2.27" transform="translate(-47.76 33.46) rotate(-18.56)"/><circle class="cls-1" cx="151.08" cy="91.41" r="2.27" transform="translate(-50.28 36.65) rotate(-18.56)"/><circle class="cls-1" cx="135.26" cy="98.01" r="2.27" transform="translate(-53.21 31.96) rotate(-18.56)"/><circle class="cls-1" cx="141.42" cy="95.94" r="2.27" transform="matrix(0.95, -0.32, 0.32, 0.95, -52.23, 33.81)"/><path class="cls-2" d="M130.29,210.28a.42.42,0,0,1-.42-.42v-3.79a.42.42,0,1,1,.84,0v3.79A.42.42,0,0,1,130.29,210.28Zm0-7.58a.42.42,0,0,1-.42-.42v-3.79a.42.42,0,1,1,.84,0v3.79A.42.42,0,0,1,130.29,202.7Zm0-7.58a.42.42,0,0,1-.42-.42v-3.79a.42.42,0,1,1,.84,0v3.79A.42.42,0,0,1,130.29,195.12Zm0-7.58a.42.42,0,0,1-.42-.42v-3.79a.42.42,0,1,1,.84,0v3.79A.42.42,0,0,1,130.29,187.54Zm0-7.58a.42.42,0,0,1-.42-.42v-3.79a.42.42,0,1,1,.84,0v3.79A.42.42,0,0,1,130.29,180Zm0-7.58a.42.42,0,0,1-.42-.42v-3.79a.42.42,0,1,1,.84,0V172A.42.42,0,0,1,130.29,172.39Zm0-7.58a.42.42,0,0,1-.42-.42V160.6a.42.42,0,1,1,.84,0v3.79A.42.42,0,0,1,130.29,164.81Zm0-7.58a.42.42,0,0,1-.42-.42V153a.42.42,0,1,1,.84,0v3.79A.42.42,0,0,1,130.29,157.23Zm0-7.58a.42.42,0,0,1-.42-.42v-3.79a.42.42,0,1,1,.84,0v3.79A.42.42,0,0,1,130.29,149.65Zm0-7.58a.42.42,0,0,1-.42-.42v-3.79a.42.42,0,1,1,.84,0v3.79A.42.42,0,0,1,130.29,142.08Zm0-7.58a.42.42,0,0,1-.42-.42v-3.79a.42.42,0,0,1,.84,0v3.79A.42.42,0,0,1,130.29,134.5Zm0-7.58a.42.42,0,0,1-.42-.42v-3.79a.42.42,0,0,1,.84,0v3.79A.42.42,0,0,1,130.29,126.92Zm0-7.58a.42.42,0,0,1-.42-.42v-3.79a.42.42,0,0,1,.84,0v3.79A.42.42,0,0,1,130.29,119.34Zm0-7.58a.42.42,0,0,1-.42-.42v-3.79a.42.42,0,0,1,.84,0v3.79A.42.42,0,0,1,130.29,111.76Zm0-7.58a.42.42,0,0,1-.42-.42V100a.42.42,0,0,1,.84,0v3.79A.42.42,0,0,1,130.29,104.18Zm0-7.58a.42.42,0,0,1-.42-.42V92.4a.42.42,0,0,1,.84,0v3.79A.42.42,0,0,1,130.29,96.61Zm0-7.58a.42.42,0,0,1-.42-.42V84.82a.42.42,0,0,1,.84,0v3.79A.42.42,0,0,1,130.29,89Zm0-7.58a.42.42,0,0,1-.42-.42V77.24a.42.42,0,0,1,.84,0V81A.42.42,0,0,1,130.29,81.45Zm0-7.58a.42.42,0,0,1-.42-.42V69.66a.42.42,0,0,1,.84,0v3.79A.42.42,0,0,1,130.29,73.87Zm0-7.58a.42.42,0,0,1-.42-.42V62.08a.42.42,0,0,1,.84,0v3.79A.42.42,0,0,1,130.29,66.29Zm0-7.58a.42.42,0,0,1-.42-.42V54.51a.42.42,0,0,1,.84,0v3.79A.42.42,0,0,1,130.29,58.72Zm0-7.58a.42.42,0,0,1-.42-.42V46.93a.42.42,0,0,1,.84,0v3.79A.42.42,0,0,1,130.29,51.14Zm0-7.58a.42.42,0,0,1-.42-.42V39.35a.42.42,0,0,1,.84,0v3.79A.42.42,0,0,1,130.29,43.56Zm0-7.58a.42.42,0,0,1-.42-.42V31.77a.42.42,0,0,1,.84,0v3.79A.42.42,0,0,1,130.29,36Zm0-7.58a.42.42,0,0,1-.42-.42V24.19a.42.42,0,0,1,.84,0V28A.42.42,0,0,1,130.29,28.4Zm0-7.58a.42.42,0,0,1-.42-.42V16.62a.42.42,0,0,1,.84,0V20.4A.42.42,0,0,1,130.29,20.83Z" transform="translate(-29.05 -16.19)"/><path class="cls-2" d="M225.42,106.33h-.27a.42.42,0,0,1,0-.84h.27a.42.42,0,0,1,0,.84Zm-4.06,0h-3.79a.42.42,0,0,1,0-.84h3.79a.42.42,0,1,1,0,.84Zm-7.58,0H210a.42.42,0,0,1,0-.84h3.79a.42.42,0,1,1,0,.84Zm-7.58,0h-3.79a.42.42,0,0,1,0-.84h3.79a.42.42,0,1,1,0,.84Zm-7.58,0h-3.79a.42.42,0,0,1,0-.84h3.79a.42.42,0,1,1,0,.84Zm-7.58,0h-3.79a.42.42,0,0,1,0-.84H191a.42.42,0,1,1,0,.84Zm-7.58,0h-3.79a.42.42,0,0,1,0-.84h3.79a.42.42,0,1,1,0,.84Zm-7.58,0H172.1a.42.42,0,0,1,0-.84h3.79a.42.42,0,1,1,0,.84Zm-7.58,0h-3.79a.42.42,0,1,1,0-.84h3.79a.42.42,0,1,1,0,.84Zm-7.58,0h-3.79a.42.42,0,1,1,0-.84h3.79a.42.42,0,0,1,0,.84Zm-7.58,0h-3.79a.42.42,0,1,1,0-.84h3.79a.42.42,0,0,1,0,.84Zm-7.58,0h-3.79a.42.42,0,1,1,0-.84h3.79a.42.42,0,0,1,0,.84Zm-7.58,0h-3.79a.42.42,0,1,1,0-.84H138a.42.42,0,0,1,0,.84Zm-7.58,0h-3.79a.42.42,0,1,1,0-.84h3.79a.42.42,0,0,1,0,.84Zm-7.58,0H119a.42.42,0,1,1,0-.84h3.79a.42.42,0,0,1,0,.84Zm-7.58,0h-3.79a.42.42,0,1,1,0-.84h3.79a.42.42,0,0,1,0,.84Zm-7.58,0h-3.79a.42.42,0,1,1,0-.84h3.79a.42.42,0,0,1,0,.84Zm-7.58,0H96.32a.42.42,0,0,1,0-.84h3.79a.42.42,0,0,1,0,.84Zm-7.58,0H88.74a.42.42,0,0,1,0-.84h3.79a.42.42,0,0,1,0,.84Zm-7.58,0H81.16a.42.42,0,0,1,0-.84h3.79a.42.42,0,0,1,0,.84Zm-7.58,0H73.58a.42.42,0,0,1,0-.84h3.79a.42.42,0,0,1,0,.84Zm-7.58,0H66a.42.42,0,0,1,0-.84h3.79a.42.42,0,0,1,0,.84Zm-7.58,0H58.42a.42.42,0,0,1,0-.84h3.79a.42.42,0,0,1,0,.84Zm-7.58,0H50.85a.42.42,0,0,1,0-.84h3.79a.42.42,0,0,1,0,.84Zm-7.58,0H43.27a.42.42,0,0,1,0-.84h3.79a.42.42,0,0,1,0,.84Z" transform="translate(-29.05 -16.19)"/><circle class="cls-3" cx="64.06" cy="15.66" r="2.59"/><circle class="cls-4" cx="71.41" cy="23.4" r="2.59"/><circle class="cls-4" cx="84.06" cy="15.66" r="2.59"/><circle class="cls-4" cx="93.95" cy="16.1" r="2.59"/><circle class="cls-4" cx="101.24" cy="13.07" r="2.59"/><circle class="cls-4" cx="111.41" cy="17.5" r="2.59"/><circle class="cls-4" cx="86" cy="22.69" r="2.59"/><circle class="cls-4" cx="73.36" cy="29.18" r="2.59"/><circle class="cls-4" cx="79.19" cy="25.28" r="2.59"/><circle class="cls-4" cx="91.35" cy="31.77" r="2.59"/><circle class="cls-4" cx="100.49" cy="30.86" r="2.59"/><circle class="cls-4" cx="114" cy="36.96" r="2.59"/><circle class="cls-4" cx="124.38" cy="33.46" r="2.59"/><circle class="cls-4" cx="123.62" cy="26.58" r="2.59"/><circle class="cls-4" cx="131.62" cy="36.05" r="2.59"/><circle class="cls-4" cx="139.3" cy="36.2" r="2.59"/><circle class="cls-4" cx="106.33" cy="36.96" r="2.59"/><circle class="cls-4" cx="108.27" cy="41.39" r="2.59"/><circle class="cls-4" cx="103.08" cy="45.61" r="2.59"/><circle class="cls-4" cx="96.54" cy="44.38" r="2.59"/><circle class="cls-4" cx="92.98" cy="39.55" r="2.59"/><circle class="cls-4" cx="90.38" cy="46.97" r="2.59"/><circle class="cls-4" cx="77.84" cy="46.97" r="2.59"/><circle class="cls-4" cx="72.65" cy="41.24" r="2.59"/><circle class="cls-4" cx="71.41" cy="49.56" r="2.59"/><circle class="cls-4" cx="82.54" cy="58.34" r="2.59"/><circle class="cls-4" cx="90.87" cy="54.2" r="2.59"/><circle class="cls-4" cx="93.95" cy="63.53" r="2.59"/><circle class="cls-4" cx="87.79" cy="64.83" r="2.59"/><circle class="cls-4" cx="106.33" cy="56.79" r="2.59"/><circle class="cls-3" cx="86.65" cy="38.8" r="2.59"/><circle class="cls-3" cx="84.06" cy="49.56" r="2.59"/><circle class="cls-3" cx="114" cy="30.86" r="2.59"/><circle class="cls-3" cx="110.43" cy="23.4" r="2.59"/><circle class="cls-3" cx="105.68" cy="30.86" r="2.59"/><circle class="cls-3" cx="97.46" cy="36.7" r="2.59"/><circle class="cls-3" cx="116.59" cy="60.16" r="2.59"/><circle class="cls-3" cx="105.68" cy="72.62" r="2.59"/><circle class="cls-3" cx="105.68" cy="103.98" r="2.59"/><circle class="cls-3" cx="140.7" cy="106.57" r="2.59"/><circle class="cls-3" cx="136.16" cy="65.35" r="2.59"/><circle class="cls-3" cx="173.35" cy="83.07" r="2.59"/><circle class="cls-3" cx="145.89" cy="60.16" r="2.59"/><circle class="cls-3" cx="129.57" cy="23.4" r="2.59"/><circle class="cls-3" cx="76.6" cy="65.35" r="2.59"/><circle class="cls-3" cx="63.3" cy="77.89" r="2.59"/><circle class="cls-3" cx="81.46" cy="77.89" r="2.59"/><circle class="cls-5" cx="76.6" cy="181.6" r="2.27"/><circle class="cls-5" cx="63.55" cy="173.85" r="2.27"/><circle class="cls-5" cx="75.08" cy="165.78" r="2.27"/><circle class="cls-5" cx="73.64" cy="161.24" r="2.27"/><circle class="cls-5" cx="59.01" cy="155.18" r="2.27"/><circle class="cls-5" cx="50.8" cy="149.85" r="2.27"/><circle class="cls-5" cx="49.93" cy="155.18" r="2.27"/><circle class="cls-5" cx="48.53" cy="161.24" r="2.27"/><circle class="cls-5" cx="39.84" cy="158.21" r="2.27"/><circle class="cls-5" cx="39.84" cy="171.58" r="2.27"/><circle class="cls-5" cx="89.86" cy="156.7" r="2.27"/><circle class="cls-5" cx="88.13" cy="152.12" r="2.27"/><circle class="cls-5" cx="79.62" cy="145.27" r="2.27"/><circle class="cls-5" cx="89.07" cy="134.12" r="2.27"/><circle class="cls-5" cx="94.42" cy="141.12" r="2.27"/><circle class="cls-5" cx="97.87" cy="137.1" r="2.27"/><circle class="cls-5" cx="96.69" cy="128.02" r="2.27"/><circle class="cls-5" cx="91.34" cy="126.63" r="2.27"/><circle class="cls-5" cx="84.53" cy="122.95" r="2.27"/><circle class="cls-5" cx="98.96" cy="121.2" r="2.27"/><circle class="cls-5" cx="97.52" cy="116.03" r="2.27"/><circle class="cls-5" cx="75.91" cy="140.27" r="2.27"/><circle class="cls-5" cx="72.06" cy="136.39" r="2.27"/><circle class="cls-5" cx="62.36" cy="143" r="2.27"/><circle class="cls-5" cx="44.38" cy="134.83" r="2.27"/><circle class="cls-5" cx="38.66" cy="138" r="2.27"/><circle class="cls-5" cx="96.69" cy="147.54" r="2.27"/><circle class="cls-5" cx="104.33" cy="148.27" r="2.27"/><circle class="cls-5" cx="102.06" cy="153.67" r="2.27"/><circle class="cls-5" cx="99.79" cy="161.24" r="2.27"/><circle class="cls-5" cx="102.06" cy="167.04" r="2.27"/><circle class="cls-5" cx="110.85" cy="168.05" r="2.27"/><circle class="cls-5" cx="139.89" cy="198.8" r="2.27" transform="translate(-126.32 235.95) rotate(-67.54)"/><circle class="cls-5" cx="154.87" cy="202.33" r="2.27" transform="translate(-120.33 251.97) rotate(-67.54)"/><circle class="cls-5" cx="154.08" cy="190.04" r="2.27" transform="translate(-109.46 243.65) rotate(-67.54)"/><circle class="cls-5" cx="181.14" cy="151.02" r="2.27" transform="translate(-56.67 244.54) rotate(-67.54)"/><circle class="cls-5" cx="178.55" cy="158.74" r="2.27"/><circle class="cls-5" cx="172.61" cy="146.79" r="2.27"/><circle class="cls-5" cx="174.2" cy="132.06" r="2.27"/><circle class="cls-5" cx="159.97" cy="142.54" r="2.27"/><circle class="cls-5" cx="199.06" cy="178.47" r="2.27" transform="translate(-87.16 235.32) rotate(-57.73)"/><circle class="cls-5" cx="174.88" cy="193.17" r="2.27" transform="translate(-110.87 221.73) rotate(-57.73)"/><circle class="cls-5" cx="164.58" cy="207.63" r="2.27" transform="translate(-127.89 219.75) rotate(-57.73)"/><circle class="cls-5" cx="173.54" cy="177.43" r="2.27" transform="translate(-98.19 213.25) rotate(-57.73)"/><circle class="cls-5" cx="143.81" cy="192.6" r="2.27" transform="matrix(0.53, -0.85, 0.85, 0.53, -124.87, 195.19)"/><circle class="cls-5" cx="184.62" cy="170.19" r="2.27" transform="translate(-86.9 219.25) rotate(-57.73)"/><circle class="cls-5" cx="173.54" cy="167.08" r="2.27" transform="translate(-89.43 208.43) rotate(-57.73)"/><circle class="cls-5" cx="163.37" cy="161.62" r="2.27" transform="matrix(0.53, -0.85, 0.85, 0.53, -89.55, 197.29)"/><circle class="cls-5" cx="169.05" cy="158.02" r="2.27" transform="matrix(0.53, -0.85, 0.85, 0.53, -83.86, 200.42)"/><circle class="cls-5" cx="135.85" cy="152.59" r="2.27" transform="translate(-94.75 169.8) rotate(-57.73)"/><circle class="cls-5" cx="134.43" cy="159.09" r="2.27" transform="matrix(0.53, -0.85, 0.85, 0.53, -100.91, 171.63)"/><circle class="cls-5" cx="143.81" cy="154.54" r="2.27" transform="matrix(0.53, -0.85, 0.85, 0.53, -92.69, 177.45)"/><circle class="cls-5" cx="150.47" cy="148.25" r="2.27" transform="translate(-84.27 180.14) rotate(-57.73)"/><circle class="cls-5" cx="145.18" cy="146.31" r="2.27" transform="matrix(0.53, -0.85, 0.85, 0.53, -85.09, 174.77)"/><circle class="cls-5" cx="139.89" cy="142.3" r="2.27" transform="translate(-84.16 168.43) rotate(-57.73)"/><circle class="cls-5" cx="146.56" cy="139.15" r="2.27" transform="matrix(0.53, -0.85, 0.85, 0.53, -78.39, 172.6)"/><circle class="cls-5" cx="147.75" cy="133.74" r="2.27" transform="matrix(0.53, -0.85, 0.85, 0.53, -73.26, 171.08)"/><circle class="cls-5" cx="156.94" cy="133.74" r="2.27" transform="matrix(0.53, -0.85, 0.85, 0.53, -68.98, 178.86)"/><circle class="cls-5" cx="160.7" cy="127.88" r="2.27" transform="translate(-62.27 179.3) rotate(-57.73)"/><circle class="cls-5" cx="140.64" cy="137.4" r="2.27" transform="translate(-79.67 166.78) rotate(-57.73)"/><circle class="cls-5" cx="134.33" cy="133.42" r="2.27" transform="matrix(0.53, -0.85, 0.85, 0.53, -79.24, 159.58)"/><circle class="cls-5" cx="139.89" cy="129.96" r="2.27" transform="translate(-73.72 162.67) rotate(-57.73)"/><circle class="cls-5" cx="143.81" cy="123.75" r="2.27" transform="matrix(0.53, -0.85, 0.85, 0.53, -66.65, 163.09)"/><circle class="cls-5" cx="149.38" cy="127.27" r="2.27" transform="translate(-75.78 118.2) rotate(-42.51)"/><circle class="cls-5" cx="135.03" cy="137.58" r="2.27" transform="translate(-39.36 248.01) rotate(-86.6)"/><circle class="cls-5" cx="150.42" cy="142.92" r="2.27" transform="matrix(0.53, -0.85, 0.85, 0.53, -79.78, 177.62)"/><circle class="cls-5" cx="152.32" cy="138.33" r="2.27" transform="translate(-79.95 154.35) rotate(-51.25)"/><circle class="cls-5" cx="166.37" cy="145.81" r="2.27" transform="translate(-80.52 168.11) rotate(-51.25)"/><circle class="cls-5" cx="168.14" cy="182.83" r="2.27" transform="matrix(0.53, -0.85, 0.85, 0.53, -105.27, 211.2)"/><circle class="cls-5" cx="165.16" cy="177.43" r="2.27" transform="translate(-102.09 206.17) rotate(-57.73)"/><circle class="cls-5" cx="159.38" cy="179.99" r="2.27" transform="matrix(0.53, -0.85, 0.85, 0.53, -106.95, 202.48)"/><circle class="cls-5" cx="160.7" cy="173.65" r="2.27" transform="translate(-100.97 200.64) rotate(-57.73)"/><circle class="cls-5" cx="145.9" cy="161.62" r="2.27" transform="matrix(0.53, -0.85, 0.85, 0.53, -97.7, 182.51)"/><circle class="cls-5" cx="150.42" cy="158.71" r="2.27" transform="matrix(0.53, -0.85, 0.85, 0.53, -93.13, 184.98)"/><circle class="cls-5" cx="157.96" cy="151.02" r="2.27" transform="matrix(0.53, -0.85, 0.85, 0.53, -83.11, 187.77)"/><circle class="cls-5" cx="159.38" cy="143.25" r="2.27" transform="translate(-75.88 185.35) rotate(-57.73)"/><circle class="cls-5" cx="164.19" cy="142.92" r="2.27" transform="matrix(0.53, -0.85, 0.85, 0.53, -73.36, 189.26)"/><circle class="cls-5" cx="161.45" cy="137.58" r="2.27" transform="matrix(0.53, -0.85, 0.85, 0.53, -70.12, 184.46)"/><circle class="cls-5" cx="166.37" cy="136.97" r="2.27" transform="matrix(0.53, -0.85, 0.85, 0.53, -67.31, 188.34)"/><circle class="cls-5" cx="174.88" cy="138.33" r="2.27" transform="translate(-76.22 101.87) rotate(-33.13)"/><circle class="cls-5" cx="169.05" cy="133.45" r="2.27" transform="matrix(0.53, -0.85, 0.85, 0.53, -63.09, 188.96)"/><circle class="cls-5" cx="165.16" cy="130.69" r="2.27" transform="matrix(0.53, -0.85, 0.85, 0.53, -62.57, 184.38)"/><circle class="cls-5" cx="157.22" cy="123" r="2.27" transform="translate(-59.76 174.08) rotate(-57.73)"/><circle class="cls-5" cx="152.26" cy="124.63" r="2.27" transform="translate(-63.46 170.65) rotate(-57.73)"/><circle class="cls-5" cx="150.22" cy="120.17" r="2.27" transform="translate(-60.64 166.85) rotate(-57.73)"/><circle class="cls-5" cx="158.63" cy="118.79" r="2.27" transform="matrix(0.53, -0.85, 0.85, 0.53, -55.55, 173.31)"/><circle class="cls-5" cx="163.37" cy="115.76" r="2.27" transform="matrix(0.53, -0.85, 0.85, 0.53, -50.77, 175.91)"/><circle class="cls-5" cx="166.37" cy="111.69" r="2.27" transform="matrix(0.53, -0.85, 0.85, 0.53, -45.94, 176.55)"/><circle class="cls-5" cx="168.14" cy="117.53" r="2.27" transform="translate(-2.29 249.97) rotate(-81.39)"/><circle class="cls-5" cx="180.22" cy="117.53" r="2.27" transform="translate(7.98 261.92) rotate(-81.39)"/><circle class="cls-5" cx="177.15" cy="113.88" r="2.27" transform="translate(8.98 255.79) rotate(-81.39)"/><circle class="cls-5" cx="183.59" cy="110.43" r="2.27" transform="translate(17.87 259.22) rotate(-81.39)"/><circle class="cls-5" cx="153.83" cy="115.76" r="2.27" transform="translate(-12.71 234.32) rotate(-81.39)"/><circle class="cls-5" cx="157.22" cy="111.87" r="2.27" transform="translate(-5.99 234.37) rotate(-81.39)"/><circle class="cls-5" cx="150.15" cy="112.91" r="2.27" transform="translate(-13.02 228.26) rotate(-81.39)"/><circle class="cls-5" cx="143.81" cy="111.69" r="2.27" transform="translate(-17.2 220.96) rotate(-81.39)"/><circle class="cls-5" cx="145.18" cy="116.74" r="2.27" transform="translate(-21.04 226.61) rotate(-81.39)"/><circle class="cls-5" cx="140.92" cy="119.94" r="2.27" transform="translate(-27.82 225.12) rotate(-81.39)"/><circle class="cls-5" cx="139.31" cy="115.46" r="2.27" transform="translate(-24.76 219.71) rotate(-81.39)"/><circle class="cls-5" cx="133.37" cy="114.56" r="2.27" transform="matrix(0.15, -0.99, 0.99, 0.15, -28.92, 213.08)"/><circle class="cls-5" cx="137.62" cy="110.63" r="2.27" transform="translate(-21.41 213.94) rotate(-81.39)"/><circle class="cls-5" cx="146.56" cy="112.91" r="2.27" transform="translate(-16.07 224.71) rotate(-81.39)"/><circle class="cls-5" cx="125.73" cy="127.88" r="2.27" transform="translate(-48.58 216.85) rotate(-81.39)"/><circle class="cls-5" cx="118.9" cy="133.42" r="2.27" transform="translate(-59.86 214.81) rotate(-81.39)"/><circle class="cls-5" cx="113.57" cy="135.98" r="2.27" transform="translate(-66.92 211.71) rotate(-81.39)"/><circle class="cls-5" cx="113.57" cy="129.96" r="2.27" transform="translate(-60.97 206.59) rotate(-81.39)"/><circle class="cls-5" cx="118.2" cy="127.88" r="2.27" transform="translate(-43.79 -0.79) rotate(-7.02)"/><circle class="cls-5" cx="115.52" cy="124.63" r="2.27" transform="translate(-43.41 -1.14) rotate(-7.02)"/><circle class="cls-5" cx="116.02" cy="119.81" r="2.27" transform="translate(-42.82 -1.12) rotate(-7.02)"/><circle class="cls-5" cx="107.23" cy="125.36" r="2.27" transform="translate(-43.56 -2.15) rotate(-7.02)"/><circle class="cls-5" cx="103.37" cy="131.7" r="2.27" transform="translate(-44.37 -2.57) rotate(-7.02)"/><circle class="cls-5" cx="103.37" cy="138.98" r="2.27" transform="translate(-45.25 -2.52) rotate(-7.02)"/><circle class="cls-5" cx="94.87" cy="137.58" r="2.27" transform="translate(-45.15 -3.57) rotate(-7.02)"/><circle class="cls-5" cx="91.67" cy="143.39" r="2.27" transform="translate(-45.88 -3.92) rotate(-7.02)"/><circle class="cls-5" cx="86.44" cy="146.31" r="2.27" transform="translate(-46.28 -4.53) rotate(-7.02)"/><circle class="cls-5" cx="86.44" cy="138.33" r="2.27" transform="translate(-45.3 -4.59) rotate(-7.02)"/><circle class="cls-5" cx="73.43" cy="140.53" r="2.27" transform="translate(-45.67 -6.17) rotate(-7.02)"/><circle class="cls-5" cx="85.79" cy="133.06" r="2.27" transform="translate(-44.66 -4.71) rotate(-7.02)"/><circle class="cls-5" cx="89.98" cy="129.67" r="2.27" transform="translate(-44.22 -4.23) rotate(-7.02)"/><circle class="cls-5" cx="88.06" cy="125.36" r="2.27" transform="translate(-43.71 -4.49) rotate(-7.02)"/><circle class="cls-5" cx="84.73" cy="123" r="2.27" transform="translate(-43.44 -4.92) rotate(-7.02)"/><circle class="cls-5" cx="88.06" cy="119.81" r="2.27" transform="translate(-43.03 -4.54) rotate(-7.02)"/><circle class="cls-5" cx="84.73" cy="112.35" r="2.27" transform="translate(-42.14 -5) rotate(-7.02)"/><circle class="cls-5" cx="75" cy="94.28" r="2.27" transform="translate(-73.75 64.45) rotate(-45)"/><circle class="cls-5" cx="80.41" cy="106.93" r="2.27" transform="translate(-64.61 24.02) rotate(-23.15)"/><circle class="cls-5" cx="82.52" cy="86.76" r="2.27" transform="translate(-56.51 23.23) rotate(-23.15)"/><circle class="cls-5" cx="98.35" cy="88.81" r="2.27" transform="translate(-56.04 29.61) rotate(-23.15)"/><circle class="cls-5" cx="100.89" cy="91.49" r="2.27" transform="translate(-56.89 30.83) rotate(-23.15)"/><circle class="cls-5" cx="102.69" cy="95.02" r="2.27" transform="translate(-58.13 31.82) rotate(-23.15)"/><circle class="cls-5" cx="105.18" cy="91.49" r="2.27" transform="translate(-56.54 32.51) rotate(-23.15)"/><circle class="cls-5" cx="108.74" cy="87.3" r="2.27" transform="translate(-54.61 33.58) rotate(-23.15)"/><circle class="cls-5" cx="113.24" cy="86.21" r="2.27" transform="translate(-53.82 35.26) rotate(-23.15)"/><circle class="cls-5" cx="116.11" cy="90.05" r="2.27" transform="translate(-55.1 36.69) rotate(-23.15)"/><circle class="cls-5" cx="121.17" cy="92.63" r="2.27" transform="translate(-52.23 27.19) rotate(-18.56)"/><circle class="cls-5" cx="116.02" cy="101.76" r="2.27" transform="translate(-55.4 26.03) rotate(-18.56)"/><circle class="cls-5" cx="119.43" cy="104.77" r="2.27" transform="translate(-56.18 27.27) rotate(-18.56)"/><circle class="cls-5" cx="120.4" cy="101.35" r="2.27" transform="translate(-55.04 27.4) rotate(-18.56)"/><circle class="cls-5" cx="124.75" cy="103.29" r="2.27" transform="translate(-55.44 28.89) rotate(-18.56)"/><circle class="cls-5" cx="126.01" cy="99.9" r="2.27" transform="translate(-54.29 29.11) rotate(-18.56)"/><circle class="cls-5" cx="123.14" cy="96.67" r="2.27" transform="translate(-53.41 28.03) rotate(-18.56)"/><circle class="cls-5" cx="126.56" cy="94.41" r="2.27" transform="translate(-52.52 29) rotate(-18.56)"/><circle class="cls-5" cx="125.07" cy="89.97" r="2.27" transform="translate(-51.18 28.3) rotate(-18.56)"/><circle class="cls-5" cx="119.16" cy="87.98" r="2.27" transform="translate(-50.85 26.31) rotate(-18.56)"/><circle class="cls-5" cx="122.02" cy="84.62" r="2.27" transform="translate(-49.64 27.05) rotate(-18.56)"/><circle class="cls-5" cx="127.29" cy="86.21" r="2.27" transform="translate(-49.87 28.81) rotate(-18.56)"/><circle class="cls-5" cx="131.16" cy="83.62" r="2.27" transform="translate(-48.84 29.91) rotate(-18.56)"/><circle class="cls-5" cx="129.33" cy="91.09" r="2.27" transform="translate(-51.31 29.71) rotate(-18.56)"/><circle class="cls-5" cx="131.78" cy="97.19" r="2.27" transform="translate(-53.13 30.81) rotate(-18.56)"/><circle class="cls-5" cx="131.16" cy="103.45" r="2.27" transform="translate(-55.15 30.94) rotate(-18.56)"/><circle class="cls-5" cx="128" cy="107.27" r="2.27" transform="translate(-56.53 30.13) rotate(-18.56)"/><circle class="cls-5" cx="135.37" cy="103.58" r="2.27" transform="translate(-54.97 32.28) rotate(-18.56)"/><circle class="cls-5" cx="136.73" cy="99.27" r="2.27" transform="translate(-53.53 32.49) rotate(-18.56)"/><circle class="cls-5" cx="136.39" cy="94.62" r="2.27" transform="matrix(0.95, -0.32, 0.32, 0.95, -52.07, 32.14)"/><circle class="cls-5" cx="139.89" cy="91.97" r="2.27" transform="translate(-51.05 33.12) rotate(-18.56)"/><circle class="cls-5" cx="139.06" cy="85.72" r="2.27" transform="translate(-49.1 32.53) rotate(-18.56)"/><circle class="cls-5" cx="143.81" cy="85.72" r="2.27" transform="translate(-48.85 34.04) rotate(-18.56)"/><circle class="cls-5" cx="150.05" cy="84.62" r="2.27" transform="translate(-48.18 35.97) rotate(-18.56)"/><circle class="cls-5" cx="139.31" cy="81.76" r="2.27" transform="translate(-47.82 32.4) rotate(-18.56)"/><circle class="cls-5" cx="133.97" cy="80.28" r="2.27" transform="translate(-47.63 30.63) rotate(-18.56)"/><circle class="cls-5" cx="144.05" cy="91.09" r="2.27" transform="translate(-50.55 34.4) rotate(-18.56)"/><circle class="cls-5" cx="143.71" cy="97.19" r="2.27" transform="translate(-52.51 34.6) rotate(-18.56)"/><circle class="cls-5" cx="139.65" cy="101.76" r="2.27" transform="translate(-54.17 33.55) rotate(-18.56)"/><circle class="cls-5" cx="144.48" cy="101.86" r="2.27" transform="translate(-53.96 35.09) rotate(-18.56)"/><circle class="cls-5" cx="147.75" cy="95.94" r="2.27" transform="translate(-51.9 35.83) rotate(-18.56)"/><circle class="cls-5" cx="149.02" cy="91.4" r="2.27" transform="translate(-50.39 35.99) rotate(-18.56)"/><circle class="cls-5" cx="150.47" cy="101.65" r="2.27" transform="translate(-53.58 36.99) rotate(-18.56)"/><circle class="cls-5" cx="155.82" cy="102.58" r="2.27" transform="translate(-53.59 38.74) rotate(-18.56)"/><circle class="cls-5" cx="158.95" cy="104.77" r="2.27" transform="translate(-54.13 39.85) rotate(-18.56)"/><circle class="cls-5" cx="164.04" cy="101.65" r="2.27" transform="translate(-52.87 41.31) rotate(-18.56)"/><circle class="cls-5" cx="166.37" cy="104.77" r="2.27" transform="translate(-53.74 42.21) rotate(-18.56)"/><circle class="cls-5" cx="168.34" cy="100.77" r="2.27" transform="translate(-52.37 42.63) rotate(-18.56)"/><circle class="cls-5" cx="171.72" cy="96.67" r="2.27" transform="translate(-50.89 43.49) rotate(-18.56)"/><circle class="cls-5" cx="174.48" cy="99.9" r="2.27" transform="translate(-51.77 44.54) rotate(-18.56)"/><circle class="cls-5" cx="177.58" cy="97.1" r="2.27" transform="translate(-50.72 45.38) rotate(-18.56)"/><circle class="cls-5" cx="174.94" cy="92.96" r="2.27" transform="translate(-49.54 44.32) rotate(-18.56)"/><circle class="cls-5" cx="170.94" cy="91.09" r="2.27" transform="translate(-49.15 42.95) rotate(-18.56)"/><circle class="cls-5" cx="173.89" cy="86.22" r="2.27" transform="translate(-47.45 43.64) rotate(-18.56)"/><circle class="cls-5" cx="174.48" cy="82.32" r="2.27" transform="translate(-46.17 43.63) rotate(-18.56)"/><circle class="cls-5" cx="161.97" cy="87.98" r="2.27" transform="translate(-48.63 39.94) rotate(-18.56)"/><circle class="cls-5" cx="163.37" cy="83.17" r="2.27" transform="translate(-47.02 40.13) rotate(-18.56)"/><circle class="cls-5" cx="159.6" cy="80.92" r="2.27" transform="translate(-46.5 38.82) rotate(-18.56)"/><circle class="cls-5" cx="162.48" cy="77.11" r="2.27" transform="translate(-45.14 39.54) rotate(-18.56)"/><circle class="cls-5" cx="165.75" cy="70.35" r="2.27" transform="translate(-36.4 4.59) rotate(-7.02)"/><circle class="cls-5" cx="161.27" cy="73.51" r="2.27" transform="translate(-44.06 38.96) rotate(-18.56)"/><circle class="cls-5" cx="160.67" cy="69.64" r="2.27" transform="translate(-9.03 157.77) rotate(-60)"/><circle class="cls-5" cx="174.17" cy="70.47" r="2.27" transform="translate(-2.99 169.87) rotate(-60)"/><circle class="cls-5" cx="160.7" cy="65.31" r="2.27" transform="translate(-5.26 155.63) rotate(-60)"/><circle class="cls-5" cx="154.97" cy="71.23" r="2.27" transform="translate(-13.24 153.63) rotate(-60)"/><circle class="cls-5" cx="149.02" cy="70.47" r="2.27" transform="translate(-15.56 148.09) rotate(-60)"/><circle class="cls-5" cx="151.1" cy="66.87" r="2.27" transform="translate(-11.41 148.09) rotate(-60)"/><circle class="cls-5" cx="153.83" cy="64.4" r="2.27" transform="translate(-7.9 149.22) rotate(-60)"/><circle class="cls-5" cx="141.96" cy="70.39" r="2.27" transform="translate(-19.03 141.95) rotate(-60)"/><circle class="cls-5" cx="140.64" cy="76.28" r="2.27" transform="translate(-24.79 143.75) rotate(-60)"/><circle class="cls-5" cx="135.85" cy="70.35" r="2.27" transform="translate(-22.05 136.63) rotate(-60)"/><circle class="cls-5" cx="139.56" cy="67.62" r="2.27" transform="translate(-17.83 138.48) rotate(-60)"/><circle class="cls-5" cx="143.47" cy="65.05" r="2.27" transform="translate(-13.64 140.58) rotate(-60)"/><circle class="cls-5" cx="128.18" cy="70.76" r="2.27" transform="translate(-26.24 130.2) rotate(-60)"/><circle class="cls-5" cx="128.18" cy="67.24" r="2.27" transform="translate(-23.18 128.43) rotate(-60)"/><circle class="cls-5" cx="128" cy="75.61" r="2.27" transform="translate(-30.53 132.47) rotate(-60)"/><circle class="cls-5" cx="121.17" cy="76.13" r="2.27" transform="translate(-34.39 126.81) rotate(-60)"/><circle class="cls-5" cx="123.41" cy="72.26" r="2.27" transform="translate(-29.92 126.81) rotate(-60)"/><circle class="cls-5" cx="116.11" cy="75.74" r="2.27" transform="translate(-36.58 122.23) rotate(-60)"/><circle class="cls-5" cx="114.8" cy="71.23" r="2.27" transform="translate(-33.33 118.84) rotate(-60)"/><circle class="cls-5" cx="106.89" cy="73.51" r="2.27" transform="translate(-39.26 113.13) rotate(-60)"/><circle class="cls-5" cx="118.61" cy="57.98" r="2.27" transform="translate(-19.95 115.52) rotate(-60)"/><circle class="cls-5" cx="130.8" cy="52.6" r="2.27" transform="translate(-9.2 123.38) rotate(-60)"/><circle class="cls-5" cx="139.48" cy="49.65" r="2.27" transform="translate(-2.31 129.42) rotate(-60)"/><circle class="cls-5" cx="134.85" cy="56.99" r="2.27" transform="translate(-10.97 129.08) rotate(-60)"/><circle class="cls-5" cx="108.74" cy="52.6" r="2.27" transform="translate(-20.23 104.28) rotate(-60)"/><circle class="cls-5" cx="99.81" cy="54.78" r="2.27" transform="translate(-26.58 97.63) rotate(-60)"/><circle class="cls-5" cx="97.65" cy="58.52" r="2.27" transform="translate(-30.91 97.63) rotate(-60)"/><circle class="cls-5" cx="103.31" cy="68.35" r="2.27" transform="translate(-36.58 107.45) rotate(-60)"/><circle class="cls-5" cx="107.08" cy="60.03" r="2.27" transform="translate(-27.49 106.55) rotate(-60)"/><circle class="cls-5" cx="146.41" cy="52.6" r="2.27" transform="translate(-1.39 136.9) rotate(-60)"/><circle class="cls-5" cx="98" cy="77.92" r="2.27" transform="translate(-47.53 107.64) rotate(-60)"/><circle class="cls-5" cx="97.86" cy="81.78" r="2.27" transform="translate(-50.94 109.45) rotate(-60)"/><circle class="cls-5" cx="92.35" cy="79.39" r="2.27" transform="translate(-51.62 103.48) rotate(-60)"/><circle class="cls-5" cx="89.75" cy="67.24" r="2.27" transform="translate(-42.4 95.15) rotate(-60)"/><circle class="cls-5" cx="104.29" cy="79.94" r="2.27" transform="translate(-46.13 114.1) rotate(-60)"/><circle class="cls-5" cx="111.82" cy="80.92" r="2.27" transform="translate(-43.22 121.11) rotate(-60)"/><circle class="cls-5" cx="107.37" cy="84.09" r="2.27" transform="translate(-48.18 118.84) rotate(-60)"/><circle class="cls-5" cx="151.08" cy="59.21" r="2.27" transform="translate(-18.7 123.78) rotate(-51.25)"/><circle class="cls-5" cx="179.64" cy="86.76" r="2.27" transform="matrix(0.95, -0.32, 0.32, 0.95, -47.32, 45.5)"/><circle class="cls-5" cx="194.03" cy="84.62" r="2.27" transform="translate(-45.89 49.97) rotate(-18.56)"/><circle class="cls-5" cx="184.08" cy="99.46" r="2.27" transform="translate(-51.13 47.57) rotate(-18.56)"/><circle class="cls-5" cx="199.61" cy="76.13" r="2.27" transform="translate(-42.9 51.3) rotate(-18.56)"/><circle class="cls-5" cx="203.56" cy="89.76" r="2.27" transform="translate(-47.77 82.66) rotate(-26.14)"/><circle class="cls-5" cx="107.23" cy="95.02" r="2.27" transform="translate(-57.76 33.6) rotate(-23.15)"/><circle class="cls-5" cx="105.64" cy="99.27" r="2.27" transform="translate(-59.56 33.32) rotate(-23.15)"/><circle class="cls-5" cx="103.76" cy="103.29" r="2.27" transform="translate(-61.3 32.9) rotate(-23.15)"/><circle class="cls-5" cx="94.94" cy="102.44" r="2.27" transform="translate(-61.67 29.37) rotate(-23.15)"/><circle class="cls-5" cx="109.9" cy="103.45" r="2.27" transform="translate(-60.86 35.33) rotate(-23.15)"/><circle class="cls-5" cx="107.58" cy="106.46" r="2.27" transform="translate(-62.23 34.66) rotate(-23.15)"/><circle class="cls-5" cx="112.62" cy="98.76" r="2.27" transform="translate(-58.8 36.02) rotate(-23.15)"/><circle class="cls-5" cx="116.83" cy="95.94" r="2.27" transform="translate(-57.35 37.45) rotate(-23.15)"/><circle class="cls-5" cx="115.28" cy="93.43" r="2.27" transform="translate(-56.49 36.64) rotate(-23.15)"/><circle class="cls-5" cx="110.51" cy="91.09" r="2.27" transform="translate(-55.95 34.57) rotate(-23.15)"/><circle class="cls-5" cx="91.8" cy="88.81" r="2.27" transform="translate(-63.52 53.38) rotate(-35.39)"/><circle class="cls-5" cx="93.92" cy="85.72" r="2.27" transform="translate(-57.75 103.18) rotate(-57.73)"/><circle class="cls-5" cx="90.63" cy="111.87" r="2.27" transform="translate(-42.04 -4.28) rotate(-7.02)"/><circle class="cls-5" cx="99.23" cy="114.97" r="2.27" transform="translate(-42.35 -3.21) rotate(-7.02)"/><circle class="cls-5" cx="100.89" cy="118.79" r="2.27" transform="translate(-42.81 -2.98) rotate(-7.02)"/><circle class="cls-5" cx="103.76" cy="120.16" r="2.27" transform="translate(-42.95 -2.61) rotate(-7.02)"/><circle class="cls-5" cx="104.96" cy="116.34" r="2.27" transform="translate(-42.48 -2.5) rotate(-7.02)"/><circle class="cls-5" cx="108.74" cy="114.97" r="2.27" transform="translate(-42.28 -2.04) rotate(-7.02)"/><circle class="cls-5" cx="105.57" cy="111.87" r="2.27" transform="translate(-41.93 -2.46) rotate(-7.02)"/><circle class="cls-5" cx="113.75" cy="110.29" r="2.27" transform="translate(-41.67 -1.47) rotate(-7.02)"/><circle class="cls-5" cx="118.9" cy="112.77" r="2.27" transform="translate(-41.94 -0.82) rotate(-7.02)"/><circle class="cls-5" cx="121.19" cy="109.47" r="2.27" transform="translate(-41.52 -0.56) rotate(-7.02)"/><circle class="cls-5" cx="124.87" cy="111.87" r="2.27" transform="translate(-41.78 -0.1) rotate(-7.02)"/><circle class="cls-5" cx="123.14" cy="116.39" r="2.27" transform="translate(-42.35 -0.27) rotate(-7.02)"/><circle class="cls-5" cx="124.65" cy="120.16" r="2.27" transform="translate(-42.8 -0.06) rotate(-7.02)"/><circle class="cls-5" cx="128.5" cy="120.38" r="2.27" transform="translate(-42.79 0.41) rotate(-7.02)"/><circle class="cls-5" cx="126.01" cy="124.63" r="2.27" transform="translate(-43.33 0.14) rotate(-7.02)"/><circle class="cls-5" cx="121.19" cy="123.13" r="2.27" transform="translate(-43.19 -0.46) rotate(-7.02)"/><circle class="cls-5" cx="133.37" cy="110.11" r="2.27" transform="translate(-41.5 0.93) rotate(-7.02)"/><circle class="cls-5" cx="95.34" cy="117.53" r="2.27" transform="translate(-42.69 -3.66) rotate(-7.02)"/><circle class="cls-5" cx="97.65" cy="121.41" r="2.27" transform="translate(-72.66 170.94) rotate(-76.14)"/><circle class="cls-5" cx="177.15" cy="129.96" r="2.27" transform="matrix(0.53, -0.85, 0.85, 0.53, -56.35, 194.18)"/><circle class="cls-5" cx="179.81" cy="136.17" r="2.27" transform="translate(-60.37 199.32) rotate(-57.73)"/><circle class="cls-5" cx="187.28" cy="133.42" r="2.27" transform="matrix(0.53, -0.85, 0.85, 0.53, -54.56, 204.35)"/><circle class="cls-5" cx="206.3" cy="128.91" r="2.27" transform="translate(-41.89 218.34) rotate(-57.73)"/><circle class="cls-5" cx="151.08" cy="177.43" r="2.27" transform="matrix(0.53, -0.85, 0.85, 0.53, -108.66, 194.26)"/><circle class="cls-5" cx="145.9" cy="173.65" r="2.27" transform="matrix(0.53, -0.85, 0.85, 0.53, -107.87, 188.12)"/><circle class="cls-5" cx="152.32" cy="168.31" r="2.27" transform="matrix(0.53, -0.85, 0.85, 0.53, -100.37, 191.06)"/><circle class="cls-5" cx="154.08" cy="164.1" r="2.27" transform="matrix(0.53, -0.85, 0.85, 0.53, -95.98, 190.58)"/><circle class="cls-5" cx="187.54" cy="174.08" r="2.27" transform="translate(-96.51 179.04) rotate(-47.61)"/><circle class="cls-5" cx="213.56" cy="187.77" r="2.27" transform="matrix(0.53, -0.85, 0.85, 0.53, -88.27, 251.92)"/><circle class="cls-1" cx="128.42" cy="96.26" r="2.27" transform="translate(-53.01 29.69) rotate(-18.56)"/><circle class="cls-1" cx="117.95" cy="90.88" r="2.27" transform="translate(-51.84 26.08) rotate(-18.56)"/><circle class="cls-1" cx="140.92" cy="87.9" r="2.27" transform="translate(-49.7 33.23) rotate(-18.56)"/><circle class="cls-1" cx="125.98" cy="81.86" r="2.27" transform="translate(-48.55 28.16) rotate(-18.56)"/><circle class="cls-1" cx="123.53" cy="106.77" r="2.27" transform="translate(-56.61 28.68) rotate(-18.56)"/><circle class="cls-1" cx="110.94" cy="111" r="2.27" transform="translate(-58.61 24.89) rotate(-18.56)"/><circle class="cls-1" cx="116.63" cy="117.19" r="2.27" transform="translate(-60.28 27.03) rotate(-18.56)"/><circle class="cls-1" cx="138.02" cy="113.36" r="2.27" transform="translate(-57.95 33.63) rotate(-18.56)"/><circle class="cls-1" cx="149.1" cy="108.17" r="2.27" transform="translate(-55.72 36.89) rotate(-18.56)"/><circle class="cls-1" cx="152.72" cy="117.4" r="2.27" transform="translate(-58.47 38.52) rotate(-18.56)"/><circle class="cls-1" cx="157.96" cy="109.47" r="2.27" transform="translate(-55.68 39.78) rotate(-18.56)"/><circle class="cls-1" cx="166.63" cy="101.86" r="2.27" transform="translate(-52.8 42.14) rotate(-18.56)"/><circle class="cls-1" cx="174.36" cy="96.26" r="2.27" transform="translate(-50.62 44.31) rotate(-18.56)"/><circle class="cls-1" cx="165.92" cy="87.71" r="2.27" transform="translate(-48.34 41.18) rotate(-18.56)"/><circle class="cls-1" cx="159.31" cy="91.97" r="2.27" transform="translate(-50.04 39.3) rotate(-18.56)"/><circle class="cls-1" cx="160.87" cy="77.92" r="2.27" transform="translate(-45.48 39.07) rotate(-18.56)"/><circle class="cls-1" cx="156.38" cy="86.43" r="2.27" transform="translate(-48.42 38.08) rotate(-18.56)"/><path class="cls-2" d="M35.42,122.58a3.39,3.39,0,0,0,.48-1.72c0-1-.52-1.55-1.27-1.55s-1.09.4-1.47,1.4c-.43,1.21-1.06,2-2.1,2a2.14,2.14,0,0,1-2-2.4,3.36,3.36,0,0,1,.36-1.64l.78.26a2.94,2.94,0,0,0-.35,1.41c0,1,.61,1.4,1.11,1.4.69,0,1-.45,1.43-1.47.48-1.25,1.09-1.89,2.18-1.89s2.13.85,2.13,2.6a3.83,3.83,0,0,1-.47,1.89Z" transform="translate(-29.05 -16.19)"/><path class="cls-2" d="M33,117.05c-.68,0-1.23,0-1.74,0v-.87l.91,0v0a2.09,2.09,0,0,1-1-1.89c0-1.29,1.09-2.25,2.71-2.25,1.91,0,2.86,1.17,2.86,2.42a1.87,1.87,0,0,1-.84,1.64v0h2.89v1Zm1.42-1a2.14,2.14,0,0,0,.4,0,1.49,1.49,0,0,0,1.13-1.45c0-1-.84-1.62-2.06-1.62-1.07,0-2,.56-2,1.58a1.67,1.67,0,0,0,1.6,1.53Z" transform="translate(-29.05 -16.19)"/><path class="cls-2" d="M36.58,107.85l-.67.08v0a2,2,0,0,1,.79,1.63,1.52,1.52,0,0,1-1.53,1.63c-1.29,0-2-1.14-2-3.2h-.11a1.1,1.1,0,0,0-1.23,1.21,2.65,2.65,0,0,0,.4,1.39l-.64.22a3.3,3.3,0,0,1-.47-1.75c0-1.63,1.11-2,2.18-2h2a7.46,7.46,0,0,0,1.28-.09Zm-2.72.14c0,1.06.17,2.25,1.2,2.25a.86.86,0,0,0,.92-.91A1.33,1.33,0,0,0,35.1,108a1,1,0,0,0-.31-.05Z" transform="translate(-29.05 -16.19)"/><path class="cls-2" d="M36.38,101.7a3.57,3.57,0,0,1,.31,1.53A2.53,2.53,0,0,1,34,105.88,2.71,2.71,0,0,1,31.15,103a3.25,3.25,0,0,1,.27-1.34l.75.22a2.24,2.24,0,0,0-.25,1.12,2,2,0,0,0,4,0,2.75,2.75,0,0,0-.26-1.19Z" transform="translate(-29.05 -16.19)"/><path class="cls-2" d="M29.76,99.49a.6.6,0,0,1,0,1.2.59.59,0,0,1-.6-.61A.57.57,0,0,1,29.76,99.49Zm6.82,1.08H31.26v-1h5.33Z" transform="translate(-29.05 -16.19)"/><path class="cls-2" d="M32.7,98c-.55,0-1,0-1.44,0v-.86l.88-.05v0a2,2,0,0,1-1-1.76c0-.74.44-1.88,2.27-1.88h3.18v1H33.51c-.86,0-1.57.32-1.57,1.23a1.38,1.38,0,0,0,1,1.3,1.4,1.4,0,0,0,.45.07h3.2v1Z" transform="translate(-29.05 -16.19)"/><path class="cls-2" d="M31.26,87.3c.39,0,.81,0,1.46,0h3.09a3.06,3.06,0,0,1,2.43.76A2.82,2.82,0,0,1,38.88,90a3.44,3.44,0,0,1-.44,1.77l-.74-.24A3,3,0,0,0,38.12,90c0-1-.52-1.72-1.86-1.72h-.59v0A1.9,1.9,0,0,1,36.56,90,2.38,2.38,0,0,1,34,92.27a2.56,2.56,0,0,1-2.83-2.4,1.77,1.77,0,0,1,.92-1.66v0l-.8,0Zm2.1,1a1.38,1.38,0,0,0-.44.05,1.4,1.4,0,0,0-1,1.35c0,.92.78,1.58,2,1.58,1,0,1.92-.53,1.92-1.57a1.42,1.42,0,0,0-1-1.34,1.7,1.7,0,0,0-.52-.08Z" transform="translate(-29.05 -16.19)"/><path class="cls-2" d="M96.94,215.39a11.09,11.09,0,0,1,1.84-.14,3,3,0,0,1,2.08.62,2,2,0,0,1,.65,1.55,2.18,2.18,0,0,1-.57,1.58,3.08,3.08,0,0,1-2.27.81,3.26,3.26,0,0,1-.77-.07v3h-1Zm1,3.58a3.18,3.18,0,0,0,.79.08c1.16,0,1.86-.56,1.86-1.58S99.86,216,98.8,216a4,4,0,0,0-.9.08Z" transform="translate(-29.05 -16.19)"/><path class="cls-2" d="M102.58,219.05c0-.63,0-1.17,0-1.66h.85l0,1h0a1.6,1.6,0,0,1,1.47-1.17,1.07,1.07,0,0,1,.28,0v.91a1.49,1.49,0,0,0-.33,0,1.36,1.36,0,0,0-1.3,1.24,2.66,2.66,0,0,0,0,.45v2.84h-1Z" transform="translate(-29.05 -16.19)"/><path class="cls-2" d="M110.89,220a2.6,2.6,0,0,1-2.65,2.83,2.53,2.53,0,0,1-2.55-2.74,2.6,2.6,0,0,1,2.64-2.83A2.52,2.52,0,0,1,110.89,220Zm-4.22.05c0,1.17.67,2,1.62,2s1.62-.87,1.62-2.07c0-.9-.45-2-1.6-2S106.66,219.05,106.66,220.07Z" transform="translate(-29.05 -16.19)"/><path class="cls-2" d="M115.9,222.52a3.57,3.57,0,0,1-1.53.31,2.53,2.53,0,0,1-2.65-2.72,2.71,2.71,0,0,1,2.86-2.83,3.25,3.25,0,0,1,1.34.27l-.22.75a2.24,2.24,0,0,0-1.12-.25,2,2,0,0,0,0,4,2.75,2.75,0,0,0,1.19-.26Z" transform="translate(-29.05 -16.19)"/><path class="cls-2" d="M117,219.05c0-.63,0-1.17,0-1.66h.85l0,1h0a1.6,1.6,0,0,1,1.47-1.17,1.07,1.07,0,0,1,.28,0v.91a1.49,1.49,0,0,0-.33,0,1.36,1.36,0,0,0-1.3,1.24,2.66,2.66,0,0,0,0,.45v2.84h-1Z" transform="translate(-29.05 -16.19)"/><path class="cls-2" d="M123.53,222.72l-.08-.67h0a2,2,0,0,1-1.63.79,1.52,1.52,0,0,1-1.63-1.53c0-1.29,1.14-2,3.2-2v-.11a1.1,1.1,0,0,0-1.21-1.23,2.65,2.65,0,0,0-1.39.4l-.22-.64a3.3,3.3,0,0,1,1.75-.47c1.63,0,2,1.11,2,2.18v2a7.46,7.46,0,0,0,.09,1.28Zm-.14-2.72c-1.06,0-2.25.17-2.25,1.2a.86.86,0,0,0,.91.92,1.33,1.33,0,0,0,1.29-.89,1,1,0,0,0,.05-.31Z" transform="translate(-29.05 -16.19)"/><path class="cls-2" d="M125.75,221.73a2.53,2.53,0,0,0,1.28.38c.7,0,1-.35,1-.79s-.28-.71-1-1c-1-.34-1.41-.87-1.41-1.51a1.64,1.64,0,0,1,1.84-1.56,2.66,2.66,0,0,1,1.31.33l-.24.7a2.07,2.07,0,0,0-1.09-.31c-.57,0-.89.33-.89.73s.32.64,1,.9c.92.35,1.4.81,1.4,1.61s-.73,1.6-2,1.6a3,3,0,0,1-1.5-.36Z" transform="translate(-29.05 -16.19)"/><path class="cls-2" d="M131.4,215.86v1.53h1.39v.74H131.4V221c0,.66.19,1,.73,1a2.15,2.15,0,0,0,.56-.07l0,.73a2.37,2.37,0,0,1-.86.13,1.34,1.34,0,0,1-1-.41,2,2,0,0,1-.37-1.39v-2.9h-.83v-.74h.83v-1.28Z" transform="translate(-29.05 -16.19)"/><path class="cls-2" d="M135,215.9a.6.6,0,0,1-1.2,0,.59.59,0,0,1,.61-.6A.57.57,0,0,1,135,215.9Zm-1.08,6.82v-5.33h1v5.33Z" transform="translate(-29.05 -16.19)"/><path class="cls-2" d="M136.45,218.83c0-.55,0-1,0-1.44h.86l.05.88h0a2,2,0,0,1,1.76-1c.74,0,1.88.44,1.88,2.27v3.18h-1v-3.07c0-.86-.32-1.57-1.23-1.57a1.38,1.38,0,0,0-1.3,1,1.4,1.4,0,0,0-.07.45v3.2h-1Z" transform="translate(-29.05 -16.19)"/><path class="cls-2" d="M145.51,222.72l-.08-.67h0a2,2,0,0,1-1.63.79,1.52,1.52,0,0,1-1.63-1.53c0-1.29,1.14-2,3.2-2v-.11a1.1,1.1,0,0,0-1.21-1.23,2.65,2.65,0,0,0-1.39.4l-.22-.64a3.3,3.3,0,0,1,1.75-.47c1.63,0,2,1.11,2,2.18v2a7.46,7.46,0,0,0,.09,1.28Zm-.14-2.72c-1.06,0-2.25.17-2.25,1.2a.86.86,0,0,0,.91.92,1.33,1.33,0,0,0,1.29-.89,1,1,0,0,0,.05-.31Z" transform="translate(-29.05 -16.19)"/><path class="cls-2" d="M149,215.86v1.53h1.39v.74H149V221c0,.66.19,1,.73,1a2.15,2.15,0,0,0,.56-.07l0,.73a2.37,2.37,0,0,1-.86.13,1.34,1.34,0,0,1-1-.41A2,2,0,0,1,148,221v-2.9h-.83v-.74H148v-1.28Z" transform="translate(-29.05 -16.19)"/><path class="cls-2" d="M152.53,215.9a.6.6,0,0,1-1.2,0,.59.59,0,0,1,.61-.6A.57.57,0,0,1,152.53,215.9Zm-1.08,6.82v-5.33h1v5.33Z" transform="translate(-29.05 -16.19)"/><path class="cls-2" d="M158.85,220a2.6,2.6,0,0,1-2.65,2.83,2.53,2.53,0,0,1-2.55-2.74,2.6,2.6,0,0,1,2.64-2.83A2.52,2.52,0,0,1,158.85,220Zm-4.22.05c0,1.17.67,2,1.62,2s1.62-.87,1.62-2.07c0-.9-.45-2-1.6-2S154.62,219.05,154.62,220.07Z" transform="translate(-29.05 -16.19)"/><path class="cls-2" d="M160.07,218.83c0-.55,0-1,0-1.44h.86l.05.88h0a2,2,0,0,1,1.76-1c.74,0,1.88.44,1.88,2.27v3.18h-1v-3.07c0-.86-.32-1.57-1.23-1.57a1.38,1.38,0,0,0-1.3,1,1.4,1.4,0,0,0-.07.45v3.2h-1Z" transform="translate(-29.05 -16.19)"/><path class="cls-6" d="M400.52,326.19H189.76a.5.5,0,1,1,0-1H400.52a.5.5,0,0,1,0,1Z" transform="translate(-29.05 -16.19)"/><path class="cls-6" d="M400.52,280.59H189.76a.5.5,0,1,1,0-1H400.52a.5.5,0,0,1,0,1Z" transform="translate(-29.05 -16.19)"/><circle class="cls-7" cx="332.28" cy="263.89" r="4.76"/><circle class="cls-7" cx="218.06" cy="309.92" r="4.76"/><path class="cls-8" d="M256.87,355.57h0a.5.5,0,0,1-.5-.5V352a.5.5,0,0,1,.5-.5h0a.5.5,0,0,1,.5.5v3.06A.5.5,0,0,1,256.87,355.57Zm0-6.37h0a.5.5,0,0,1-.5-.5v-3.31a.5.5,0,0,1,.5-.5h0a.5.5,0,0,1,.5.5v3.31A.5.5,0,0,1,256.89,349.2Zm0-6.62h0a.5.5,0,0,1-.5-.5v-3.31a.5.5,0,0,1,.5-.5h0a.5.5,0,0,1,.5.5v3.31A.5.5,0,0,1,256.9,342.57Zm0-6.62h0a.5.5,0,0,1-.5-.5v-3.31a.5.5,0,0,1,.5-.5h0a.5.5,0,0,1,.5.5v3.31A.5.5,0,0,1,256.92,335.95Zm0-6.62h0a.5.5,0,0,1-.5-.5v-3.31a.5.5,0,0,1,.5-.5h0a.5.5,0,0,1,.5.5v3.31A.5.5,0,0,1,256.94,329.33Zm0-6.62h0a.5.5,0,0,1-.5-.5v-3.31a.5.5,0,0,1,.5-.5h0a.5.5,0,0,1,.5.5v3.31A.5.5,0,0,1,257,322.7Zm0-6.62h0a.5.5,0,0,1-.5-.5v-3.31a.5.5,0,0,1,.5-.5h0a.5.5,0,0,1,.5.5v3.31A.5.5,0,0,1,257,316.08Zm0-6.62h0a.5.5,0,0,1-.5-.5v-3.31a.5.5,0,0,1,.5-.5h0a.5.5,0,0,1,.5.5V309A.5.5,0,0,1,257,309.46Zm0-6.62h0a.5.5,0,0,1-.5-.5V299a.5.5,0,0,1,.5-.5h0a.5.5,0,0,1,.5.5v3.31A.5.5,0,0,1,257,302.83Zm0-6.62h0a.5.5,0,0,1-.5-.5V292.4a.5.5,0,0,1,.5-.5h0a.5.5,0,0,1,.5.5v3.31A.5.5,0,0,1,257,296.21Zm0-6.62h0a.5.5,0,0,1-.5-.5v-3.31a.5.5,0,0,1,.5-.5h0a.5.5,0,0,1,.5.5v3.31A.5.5,0,0,1,257,289.59Zm0-6.62h0a.5.5,0,0,1-.5-.5v-3.31a.5.5,0,0,1,.5-.5h0a.5.5,0,0,1,.5.5v3.31A.5.5,0,0,1,257.05,283Zm0-6.62h0a.5.5,0,0,1-.5-.5v-3.31a.5.5,0,0,1,.5-.5h0a.5.5,0,0,1,.5.5v3.31A.5.5,0,0,1,257.07,276.34Zm0-6.62h0a.5.5,0,0,1-.5-.5V265.9a.5.5,0,0,1,.5-.5h0a.5.5,0,0,1,.5.5v3.31A.5.5,0,0,1,257.08,269.72Zm0-6.62h0a.5.5,0,0,1-.5-.5v-3.31a.5.5,0,0,1,.5-.5h0a.5.5,0,0,1,.5.5v3.31A.5.5,0,0,1,257.1,263.09Zm0-6.62h0a.5.5,0,0,1-.5-.5v-3.31a.5.5,0,0,1,.5-.5h0a.5.5,0,0,1,.5.5V256A.5.5,0,0,1,257.12,256.47Z" transform="translate(-29.05 -16.19)"/><path class="cls-6" d="M328.8,354.46a.5.5,0,0,1-.5-.5v-3.31a.5.5,0,0,1,1,0V354A.5.5,0,0,1,328.8,354.46Zm0-6.62a.5.5,0,0,1-.5-.5V344a.5.5,0,0,1,1,0v3.31A.5.5,0,0,1,328.8,347.84Zm0-6.62a.5.5,0,0,1-.5-.5V337.4a.5.5,0,0,1,1,0v3.31A.5.5,0,0,1,328.8,341.21Zm0-6.62a.5.5,0,0,1-.5-.5v-3.31a.5.5,0,0,1,1,0v3.31A.5.5,0,0,1,328.8,334.59Zm0-6.62a.5.5,0,0,1-.5-.5v-3.31a.5.5,0,0,1,1,0v3.31A.5.5,0,0,1,328.8,328Zm0-6.62a.5.5,0,0,1-.5-.5v-3.31a.5.5,0,0,1,1,0v3.31A.5.5,0,0,1,328.8,321.35Zm0-6.62a.5.5,0,0,1-.5-.5v-3.31a.5.5,0,0,1,1,0v3.31A.5.5,0,0,1,328.8,314.72Zm0-6.62a.5.5,0,0,1-.5-.5v-3.31a.5.5,0,0,1,1,0v3.31A.5.5,0,0,1,328.8,308.1Zm0-6.62a.5.5,0,0,1-.5-.5v-3.31a.5.5,0,0,1,1,0V301A.5.5,0,0,1,328.8,301.48Zm0-6.62a.5.5,0,0,1-.5-.5V291a.5.5,0,0,1,1,0v3.31A.5.5,0,0,1,328.8,294.85Zm0-6.62a.5.5,0,0,1-.5-.5v-3.31a.5.5,0,0,1,1,0v3.31A.5.5,0,0,1,328.8,288.23Zm0-6.62a.5.5,0,0,1-.5-.5v-3.31a.5.5,0,0,1,1,0v3.31A.5.5,0,0,1,328.8,281.61Zm0-6.62a.5.5,0,0,1-.5-.5v-3.31a.5.5,0,0,1,1,0v3.31A.5.5,0,0,1,328.8,275Z" transform="translate(-29.05 -16.19)"/><path class="cls-6" d="M328.8,263.09a.5.5,0,0,1-.5-.5v-3.31a.5.5,0,0,1,1,0v3.31A.5.5,0,0,1,328.8,263.09Zm0-6.62a.5.5,0,0,1-.5-.5v-3.31a.5.5,0,1,1,1,0V256A.5.5,0,0,1,328.8,256.47Z" transform="translate(-29.05 -16.19)"/><path class="cls-6" d="M401,355.57H189.26V252.25l.4-.08c1.29-.26,189.41,0,210.86,0h.5Zm-210.76-1H400V253.16c-11.13,0-199.26-.23-209.76,0Z" transform="translate(-29.05 -16.19)"/><path class="cls-2" d="M321.2,361.71c0,2.08-.77,3.23-2.13,3.23-1.2,0-2-1.12-2-3.15s.88-3.19,2.13-3.19S321.2,359.75,321.2,361.71Zm-3.33.09c0,1.59.49,2.5,1.25,2.5s1.25-1,1.25-2.56-.39-2.5-1.24-2.5S317.87,360.13,317.87,361.8Z" transform="translate(-29.05 -16.19)"/><path class="cls-2" d="M322,364.35a.56.56,0,0,1,.57-.59.59.59,0,1,1-.57.59Z" transform="translate(-29.05 -16.19)"/><path class="cls-2" d="M325.72,359.48h0l-1.07.58-.16-.63,1.34-.72h.71v6.13h-.8Z" transform="translate(-29.05 -16.19)"/><path class="cls-2" d="M332.83,361.71c0,2.08-.77,3.23-2.13,3.23-1.2,0-2-1.12-2-3.15s.88-3.19,2.13-3.19S332.83,359.75,332.83,361.71Zm-3.33.09c0,1.59.49,2.5,1.25,2.5s1.25-1,1.25-2.56-.39-2.5-1.24-2.5S329.5,360.13,329.5,361.8Z" transform="translate(-29.05 -16.19)"/><path class="cls-2" d="M336.36,360.43c0,1.29-.68,1.93-1.47,1.93s-1.42-.61-1.43-1.85.67-1.91,1.48-1.91S336.36,359.26,336.36,360.43Zm-2.24.06c0,.78.27,1.38.79,1.38s.79-.58.79-1.4-.22-1.37-.79-1.37S334.12,359.72,334.12,360.49Zm.72,4.45,3.6-6.34H339l-3.6,6.34Zm5.52-2c0,1.29-.68,1.93-1.46,1.93s-1.42-.61-1.43-1.84.67-1.92,1.48-1.92S340.35,361.8,340.35,363Zm-2.24.06c0,.78.29,1.38.8,1.38s.79-.58.79-1.4-.22-1.37-.79-1.37S338.11,362.25,338.11,363Z" transform="translate(-29.05 -16.19)"/><path class="cls-2" d="M249.9,361.71c0,2.08-.77,3.23-2.13,3.23-1.2,0-2-1.12-2-3.15s.89-3.19,2.13-3.19S249.9,359.75,249.9,361.71Zm-3.33.09c0,1.59.49,2.5,1.24,2.5s1.25-1,1.25-2.56-.39-2.5-1.24-2.5S246.58,360.13,246.58,361.8Z" transform="translate(-29.05 -16.19)"/><path class="cls-2" d="M250.74,364.35a.56.56,0,0,1,.57-.59.59.59,0,1,1-.57.59Z" transform="translate(-29.05 -16.19)"/><path class="cls-2" d="M256.7,361.71c0,2.08-.77,3.23-2.13,3.23-1.2,0-2-1.12-2-3.15s.89-3.19,2.13-3.19S256.7,359.75,256.7,361.71Zm-3.33.09c0,1.59.49,2.5,1.24,2.5s1.25-1,1.25-2.56-.39-2.5-1.24-2.5S253.37,360.13,253.37,361.8Z" transform="translate(-29.05 -16.19)"/><path class="cls-2" d="M261.54,361.71c0,2.08-.77,3.23-2.13,3.23-1.2,0-2-1.12-2-3.15s.89-3.19,2.13-3.19S261.54,359.75,261.54,361.71Zm-3.33.09c0,1.59.49,2.5,1.24,2.5s1.25-1,1.25-2.56-.39-2.5-1.24-2.5S258.21,360.13,258.21,361.8Z" transform="translate(-29.05 -16.19)"/><path class="cls-2" d="M265.07,360.43c0,1.29-.68,1.93-1.47,1.93s-1.42-.61-1.43-1.85.67-1.91,1.48-1.91S265.07,359.26,265.07,360.43Zm-2.24.06c0,.78.27,1.38.79,1.38s.79-.58.79-1.4-.22-1.37-.79-1.37S262.82,359.72,262.82,360.49Zm.72,4.45,3.6-6.34h.53l-3.6,6.34Zm5.52-2c0,1.29-.68,1.93-1.46,1.93s-1.42-.61-1.43-1.84.67-1.92,1.48-1.92S269.05,361.8,269.05,363Zm-2.24.06c0,.78.29,1.38.8,1.38s.79-.58.79-1.4-.22-1.37-.79-1.37S266.81,362.25,266.81,363Z" transform="translate(-29.05 -16.19)"/><path class="cls-2" d="M142.66,281.94a2.84,2.84,0,0,0,1.44.41c.82,0,1.3-.43,1.3-1.06s-.33-.91-1.17-1.23c-1-.36-1.64-.88-1.64-1.76a1.79,1.79,0,0,1,2-1.68,2.81,2.81,0,0,1,1.37.3l-.22.65a2.47,2.47,0,0,0-1.18-.29c-.85,0-1.17.51-1.17.93,0,.58.38.87,1.23,1.2,1,.4,1.58.91,1.58,1.82S145.5,283,144,283a3.2,3.2,0,0,1-1.58-.4Z" transform="translate(-29.05 -16.19)"/><path class="cls-2" d="M147.28,279.92c0-.57,0-1,0-1.45H148l0,.76h0a1.75,1.75,0,0,1,1.58-.87,2,2,0,0,1,1.89,2.26,2.11,2.11,0,0,1-2,2.39,1.56,1.56,0,0,1-1.37-.7h0v2.42h-.8Zm.8,1.19a1.82,1.82,0,0,0,0,.33,1.25,1.25,0,0,0,1.21.95c.86,0,1.35-.7,1.35-1.72s-.47-1.66-1.33-1.66a1.29,1.29,0,0,0-1.22,1,1.32,1.32,0,0,0-.05.33Z" transform="translate(-29.05 -16.19)"/><path class="cls-2" d="M155,282.92l-.06-.56h0a1.66,1.66,0,0,1-1.36.66,1.27,1.27,0,0,1-1.36-1.28c0-1.08,1-1.67,2.68-1.66V280a.92.92,0,0,0-1-1,2.21,2.21,0,0,0-1.16.33l-.18-.53a2.76,2.76,0,0,1,1.46-.4c1.36,0,1.69.93,1.69,1.82v1.67a6.22,6.22,0,0,0,.07,1.07Zm-.12-2.27c-.88,0-1.89.14-1.89,1a.72.72,0,0,0,.76.77,1.11,1.11,0,0,0,1.08-.75.82.82,0,0,0,0-.26Z" transform="translate(-29.05 -16.19)"/><path class="cls-2" d="M160.12,282.75a3,3,0,0,1-1.28.26,2.12,2.12,0,0,1-2.22-2.27,2.26,2.26,0,0,1,2.39-2.36,2.71,2.71,0,0,1,1.12.23l-.18.63A1.88,1.88,0,0,0,159,279a1.68,1.68,0,0,0,0,3.35,2.31,2.31,0,0,0,1-.22Z" transform="translate(-29.05 -16.19)"/><path class="cls-2" d="M162,277.21a.5.5,0,0,1-1,0,.49.49,0,0,1,.51-.51A.48.48,0,0,1,162,277.21Zm-.9,5.71v-4.45h.81v4.45Z" transform="translate(-29.05 -16.19)"/><path class="cls-2" d="M163.21,279.67c0-.46,0-.84,0-1.21h.72l0,.74h0a1.64,1.64,0,0,1,1.47-.84c.62,0,1.57.37,1.57,1.9v2.66h-.81v-2.57c0-.72-.27-1.32-1-1.32a1.15,1.15,0,0,0-1.09.83,1.18,1.18,0,0,0-.05.38v2.68h-.81Z" transform="translate(-29.05 -16.19)"/><path class="cls-2" d="M172.15,278.46c0,.32,0,.68,0,1.22v2.58a2.56,2.56,0,0,1-.63,2,2.36,2.36,0,0,1-1.62.53,2.87,2.87,0,0,1-1.48-.37l.2-.62a2.52,2.52,0,0,0,1.31.35c.83,0,1.44-.43,1.44-1.55v-.5h0a1.59,1.59,0,0,1-1.42.75,2,2,0,0,1-1.9-2.17,2.14,2.14,0,0,1,2-2.37,1.48,1.48,0,0,1,1.39.77h0l0-.67Zm-.84,1.76a1.14,1.14,0,0,0,0-.37,1.17,1.17,0,0,0-1.13-.86c-.77,0-1.32.65-1.32,1.68,0,.88.44,1.6,1.32,1.6a1.18,1.18,0,0,0,1.12-.83,1.41,1.41,0,0,0,.06-.43Z" transform="translate(-29.05 -16.19)"/><path class="cls-2" d="M128.7,323.07a9.29,9.29,0,0,1,1.54-.12,2.55,2.55,0,0,1,1.74.51,1.67,1.67,0,0,1,.54,1.3,1.82,1.82,0,0,1-.48,1.32,2.57,2.57,0,0,1-1.9.68,2.75,2.75,0,0,1-.64-.06v2.48h-.8Zm.8,3a2.69,2.69,0,0,0,.66.06c1,0,1.55-.47,1.55-1.33s-.58-1.21-1.46-1.21a3.33,3.33,0,0,0-.75.06Z" transform="translate(-29.05 -16.19)"/><path class="cls-2" d="M133.42,326.13c0-.53,0-1,0-1.39h.71l0,.87h0a1.33,1.33,0,0,1,1.23-1,.92.92,0,0,1,.23,0v.76a1.27,1.27,0,0,0-.28,0,1.14,1.14,0,0,0-1.09,1,2.26,2.26,0,0,0,0,.38v2.37h-.8Z" transform="translate(-29.05 -16.19)"/><path class="cls-2" d="M140.37,326.93a2.18,2.18,0,0,1-2.22,2.37A2.12,2.12,0,0,1,136,327a2.17,2.17,0,0,1,2.21-2.37A2.11,2.11,0,0,1,140.37,326.93Zm-3.53,0c0,1,.56,1.71,1.35,1.71s1.35-.73,1.35-1.73c0-.75-.38-1.71-1.33-1.71S136.83,326.13,136.83,327Z" transform="translate(-29.05 -16.19)"/><path class="cls-2" d="M144.56,329a3,3,0,0,1-1.28.26,2.12,2.12,0,0,1-2.22-2.27,2.26,2.26,0,0,1,2.39-2.36,2.71,2.71,0,0,1,1.12.23l-.18.63a1.88,1.88,0,0,0-.94-.21,1.68,1.68,0,0,0,0,3.35,2.31,2.31,0,0,0,1-.22Z" transform="translate(-29.05 -16.19)"/><path class="cls-2" d="M145.5,326.13c0-.53,0-1,0-1.39h.71l0,.87h0a1.33,1.33,0,0,1,1.23-1,.92.92,0,0,1,.23,0v.76a1.27,1.27,0,0,0-.28,0,1.14,1.14,0,0,0-1.09,1,2.27,2.27,0,0,0,0,.38v2.37h-.8Z" transform="translate(-29.05 -16.19)"/><path class="cls-2" d="M150.93,329.19l-.06-.56h0a1.66,1.66,0,0,1-1.36.66,1.27,1.27,0,0,1-1.36-1.28c0-1.08,1-1.67,2.68-1.66v-.09a.92.92,0,0,0-1-1,2.22,2.22,0,0,0-1.16.33l-.18-.53a2.76,2.76,0,0,1,1.46-.4c1.36,0,1.69.93,1.69,1.82v1.67a6.22,6.22,0,0,0,.07,1.07Zm-.12-2.27c-.88,0-1.89.14-1.89,1a.72.72,0,0,0,.76.77,1.11,1.11,0,0,0,1.08-.75.82.82,0,0,0,0-.26Z" transform="translate(-29.05 -16.19)"/><path class="cls-2" d="M152.79,328.37a2.12,2.12,0,0,0,1.07.32c.59,0,.86-.29.86-.66s-.23-.6-.83-.82c-.8-.29-1.18-.73-1.18-1.26a1.37,1.37,0,0,1,1.54-1.31,2.22,2.22,0,0,1,1.09.28l-.2.59a1.73,1.73,0,0,0-.91-.26c-.48,0-.75.28-.75.61s.27.53.85.75c.77.29,1.17.68,1.17,1.34s-.61,1.33-1.67,1.33a2.54,2.54,0,0,1-1.25-.3Z" transform="translate(-29.05 -16.19)"/><path class="cls-2" d="M157.51,323.46v1.28h1.16v.62h-1.16v2.4c0,.55.16.87.61.87a1.77,1.77,0,0,0,.47-.06l0,.61a2,2,0,0,1-.72.11,1.12,1.12,0,0,1-.87-.34,1.65,1.65,0,0,1-.31-1.16v-2.43H156v-.62h.69v-1.07Z" transform="translate(-29.05 -16.19)"/><path class="cls-2" d="M160.48,323.49a.5.5,0,0,1-1,0A.49.49,0,0,1,160,323,.48.48,0,0,1,160.48,323.49Zm-.9,5.71v-4.45h.81v4.45Z" transform="translate(-29.05 -16.19)"/><path class="cls-2" d="M161.73,325.95c0-.46,0-.84,0-1.21h.72l0,.74h0a1.64,1.64,0,0,1,1.47-.84c.62,0,1.57.37,1.57,1.9v2.66h-.81v-2.57c0-.72-.27-1.32-1-1.32a1.15,1.15,0,0,0-1.09.83,1.18,1.18,0,0,0-.05.38v2.68h-.81Z" transform="translate(-29.05 -16.19)"/><path class="cls-2" d="M169.3,329.19l-.06-.56h0a1.66,1.66,0,0,1-1.36.66,1.27,1.27,0,0,1-1.36-1.28c0-1.08,1-1.67,2.68-1.66v-.09a.92.92,0,0,0-1-1,2.22,2.22,0,0,0-1.16.33l-.18-.53a2.76,2.76,0,0,1,1.46-.4c1.36,0,1.69.93,1.69,1.82v1.67a6.22,6.22,0,0,0,.07,1.07Zm-.12-2.27c-.88,0-1.89.14-1.89,1a.72.72,0,0,0,.76.77,1.11,1.11,0,0,0,1.08-.75.82.82,0,0,0,0-.26Z" transform="translate(-29.05 -16.19)"/><path class="cls-2" d="M172.21,323.46v1.28h1.16v.62h-1.16v2.4c0,.55.16.87.61.87a1.77,1.77,0,0,0,.47-.06l0,.61a2,2,0,0,1-.72.11,1.12,1.12,0,0,1-.87-.34,1.65,1.65,0,0,1-.31-1.16v-2.43h-.69v-.62h.69v-1.07Z" transform="translate(-29.05 -16.19)"/><path class="cls-2" d="M175.18,323.49a.5.5,0,0,1-1,0,.49.49,0,0,1,.51-.51A.48.48,0,0,1,175.18,323.49Zm-.9,5.71v-4.45h.81v4.45Z" transform="translate(-29.05 -16.19)"/><path class="cls-2" d="M180.46,326.93a2.18,2.18,0,0,1-2.22,2.37,2.12,2.12,0,0,1-2.13-2.29,2.17,2.17,0,0,1,2.21-2.37A2.11,2.11,0,0,1,180.46,326.93Zm-3.53,0c0,1,.56,1.71,1.35,1.71s1.35-.73,1.35-1.73c0-.75-.38-1.71-1.33-1.71S176.92,326.13,176.92,327Z" transform="translate(-29.05 -16.19)"/><path class="cls-2" d="M181.48,325.95c0-.46,0-.84,0-1.21h.72l0,.74h0a1.64,1.64,0,0,1,1.47-.84c.62,0,1.57.37,1.57,1.9v2.66h-.81v-2.57c0-.72-.27-1.32-1-1.32a1.15,1.15,0,0,0-1.09.83,1.18,1.18,0,0,0-.05.38v2.68h-.81Z" transform="translate(-29.05 -16.19)"/><path class="cls-2" d="M234.59,376.45h-2.41v2.24h2.69v.67h-3.49v-6.2h3.35v.67h-2.55v2h2.41Z" transform="translate(-29.05 -16.19)"/><path class="cls-2" d="M235.77,378.53a2.12,2.12,0,0,0,1.07.32c.59,0,.86-.29.86-.66s-.23-.6-.83-.82c-.8-.29-1.18-.73-1.18-1.26a1.37,1.37,0,0,1,1.54-1.31,2.22,2.22,0,0,1,1.09.28l-.2.59a1.73,1.73,0,0,0-.91-.26c-.48,0-.75.28-.75.61s.27.53.85.75c.77.29,1.17.68,1.17,1.34s-.61,1.33-1.67,1.33a2.54,2.54,0,0,1-1.25-.3Z" transform="translate(-29.05 -16.19)"/><path class="cls-2" d="M240.5,373.62v1.28h1.16v.62H240.5v2.4c0,.55.16.87.61.87a1.77,1.77,0,0,0,.47-.06l0,.61a2,2,0,0,1-.72.11,1.12,1.12,0,0,1-.87-.34,1.65,1.65,0,0,1-.31-1.16v-2.43H239v-.62h.69v-1.07Z" transform="translate(-29.05 -16.19)"/><path class="cls-2" d="M243.47,373.65a.5.5,0,0,1-1,0,.49.49,0,0,1,.51-.51A.48.48,0,0,1,243.47,373.65Zm-.9,5.71V374.9h.81v4.45Z" transform="translate(-29.05 -16.19)"/><path class="cls-2" d="M244.72,376.11c0-.46,0-.84,0-1.21h.71l0,.72h0a1.53,1.53,0,0,1,1.4-.82,1.31,1.31,0,0,1,1.26.89h0a1.85,1.85,0,0,1,.5-.58,1.52,1.52,0,0,1,1-.31c.59,0,1.46.39,1.46,1.93v2.62h-.79v-2.52c0-.86-.31-1.37-1-1.37a1,1,0,0,0-1,.74,1.33,1.33,0,0,0-.06.41v2.75h-.79v-2.67c0-.71-.31-1.22-.93-1.22a1.21,1.21,0,0,0-1.07,1.21v2.69h-.79Z" transform="translate(-29.05 -16.19)"/><path class="cls-2" d="M254.85,379.36l-.06-.56h0a1.66,1.66,0,0,1-1.36.66,1.27,1.27,0,0,1-1.36-1.28c0-1.08,1-1.67,2.68-1.66v-.09a.92.92,0,0,0-1-1,2.21,2.21,0,0,0-1.16.33l-.18-.53a2.76,2.76,0,0,1,1.46-.4c1.36,0,1.69.93,1.69,1.82v1.67a6.22,6.22,0,0,0,.07,1.07Zm-.12-2.27c-.88,0-1.89.14-1.89,1a.72.72,0,0,0,.76.77,1.11,1.11,0,0,0,1.08-.75.82.82,0,0,0,0-.26Z" transform="translate(-29.05 -16.19)"/><path class="cls-2" d="M257.76,373.62v1.28h1.16v.62h-1.16v2.4c0,.55.16.87.61.87a1.77,1.77,0,0,0,.47-.06l0,.61a2,2,0,0,1-.72.11,1.12,1.12,0,0,1-.87-.34,1.65,1.65,0,0,1-.31-1.16v-2.43h-.69v-.62H257v-1.07Z" transform="translate(-29.05 -16.19)"/><path class="cls-2" d="M260.22,377.28a1.43,1.43,0,0,0,1.53,1.55,2.93,2.93,0,0,0,1.23-.23l.14.58a3.62,3.62,0,0,1-1.48.28,2.07,2.07,0,0,1-2.19-2.25,2.16,2.16,0,0,1,2.09-2.4,1.89,1.89,0,0,1,1.84,2.1,3.16,3.16,0,0,1,0,.38Zm2.37-.58a1.15,1.15,0,0,0-1.12-1.32,1.34,1.34,0,0,0-1.24,1.32Z" transform="translate(-29.05 -16.19)"/><path class="cls-2" d="M268.22,372.82v5.38c0,.4,0,.85,0,1.15h-.73l0-.77h0a1.65,1.65,0,0,1-1.52.87,2,2,0,0,1-1.9-2.26,2.13,2.13,0,0,1,2-2.39,1.49,1.49,0,0,1,1.34.68h0v-2.66Zm-.81,3.89a1.4,1.4,0,0,0,0-.34,1.19,1.19,0,0,0-1.17-.94c-.84,0-1.33.74-1.33,1.72s.44,1.65,1.32,1.65a1.22,1.22,0,0,0,1.19-1,1.37,1.37,0,0,0,0-.35Z" transform="translate(-29.05 -16.19)"/><path class="cls-2" d="M274.75,376.45h-2.41v2.24H275v.67h-3.49v-6.2h3.35v.67h-2.55v2h2.41Z" transform="translate(-29.05 -16.19)"/><path class="cls-2" d="M278.79,379.36v-3.84h-1.87v3.84h-.8v-3.84h-.63v-.62h.63v-.15a2.1,2.1,0,0,1,.5-1.52,1.53,1.53,0,0,1,1.12-.41,1.41,1.41,0,0,1,.63.16l-.17.6a1.19,1.19,0,0,0-.48-.11c-.63,0-.81.54-.81,1.24v.19h1.87v-.21a2.1,2.1,0,0,1,.52-1.55,1.54,1.54,0,0,1,1.08-.41,1.84,1.84,0,0,1,.69.13l-.1.63a1.27,1.27,0,0,0-.52-.1c-.68,0-.86.61-.86,1.29v.24h1.08v.62H279.6v3.84Z" transform="translate(-29.05 -16.19)"/><path class="cls-2" d="M281.73,377.28a1.43,1.43,0,0,0,1.53,1.55,2.93,2.93,0,0,0,1.23-.23l.14.58a3.62,3.62,0,0,1-1.48.28A2.07,2.07,0,0,1,281,377.2a2.16,2.16,0,0,1,2.09-2.4,1.89,1.89,0,0,1,1.84,2.1,3.16,3.16,0,0,1,0,.38Zm2.37-.58a1.15,1.15,0,0,0-1.12-1.32,1.34,1.34,0,0,0-1.24,1.32Z" transform="translate(-29.05 -16.19)"/><path class="cls-2" d="M289.06,379.19a3,3,0,0,1-1.28.26,2.12,2.12,0,0,1-2.22-2.27,2.26,2.26,0,0,1,2.39-2.36,2.71,2.71,0,0,1,1.12.23l-.18.63a1.88,1.88,0,0,0-.94-.21,1.68,1.68,0,0,0,0,3.35,2.31,2.31,0,0,0,1-.22Z" transform="translate(-29.05 -16.19)"/><path class="cls-2" d="M291.1,373.62v1.28h1.16v.62H291.1v2.4c0,.55.16.87.61.87a1.77,1.77,0,0,0,.47-.06l0,.61a2,2,0,0,1-.72.11,1.12,1.12,0,0,1-.87-.34,1.65,1.65,0,0,1-.31-1.16v-2.43h-.69v-.62h.69v-1.07Z" transform="translate(-29.05 -16.19)"/><path class="cls-2" d="M293.06,378.53a2.12,2.12,0,0,0,1.07.32c.59,0,.86-.29.86-.66s-.23-.6-.83-.82c-.8-.29-1.18-.73-1.18-1.26a1.37,1.37,0,0,1,1.54-1.31,2.22,2.22,0,0,1,1.09.28l-.2.59a1.73,1.73,0,0,0-.91-.26c-.48,0-.75.28-.75.61s.27.53.85.75c.77.29,1.17.68,1.17,1.34s-.61,1.33-1.67,1.33a2.54,2.54,0,0,1-1.25-.3Z" transform="translate(-29.05 -16.19)"/><path class="cls-2" d="M302.79,377.09a2.18,2.18,0,0,1-2.22,2.37,2.12,2.12,0,0,1-2.13-2.29,2.17,2.17,0,0,1,2.21-2.37A2.11,2.11,0,0,1,302.79,377.09Zm-3.53,0c0,1,.56,1.71,1.35,1.71s1.35-.73,1.35-1.73c0-.75-.38-1.71-1.33-1.71S299.25,376.29,299.25,377.14Z" transform="translate(-29.05 -16.19)"/><path class="cls-2" d="M303.81,376.11c0-.46,0-.84,0-1.21h.72l0,.74h0a1.64,1.64,0,0,1,1.47-.84c.62,0,1.57.37,1.57,1.9v2.66h-.81v-2.57c0-.72-.27-1.32-1-1.32a1.15,1.15,0,0,0-1.09.83,1.18,1.18,0,0,0-.05.38v2.68h-.81Z" transform="translate(-29.05 -16.19)"/><path class="cls-2" d="M314.1,376.45h-2.41v2.24h2.69v.67h-3.49v-6.2h3.35v.67h-2.55v2h2.41Z" transform="translate(-29.05 -16.19)"/><path class="cls-2" d="M315.76,374.9l.63,1c.17.25.3.48.45.73h0c.15-.27.29-.5.44-.74l.63-.95h.87l-1.52,2.15,1.56,2.3h-.92l-.65-1c-.17-.26-.32-.51-.48-.77h0c-.15.27-.3.51-.47.77l-.64,1h-.89l1.58-2.27-1.51-2.18Z" transform="translate(-29.05 -16.19)"/><path class="cls-2" d="M322.11,379.36l-.06-.56h0a1.66,1.66,0,0,1-1.36.66,1.27,1.27,0,0,1-1.36-1.28c0-1.08,1-1.67,2.68-1.66v-.09a.92.92,0,0,0-1-1,2.21,2.21,0,0,0-1.16.33l-.18-.53a2.76,2.76,0,0,1,1.46-.4c1.36,0,1.69.93,1.69,1.82v1.67a6.22,6.22,0,0,0,.07,1.07Zm-.12-2.27c-.88,0-1.89.14-1.89,1a.72.72,0,0,0,.76.77,1.11,1.11,0,0,0,1.08-.75.82.82,0,0,0,0-.26Z" transform="translate(-29.05 -16.19)"/><path class="cls-2" d="M324.07,376.11c0-.46,0-.84,0-1.21h.71l0,.72h0a1.53,1.53,0,0,1,1.4-.82,1.31,1.31,0,0,1,1.26.89h0a1.85,1.85,0,0,1,.5-.58,1.52,1.52,0,0,1,1-.31c.59,0,1.46.39,1.46,1.93v2.62h-.79v-2.52c0-.86-.31-1.37-1-1.37a1,1,0,0,0-1,.74,1.33,1.33,0,0,0-.06.41v2.75h-.79v-2.67c0-.71-.31-1.22-.93-1.22a1.21,1.21,0,0,0-1.07,1.21v2.69h-.79Z" transform="translate(-29.05 -16.19)"/><path class="cls-2" d="M333.61,378.38a2.84,2.84,0,0,0,1.44.41c.82,0,1.3-.43,1.3-1.06s-.33-.91-1.17-1.23c-1-.36-1.64-.88-1.64-1.76a1.79,1.79,0,0,1,2-1.68,2.81,2.81,0,0,1,1.37.3l-.22.65a2.47,2.47,0,0,0-1.18-.29c-.85,0-1.17.51-1.17.93,0,.58.38.87,1.23,1.2,1,.4,1.58.91,1.58,1.82s-.71,1.79-2.17,1.79a3.2,3.2,0,0,1-1.58-.4Z" transform="translate(-29.05 -16.19)"/><path class="cls-2" d="M341.45,379.19a3,3,0,0,1-1.28.26,2.12,2.12,0,0,1-2.22-2.27,2.26,2.26,0,0,1,2.39-2.36,2.71,2.71,0,0,1,1.12.23l-.18.63a1.88,1.88,0,0,0-.94-.21,1.68,1.68,0,0,0,0,3.35,2.31,2.31,0,0,0,1-.22Z" transform="translate(-29.05 -16.19)"/><path class="cls-2" d="M346.37,377.09a2.18,2.18,0,0,1-2.22,2.37,2.12,2.12,0,0,1-2.13-2.29,2.17,2.17,0,0,1,2.21-2.37A2.11,2.11,0,0,1,346.37,377.09Zm-3.53,0c0,1,.56,1.71,1.35,1.71s1.35-.73,1.35-1.73c0-.75-.38-1.71-1.33-1.71S342.84,376.29,342.84,377.14Z" transform="translate(-29.05 -16.19)"/><path class="cls-2" d="M347.39,376.29c0-.53,0-1,0-1.39h.71l0,.87h0a1.33,1.33,0,0,1,1.23-1,.92.92,0,0,1,.23,0v.76a1.27,1.27,0,0,0-.28,0,1.14,1.14,0,0,0-1.09,1,2.26,2.26,0,0,0,0,.38v2.37h-.8Z" transform="translate(-29.05 -16.19)"/><path class="cls-2" d="M350.76,377.28a1.43,1.43,0,0,0,1.53,1.55,2.93,2.93,0,0,0,1.23-.23l.14.58a3.62,3.62,0,0,1-1.48.28A2.07,2.07,0,0,1,350,377.2a2.16,2.16,0,0,1,2.09-2.4,1.89,1.89,0,0,1,1.84,2.1,3.16,3.16,0,0,1,0,.38Zm2.37-.58a1.15,1.15,0,0,0-1.12-1.32,1.34,1.34,0,0,0-1.24,1.32Z" transform="translate(-29.05 -16.19)"/><path class="cls-2" d="M354.8,378.53a2.12,2.12,0,0,0,1.07.32c.59,0,.86-.29.86-.66s-.23-.6-.83-.82c-.8-.29-1.18-.73-1.18-1.26a1.37,1.37,0,0,1,1.54-1.31,2.22,2.22,0,0,1,1.09.28l-.2.59a1.73,1.73,0,0,0-.91-.26c-.48,0-.75.28-.75.61s.27.53.85.75c.77.29,1.17.68,1.17,1.34s-.61,1.33-1.67,1.33a2.54,2.54,0,0,1-1.25-.3Z" transform="translate(-29.05 -16.19)"/><path class="cls-2" d="M205,313.06v.65h-2.47v-.65Z" transform="translate(-29.05 -16.19)"/><path class="cls-2" d="M210,312.77c0,2.21-.82,3.43-2.26,3.43-1.27,0-2.13-1.19-2.15-3.34s.94-3.38,2.26-3.38S210,310.7,210,312.77Zm-3.53.1c0,1.69.52,2.65,1.32,2.65s1.33-1,1.33-2.71-.41-2.65-1.32-2.65S206.52,311.1,206.52,312.87Z" transform="translate(-29.05 -16.19)"/><path class="cls-2" d="M210.93,315.56a.59.59,0,0,1,.6-.63.63.63,0,0,1,0,1.26A.59.59,0,0,1,210.93,315.56Z" transform="translate(-29.05 -16.19)"/><path class="cls-2" d="M217.24,312.77c0,2.21-.82,3.43-2.26,3.43-1.27,0-2.13-1.19-2.15-3.34s.94-3.38,2.26-3.38S217.24,310.7,217.24,312.77Zm-3.53.1c0,1.69.52,2.65,1.32,2.65s1.33-1,1.33-2.71-.41-2.65-1.32-2.65S213.71,311.1,213.71,312.87Z" transform="translate(-29.05 -16.19)"/><path class="cls-2" d="M220,310.41h0l-1.13.61-.17-.67,1.42-.76h.75v6.5H220Z" transform="translate(-29.05 -16.19)"/><path class="cls-2" d="M225.09,310.41h0l-1.13.61-.17-.67,1.42-.76h.75v6.5h-.85Z" transform="translate(-29.05 -16.19)"/><path class="cls-2" d="M233.36,311.42c0,1.37-.72,2-1.56,2s-1.51-.65-1.52-2,.71-2,1.57-2S233.36,310.18,233.36,311.42Zm-2.38.06c0,.83.29,1.46.84,1.46s.84-.62.84-1.48-.23-1.45-.84-1.45S231,310.66,231,311.48Zm.76,4.72,3.82-6.72h.56l-3.82,6.72Zm5.85-2.09c0,1.37-.72,2-1.55,2s-1.51-.65-1.52-1.95.71-2,1.57-2S237.59,312.87,237.59,314.11Zm-2.38.06c0,.83.31,1.46.85,1.46s.84-.62.84-1.48-.23-1.45-.84-1.45S235.21,313.35,235.21,314.17Z" transform="translate(-29.05 -16.19)"/><path class="cls-2" d="M240.19,317.31a14.25,14.25,0,0,0,.6-2.39l1-.1a12.25,12.25,0,0,1-.95,2.43Z" transform="translate(-29.05 -16.19)"/><path class="cls-2" d="M244.95,312.83c0-.62,0-1.12,0-1.58h.79l0,.83h0a1.9,1.9,0,0,1,1.72-.94,2.19,2.19,0,0,1,2,2.46c0,1.74-1.06,2.6-2.2,2.6a1.7,1.7,0,0,1-1.49-.76h0v2.63h-.87Zm.87,1.29a2,2,0,0,0,0,.36,1.36,1.36,0,0,0,1.32,1c.93,0,1.47-.76,1.47-1.87s-.51-1.8-1.44-1.8a1.4,1.4,0,0,0-1.33,1.09,1.38,1.38,0,0,0-.06.36Z" transform="translate(-29.05 -16.19)"/><path class="cls-2" d="M250.3,312.72v-.6h5.16v.6Zm0,2v-.6h5.16v.6Z" transform="translate(-29.05 -16.19)"/><path class="cls-2" d="M262.75,312.77c0,2.21-.82,3.43-2.26,3.43-1.27,0-2.13-1.19-2.15-3.34s.94-3.38,2.26-3.38S262.75,310.7,262.75,312.77Zm-3.53.1c0,1.69.52,2.65,1.32,2.65s1.33-1,1.33-2.71-.41-2.65-1.32-2.65S259.22,311.1,259.22,312.87Z" transform="translate(-29.05 -16.19)"/><path class="cls-2" d="M263.63,315.56a.59.59,0,0,1,.6-.63.63.63,0,0,1,0,1.26A.59.59,0,0,1,263.63,315.56Z" transform="translate(-29.05 -16.19)"/><path class="cls-2" d="M265.55,314.43a1.86,1.86,0,0,1,1.29-1.74v0a1.61,1.61,0,0,1-1-1.46,1.82,1.82,0,0,1,2-1.73,1.68,1.68,0,0,1,1.89,1.6,1.65,1.65,0,0,1-1.07,1.52v0a1.8,1.8,0,0,1,1.31,1.68,2,2,0,0,1-2.21,1.89C266.37,316.19,265.55,315.38,265.55,314.43Zm3.5,0c0-.79-.55-1.17-1.43-1.42a1.41,1.41,0,0,0-1.17,1.34,1.2,1.2,0,0,0,1.3,1.24A1.18,1.18,0,0,0,269.05,314.39Zm-2.42-3.25c0,.65.49,1,1.24,1.2a1.28,1.28,0,0,0,1-1.18,1,1,0,0,0-1.1-1.06A1,1,0,0,0,266.63,311.15Z" transform="translate(-29.05 -16.19)"/><path class="cls-2" d="M274.64,310.33h-2.48l-.25,1.67a3.51,3.51,0,0,1,.53,0,2.75,2.75,0,0,1,1.4.35,1.85,1.85,0,0,1,.93,1.67,2.25,2.25,0,0,1-2.42,2.22,3.17,3.17,0,0,1-1.62-.4l.22-.67a2.92,2.92,0,0,0,1.39.36,1.43,1.43,0,0,0,1.54-1.41c0-.84-.57-1.44-1.87-1.44a6.67,6.67,0,0,0-.9.07l.42-3.12h3.11Z" transform="translate(-29.05 -16.19)"/><path class="cls-2" d="M277.8,310.41h0l-1.13.61-.17-.67,1.42-.76h.75v6.5h-.85Z" transform="translate(-29.05 -16.19)"/><path class="cls-2" d="M309.81,267.23c0,2.21-.82,3.43-2.26,3.43-1.27,0-2.13-1.19-2.15-3.34s.94-3.38,2.26-3.38S309.81,265.17,309.81,267.23Zm-3.53.1c0,1.69.52,2.65,1.32,2.65s1.33-1,1.33-2.71-.41-2.65-1.32-2.65S306.28,265.57,306.28,267.34Z" transform="translate(-29.05 -16.19)"/><path class="cls-2" d="M310.69,270a.59.59,0,0,1,.6-.63.63.63,0,0,1,0,1.26A.59.59,0,0,1,310.69,270Z" transform="translate(-29.05 -16.19)"/><path class="cls-2" d="M314.6,264.88h0l-1.13.61-.17-.67,1.42-.76h.75v6.5h-.85Z" transform="translate(-29.05 -16.19)"/><path class="cls-2" d="M318,269.54a2.94,2.94,0,0,0,1.44.41c1.13,0,1.48-.72,1.47-1.26,0-.91-.83-1.3-1.68-1.3h-.49v-.66h.49c.64,0,1.45-.33,1.45-1.1,0-.52-.33-1-1.14-1a2.38,2.38,0,0,0-1.3.43l-.23-.64a3.09,3.09,0,0,1,1.7-.5c1.28,0,1.86.76,1.86,1.55a1.61,1.61,0,0,1-1.2,1.53v0a1.69,1.69,0,0,1,1.45,1.67c0,1-.81,1.95-2.37,1.95a3.3,3.3,0,0,1-1.69-.44Z" transform="translate(-29.05 -16.19)"/><path class="cls-2" d="M326.66,264.68a3.19,3.19,0,0,0-.66,0,2.64,2.64,0,0,0-2.26,2.31h0a2,2,0,0,1,3.53,1.35,2.17,2.17,0,0,1-2.16,2.29c-1.39,0-2.3-1.08-2.3-2.77a4.09,4.09,0,0,1,1.1-2.93,3.54,3.54,0,0,1,2.08-1,4.36,4.36,0,0,1,.64,0Zm-.25,3.75a1.32,1.32,0,0,0-1.34-1.49,1.45,1.45,0,0,0-1.26.8.74.74,0,0,0-.1.39c0,1.07.51,1.86,1.43,1.86C325.9,270,326.41,269.35,326.41,268.42Z" transform="translate(-29.05 -16.19)"/><path class="cls-2" d="M333.13,265.89c0,1.37-.72,2-1.56,2s-1.51-.65-1.52-2,.71-2,1.57-2S333.13,264.65,333.13,265.89Zm-2.38.06c0,.83.29,1.46.84,1.46s.84-.62.84-1.48-.23-1.45-.84-1.45S330.75,265.13,330.75,265.95Zm.76,4.72,3.82-6.72h.56l-3.82,6.72Zm5.85-2.09c0,1.37-.72,2-1.55,2s-1.51-.65-1.52-1.95.71-2,1.57-2S337.36,267.34,337.36,268.57Zm-2.38.06c0,.83.31,1.46.85,1.46s.84-.62.84-1.48-.23-1.45-.84-1.45S335,267.81,335,268.63Z" transform="translate(-29.05 -16.19)"/><path class="cls-2" d="M340,271.78a14.44,14.44,0,0,0,.6-2.39l1-.1a12.25,12.25,0,0,1-.95,2.43Z" transform="translate(-29.05 -16.19)"/><path class="cls-2" d="M344.71,267.29c0-.62,0-1.12,0-1.58h.79l0,.83h0a1.9,1.9,0,0,1,1.72-.94,2.19,2.19,0,0,1,2,2.46c0,1.74-1.06,2.6-2.2,2.6a1.7,1.7,0,0,1-1.49-.76h0v2.63h-.87Zm.87,1.29a2,2,0,0,0,0,.36,1.36,1.36,0,0,0,1.32,1c.93,0,1.47-.76,1.47-1.87s-.51-1.8-1.44-1.8a1.4,1.4,0,0,0-1.33,1.09,1.42,1.42,0,0,0-.06.36Z" transform="translate(-29.05 -16.19)"/><path class="cls-2" d="M350.07,267.18v-.6h5.16v.6Zm0,2v-.6h5.16v.6Z" transform="translate(-29.05 -16.19)"/><path class="cls-2" d="M362.52,267.23c0,2.21-.82,3.43-2.26,3.43-1.27,0-2.13-1.19-2.15-3.34s.94-3.38,2.26-3.38S362.52,265.17,362.52,267.23Zm-3.53.1c0,1.69.52,2.65,1.32,2.65s1.33-1,1.33-2.71-.41-2.65-1.32-2.65S359,265.57,359,267.34Z" transform="translate(-29.05 -16.19)"/><path class="cls-2" d="M363.4,270a.59.59,0,0,1,.6-.63.63.63,0,0,1,0,1.26A.59.59,0,0,1,363.4,270Z" transform="translate(-29.05 -16.19)"/><path class="cls-2" d="M369.72,267.23c0,2.21-.82,3.43-2.26,3.43-1.27,0-2.13-1.19-2.15-3.34s.94-3.38,2.26-3.38S369.72,265.17,369.72,267.23Zm-3.53.1c0,1.69.52,2.65,1.32,2.65s1.33-1,1.33-2.71-.41-2.65-1.32-2.65S366.19,265.57,366.19,267.34Z" transform="translate(-29.05 -16.19)"/><path class="cls-2" d="M374.85,267.23c0,2.21-.82,3.43-2.26,3.43-1.27,0-2.13-1.19-2.15-3.34s.94-3.38,2.26-3.38S374.85,265.17,374.85,267.23Zm-3.53.1c0,1.69.52,2.65,1.32,2.65s1.33-1,1.33-2.71-.41-2.65-1.32-2.65S371.32,265.57,371.32,267.34Z" transform="translate(-29.05 -16.19)"/><path class="cls-2" d="M375.66,270.55V270l.69-.67c1.66-1.58,2.41-2.42,2.42-3.4a1.16,1.16,0,0,0-1.29-1.27,2.21,2.21,0,0,0-1.38.55l-.28-.62a2.85,2.85,0,0,1,1.84-.66,1.83,1.83,0,0,1,2,1.89c0,1.2-.87,2.17-2.24,3.49l-.52.48v0h2.92v.73Z" transform="translate(-29.05 -16.19)"/><path class="cls-2" d="M381.3,269.93a3.67,3.67,0,0,0,.71,0,2.46,2.46,0,0,0,1.36-.63,2.85,2.85,0,0,0,.86-1.73h0a1.9,1.9,0,0,1-1.53.7,1.88,1.88,0,0,1-1.92-2,2.23,2.23,0,0,1,2.22-2.31c1.33,0,2.15,1.08,2.15,2.74a4.11,4.11,0,0,1-1.12,3,3.25,3.25,0,0,1-1.89.87,4,4,0,0,1-.81,0Zm.32-3.74a1.25,1.25,0,0,0,1.25,1.38,1.45,1.45,0,0,0,1.28-.68.58.58,0,0,0,.08-.32c0-1.11-.41-2-1.33-2C382.15,264.62,381.62,265.28,381.62,266.2Z" transform="translate(-29.05 -16.19)"/><path class="cls-7" d="M395.42,281.59H320.74a1.5,1.5,0,0,1,0-3h74.69a1.5,1.5,0,0,1,0,3Z" transform="translate(-29.05 -16.19)"/><path class="cls-7" d="M295.26,327.19H201.48a1.5,1.5,0,1,1,0-3h93.78a1.5,1.5,0,0,1,0,3Z" transform="translate(-29.05 -16.19)"/></svg>