<svg id="Слой_2" data-name="Слой 2" xmlns="http://www.w3.org/2000/svg" xmlns:xlink="http://www.w3.org/1999/xlink" viewBox="0 0 375.52 303.24"><defs><style>.cls-1{fill:none;}.cls-2{fill:#4f6ddb;}.cls-3{fill:#28282a;}.cls-4{fill:#cf8e6a;}.cls-5{fill:#db9770;}.cls-6{fill:#b87f5e;}.cls-7{fill:#029d41;}.cls-8{fill:#028738;}.cls-9{fill:#f66a31;}.cls-10{fill:#ffb091;}.cls-11{fill:#db2f2f;}.cls-12{fill:#494a4f;}.cls-13{fill:#5e6066;}.cls-14{fill:#fff;}.cls-15{fill:#ebebeb;}.cls-16{fill:#017531;}.cls-17{fill:#fe3737;}.cls-18{fill:#ffc61a;}.cls-19{fill:#d4a416;}.cls-20{fill:#f6eeca;}.cls-21{fill:#f67d4c;}.cls-22{fill:#ffad8c;}.cls-23{fill:#303134;}.cls-24{clip-path:url(#clip-path);}.cls-25{fill:#e0ae17;}</style><clipPath id="clip-path" transform="translate(-26.79 -43.36)"><path class="cls-1" d="M348.38,142.45c-2.36-1.21-6.67.32-8,3-1.91,3.81-5.73-3.93-7.3-8.19s-6.27.56-10.75-4.59-7.28-13.78-18.59-9.07c0,0-1.56,2.12-1.89,6.6-11.82-3.6-7.81-26.6.88-24.94,18.26,3.5,19.34-6,32.27-3.19,13.3,2.89,16.24,8.81,18.25,15.86C354.66,123,352.23,133.95,348.38,142.45Z"/></clipPath></defs><title>ACM SIGCSE 2022 (Another Victim of COVID-19)_light_mode</title><polygon class="cls-2" points="224.67 219.31 191.84 243.42 261.67 243.42 277.4 219.31 224.67 219.31"/><path class="cls-3" d="M401.34,260.16H232.83a1,1,0,0,1,0-1.95H401.34a1,1,0,1,1,0,1.95Z" transform="translate(-26.79 -43.36)"/><polygon class="cls-4" points="292.53 186.46 276.93 212.98 246.66 206.59 261.03 194.45 261.82 183.17 292.53 186.46"/><path class="cls-5" d="M274.71,262.7c.62.8,0,1.39-1.08,1.76a11.84,11.84,0,0,1-2.89.52c-2.67.19-7.29.31-9.7-1.11s-3.31-2.73-3.78-5,1.17-3,.33-5,0-4,1.44-4.3.91-.39,1.36-2.22,1.64-2.26,7.23-1.81A21.94,21.94,0,0,1,274.2,247a3.89,3.89,0,0,0-2.09,1.91c-.84,2.16-2.08,8,.39,9.12.72.33,1.42-.06,2.06-.77C276.77,260.19,276.16,262.19,274.71,262.7Z" transform="translate(-26.79 -43.36)"/><path class="cls-4" d="M281.68,263.87a6.86,6.86,0,0,1-8,.59c1.12-.37,1.7-1,1.08-1.76,1.45-.52,2.06-2.51-.16-5.45-.64.7-1.34,1.09-2.06.77-2.47-1.11-1.23-7-.39-9.12A3.89,3.89,0,0,1,274.2,247c1.78-.75,4.11-.2,4.75,4.06A115.87,115.87,0,0,0,281.68,263.87Z" transform="translate(-26.79 -43.36)"/><path class="cls-6" d="M272.94,258.32h-.13l.11-.77h0a2.29,2.29,0,0,0,1.39-.59,18.28,18.28,0,0,0,2.57-5.17l.74.24a18.49,18.49,0,0,1-2.78,5.5A3.22,3.22,0,0,1,272.94,258.32Z" transform="translate(-26.79 -43.36)"/><path class="cls-6" d="M266.12,248a24.89,24.89,0,0,1,3.18,3.82,11.14,11.14,0,0,1,1.21,2.23,3.43,3.43,0,0,1,.26,1.35,1.53,1.53,0,0,1-.24.78,1.26,1.26,0,0,1-.72.51,2.49,2.49,0,0,1-1.44-.21,7.62,7.62,0,0,1-1.15-.6,16.57,16.57,0,0,1-2-1.52,29.39,29.39,0,0,1-3.46-3.56c1.27,1.05,2.53,2.11,3.84,3.09a24.14,24.14,0,0,0,2,1.36,3.58,3.58,0,0,0,2,.68c.48-.07.46-.92.19-1.64a13.7,13.7,0,0,0-1-2.17C268,250.71,267.06,249.36,266.12,248Z" transform="translate(-26.79 -43.36)"/><path class="cls-6" d="M259.62,255.8c1.25,1,2.48,1.94,3.74,2.88a37.18,37.18,0,0,0,3.86,2.6,8.34,8.34,0,0,0,2.07.84c.68.17,1.51.13,1.67-.37a1,1,0,0,0-.22-.89,9.47,9.47,0,0,1-.52-1.09,18.85,18.85,0,0,1-.71-2.27c.34.71.67,1.43,1.06,2.11a10,10,0,0,0,.59,1,1.58,1.58,0,0,1,.39,1.31,1.32,1.32,0,0,1-1.09,1,3.51,3.51,0,0,1-1.31,0,8.68,8.68,0,0,1-2.3-.88,23.43,23.43,0,0,1-3.86-2.81A34.24,34.24,0,0,1,259.62,255.8Z" transform="translate(-26.79 -43.36)"/><path class="cls-6" d="M274.2,247a2.62,2.62,0,0,0-.78.51,3.81,3.81,0,0,0-.54.65c-.35.47-.61,1-1.06,1.6a2.59,2.59,0,0,1,0-1.06,2.72,2.72,0,0,1,.43-1,2.05,2.05,0,0,1,.86-.72A1.28,1.28,0,0,1,274.2,247Z" transform="translate(-26.79 -43.36)"/><path class="cls-3" d="M267.83,231.52h0a1.28,1.28,0,0,1,1.5,1.07c1,6.36,5.15,33.91,3.88,34s-5.5-27.42-6.43-33.63A1.28,1.28,0,0,1,267.83,231.52Z" transform="translate(-26.79 -43.36)"/><path class="cls-6" d="M274.55,257.25a6.37,6.37,0,0,1,1.08,1.22,5,5,0,0,1,.7,1.53,2.61,2.61,0,0,1-.18,1.78,2,2,0,0,1-1.4,1.23l.19-.51a1.61,1.61,0,0,1,.26.62,1,1,0,0,1-.12.69,1.12,1.12,0,0,1-.51.39,1.85,1.85,0,0,1-.56.12c.32-.18.65-.4.72-.68a.54.54,0,0,0,0-.38,1.17,1.17,0,0,0-.23-.35l-.32-.31.51-.2a1.64,1.64,0,0,0,.78-.92,2.22,2.22,0,0,0,.16-1.33A13.14,13.14,0,0,0,274.55,257.25Z" transform="translate(-26.79 -43.36)"/><path class="cls-5" d="M346,156.66c-3.76-1.64-6.62-7-8.61-11.17-5.9,4.91-11.53,10-17.81,14.2,1.37,2.56,3.31,7,1,11.72,2.41,2,4.94,3.19,7.82,7.21s15.71,5.06,17.72.51l4.29-17.89A26.27,26.27,0,0,1,346,156.66Z" transform="translate(-26.79 -43.36)"/><path class="cls-7" d="M303.9,242.7c1.38,11-4.41,13.15,2.38,14.5,11.81,2.36,19,5,35.2,7.9,26.34,4.71,51-35.78,51-35.78s1.82-11.89,2.47-23.71c.64-11.57-2.22-25.87-11.72-31.42-9.85-5.75-24.18-10.9-37.24-17.53l-9.63,14.87c-2.81,4.4-8.79,3.83-11.6-.53-3.07-4.75-3-7-4-8.84-13.23,20-25.35,21.54-27.81,30C291.15,198.3,302.53,231.67,303.9,242.7Z" transform="translate(-26.79 -43.36)"/><path class="cls-8" d="M332.09,185.37h0c-4.24,0-6.18-.94-13-11.85l1.7-1.06c6.79,10.89,8.29,10.9,11.29,10.91h0c7.8,0,17.24-16.69,20.23-23.13l1.81.84C353.68,162.07,342.76,185.37,332.09,185.37Z" transform="translate(-26.79 -43.36)"/><path class="cls-5" d="M355,240l4.36-19.21,33.08,8.5s-8.05,30.5-16.82,34c-.64.26-1.86-.62-2.87-.35l-20.67-22Z" transform="translate(-26.79 -43.36)"/><polygon class="cls-7" points="265.99 149.43 261.82 183.17 277.4 191.84 265.99 149.43"/><path class="cls-5" d="M380.66,254.22c.3,14-20.9,13.1-36.9,13.6s-27.74-2.23-31.63-2.71-5.89.38-10,.88-11.64-2.91-11.94-2.86-1.93,1.62-3.36,2a7.61,7.61,0,0,1-5.26-.91c-2.14-1.05-1.06-2.27-1.06-2.27s-3.32-2.76-4.06-3.33.33-3.45.33-3.45l-.52-1.06c-.52-1.06,1.05-2.53,1.05-2.53s-1.54-2.33-.76-3.88,5.2-3.49,9.64-3.74,16.39,7,25.69,6.29,42-10.11,45.47-10.83C370.07,236.75,380.24,235.14,380.66,254.22Z" transform="translate(-26.79 -43.36)"/><polygon class="cls-6" points="253.68 218.56 256.4 212.3 252.29 217.41 253.68 218.56"/><polygon class="cls-6" points="249.95 211.78 255.57 208.05 249.44 213.66 249.95 211.78"/><path class="cls-6" d="M277.28,251.55c.39-.39,4.48-3.2,4.48-3.2l-5.14,1.87Z" transform="translate(-26.79 -43.36)"/><path class="cls-6" d="M322,165.69s8.7-2.6,12.46-8.72c-2.19,6.84-10.8,12.3-10.86,12.19S322,165.69,322,165.69Z" transform="translate(-26.79 -43.36)"/><rect class="cls-9" x="30.38" y="66.35" width="16.53" height="47.69"/><rect class="cls-9" x="59.54" y="55.46" width="16.53" height="58.59"/><rect class="cls-9" x="88.71" y="45.81" width="16.53" height="68.23"/><rect class="cls-9" x="117.87" y="36.37" width="16.53" height="77.68"/><rect class="cls-10" x="147.03" y="66.73" width="16.53" height="47.31"/><rect class="cls-10" x="176.19" y="86.44" width="16.53" height="27.61"/><path class="cls-3" d="M236.18,158.38H41.89v-114a1,1,0,0,1,1.95,0v112.1H236.18a1,1,0,0,1,0,1.95Z" transform="translate(-26.79 -43.36)"/><path class="cls-11" d="M220.64,116c-33.23-18.19-53.24-39.89-67.87-55.9C112.92,85.69,77.89,98.63,55.48,105l-.5-1.77c22.42-6.36,57.52-19.34,97.45-45.08l.65-.42.52.57c14.58,16,34.56,37.83,67.92,56.1Z" transform="translate(-26.79 -43.36)"/><path class="cls-3" d="M172.93,55.94c.65-.72,1.15-1.33,1.6-1.89l.92.82-.82,1,0,0a3,3,0,0,1,3,.7c1.37,1.22,1.36,3.29-.17,5-1.82,2-4,1.93-5.28.74a2.66,2.66,0,0,1-.95-2.44l0,0L168.48,63l-1-.91Zm-.33,2.41a3.09,3.09,0,0,0-.33.46,2.13,2.13,0,0,0,.47,2.58c1.08,1,2.51.65,3.67-.65,1-1.13,1.28-2.63.2-3.6a2.2,2.2,0,0,0-2.69-.12,2.22,2.22,0,0,0-.45.36Z" transform="translate(-26.79 -43.36)"/><path class="cls-3" d="M179.3,68.47l.55-.79,0,0a2.82,2.82,0,0,1-2.48-.7,2.16,2.16,0,0,1-.28-3.17c1.22-1.37,3.1-1,5.27.94l.1-.12a1.56,1.56,0,0,0-.12-2.45,3.77,3.77,0,0,0-1.85-.89l.37-.89a4.7,4.7,0,0,1,2.3,1.16c1.73,1.54,1.09,3.1.08,4.23l-1.89,2.11a10.69,10.69,0,0,0-1.12,1.44Zm2.42-3c-1.1-1-2.55-2-3.53-.87a1.22,1.22,0,0,0,.09,1.85,1.88,1.88,0,0,0,2.21.28,1.45,1.45,0,0,0,.35-.28Z" transform="translate(-26.79 -43.36)"/><path class="cls-3" d="M185.48,66.59c.52-.58.94-1.07,1.32-1.57l.91.81-.78,1,0,0a2.79,2.79,0,0,1,2.82.61c.78.7,1.58,2.25-.15,4.19l-3,3.37-1-.92,2.91-3.26c.81-.91,1.15-2,.19-2.84a2,2,0,0,0-2.81.24l-3,3.4-1-.92Z" transform="translate(-26.79 -43.36)"/><path class="cls-3" d="M200.56,72.57l-6.1,6.83c-.45.5-.95,1.08-1.26,1.5l-.92-.82.83-1,0,0a2.8,2.8,0,0,1-2.92-.61c-1.37-1.22-1.38-3.31.15-5,1.67-1.89,3.87-2,5.25-.77A2.53,2.53,0,0,1,196.5,75l0,0,3-3.37Zm-5.44,4a2.41,2.41,0,0,0,.34-.47A2,2,0,0,0,195,73.6c-1.06-.95-2.53-.58-3.64.67s-1.31,2.59-.2,3.58a2.07,2.07,0,0,0,2.6.12,2.38,2.38,0,0,0,.44-.4Z" transform="translate(-26.79 -43.36)"/><path class="cls-3" d="M197.79,80.26a2.43,2.43,0,0,0,.19,3.69,5,5,0,0,0,1.83,1.11l-.48.89a6.11,6.11,0,0,1-2.19-1.33,3.52,3.52,0,0,1-.23-5.33c1.52-1.7,3.73-2.15,5.37-.68,1.84,1.65.89,3.71,0,4.75a5.33,5.33,0,0,1-.46.45Zm3.67,2a2,2,0,0,0,.07-2.94,2.28,2.28,0,0,0-3.07.26Z" transform="translate(-26.79 -43.36)"/><path class="cls-3" d="M204.4,83.49c.52-.58.94-1.07,1.32-1.57l.9.8-.77,1,0,0a2.61,2.61,0,0,1,2.7.55,2.24,2.24,0,0,1,.59,2.56l0,0a3.11,3.11,0,0,1,1.29-.17,2.59,2.59,0,0,1,1.6.72c.75.67,1.42,2.15-.33,4.11l-3,3.33-1-.9,2.86-3.2c1-1.08,1.16-2.09.33-2.83a1.78,1.78,0,0,0-2-.15,2.25,2.25,0,0,0-.54.44l-3.12,3.49-1-.9,3-3.39c.8-.9,1-1.91.21-2.61a1.88,1.88,0,0,0-2.19-.11,2,2,0,0,0-.53.43l-3,3.41-1-.9Z" transform="translate(-26.79 -43.36)"/><path class="cls-3" d="M210.45,96.31l5-5.65,1,.92-5,5.65Zm7.61-6.22A.85.85,0,0,1,216.79,89a.84.84,0,0,1,1.22-.07A.82.82,0,0,1,218.06,90.1Z" transform="translate(-26.79 -43.36)"/><path class="cls-3" d="M217.4,102.14a5.06,5.06,0,0,1-1.92-1.12,3.6,3.6,0,0,1-.24-5.4,3.85,3.85,0,0,1,5.72-.29,4.61,4.61,0,0,1,1.16,1.56l-.94.58a3.19,3.19,0,0,0-1-1.33,2.86,2.86,0,0,0-3.83,4.22,3.91,3.91,0,0,0,1.51.85Z" transform="translate(-26.79 -43.36)"/><path class="cls-3" d="M123.62,166.93h-2.56V166h6.24v.92h-2.57v7.5h-1.1Z" transform="translate(-26.79 -43.36)"/><path class="cls-3" d="M129.27,166.68a.68.68,0,0,1-1.36,0,.67.67,0,0,1,.69-.69A.65.65,0,0,1,129.27,166.68ZM128,174.43v-6h1.1v6Z" transform="translate(-26.79 -43.36)"/><path class="cls-3" d="M131,170c0-.62,0-1.14,0-1.64h1l.05,1h0a2.08,2.08,0,0,1,1.9-1.11,1.79,1.79,0,0,1,1.71,1.21h0a2.49,2.49,0,0,1,.67-.79,2.06,2.06,0,0,1,1.34-.42c.8,0,2,.52,2,2.62v3.56h-1.08V171c0-1.16-.42-1.86-1.31-1.86a1.42,1.42,0,0,0-1.3,1,1.81,1.81,0,0,0-.09.55v3.74h-1.07v-3.62c0-1-.42-1.66-1.26-1.66a1.64,1.64,0,0,0-1.45,1.64v3.65H131Z" transform="translate(-26.79 -43.36)"/><path class="cls-3" d="M142,171.61a1.94,1.94,0,0,0,2.08,2.1,4,4,0,0,0,1.67-.31l.19.79a4.9,4.9,0,0,1-2,.38,2.81,2.81,0,0,1-3-3c0-1.83,1.08-3.26,2.84-3.26a2.56,2.56,0,0,1,2.5,2.85,4.08,4.08,0,0,1,0,.51Zm3.22-.79A1.57,1.57,0,0,0,143.7,169a1.82,1.82,0,0,0-1.69,1.79Z" transform="translate(-26.79 -43.36)"/><path class="cls-3" d="M35.66,136.68l-.76.09v0a2.25,2.25,0,0,1,.9,1.85,1.72,1.72,0,0,1-1.74,1.85c-1.46,0-2.26-1.3-2.25-3.64h-.12a1.25,1.25,0,0,0-1.4,1.38,3,3,0,0,0,.45,1.57l-.72.25a3.75,3.75,0,0,1-.54-2c0-1.85,1.26-2.3,2.47-2.3h2.26a8.59,8.59,0,0,0,1.45-.1Zm-3.09.16c0,1.2.19,2.56,1.36,2.56a1,1,0,0,0,1-1,1.5,1.5,0,0,0-1-1.46,1.13,1.13,0,0,0-.35-.06Z" transform="translate(-26.79 -43.36)"/><path class="cls-3" d="M31.25,134c-.62,0-1.14,0-1.64,0v-1l1-.05v0a2.08,2.08,0,0,1-1.11-1.9,1.79,1.79,0,0,1,1.21-1.71v0a2.49,2.49,0,0,1-.79-.67,2.06,2.06,0,0,1-.42-1.34c0-.8.52-2,2.62-2h3.56v1.08H32.24c-1.16,0-1.86.42-1.86,1.31a1.42,1.42,0,0,0,1,1.3,1.81,1.81,0,0,0,.55.09h3.74v1.07H32c-1,0-1.66.42-1.66,1.26A1.64,1.64,0,0,0,32,132.93h3.65V134Z" transform="translate(-26.79 -43.36)"/><path class="cls-3" d="M32.59,118.12a3,3,0,0,1,3.21,3,2.88,2.88,0,0,1-3.11,2.9,3,3,0,0,1-3.21-3A2.86,2.86,0,0,1,32.59,118.12Zm.06,4.8c1.32,0,2.32-.76,2.32-1.84s-1-1.84-2.35-1.84c-1,0-2.32.51-2.32,1.81S31.5,122.91,32.65,122.91Z" transform="translate(-26.79 -43.36)"/><path class="cls-3" d="M34,111.67c.63,0,1.17,0,1.65,0v1l-1,.06v0a2.28,2.28,0,0,1,1.13,2c0,1-.53,2.09-2.65,2.09H29.61v-1.1H33c1.15,0,1.92-.35,1.92-1.35a1.59,1.59,0,0,0-1-1.45,1.61,1.61,0,0,0-.56-.1H29.61v-1.1Z" transform="translate(-26.79 -43.36)"/><path class="cls-3" d="M31.25,109.85c-.62,0-1.14,0-1.64,0v-1l1-.06v0a2.22,2.22,0,0,1-1.14-2c0-.84.5-2.14,2.57-2.14h3.61v1.1H32.18c-1,0-1.79.36-1.79,1.4a1.56,1.56,0,0,0,1.12,1.47,1.59,1.59,0,0,0,.51.08h3.64v1.1Z" transform="translate(-26.79 -43.36)"/><path class="cls-3" d="M27.88,101.64h1.74v-1.57h.84v1.57h3.26c.75,0,1.17-.21,1.17-.82a2.46,2.46,0,0,0-.08-.64l.82,0a2.68,2.68,0,0,1,.15,1,1.52,1.52,0,0,1-.46,1.19,2.24,2.24,0,0,1-1.57.42h-3.3v.94h-.84v-.94H28.16Z" transform="translate(-26.79 -43.36)"/><path class="cls-3" d="M34.54,96.34A2.87,2.87,0,0,0,35,94.89c0-.8-.4-1.17-.9-1.17S33.26,94,33,94.84c-.39,1.09-1,1.6-1.71,1.6a1.87,1.87,0,0,1-1.77-2.09,3,3,0,0,1,.37-1.49l.8.27a2.36,2.36,0,0,0-.35,1.24c0,.65.38,1,.83,1s.72-.36,1-1.15c.4-1,.92-1.59,1.82-1.59,1.06,0,1.81.83,1.81,2.26a3.45,3.45,0,0,1-.41,1.7Z" transform="translate(-26.79 -43.36)"/><path class="cls-3" d="M27.88,89.91h1.74V88.34h.84v1.57h3.26c.75,0,1.17-.21,1.17-.82a2.46,2.46,0,0,0-.08-.64l.82,0a2.68,2.68,0,0,1,.15,1,1.52,1.52,0,0,1-.46,1.19,2.24,2.24,0,0,1-1.57.42h-3.3v.94h-.84V91H28.16Z" transform="translate(-26.79 -43.36)"/><path class="cls-3" d="M34,82c.63,0,1.17,0,1.65,0v1l-1,.06v0a2.28,2.28,0,0,1,1.13,2c0,1-.53,2.09-2.65,2.09H29.61V86H33c1.15,0,1.92-.35,1.92-1.35a1.59,1.59,0,0,0-1-1.45,1.61,1.61,0,0,0-.56-.1H29.61V82Z" transform="translate(-26.79 -43.36)"/><path class="cls-3" d="M26.79,75H34.1c.54,0,1.15,0,1.56,0v1l-1,0v0a2.24,2.24,0,0,1,1.19,2.06c0,1.46-1.24,2.59-3.07,2.59-2,0-3.25-1.24-3.25-2.71a2,2,0,0,1,.92-1.83v0H26.79Zm5.29,1.1a2,2,0,0,0-.46,0,1.62,1.62,0,0,0-1.27,1.59c0,1.14,1,1.81,2.34,1.81s2.24-.6,2.24-1.79a1.65,1.65,0,0,0-1.31-1.61,1.94,1.94,0,0,0-.48,0Z" transform="translate(-26.79 -43.36)"/><path class="cls-3" d="M27.91,72a.68.68,0,0,1,0,1.36.67.67,0,0,1-.69-.69A.65.65,0,0,1,27.91,72Zm7.75,1.22h-6v-1.1h6Z" transform="translate(-26.79 -43.36)"/><path class="cls-3" d="M32.84,69.65a1.94,1.94,0,0,0,2.1-2.07,4,4,0,0,0-.31-1.67l.79-.19a4.9,4.9,0,0,1,.38,2,2.81,2.81,0,0,1-3,3c-1.83,0-3.26-1.08-3.26-2.84a2.56,2.56,0,0,1,2.85-2.5,4.08,4.08,0,0,1,.51,0Zm-.79-3.22a1.57,1.57,0,0,0-1.79,1.52,1.82,1.82,0,0,0,1.79,1.69Z" transform="translate(-26.79 -43.36)"/><path class="cls-3" d="M26.79,58.78H34.1c.54,0,1.15,0,1.56,0v1l-1,0v0a2.24,2.24,0,0,1,1.19,2.06c0,1.46-1.24,2.59-3.07,2.59-2,0-3.25-1.24-3.25-2.71a2,2,0,0,1,.92-1.83v0H26.79Zm5.29,1.1a2,2,0,0,0-.46,0,1.62,1.62,0,0,0-1.27,1.59c0,1.14,1,1.81,2.34,1.81s2.24-.6,2.24-1.79a1.65,1.65,0,0,0-1.31-1.61,1.94,1.94,0,0,0-.48,0Z" transform="translate(-26.79 -43.36)"/><path class="cls-12" d="M371.14,297H292.72l12.57-27a3.7,3.7,0,0,1,3.3-2h46.36a3.7,3.7,0,0,1,3.28,2Z" transform="translate(-26.79 -43.36)"/><path class="cls-13" d="M371.14,297a5.45,5.45,0,0,1-.33,1.81c-.55,1.62-1.78,3.1-3.24,3.35-2,.35-68.06.35-72.24,0-2.3-.19-2.61-5.16-2.61-5.16Z" transform="translate(-26.79 -43.36)"/><polygon class="cls-14" points="282.05 226.43 328.14 226.43 338.69 249.87 271.59 249.87 282.05 226.43"/><rect class="cls-14" x="294.96" y="251.51" width="20.37" height="1.17" rx="0.58" ry="0.58"/><polygon class="cls-14" points="328.84 223.14 308.33 211.51 303.3 214.38 323.33 226.33 328.84 223.14"/><path class="cls-7" d="M356.33,265.65a.76.76,0,0,1-.38.66l-.33.19-20.5-11.63-5,2.87,20,11.94-.77.58a.77.77,0,0,1-.84.05l-19.38-11a1.7,1.7,0,0,1-.87-1.49v0a1.7,1.7,0,0,1,.81-1.44l3.65-2.27A4.15,4.15,0,0,1,337,254l19,11a.76.76,0,0,1,.38.63A.12.12,0,0,1,356.33,265.65Z" transform="translate(-26.79 -43.36)"/><path class="cls-7" d="M349.35,270.27a.77.77,0,0,1-.47.15v15.65l.11.06.18-.1.7-.4V269.88Z" transform="translate(-26.79 -43.36)"/><polygon class="cls-15" points="323.34 226.33 323.08 226.52 323.08 242.27 328.79 239.01 328.79 223.17 323.34 226.33"/><path class="cls-7" d="M356.33,265.65a.76.76,0,0,1-.38.66l-.33.19,0,0v15.84l.75-.43Z" transform="translate(-26.79 -43.36)"/><path class="cls-16" d="M348.88,270.42v15.65l-20.61-12.48V257.81a1.7,1.7,0,0,0,.87,1.49l19.38,11A.78.78,0,0,0,348.88,270.42Z" transform="translate(-26.79 -43.36)"/><polygon class="cls-14" points="316.63 227.37 296.13 215.74 291.09 218.6 311.13 230.55 316.63 227.37"/><path class="cls-17" d="M344.13,269.87a.76.76,0,0,1-.38.66l-.33.19-20.5-11.63-5,2.87,20,11.94-.77.58a.77.77,0,0,1-.84.05l-19.38-11a1.7,1.7,0,0,1-.87-1.49v0a1.7,1.7,0,0,1,.81-1.44l3.65-2.27a4.15,4.15,0,0,1,4.27-.07l19,11a.76.76,0,0,1,.38.63A.12.12,0,0,1,344.13,269.87Z" transform="translate(-26.79 -43.36)"/><path class="cls-17" d="M337.15,274.49a.77.77,0,0,1-.47.15v15.65l.11.06.18-.1.7-.4V274.11Z" transform="translate(-26.79 -43.36)"/><polygon class="cls-15" points="311.13 230.55 310.87 230.74 310.87 246.49 316.58 243.24 316.58 227.39 311.13 230.55"/><path class="cls-17" d="M344.13,269.87a.76.76,0,0,1-.38.66l-.33.19,0,0V286.6l.75-.43Z" transform="translate(-26.79 -43.36)"/><path class="cls-11" d="M336.67,274.64v15.65l-20.61-12.48V262a1.7,1.7,0,0,0,.87,1.49l19.38,11A.78.78,0,0,0,336.67,274.64Z" transform="translate(-26.79 -43.36)"/><polygon class="cls-14" points="303.73 231.26 283.23 219.63 280.26 221.32 300.29 233.27 303.73 231.26"/><path class="cls-18" d="M331.23,273.77a.76.76,0,0,1-.38.66l-.33.19L310,263l-3,1.7,20,11.94-.77.58a.77.77,0,0,1-.84.05l-19.38-11a1.7,1.7,0,0,1-.87-1.49v0a1.7,1.7,0,0,1,.81-1.44l1.59-1.1a4.15,4.15,0,0,1,4.27-.07l19,11a.76.76,0,0,1,.38.63A.12.12,0,0,1,331.23,273.77Z" transform="translate(-26.79 -43.36)"/><path class="cls-18" d="M326.31,277.21a.77.77,0,0,1-.47.15V293l.11.06.18-.1.7-.4V276.83Z" transform="translate(-26.79 -43.36)"/><polygon class="cls-15" points="300.29 233.27 300.03 233.46 300.03 249.21 303.68 247.13 303.68 231.29 300.29 233.27"/><path class="cls-18" d="M331.23,273.77a.76.76,0,0,1-.38.66l-.33.19,0,0v15.84l.75-.43Z" transform="translate(-26.79 -43.36)"/><path class="cls-19" d="M325.84,277.36V293l-20.61-12.48V264.75a1.7,1.7,0,0,0,.87,1.49l19.38,11A.78.78,0,0,0,325.84,277.36Z" transform="translate(-26.79 -43.36)"/><circle class="cls-20" cx="66.96" cy="185.16" r="5.74"/><circle class="cls-21" cx="30.94" cy="203.21" r="5.74"/><circle class="cls-20" cx="30.94" cy="221.37" r="5.74"/><circle class="cls-20" cx="144.51" cy="220.62" r="5.74"/><circle class="cls-20" cx="48.8" cy="239.54" r="5.74"/><circle class="cls-17" cx="30.94" cy="239.14" r="6.09"/><circle class="cls-20" cx="108.83" cy="185.16" r="6.09"/><circle class="cls-21" cx="108.83" cy="221.37" r="6.41"/><circle class="cls-9" cx="126.76" cy="203.21" r="6.82"/><circle class="cls-21" cx="126.36" cy="294.63" r="5.84"/><circle class="cls-20" cx="125.69" cy="239.42" r="5.75"/><circle class="cls-20" cx="161.84" cy="257.47" r="5.75"/><circle class="cls-20" cx="144.51" cy="275.51" r="5.75"/><circle class="cls-20" cx="144.51" cy="184.82" r="5.75"/><circle class="cls-20" cx="107.86" cy="275.51" r="5.75"/><circle class="cls-20" cx="126.36" cy="275.51" r="5.75"/><circle class="cls-17" cx="162.86" cy="203.21" r="6.36"/><circle class="cls-20" cx="162.86" cy="294.63" r="6.36"/><circle class="cls-20" cx="85.11" cy="239.14" r="5.8"/><circle class="cls-20" cx="48.38" cy="294.63" r="5.8"/><circle class="cls-20" cx="108.83" cy="239.14" r="5.8"/><circle class="cls-20" cx="67.02" cy="257.47" r="5.8"/><circle class="cls-20" cx="85.11" cy="257.47" r="5.8"/><circle class="cls-17" cx="66.96" cy="275.51" r="7.29"/><circle class="cls-17" cx="67.02" cy="221.28" r="7.29"/><circle class="cls-21" cx="144.85" cy="239.14" r="6.19"/><circle class="cls-21" cx="126.42" cy="257.47" r="6.19"/><circle class="cls-21" cx="85.11" cy="275.51" r="6.19"/><circle class="cls-21" cx="85.11" cy="294.63" r="6.19"/><circle class="cls-17" cx="162.86" cy="239.14" r="6.77"/><circle class="cls-17" cx="66.96" cy="294.63" r="6.77"/><circle class="cls-21" cx="48.8" cy="221.37" r="6.34"/><circle class="cls-22" cx="48.8" cy="203.21" r="5.74"/><circle class="cls-22" cx="85.11" cy="203.21" r="5.74"/><circle class="cls-21" cx="66.96" cy="203.21" r="6.2"/><circle class="cls-21" cx="85.11" cy="185.16" r="6.1"/><circle class="cls-21" cx="85.11" cy="221.37" r="6.1"/><circle class="cls-21" cx="30.22" cy="257.47" r="5.74"/><circle class="cls-22" cx="48.38" cy="275.51" r="5.74"/><circle class="cls-21" cx="30.22" cy="275.51" r="6.2"/><circle class="cls-21" cx="48.38" cy="257.47" r="6.1"/><circle class="cls-9" cx="30.94" cy="185.16" r="6.82"/><circle class="cls-17" cx="30.22" cy="294.63" r="6.82"/><circle class="cls-9" cx="48.8" cy="185.16" r="6.82"/><path class="cls-3" d="M130.34,207.46c0-1,0-1.75-.06-2.47h1.24l.06,1.3h0a3,3,0,0,1,2.69-1.47c1.83,0,3.21,1.55,3.21,3.85,0,2.72-1.66,4.07-3.44,4.07a2.66,2.66,0,0,1-2.33-1.19h0v4.12h-1.36Zm1.36,2a3.11,3.11,0,0,0,.06.56,2.13,2.13,0,0,0,2.07,1.61c1.46,0,2.3-1.19,2.3-2.93,0-1.52-.8-2.82-2.26-2.82a2.2,2.2,0,0,0-2.08,1.71,2.24,2.24,0,0,0-.09.56Z" transform="translate(-26.79 -43.36)"/><path class="cls-3" d="M143.44,212.56l-.11-1h0a2.82,2.82,0,0,1-2.32,1.13,2.16,2.16,0,0,1-2.32-2.18c0-1.83,1.63-2.83,4.56-2.82v-.16a1.56,1.56,0,0,0-1.72-1.75,3.77,3.77,0,0,0-2,.56l-.31-.91a4.69,4.69,0,0,1,2.49-.67c2.32,0,2.88,1.58,2.88,3.1v2.83a10.69,10.69,0,0,0,.13,1.82Zm-.2-3.87c-1.5,0-3.21.24-3.21,1.71a1.22,1.22,0,0,0,1.3,1.31,1.89,1.89,0,0,0,1.83-1.27,1.44,1.44,0,0,0,.08-.44Z" transform="translate(-26.79 -43.36)"/><path class="cls-3" d="M146.79,207c0-.78,0-1.42-.06-2.05H148l.08,1.25h0a2.79,2.79,0,0,1,2.51-1.42c1,0,2.68.63,2.68,3.22v4.52h-1.38v-4.37c0-1.22-.45-2.24-1.75-2.24a2,2,0,0,0-1.85,1.41,2,2,0,0,0-.09.64v4.56h-1.38Z" transform="translate(-26.79 -43.36)"/><path class="cls-3" d="M162,201.44v9.16c0,.67,0,1.44.06,2h-1.24l-.06-1.32h0a2.8,2.8,0,0,1-2.58,1.49c-1.83,0-3.24-1.55-3.24-3.85,0-2.52,1.55-4.07,3.4-4.07a2.53,2.53,0,0,1,2.29,1.16h0v-4.52Zm-1.38,6.62a2.44,2.44,0,0,0-.06-.58,2,2,0,0,0-2-1.6c-1.42,0-2.27,1.25-2.27,2.93s.75,2.8,2.24,2.8a2.07,2.07,0,0,0,2-1.64,2.4,2.4,0,0,0,.06-.59Z" transform="translate(-26.79 -43.36)"/><path class="cls-3" d="M165.08,209a2.43,2.43,0,0,0,2.6,2.63,5,5,0,0,0,2.1-.39l.23,1a6.12,6.12,0,0,1-2.52.47,3.52,3.52,0,0,1-3.73-3.82c0-2.29,1.35-4.09,3.55-4.09,2.47,0,3.13,2.18,3.13,3.57a5.12,5.12,0,0,1,0,.64Zm4-1a2,2,0,0,0-1.91-2.24A2.28,2.28,0,0,0,165.1,208Z" transform="translate(-26.79 -43.36)"/><path class="cls-3" d="M172.16,207c0-.78,0-1.42-.06-2.05h1.21l.06,1.22h0a2.61,2.61,0,0,1,2.38-1.39,2.24,2.24,0,0,1,2.14,1.52h0a3.12,3.12,0,0,1,.85-1,2.58,2.58,0,0,1,1.68-.53c1,0,2.49.66,2.49,3.29v4.46h-1.35v-4.29c0-1.46-.53-2.33-1.64-2.33a1.78,1.78,0,0,0-1.63,1.25,2.28,2.28,0,0,0-.11.69v4.68H176.9V208c0-1.21-.53-2.08-1.58-2.08a2.05,2.05,0,0,0-1.82,2.05v4.57h-1.35Z" transform="translate(-26.79 -43.36)"/><path class="cls-3" d="M186.75,202.85a.85.85,0,0,1-1.71,0,.84.84,0,0,1,.86-.86A.82.82,0,0,1,186.75,202.85Zm-1.53,9.71V205h1.38v7.58Z" transform="translate(-26.79 -43.36)"/><path class="cls-3" d="M194.28,212.28a5.06,5.06,0,0,1-2.18.44,3.6,3.6,0,0,1-3.77-3.87,3.85,3.85,0,0,1,4.07-4,4.61,4.61,0,0,1,1.91.39l-.31,1.06a3.2,3.2,0,0,0-1.6-.36,2.86,2.86,0,0,0,0,5.7,3.9,3.9,0,0,0,1.69-.38Z" transform="translate(-26.79 -43.36)"/><path class="cls-3" d="M123.76,346.6a1,1,0,0,1-1-1V218.07a1,1,0,0,1,1.95,0V345.62A1,1,0,0,1,123.76,346.6Z" transform="translate(-26.79 -43.36)"/><path class="cls-18" d="M348.38,142.45c-2.36-1.21-6.67.32-8,3-1.91,3.81-5.73-3.93-7.3-8.19s-6.27.56-10.75-4.59-7.28-13.78-18.59-9.07c0,0-1.56,2.12-1.89,6.6-11.82-3.6-7.81-26.6.88-24.94,18.26,3.5,19.34-6,32.27-3.19,13.3,2.89,16.24,8.81,18.25,15.86C354.66,123,352.23,133.95,348.38,142.45Z" transform="translate(-26.79 -43.36)"/><path class="cls-5" d="M338.77,149.73c-4.59,10.64-12.21,15-20.27,17s-11.2.34-14.78-10.63-.12-10.64-1.58-19.49a26.11,26.11,0,0,1-.32-6.39c.34-4.48,1.89-6.6,1.89-6.6,11.31-4.71,14.11,3.92,18.59,9.07s9.18.34,10.75,4.59,3.92,5.38,5.83,1.57c1.36-2.71,5.32-4.28,7.68-3.07a3.52,3.52,0,0,1,1.84,3C349,144,347.4,149.73,338.77,149.73Z" transform="translate(-26.79 -43.36)"/><path class="cls-23" d="M308.75,138.73a.42.42,0,0,1-.36-.21,3.77,3.77,0,0,0-2.33-2,4.47,4.47,0,0,0-3.13.58.42.42,0,0,1-.45-.7,5.27,5.27,0,0,1,3.78-.69,4.57,4.57,0,0,1,2.86,2.41.42.42,0,0,1-.16.57A.42.42,0,0,1,308.75,138.73Z" transform="translate(-26.79 -43.36)"/><path class="cls-23" d="M324.66,142.87a.42.42,0,0,1-.32-.15c-3.95-4.67-7.34-2-7.48-1.85a.42.42,0,0,1-.53-.64s4.18-3.33,8.65,2a.42.42,0,0,1-.32.68Z" transform="translate(-26.79 -43.36)"/><ellipse class="cls-23" cx="279.67" cy="100.34" rx="1.4" ry="2.68"/><ellipse class="cls-23" cx="292.77" cy="103.05" rx="1.4" ry="2.68"/><path class="cls-23" d="M311.44,153.37a2.49,2.49,0,0,1-1.88-1c-2.18-2.55,1.11-8.14,1.25-8.38a.42.42,0,1,1,.71.43c-.88,1.47-2.82,5.67-1.33,7.41a1.63,1.63,0,0,0,1.35.71c.86-.07,1.66-1.11,1.9-1.5a.42.42,0,0,1,.71.43c0,.07-1.07,1.77-2.54,1.9Z" transform="translate(-26.79 -43.36)"/><path class="cls-23" d="M313.21,161a9.23,9.23,0,0,1-5-1.72.42.42,0,0,1,.51-.66c.18.14,4.54,3.44,8.43,0a.42.42,0,0,1,.55.63A6.57,6.57,0,0,1,313.21,161Z" transform="translate(-26.79 -43.36)"/><g class="cls-24"><path class="cls-25" d="M307.6,126.56c-.14-.09-14.33-9.05-4.69-25.24l.86.51c-9.14,15.35,3.8,23.53,4.35,23.87Z" transform="translate(-26.79 -43.36)"/><path class="cls-25" d="M313.47,127.35c-.28-.24-6.9-5.92-7.44-14-.31-4.56,1.41-9,5.11-13l.74.67c-3.51,3.89-5.14,8-4.86,12.31.51,7.66,7,13.25,7.09,13.3Z" transform="translate(-26.79 -43.36)"/><path class="cls-25" d="M307.86,128.3c-1.74,0-15.24-3.78-17.51-17.92l1-.16c2.31,14.36,16.4,17.07,16.54,17.08Z" transform="translate(-26.79 -43.36)"/></g><rect class="cls-14" x="207.52" y="238.27" width="48.88" height="1"/><rect class="cls-14" x="214.77" y="233.5" width="45.51" height="1"/><rect class="cls-14" x="220.02" y="228.74" width="44.13" height="1"/><rect class="cls-14" x="224.96" y="223.8" width="44.13" height="1"/></svg>