<svg id="Слой_2" data-name="Слой 2" xmlns="http://www.w3.org/2000/svg" xmlns:xlink="http://www.w3.org/1999/xlink" viewBox="0 0 397.33 362.84"><defs><style>.cls-1{fill:none;}.cls-2{fill:#fe3737;}.cls-3{fill:#794300;}.cls-4{fill:#d4a416;}.cls-5{fill:#ffc61a;}.cls-6{fill:#3d54a8;}.cls-7{fill:#029d41;}.cls-8{fill:#7794ff;}.cls-9{fill:#fec2a0;}.cls-10{fill:#d1d1d1;}.cls-11{fill:#fff;}.cls-12{fill:#f66a31;}.cls-13{fill:#494a4f;}.cls-14{fill:#36373b;}.cls-15{fill:#657ed9;}.cls-16{fill:#e88f5d;}.cls-17{fill:#a15900;}.cls-18{fill:#fdc383;}.cls-19{fill:#c29564;}.cls-20{fill:#4f6ddb;}.cls-21{clip-path:url(#clip-path);}.cls-22{fill:#8c4e00;}.cls-23{clip-path:url(#clip-path-2);}.cls-24{fill:#b8b8b8;}.cls-25{fill:#303134;}.cls-26{clip-path:url(#clip-path-3);}.cls-27{fill:#e3b017;}</style><clipPath id="clip-path" transform="translate(-15.9 -16.97)"><path class="cls-1" d="M272.47,290.67l-.32-.1c-3.9-1.23-6.49.51-9,2.43-2.3,1.79-4.54,3.74-7.69,3.63a10.11,10.11,0,0,1-2.59-.39,10.28,10.28,0,0,1-3.61-1.83c-1.07-.79-2-1.7-2.9-2.49a7.08,7.08,0,0,0-5.53-2.1,9.56,9.56,0,0,0-1.81.34c-16.87,4.78-13.57-74.86,16.84-74.86S291,297.15,272.47,290.67Z"/></clipPath><clipPath id="clip-path-2" transform="translate(-15.9 -16.97)"><path class="cls-1" d="M221.2,61.2c-4.47,1.06-27.31,1.06-29,.1-17.12-11.7-5.48-31,8.26-37.7,10.11-4.91,30.89-2,27.43,6.29-2.81,6.73,8.34,14.24,3.42,18.89C227,52.85,233.47,58.81,221.2,61.2Z"/></clipPath><clipPath id="clip-path-3" transform="translate(-15.9 -16.97)"><path class="cls-1" d="M61.7,208.69C33.56,209,38.3,235.4,38.06,246s-12.66,19.28-18.95,19-.48,22,15.72,17.42c12.1,9.68,26.06,8.51,37.56,1.5,18.75,6.89,22.67-7.88,16.67-14.59-4.81-5.38-14.39-4.43-13.57-24a.86.86,0,0,0-.91-.91c-1.58.08-3.5-1.21-4.27-3.92-.84-2.93.3-6.22,4.64-4.46a1.93,1.93,0,0,0,2.67-2c-1-5.55,6.22-5.42,4.71-13.69C80.35,209.58,70.77,208.58,61.7,208.69Z"/></clipPath></defs><title>ACM SIGCSE 2022 (Retrieval-base Teaching)_dark_mode</title><path class="cls-2" d="M200,301.84s5.06-13.38,6-12.95-4.43,15.66-4.43,15.66Z" transform="translate(-15.9 -16.97)"/><path class="cls-3" d="M195.55,304.26s3.51-2.87,5.84-2.54,7.83,6,2,13.33S195.55,304.26,195.55,304.26Z" transform="translate(-15.9 -16.97)"/><path class="cls-3" d="M175.39,262.46c-2.66,6.24-12.3,5.64-12.3,5.64-3.55,4.16,1.46,10,1.46,10s-20.59-2.26-24.65-1.6c0-.08,3.66-6.81,3.26-8.42l.15.07c6.4-4.64,9.5-31.49,10.62-34.8s20.4,1.21,21.7-3c1.62,4.32.76,9.66.25,13.23C174.89,250.59,178.72,254.62,175.39,262.46Z" transform="translate(-15.9 -16.97)"/><path d="M177.65,228.43s.7-2.09,6.68-4.45c-4.87-5.7-16.38-1.92-16.41-1.91-5.36-.9-11.93-2.42-17.42-2.09a19.56,19.56,0,0,0-7.34,1.92v0s-4.12-3-11.36-.54c4.64,1.58,3.9,3.71,3.9,3.71s-7.38,1.48-10.26,8.54c3.9-1.38,4.64,3.25,4.64,3.25s-7,9.37-2.37,18.65a16.31,16.31,0,0,1,3-5.61c1.58,7.81,6.1,15.33,12.43,18.19h0l.15.07c6.4-4.64,8.82.86,15.25-.16s6.66-5.34,8.79-10.66c-2.12.12-9-4.07-5.28-11.46,3-5.91,8.13-.16,8.13-.16,1.36-1.19,2.85-4.33,4.06-7.56,2-1.71,5.85-4.28,9.39-2.06C184.75,230.93,177.65,228.43,177.65,228.43Z" transform="translate(-15.9 -16.97)"/><path class="cls-4" d="M164.27,269.38a38.92,38.92,0,0,0-24.1-.32,1.45,1.45,0,0,0-1,1.19c-.12.85-.18,1.86-.22,2.74a1.43,1.43,0,0,0,1.81,1.46c3-.91,9.92-2.06,22.77.31a1.44,1.44,0,0,0,1.69-1.43v-2.57A1.45,1.45,0,0,0,164.27,269.38Z" transform="translate(-15.9 -16.97)"/><ellipse class="cls-4" cx="154.09" cy="256.17" rx="7.01" ry="7.49"/><ellipse class="cls-5" cx="156.32" cy="256.17" rx="7.01" ry="7.49"/><path class="cls-6" d="M200,343.38c-.17-1.52,4.68-22.67,3.43-28.34s-7.08-5.76-7.08-5.76Z" transform="translate(-15.9 -16.97)"/><polygon class="cls-7" points="75.32 255.21 99.41 255.21 91.24 292.64 75.32 255.21"/><path class="cls-8" d="M153.39,148.19c7.4,8,38.54,8.22,38.54,8.22l1,1.69c1.15,2,3.35,3.46,5.6,3.11,9.83-1.21,38.32-9.32,38.32-9.32s21.13,4.33,25.7-7.73c3.24-8.81-.92-12.64-3.48-16.4-3.26-4.67.48-17.65-.82-26.54S254.18,86.43,246.2,84c-5.41-1.65-24.74-7.5-27.14-10.61l-7.21,12.84a5.08,5.08,0,0,1-8.81,0c-1.87-3.26-4-6.64-5.68-8.17a.29.29,0,0,1-.26.28c-9.29,9.55-26.86,10.1-33.31,17.22-6.93,7.66-3.13,13.84-5.72,23.92C155.14,130.86,149.53,144,153.39,148.19Z" transform="translate(-15.9 -16.97)"/><path class="cls-9" d="M217.8,71.8A45.34,45.34,0,0,1,215,67.44c-5.65,1.45-11.27,3-17,4.22.72,1.49,1.43,3.3-.65,6.59a46.88,46.88,0,0,1,5.82,8.43,5,5,0,0,0,8.54,0l9.4-11.46A23.92,23.92,0,0,1,217.8,71.8Z" transform="translate(-15.9 -16.97)"/><polygon class="cls-10" points="182.34 59.64 191.91 65.12 177.25 74.33 178.87 63.47 182.34 59.64"/><polygon class="cls-10" points="203.58 56.76 191.91 65.12 208.02 72.14 205.94 58.52 203.58 56.76"/><path class="cls-11" d="M218.37,86.76l-9,46L198.42,88l9.39-5.9Z" transform="translate(-15.9 -16.97)"/><polygon class="cls-12" points="187.48 67.91 189.91 72.27 194.6 72.08 196.59 67.18 191.91 65.12 187.48 67.91"/><path class="cls-12" d="M213,114.37l-3.61,18.43-4.41-18.09.87-25.46,4.7-.19Z" transform="translate(-15.9 -16.97)"/><path class="cls-13" d="M144.27,139.88H273.62a0,0,0,0,1,0,0v7.86a5.92,5.92,0,0,1-5.92,5.92H150.19a5.92,5.92,0,0,1-5.92-5.92v-7.86A0,0,0,0,1,144.27,139.88Z" transform="translate(401.99 276.57) rotate(-180)"/><path class="cls-13" d="M160.26,153.25h97.37a4.32,4.32,0,0,1,4.32,4.32V167a0,0,0,0,1,0,0h-106a0,0,0,0,1,0,0v-9.46A4.32,4.32,0,0,1,160.26,153.25Z" transform="translate(401.99 303.31) rotate(-180)"/><path class="cls-13" d="M255.26,166.69l-2.86,27.38a8.54,8.54,0,0,1-8.35,8.15H171.33a6.37,6.37,0,0,1-6.23-6l-3.75-29.55Z" transform="translate(-15.9 -16.97)"/><path class="cls-9" d="M255.26,139.89c1.75,0-.85-10.35-4.74-8-3.21,1.93-2.84-1.66-5.79-.1-3.62,1.91-3.8-1-5.78.76s-2.85,5.91-5,5-5.21-1-5.49,2.38C235.68,140,253.51,139.89,255.26,139.89Z" transform="translate(-15.9 -16.97)"/><polygon class="cls-14" points="246.05 136.28 140.04 136.28 140.04 139.71 246.05 136.28"/><polygon class="cls-15" points="170.54 122.91 167.04 105.47 166.29 122.91 170.54 122.91"/><path class="cls-16" d="M216.49,286a39.9,39.9,0,0,0,.28,14.4c3,15.32-12.6,29.72-.12,46.35a45.1,45.1,0,0,0,3.23,3.84C226.43,326.73,246.74,293.92,216.49,286Z" transform="translate(-15.9 -16.97)"/><path class="cls-16" d="M294,302.14c-1.13-7.15.48-12.86.84-17.64-7.9.77-13.44,4.49-14.21,13-1.88,20-3.3,41.81,1.45,61.57,7.17-3.38,12.95-7.95,16.15-13.05C304.49,336.07,296.49,317.78,294,302.14Z" transform="translate(-15.9 -16.97)"/><path class="cls-7" d="M300.27,309.79a94.42,94.42,0,0,0-2.47-19c-1.08-4.74-3.46-15.07-9.82-18.48-8.47-4.55-15.5-5-24-5.51h0c-2.07-.18-11.33-.48-17.73-.36s-20.54,4.33-24,6.36c-5.67,3.27-7.41,10.84-8.74,18-2.85,15.39-1.66,19.33-1.66,19.33s12.86,20.93,7.52,40.37c16.91,18,49.37,17.13,67.76,8.46C282.26,339.29,300.27,309.79,300.27,309.79Z" transform="translate(-15.9 -16.97)"/><path class="cls-13" d="M225.7,305.25h59.8a5.43,5.43,0,0,1,5.39,4.76l4.89,39.59a14.44,14.44,0,0,1-14.33,16.21H230.9A14.44,14.44,0,0,1,216.52,350l3.77-39.84A5.43,5.43,0,0,1,225.7,305.25Z" transform="translate(-15.9 -16.97)"/><path class="cls-17" d="M272.47,290.67l-.32-.1c-3.9-1.23-6.49.51-9,2.43-2.3,1.79-4.54,3.74-7.69,3.63a10.11,10.11,0,0,1-2.59-.39,10.28,10.28,0,0,1-3.61-1.83c-1.07-.79-2-1.7-2.9-2.49a7.08,7.08,0,0,0-5.53-2.1,9.56,9.56,0,0,0-1.81.34c-16.87,4.78-13.57-74.86,16.84-74.86S291,297.15,272.47,290.67Z" transform="translate(-15.9 -16.97)"/><path class="cls-18" d="M405.29,225.36c.57-2.13,2.35-7,3.08-8.91a9.21,9.21,0,0,0,.88-3.62,1.29,1.29,0,0,0-2-.51c-.66.49-2.09,4.42-2.09,4.42a31.69,31.69,0,0,0,.85-4.34,25.18,25.18,0,0,0-.32-4.45c-.14-1.44-.17-1.92-1.22-2.08a1.52,1.52,0,0,0-1.77,1.48s-.31-1.37-.44-2.43-.24-2.11-.89-2.54c0-1.56-1.11-2.43-2.43-1.67s-2.27,6.25-2.25,8.14-1,4.34-1.42,5.86-1.71,8.05-2.54,7.91.1-3.18.6-5.21-.47-4-1.58-4.52-2.42.21-2.3,2.13-1.79,5.82-1.7,10.11a18.5,18.5,0,0,0,3.51,9.75,14.9,14.9,0,0,1,2,6.25,42.4,42.4,0,0,0,11.21,2.1c-1.23-5-2.15-8.84-2.12-9.35C402.45,232.48,404.72,227.49,405.29,225.36Z" transform="translate(-15.9 -16.97)"/><path class="cls-19" d="M399.25,218.64a8.9,8.9,0,0,1,.63-3.41,19.48,19.48,0,0,0,.77-5.37c.07-.78.74-7.48.74-7.48s.21,6.83.09,8.72S399.25,218.64,399.25,218.64Z" transform="translate(-15.9 -16.97)"/><path class="cls-19" d="M402.72,221.16s0-1.14-.12-2.19,1.31-5.19,1.3-6.7a21.33,21.33,0,0,0-1.09-4.64s.78,3.46.35,5.36S401.35,218.18,402.72,221.16Z" transform="translate(-15.9 -16.97)"/><path class="cls-19" d="M403.88,222.36a33.68,33.68,0,0,1,1.23-5l-.71,5.23Z" transform="translate(-15.9 -16.97)"/><path class="cls-20" d="M170.83,355.28c-12,19.13-20.84,32-43.35,2-12.52-16.69-8.56-30.62-11.54-46s.74-26.19,4.32-28.25,16.24-6.79,22.66-6.91,15.72.18,17.8.36h0c8.57.52,15.62,1,24.13,5.53,12.66,6.8,4.62,17.73,1.09,33C179.42,343.33,177.08,345.32,170.83,355.28Z" transform="translate(-15.9 -16.97)"/><path class="cls-13" d="M122.37,315h60a5.45,5.45,0,0,1,5.41,4.78l4.9,39.73a14.49,14.49,0,0,1-14.38,16.27H127.59A14.49,14.49,0,0,1,113.17,360L117,320A5.45,5.45,0,0,1,122.37,315Z" transform="translate(-15.9 -16.97)"/><path class="cls-18" d="M339.67,267.24c1.93,5.75,10.58,5.9,10.58,5.9,2.87,4-2,8.8-2,8.8s22.66.2,26.23,1.08c0-.08-2.92-14.39-3.84-14.51-5.38-4.6-9.14-10.67-11.88-17.63-2.4-6.11-16.35-4.81-17.21-8.64a25.36,25.36,0,0,0-1,8.14C341,256.69,337.26,260,339.67,267.24Z" transform="translate(-15.9 -16.97)"/><path class="cls-5" d="M413,283.71c-.83-5-4.37-39.13-6.48-47.7-2.91-.21-8.39,2.83-12.47,3.83a3.86,3.86,0,0,0-3,4.24c1.47,10.82.37,41.66.37,41.66l-4.12.52a55,55,0,0,0-19.86-5.41h0c-2.07-.18-11.33-.48-17.73-.36s-24.2,9.25-27.5,11.61c-2.24,1.6-7.28,5.75-8,14.75h0c-3.92,18.89-7.08,37.25,5.39,53.88a44.19,44.19,0,0,0,7.5,7.82c19.11,15.52,47.89,11.89,64.47,1.24-6.45-16.34,5.53-44,6.83-46.55C404.58,315.73,414.88,295,413,283.71Z" transform="translate(-15.9 -16.97)"/><path class="cls-13" d="M329.25,319.25h59.8a5.43,5.43,0,0,1,5.39,4.76l4.89,39.59A14.44,14.44,0,0,1,385,379.81H334.46A14.44,14.44,0,0,1,320.08,364l3.77-39.84A5.43,5.43,0,0,1,329.25,319.25Z" transform="translate(-15.9 -16.97)"/><path d="M346.74,254.08s2.87-5.16,6.7-.61c1.59,1.89,1.2,5.75-1.88,8,3.42,1.58,5.1,5.08,5.12,9.07,11.8-4.82,14.92,0,14.92,0,8-2.9,13.66-14.59,11.46-23.49a11.37,11.37,0,0,1-.38-4.43c.64-4.2-2.24-10.7-6.54-11.06-.17-4.5-9.75-9-14.17-4.67-4.41-3.5-12.75-7.6-18.58,1.58-1.89,3-8.92-.33-7.75,7.92.57,4,5.34,4.7,6.4,6.6A62.09,62.09,0,0,1,346.74,254.08Z" transform="translate(-15.9 -16.97)"/><path class="cls-16" d="M81.3,246.34c-2.53,5.93-11.7,5.37-11.7,5.37-3.37,4,1.6,10.94,1.6,10.94s-20.37-1.73-24.23-1.1c-.55,1.52,4.05-8.34,3.68-9.88l.14.07c6.09-4.42,9.29-25,10.36-28.19s19,.13,20.28-3.86a27,27,0,0,1,.34,8.71C80.83,235.06,84.47,238.89,81.3,246.34Z" transform="translate(-15.9 -16.97)"/><path class="cls-2" d="M94.64,321.25c10,2.41,15.87-4.54,14.08-15.87C106.45,290.92,103.63,273.75,91,267c-8.5-4.56-15.56-5-24.13-5.53h0c-2.08-.18-11.37-.48-17.8-.36s-20.83,4-24.13,6.38c-2.9,2.08-11.36,10.24-8.36,25.75,1.12,5.78,10.58,42.33,11.36,59.93,8.28,2.94,29.06,7.37,37.6,6.35.26-12.13,18,.69,23.65-9.43C92.17,344.85,89,319.9,94.64,321.25Z" transform="translate(-15.9 -16.97)"/><path class="cls-12" d="M89.57,48.79H74.08A12.32,12.32,0,0,1,61.76,36.47h0A12.32,12.32,0,0,1,74.08,24.15H89.57a12.32,12.32,0,0,1,12.32,12.32h0A12.32,12.32,0,0,1,89.57,48.79Z" transform="translate(-15.9 -16.97)"/><polygon class="cls-12" points="84.72 19.49 97.3 16.04 81.57 28.93 84.72 19.49"/><path class="cls-12" d="M140.1,103.63H124.61a12.32,12.32,0,0,1-12.32-12.32h0A12.32,12.32,0,0,1,124.61,79H140.1a12.32,12.32,0,0,1,12.32,12.32h0a12.32,12.32,0,0,1-12.32,12.32Z" transform="translate(-15.9 -16.97)"/><polygon class="cls-12" points="129.6 63.99 142.18 60.54 126.45 73.44 129.6 63.99"/><path class="cls-12" d="M86,148.72H70.46A12.32,12.32,0,0,1,58.14,136.4h0a12.32,12.32,0,0,1,12.32-12.32H86A12.32,12.32,0,0,1,98.27,136.4h0A12.32,12.32,0,0,1,86,148.72Z" transform="translate(-15.9 -16.97)"/><polygon class="cls-12" points="75.44 109.08 88.03 105.63 72.29 118.53 75.44 109.08"/><path class="cls-12" d="M312.38,53.92h15.49A12.32,12.32,0,0,0,340.19,41.6h0a12.32,12.32,0,0,0-12.32-12.32H312.38A12.32,12.32,0,0,0,300.06,41.6h0a12.32,12.32,0,0,0,12.32,12.32Z" transform="translate(-15.9 -16.97)"/><polygon class="cls-12" points="285.44 24.63 272.85 21.17 288.58 34.07 285.44 24.63"/><path class="cls-12" d="M286.88,100.57h15.49a12.32,12.32,0,0,0,12.32-12.32h0a12.32,12.32,0,0,0-12.32-12.32H286.88a12.32,12.32,0,0,0-12.32,12.32h0a12.32,12.32,0,0,0,12.32,12.32Z" transform="translate(-15.9 -16.97)"/><polygon class="cls-12" points="265.58 60.94 253 57.48 268.73 70.38 265.58 60.94"/><path class="cls-12" d="M342.75,145h15.49a12.32,12.32,0,0,0,12.32-12.32h0a12.32,12.32,0,0,0-12.32-12.32H342.75a12.32,12.32,0,0,0-12.32,12.32h0A12.32,12.32,0,0,0,342.75,145Z" transform="translate(-15.9 -16.97)"/><polygon class="cls-12" points="321.45 105.33 308.87 101.87 324.6 114.77 321.45 105.33"/><path class="cls-11" d="M81,39.16l0-.56a5,5,0,0,1,1.34-3.75c1-1.15,1.52-2,1.52-3S83.09,30,81.72,30a3.85,3.85,0,0,0-2.19.67L79,29.31a5.69,5.69,0,0,1,3.1-.87c2.49,0,3.62,1.54,3.62,3.19,0,1.47-.82,2.54-1.86,3.77a4.29,4.29,0,0,0-1.24,3.19l0,.56Zm-.48,3a1.28,1.28,0,0,1,1.3-1.37,1.36,1.36,0,1,1-1.3,1.37Z" transform="translate(-15.9 -16.97)"/><path class="cls-11" d="M131.54,94.88l0-.56a5,5,0,0,1,1.34-3.75c1-1.15,1.52-2,1.52-3s-.69-1.84-2.06-1.87a3.85,3.85,0,0,0-2.19.67L129.59,85a5.69,5.69,0,0,1,3.1-.87c2.49,0,3.62,1.54,3.62,3.19,0,1.47-.82,2.54-1.86,3.77a4.29,4.29,0,0,0-1.24,3.19l0,.56Zm-.48,3a1.28,1.28,0,0,1,1.3-1.37,1.36,1.36,0,1,1-1.3,1.37Z" transform="translate(-15.9 -16.97)"/><path class="cls-12" d="M127.7,199H112.21a12.32,12.32,0,0,1-12.32-12.32h0a12.32,12.32,0,0,1,12.32-12.32H127.7A12.32,12.32,0,0,1,140,186.73h0A12.32,12.32,0,0,1,127.7,199Z" transform="translate(-15.9 -16.97)"/><polygon class="cls-12" points="117.2 159.41 129.78 155.96 114.05 168.86 117.2 159.41"/><path class="cls-11" d="M119.15,190.3l0-.56a5,5,0,0,1,1.34-3.75c1-1.15,1.52-2,1.52-3s-.69-1.84-2.06-1.87a3.85,3.85,0,0,0-2.19.67l-.52-1.37a5.69,5.69,0,0,1,3.1-.87c2.49,0,3.62,1.54,3.62,3.19,0,1.47-.82,2.54-1.86,3.77a4.29,4.29,0,0,0-1.24,3.19l0,.56Zm-.48,3A1.28,1.28,0,0,1,120,192a1.36,1.36,0,1,1-1.3,1.37Z" transform="translate(-15.9 -16.97)"/><path class="cls-11" d="M76.39,139.73l0-.56a5,5,0,0,1,1.34-3.75c1-1.15,1.52-2,1.52-3s-.69-1.84-2.06-1.87a3.85,3.85,0,0,0-2.19.67l-.52-1.37a5.69,5.69,0,0,1,3.1-.87c2.49,0,3.62,1.54,3.62,3.19,0,1.47-.82,2.54-1.86,3.77a4.29,4.29,0,0,0-1.24,3.19l0,.56Zm-.48,3a1.28,1.28,0,0,1,1.3-1.37,1.36,1.36,0,1,1-1.3,1.37Z" transform="translate(-15.9 -16.97)"/><path class="cls-11" d="M293.51,91.08l0-.56a5,5,0,0,1,1.34-3.75c1-1.15,1.52-2,1.52-3s-.69-1.84-2.06-1.87a3.85,3.85,0,0,0-2.19.67l-.52-1.37a5.69,5.69,0,0,1,3.1-.87c2.49,0,3.62,1.54,3.62,3.19,0,1.47-.82,2.54-1.86,3.77a4.29,4.29,0,0,0-1.24,3.19l0,.56Zm-.48,3a1.28,1.28,0,0,1,1.3-1.37,1.36,1.36,0,1,1-1.3,1.37Z" transform="translate(-15.9 -16.97)"/><path class="cls-12" d="M304.11,196.6h15.49a12.32,12.32,0,0,0,12.32-12.32h0A12.32,12.32,0,0,0,319.61,172H304.11a12.32,12.32,0,0,0-12.32,12.32h0a12.32,12.32,0,0,0,12.32,12.32Z" transform="translate(-15.9 -16.97)"/><polygon class="cls-12" points="282.82 156.97 270.23 153.51 285.97 166.41 282.82 156.97"/><path class="cls-11" d="M310.75,187.12l0-.56A5,5,0,0,1,312,182.8c1-1.15,1.52-2,1.52-3s-.69-1.84-2.06-1.87a3.85,3.85,0,0,0-2.19.67l-.52-1.37a5.69,5.69,0,0,1,3.1-.87c2.49,0,3.62,1.54,3.62,3.19,0,1.47-.82,2.54-1.86,3.77a4.29,4.29,0,0,0-1.24,3.19l0,.56Zm-.48,3a1.28,1.28,0,0,1,1.3-1.37,1.36,1.36,0,1,1-1.3,1.37Z" transform="translate(-15.9 -16.97)"/><path class="cls-11" d="M318.61,43.51l0-.56a5,5,0,0,1,1.34-3.75c1-1.15,1.52-2,1.52-3s-.69-1.84-2.06-1.87a3.85,3.85,0,0,0-2.19.67l-.52-1.37a5.69,5.69,0,0,1,3.1-.87c2.49,0,3.62,1.54,3.62,3.19,0,1.47-.82,2.54-1.86,3.77a4.29,4.29,0,0,0-1.24,3.19l0,.56Zm-.48,3a1.28,1.28,0,0,1,1.3-1.37,1.36,1.36,0,1,1-1.3,1.37Z" transform="translate(-15.9 -16.97)"/><path class="cls-11" d="M350,135.7l0-.56a5,5,0,0,1,1.34-3.75c1-1.15,1.52-2,1.52-3s-.69-1.84-2.06-1.87a3.85,3.85,0,0,0-2.19.67l-.52-1.37a5.69,5.69,0,0,1,3.1-.87c2.49,0,3.62,1.54,3.62,3.19,0,1.47-.82,2.54-1.86,3.77a4.29,4.29,0,0,0-1.24,3.19l0,.56Zm-.48,3a1.28,1.28,0,0,1,1.3-1.37,1.36,1.36,0,1,1-1.3,1.37Z" transform="translate(-15.9 -16.97)"/><path class="cls-9" d="M165,139.89c-2.66-1.24.85-10.35,4.74-8,3.21,1.93,2.84-1.66,5.79-.1,3.62,1.91,3.8-1,5.78.76s2.85,5.91,5,5,5.21-1,5.49,2.38C184.57,140,168.63,139.89,165,139.89Z" transform="translate(-15.9 -16.97)"/><path class="cls-13" d="M98.79,344.47l-4.9-39.73A5.45,5.45,0,0,0,88.48,300h-60A5.45,5.45,0,0,0,23,304.89l-3.78,40a14.49,14.49,0,0,0,14.43,15.86H84.41A14.49,14.49,0,0,0,98.79,344.47Z" transform="translate(-15.9 -16.97)"/><path class="cls-5" d="M61.7,208.69C33.56,209,38.3,235.4,38.06,246s-12.66,19.28-18.95,19-.48,22,15.72,17.42c12.1,9.68,26.06,8.51,37.56,1.5,18.75,6.89,22.67-7.88,16.67-14.59-4.81-5.38-14.39-4.43-13.57-24a.86.86,0,0,0-.91-.91c-1.58.08-3.5-1.21-4.27-3.92-.84-2.93.3-6.22,4.64-4.46a1.93,1.93,0,0,0,2.67-2c-1-5.55,6.22-5.42,4.71-13.69C80.35,209.58,70.77,208.58,61.7,208.69Z" transform="translate(-15.9 -16.97)"/><path d="M115.31,272.19l1.18,4.57a6.42,6.42,0,0,1,0,3.18L109,309.29l-.75-6.61Z" transform="translate(-15.9 -16.97)"/><path class="cls-20" d="M191.24,288.89c3.67,10.55,11.7,42.61,8.1,58.49-1.29,5.69-4.88,4.53-9.41,6.71-11.53,5.54-15.62-45.71-15.62-45.71Z" transform="translate(-15.9 -16.97)"/><path class="cls-5" d="M166,268.15c-3-1.07-14.39-3.9-25.79-.32a1.45,1.45,0,0,0-1,1.19c-.12.85-.18,1.86-.22,2.74a1.43,1.43,0,0,0,1.81,1.46c3-.91,11.61-2.06,24.46.31a1.44,1.44,0,0,0,1.69-1.43v-2.57A1.45,1.45,0,0,0,166,268.15Z" transform="translate(-15.9 -16.97)"/><g class="cls-21"><path class="cls-22" d="M290.07,244.35c-.17-.21-17.14-20.69-33.94-22s-31.68,18.94-31.83,19.14l-.81-.59C224.11,240,239,220,256.2,221.33s33.93,21.53,34.64,22.39Z" transform="translate(-15.9 -16.97)"/><path class="cls-22" d="M285.75,249.42c-.17-.21-17.14-20.69-33.94-22S220.12,246.33,220,246.54l-.81-.59c.62-.86,15.44-20.94,32.72-19.55s33.93,21.53,34.64,22.39Z" transform="translate(-15.9 -16.97)"/><path class="cls-22" d="M283,256.26c-.2-.26-19.74-25.78-36.53-27.11s-31.68,18.94-31.83,19.14l-.81-.59c.62-.86,15.47-20.93,32.72-19.55s36.44,26.44,37.25,27.5Z" transform="translate(-15.9 -16.97)"/></g><path class="cls-10" d="M221.2,61.2c-4.47,1.06-27.31,1.06-29,.1-17.12-11.7-5.48-31,8.26-37.7,10.11-4.91,30.89-2,27.43,6.29-2.81,6.73,8.34,14.24,3.42,18.89C227,52.85,233.47,58.81,221.2,61.2Z" transform="translate(-15.9 -16.97)"/><g class="cls-23"><path class="cls-24" d="M201.31,43.12c-.11-.07-10.85-6.88-7.59-21.24l.89.2c-3.11,13.7,7.08,20.2,7.18,20.26Z" transform="translate(-15.9 -16.97)"/><path class="cls-24" d="M205.45,44.22l-.84-.35a2.38,2.38,0,0,1,.34-.53c3.88-5.41,9.41-15.89,2.77-25.21l.74-.53c5.17,7.25,4.18,16.58-2.77,26.27Z" transform="translate(-15.9 -16.97)"/><path class="cls-24" d="M209,44.49a.46.46,0,0,1-.24-.08l.46-.79L209,44l-.11-.43c.65-.31,7.18-6.58,9.8-14.22,1.54-4.49,1.42-8.52-.35-12l.81-.41c6.23,12.18-8.51,26.33-8.66,26.47C209.63,44.25,209.26,44.49,209,44.49Z" transform="translate(-15.9 -16.97)"/></g><path class="cls-9" d="M220.46,49.57a33.37,33.37,0,0,1-1.32-6.88c-.69-7-5.67-1.76-12.23-1.76s-12.24-5.41-12.76,1.75a32.46,32.46,0,0,1-1.51,7.94c-3.59,10.74,2.57,24.49,14.12,24.49C218.74,75.1,224.1,61,220.46,49.57Z" transform="translate(-15.9 -16.97)"/><path class="cls-25" d="M215.88,49.93a.33.33,0,0,1-.27-.13,3.7,3.7,0,0,0-5-.86.34.34,0,1,1-.36-.56s3.49-2.18,5.92,1a.34.34,0,0,1-.27.54Z" transform="translate(-15.9 -16.97)"/><path class="cls-25" d="M197.12,49.93a.34.34,0,0,1-.27-.54c2.42-3.2,5.88-1,5.92-1a.33.33,0,0,1-.36.56,3.72,3.72,0,0,0-5,.86A.33.33,0,0,1,197.12,49.93Z" transform="translate(-15.9 -16.97)"/><ellipse class="cls-25" cx="184.08" cy="36.45" rx="1.57" ry="2.7"/><ellipse class="cls-25" cx="197.25" cy="36.47" rx="1.57" ry="2.7"/><path class="cls-9" d="M192.6,51.27s-2.91-2.79-4.46.49,2.95,11.12,4.46,11.13S192.6,51.27,192.6,51.27Z" transform="translate(-15.9 -16.97)"/><path class="cls-9" d="M220.94,51.27s2.91-2.79,4.46.49-2.95,11.12-4.46,11.13S220.94,51.27,220.94,51.27Z" transform="translate(-15.9 -16.97)"/><path class="cls-25" d="M207.19,62a4.81,4.81,0,0,1-2.27-.78.34.34,0,1,1,.37-.56c.43.28,1.7.93,2.43.55.43-.23.66-.81.68-1.73.08-3.71-.75-5.21-.75-5.22a.34.34,0,0,1,.13-.46.33.33,0,0,1,.46.12c0,.07.92,1.64.84,5.57a2.44,2.44,0,0,1-1,2.31A1.81,1.81,0,0,1,207.19,62Z" transform="translate(-15.9 -16.97)"/><path class="cls-25" d="M207.16,68.22a8.68,8.68,0,0,1-4.78-1.67.34.34,0,0,1,.42-.53c.19.15,4.82,3.71,8.53-.51a.34.34,0,1,1,.5.44A6.06,6.06,0,0,1,207.16,68.22Z" transform="translate(-15.9 -16.97)"/><g class="cls-26"><path class="cls-27" d="M80.56,235.58c0-.17-2.88-17.18-14.33-24.44-5.62-3.56-12.42-4.23-20.2-2l-.28-1c8.08-2.33,15.15-1.63,21,2.09,11.83,7.5,14.75,24.95,14.78,25.12Z" transform="translate(-15.9 -16.97)"/><path class="cls-27" d="M78.4,233.83c0-.12-3-12.39-13.06-18.32-6.17-3.62-13.73-4.18-22.47-1.65l-.28-1c9-2.61,16.85-2,23.26,1.75,10.46,6.15,13.49,18.82,13.52,18.95Z" transform="translate(-15.9 -16.97)"/></g></svg>