<svg id="Слой_2" data-name="Слой 2" xmlns="http://www.w3.org/2000/svg" viewBox="0 0 371.97 363.26"><defs><style>.cls-1{fill:#fe5e5e;}.cls-2{fill:#242425;}.cls-3{fill:#bd0000;}.cls-4{fill:#eb1515;}.cls-5{fill:#fe3737;}.cls-6{fill:#f67770;}.cls-7{fill:#030303;}</style></defs><title>ACM LAK 2022_light_mode</title><circle class="cls-1" cx="165.6" cy="97.13" r="2.27" transform="translate(-50.86 41.22) rotate(-18.56)"/><circle class="cls-1" cx="101.56" cy="99.44" r="2.27" transform="translate(-54.93 20.95) rotate(-18.56)"/><circle class="cls-1" cx="98.61" cy="93.63" r="2.27" transform="translate(-53.23 19.71) rotate(-18.56)"/><circle class="cls-1" cx="101.21" cy="89.07" r="2.27" transform="translate(-51.64 20.3) rotate(-18.56)"/><circle class="cls-1" cx="97.56" cy="85.33" r="2.27" transform="translate(-50.64 18.94) rotate(-18.56)"/><circle class="cls-1" cx="105.28" cy="77.17" r="2.27" transform="translate(-47.64 20.98) rotate(-18.56)"/><circle class="cls-1" cx="100.49" cy="76.72" r="2.27" transform="translate(-47.75 19.43) rotate(-18.56)"/><circle class="cls-1" cx="123.37" cy="68.41" r="2.27" transform="translate(-43.92 26.28) rotate(-18.56)"/><circle class="cls-1" cx="152.75" cy="97.21" r="2.27" transform="translate(-51.55 37.13) rotate(-18.56)"/><circle class="cls-1" cx="153.77" cy="87.6" r="2.27" transform="translate(-48.44 36.96) rotate(-18.56)"/><circle class="cls-1" cx="158.68" cy="94.76" r="2.27" transform="translate(-50.47 38.89) rotate(-18.56)"/><circle class="cls-1" cx="153.34" cy="79.59" r="2.27" transform="translate(-45.91 36.4) rotate(-18.56)"/><circle class="cls-1" cx="141.41" cy="105.12" r="2.27" transform="translate(-54.66 33.93) rotate(-18.56)"/><circle class="cls-1" cx="113.77" cy="105.82" r="2.27" transform="matrix(0.95, -0.32, 0.32, 0.95, -56.32, 25.17)"/><circle class="cls-1" cx="98.34" cy="102.93" r="2.27" transform="translate(-56.21 20.11) rotate(-18.56)"/><circle class="cls-1" cx="93.32" cy="98.13" r="2.27" transform="translate(-54.94 18.26) rotate(-18.56)"/><circle class="cls-1" cx="89.7" cy="85.58" r="2.27" transform="translate(-51.13 16.46) rotate(-18.56)"/><circle class="cls-1" cx="94.28" cy="74.86" r="2.27" transform="translate(-47.48 17.36) rotate(-18.56)"/><circle class="cls-1" cx="156.98" cy="68.15" r="2.27" transform="translate(-42.09 36.97) rotate(-18.56)"/><circle class="cls-1" cx="151.58" cy="69.13" r="2.27" transform="translate(-42.68 35.3) rotate(-18.56)"/><circle class="cls-1" cx="132.88" cy="93.32" r="2.27" transform="translate(-51.35 30.6) rotate(-18.56)"/><circle class="cls-1" cx="119.91" cy="98.28" r="2.27" transform="translate(-53.6 26.73) rotate(-18.56)"/><circle class="cls-1" cx="122.23" cy="88.72" r="2.27" transform="translate(-50.44 26.97) rotate(-18.56)"/><circle class="cls-1" cx="134.23" cy="85.79" r="2.27" transform="translate(-48.88 30.64) rotate(-18.56)"/><circle class="cls-1" cx="115.25" cy="99.85" r="2.27" transform="translate(-54.34 25.33) rotate(-18.56)"/><circle class="cls-1" cx="108.47" cy="100.67" r="2.27" transform="translate(-54.96 23.22) rotate(-18.56)"/><circle class="cls-1" cx="107.59" cy="91.18" r="2.27" transform="translate(-51.98 22.44) rotate(-18.56)"/><circle class="cls-1" cx="146.07" cy="91.18" r="2.27" transform="translate(-49.98 34.69) rotate(-18.56)"/><circle class="cls-1" cx="149.56" cy="98.28" r="2.27" transform="translate(-52.06 36.17) rotate(-18.56)"/><circle class="cls-1" cx="142.1" cy="82.43" r="2.27" transform="translate(-47.4 32.97) rotate(-18.56)"/><circle class="cls-1" cx="150.59" cy="91.76" r="2.27" transform="translate(-49.93 36.16) rotate(-18.56)"/><circle class="cls-1" cx="134.77" cy="98.36" r="2.27" transform="translate(-52.86 31.47) rotate(-18.56)"/><circle class="cls-1" cx="140.93" cy="96.29" r="2.27" transform="matrix(0.95, -0.32, 0.32, 0.95, -51.88, 33.32)"/><path class="cls-2" d="M129.8,210.63a.42.42,0,0,1-.42-.42v-3.79a.42.42,0,1,1,.84,0v3.79A.42.42,0,0,1,129.8,210.63Zm0-7.58a.42.42,0,0,1-.42-.42v-3.79a.42.42,0,1,1,.84,0v3.79A.42.42,0,0,1,129.8,203.05Zm0-7.58a.42.42,0,0,1-.42-.42v-3.79a.42.42,0,1,1,.84,0v3.79A.42.42,0,0,1,129.8,195.48Zm0-7.58a.42.42,0,0,1-.42-.42v-3.79a.42.42,0,1,1,.84,0v3.79A.42.42,0,0,1,129.8,187.9Zm0-7.58a.42.42,0,0,1-.42-.42v-3.79a.42.42,0,1,1,.84,0v3.79A.42.42,0,0,1,129.8,180.32Zm0-7.58a.42.42,0,0,1-.42-.42v-3.79a.42.42,0,1,1,.84,0v3.79A.42.42,0,0,1,129.8,172.74Zm0-7.58a.42.42,0,0,1-.42-.42V161a.42.42,0,1,1,.84,0v3.79A.42.42,0,0,1,129.8,165.16Zm0-7.58a.42.42,0,0,1-.42-.42v-3.79a.42.42,0,1,1,.84,0v3.79A.42.42,0,0,1,129.8,157.59Zm0-7.58a.42.42,0,0,1-.42-.42V145.8a.42.42,0,1,1,.84,0v3.79A.42.42,0,0,1,129.8,150Zm0-7.58a.42.42,0,0,1-.42-.42v-3.79a.42.42,0,1,1,.84,0V142A.42.42,0,0,1,129.8,142.43Zm0-7.58a.42.42,0,0,1-.42-.42v-3.79a.42.42,0,0,1,.84,0v3.79A.42.42,0,0,1,129.8,134.85Zm0-7.58a.42.42,0,0,1-.42-.42v-3.79a.42.42,0,0,1,.84,0v3.79A.42.42,0,0,1,129.8,127.27Zm0-7.58a.42.42,0,0,1-.42-.42v-3.79a.42.42,0,0,1,.84,0v3.79A.42.42,0,0,1,129.8,119.69Zm0-7.58a.42.42,0,0,1-.42-.42v-3.79a.42.42,0,0,1,.84,0v3.79A.42.42,0,0,1,129.8,112.12Zm0-7.58a.42.42,0,0,1-.42-.42v-3.79a.42.42,0,0,1,.84,0v3.79A.42.42,0,0,1,129.8,104.54Zm0-7.58a.42.42,0,0,1-.42-.42V92.75a.42.42,0,0,1,.84,0v3.79A.42.42,0,0,1,129.8,97Zm0-7.58a.42.42,0,0,1-.42-.42V85.17a.42.42,0,0,1,.84,0V89A.42.42,0,0,1,129.8,89.38Zm0-7.58a.42.42,0,0,1-.42-.42V77.59a.42.42,0,0,1,.84,0v3.79A.42.42,0,0,1,129.8,81.8Zm0-7.58a.42.42,0,0,1-.42-.42V70a.42.42,0,0,1,.84,0V73.8A.42.42,0,0,1,129.8,74.23Zm0-7.58a.42.42,0,0,1-.42-.42V62.44a.42.42,0,0,1,.84,0v3.79A.42.42,0,0,1,129.8,66.65Zm0-7.58a.42.42,0,0,1-.42-.42V54.86a.42.42,0,0,1,.84,0v3.79A.42.42,0,0,1,129.8,59.07Zm0-7.58a.42.42,0,0,1-.42-.42V47.28a.42.42,0,0,1,.84,0v3.79A.42.42,0,0,1,129.8,51.49Zm0-7.58a.42.42,0,0,1-.42-.42V39.7a.42.42,0,0,1,.84,0v3.79A.42.42,0,0,1,129.8,43.91Zm0-7.58a.42.42,0,0,1-.42-.42V32.13a.42.42,0,0,1,.84,0v3.79A.42.42,0,0,1,129.8,36.34Zm0-7.58a.42.42,0,0,1-.42-.42V24.55a.42.42,0,0,1,.84,0v3.79A.42.42,0,0,1,129.8,28.76Zm0-7.58a.42.42,0,0,1-.42-.42V17a.42.42,0,0,1,.84,0v3.79A.42.42,0,0,1,129.8,21.18Z" transform="translate(-28.56 -16.55)"/><path class="cls-2" d="M224.93,106.68h-.27a.42.42,0,0,1,0-.84h.27a.42.42,0,0,1,0,.84Zm-4.06,0h-3.79a.42.42,0,0,1,0-.84h3.79a.42.42,0,0,1,0,.84Zm-7.58,0H209.5a.42.42,0,0,1,0-.84h3.79a.42.42,0,0,1,0,.84Zm-7.58,0h-3.79a.42.42,0,0,1,0-.84h3.79a.42.42,0,0,1,0,.84Zm-7.58,0h-3.79a.42.42,0,0,1,0-.84h3.79a.42.42,0,0,1,0,.84Zm-7.58,0h-3.79a.42.42,0,0,1,0-.84h3.79a.42.42,0,0,1,0,.84Zm-7.58,0h-3.79a.42.42,0,0,1,0-.84H183a.42.42,0,0,1,0,.84Zm-7.58,0h-3.79a.42.42,0,0,1,0-.84h3.79a.42.42,0,0,1,0,.84Zm-7.58,0H164a.42.42,0,0,1,0-.84h3.79a.42.42,0,1,1,0,.84Zm-7.58,0h-3.79a.42.42,0,0,1,0-.84h3.79a.42.42,0,1,1,0,.84Zm-7.58,0h-3.79a.42.42,0,0,1,0-.84h3.79a.42.42,0,1,1,0,.84Zm-7.58,0h-3.79a.42.42,0,0,1,0-.84h3.79a.42.42,0,1,1,0,.84Zm-7.58,0h-3.79a.42.42,0,0,1,0-.84h3.79a.42.42,0,1,1,0,.84Zm-7.58,0h-3.79a.42.42,0,0,1,0-.84h3.79a.42.42,0,1,1,0,.84Zm-7.58,0h-3.79a.42.42,0,0,1,0-.84h3.79a.42.42,0,1,1,0,.84Zm-7.58,0H111a.42.42,0,0,1,0-.84h3.79a.42.42,0,1,1,0,.84Zm-7.58,0H103.4a.42.42,0,0,1,0-.84h3.79a.42.42,0,1,1,0,.84Zm-7.58,0H95.82a.42.42,0,0,1,0-.84h3.79a.42.42,0,1,1,0,.84Zm-7.58,0H88.25a.42.42,0,0,1,0-.84H92a.42.42,0,0,1,0,.84Zm-7.58,0H80.67a.42.42,0,0,1,0-.84h3.79a.42.42,0,0,1,0,.84Zm-7.58,0H73.09a.42.42,0,0,1,0-.84h3.79a.42.42,0,0,1,0,.84Zm-7.58,0H65.51a.42.42,0,0,1,0-.84H69.3a.42.42,0,0,1,0,.84Zm-7.58,0H57.93a.42.42,0,0,1,0-.84h3.79a.42.42,0,0,1,0,.84Zm-7.58,0H50.36a.42.42,0,0,1,0-.84h3.79a.42.42,0,0,1,0,.84Zm-7.58,0H42.78a.42.42,0,0,1,0-.84h3.79a.42.42,0,0,1,0,.84Z" transform="translate(-28.56 -16.55)"/><circle class="cls-3" cx="64.06" cy="15.66" r="2.59"/><circle class="cls-4" cx="71.41" cy="23.4" r="2.59"/><circle class="cls-4" cx="84.06" cy="15.66" r="2.59"/><circle class="cls-4" cx="93.95" cy="16.1" r="2.59"/><circle class="cls-4" cx="101.25" cy="13.07" r="2.59"/><circle class="cls-4" cx="111.41" cy="17.5" r="2.59"/><circle class="cls-4" cx="86" cy="22.69" r="2.59"/><circle class="cls-4" cx="73.36" cy="29.18" r="2.59"/><circle class="cls-4" cx="79.19" cy="25.28" r="2.59"/><circle class="cls-4" cx="91.35" cy="31.77" r="2.59"/><circle class="cls-4" cx="100.49" cy="30.86" r="2.59"/><circle class="cls-4" cx="114" cy="36.96" r="2.59"/><circle class="cls-4" cx="124.38" cy="33.46" r="2.59"/><circle class="cls-4" cx="123.62" cy="26.58" r="2.59"/><circle class="cls-4" cx="131.62" cy="36.05" r="2.59"/><circle class="cls-4" cx="139.3" cy="36.2" r="2.59"/><circle class="cls-4" cx="106.33" cy="36.96" r="2.59"/><circle class="cls-4" cx="108.27" cy="41.39" r="2.59"/><circle class="cls-4" cx="103.08" cy="45.61" r="2.59"/><circle class="cls-4" cx="96.54" cy="44.38" r="2.59"/><circle class="cls-4" cx="92.98" cy="39.55" r="2.59"/><circle class="cls-4" cx="90.38" cy="46.97" r="2.59"/><circle class="cls-4" cx="77.84" cy="46.97" r="2.59"/><circle class="cls-4" cx="72.65" cy="41.24" r="2.59"/><circle class="cls-4" cx="71.41" cy="49.56" r="2.59"/><circle class="cls-4" cx="82.54" cy="58.34" r="2.59"/><circle class="cls-4" cx="90.87" cy="54.2" r="2.59"/><circle class="cls-4" cx="93.95" cy="63.53" r="2.59"/><circle class="cls-4" cx="87.79" cy="64.83" r="2.59"/><circle class="cls-4" cx="106.33" cy="56.8" r="2.59"/><circle class="cls-3" cx="86.65" cy="38.8" r="2.59"/><circle class="cls-3" cx="84.06" cy="49.56" r="2.59"/><circle class="cls-3" cx="114" cy="30.86" r="2.59"/><circle class="cls-3" cx="110.43" cy="23.4" r="2.59"/><circle class="cls-3" cx="105.68" cy="30.86" r="2.59"/><circle class="cls-3" cx="97.46" cy="36.7" r="2.59"/><circle class="cls-3" cx="116.6" cy="60.16" r="2.59"/><circle class="cls-3" cx="105.68" cy="72.62" r="2.59"/><circle class="cls-3" cx="105.68" cy="103.98" r="2.59"/><circle class="cls-3" cx="140.7" cy="106.58" r="2.59"/><circle class="cls-3" cx="136.16" cy="65.35" r="2.59"/><circle class="cls-3" cx="173.35" cy="83.08" r="2.59"/><circle class="cls-3" cx="145.89" cy="60.16" r="2.59"/><circle class="cls-3" cx="129.57" cy="23.4" r="2.59"/><circle class="cls-3" cx="76.6" cy="65.35" r="2.59"/><circle class="cls-3" cx="63.3" cy="77.89" r="2.59"/><circle class="cls-3" cx="81.46" cy="77.89" r="2.59"/><circle class="cls-5" cx="76.6" cy="181.6" r="2.27"/><circle class="cls-5" cx="63.55" cy="173.85" r="2.27"/><circle class="cls-5" cx="75.09" cy="165.78" r="2.27"/><circle class="cls-5" cx="73.64" cy="161.24" r="2.27"/><circle class="cls-5" cx="59.01" cy="155.18" r="2.27"/><circle class="cls-5" cx="50.8" cy="149.85" r="2.27"/><circle class="cls-5" cx="49.93" cy="155.18" r="2.27"/><circle class="cls-5" cx="48.53" cy="161.24" r="2.27"/><circle class="cls-5" cx="39.84" cy="158.21" r="2.27"/><circle class="cls-5" cx="39.84" cy="171.58" r="2.27"/><circle class="cls-5" cx="89.86" cy="156.7" r="2.27"/><circle class="cls-5" cx="88.13" cy="152.12" r="2.27"/><circle class="cls-5" cx="79.63" cy="145.27" r="2.27"/><circle class="cls-5" cx="89.07" cy="134.12" r="2.27"/><circle class="cls-5" cx="94.42" cy="141.12" r="2.27"/><circle class="cls-5" cx="97.87" cy="137.1" r="2.27"/><circle class="cls-5" cx="96.69" cy="128.02" r="2.27"/><circle class="cls-5" cx="91.34" cy="126.63" r="2.27"/><circle class="cls-5" cx="84.53" cy="122.96" r="2.27"/><circle class="cls-5" cx="98.96" cy="121.21" r="2.27"/><circle class="cls-5" cx="97.52" cy="116.03" r="2.27"/><circle class="cls-5" cx="75.91" cy="140.27" r="2.27"/><circle class="cls-5" cx="72.06" cy="136.39" r="2.27"/><circle class="cls-5" cx="62.37" cy="143" r="2.27"/><circle class="cls-5" cx="44.39" cy="134.83" r="2.27"/><circle class="cls-5" cx="38.66" cy="138" r="2.27"/><circle class="cls-5" cx="96.69" cy="147.54" r="2.27"/><circle class="cls-5" cx="104.33" cy="148.27" r="2.27"/><circle class="cls-5" cx="102.06" cy="153.67" r="2.27"/><circle class="cls-5" cx="99.79" cy="161.24" r="2.27"/><circle class="cls-5" cx="102.06" cy="167.04" r="2.27"/><circle class="cls-5" cx="110.85" cy="168.05" r="2.27"/><circle class="cls-5" cx="139.4" cy="199.16" r="2.27" transform="translate(-126.46 235.36) rotate(-67.54)"/><circle class="cls-5" cx="154.38" cy="202.68" r="2.27" transform="translate(-120.47 251.38) rotate(-67.54)"/><circle class="cls-5" cx="153.59" cy="190.4" r="2.27" transform="translate(-109.6 243.06) rotate(-67.54)"/><circle class="cls-5" cx="180.65" cy="151.37" r="2.27" transform="translate(-56.81 243.95) rotate(-67.54)"/><circle class="cls-5" cx="178.55" cy="158.74" r="2.27"/><circle class="cls-5" cx="172.61" cy="146.79" r="2.27"/><circle class="cls-5" cx="174.2" cy="132.06" r="2.27"/><circle class="cls-5" cx="159.97" cy="142.54" r="2.27"/><circle class="cls-5" cx="198.57" cy="178.82" r="2.27" transform="translate(-87.2 234.71) rotate(-57.73)"/><circle class="cls-5" cx="174.39" cy="193.53" r="2.27" transform="translate(-110.91 221.13) rotate(-57.73)"/><circle class="cls-5" cx="164.09" cy="207.98" r="2.27" transform="translate(-127.93 219.15) rotate(-57.73)"/><circle class="cls-5" cx="173.05" cy="177.79" r="2.27" transform="translate(-98.22 212.65) rotate(-57.73)"/><circle class="cls-5" cx="143.32" cy="192.95" r="2.27" transform="matrix(0.53, -0.85, 0.85, 0.53, -124.9, 194.58)"/><circle class="cls-5" cx="184.13" cy="170.54" r="2.27" transform="translate(-86.93 218.65) rotate(-57.73)"/><circle class="cls-5" cx="173.05" cy="167.43" r="2.27" transform="translate(-89.47 207.82) rotate(-57.73)"/><circle class="cls-5" cx="162.88" cy="161.97" r="2.27" transform="matrix(0.53, -0.85, 0.85, 0.53, -89.59, 196.68)"/><circle class="cls-5" cx="168.57" cy="158.38" r="2.27" transform="matrix(0.53, -0.85, 0.85, 0.53, -83.9, 199.81)"/><circle class="cls-5" cx="135.36" cy="152.94" r="2.27" transform="translate(-94.78 169.2) rotate(-57.73)"/><circle class="cls-5" cx="133.94" cy="159.44" r="2.27" transform="matrix(0.53, -0.85, 0.85, 0.53, -100.94, 171.03)"/><circle class="cls-5" cx="143.32" cy="154.89" r="2.27" transform="matrix(0.53, -0.85, 0.85, 0.53, -92.72, 176.84)"/><circle class="cls-5" cx="149.98" cy="148.61" r="2.27" transform="translate(-84.3 179.54) rotate(-57.73)"/><circle class="cls-5" cx="144.69" cy="146.67" r="2.27" transform="matrix(0.53, -0.85, 0.85, 0.53, -85.13, 174.17)"/><circle class="cls-5" cx="139.4" cy="142.65" r="2.27" transform="translate(-84.2 167.82) rotate(-57.73)"/><circle class="cls-5" cx="146.07" cy="139.5" r="2.27" transform="matrix(0.53, -0.85, 0.85, 0.53, -78.43, 172)"/><circle class="cls-5" cx="147.26" cy="134.1" r="2.27" transform="matrix(0.53, -0.85, 0.85, 0.53, -73.3, 170.48)"/><circle class="cls-5" cx="156.45" cy="134.1" r="2.27" transform="matrix(0.53, -0.85, 0.85, 0.53, -69.01, 178.25)"/><circle class="cls-5" cx="160.21" cy="128.24" r="2.27" transform="translate(-62.31 178.7) rotate(-57.73)"/><circle class="cls-5" cx="140.15" cy="137.75" r="2.27" transform="translate(-79.71 166.17) rotate(-57.73)"/><circle class="cls-5" cx="133.84" cy="133.77" r="2.27" transform="matrix(0.53, -0.85, 0.85, 0.53, -79.28, 158.98)"/><circle class="cls-5" cx="139.4" cy="130.31" r="2.27" transform="translate(-73.76 162.07) rotate(-57.73)"/><circle class="cls-5" cx="143.32" cy="124.11" r="2.27" transform="matrix(0.53, -0.85, 0.85, 0.53, -66.69, 162.49)"/><circle class="cls-5" cx="148.89" cy="127.62" r="2.27" transform="translate(-75.66 117.61) rotate(-42.51)"/><circle class="cls-5" cx="134.54" cy="137.93" r="2.27" transform="translate(-39.68 247.5) rotate(-86.6)"/><circle class="cls-5" cx="149.93" cy="143.27" r="2.27" transform="matrix(0.53, -0.85, 0.85, 0.53, -79.81, 177.02)"/><circle class="cls-5" cx="151.83" cy="138.68" r="2.27" transform="translate(-79.92 153.75) rotate(-51.25)"/><circle class="cls-5" cx="165.88" cy="146.16" r="2.27" transform="translate(-80.49 167.51) rotate(-51.25)"/><circle class="cls-5" cx="167.65" cy="183.19" r="2.27" transform="matrix(0.53, -0.85, 0.85, 0.53, -105.31, 210.6)"/><circle class="cls-5" cx="164.67" cy="177.79" r="2.27" transform="translate(-102.13 205.56) rotate(-57.73)"/><circle class="cls-5" cx="158.89" cy="180.35" r="2.27" transform="matrix(0.53, -0.85, 0.85, 0.53, -106.98, 201.87)"/><circle class="cls-5" cx="160.21" cy="174" r="2.27" transform="translate(-101.01 200.03) rotate(-57.73)"/><circle class="cls-5" cx="145.41" cy="161.97" r="2.27" transform="matrix(0.53, -0.85, 0.85, 0.53, -97.73, 181.91)"/><circle class="cls-5" cx="149.93" cy="159.07" r="2.27" transform="matrix(0.53, -0.85, 0.85, 0.53, -93.17, 184.38)"/><circle class="cls-5" cx="157.47" cy="151.37" r="2.27" transform="matrix(0.53, -0.85, 0.85, 0.53, -83.15, 187.17)"/><circle class="cls-5" cx="158.89" cy="143.6" r="2.27" transform="translate(-75.91 184.75) rotate(-57.73)"/><circle class="cls-5" cx="163.7" cy="143.27" r="2.27" transform="matrix(0.53, -0.85, 0.85, 0.53, -73.4, 188.66)"/><circle class="cls-5" cx="160.96" cy="137.93" r="2.27" transform="matrix(0.53, -0.85, 0.85, 0.53, -70.15, 183.85)"/><circle class="cls-5" cx="165.88" cy="137.32" r="2.27" transform="matrix(0.53, -0.85, 0.85, 0.53, -67.35, 187.73)"/><circle class="cls-5" cx="174.39" cy="138.68" r="2.27" transform="translate(-76 101.3) rotate(-33.13)"/><circle class="cls-5" cx="168.57" cy="133.81" r="2.27" transform="matrix(0.53, -0.85, 0.85, 0.53, -63.12, 188.36)"/><circle class="cls-5" cx="164.67" cy="131.05" r="2.27" transform="matrix(0.53, -0.85, 0.85, 0.53, -62.61, 183.78)"/><circle class="cls-5" cx="156.73" cy="123.35" r="2.27" transform="translate(-59.8 173.48) rotate(-57.73)"/><circle class="cls-5" cx="151.77" cy="124.99" r="2.27" transform="translate(-63.5 170.04) rotate(-57.73)"/><circle class="cls-5" cx="149.73" cy="120.53" r="2.27" transform="translate(-60.68 166.24) rotate(-57.73)"/><circle class="cls-5" cx="158.14" cy="119.15" r="2.27" transform="matrix(0.53, -0.85, 0.85, 0.53, -55.59, 172.71)"/><circle class="cls-5" cx="162.88" cy="116.11" r="2.27" transform="matrix(0.53, -0.85, 0.85, 0.53, -50.81, 175.31)"/><circle class="cls-5" cx="165.88" cy="112.05" r="2.27" transform="matrix(0.53, -0.85, 0.85, 0.53, -45.97, 175.95)"/><circle class="cls-5" cx="167.65" cy="117.88" r="2.27" transform="translate(-2.57 249.44) rotate(-81.39)"/><circle class="cls-5" cx="179.73" cy="117.88" r="2.27" transform="translate(7.7 261.38) rotate(-81.39)"/><circle class="cls-5" cx="176.66" cy="114.23" r="2.27" transform="translate(8.71 255.25) rotate(-81.39)"/><circle class="cls-5" cx="183.1" cy="110.78" r="2.27" transform="translate(17.59 258.68) rotate(-81.39)"/><circle class="cls-5" cx="153.34" cy="116.11" r="2.27" transform="translate(-12.99 233.78) rotate(-81.39)"/><circle class="cls-5" cx="156.73" cy="112.23" r="2.27" transform="translate(-6.26 233.83) rotate(-81.39)"/><circle class="cls-5" cx="149.66" cy="113.26" r="2.27" transform="translate(-13.29 227.72) rotate(-81.39)"/><circle class="cls-5" cx="143.32" cy="112.05" r="2.27" transform="translate(-17.48 220.42) rotate(-81.39)"/><circle class="cls-5" cx="144.69" cy="117.1" r="2.27" transform="translate(-21.31 226.07) rotate(-81.39)"/><circle class="cls-5" cx="140.43" cy="120.3" r="2.27" transform="translate(-28.09 224.58) rotate(-81.39)"/><circle class="cls-5" cx="138.82" cy="115.81" r="2.27" transform="translate(-25.03 219.17) rotate(-81.39)"/><circle class="cls-5" cx="132.88" cy="114.91" r="2.27" transform="matrix(0.15, -0.99, 0.99, 0.15, -29.19, 212.54)"/><circle class="cls-5" cx="137.13" cy="110.98" r="2.27" transform="translate(-21.69 213.4) rotate(-81.39)"/><circle class="cls-5" cx="146.07" cy="113.26" r="2.27" transform="translate(-16.34 224.18) rotate(-81.39)"/><circle class="cls-5" cx="125.24" cy="128.24" r="2.27" transform="translate(-48.86 216.31) rotate(-81.39)"/><circle class="cls-5" cx="118.41" cy="133.77" r="2.27" transform="translate(-60.13 214.27) rotate(-81.39)"/><circle class="cls-5" cx="113.08" cy="136.33" r="2.27" transform="translate(-67.2 211.17) rotate(-81.39)"/><circle class="cls-5" cx="113.08" cy="130.31" r="2.27" transform="translate(-61.25 206.05) rotate(-81.39)"/><circle class="cls-5" cx="117.71" cy="128.24" r="2.27" transform="translate(-43.34 -1.2) rotate(-7.02)"/><circle class="cls-5" cx="115.03" cy="124.99" r="2.27" transform="translate(-42.97 -1.55) rotate(-7.02)"/><circle class="cls-5" cx="115.53" cy="120.16" r="2.27" transform="translate(-42.37 -1.53) rotate(-7.02)"/><circle class="cls-5" cx="106.74" cy="125.72" r="2.27" transform="translate(-43.12 -2.56) rotate(-7.02)"/><circle class="cls-5" cx="102.88" cy="132.05" r="2.27" transform="translate(-43.92 -2.99) rotate(-7.02)"/><circle class="cls-5" cx="102.88" cy="139.33" r="2.27" transform="translate(-44.81 -2.93) rotate(-7.02)"/><circle class="cls-5" cx="94.38" cy="137.93" r="2.27" transform="translate(-44.7 -3.98) rotate(-7.02)"/><circle class="cls-5" cx="91.18" cy="143.75" r="2.27" transform="translate(-45.44 -4.33) rotate(-7.02)"/><circle class="cls-5" cx="85.95" cy="146.67" r="2.27" transform="translate(-45.83 -4.95) rotate(-7.02)"/><circle class="cls-5" cx="85.95" cy="138.68" r="2.27" transform="translate(-44.86 -5.01) rotate(-7.02)"/><circle class="cls-5" cx="72.94" cy="140.89" r="2.27" transform="translate(-45.23 -6.58) rotate(-7.02)"/><circle class="cls-5" cx="85.3" cy="133.42" r="2.27" transform="translate(-44.22 -5.12) rotate(-7.02)"/><circle class="cls-5" cx="89.49" cy="130.02" r="2.27" transform="translate(-43.77 -4.64) rotate(-7.02)"/><circle class="cls-5" cx="87.57" cy="125.72" r="2.27" transform="translate(-43.26 -4.9) rotate(-7.02)"/><circle class="cls-5" cx="84.24" cy="123.35" r="2.27" transform="translate(-43 -5.33) rotate(-7.02)"/><circle class="cls-5" cx="87.57" cy="120.16" r="2.27" transform="translate(-42.58 -4.95) rotate(-7.02)"/><circle class="cls-5" cx="84.24" cy="112.7" r="2.27" transform="translate(-41.7 -5.41) rotate(-7.02)"/><circle class="cls-5" cx="74.51" cy="94.64" r="2.27" transform="translate(-73.65 63.85) rotate(-45)"/><circle class="cls-5" cx="79.92" cy="107.29" r="2.27" transform="translate(-64.29 23.5) rotate(-23.15)"/><circle class="cls-5" cx="82.03" cy="87.11" r="2.27" transform="translate(-56.19 22.71) rotate(-23.15)"/><circle class="cls-5" cx="97.86" cy="89.17" r="2.27" transform="translate(-55.73 29.1) rotate(-23.15)"/><circle class="cls-5" cx="100.4" cy="91.84" r="2.27" transform="translate(-56.57 30.31) rotate(-23.15)"/><circle class="cls-5" cx="102.2" cy="95.37" r="2.27" transform="translate(-57.82 31.3) rotate(-23.15)"/><circle class="cls-5" cx="104.69" cy="91.84" r="2.27" transform="translate(-56.23 32) rotate(-23.15)"/><circle class="cls-5" cx="108.25" cy="87.65" r="2.27" transform="translate(-54.29 33.06) rotate(-23.15)"/><circle class="cls-5" cx="112.75" cy="86.56" r="2.27" transform="translate(-53.5 34.74) rotate(-23.15)"/><circle class="cls-5" cx="115.62" cy="90.41" r="2.27" transform="translate(-54.79 36.17) rotate(-23.15)"/><circle class="cls-5" cx="120.69" cy="92.98" r="2.27" transform="translate(-51.88 26.7) rotate(-18.56)"/><circle class="cls-5" cx="115.53" cy="102.11" r="2.27" transform="translate(-55.05 25.54) rotate(-18.56)"/><circle class="cls-5" cx="118.94" cy="105.12" r="2.27" transform="translate(-55.83 26.78) rotate(-18.56)"/><circle class="cls-5" cx="119.91" cy="101.7" r="2.27" transform="translate(-54.69 26.91) rotate(-18.56)"/><circle class="cls-5" cx="124.26" cy="103.65" r="2.27" transform="translate(-55.08 28.4) rotate(-18.56)"/><circle class="cls-5" cx="125.52" cy="100.25" r="2.27" transform="translate(-53.94 28.62) rotate(-18.56)"/><circle class="cls-5" cx="122.65" cy="97.03" r="2.27" transform="translate(-53.06 27.54) rotate(-18.56)"/><circle class="cls-5" cx="126.07" cy="94.76" r="2.27" transform="translate(-52.16 28.51) rotate(-18.56)"/><circle class="cls-5" cx="124.58" cy="90.33" r="2.27" transform="translate(-50.83 27.81) rotate(-18.56)"/><circle class="cls-5" cx="118.67" cy="88.34" r="2.27" transform="translate(-50.5 25.82) rotate(-18.56)"/><circle class="cls-5" cx="121.53" cy="84.98" r="2.27" transform="translate(-49.28 26.56) rotate(-18.56)"/><circle class="cls-5" cx="126.8" cy="86.56" r="2.27" transform="translate(-49.51 28.32) rotate(-18.56)"/><circle class="cls-5" cx="130.67" cy="83.97" r="2.27" transform="translate(-48.49 29.41) rotate(-18.56)"/><circle class="cls-5" cx="128.84" cy="91.44" r="2.27" transform="translate(-50.96 29.22) rotate(-18.56)"/><circle class="cls-5" cx="131.29" cy="97.54" r="2.27" transform="translate(-52.78 30.32) rotate(-18.56)"/><circle class="cls-5" cx="130.67" cy="103.8" r="2.27" transform="translate(-54.8 30.45) rotate(-18.56)"/><circle class="cls-5" cx="127.51" cy="107.63" r="2.27" transform="translate(-56.18 29.64) rotate(-18.56)"/><circle class="cls-5" cx="134.88" cy="103.93" r="2.27" transform="translate(-54.62 31.79) rotate(-18.56)"/><circle class="cls-5" cx="136.24" cy="99.62" r="2.27" transform="translate(-53.18 32) rotate(-18.56)"/><circle class="cls-5" cx="135.9" cy="94.97" r="2.27" transform="matrix(0.95, -0.32, 0.32, 0.95, -51.72, 31.65)"/><circle class="cls-5" cx="139.4" cy="92.32" r="2.27" transform="translate(-50.69 32.63) rotate(-18.56)"/><circle class="cls-5" cx="138.57" cy="86.07" r="2.27" transform="translate(-48.75 32.04) rotate(-18.56)"/><circle class="cls-5" cx="143.32" cy="86.07" r="2.27" transform="translate(-48.5 33.55) rotate(-18.56)"/><circle class="cls-5" cx="149.56" cy="84.98" r="2.27" transform="translate(-47.83 35.48) rotate(-18.56)"/><circle class="cls-5" cx="138.82" cy="82.11" r="2.27" transform="translate(-47.47 31.91) rotate(-18.56)"/><circle class="cls-5" cx="133.48" cy="80.63" r="2.27" transform="translate(-47.28 30.13) rotate(-18.56)"/><circle class="cls-5" cx="143.56" cy="91.44" r="2.27" transform="translate(-50.19 33.91) rotate(-18.56)"/><circle class="cls-5" cx="143.22" cy="97.54" r="2.27" transform="translate(-52.16 34.11) rotate(-18.56)"/><circle class="cls-5" cx="139.16" cy="102.11" r="2.27" transform="translate(-53.82 33.06) rotate(-18.56)"/><circle class="cls-5" cx="143.99" cy="102.22" r="2.27" transform="translate(-53.6 34.6) rotate(-18.56)"/><circle class="cls-5" cx="147.26" cy="96.29" r="2.27" transform="translate(-51.55 35.33) rotate(-18.56)"/><circle class="cls-5" cx="148.53" cy="91.76" r="2.27" transform="translate(-50.04 35.5) rotate(-18.56)"/><circle class="cls-5" cx="149.98" cy="102" r="2.27" transform="translate(-53.22 36.5) rotate(-18.56)"/><circle class="cls-5" cx="155.33" cy="102.93" r="2.27" transform="translate(-53.24 38.25) rotate(-18.56)"/><circle class="cls-5" cx="158.46" cy="105.12" r="2.27" transform="translate(-53.78 39.36) rotate(-18.56)"/><circle class="cls-5" cx="163.55" cy="102" r="2.27" transform="translate(-52.52 40.82) rotate(-18.56)"/><circle class="cls-5" cx="165.88" cy="105.12" r="2.27" transform="translate(-53.39 41.72) rotate(-18.56)"/><circle class="cls-5" cx="167.85" cy="101.12" r="2.27" transform="translate(-52.01 42.14) rotate(-18.56)"/><circle class="cls-5" cx="171.23" cy="97.03" r="2.27" transform="translate(-50.54 43) rotate(-18.56)"/><circle class="cls-5" cx="173.99" cy="100.25" r="2.27" transform="translate(-51.42 44.05) rotate(-18.56)"/><circle class="cls-5" cx="177.09" cy="97.46" r="2.27" transform="translate(-50.37 44.89) rotate(-18.56)"/><circle class="cls-5" cx="174.45" cy="93.32" r="2.27" transform="translate(-49.19 43.83) rotate(-18.56)"/><circle class="cls-5" cx="170.45" cy="91.44" r="2.27" transform="translate(-48.8 42.46) rotate(-18.56)"/><circle class="cls-5" cx="173.4" cy="86.57" r="2.27" transform="translate(-47.09 43.15) rotate(-18.56)"/><circle class="cls-5" cx="173.99" cy="82.67" r="2.27" transform="translate(-45.82 43.14) rotate(-18.56)"/><circle class="cls-5" cx="161.48" cy="88.34" r="2.27" transform="translate(-48.28 39.45) rotate(-18.56)"/><circle class="cls-5" cx="162.88" cy="83.52" r="2.27" transform="translate(-46.67 39.64) rotate(-18.56)"/><circle class="cls-5" cx="159.11" cy="81.28" r="2.27" transform="translate(-46.15 38.32) rotate(-18.56)"/><circle class="cls-5" cx="161.99" cy="77.46" r="2.27" transform="translate(-44.79 39.04) rotate(-18.56)"/><circle class="cls-5" cx="165.26" cy="70.7" r="2.27" transform="translate(-35.96 4.18) rotate(-7.02)"/><circle class="cls-5" cx="160.78" cy="73.86" r="2.27" transform="translate(-43.7 38.47) rotate(-18.56)"/><circle class="cls-5" cx="160.18" cy="70" r="2.27" transform="translate(-9.09 157.17) rotate(-60)"/><circle class="cls-5" cx="173.68" cy="70.82" r="2.27" transform="translate(-3.05 169.27) rotate(-60)"/><circle class="cls-5" cx="160.21" cy="65.66" r="2.27" transform="translate(-5.32 155.03) rotate(-60)"/><circle class="cls-5" cx="154.48" cy="71.58" r="2.27" transform="translate(-13.3 153.03) rotate(-60)"/><circle class="cls-5" cx="148.53" cy="70.82" r="2.27" transform="translate(-15.62 147.49) rotate(-60)"/><circle class="cls-5" cx="150.61" cy="67.22" r="2.27" transform="translate(-11.47 147.49) rotate(-60)"/><circle class="cls-5" cx="153.34" cy="64.75" r="2.27" transform="translate(-7.96 148.62) rotate(-60)"/><circle class="cls-5" cx="141.48" cy="70.75" r="2.27" transform="translate(-19.09 141.35) rotate(-60)"/><circle class="cls-5" cx="140.15" cy="76.63" r="2.27" transform="translate(-24.85 143.14) rotate(-60)"/><circle class="cls-5" cx="135.36" cy="70.7" r="2.27" transform="translate(-22.11 136.03) rotate(-60)"/><circle class="cls-5" cx="139.07" cy="67.98" r="2.27" transform="translate(-17.89 137.88) rotate(-60)"/><circle class="cls-5" cx="142.98" cy="65.4" r="2.27" transform="translate(-13.71 139.98) rotate(-60)"/><circle class="cls-5" cx="127.69" cy="71.12" r="2.27" transform="translate(-26.3 129.6) rotate(-60)"/><circle class="cls-5" cx="127.69" cy="67.59" r="2.27" transform="translate(-23.25 127.83) rotate(-60)"/><circle class="cls-5" cx="127.51" cy="75.97" r="2.27" transform="translate(-30.59 131.87) rotate(-60)"/><circle class="cls-5" cx="120.69" cy="76.48" r="2.27" transform="translate(-34.45 126.21) rotate(-60)"/><circle class="cls-5" cx="122.92" cy="72.61" r="2.27" transform="translate(-29.98 126.21) rotate(-60)"/><circle class="cls-5" cx="115.62" cy="76.09" r="2.27" transform="translate(-36.65 121.63) rotate(-60)"/><circle class="cls-5" cx="114.31" cy="71.58" r="2.27" transform="translate(-33.39 118.24) rotate(-60)"/><circle class="cls-5" cx="106.4" cy="73.86" r="2.27" transform="translate(-39.32 112.53) rotate(-60)"/><circle class="cls-5" cx="118.12" cy="58.33" r="2.27" transform="translate(-20.01 114.92) rotate(-60)"/><circle class="cls-5" cx="130.31" cy="52.95" r="2.27" transform="translate(-9.26 122.78) rotate(-60)"/><circle class="cls-5" cx="138.99" cy="50.01" r="2.27" transform="translate(-2.37 128.82) rotate(-60)"/><circle class="cls-5" cx="134.36" cy="57.34" r="2.27" transform="translate(-11.03 128.48) rotate(-60)"/><circle class="cls-5" cx="108.25" cy="52.95" r="2.27" transform="translate(-20.29 103.68) rotate(-60)"/><circle class="cls-5" cx="99.32" cy="55.13" r="2.27" transform="translate(-26.64 97.03) rotate(-60)"/><circle class="cls-5" cx="97.16" cy="58.88" r="2.27" transform="translate(-30.97 97.03) rotate(-60)"/><circle class="cls-5" cx="102.82" cy="68.71" r="2.27" transform="translate(-36.65 106.85) rotate(-60)"/><circle class="cls-5" cx="106.59" cy="60.38" r="2.27" transform="translate(-27.56 105.95) rotate(-60)"/><circle class="cls-5" cx="145.92" cy="52.95" r="2.27" transform="translate(-1.45 136.3) rotate(-60)"/><circle class="cls-5" cx="97.51" cy="78.27" r="2.27" transform="translate(-47.59 107.04) rotate(-60)"/><circle class="cls-5" cx="97.37" cy="82.13" r="2.27" transform="translate(-51 108.84) rotate(-60)"/><circle class="cls-5" cx="91.86" cy="79.74" r="2.27" transform="translate(-51.69 102.87) rotate(-60)"/><circle class="cls-5" cx="89.26" cy="67.59" r="2.27" transform="translate(-42.46 94.55) rotate(-60)"/><circle class="cls-5" cx="103.8" cy="80.3" r="2.27" transform="translate(-46.19 113.5) rotate(-60)"/><circle class="cls-5" cx="111.33" cy="81.28" r="2.27" transform="translate(-43.28 120.51) rotate(-60)"/><circle class="cls-5" cx="106.88" cy="84.44" r="2.27" transform="translate(-48.25 118.24) rotate(-60)"/><circle class="cls-5" cx="150.59" cy="59.56" r="2.27" transform="translate(-18.67 123.18) rotate(-51.25)"/><circle class="cls-5" cx="179.15" cy="87.11" r="2.27" transform="matrix(0.95, -0.32, 0.32, 0.95, -46.97, 45.01)"/><circle class="cls-5" cx="193.54" cy="84.98" r="2.27" transform="translate(-45.54 49.48) rotate(-18.56)"/><circle class="cls-5" cx="183.59" cy="99.82" r="2.27" transform="translate(-50.78 47.08) rotate(-18.56)"/><circle class="cls-5" cx="199.12" cy="76.48" r="2.27" transform="translate(-42.54 50.81) rotate(-18.56)"/><circle class="cls-5" cx="203.07" cy="90.11" r="2.27" transform="translate(-47.49 82.13) rotate(-26.14)"/><circle class="cls-5" cx="106.74" cy="95.37" r="2.27" transform="translate(-57.45 33.08) rotate(-23.15)"/><circle class="cls-5" cx="105.15" cy="99.62" r="2.27" transform="translate(-59.25 32.8) rotate(-23.15)"/><circle class="cls-5" cx="103.27" cy="103.65" r="2.27" transform="translate(-60.98 32.39) rotate(-23.15)"/><circle class="cls-5" cx="94.45" cy="102.79" r="2.27" transform="translate(-61.36 28.85) rotate(-23.15)"/><circle class="cls-5" cx="109.41" cy="103.8" r="2.27" transform="translate(-60.55 34.81) rotate(-23.15)"/><circle class="cls-5" cx="107.09" cy="106.81" r="2.27" transform="translate(-61.92 34.14) rotate(-23.15)"/><circle class="cls-5" cx="112.13" cy="99.11" r="2.27" transform="translate(-58.49 35.5) rotate(-23.15)"/><circle class="cls-5" cx="116.34" cy="96.29" r="2.27" transform="translate(-57.04 36.93) rotate(-23.15)"/><circle class="cls-5" cx="114.79" cy="93.78" r="2.27" transform="translate(-56.18 36.12) rotate(-23.15)"/><circle class="cls-5" cx="110.02" cy="91.44" r="2.27" transform="translate(-55.64 34.06) rotate(-23.15)"/><circle class="cls-5" cx="91.31" cy="89.17" r="2.27" transform="translate(-63.32 52.81) rotate(-35.39)"/><circle class="cls-5" cx="93.43" cy="86.07" r="2.27" transform="translate(-57.78 102.58) rotate(-57.73)"/><circle class="cls-5" cx="90.14" cy="112.23" r="2.27" transform="translate(-41.59 -4.69) rotate(-7.02)"/><circle class="cls-5" cx="98.74" cy="115.33" r="2.27" transform="translate(-41.91 -3.62) rotate(-7.02)"/><circle class="cls-5" cx="100.4" cy="119.15" r="2.27" transform="translate(-42.36 -3.39) rotate(-7.02)"/><circle class="cls-5" cx="103.27" cy="120.51" r="2.27" transform="translate(-42.51 -3.03) rotate(-7.02)"/><circle class="cls-5" cx="104.47" cy="116.7" r="2.27" transform="translate(-42.03 -2.91) rotate(-7.02)"/><circle class="cls-5" cx="108.25" cy="115.33" r="2.27" transform="translate(-41.84 -2.45) rotate(-7.02)"/><circle class="cls-5" cx="105.08" cy="112.23" r="2.27" transform="translate(-41.48 -2.87) rotate(-7.02)"/><circle class="cls-5" cx="113.26" cy="110.64" r="2.27" transform="translate(-41.23 -1.88) rotate(-7.02)"/><circle class="cls-5" cx="118.41" cy="113.12" r="2.27" transform="translate(-41.49 -1.23) rotate(-7.02)"/><circle class="cls-5" cx="120.7" cy="109.83" r="2.27" transform="translate(-41.07 -0.97) rotate(-7.02)"/><circle class="cls-5" cx="124.38" cy="112.23" r="2.27" transform="translate(-41.34 -0.51) rotate(-7.02)"/><circle class="cls-5" cx="122.65" cy="116.75" r="2.27" transform="translate(-41.9 -0.69) rotate(-7.02)"/><circle class="cls-5" cx="124.16" cy="120.51" r="2.27" transform="translate(-42.35 -0.47) rotate(-7.02)"/><circle class="cls-5" cx="128.01" cy="120.74" r="2.27" transform="translate(-42.35 0) rotate(-7.02)"/><circle class="cls-5" cx="125.52" cy="124.99" r="2.27" transform="translate(-42.89 -0.27) rotate(-7.02)"/><circle class="cls-5" cx="120.7" cy="123.49" r="2.27" transform="translate(-42.74 -0.87) rotate(-7.02)"/><circle class="cls-5" cx="132.88" cy="110.46" r="2.27" transform="translate(-41.06 0.52) rotate(-7.02)"/><circle class="cls-5" cx="94.85" cy="117.88" r="2.27" transform="translate(-42.25 -4.07) rotate(-7.02)"/><circle class="cls-5" cx="97.16" cy="121.76" r="2.27" transform="translate(-72.88 170.38) rotate(-76.14)"/><circle class="cls-5" cx="176.66" cy="130.31" r="2.27" transform="matrix(0.53, -0.85, 0.85, 0.53, -56.39, 193.58)"/><circle class="cls-5" cx="179.32" cy="136.53" r="2.27" transform="translate(-60.41 198.72) rotate(-57.73)"/><circle class="cls-5" cx="186.79" cy="133.77" r="2.27" transform="matrix(0.53, -0.85, 0.85, 0.53, -54.6, 203.75)"/><circle class="cls-5" cx="205.81" cy="129.27" r="2.27" transform="translate(-41.92 217.74) rotate(-57.73)"/><circle class="cls-5" cx="150.59" cy="177.79" r="2.27" transform="matrix(0.53, -0.85, 0.85, 0.53, -108.69, 193.66)"/><circle class="cls-5" cx="145.41" cy="174" r="2.27" transform="matrix(0.53, -0.85, 0.85, 0.53, -107.9, 187.52)"/><circle class="cls-5" cx="151.83" cy="168.67" r="2.27" transform="matrix(0.53, -0.85, 0.85, 0.53, -100.4, 190.46)"/><circle class="cls-5" cx="153.59" cy="164.45" r="2.27" transform="matrix(0.53, -0.85, 0.85, 0.53, -96.02, 189.98)"/><circle class="cls-5" cx="187.05" cy="174.43" r="2.27" transform="translate(-96.44 178.44) rotate(-47.61)"/><circle class="cls-5" cx="213.07" cy="188.13" r="2.27" transform="matrix(0.53, -0.85, 0.85, 0.53, -88.31, 251.31)"/><circle class="cls-1" cx="127.93" cy="96.61" r="2.27" transform="translate(-52.65 29.2) rotate(-18.56)"/><circle class="cls-1" cx="117.46" cy="91.24" r="2.27" transform="translate(-51.49 25.59) rotate(-18.56)"/><circle class="cls-1" cx="140.43" cy="88.26" r="2.27" transform="translate(-49.34 32.74) rotate(-18.56)"/><circle class="cls-1" cx="125.49" cy="82.21" r="2.27" transform="translate(-48.2 27.67) rotate(-18.56)"/><circle class="cls-1" cx="123.04" cy="107.12" r="2.27" transform="translate(-56.26 28.19) rotate(-18.56)"/><circle class="cls-1" cx="110.45" cy="111.35" r="2.27" transform="translate(-58.26 24.4) rotate(-18.56)"/><circle class="cls-1" cx="116.14" cy="117.55" r="2.27" transform="translate(-59.93 26.54) rotate(-18.56)"/><circle class="cls-1" cx="137.53" cy="113.72" r="2.27" transform="translate(-57.6 33.14) rotate(-18.56)"/><circle class="cls-1" cx="148.61" cy="108.53" r="2.27" transform="translate(-55.37 36.4) rotate(-18.56)"/><circle class="cls-1" cx="152.23" cy="117.76" r="2.27" transform="translate(-58.12 38.03) rotate(-18.56)"/><circle class="cls-1" cx="157.47" cy="109.83" r="2.27" transform="translate(-55.32 39.29) rotate(-18.56)"/><circle class="cls-1" cx="166.14" cy="102.22" r="2.27" transform="translate(-52.45 41.65) rotate(-18.56)"/><circle class="cls-1" cx="173.87" cy="96.61" r="2.27" transform="translate(-50.27 43.82) rotate(-18.56)"/><circle class="cls-1" cx="165.43" cy="88.07" r="2.27" transform="translate(-47.98 40.69) rotate(-18.56)"/><circle class="cls-1" cx="158.82" cy="92.32" r="2.27" transform="translate(-49.68 38.81) rotate(-18.56)"/><circle class="cls-1" cx="160.38" cy="78.27" r="2.27" transform="translate(-45.13 38.57) rotate(-18.56)"/><circle class="cls-1" cx="155.9" cy="86.79" r="2.27" transform="translate(-48.07 37.59) rotate(-18.56)"/><path class="cls-2" d="M34.93,122.93a3.39,3.39,0,0,0,.48-1.72c0-1-.52-1.55-1.27-1.55s-1.09.4-1.47,1.4c-.43,1.21-1.06,2-2.1,2a2.14,2.14,0,0,1-2-2.4,3.36,3.36,0,0,1,.36-1.64l.78.26a2.94,2.94,0,0,0-.35,1.41c0,1,.61,1.4,1.11,1.4.69,0,1-.45,1.43-1.47.48-1.25,1.09-1.89,2.18-1.89s2.13.85,2.13,2.6a3.83,3.83,0,0,1-.47,1.89Z" transform="translate(-28.56 -16.55)"/><path class="cls-2" d="M32.51,117.41c-.68,0-1.23,0-1.74,0v-.87l.91,0v0a2.09,2.09,0,0,1-1-1.89c0-1.29,1.09-2.25,2.71-2.25,1.91,0,2.86,1.17,2.86,2.42a1.87,1.87,0,0,1-.84,1.64v0h2.89v1Zm1.42-1a2.14,2.14,0,0,0,.4,0A1.49,1.49,0,0,0,35.45,115c0-1-.84-1.62-2.06-1.62-1.07,0-2,.56-2,1.58a1.67,1.67,0,0,0,1.6,1.53Z" transform="translate(-28.56 -16.55)"/><path class="cls-2" d="M36.09,108.2l-.67.08v0a2,2,0,0,1,.79,1.63,1.52,1.52,0,0,1-1.53,1.63c-1.29,0-2-1.14-2-3.2h-.11a1.1,1.1,0,0,0-1.23,1.21,2.65,2.65,0,0,0,.4,1.39l-.64.22a3.3,3.3,0,0,1-.47-1.75c0-1.63,1.11-2,2.18-2h2a7.46,7.46,0,0,0,1.28-.09Zm-2.72.14c0,1.06.17,2.25,1.2,2.25a.86.86,0,0,0,.92-.91,1.33,1.33,0,0,0-.89-1.29,1,1,0,0,0-.31-.05Z" transform="translate(-28.56 -16.55)"/><path class="cls-2" d="M35.89,102.05a3.57,3.57,0,0,1,.31,1.53,2.53,2.53,0,0,1-2.72,2.65,2.71,2.71,0,0,1-2.83-2.86,3.25,3.25,0,0,1,.27-1.34l.75.22a2.24,2.24,0,0,0-.25,1.12,1.84,1.84,0,0,0,2,1.88,1.83,1.83,0,0,0,2-1.85,2.75,2.75,0,0,0-.26-1.19Z" transform="translate(-28.56 -16.55)"/><path class="cls-2" d="M29.27,99.84a.6.6,0,0,1,0,1.2.59.59,0,0,1-.6-.61A.57.57,0,0,1,29.27,99.84Zm6.82,1.08H30.77v-1h5.33Z" transform="translate(-28.56 -16.55)"/><path class="cls-2" d="M32.21,98.34c-.55,0-1,0-1.44,0v-.86l.88-.05v0a2,2,0,0,1-1-1.76c0-.74.44-1.88,2.27-1.88h3.18v1H33c-.86,0-1.57.32-1.57,1.23a1.38,1.38,0,0,0,1,1.3,1.4,1.4,0,0,0,.45.07h3.2v1Z" transform="translate(-28.56 -16.55)"/><path class="cls-2" d="M30.77,87.65c.39,0,.81,0,1.46,0h3.09a3.06,3.06,0,0,1,2.43.76,2.82,2.82,0,0,1,.64,1.94A3.44,3.44,0,0,1,38,92.16l-.74-.24a3,3,0,0,0,.42-1.56c0-1-.52-1.72-1.86-1.72h-.59v0a1.9,1.9,0,0,1,.89,1.69,2.38,2.38,0,0,1-2.6,2.27,2.56,2.56,0,0,1-2.83-2.4,1.77,1.77,0,0,1,.92-1.66v0l-.8,0Zm2.1,1a1.38,1.38,0,0,0-.44.05,1.4,1.4,0,0,0-1,1.35c0,.92.78,1.58,2,1.58,1,0,1.92-.53,1.92-1.57a1.42,1.42,0,0,0-1-1.34,1.7,1.7,0,0,0-.52-.08Z" transform="translate(-28.56 -16.55)"/><path class="cls-2" d="M96.45,215.74a11.09,11.09,0,0,1,1.84-.14,3,3,0,0,1,2.08.62,2,2,0,0,1,.65,1.55,2.18,2.18,0,0,1-.57,1.58,3.08,3.08,0,0,1-2.27.81,3.26,3.26,0,0,1-.77-.07v3h-1Zm1,3.58a3.18,3.18,0,0,0,.79.08c1.16,0,1.86-.56,1.86-1.58s-.69-1.45-1.75-1.45a4,4,0,0,0-.9.08Z" transform="translate(-28.56 -16.55)"/><path class="cls-2" d="M102.09,219.41c0-.63,0-1.17,0-1.66h.85l0,1h0a1.6,1.6,0,0,1,1.47-1.17,1.07,1.07,0,0,1,.28,0v.91a1.49,1.49,0,0,0-.33,0,1.36,1.36,0,0,0-1.3,1.24,2.66,2.66,0,0,0,0,.45v2.84h-1Z" transform="translate(-28.56 -16.55)"/><path class="cls-2" d="M110.4,220.37a2.6,2.6,0,0,1-2.65,2.83,2.53,2.53,0,0,1-2.55-2.74,2.6,2.6,0,0,1,2.64-2.83A2.52,2.52,0,0,1,110.4,220.37Zm-4.22.05c0,1.17.67,2,1.62,2s1.62-.87,1.62-2.07c0-.9-.45-2-1.6-2S106.18,219.41,106.18,220.42Z" transform="translate(-28.56 -16.55)"/><path class="cls-2" d="M115.42,222.87a3.57,3.57,0,0,1-1.53.31,2.53,2.53,0,0,1-2.65-2.72,2.71,2.71,0,0,1,2.86-2.83,3.25,3.25,0,0,1,1.34.27l-.22.75a2.24,2.24,0,0,0-1.12-.25,2,2,0,0,0,0,4,2.75,2.75,0,0,0,1.19-.26Z" transform="translate(-28.56 -16.55)"/><path class="cls-2" d="M116.55,219.41c0-.63,0-1.17,0-1.66h.85l0,1h0a1.6,1.6,0,0,1,1.47-1.17,1.07,1.07,0,0,1,.28,0v.91a1.49,1.49,0,0,0-.33,0,1.36,1.36,0,0,0-1.3,1.24,2.66,2.66,0,0,0,0,.45v2.84h-1Z" transform="translate(-28.56 -16.55)"/><path class="cls-2" d="M123,223.07l-.08-.67h0a2,2,0,0,1-1.63.79,1.52,1.52,0,0,1-1.63-1.53c0-1.29,1.14-2,3.2-2v-.11a1.1,1.1,0,0,0-1.21-1.23,2.65,2.65,0,0,0-1.39.4l-.22-.64a3.3,3.3,0,0,1,1.75-.47c1.63,0,2,1.11,2,2.18v2a7.46,7.46,0,0,0,.09,1.28Zm-.14-2.72c-1.06,0-2.25.17-2.25,1.2a.86.86,0,0,0,.91.92,1.33,1.33,0,0,0,1.29-.89,1,1,0,0,0,.05-.31Z" transform="translate(-28.56 -16.55)"/><path class="cls-2" d="M125.26,222.08a2.53,2.53,0,0,0,1.28.38c.7,0,1-.35,1-.79s-.28-.71-1-1c-1-.34-1.41-.87-1.41-1.51a1.64,1.64,0,0,1,1.84-1.56,2.66,2.66,0,0,1,1.31.33l-.24.7a2.07,2.07,0,0,0-1.09-.31c-.57,0-.89.33-.89.73s.32.64,1,.9c.92.35,1.4.81,1.4,1.61s-.73,1.6-2,1.6a3,3,0,0,1-1.5-.36Z" transform="translate(-28.56 -16.55)"/><path class="cls-2" d="M130.91,216.22v1.53h1.39v.74h-1.39v2.87c0,.66.19,1,.73,1a2.15,2.15,0,0,0,.56-.07l0,.73a2.37,2.37,0,0,1-.86.13,1.34,1.34,0,0,1-1-.41,2,2,0,0,1-.37-1.39v-2.9h-.83v-.74H130v-1.28Z" transform="translate(-28.56 -16.55)"/><path class="cls-2" d="M134.47,216.25a.6.6,0,0,1-1.2,0,.59.59,0,0,1,.61-.6A.57.57,0,0,1,134.47,216.25Zm-1.08,6.82v-5.33h1v5.33Z" transform="translate(-28.56 -16.55)"/><path class="cls-2" d="M136,219.19c0-.55,0-1,0-1.44h.86l.05.88h0a2,2,0,0,1,1.76-1c.74,0,1.88.44,1.88,2.27v3.18h-1V220c0-.86-.32-1.57-1.23-1.57a1.38,1.38,0,0,0-1.3,1,1.4,1.4,0,0,0-.07.45v3.2h-1Z" transform="translate(-28.56 -16.55)"/><path class="cls-2" d="M145,223.07l-.08-.67h0a2,2,0,0,1-1.63.79,1.52,1.52,0,0,1-1.63-1.53c0-1.29,1.14-2,3.2-2v-.11a1.1,1.1,0,0,0-1.21-1.23,2.65,2.65,0,0,0-1.39.4l-.22-.64a3.3,3.3,0,0,1,1.75-.47c1.63,0,2,1.11,2,2.18v2a7.46,7.46,0,0,0,.09,1.28Zm-.14-2.72c-1.06,0-2.25.17-2.25,1.2a.86.86,0,0,0,.91.92,1.33,1.33,0,0,0,1.29-.89,1,1,0,0,0,.05-.31Z" transform="translate(-28.56 -16.55)"/><path class="cls-2" d="M148.49,216.22v1.53h1.39v.74h-1.39v2.87c0,.66.19,1,.73,1a2.15,2.15,0,0,0,.56-.07l0,.73a2.37,2.37,0,0,1-.86.13,1.34,1.34,0,0,1-1-.41,2,2,0,0,1-.37-1.39v-2.9h-.83v-.74h.83v-1.28Z" transform="translate(-28.56 -16.55)"/><path class="cls-2" d="M152,216.25a.6.6,0,0,1-1.2,0,.59.59,0,0,1,.61-.6A.57.57,0,0,1,152,216.25ZM151,223.07v-5.33h1v5.33Z" transform="translate(-28.56 -16.55)"/><path class="cls-2" d="M158.36,220.37a2.6,2.6,0,0,1-2.65,2.83,2.53,2.53,0,0,1-2.55-2.74,2.6,2.6,0,0,1,2.64-2.83A2.52,2.52,0,0,1,158.36,220.37Zm-4.22.05c0,1.17.67,2,1.62,2s1.62-.87,1.62-2.07c0-.9-.45-2-1.6-2S154.14,219.41,154.14,220.42Z" transform="translate(-28.56 -16.55)"/><path class="cls-2" d="M159.58,219.19c0-.55,0-1,0-1.44h.86l.05.88h0a2,2,0,0,1,1.76-1c.74,0,1.88.44,1.88,2.27v3.18h-1V220c0-.86-.32-1.57-1.23-1.57a1.38,1.38,0,0,0-1.3,1,1.4,1.4,0,0,0-.07.45v3.2h-1Z" transform="translate(-28.56 -16.55)"/><path class="cls-2" d="M400,326.54H189.27a.5.5,0,0,1,0-1H400a.5.5,0,0,1,0,1Z" transform="translate(-28.56 -16.55)"/><path class="cls-2" d="M400,280.94H189.27a.5.5,0,0,1,0-1H400a.5.5,0,0,1,0,1Z" transform="translate(-28.56 -16.55)"/><circle class="cls-6" cx="332.28" cy="263.89" r="4.76"/><circle class="cls-6" cx="218.06" cy="309.92" r="4.76"/><path class="cls-7" d="M256.38,355.92h0a.5.5,0,0,1-.5-.5v-3.06a.5.5,0,0,1,.5-.5h0a.5.5,0,0,1,.5.5v3.06A.5.5,0,0,1,256.38,355.92Zm0-6.37h0a.5.5,0,0,1-.5-.5v-3.31a.5.5,0,0,1,.5-.5h0a.5.5,0,0,1,.5.5V349A.5.5,0,0,1,256.4,349.55Zm0-6.62h0a.5.5,0,0,1-.5-.5v-3.31a.5.5,0,0,1,.5-.5h0a.5.5,0,0,1,.5.5v3.31A.5.5,0,0,1,256.41,342.93Zm0-6.62h0a.5.5,0,0,1-.5-.5v-3.31a.5.5,0,0,1,.5-.5h0a.5.5,0,0,1,.5.5v3.31A.5.5,0,0,1,256.43,336.3Zm0-6.62h0a.5.5,0,0,1-.5-.5v-3.31a.5.5,0,0,1,.5-.5h0a.5.5,0,0,1,.5.5v3.31A.5.5,0,0,1,256.45,329.68Zm0-6.62h0a.5.5,0,0,1-.5-.5v-3.31a.5.5,0,0,1,.5-.5h0a.5.5,0,0,1,.5.5v3.31A.5.5,0,0,1,256.46,323.06Zm0-6.62h0a.5.5,0,0,1-.5-.5v-3.31a.5.5,0,0,1,.5-.5h0a.5.5,0,0,1,.5.5v3.31A.5.5,0,0,1,256.48,316.43Zm0-6.62h0a.5.5,0,0,1-.5-.5V306a.5.5,0,0,1,.5-.5h0a.5.5,0,0,1,.5.5v3.31A.5.5,0,0,1,256.5,309.81Zm0-6.62h0a.5.5,0,0,1-.5-.5v-3.31a.5.5,0,0,1,.5-.5h0a.5.5,0,0,1,.5.5v3.31A.5.5,0,0,1,256.51,303.19Zm0-6.62h0a.5.5,0,0,1-.5-.5v-3.31a.5.5,0,0,1,.5-.5h0a.5.5,0,0,1,.5.5v3.31A.5.5,0,0,1,256.53,296.56Zm0-6.62h0a.5.5,0,0,1-.5-.5v-3.31a.5.5,0,0,1,.5-.5h0a.5.5,0,0,1,.5.5v3.31A.5.5,0,0,1,256.54,289.94Zm0-6.62h0a.5.5,0,0,1-.5-.5V279.5a.5.5,0,0,1,.5-.5h0a.5.5,0,0,1,.5.5v3.31A.5.5,0,0,1,256.56,283.32Zm0-6.62h0a.5.5,0,0,1-.5-.5v-3.31a.5.5,0,0,1,.5-.5h0a.5.5,0,0,1,.5.5v3.31A.5.5,0,0,1,256.58,276.69Zm0-6.62h0a.5.5,0,0,1-.5-.5v-3.31a.5.5,0,0,1,.5-.5h0a.5.5,0,0,1,.5.5v3.31A.5.5,0,0,1,256.59,270.07Zm0-6.62h0a.5.5,0,0,1-.5-.5v-3.31a.5.5,0,0,1,.5-.5h0a.5.5,0,0,1,.5.5v3.31A.5.5,0,0,1,256.61,263.45Zm0-6.62h0a.5.5,0,0,1-.5-.5V253a.5.5,0,0,1,.5-.5h0a.5.5,0,0,1,.5.5v3.31A.5.5,0,0,1,256.63,256.82Z" transform="translate(-28.56 -16.55)"/><path class="cls-2" d="M328.31,354.82a.5.5,0,0,1-.5-.5V351a.5.5,0,0,1,1,0v3.31A.5.5,0,0,1,328.31,354.82Zm0-6.62a.5.5,0,0,1-.5-.5v-3.31a.5.5,0,0,1,1,0v3.31A.5.5,0,0,1,328.31,348.19Zm0-6.62a.5.5,0,0,1-.5-.5v-3.31a.5.5,0,0,1,1,0v3.31A.5.5,0,0,1,328.31,341.57Zm0-6.62a.5.5,0,0,1-.5-.5v-3.31a.5.5,0,0,1,1,0v3.31A.5.5,0,0,1,328.31,334.95Zm0-6.62a.5.5,0,0,1-.5-.5v-3.31a.5.5,0,0,1,1,0v3.31A.5.5,0,0,1,328.31,328.32Zm0-6.62a.5.5,0,0,1-.5-.5v-3.31a.5.5,0,0,1,1,0v3.31A.5.5,0,0,1,328.31,321.7Zm0-6.62a.5.5,0,0,1-.5-.5v-3.31a.5.5,0,0,1,1,0v3.31A.5.5,0,0,1,328.31,315.08Zm0-6.62a.5.5,0,0,1-.5-.5v-3.31a.5.5,0,0,1,1,0V308A.5.5,0,0,1,328.31,308.45Zm0-6.62a.5.5,0,0,1-.5-.5V298a.5.5,0,0,1,1,0v3.31A.5.5,0,0,1,328.31,301.83Zm0-6.62a.5.5,0,0,1-.5-.5v-3.31a.5.5,0,0,1,1,0v3.31A.5.5,0,0,1,328.31,295.21Zm0-6.62a.5.5,0,0,1-.5-.5v-3.31a.5.5,0,0,1,1,0v3.31A.5.5,0,0,1,328.31,288.58Zm0-6.62a.5.5,0,0,1-.5-.5v-3.31a.5.5,0,0,1,1,0v3.31A.5.5,0,0,1,328.31,282Zm0-6.62a.5.5,0,0,1-.5-.5v-3.31a.5.5,0,0,1,1,0v3.31A.5.5,0,0,1,328.31,275.34Z" transform="translate(-28.56 -16.55)"/><path class="cls-2" d="M328.31,263.45a.5.5,0,0,1-.5-.5v-3.31a.5.5,0,0,1,1,0v3.31A.5.5,0,0,1,328.31,263.45Zm0-6.62a.5.5,0,0,1-.5-.5V253a.5.5,0,0,1,1,0v3.31A.5.5,0,0,1,328.31,256.82Z" transform="translate(-28.56 -16.55)"/><path class="cls-2" d="M400.53,355.92H188.77V252.6l.4-.08c1.29-.25,189.41,0,210.86,0h.5Zm-210.76-1H399.53V253.51c-11.13,0-199.26-.23-209.76,0Z" transform="translate(-28.56 -16.55)"/><path class="cls-2" d="M320.71,362.06c0,2.08-.77,3.23-2.13,3.23-1.2,0-2-1.12-2-3.15s.89-3.19,2.13-3.19S320.71,360.11,320.71,362.06Zm-3.33.09c0,1.59.49,2.5,1.25,2.5s1.25-1,1.25-2.56-.39-2.5-1.24-2.5S317.38,360.49,317.38,362.16Z" transform="translate(-28.56 -16.55)"/><path class="cls-2" d="M321.54,364.7a.56.56,0,0,1,.57-.59.59.59,0,1,1-.57.59Z" transform="translate(-28.56 -16.55)"/><path class="cls-2" d="M325.23,359.84h0l-1.07.58-.16-.63,1.34-.72H326v6.13h-.8Z" transform="translate(-28.56 -16.55)"/><path class="cls-2" d="M332.34,362.06c0,2.08-.77,3.23-2.13,3.23-1.2,0-2-1.12-2-3.15s.89-3.19,2.13-3.19S332.34,360.11,332.34,362.06Zm-3.33.09c0,1.59.49,2.5,1.25,2.5s1.25-1,1.25-2.56-.39-2.5-1.24-2.5S329,360.49,329,362.16Z" transform="translate(-28.56 -16.55)"/><path class="cls-2" d="M335.87,360.79c0,1.29-.68,1.93-1.47,1.93s-1.42-.61-1.43-1.85.67-1.91,1.48-1.91S335.87,359.62,335.87,360.79Zm-2.24.06c0,.78.27,1.38.79,1.38s.79-.58.79-1.4-.22-1.37-.79-1.37S333.63,360.07,333.63,360.84Zm.72,4.45,3.6-6.34h.53l-3.6,6.34Zm5.52-2c0,1.29-.68,1.93-1.46,1.93s-1.42-.61-1.43-1.84.67-1.92,1.48-1.92S339.86,362.16,339.86,363.32Zm-2.24.06c0,.78.29,1.38.8,1.38s.79-.58.79-1.4S339,362,338.42,362,337.62,362.61,337.62,363.38Z" transform="translate(-28.56 -16.55)"/><path class="cls-2" d="M249.41,362.06c0,2.08-.77,3.23-2.13,3.23-1.2,0-2-1.12-2-3.15s.89-3.19,2.13-3.19S249.41,360.11,249.41,362.06Zm-3.33.09c0,1.59.49,2.5,1.25,2.5s1.25-1,1.25-2.56-.39-2.5-1.24-2.5S246.09,360.49,246.09,362.16Z" transform="translate(-28.56 -16.55)"/><path class="cls-2" d="M250.25,364.7a.56.56,0,0,1,.57-.59.59.59,0,1,1-.57.59Z" transform="translate(-28.56 -16.55)"/><path class="cls-2" d="M256.21,362.06c0,2.08-.77,3.23-2.13,3.23-1.2,0-2-1.12-2-3.15s.89-3.19,2.13-3.19S256.21,360.11,256.21,362.06Zm-3.33.09c0,1.59.49,2.5,1.25,2.5s1.25-1,1.25-2.56-.39-2.5-1.24-2.5S252.88,360.49,252.88,362.16Z" transform="translate(-28.56 -16.55)"/><path class="cls-2" d="M261,362.06c0,2.08-.77,3.23-2.13,3.23-1.2,0-2-1.12-2-3.15S257.77,359,259,359,261,360.11,261,362.06Zm-3.33.09c0,1.59.49,2.5,1.25,2.5s1.25-1,1.25-2.56-.39-2.5-1.24-2.5S257.72,360.49,257.72,362.16Z" transform="translate(-28.56 -16.55)"/><path class="cls-2" d="M264.58,360.79c0,1.29-.68,1.93-1.47,1.93s-1.42-.61-1.43-1.85.67-1.91,1.48-1.91S264.58,359.62,264.58,360.79Zm-2.24.06c0,.78.27,1.38.79,1.38s.79-.58.79-1.4-.22-1.37-.79-1.37S262.33,360.07,262.33,360.84Zm.72,4.45,3.6-6.34h.53l-3.6,6.34Zm5.52-2c0,1.29-.68,1.93-1.46,1.93s-1.42-.61-1.43-1.84.67-1.92,1.48-1.92S268.56,362.16,268.56,363.32Zm-2.24.06c0,.78.29,1.38.8,1.38s.79-.58.79-1.4-.22-1.37-.79-1.37S266.32,362.61,266.32,363.38Z" transform="translate(-28.56 -16.55)"/><path class="cls-2" d="M142.17,282.29a2.84,2.84,0,0,0,1.44.41c.82,0,1.3-.43,1.3-1.06s-.33-.91-1.17-1.23c-1-.36-1.64-.88-1.64-1.76a1.79,1.79,0,0,1,2-1.68,2.81,2.81,0,0,1,1.37.3l-.22.65a2.47,2.47,0,0,0-1.18-.29c-.85,0-1.17.51-1.17.93,0,.58.38.87,1.23,1.2,1,.4,1.58.91,1.58,1.82s-.71,1.79-2.17,1.79A3.2,3.2,0,0,1,142,283Z" transform="translate(-28.56 -16.55)"/><path class="cls-2" d="M146.79,280.27c0-.57,0-1,0-1.45h.73l0,.76h0a1.75,1.75,0,0,1,1.58-.87A2,2,0,0,1,151,281a2.11,2.11,0,0,1-2,2.39,1.56,1.56,0,0,1-1.37-.7h0v2.42h-.8Zm.8,1.19a1.82,1.82,0,0,0,0,.33,1.25,1.25,0,0,0,1.21.95c.86,0,1.35-.7,1.35-1.72s-.47-1.66-1.33-1.66a1.29,1.29,0,0,0-1.22,1,1.32,1.32,0,0,0-.05.33Z" transform="translate(-28.56 -16.55)"/><path class="cls-2" d="M154.49,283.27l-.06-.56h0a1.66,1.66,0,0,1-1.36.66,1.27,1.27,0,0,1-1.36-1.28c0-1.08,1-1.67,2.68-1.66v-.09a.92.92,0,0,0-1-1,2.21,2.21,0,0,0-1.16.33l-.18-.53a2.76,2.76,0,0,1,1.46-.4c1.36,0,1.69.93,1.69,1.82v1.67a6.22,6.22,0,0,0,.07,1.07Zm-.12-2.27c-.88,0-1.89.14-1.89,1a.72.72,0,0,0,.76.77,1.11,1.11,0,0,0,1.08-.75.82.82,0,0,0,0-.26Z" transform="translate(-28.56 -16.55)"/><path class="cls-2" d="M159.63,283.1a3,3,0,0,1-1.28.26,2.12,2.12,0,0,1-2.22-2.27,2.26,2.26,0,0,1,2.39-2.36,2.71,2.71,0,0,1,1.12.23l-.18.63a1.88,1.88,0,0,0-.94-.21,1.68,1.68,0,0,0,0,3.35,2.31,2.31,0,0,0,1-.22Z" transform="translate(-28.56 -16.55)"/><path class="cls-2" d="M161.47,277.57a.5.5,0,0,1-1,0,.49.49,0,0,1,.51-.51A.48.48,0,0,1,161.47,277.57Zm-.9,5.71v-4.45h.81v4.45Z" transform="translate(-28.56 -16.55)"/><path class="cls-2" d="M162.72,280c0-.46,0-.84,0-1.21h.72l0,.74h0a1.64,1.64,0,0,1,1.47-.84c.62,0,1.57.37,1.57,1.9v2.66h-.81V280.7c0-.72-.27-1.32-1-1.32a1.15,1.15,0,0,0-1.09.83,1.18,1.18,0,0,0-.05.38v2.68h-.81Z" transform="translate(-28.56 -16.55)"/><path class="cls-2" d="M171.66,278.82c0,.32,0,.68,0,1.22v2.58a2.56,2.56,0,0,1-.63,2,2.36,2.36,0,0,1-1.62.53,2.87,2.87,0,0,1-1.48-.37l.2-.62a2.52,2.52,0,0,0,1.31.35c.83,0,1.44-.43,1.44-1.55v-.5h0a1.59,1.59,0,0,1-1.42.75,2,2,0,0,1-1.9-2.17,2.14,2.14,0,0,1,2-2.37,1.48,1.48,0,0,1,1.39.77h0l0-.67Zm-.84,1.76a1.14,1.14,0,0,0,0-.37,1.17,1.17,0,0,0-1.13-.86c-.77,0-1.32.65-1.32,1.68,0,.88.44,1.6,1.32,1.6a1.18,1.18,0,0,0,1.12-.83,1.41,1.41,0,0,0,.06-.43Z" transform="translate(-28.56 -16.55)"/><path class="cls-2" d="M128.21,323.42a9.29,9.29,0,0,1,1.54-.12,2.55,2.55,0,0,1,1.74.51,1.67,1.67,0,0,1,.54,1.3,1.82,1.82,0,0,1-.48,1.32,2.57,2.57,0,0,1-1.9.68,2.75,2.75,0,0,1-.64-.06v2.48h-.8Zm.8,3a2.69,2.69,0,0,0,.66.06c1,0,1.55-.47,1.55-1.33s-.58-1.21-1.46-1.21a3.33,3.33,0,0,0-.75.06Z" transform="translate(-28.56 -16.55)"/><path class="cls-2" d="M132.93,326.49c0-.53,0-1,0-1.39h.71l0,.87h0a1.33,1.33,0,0,1,1.23-1,.92.92,0,0,1,.23,0v.76a1.27,1.27,0,0,0-.28,0,1.14,1.14,0,0,0-1.09,1,2.26,2.26,0,0,0,0,.38v2.37h-.8Z" transform="translate(-28.56 -16.55)"/><path class="cls-2" d="M139.88,327.29a2.18,2.18,0,0,1-2.22,2.37,2.12,2.12,0,0,1-2.13-2.29,2.17,2.17,0,0,1,2.21-2.37A2.11,2.11,0,0,1,139.88,327.29Zm-3.53,0c0,1,.56,1.71,1.35,1.71s1.35-.73,1.35-1.73c0-.75-.38-1.71-1.33-1.71S136.34,326.49,136.34,327.33Z" transform="translate(-28.56 -16.55)"/><path class="cls-2" d="M144.07,329.38a3,3,0,0,1-1.28.26,2.12,2.12,0,0,1-2.22-2.27A2.26,2.26,0,0,1,143,325a2.71,2.71,0,0,1,1.12.23l-.18.63a1.88,1.88,0,0,0-.94-.21,1.68,1.68,0,0,0,0,3.35,2.31,2.31,0,0,0,1-.22Z" transform="translate(-28.56 -16.55)"/><path class="cls-2" d="M145,326.49c0-.53,0-1,0-1.39h.71l0,.87h0a1.33,1.33,0,0,1,1.23-1,.92.92,0,0,1,.23,0v.76a1.27,1.27,0,0,0-.28,0,1.14,1.14,0,0,0-1.09,1,2.27,2.27,0,0,0,0,.38v2.37H145Z" transform="translate(-28.56 -16.55)"/><path class="cls-2" d="M150.44,329.55l-.06-.56h0a1.66,1.66,0,0,1-1.36.66,1.27,1.27,0,0,1-1.36-1.28c0-1.08,1-1.67,2.68-1.66v-.09a.92.92,0,0,0-1-1,2.22,2.22,0,0,0-1.16.33l-.18-.53a2.76,2.76,0,0,1,1.46-.4c1.36,0,1.69.93,1.69,1.82v1.67a6.22,6.22,0,0,0,.07,1.07Zm-.12-2.27c-.88,0-1.89.14-1.89,1a.72.72,0,0,0,.76.77,1.11,1.11,0,0,0,1.08-.75.82.82,0,0,0,0-.26Z" transform="translate(-28.56 -16.55)"/><path class="cls-2" d="M152.3,328.72a2.12,2.12,0,0,0,1.07.32c.59,0,.86-.29.86-.66s-.23-.6-.83-.82c-.8-.29-1.18-.73-1.18-1.26a1.37,1.37,0,0,1,1.54-1.31,2.22,2.22,0,0,1,1.09.28l-.2.59a1.73,1.73,0,0,0-.91-.26c-.48,0-.75.28-.75.61s.27.53.85.75c.77.29,1.17.68,1.17,1.34s-.61,1.33-1.67,1.33a2.54,2.54,0,0,1-1.25-.3Z" transform="translate(-28.56 -16.55)"/><path class="cls-2" d="M157,323.82v1.28h1.16v.62H157v2.4c0,.55.16.87.61.87a1.77,1.77,0,0,0,.47-.06l0,.61a2,2,0,0,1-.72.11,1.12,1.12,0,0,1-.87-.34,1.65,1.65,0,0,1-.31-1.16v-2.43h-.69v-.62h.69V324Z" transform="translate(-28.56 -16.55)"/><path class="cls-2" d="M160,323.84a.5.5,0,0,1-1,0,.49.49,0,0,1,.51-.51A.48.48,0,0,1,160,323.84Zm-.9,5.71V325.1h.81v4.45Z" transform="translate(-28.56 -16.55)"/><path class="cls-2" d="M161.24,326.3c0-.46,0-.84,0-1.21h.72l0,.74h0a1.64,1.64,0,0,1,1.47-.84c.62,0,1.57.37,1.57,1.9v2.66h-.81V327c0-.72-.27-1.32-1-1.32a1.15,1.15,0,0,0-1.09.83,1.18,1.18,0,0,0-.05.38v2.68h-.81Z" transform="translate(-28.56 -16.55)"/><path class="cls-2" d="M168.81,329.55l-.06-.56h0a1.66,1.66,0,0,1-1.36.66,1.27,1.27,0,0,1-1.36-1.28c0-1.08,1-1.67,2.68-1.66v-.09a.92.92,0,0,0-1-1,2.22,2.22,0,0,0-1.16.33l-.18-.53a2.76,2.76,0,0,1,1.46-.4c1.36,0,1.69.93,1.69,1.82v1.67a6.22,6.22,0,0,0,.07,1.07Zm-.12-2.27c-.88,0-1.89.14-1.89,1a.72.72,0,0,0,.76.77,1.11,1.11,0,0,0,1.08-.75.82.82,0,0,0,0-.26Z" transform="translate(-28.56 -16.55)"/><path class="cls-2" d="M171.72,323.82v1.28h1.16v.62h-1.16v2.4c0,.55.16.87.61.87a1.77,1.77,0,0,0,.47-.06l0,.61a2,2,0,0,1-.72.11,1.12,1.12,0,0,1-.87-.34,1.65,1.65,0,0,1-.31-1.16v-2.43h-.69v-.62h.69V324Z" transform="translate(-28.56 -16.55)"/><path class="cls-2" d="M174.69,323.84a.5.5,0,0,1-1,0,.49.49,0,0,1,.51-.51A.48.48,0,0,1,174.69,323.84Zm-.9,5.71V325.1h.81v4.45Z" transform="translate(-28.56 -16.55)"/><path class="cls-2" d="M180,327.29a2.18,2.18,0,0,1-2.22,2.37,2.12,2.12,0,0,1-2.13-2.29,2.17,2.17,0,0,1,2.21-2.37A2.11,2.11,0,0,1,180,327.29Zm-3.53,0c0,1,.56,1.71,1.35,1.71s1.35-.73,1.35-1.73c0-.75-.38-1.71-1.33-1.71S176.43,326.49,176.43,327.33Z" transform="translate(-28.56 -16.55)"/><path class="cls-2" d="M181,326.3c0-.46,0-.84,0-1.21h.72l0,.74h0a1.64,1.64,0,0,1,1.47-.84c.62,0,1.57.37,1.57,1.9v2.66H184V327c0-.72-.27-1.32-1-1.32a1.15,1.15,0,0,0-1.09.83,1.18,1.18,0,0,0-.05.38v2.68H181Z" transform="translate(-28.56 -16.55)"/><path class="cls-2" d="M234.1,376.8h-2.41V379h2.69v.67h-3.49v-6.2h3.35v.67h-2.55v2h2.41Z" transform="translate(-28.56 -16.55)"/><path class="cls-2" d="M235.28,378.88a2.13,2.13,0,0,0,1.07.32c.59,0,.86-.29.86-.66s-.23-.6-.83-.82c-.8-.29-1.18-.73-1.18-1.26a1.37,1.37,0,0,1,1.54-1.31,2.22,2.22,0,0,1,1.1.28l-.2.59a1.73,1.73,0,0,0-.91-.26c-.48,0-.75.28-.75.61s.27.53.85.75c.77.29,1.17.68,1.17,1.34s-.61,1.33-1.67,1.33a2.54,2.54,0,0,1-1.25-.3Z" transform="translate(-28.56 -16.55)"/><path class="cls-2" d="M240,374v1.28h1.16v.62H240v2.4c0,.55.16.87.61.87a1.77,1.77,0,0,0,.47-.06l0,.61a2,2,0,0,1-.72.11,1.12,1.12,0,0,1-.87-.34,1.65,1.65,0,0,1-.31-1.16v-2.43h-.69v-.62h.69v-1.07Z" transform="translate(-28.56 -16.55)"/><path class="cls-2" d="M243,374a.5.5,0,0,1-1,0,.49.49,0,0,1,.51-.51A.48.48,0,0,1,243,374Zm-.9,5.71v-4.45h.81v4.45Z" transform="translate(-28.56 -16.55)"/><path class="cls-2" d="M244.23,376.46c0-.46,0-.84,0-1.21h.71l0,.72h0a1.53,1.53,0,0,1,1.4-.82,1.31,1.31,0,0,1,1.26.89h0a1.84,1.84,0,0,1,.5-.58,1.52,1.52,0,0,1,1-.31c.59,0,1.46.39,1.46,1.93v2.62h-.79v-2.52c0-.86-.31-1.37-1-1.37a1,1,0,0,0-1,.74,1.33,1.33,0,0,0-.06.41v2.75H247V377c0-.71-.31-1.22-.93-1.22a1.11,1.11,0,0,0-1,.81,1.14,1.14,0,0,0-.06.4v2.69h-.79Z" transform="translate(-28.56 -16.55)"/><path class="cls-2" d="M254.36,379.71l-.06-.56h0a1.66,1.66,0,0,1-1.36.66,1.27,1.27,0,0,1-1.36-1.28c0-1.08,1-1.67,2.68-1.66v-.09a.92.92,0,0,0-1-1,2.21,2.21,0,0,0-1.16.33l-.18-.53a2.76,2.76,0,0,1,1.46-.4c1.36,0,1.69.93,1.69,1.82v1.67a6.32,6.32,0,0,0,.07,1.07Zm-.12-2.27c-.88,0-1.89.14-1.89,1a.72.72,0,0,0,.76.77,1.11,1.11,0,0,0,1.08-.75.8.8,0,0,0,0-.26Z" transform="translate(-28.56 -16.55)"/><path class="cls-2" d="M257.27,374v1.28h1.16v.62h-1.16v2.4c0,.55.16.87.61.87a1.77,1.77,0,0,0,.47-.06l0,.61a2,2,0,0,1-.72.11,1.12,1.12,0,0,1-.87-.34,1.65,1.65,0,0,1-.31-1.16v-2.43h-.69v-.62h.69v-1.07Z" transform="translate(-28.56 -16.55)"/><path class="cls-2" d="M259.73,377.63a1.43,1.43,0,0,0,1.53,1.55,2.92,2.92,0,0,0,1.23-.23l.14.58a3.63,3.63,0,0,1-1.48.28,2.07,2.07,0,0,1-2.19-2.25,2.16,2.16,0,0,1,2.09-2.4,1.89,1.89,0,0,1,1.84,2.1,3.38,3.38,0,0,1,0,.38Zm2.37-.58a1.15,1.15,0,0,0-1.12-1.32,1.34,1.34,0,0,0-1.24,1.32Z" transform="translate(-28.56 -16.55)"/><path class="cls-2" d="M267.73,373.18v5.38c0,.4,0,.85,0,1.15H267l0-.77h0a1.65,1.65,0,0,1-1.52.87,2,2,0,0,1-1.9-2.26,2.13,2.13,0,0,1,2-2.39,1.49,1.49,0,0,1,1.34.68h0v-2.66Zm-.81,3.89a1.35,1.35,0,0,0,0-.34,1.19,1.19,0,0,0-1.17-.94c-.84,0-1.33.74-1.33,1.72s.44,1.65,1.32,1.65a1.22,1.22,0,0,0,1.19-1,1.33,1.33,0,0,0,0-.35Z" transform="translate(-28.56 -16.55)"/><path class="cls-2" d="M274.26,376.8h-2.41V379h2.69v.67H271v-6.2h3.35v.67h-2.55v2h2.41Z" transform="translate(-28.56 -16.55)"/><path class="cls-2" d="M278.3,379.71v-3.84h-1.87v3.84h-.8v-3.84H275v-.62h.63v-.15a2.1,2.1,0,0,1,.5-1.52,1.53,1.53,0,0,1,1.12-.41,1.41,1.41,0,0,1,.63.16l-.17.6a1.18,1.18,0,0,0-.48-.11c-.63,0-.81.54-.81,1.24v.19h1.87V375a2.1,2.1,0,0,1,.53-1.55,1.54,1.54,0,0,1,1.08-.41,1.83,1.83,0,0,1,.69.13l-.1.63a1.26,1.26,0,0,0-.52-.1c-.68,0-.87.61-.87,1.29v.24h1.08v.62h-1.07v3.84Z" transform="translate(-28.56 -16.55)"/><path class="cls-2" d="M281.24,377.63a1.43,1.43,0,0,0,1.53,1.55,2.92,2.92,0,0,0,1.23-.23l.14.58a3.63,3.63,0,0,1-1.48.28,2.07,2.07,0,0,1-2.19-2.25,2.16,2.16,0,0,1,2.09-2.4,1.89,1.89,0,0,1,1.84,2.1,3.38,3.38,0,0,1,0,.38Zm2.37-.58a1.15,1.15,0,0,0-1.12-1.32,1.34,1.34,0,0,0-1.24,1.32Z" transform="translate(-28.56 -16.55)"/><path class="cls-2" d="M288.57,379.54a3,3,0,0,1-1.28.26,2.12,2.12,0,0,1-2.22-2.27,2.26,2.26,0,0,1,2.39-2.36,2.71,2.71,0,0,1,1.12.23l-.18.63a1.88,1.88,0,0,0-.94-.21,1.68,1.68,0,0,0,0,3.35,2.31,2.31,0,0,0,1-.22Z" transform="translate(-28.56 -16.55)"/><path class="cls-2" d="M290.61,374v1.28h1.16v.62h-1.16v2.4c0,.55.16.87.61.87a1.77,1.77,0,0,0,.47-.06l0,.61a2,2,0,0,1-.72.11,1.12,1.12,0,0,1-.87-.34,1.65,1.65,0,0,1-.31-1.16v-2.43h-.69v-.62h.69v-1.07Z" transform="translate(-28.56 -16.55)"/><path class="cls-2" d="M292.57,378.88a2.13,2.13,0,0,0,1.07.32c.59,0,.86-.29.86-.66s-.23-.6-.83-.82c-.8-.29-1.18-.73-1.18-1.26a1.37,1.37,0,0,1,1.54-1.31,2.22,2.22,0,0,1,1.1.28l-.2.59a1.73,1.73,0,0,0-.91-.26c-.48,0-.75.28-.75.61s.27.53.85.75c.77.29,1.17.68,1.17,1.34s-.61,1.33-1.67,1.33a2.54,2.54,0,0,1-1.25-.3Z" transform="translate(-28.56 -16.55)"/><path class="cls-2" d="M302.3,377.45a2.18,2.18,0,0,1-2.22,2.37,2.12,2.12,0,0,1-2.13-2.29,2.18,2.18,0,0,1,2.21-2.37A2.11,2.11,0,0,1,302.3,377.45Zm-3.53,0c0,1,.56,1.71,1.35,1.71s1.35-.73,1.35-1.73c0-.75-.38-1.71-1.34-1.71S298.77,376.65,298.77,377.49Z" transform="translate(-28.56 -16.55)"/><path class="cls-2" d="M303.32,376.46c0-.46,0-.84,0-1.21H304l0,.74h0a1.64,1.64,0,0,1,1.47-.84c.62,0,1.57.37,1.57,1.9v2.66h-.81v-2.57c0-.72-.27-1.32-1-1.32a1.19,1.19,0,0,0-1.14,1.21v2.68h-.81Z" transform="translate(-28.56 -16.55)"/><path class="cls-2" d="M313.61,376.8H311.2V379h2.69v.67H310.4v-6.2h3.35v.67H311.2v2h2.41Z" transform="translate(-28.56 -16.55)"/><path class="cls-2" d="M315.27,375.26l.63,1c.17.25.3.48.45.73h0c.15-.27.29-.5.44-.74l.63-.95h.88l-1.52,2.15,1.56,2.3h-.92l-.65-1c-.18-.26-.32-.51-.48-.77h0c-.15.27-.3.51-.47.77l-.64,1h-.89l1.58-2.27-1.51-2.18Z" transform="translate(-28.56 -16.55)"/><path class="cls-2" d="M321.62,379.71l-.06-.56h0a1.66,1.66,0,0,1-1.36.66,1.27,1.27,0,0,1-1.36-1.28c0-1.08,1-1.67,2.68-1.66v-.09a.92.92,0,0,0-1-1,2.21,2.21,0,0,0-1.16.33l-.18-.53a2.76,2.76,0,0,1,1.46-.4c1.36,0,1.69.93,1.69,1.82v1.67a6.12,6.12,0,0,0,.07,1.07Zm-.12-2.27c-.88,0-1.88.14-1.88,1a.72.72,0,0,0,.76.77,1.11,1.11,0,0,0,1.08-.75.85.85,0,0,0,0-.26Z" transform="translate(-28.56 -16.55)"/><path class="cls-2" d="M323.58,376.46c0-.46,0-.84,0-1.21h.71l0,.72h0a1.53,1.53,0,0,1,1.4-.82A1.32,1.32,0,0,1,327,376h0a1.85,1.85,0,0,1,.5-.58,1.51,1.51,0,0,1,1-.31c.59,0,1.46.39,1.46,1.93v2.62h-.79v-2.52c0-.86-.31-1.37-1-1.37a1,1,0,0,0-1,.74,1.33,1.33,0,0,0-.06.41v2.75h-.79V377c0-.71-.31-1.22-.93-1.22a1.1,1.1,0,0,0-1,.81,1.09,1.09,0,0,0-.06.4v2.69h-.79Z" transform="translate(-28.56 -16.55)"/><path class="cls-2" d="M333.12,378.73a2.83,2.83,0,0,0,1.44.41c.82,0,1.3-.43,1.3-1.06s-.33-.91-1.17-1.23c-1-.36-1.64-.88-1.64-1.76a1.79,1.79,0,0,1,2-1.68,2.82,2.82,0,0,1,1.37.3l-.22.65a2.47,2.47,0,0,0-1.18-.29c-.85,0-1.17.51-1.17.93,0,.58.38.87,1.23,1.2,1,.4,1.58.91,1.58,1.82s-.71,1.79-2.17,1.79a3.21,3.21,0,0,1-1.58-.4Z" transform="translate(-28.56 -16.55)"/><path class="cls-2" d="M341,379.54a3,3,0,0,1-1.28.26,2.12,2.12,0,0,1-2.22-2.27,2.26,2.26,0,0,1,2.39-2.36,2.7,2.7,0,0,1,1.12.23l-.18.63a1.87,1.87,0,0,0-.94-.21,1.68,1.68,0,0,0,0,3.35,2.31,2.31,0,0,0,1-.22Z" transform="translate(-28.56 -16.55)"/><path class="cls-2" d="M345.88,377.45a2.18,2.18,0,0,1-2.22,2.37,2.12,2.12,0,0,1-2.13-2.29,2.17,2.17,0,0,1,2.21-2.37A2.11,2.11,0,0,1,345.88,377.45Zm-3.53,0c0,1,.56,1.71,1.35,1.71s1.35-.73,1.35-1.73c0-.75-.38-1.71-1.33-1.71S342.35,376.65,342.35,377.49Z" transform="translate(-28.56 -16.55)"/><path class="cls-2" d="M346.9,376.65c0-.53,0-1,0-1.39h.71l0,.87h0a1.34,1.34,0,0,1,1.23-1,.92.92,0,0,1,.23,0v.76a1.26,1.26,0,0,0-.28,0,1.14,1.14,0,0,0-1.09,1,2.16,2.16,0,0,0,0,.38v2.37h-.8Z" transform="translate(-28.56 -16.55)"/><path class="cls-2" d="M350.27,377.63a1.43,1.43,0,0,0,1.53,1.55,2.93,2.93,0,0,0,1.23-.23l.14.58a3.62,3.62,0,0,1-1.48.28,2.07,2.07,0,0,1-2.19-2.25,2.16,2.16,0,0,1,2.09-2.4,1.89,1.89,0,0,1,1.84,2.1,3,3,0,0,1,0,.38Zm2.38-.58a1.15,1.15,0,0,0-1.12-1.32,1.34,1.34,0,0,0-1.24,1.32Z" transform="translate(-28.56 -16.55)"/><path class="cls-2" d="M354.31,378.88a2.13,2.13,0,0,0,1.07.32c.59,0,.86-.29.86-.66s-.23-.6-.83-.82c-.8-.29-1.18-.73-1.18-1.26a1.37,1.37,0,0,1,1.54-1.31,2.22,2.22,0,0,1,1.1.28l-.2.59a1.73,1.73,0,0,0-.91-.26c-.48,0-.75.28-.75.61s.27.53.85.75c.77.29,1.17.68,1.17,1.34s-.61,1.33-1.67,1.33a2.54,2.54,0,0,1-1.25-.3Z" transform="translate(-28.56 -16.55)"/><path class="cls-2" d="M204.48,313.41v.65H202v-.65Z" transform="translate(-28.56 -16.55)"/><path class="cls-2" d="M209.55,313.12c0,2.21-.82,3.43-2.26,3.43-1.27,0-2.13-1.19-2.15-3.34s.94-3.38,2.26-3.38S209.55,311.05,209.55,313.12Zm-3.53.1c0,1.69.52,2.65,1.32,2.65s1.33-1,1.33-2.71-.41-2.65-1.32-2.65S206,311.45,206,313.22Z" transform="translate(-28.56 -16.55)"/><path class="cls-2" d="M210.44,315.92a.59.59,0,0,1,.6-.63.63.63,0,0,1,0,1.26A.59.59,0,0,1,210.44,315.92Z" transform="translate(-28.56 -16.55)"/><path class="cls-2" d="M216.75,313.12c0,2.21-.82,3.43-2.26,3.43-1.27,0-2.13-1.19-2.15-3.34s.94-3.38,2.26-3.38S216.75,311.05,216.75,313.12Zm-3.53.1c0,1.69.52,2.65,1.32,2.65s1.33-1,1.33-2.71-.41-2.65-1.32-2.65S213.23,311.45,213.23,313.22Z" transform="translate(-28.56 -16.55)"/><path class="cls-2" d="M219.47,310.76h0l-1.13.61-.17-.67,1.42-.76h.75v6.5h-.85Z" transform="translate(-28.56 -16.55)"/><path class="cls-2" d="M224.6,310.76h0l-1.13.61-.17-.67,1.42-.76h.75v6.5h-.85Z" transform="translate(-28.56 -16.55)"/><path class="cls-2" d="M232.87,311.77c0,1.37-.72,2-1.56,2s-1.51-.65-1.52-2,.71-2,1.57-2S232.87,310.53,232.87,311.77Zm-2.38.06c0,.83.29,1.46.84,1.46s.84-.62.84-1.48-.23-1.45-.84-1.45S230.49,311,230.49,311.83Zm.76,4.72,3.82-6.72h.56l-3.82,6.72Zm5.85-2.09c0,1.37-.72,2-1.55,2s-1.51-.65-1.52-1.95.71-2,1.57-2S237.1,313.22,237.1,314.46Zm-2.38.06c0,.83.31,1.46.85,1.46s.84-.62.84-1.48-.23-1.45-.84-1.45S234.72,313.7,234.72,314.52Z" transform="translate(-28.56 -16.55)"/><path class="cls-2" d="M239.7,317.67a14.44,14.44,0,0,0,.6-2.39l1-.1a12.25,12.25,0,0,1-.95,2.43Z" transform="translate(-28.56 -16.55)"/><path class="cls-2" d="M244.45,313.18c0-.62,0-1.12,0-1.58h.79l0,.83h0a1.9,1.9,0,0,1,1.72-.94,2.19,2.19,0,0,1,2,2.46c0,1.74-1.06,2.6-2.2,2.6a1.7,1.7,0,0,1-1.49-.76h0v2.63h-.87Zm.87,1.29a2,2,0,0,0,0,.36,1.36,1.36,0,0,0,1.32,1c.93,0,1.47-.76,1.47-1.87s-.51-1.8-1.44-1.8a1.4,1.4,0,0,0-1.33,1.09,1.42,1.42,0,0,0-.06.36Z" transform="translate(-28.56 -16.55)"/><path class="cls-2" d="M249.81,313.07v-.6H255v.6Zm0,2v-.6H255v.6Z" transform="translate(-28.56 -16.55)"/><path class="cls-2" d="M262.26,313.12c0,2.21-.82,3.43-2.26,3.43-1.27,0-2.13-1.19-2.15-3.34s.94-3.38,2.26-3.38S262.26,311.05,262.26,313.12Zm-3.53.1c0,1.69.52,2.65,1.32,2.65s1.33-1,1.33-2.71-.41-2.65-1.32-2.65S258.73,311.45,258.73,313.22Z" transform="translate(-28.56 -16.55)"/><path class="cls-2" d="M263.14,315.92a.59.59,0,0,1,.6-.63.63.63,0,0,1,0,1.26A.59.59,0,0,1,263.14,315.92Z" transform="translate(-28.56 -16.55)"/><path class="cls-2" d="M265.06,314.79a1.85,1.85,0,0,1,1.29-1.74v0a1.61,1.61,0,0,1-1-1.46,1.82,1.82,0,0,1,2-1.73,1.68,1.68,0,0,1,1.89,1.6,1.65,1.65,0,0,1-1.07,1.52v0a1.8,1.8,0,0,1,1.31,1.68,2,2,0,0,1-2.21,1.89C265.88,316.55,265.06,315.74,265.06,314.79Zm3.5,0c0-.79-.55-1.17-1.43-1.42a1.41,1.41,0,0,0-1.17,1.34,1.2,1.2,0,0,0,1.3,1.24A1.18,1.18,0,0,0,268.56,314.75Zm-2.42-3.25c0,.65.49,1,1.24,1.2a1.28,1.28,0,0,0,1-1.18,1,1,0,0,0-1.1-1.06A1,1,0,0,0,266.14,311.5Z" transform="translate(-28.56 -16.55)"/><path class="cls-2" d="M274.15,310.68h-2.48l-.25,1.67a3.52,3.52,0,0,1,.53,0,2.75,2.75,0,0,1,1.4.35,1.85,1.85,0,0,1,.93,1.67,2.25,2.25,0,0,1-2.42,2.22,3.17,3.17,0,0,1-1.62-.4l.22-.67a2.92,2.92,0,0,0,1.39.36,1.43,1.43,0,0,0,1.54-1.41c0-.84-.57-1.44-1.87-1.44a6.65,6.65,0,0,0-.9.07l.42-3.12h3.11Z" transform="translate(-28.56 -16.55)"/><path class="cls-2" d="M277.31,310.76h0l-1.13.61-.17-.67,1.42-.76h.75v6.5h-.85Z" transform="translate(-28.56 -16.55)"/><path class="cls-2" d="M309.32,267.59c0,2.21-.82,3.43-2.26,3.43-1.27,0-2.13-1.19-2.15-3.34s.94-3.38,2.26-3.38S309.32,265.52,309.32,267.59Zm-3.53.1c0,1.69.52,2.65,1.32,2.65s1.33-1,1.33-2.71S308,265,307.12,265,305.79,265.92,305.79,267.69Z" transform="translate(-28.56 -16.55)"/><path class="cls-2" d="M310.2,270.39a.59.59,0,0,1,.6-.63.63.63,0,0,1,0,1.26A.59.59,0,0,1,310.2,270.39Z" transform="translate(-28.56 -16.55)"/><path class="cls-2" d="M314.11,265.23h0l-1.13.61-.17-.67,1.42-.76H315v6.5h-.85Z" transform="translate(-28.56 -16.55)"/><path class="cls-2" d="M317.54,269.9a2.94,2.94,0,0,0,1.44.41c1.13,0,1.48-.72,1.47-1.26,0-.91-.83-1.3-1.68-1.3h-.49v-.66h.49c.64,0,1.45-.33,1.45-1.1,0-.52-.33-1-1.14-1a2.38,2.38,0,0,0-1.3.43l-.23-.64a3.09,3.09,0,0,1,1.7-.5c1.28,0,1.86.76,1.86,1.55a1.61,1.61,0,0,1-1.2,1.53v0a1.69,1.69,0,0,1,1.45,1.67c0,1-.81,1.95-2.37,1.95a3.3,3.3,0,0,1-1.69-.44Z" transform="translate(-28.56 -16.55)"/><path class="cls-2" d="M326.17,265a3.19,3.19,0,0,0-.66,0,2.64,2.64,0,0,0-2.26,2.31h0a2,2,0,0,1,3.53,1.35,2.17,2.17,0,0,1-2.16,2.29c-1.39,0-2.3-1.08-2.3-2.77a4.09,4.09,0,0,1,1.1-2.93,3.54,3.54,0,0,1,2.08-1,4.36,4.36,0,0,1,.64,0Zm-.25,3.75a1.32,1.32,0,0,0-1.34-1.49,1.45,1.45,0,0,0-1.26.8.74.74,0,0,0-.1.39c0,1.07.51,1.86,1.43,1.86C325.41,270.34,325.92,269.71,325.92,268.78Z" transform="translate(-28.56 -16.55)"/><path class="cls-2" d="M332.64,266.24c0,1.37-.72,2-1.56,2s-1.51-.65-1.52-2,.71-2,1.57-2S332.64,265,332.64,266.24Zm-2.38.06c0,.83.29,1.46.84,1.46s.84-.62.84-1.48-.23-1.45-.84-1.45S330.26,265.48,330.26,266.3ZM331,271l3.82-6.72h.56L331.58,271Zm5.85-2.09c0,1.37-.72,2-1.55,2s-1.51-.65-1.52-1.95.71-2,1.57-2S336.87,267.69,336.87,268.93Zm-2.38.06c0,.83.31,1.46.85,1.46s.84-.62.84-1.48-.23-1.45-.84-1.45S334.49,268.17,334.49,269Z" transform="translate(-28.56 -16.55)"/><path class="cls-2" d="M339.46,272.14a14.44,14.44,0,0,0,.6-2.39l1-.1a12.25,12.25,0,0,1-.95,2.43Z" transform="translate(-28.56 -16.55)"/><path class="cls-2" d="M344.22,267.65c0-.62,0-1.12,0-1.58H345l0,.83h0a1.9,1.9,0,0,1,1.72-.94,2.19,2.19,0,0,1,2,2.46c0,1.74-1.06,2.6-2.2,2.6a1.7,1.7,0,0,1-1.49-.76h0v2.63h-.87Zm.87,1.29a2,2,0,0,0,0,.36,1.36,1.36,0,0,0,1.32,1c.93,0,1.47-.76,1.47-1.87s-.51-1.8-1.44-1.8a1.4,1.4,0,0,0-1.33,1.09,1.42,1.42,0,0,0-.06.36Z" transform="translate(-28.56 -16.55)"/><path class="cls-2" d="M349.58,267.54v-.6h5.16v.6Zm0,2v-.6h5.16v.6Z" transform="translate(-28.56 -16.55)"/><path class="cls-2" d="M362,267.59c0,2.21-.82,3.43-2.26,3.43-1.27,0-2.13-1.19-2.15-3.34s.94-3.38,2.26-3.38S362,265.52,362,267.59Zm-3.53.1c0,1.69.52,2.65,1.32,2.65s1.33-1,1.33-2.71-.41-2.65-1.32-2.65S358.5,265.92,358.5,267.69Z" transform="translate(-28.56 -16.55)"/><path class="cls-2" d="M362.91,270.39a.59.59,0,0,1,.6-.63.63.63,0,0,1,0,1.26A.59.59,0,0,1,362.91,270.39Z" transform="translate(-28.56 -16.55)"/><path class="cls-2" d="M369.23,267.59c0,2.21-.82,3.43-2.26,3.43-1.27,0-2.13-1.19-2.15-3.34s.94-3.38,2.26-3.38S369.23,265.52,369.23,267.59Zm-3.53.1c0,1.69.52,2.65,1.32,2.65s1.33-1,1.33-2.71S367.94,265,367,265,365.7,265.92,365.7,267.69Z" transform="translate(-28.56 -16.55)"/><path class="cls-2" d="M374.36,267.59c0,2.21-.82,3.43-2.26,3.43-1.27,0-2.13-1.19-2.15-3.34s.94-3.38,2.26-3.38S374.36,265.52,374.36,267.59Zm-3.53.1c0,1.69.52,2.65,1.32,2.65s1.33-1,1.33-2.71-.41-2.65-1.32-2.65S370.83,265.92,370.83,267.69Z" transform="translate(-28.56 -16.55)"/><path class="cls-2" d="M375.17,270.91v-.54l.69-.67c1.66-1.58,2.41-2.42,2.42-3.4A1.16,1.16,0,0,0,377,265a2.21,2.21,0,0,0-1.38.55l-.28-.62a2.85,2.85,0,0,1,1.84-.66,1.83,1.83,0,0,1,2,1.89c0,1.2-.87,2.17-2.24,3.49l-.52.48v0h2.92v.73Z" transform="translate(-28.56 -16.55)"/><path class="cls-2" d="M380.81,270.29a3.67,3.67,0,0,0,.71,0,2.46,2.46,0,0,0,1.36-.63,2.85,2.85,0,0,0,.86-1.73h0a1.9,1.9,0,0,1-1.53.7,1.88,1.88,0,0,1-1.92-2,2.23,2.23,0,0,1,2.22-2.31c1.33,0,2.15,1.08,2.15,2.74a4.11,4.11,0,0,1-1.12,3,3.25,3.25,0,0,1-1.89.87,4,4,0,0,1-.81,0Zm.32-3.74a1.25,1.25,0,0,0,1.25,1.38,1.45,1.45,0,0,0,1.28-.68.58.58,0,0,0,.08-.32c0-1.11-.41-2-1.33-2C381.66,265,381.13,265.63,381.13,266.55Z" transform="translate(-28.56 -16.55)"/><path class="cls-6" d="M394.93,281.94H320.25a1.5,1.5,0,1,1,0-3h74.69a1.5,1.5,0,0,1,0,3Z" transform="translate(-28.56 -16.55)"/><path class="cls-6" d="M294.77,327.54H201a1.5,1.5,0,0,1,0-3h93.78a1.5,1.5,0,0,1,0,3Z" transform="translate(-28.56 -16.55)"/></svg>