<svg id="Слой_2" data-name="Слой 2" xmlns="http://www.w3.org/2000/svg" viewBox="0 0 373.15 363.87"><defs><style>.cls-1{fill:#fe5e5e;}.cls-2{fill:#28282a;}.cls-3{fill:#bd0000;}.cls-4{fill:#eb1515;}.cls-5{fill:#fe3737;}.cls-6{fill:#f67770;}.cls-7{fill:#030303;}</style></defs><title>ACM LAK 2022_light_mode</title><circle class="cls-1" cx="163.15" cy="96.21" r="2.27" transform="translate(-47.57 41.89) rotate(-18.56)"/><circle class="cls-1" cx="99.12" cy="98.52" r="2.27" transform="translate(-51.64 21.62) rotate(-18.56)"/><circle class="cls-1" cx="96.17" cy="92.71" r="2.27" transform="translate(-49.94 20.39) rotate(-18.56)"/><circle class="cls-1" cx="98.77" cy="88.15" r="2.27" transform="translate(-48.36 20.97) rotate(-18.56)"/><circle class="cls-1" cx="95.12" cy="84.41" r="2.27" transform="translate(-47.36 19.62) rotate(-18.56)"/><circle class="cls-1" cx="102.84" cy="76.25" r="2.27" transform="translate(-44.36 21.65) rotate(-18.56)"/><circle class="cls-1" cx="98.05" cy="75.8" r="2.27" transform="translate(-44.46 20.1) rotate(-18.56)"/><circle class="cls-1" cx="120.93" cy="67.49" r="2.27" transform="translate(-40.63 26.95) rotate(-18.56)"/><circle class="cls-1" cx="150.31" cy="96.29" r="2.27" transform="translate(-48.27 37.8) rotate(-18.56)"/><circle class="cls-1" cx="151.33" cy="86.68" r="2.27" transform="translate(-45.15 37.63) rotate(-18.56)"/><circle class="cls-1" cx="156.24" cy="93.84" r="2.27" transform="translate(-47.18 39.56) rotate(-18.56)"/><circle class="cls-1" cx="150.89" cy="78.67" r="2.27" transform="translate(-42.63 37.07) rotate(-18.56)"/><circle class="cls-1" cx="138.96" cy="104.2" r="2.27" transform="translate(-51.37 34.6) rotate(-18.56)"/><circle class="cls-1" cx="111.32" cy="104.9" r="2.27" transform="matrix(0.95, -0.32, 0.32, 0.95, -53.04, 25.84)"/><circle class="cls-1" cx="95.9" cy="102.01" r="2.27" transform="translate(-52.92 20.78) rotate(-18.56)"/><circle class="cls-1" cx="90.87" cy="97.21" r="2.27" transform="translate(-51.65 18.93) rotate(-18.56)"/><circle class="cls-1" cx="87.26" cy="84.66" r="2.27" transform="translate(-47.84 17.13) rotate(-18.56)"/><circle class="cls-1" cx="91.84" cy="73.94" r="2.27" transform="translate(-44.19 18.03) rotate(-18.56)"/><circle class="cls-1" cx="154.54" cy="67.23" r="2.27" transform="translate(-38.8 37.64) rotate(-18.56)"/><circle class="cls-1" cx="149.14" cy="68.21" r="2.27" transform="translate(-39.39 35.97) rotate(-18.56)"/><circle class="cls-1" cx="130.44" cy="92.4" r="2.27" transform="translate(-48.06 31.28) rotate(-18.56)"/><circle class="cls-1" cx="117.47" cy="97.37" r="2.27" transform="translate(-50.32 27.41) rotate(-18.56)"/><circle class="cls-1" cx="119.79" cy="87.8" r="2.27" transform="translate(-47.15 27.65) rotate(-18.56)"/><circle class="cls-1" cx="131.79" cy="84.87" r="2.27" transform="translate(-45.59 31.32) rotate(-18.56)"/><circle class="cls-1" cx="112.81" cy="98.93" r="2.27" transform="translate(-51.06 26) rotate(-18.56)"/><circle class="cls-1" cx="106.03" cy="99.76" r="2.27" transform="translate(-51.67 23.89) rotate(-18.56)"/><circle class="cls-1" cx="105.15" cy="90.26" r="2.27" transform="translate(-48.7 23.12) rotate(-18.56)"/><circle class="cls-1" cx="143.63" cy="90.26" r="2.27" transform="translate(-46.69 35.36) rotate(-18.56)"/><circle class="cls-1" cx="147.11" cy="97.37" r="2.27" transform="translate(-48.77 36.84) rotate(-18.56)"/><circle class="cls-1" cx="139.65" cy="81.51" r="2.27" transform="translate(-44.11 33.64) rotate(-18.56)"/><circle class="cls-1" cx="148.14" cy="90.84" r="2.27" transform="translate(-46.64 36.83) rotate(-18.56)"/><circle class="cls-1" cx="132.32" cy="97.44" r="2.27" transform="translate(-49.57 32.14) rotate(-18.56)"/><circle class="cls-1" cx="138.49" cy="95.37" r="2.27" transform="matrix(0.95, -0.32, 0.32, 0.95, -48.59, 33.99)"/><path class="cls-2" d="M127.36,210.29a1,1,0,0,1-1-1V205.5a1,1,0,1,1,2,0v3.79A1,1,0,0,1,127.36,210.29Zm0-7.58a1,1,0,0,1-1-1v-3.79a1,1,0,1,1,2,0v3.79A1,1,0,0,1,127.36,202.71Zm0-7.58a1,1,0,0,1-1-1v-3.79a1,1,0,1,1,2,0v3.79A1,1,0,0,1,127.36,195.14Zm0-7.58a1,1,0,0,1-1-1v-3.79a1,1,0,1,1,2,0v3.79A1,1,0,0,1,127.36,187.56Zm0-7.58a1,1,0,0,1-1-1v-3.79a1,1,0,1,1,2,0V179A1,1,0,0,1,127.36,180Zm0-7.58a1,1,0,0,1-1-1v-3.79a1,1,0,1,1,2,0v3.79A1,1,0,0,1,127.36,172.4Zm0-7.58a1,1,0,0,1-1-1V160a1,1,0,1,1,2,0v3.79A1,1,0,0,1,127.36,164.82Zm0-7.58a1,1,0,0,1-1-1v-3.79a1,1,0,1,1,2,0v3.79A1,1,0,0,1,127.36,157.25Zm0-7.58a1,1,0,0,1-1-1v-3.79a1,1,0,1,1,2,0v3.79A1,1,0,0,1,127.36,149.67Zm0-7.58a1,1,0,0,1-1-1V137.3a1,1,0,1,1,2,0v3.79A1,1,0,0,1,127.36,142.09Zm0-7.58a1,1,0,0,1-1-1v-3.79a1,1,0,1,1,2,0v3.79A1,1,0,0,1,127.36,134.51Zm0-7.58a1,1,0,0,1-1-1v-3.79a1,1,0,1,1,2,0v3.79A1,1,0,0,1,127.36,126.93Zm0-7.58a1,1,0,0,1-1-1v-3.79a1,1,0,1,1,2,0v3.79A1,1,0,0,1,127.36,119.35Zm0-7.58a1,1,0,0,1-1-1V107a1,1,0,1,1,2,0v3.79A1,1,0,0,1,127.36,111.78Zm0-7.58a1,1,0,0,1-1-1V99.41a1,1,0,1,1,2,0v3.79A1,1,0,0,1,127.36,104.2Zm0-7.58a1,1,0,0,1-1-1V91.83a1,1,0,1,1,2,0v3.79A1,1,0,0,1,127.36,96.62Zm0-7.58a1,1,0,0,1-1-1V84.25a1,1,0,1,1,2,0V88A1,1,0,0,1,127.36,89Zm0-7.58a1,1,0,0,1-1-1V76.67a1,1,0,1,1,2,0v3.79A1,1,0,0,1,127.36,81.46Zm0-7.58a1,1,0,0,1-1-1V69.1a1,1,0,1,1,2,0v3.79A1,1,0,0,1,127.36,73.89Zm0-7.58a1,1,0,0,1-1-1V61.52a1,1,0,1,1,2,0v3.79A1,1,0,0,1,127.36,66.31Zm0-7.58a1,1,0,0,1-1-1V53.94a1,1,0,1,1,2,0v3.79A1,1,0,0,1,127.36,58.73Zm0-7.58a1,1,0,0,1-1-1V46.36a1,1,0,1,1,2,0v3.79A1,1,0,0,1,127.36,51.15Zm0-7.58a1,1,0,0,1-1-1V38.78a1,1,0,1,1,2,0v3.79A1,1,0,0,1,127.36,43.57Zm0-7.58a1,1,0,0,1-1-1V31.21a1,1,0,1,1,2,0V35A1,1,0,0,1,127.36,36Zm0-7.58a1,1,0,0,1-1-1V23.63a1,1,0,1,1,2,0v3.79A1,1,0,0,1,127.36,28.42Zm0-7.58a1,1,0,0,1-1-1V16a1,1,0,1,1,2,0v3.79A1,1,0,0,1,127.36,20.84Z" transform="translate(-25.43 -15.05)"/><path class="cls-2" d="M222.48,106.34h-.27a1,1,0,0,1,0-2h.27a1,1,0,0,1,0,2Zm-4.06,0h-3.79a1,1,0,0,1,0-2h3.79a1,1,0,0,1,0,2Zm-7.58,0h-3.79a1,1,0,0,1,0-2h3.79a1,1,0,0,1,0,2Zm-7.58,0h-3.79a1,1,0,0,1,0-2h3.79a1,1,0,0,1,0,2Zm-7.58,0H191.9a1,1,0,0,1,0-2h3.79a1,1,0,0,1,0,2Zm-7.58,0h-3.79a1,1,0,0,1,0-2h3.79a1,1,0,0,1,0,2Zm-7.58,0h-3.79a1,1,0,0,1,0-2h3.79a1,1,0,0,1,0,2Zm-7.58,0h-3.79a1,1,0,0,1,0-2H173a1,1,0,0,1,0,2Zm-7.58,0h-3.79a1,1,0,0,1,0-2h3.79a1,1,0,0,1,0,2Zm-7.58,0H154a1,1,0,0,1,0-2h3.79a1,1,0,0,1,0,2Zm-7.58,0h-3.79a1,1,0,0,1,0-2h3.79a1,1,0,0,1,0,2Zm-7.58,0h-3.79a1,1,0,0,1,0-2h3.79a1,1,0,0,1,0,2Zm-7.58,0h-3.79a1,1,0,0,1,0-2h3.79a1,1,0,0,1,0,2Zm-7.58,0h-3.79a1,1,0,0,1,0-2h3.79a1,1,0,0,1,0,2Zm-7.58,0h-3.79a1,1,0,0,1,0-2h3.79a1,1,0,0,1,0,2Zm-7.58,0h-3.79a1,1,0,0,1,0-2h3.79a1,1,0,0,1,0,2Zm-7.58,0H101a1,1,0,1,1,0-2h3.79a1,1,0,0,1,0,2Zm-7.58,0H93.38a1,1,0,0,1,0-2h3.79a1,1,0,0,1,0,2Zm-7.58,0H85.8a1,1,0,0,1,0-2h3.79a1,1,0,0,1,0,2Zm-7.58,0H78.23a1,1,0,0,1,0-2H82a1,1,0,0,1,0,2Zm-7.58,0H70.65a1,1,0,0,1,0-2h3.79a1,1,0,0,1,0,2Zm-7.58,0H63.07a1,1,0,0,1,0-2h3.79a1,1,0,0,1,0,2Zm-7.58,0H55.49a1,1,0,0,1,0-2h3.79a1,1,0,1,1,0,2Zm-7.58,0H47.91a1,1,0,0,1,0-2H51.7a1,1,0,1,1,0,2Zm-7.58,0H40.33a1,1,0,0,1,0-2h3.79a1,1,0,1,1,0,2Z" transform="translate(-25.43 -15.05)"/><circle class="cls-3" cx="64.74" cy="16.24" r="2.59"/><circle class="cls-4" cx="72.09" cy="23.98" r="2.59"/><circle class="cls-4" cx="84.74" cy="16.24" r="2.59"/><circle class="cls-4" cx="94.63" cy="16.67" r="2.59"/><circle class="cls-4" cx="101.93" cy="13.65" r="2.59"/><circle class="cls-4" cx="112.09" cy="18.08" r="2.59"/><circle class="cls-4" cx="86.68" cy="23.27" r="2.59"/><circle class="cls-4" cx="74.04" cy="29.75" r="2.59"/><circle class="cls-4" cx="79.87" cy="25.86" r="2.59"/><circle class="cls-4" cx="92.03" cy="32.35" r="2.59"/><circle class="cls-4" cx="101.17" cy="31.44" r="2.59"/><circle class="cls-4" cx="114.68" cy="37.54" r="2.59"/><circle class="cls-4" cx="125.06" cy="34.04" r="2.59"/><circle class="cls-4" cx="124.3" cy="27.16" r="2.59"/><circle class="cls-4" cx="132.3" cy="36.63" r="2.59"/><circle class="cls-4" cx="139.98" cy="36.78" r="2.59"/><circle class="cls-4" cx="107.01" cy="37.54" r="2.59"/><circle class="cls-4" cx="108.95" cy="41.97" r="2.59"/><circle class="cls-4" cx="103.76" cy="46.19" r="2.59"/><circle class="cls-4" cx="97.22" cy="44.95" r="2.59"/><circle class="cls-4" cx="93.66" cy="40.13" r="2.59"/><circle class="cls-4" cx="91.06" cy="47.55" r="2.59"/><circle class="cls-4" cx="78.52" cy="47.55" r="2.59"/><circle class="cls-4" cx="73.33" cy="41.82" r="2.59"/><circle class="cls-4" cx="72.09" cy="50.14" r="2.59"/><circle class="cls-4" cx="83.22" cy="58.92" r="2.59"/><circle class="cls-4" cx="91.55" cy="54.78" r="2.59"/><circle class="cls-4" cx="94.63" cy="64.11" r="2.59"/><circle class="cls-4" cx="88.47" cy="65.41" r="2.59"/><circle class="cls-4" cx="107.01" cy="57.37" r="2.59"/><circle class="cls-3" cx="87.33" cy="39.38" r="2.59"/><circle class="cls-3" cx="84.74" cy="50.14" r="2.59"/><circle class="cls-3" cx="114.68" cy="31.44" r="2.59"/><circle class="cls-3" cx="111.11" cy="23.98" r="2.59"/><circle class="cls-3" cx="106.36" cy="31.44" r="2.59"/><circle class="cls-3" cx="98.14" cy="37.28" r="2.59"/><circle class="cls-3" cx="117.28" cy="60.74" r="2.59"/><circle class="cls-3" cx="106.36" cy="73.2" r="2.59"/><circle class="cls-3" cx="106.36" cy="104.56" r="2.59"/><circle class="cls-3" cx="141.38" cy="107.15" r="2.59"/><circle class="cls-3" cx="136.84" cy="65.93" r="2.59"/><circle class="cls-3" cx="174.03" cy="83.65" r="2.59"/><circle class="cls-3" cx="146.57" cy="60.74" r="2.59"/><circle class="cls-3" cx="130.25" cy="23.98" r="2.59"/><circle class="cls-3" cx="77.28" cy="65.93" r="2.59"/><circle class="cls-3" cx="63.98" cy="78.47" r="2.59"/><circle class="cls-3" cx="82.14" cy="78.47" r="2.59"/><circle class="cls-5" cx="77.28" cy="182.18" r="2.27"/><circle class="cls-5" cx="64.23" cy="174.43" r="2.27"/><circle class="cls-5" cx="75.76" cy="166.36" r="2.27"/><circle class="cls-5" cx="74.32" cy="161.82" r="2.27"/><circle class="cls-5" cx="59.69" cy="155.76" r="2.27"/><circle class="cls-5" cx="51.48" cy="150.43" r="2.27"/><circle class="cls-5" cx="50.61" cy="155.76" r="2.27"/><circle class="cls-5" cx="49.21" cy="161.82" r="2.27"/><circle class="cls-5" cx="40.52" cy="158.79" r="2.27"/><circle class="cls-5" cx="40.52" cy="172.16" r="2.27"/><circle class="cls-5" cx="90.54" cy="157.28" r="2.27"/><circle class="cls-5" cx="88.81" cy="152.7" r="2.27"/><circle class="cls-5" cx="80.31" cy="145.85" r="2.27"/><circle class="cls-5" cx="89.75" cy="134.7" r="2.27"/><circle class="cls-5" cx="95.1" cy="141.7" r="2.27"/><circle class="cls-5" cx="98.55" cy="137.67" r="2.27"/><circle class="cls-5" cx="97.37" cy="128.59" r="2.27"/><circle class="cls-5" cx="92.02" cy="127.21" r="2.27"/><circle class="cls-5" cx="85.21" cy="123.53" r="2.27"/><circle class="cls-5" cx="99.64" cy="121.78" r="2.27"/><circle class="cls-5" cx="98.2" cy="116.61" r="2.27"/><circle class="cls-5" cx="76.59" cy="140.85" r="2.27"/><circle class="cls-5" cx="72.74" cy="136.97" r="2.27"/><circle class="cls-5" cx="63.05" cy="143.58" r="2.27"/><circle class="cls-5" cx="45.06" cy="135.4" r="2.27"/><circle class="cls-5" cx="39.34" cy="138.57" r="2.27"/><circle class="cls-5" cx="97.37" cy="148.12" r="2.27"/><circle class="cls-5" cx="105.01" cy="148.84" r="2.27"/><circle class="cls-5" cx="102.74" cy="154.25" r="2.27"/><circle class="cls-5" cx="100.47" cy="161.82" r="2.27"/><circle class="cls-5" cx="102.74" cy="167.62" r="2.27"/><circle class="cls-5" cx="111.53" cy="168.63" r="2.27"/><circle class="cls-5" cx="136.96" cy="198.24" r="2.27" transform="translate(-124 234.04) rotate(-67.54)"/><circle class="cls-5" cx="151.93" cy="201.77" r="2.27" transform="translate(-118 250.05) rotate(-67.54)"/><circle class="cls-5" cx="151.15" cy="189.48" r="2.27" transform="translate(-107.13 241.73) rotate(-67.54)"/><circle class="cls-5" cx="178.21" cy="150.45" r="2.27" transform="translate(-54.34 242.63) rotate(-67.54)"/><circle class="cls-5" cx="179.23" cy="159.32" r="2.27"/><circle class="cls-5" cx="173.29" cy="147.37" r="2.27"/><circle class="cls-5" cx="174.88" cy="132.64" r="2.27"/><circle class="cls-5" cx="160.65" cy="143.12" r="2.27"/><circle class="cls-5" cx="196.13" cy="177.9" r="2.27" transform="translate(-84.44 233.72) rotate(-57.73)"/><circle class="cls-5" cx="171.95" cy="192.61" r="2.27" transform="translate(-108.14 220.13) rotate(-57.73)"/><circle class="cls-5" cx="161.64" cy="207.06" r="2.27" transform="translate(-125.17 218.15) rotate(-57.73)"/><circle class="cls-5" cx="170.6" cy="176.87" r="2.27" transform="translate(-95.46 211.65) rotate(-57.73)"/><circle class="cls-5" cx="140.88" cy="192.03" r="2.27" transform="matrix(0.53, -0.85, 0.85, 0.53, -122.14, 193.59)"/><circle class="cls-5" cx="181.69" cy="169.62" r="2.27" transform="translate(-84.17 217.65) rotate(-57.73)"/><circle class="cls-5" cx="170.6" cy="166.51" r="2.27" transform="translate(-86.71 206.83) rotate(-57.73)"/><circle class="cls-5" cx="160.44" cy="161.05" r="2.27" transform="matrix(0.53, -0.85, 0.85, 0.53, -86.83, 195.69)"/><circle class="cls-5" cx="166.12" cy="157.46" r="2.27" transform="matrix(0.53, -0.85, 0.85, 0.53, -81.14, 198.82)"/><circle class="cls-5" cx="132.92" cy="152.02" r="2.27" transform="translate(-92.02 168.21) rotate(-57.73)"/><circle class="cls-5" cx="131.5" cy="158.52" r="2.27" transform="matrix(0.53, -0.85, 0.85, 0.53, -98.18, 170.04)"/><circle class="cls-5" cx="140.88" cy="153.97" r="2.27" transform="matrix(0.53, -0.85, 0.85, 0.53, -89.96, 175.85)"/><circle class="cls-5" cx="147.53" cy="147.69" r="2.27" transform="translate(-81.54 178.54) rotate(-57.73)"/><circle class="cls-5" cx="142.25" cy="145.75" r="2.27" transform="matrix(0.53, -0.85, 0.85, 0.53, -82.37, 173.17)"/><circle class="cls-5" cx="136.96" cy="141.73" r="2.27" transform="translate(-81.43 166.83) rotate(-57.73)"/><circle class="cls-5" cx="143.63" cy="138.58" r="2.27" transform="matrix(0.53, -0.85, 0.85, 0.53, -75.66, 171)"/><circle class="cls-5" cx="144.82" cy="133.18" r="2.27" transform="matrix(0.53, -0.85, 0.85, 0.53, -70.54, 169.48)"/><circle class="cls-5" cx="154.01" cy="133.18" r="2.27" transform="matrix(0.53, -0.85, 0.85, 0.53, -66.25, 177.26)"/><circle class="cls-5" cx="157.77" cy="127.32" r="2.27" transform="translate(-59.55 177.7) rotate(-57.73)"/><circle class="cls-5" cx="137.71" cy="136.83" r="2.27" transform="translate(-76.94 165.18) rotate(-57.73)"/><circle class="cls-5" cx="131.4" cy="132.85" r="2.27" transform="matrix(0.53, -0.85, 0.85, 0.53, -76.52, 157.98)"/><circle class="cls-5" cx="136.96" cy="129.39" r="2.27" transform="translate(-71 161.08) rotate(-57.73)"/><circle class="cls-5" cx="140.88" cy="123.19" r="2.27" transform="matrix(0.53, -0.85, 0.85, 0.53, -63.93, 161.5)"/><circle class="cls-5" cx="146.45" cy="126.7" r="2.27" transform="translate(-72.56 117.21) rotate(-42.51)"/><circle class="cls-5" cx="132.1" cy="137.01" r="2.27" transform="translate(-37.94 245.7) rotate(-86.6)"/><circle class="cls-5" cx="147.49" cy="142.35" r="2.27" transform="matrix(0.53, -0.85, 0.85, 0.53, -77.05, 176.02)"/><circle class="cls-5" cx="149.39" cy="137.76" r="2.27" transform="translate(-76.99 153) rotate(-51.25)"/><circle class="cls-5" cx="163.44" cy="145.24" r="2.27" transform="translate(-77.56 166.76) rotate(-51.25)"/><circle class="cls-5" cx="165.2" cy="182.27" r="2.27" transform="matrix(0.53, -0.85, 0.85, 0.53, -102.55, 209.6)"/><circle class="cls-5" cx="162.23" cy="176.87" r="2.27" transform="translate(-99.37 204.57) rotate(-57.73)"/><circle class="cls-5" cx="156.45" cy="179.43" r="2.27" transform="matrix(0.53, -0.85, 0.85, 0.53, -104.22, 200.88)"/><circle class="cls-5" cx="157.77" cy="173.08" r="2.27" transform="translate(-98.24 199.04) rotate(-57.73)"/><circle class="cls-5" cx="142.97" cy="161.05" r="2.27" transform="matrix(0.53, -0.85, 0.85, 0.53, -94.97, 180.92)"/><circle class="cls-5" cx="147.49" cy="158.15" r="2.27" transform="matrix(0.53, -0.85, 0.85, 0.53, -90.41, 183.38)"/><circle class="cls-5" cx="155.03" cy="150.45" r="2.27" transform="matrix(0.53, -0.85, 0.85, 0.53, -80.39, 186.17)"/><circle class="cls-5" cx="156.45" cy="142.68" r="2.27" transform="translate(-73.15 183.75) rotate(-57.73)"/><circle class="cls-5" cx="161.26" cy="142.35" r="2.27" transform="matrix(0.53, -0.85, 0.85, 0.53, -70.63, 187.66)"/><circle class="cls-5" cx="158.52" cy="137.01" r="2.27" transform="matrix(0.53, -0.85, 0.85, 0.53, -67.39, 182.86)"/><circle class="cls-5" cx="163.44" cy="136.4" r="2.27" transform="matrix(0.53, -0.85, 0.85, 0.53, -64.59, 186.74)"/><circle class="cls-5" cx="171.95" cy="137.76" r="2.27" transform="translate(-72.77 101.32) rotate(-33.13)"/><circle class="cls-5" cx="166.12" cy="132.89" r="2.27" transform="matrix(0.53, -0.85, 0.85, 0.53, -60.36, 187.36)"/><circle class="cls-5" cx="162.23" cy="130.13" r="2.27" transform="matrix(0.53, -0.85, 0.85, 0.53, -59.85, 182.78)"/><circle class="cls-5" cx="154.28" cy="122.43" r="2.27" transform="translate(-57.04 172.48) rotate(-57.73)"/><circle class="cls-5" cx="149.32" cy="124.07" r="2.27" transform="translate(-60.74 169.05) rotate(-57.73)"/><circle class="cls-5" cx="147.29" cy="119.61" r="2.27" transform="translate(-57.91 165.25) rotate(-57.73)"/><circle class="cls-5" cx="155.7" cy="118.23" r="2.27" transform="matrix(0.53, -0.85, 0.85, 0.53, -52.83, 171.71)"/><circle class="cls-5" cx="160.44" cy="115.19" r="2.27" transform="matrix(0.53, -0.85, 0.85, 0.53, -48.05, 174.31)"/><circle class="cls-5" cx="163.44" cy="111.13" r="2.27" transform="matrix(0.53, -0.85, 0.85, 0.53, -43.21, 174.95)"/><circle class="cls-5" cx="165.2" cy="116.96" r="2.27" transform="translate(-0.62 247.74) rotate(-81.39)"/><circle class="cls-5" cx="177.29" cy="116.96" r="2.27" transform="translate(9.66 259.69) rotate(-81.39)"/><circle class="cls-5" cx="174.22" cy="113.31" r="2.27" transform="translate(10.66 253.55) rotate(-81.39)"/><circle class="cls-5" cx="180.66" cy="109.86" r="2.27" transform="translate(19.55 256.98) rotate(-81.39)"/><circle class="cls-5" cx="150.89" cy="115.19" r="2.27" transform="translate(-11.03 232.08) rotate(-81.39)"/><circle class="cls-5" cx="154.28" cy="111.31" r="2.27" transform="translate(-4.31 232.13) rotate(-81.39)"/><circle class="cls-5" cx="147.22" cy="112.34" r="2.27" transform="translate(-11.34 226.02) rotate(-81.39)"/><circle class="cls-5" cx="140.88" cy="111.13" r="2.27" transform="translate(-15.53 218.73) rotate(-81.39)"/><circle class="cls-5" cx="142.25" cy="116.18" r="2.27" transform="translate(-19.36 224.38) rotate(-81.39)"/><circle class="cls-5" cx="137.99" cy="119.38" r="2.27" transform="translate(-26.14 222.89) rotate(-81.39)"/><circle class="cls-5" cx="136.37" cy="114.89" r="2.27" transform="translate(-23.08 217.47) rotate(-81.39)"/><circle class="cls-5" cx="130.44" cy="113.99" r="2.27" transform="matrix(0.15, -0.99, 0.99, 0.15, -27.24, 210.84)"/><circle class="cls-5" cx="134.69" cy="110.06" r="2.27" transform="translate(-19.73 211.7) rotate(-81.39)"/><circle class="cls-5" cx="143.63" cy="112.34" r="2.27" transform="translate(-14.39 222.48) rotate(-81.39)"/><circle class="cls-5" cx="122.8" cy="127.32" r="2.27" transform="translate(-46.9 214.62) rotate(-81.39)"/><circle class="cls-5" cx="115.97" cy="132.85" r="2.27" transform="translate(-58.18 212.57) rotate(-81.39)"/><circle class="cls-5" cx="110.64" cy="135.41" r="2.27" transform="translate(-65.25 209.47) rotate(-81.39)"/><circle class="cls-5" cx="110.64" cy="129.39" r="2.27" transform="translate(-59.29 204.36) rotate(-81.39)"/><circle class="cls-5" cx="115.27" cy="127.32" r="2.27" transform="translate(-40.13 -0.01) rotate(-7.02)"/><circle class="cls-5" cx="112.58" cy="124.07" r="2.27" transform="translate(-39.75 -0.36) rotate(-7.02)"/><circle class="cls-5" cx="113.09" cy="119.24" r="2.27" transform="translate(-39.16 -0.34) rotate(-7.02)"/><circle class="cls-5" cx="104.3" cy="124.8" r="2.27" transform="translate(-39.9 -1.37) rotate(-7.02)"/><circle class="cls-5" cx="100.44" cy="131.13" r="2.27" transform="translate(-40.7 -1.79) rotate(-7.02)"/><circle class="cls-5" cx="100.44" cy="138.41" r="2.27" transform="translate(-41.59 -1.74) rotate(-7.02)"/><circle class="cls-5" cx="91.94" cy="137.01" r="2.27" transform="translate(-41.49 -2.79) rotate(-7.02)"/><circle class="cls-5" cx="88.74" cy="142.83" r="2.27" transform="translate(-42.22 -3.13) rotate(-7.02)"/><circle class="cls-5" cx="83.51" cy="145.75" r="2.27" transform="translate(-42.62 -3.75) rotate(-7.02)"/><circle class="cls-5" cx="83.51" cy="137.76" r="2.27" transform="translate(-41.64 -3.81) rotate(-7.02)"/><circle class="cls-5" cx="70.5" cy="139.97" r="2.27" transform="translate(-42.01 -5.39) rotate(-7.02)"/><circle class="cls-5" cx="82.86" cy="132.5" r="2.27" transform="translate(-41 -3.93) rotate(-7.02)"/><circle class="cls-5" cx="87.05" cy="129.1" r="2.27" transform="translate(-40.56 -3.44) rotate(-7.02)"/><circle class="cls-5" cx="85.13" cy="124.8" r="2.27" transform="translate(-40.05 -3.71) rotate(-7.02)"/><circle class="cls-5" cx="81.8" cy="122.43" r="2.27" transform="translate(-39.78 -4.14) rotate(-7.02)"/><circle class="cls-5" cx="85.13" cy="119.24" r="2.27" transform="translate(-39.37 -3.75) rotate(-7.02)"/><circle class="cls-5" cx="81.8" cy="111.78" r="2.27" transform="translate(-38.48 -4.22) rotate(-7.02)"/><circle class="cls-5" cx="72.06" cy="93.72" r="2.27" transform="translate(-70.59 63.36) rotate(-45)"/><circle class="cls-5" cx="77.47" cy="106.37" r="2.27" transform="translate(-61.01 23.96) rotate(-23.15)"/><circle class="cls-5" cx="79.59" cy="86.19" r="2.27" transform="translate(-52.91 23.17) rotate(-23.15)"/><circle class="cls-5" cx="95.42" cy="88.25" r="2.27" transform="translate(-52.44 29.56) rotate(-23.15)"/><circle class="cls-5" cx="97.96" cy="90.92" r="2.27" transform="translate(-53.29 30.77) rotate(-23.15)"/><circle class="cls-5" cx="99.76" cy="94.45" r="2.27" transform="translate(-54.53 31.76) rotate(-23.15)"/><circle class="cls-5" cx="102.25" cy="90.92" r="2.27" transform="translate(-52.94 32.46) rotate(-23.15)"/><circle class="cls-5" cx="105.81" cy="86.73" r="2.27" transform="translate(-51.01 33.52) rotate(-23.15)"/><circle class="cls-5" cx="110.31" cy="85.64" r="2.27" transform="translate(-50.22 35.2) rotate(-23.15)"/><circle class="cls-5" cx="113.18" cy="89.49" r="2.27" transform="translate(-51.5 36.64) rotate(-23.15)"/><circle class="cls-5" cx="118.24" cy="92.06" r="2.27" transform="translate(-48.59 27.38) rotate(-18.56)"/><circle class="cls-5" cx="113.09" cy="101.19" r="2.27" transform="translate(-51.76 26.21) rotate(-18.56)"/><circle class="cls-5" cx="116.49" cy="104.2" r="2.27" transform="translate(-52.54 27.45) rotate(-18.56)"/><circle class="cls-5" cx="117.47" cy="100.78" r="2.27" transform="translate(-51.4 27.58) rotate(-18.56)"/><circle class="cls-5" cx="121.82" cy="102.73" r="2.27" transform="translate(-51.8 29.07) rotate(-18.56)"/><circle class="cls-5" cx="123.08" cy="99.33" r="2.27" transform="translate(-50.65 29.29) rotate(-18.56)"/><circle class="cls-5" cx="120.2" cy="96.11" r="2.27" transform="translate(-49.77 28.21) rotate(-18.56)"/><circle class="cls-5" cx="123.63" cy="93.84" r="2.27" transform="translate(-48.87 29.18) rotate(-18.56)"/><circle class="cls-5" cx="122.14" cy="89.41" r="2.27" transform="translate(-47.54 28.48) rotate(-18.56)"/><circle class="cls-5" cx="116.22" cy="87.42" r="2.27" transform="translate(-47.21 26.49) rotate(-18.56)"/><circle class="cls-5" cx="119.09" cy="84.06" r="2.27" transform="translate(-46 27.23) rotate(-18.56)"/><circle class="cls-5" cx="124.36" cy="85.64" r="2.27" transform="translate(-46.23 28.99) rotate(-18.56)"/><circle class="cls-5" cx="128.23" cy="83.05" r="2.27" transform="translate(-45.2 30.09) rotate(-18.56)"/><circle class="cls-5" cx="126.4" cy="90.52" r="2.27" transform="translate(-47.67 29.89) rotate(-18.56)"/><circle class="cls-5" cx="128.85" cy="96.63" r="2.27" transform="translate(-49.49 30.99) rotate(-18.56)"/><circle class="cls-5" cx="128.23" cy="102.88" r="2.27" transform="translate(-51.51 31.12) rotate(-18.56)"/><circle class="cls-5" cx="125.07" cy="106.71" r="2.27" transform="translate(-52.89 30.31) rotate(-18.56)"/><circle class="cls-5" cx="132.44" cy="103.01" r="2.27" transform="translate(-51.33 32.47) rotate(-18.56)"/><circle class="cls-5" cx="133.8" cy="98.7" r="2.27" transform="translate(-49.89 32.67) rotate(-18.56)"/><circle class="cls-5" cx="133.46" cy="94.05" r="2.27" transform="matrix(0.95, -0.32, 0.32, 0.95, -48.43, 32.32)"/><circle class="cls-5" cx="136.96" cy="91.4" r="2.27" transform="translate(-47.4 33.3) rotate(-18.56)"/><circle class="cls-5" cx="136.13" cy="85.15" r="2.27" transform="translate(-45.46 32.71) rotate(-18.56)"/><circle class="cls-5" cx="140.88" cy="85.15" r="2.27" transform="translate(-45.21 34.22) rotate(-18.56)"/><circle class="cls-5" cx="147.11" cy="84.06" r="2.27" transform="translate(-44.54 36.15) rotate(-18.56)"/><circle class="cls-5" cx="136.37" cy="81.19" r="2.27" transform="translate(-44.18 32.58) rotate(-18.56)"/><circle class="cls-5" cx="131.04" cy="79.71" r="2.27" transform="translate(-43.99 30.81) rotate(-18.56)"/><circle class="cls-5" cx="141.12" cy="90.52" r="2.27" transform="translate(-46.91 34.58) rotate(-18.56)"/><circle class="cls-5" cx="140.78" cy="96.63" r="2.27" transform="translate(-48.87 34.79) rotate(-18.56)"/><circle class="cls-5" cx="136.72" cy="101.19" r="2.27" transform="translate(-50.53 33.73) rotate(-18.56)"/><circle class="cls-5" cx="141.55" cy="101.3" r="2.27" transform="translate(-50.32 35.28) rotate(-18.56)"/><circle class="cls-5" cx="144.82" cy="95.37" r="2.27" transform="translate(-48.26 36.01) rotate(-18.56)"/><circle class="cls-5" cx="146.09" cy="90.84" r="2.27" transform="translate(-46.75 36.18) rotate(-18.56)"/><circle class="cls-5" cx="147.53" cy="101.08" r="2.27" transform="translate(-49.94 37.17) rotate(-18.56)"/><circle class="cls-5" cx="152.89" cy="102.01" r="2.27" transform="translate(-49.95 38.92) rotate(-18.56)"/><circle class="cls-5" cx="156.02" cy="104.2" r="2.27" transform="translate(-50.49 40.03) rotate(-18.56)"/><circle class="cls-5" cx="161.11" cy="101.08" r="2.27" transform="translate(-49.23 41.49) rotate(-18.56)"/><circle class="cls-5" cx="163.44" cy="104.2" r="2.27" transform="translate(-50.1 42.4) rotate(-18.56)"/><circle class="cls-5" cx="165.41" cy="100.2" r="2.27" transform="translate(-48.73 42.81) rotate(-18.56)"/><circle class="cls-5" cx="168.79" cy="96.11" r="2.27" transform="translate(-47.25 43.68) rotate(-18.56)"/><circle class="cls-5" cx="171.55" cy="99.33" r="2.27" transform="translate(-48.13 44.72) rotate(-18.56)"/><circle class="cls-5" cx="174.64" cy="96.54" r="2.27" transform="translate(-47.08 45.56) rotate(-18.56)"/><circle class="cls-5" cx="172" cy="92.4" r="2.27" transform="translate(-45.9 44.51) rotate(-18.56)"/><circle class="cls-5" cx="168" cy="90.52" r="2.27" transform="translate(-45.51 43.14) rotate(-18.56)"/><circle class="cls-5" cx="170.95" cy="85.65" r="2.27" transform="translate(-43.81 43.82) rotate(-18.56)"/><circle class="cls-5" cx="171.55" cy="81.75" r="2.27" transform="translate(-42.53 43.81) rotate(-18.56)"/><circle class="cls-5" cx="159.03" cy="87.42" r="2.27" transform="translate(-44.99 40.12) rotate(-18.56)"/><circle class="cls-5" cx="160.44" cy="82.6" r="2.27" transform="translate(-43.38 40.32) rotate(-18.56)"/><circle class="cls-5" cx="156.66" cy="80.36" r="2.27" transform="translate(-42.86 39) rotate(-18.56)"/><circle class="cls-5" cx="159.55" cy="76.54" r="2.27" transform="translate(-41.5 39.72) rotate(-18.56)"/><circle class="cls-5" cx="162.82" cy="69.78" r="2.27" transform="translate(-32.74 5.37) rotate(-7.02)"/><circle class="cls-5" cx="158.34" cy="72.94" r="2.27" transform="translate(-40.42 39.15) rotate(-18.56)"/><circle class="cls-5" cx="157.73" cy="69.08" r="2.27" transform="translate(-6.39 156.09) rotate(-60)"/><circle class="cls-5" cx="171.24" cy="69.9" r="2.27" transform="translate(-0.35 168.2) rotate(-60)"/><circle class="cls-5" cx="157.77" cy="64.75" r="2.27" transform="translate(-2.62 153.96) rotate(-60)"/><circle class="cls-5" cx="152.04" cy="70.66" r="2.27" transform="translate(-10.61 151.95) rotate(-60)"/><circle class="cls-5" cx="146.09" cy="69.9" r="2.27" transform="translate(-12.93 146.41) rotate(-60)"/><circle class="cls-5" cx="148.16" cy="66.3" r="2.27" transform="translate(-8.77 146.41) rotate(-60)"/><circle class="cls-5" cx="150.89" cy="63.83" r="2.27" transform="translate(-5.26 147.54) rotate(-60)"/><circle class="cls-5" cx="139.03" cy="69.83" r="2.27" transform="translate(-16.39 140.27) rotate(-60)"/><circle class="cls-5" cx="137.71" cy="75.72" r="2.27" transform="translate(-22.15 142.07) rotate(-60)"/><circle class="cls-5" cx="132.92" cy="69.78" r="2.27" transform="translate(-19.41 134.95) rotate(-60)"/><circle class="cls-5" cx="136.63" cy="67.06" r="2.27" transform="translate(-15.2 136.8) rotate(-60)"/><circle class="cls-5" cx="140.54" cy="64.48" r="2.27" transform="translate(-11.01 138.9) rotate(-60)"/><circle class="cls-5" cx="125.25" cy="70.2" r="2.27" transform="translate(-23.6 128.52) rotate(-60)"/><circle class="cls-5" cx="125.25" cy="66.67" r="2.27" transform="translate(-20.55 126.76) rotate(-60)"/><circle class="cls-5" cx="125.07" cy="75.05" r="2.27" transform="translate(-27.89 130.79) rotate(-60)"/><circle class="cls-5" cx="118.24" cy="75.56" r="2.27" transform="translate(-31.75 125.13) rotate(-60)"/><circle class="cls-5" cx="120.48" cy="71.69" r="2.27" transform="translate(-27.28 125.13) rotate(-60)"/><circle class="cls-5" cx="113.18" cy="75.17" r="2.27" transform="translate(-33.95 120.55) rotate(-60)"/><circle class="cls-5" cx="111.87" cy="70.66" r="2.27" transform="translate(-30.69 117.16) rotate(-60)"/><circle class="cls-5" cx="103.95" cy="72.94" r="2.27" transform="translate(-36.62 111.45) rotate(-60)"/><circle class="cls-5" cx="115.68" cy="57.41" r="2.27" transform="translate(-17.31 113.84) rotate(-60)"/><circle class="cls-5" cx="127.86" cy="52.04" r="2.27" transform="translate(-6.56 121.7) rotate(-60)"/><circle class="cls-5" cx="136.55" cy="49.09" r="2.27" transform="translate(0.33 127.75) rotate(-60)"/><circle class="cls-5" cx="131.92" cy="56.42" r="2.27" transform="translate(-8.34 127.4) rotate(-60)"/><circle class="cls-5" cx="105.81" cy="52.04" r="2.27" transform="translate(-17.59 102.6) rotate(-60)"/><circle class="cls-5" cx="96.87" cy="54.21" r="2.27" transform="translate(-23.95 95.95) rotate(-60)"/><circle class="cls-5" cx="94.71" cy="57.96" r="2.27" transform="translate(-28.27 95.95) rotate(-60)"/><circle class="cls-5" cx="100.38" cy="67.79" r="2.27" transform="translate(-33.95 105.78) rotate(-60)"/><circle class="cls-5" cx="104.14" cy="59.46" r="2.27" transform="translate(-24.86 104.87) rotate(-60)"/><circle class="cls-5" cx="143.48" cy="52.04" r="2.27" transform="translate(1.24 135.23) rotate(-60)"/><circle class="cls-5" cx="95.07" cy="77.35" r="2.27" transform="translate(-44.89 105.96) rotate(-60)"/><circle class="cls-5" cx="94.93" cy="81.21" r="2.27" transform="translate(-48.3 107.77) rotate(-60)"/><circle class="cls-5" cx="89.42" cy="78.82" r="2.27" transform="translate(-48.99 101.8) rotate(-60)"/><circle class="cls-5" cx="86.82" cy="66.67" r="2.27" transform="translate(-39.76 93.48) rotate(-60)"/><circle class="cls-5" cx="101.36" cy="79.38" r="2.27" transform="translate(-43.49 112.42) rotate(-60)"/><circle class="cls-5" cx="108.89" cy="80.36" r="2.27" transform="translate(-40.58 119.43) rotate(-60)"/><circle class="cls-5" cx="104.44" cy="83.53" r="2.27" transform="translate(-45.55 117.16) rotate(-60)"/><circle class="cls-5" cx="148.14" cy="58.64" r="2.27" transform="translate(-15.75 122.43) rotate(-51.25)"/><circle class="cls-5" cx="176.71" cy="86.19" r="2.27" transform="matrix(0.95, -0.32, 0.32, 0.95, -43.68, 45.68)"/><circle class="cls-5" cx="191.1" cy="84.06" r="2.27" transform="translate(-42.25 50.15) rotate(-18.56)"/><circle class="cls-5" cx="181.15" cy="98.9" r="2.27" transform="translate(-47.49 47.75) rotate(-18.56)"/><circle class="cls-5" cx="196.68" cy="75.56" r="2.27" transform="translate(-39.26 51.48) rotate(-18.56)"/><circle class="cls-5" cx="200.62" cy="89.2" r="2.27" transform="translate(-44.21 82.46) rotate(-26.14)"/><circle class="cls-5" cx="104.3" cy="94.45" r="2.27" transform="translate(-54.17 33.55) rotate(-23.15)"/><circle class="cls-5" cx="102.71" cy="98.7" r="2.27" transform="translate(-55.96 33.27) rotate(-23.15)"/><circle class="cls-5" cx="100.82" cy="102.73" r="2.27" transform="translate(-57.7 32.85) rotate(-23.15)"/><circle class="cls-5" cx="92.01" cy="101.88" r="2.27" transform="translate(-58.07 29.32) rotate(-23.15)"/><circle class="cls-5" cx="106.97" cy="102.88" r="2.27" transform="translate(-57.26 35.28) rotate(-23.15)"/><circle class="cls-5" cx="104.65" cy="105.89" r="2.27" transform="translate(-58.63 34.61) rotate(-23.15)"/><circle class="cls-5" cx="109.68" cy="98.19" r="2.27" transform="translate(-55.2 35.97) rotate(-23.15)"/><circle class="cls-5" cx="113.9" cy="95.37" r="2.27" transform="translate(-53.75 37.4) rotate(-23.15)"/><circle class="cls-5" cx="112.34" cy="92.86" r="2.27" transform="translate(-52.89 36.58) rotate(-23.15)"/><circle class="cls-5" cx="107.58" cy="90.52" r="2.27" transform="translate(-52.35 34.52) rotate(-23.15)"/><circle class="cls-5" cx="88.87" cy="88.25" r="2.27" transform="translate(-60.12 52.72) rotate(-35.39)"/><circle class="cls-5" cx="90.99" cy="85.15" r="2.27" transform="translate(-55.02 101.58) rotate(-57.73)"/><circle class="cls-5" cx="87.7" cy="111.31" r="2.27" transform="translate(-38.38 -3.5) rotate(-7.02)"/><circle class="cls-5" cx="96.3" cy="114.41" r="2.27" transform="translate(-38.69 -2.42) rotate(-7.02)"/><circle class="cls-5" cx="97.96" cy="118.23" r="2.27" transform="translate(-39.15 -2.19) rotate(-7.02)"/><circle class="cls-5" cx="100.82" cy="119.59" r="2.27" transform="translate(-39.29 -1.83) rotate(-7.02)"/><circle class="cls-5" cx="102.03" cy="115.78" r="2.27" transform="translate(-38.82 -1.71) rotate(-7.02)"/><circle class="cls-5" cx="105.81" cy="114.41" r="2.27" transform="translate(-38.62 -1.26) rotate(-7.02)"/><circle class="cls-5" cx="102.64" cy="111.31" r="2.27" transform="translate(-38.27 -1.67) rotate(-7.02)"/><circle class="cls-5" cx="110.82" cy="109.72" r="2.27" transform="translate(-38.01 -0.69) rotate(-7.02)"/><circle class="cls-5" cx="115.97" cy="112.2" r="2.27" transform="translate(-38.28 -0.04) rotate(-7.02)"/><circle class="cls-5" cx="118.26" cy="108.91" r="2.27" transform="translate(-37.86 0.22) rotate(-7.02)"/><circle class="cls-5" cx="121.94" cy="111.31" r="2.27" transform="translate(-38.12 0.69) rotate(-7.02)"/><circle class="cls-5" cx="120.2" cy="115.83" r="2.27" transform="translate(-38.69 0.51) rotate(-7.02)"/><circle class="cls-5" cx="121.72" cy="119.59" r="2.27" transform="translate(-39.14 0.72) rotate(-7.02)"/><circle class="cls-5" cx="125.57" cy="119.82" r="2.27" transform="translate(-39.13 1.19) rotate(-7.02)"/><circle class="cls-5" cx="123.08" cy="124.07" r="2.27" transform="translate(-39.67 0.92) rotate(-7.02)"/><circle class="cls-5" cx="118.26" cy="122.57" r="2.27" transform="translate(-39.52 0.32) rotate(-7.02)"/><circle class="cls-5" cx="130.44" cy="109.55" r="2.27" transform="translate(-37.84 1.71) rotate(-7.02)"/><circle class="cls-5" cx="92.41" cy="116.96" r="2.27" transform="translate(-39.03 -2.88) rotate(-7.02)"/><circle class="cls-5" cx="94.71" cy="120.84" r="2.27" transform="translate(-70.73 168.81) rotate(-76.14)"/><circle class="cls-5" cx="174.22" cy="129.39" r="2.27" transform="matrix(0.53, -0.85, 0.85, 0.53, -53.63, 192.58)"/><circle class="cls-5" cx="176.88" cy="135.61" r="2.27" transform="translate(-57.65 197.73) rotate(-57.73)"/><circle class="cls-5" cx="184.34" cy="132.85" r="2.27" transform="matrix(0.53, -0.85, 0.85, 0.53, -51.84, 202.75)"/><circle class="cls-5" cx="203.37" cy="128.35" r="2.27" transform="translate(-39.16 216.74) rotate(-57.73)"/><circle class="cls-5" cx="148.14" cy="176.87" r="2.27" transform="matrix(0.53, -0.85, 0.85, 0.53, -105.93, 192.66)"/><circle class="cls-5" cx="142.97" cy="173.08" r="2.27" transform="matrix(0.53, -0.85, 0.85, 0.53, -105.14, 186.52)"/><circle class="cls-5" cx="149.39" cy="167.75" r="2.27" transform="matrix(0.53, -0.85, 0.85, 0.53, -97.64, 189.46)"/><circle class="cls-5" cx="151.15" cy="163.53" r="2.27" transform="matrix(0.53, -0.85, 0.85, 0.53, -93.26, 188.98)"/><circle class="cls-5" cx="184.6" cy="173.51" r="2.27" transform="translate(-93.44 177.83) rotate(-47.61)"/><circle class="cls-5" cx="210.63" cy="187.21" r="2.27" transform="matrix(0.53, -0.85, 0.85, 0.53, -85.55, 250.32)"/><circle class="cls-1" cx="125.49" cy="95.69" r="2.27" transform="translate(-49.37 29.87) rotate(-18.56)"/><circle class="cls-1" cx="115.02" cy="90.32" r="2.27" transform="translate(-48.2 26.26) rotate(-18.56)"/><circle class="cls-1" cx="137.99" cy="87.34" r="2.27" transform="translate(-46.06 33.42) rotate(-18.56)"/><circle class="cls-1" cx="123.05" cy="81.29" r="2.27" transform="translate(-44.91 28.35) rotate(-18.56)"/><circle class="cls-1" cx="120.6" cy="106.2" r="2.27" transform="translate(-52.97 28.86) rotate(-18.56)"/><circle class="cls-1" cx="108.01" cy="110.43" r="2.27" transform="translate(-54.97 25.07) rotate(-18.56)"/><circle class="cls-1" cx="113.7" cy="116.63" r="2.27" transform="translate(-56.64 27.21) rotate(-18.56)"/><circle class="cls-1" cx="135.08" cy="112.8" r="2.27" transform="translate(-54.31 33.82) rotate(-18.56)"/><circle class="cls-1" cx="146.16" cy="107.61" r="2.27" transform="translate(-52.08 37.07) rotate(-18.56)"/><circle class="cls-1" cx="149.78" cy="116.84" r="2.27" transform="translate(-54.83 38.71) rotate(-18.56)"/><circle class="cls-1" cx="155.03" cy="108.91" r="2.27" transform="translate(-52.04 39.96) rotate(-18.56)"/><circle class="cls-1" cx="163.69" cy="101.3" r="2.27" transform="translate(-49.16 42.32) rotate(-18.56)"/><circle class="cls-1" cx="171.43" cy="95.69" r="2.27" transform="translate(-46.98 44.49) rotate(-18.56)"/><circle class="cls-1" cx="162.99" cy="87.15" r="2.27" transform="translate(-44.7 41.36) rotate(-18.56)"/><circle class="cls-1" cx="156.38" cy="91.4" r="2.27" transform="translate(-46.39 39.48) rotate(-18.56)"/><circle class="cls-1" cx="157.94" cy="77.35" r="2.27" transform="translate(-41.84 39.25) rotate(-18.56)"/><circle class="cls-1" cx="153.45" cy="85.87" r="2.27" transform="translate(-44.78 38.26) rotate(-18.56)"/><path class="cls-2" d="M32.38,121.95a3.7,3.7,0,0,0,.53-1.87c0-1.07-.56-1.69-1.38-1.69s-1.19.43-1.61,1.52c-.47,1.32-1.15,2.13-2.29,2.13a2.33,2.33,0,0,1-2.2-2.61,3.67,3.67,0,0,1,.4-1.79l.85.29a3.21,3.21,0,0,0-.38,1.54c0,1.1.66,1.52,1.21,1.52.76,0,1.13-.49,1.56-1.61.53-1.37,1.19-2.06,2.37-2.06s2.33.92,2.33,2.83a4.18,4.18,0,0,1-.52,2.06Z" transform="translate(-25.43 -15.05)"/><path class="cls-2" d="M29.74,115.92c-.74,0-1.34,0-1.89,0V115l1,0v0a2.28,2.28,0,0,1-1.13-2.06c0-1.4,1.19-2.46,3-2.46,2.09,0,3.12,1.27,3.12,2.64a2,2,0,0,1-.91,1.79v0H36v1Zm1.55-1a2.43,2.43,0,0,0,.43,0A1.63,1.63,0,0,0,33,113.25c0-1.12-.91-1.76-2.24-1.76-1.16,0-2.16.61-2.16,1.73a1.68,1.68,0,0,0,1.31,1.59,1.71,1.71,0,0,0,.43.07Z" transform="translate(-25.43 -15.05)"/><path class="cls-2" d="M33.65,105.88l-.73.08v0a2.16,2.16,0,0,1,.86,1.78,1.65,1.65,0,0,1-1.67,1.77c-1.4,0-2.17-1.25-2.16-3.49h-.12a1.2,1.2,0,0,0-1.34,1.32,2.9,2.9,0,0,0,.43,1.51l-.7.24a3.6,3.6,0,0,1-.52-1.91c0-1.78,1.21-2.21,2.37-2.21h2.17a8.25,8.25,0,0,0,1.39-.1Zm-3,.16c0,1.15.18,2.46,1.31,2.46a.93.93,0,0,0,1-1,1.44,1.44,0,0,0-1-1.4,1.1,1.1,0,0,0-.34-.06Z" transform="translate(-25.43 -15.05)"/><path class="cls-2" d="M33.43,99.17a3.9,3.9,0,0,1,.34,1.67,2.76,2.76,0,0,1-3,2.89,3,3,0,0,1-3.08-3.12,3.54,3.54,0,0,1,.3-1.46l.82.24a2.45,2.45,0,0,0-.28,1.22,2,2,0,0,0,2.19,2.05,2,2,0,0,0,2.17-2,3,3,0,0,0-.29-1.29Z" transform="translate(-25.43 -15.05)"/><path class="cls-2" d="M26.21,96.76a.65.65,0,0,1,0,1.31.64.64,0,0,1-.66-.66A.63.63,0,0,1,26.21,96.76Zm7.44,1.17h-5.8V96.88h5.8Z" transform="translate(-25.43 -15.05)"/><path class="cls-2" d="M29.42,95.13c-.6,0-1.09,0-1.57,0v-.94l1-.06v0a2.14,2.14,0,0,1-1.09-1.92c0-.8.48-2.05,2.47-2.05h3.47v1.05H30.3c-.94,0-1.72.35-1.72,1.34A1.5,1.5,0,0,0,29.67,94a1.52,1.52,0,0,0,.49.07h3.49v1.05Z" transform="translate(-25.43 -15.05)"/><path class="cls-2" d="M27.84,83.47c.42,0,.89,0,1.59,0h3.37a3.34,3.34,0,0,1,2.65.83,3.07,3.07,0,0,1,.7,2.11,3.75,3.75,0,0,1-.48,1.93l-.8-.26a3.28,3.28,0,0,0,.46-1.7c0-1.08-.56-1.87-2-1.87h-.65v0a2.07,2.07,0,0,1,1,1.85,2.59,2.59,0,0,1-2.83,2.47,2.79,2.79,0,0,1-3.08-2.61,1.93,1.93,0,0,1,1-1.81v0l-.87,0Zm2.29,1.09a1.54,1.54,0,0,0-1.6,1.54c0,1,.85,1.73,2.2,1.73,1.14,0,2.09-.58,2.09-1.71a1.54,1.54,0,0,0-1.08-1.46,1.82,1.82,0,0,0-.56-.08Z" transform="translate(-25.43 -15.05)"/><path class="cls-2" d="M91.78,214.16a12.09,12.09,0,0,1,2-.16,3.32,3.32,0,0,1,2.27.67,2.17,2.17,0,0,1,.71,1.69,2.38,2.38,0,0,1-.62,1.73,3.35,3.35,0,0,1-2.47.89,3.61,3.61,0,0,1-.84-.07v3.24h-1Zm1,3.9a3.52,3.52,0,0,0,.86.08c1.26,0,2-.61,2-1.73s-.76-1.58-1.91-1.58a4.38,4.38,0,0,0-1,.08Z" transform="translate(-25.43 -15.05)"/><path class="cls-2" d="M97.94,218.16c0-.68,0-1.27,0-1.81h.92l0,1.14h0a1.74,1.74,0,0,1,1.61-1.27,1.13,1.13,0,0,1,.3,0v1a1.56,1.56,0,0,0-.36,0A1.48,1.48,0,0,0,99,218.57a3,3,0,0,0,0,.49v3.09h-1Z" transform="translate(-25.43 -15.05)"/><path class="cls-2" d="M107,219.2a2.84,2.84,0,0,1-2.89,3.08,2.76,2.76,0,0,1-2.78-3,2.83,2.83,0,0,1,2.88-3.08A2.75,2.75,0,0,1,107,219.2Zm-4.61.06c0,1.27.73,2.23,1.76,2.23s1.76-.95,1.76-2.25c0-1-.49-2.23-1.74-2.23S102.39,218.16,102.39,219.26Z" transform="translate(-25.43 -15.05)"/><path class="cls-2" d="M112.47,221.94a3.9,3.9,0,0,1-1.67.34,2.76,2.76,0,0,1-2.89-3,3,3,0,0,1,3.12-3.08,3.54,3.54,0,0,1,1.46.3l-.24.82a2.45,2.45,0,0,0-1.22-.28,2.19,2.19,0,0,0,0,4.37,3,3,0,0,0,1.29-.29Z" transform="translate(-25.43 -15.05)"/><path class="cls-2" d="M113.7,218.16c0-.68,0-1.27,0-1.81h.92l0,1.14h0a1.74,1.74,0,0,1,1.61-1.27,1.13,1.13,0,0,1,.3,0v1a1.56,1.56,0,0,0-.36,0,1.48,1.48,0,0,0-1.42,1.36,3,3,0,0,0,0,.49v3.09h-1Z" transform="translate(-25.43 -15.05)"/><path class="cls-2" d="M120.78,222.15l-.08-.73h0a2.16,2.16,0,0,1-1.78.86,1.65,1.65,0,0,1-1.77-1.67c0-1.4,1.25-2.17,3.49-2.16v-.12a1.2,1.2,0,0,0-1.32-1.34,2.9,2.9,0,0,0-1.51.43l-.24-.7a3.6,3.6,0,0,1,1.91-.52c1.78,0,2.21,1.21,2.21,2.37v2.17a8.25,8.25,0,0,0,.1,1.39Zm-.16-3c-1.15,0-2.46.18-2.46,1.31a.93.93,0,0,0,1,1,1.44,1.44,0,0,0,1.4-1,1.1,1.1,0,0,0,.06-.34Z" transform="translate(-25.43 -15.05)"/><path class="cls-2" d="M123.21,221.07a2.77,2.77,0,0,0,1.39.42c.77,0,1.13-.38,1.13-.86s-.3-.78-1.08-1.07c-1-.37-1.54-.95-1.54-1.64a1.79,1.79,0,0,1,2-1.7,2.9,2.9,0,0,1,1.43.36l-.26.77a2.26,2.26,0,0,0-1.19-.34c-.62,0-1,.36-1,.79s.35.7,1.1,1c1,.38,1.52.89,1.52,1.75,0,1-.79,1.74-2.17,1.74a3.32,3.32,0,0,1-1.63-.4Z" transform="translate(-25.43 -15.05)"/><path class="cls-2" d="M129.37,214.68v1.67h1.51v.8h-1.51v3.13c0,.72.2,1.13.79,1.13a2.34,2.34,0,0,0,.61-.07l0,.79a2.58,2.58,0,0,1-.94.14,1.46,1.46,0,0,1-1.14-.44,2.15,2.15,0,0,1-.41-1.51v-3.17h-.9v-.8h.9V215Z" transform="translate(-25.43 -15.05)"/><path class="cls-2" d="M133.25,214.72a.65.65,0,0,1-1.31,0,.64.64,0,0,1,.66-.66A.63.63,0,0,1,133.25,214.72Zm-1.17,7.44v-5.8h1.05v5.8Z" transform="translate(-25.43 -15.05)"/><path class="cls-2" d="M134.88,217.92c0-.6,0-1.09,0-1.57h.94l.06,1h0a2.14,2.14,0,0,1,1.92-1.09c.8,0,2.05.48,2.05,2.47v3.47h-1.05v-3.35c0-.94-.35-1.72-1.34-1.72a1.5,1.5,0,0,0-1.42,1.08,1.52,1.52,0,0,0-.07.49v3.49h-1.05Z" transform="translate(-25.43 -15.05)"/><path class="cls-2" d="M144.76,222.15l-.08-.73h0a2.16,2.16,0,0,1-1.78.86,1.65,1.65,0,0,1-1.77-1.67c0-1.4,1.25-2.17,3.49-2.16v-.12a1.2,1.2,0,0,0-1.32-1.34,2.9,2.9,0,0,0-1.51.43l-.24-.7a3.6,3.6,0,0,1,1.91-.52c1.78,0,2.21,1.21,2.21,2.37v2.17a8.25,8.25,0,0,0,.1,1.39Zm-.16-3c-1.15,0-2.46.18-2.46,1.31a.93.93,0,0,0,1,1,1.44,1.44,0,0,0,1.4-1,1.1,1.1,0,0,0,.06-.34Z" transform="translate(-25.43 -15.05)"/><path class="cls-2" d="M148.55,214.68v1.67h1.51v.8h-1.51v3.13c0,.72.2,1.13.79,1.13a2.34,2.34,0,0,0,.61-.07l0,.79a2.58,2.58,0,0,1-.94.14,1.46,1.46,0,0,1-1.14-.44,2.15,2.15,0,0,1-.41-1.51v-3.17h-.9v-.8h.9V215Z" transform="translate(-25.43 -15.05)"/><path class="cls-2" d="M152.43,214.72a.65.65,0,0,1-1.31,0,.64.64,0,0,1,.66-.66A.63.63,0,0,1,152.43,214.72Zm-1.17,7.44v-5.8h1.05v5.8Z" transform="translate(-25.43 -15.05)"/><path class="cls-2" d="M159.31,219.2a2.84,2.84,0,0,1-2.89,3.08,2.76,2.76,0,0,1-2.78-3,2.83,2.83,0,0,1,2.88-3.08A2.75,2.75,0,0,1,159.31,219.2Zm-4.61.06c0,1.27.73,2.23,1.76,2.23s1.76-.95,1.76-2.25c0-1-.49-2.23-1.74-2.23S154.71,218.16,154.71,219.26Z" transform="translate(-25.43 -15.05)"/><path class="cls-2" d="M160.65,217.92c0-.6,0-1.09,0-1.57h.94l.06,1h0a2.14,2.14,0,0,1,1.92-1.09c.8,0,2.05.48,2.05,2.47v3.47h-1.05v-3.35c0-.94-.35-1.72-1.34-1.72a1.5,1.5,0,0,0-1.42,1.08,1.52,1.52,0,0,0-.07.49v3.49h-1.05Z" transform="translate(-25.43 -15.05)"/><path class="cls-2" d="M397.58,325.62H186.83a.5.5,0,0,1,0-1H397.58a.5.5,0,0,1,0,1Z" transform="translate(-25.43 -15.05)"/><path class="cls-2" d="M397.58,280H186.83a.5.5,0,0,1,0-1H397.58a.5.5,0,0,1,0,1Z" transform="translate(-25.43 -15.05)"/><circle class="cls-6" cx="332.96" cy="264.47" r="4.76"/><circle class="cls-6" cx="218.74" cy="310.5" r="4.76"/><path class="cls-7" d="M253.94,352.72h0a.5.5,0,0,1-.5-.5v-5a.5.5,0,0,1,.5-.5h0a.5.5,0,0,1,.5.5v5A.5.5,0,0,1,253.94,352.72Zm0-10h0a.5.5,0,0,1-.5-.5v-5a.5.5,0,0,1,.5-.5h0a.5.5,0,0,1,.5.5v5A.5.5,0,0,1,254,342.72Zm0-10h0a.5.5,0,0,1-.5-.5v-5a.5.5,0,0,1,.5-.5h0a.5.5,0,0,1,.5.5v5A.5.5,0,0,1,254,332.72Zm0-10h0a.5.5,0,0,1-.5-.5v-5a.5.5,0,0,1,.5-.5h0a.5.5,0,0,1,.5.5v5A.5.5,0,0,1,254,322.72Z" transform="translate(-25.43 -15.05)"/><path class="cls-7" d="M254.06,307.59h0a.5.5,0,0,1-.5-.5v-5a.5.5,0,0,1,.5-.5h0a.5.5,0,0,1,.5.5v5A.5.5,0,0,1,254.06,307.59Zm0-10h0a.5.5,0,0,1-.5-.5v-5a.5.5,0,0,1,.5-.5h0a.5.5,0,0,1,.5.5v5A.5.5,0,0,1,254.08,297.59Zm0-10h0a.5.5,0,0,1-.5-.5v-5a.5.5,0,0,1,.5-.5h0a.5.5,0,0,1,.5.5v5A.5.5,0,0,1,254.11,287.59Zm0-10h0a.5.5,0,0,1-.5-.5v-5a.5.5,0,0,1,.5-.5h0a.5.5,0,0,1,.5.5v5A.5.5,0,0,1,254.13,277.59Zm0-10h0a.5.5,0,0,1-.5-.5v-5a.5.5,0,0,1,.5-.5h0a.5.5,0,0,1,.5.5v5A.5.5,0,0,1,254.16,267.59Zm0-10h0a.5.5,0,0,1-.5-.5v-5a.5.5,0,0,1,.5-.5h0a.5.5,0,0,1,.5.5v5A.5.5,0,0,1,254.18,257.59Z" transform="translate(-25.43 -15.05)"/><path class="cls-2" d="M325.87,353.9a.5.5,0,0,1-.5-.5v-3.31a.5.5,0,0,1,1,0v3.31A.5.5,0,0,1,325.87,353.9Zm0-6.62a.5.5,0,0,1-.5-.5v-3.31a.5.5,0,0,1,1,0v3.31A.5.5,0,0,1,325.87,347.27Zm0-6.62a.5.5,0,0,1-.5-.5v-3.31a.5.5,0,0,1,1,0v3.31A.5.5,0,0,1,325.87,340.65Zm0-6.62a.5.5,0,0,1-.5-.5v-3.31a.5.5,0,0,1,1,0v3.31A.5.5,0,0,1,325.87,334Zm0-6.62a.5.5,0,0,1-.5-.5v-3.31a.5.5,0,0,1,1,0v3.31A.5.5,0,0,1,325.87,327.4Zm0-6.62a.5.5,0,0,1-.5-.5V317a.5.5,0,0,1,1,0v3.31A.5.5,0,0,1,325.87,320.78Zm0-6.62a.5.5,0,0,1-.5-.5v-3.31a.5.5,0,0,1,1,0v3.31A.5.5,0,0,1,325.87,314.16Zm0-6.62a.5.5,0,0,1-.5-.5v-3.31a.5.5,0,0,1,1,0V307A.5.5,0,0,1,325.87,307.53Zm0-6.62a.5.5,0,0,1-.5-.5V297.1a.5.5,0,0,1,1,0v3.31A.5.5,0,0,1,325.87,300.91Zm0-6.62a.5.5,0,0,1-.5-.5v-3.31a.5.5,0,0,1,1,0v3.31A.5.5,0,0,1,325.87,294.29Zm0-6.62a.5.5,0,0,1-.5-.5v-3.31a.5.5,0,0,1,1,0v3.31A.5.5,0,0,1,325.87,287.66Zm0-6.62a.5.5,0,0,1-.5-.5v-3.31a.5.5,0,0,1,1,0v3.31A.5.5,0,0,1,325.87,281Zm0-6.62a.5.5,0,0,1-.5-.5v-3.31a.5.5,0,0,1,1,0v3.31A.5.5,0,0,1,325.87,274.42Z" transform="translate(-25.43 -15.05)"/><path class="cls-2" d="M325.87,262.53a.5.5,0,0,1-.5-.5v-3.31a.5.5,0,0,1,1,0V262A.5.5,0,0,1,325.87,262.53Zm0-6.62a.5.5,0,0,1-.5-.5v-3.31a.5.5,0,1,1,1,0v3.31A.5.5,0,0,1,325.87,255.9Z" transform="translate(-25.43 -15.05)"/><path class="cls-2" d="M398.58,355.5H185.83V251.27l.81-.16c1.3-.26,176-.06,211,0h1Zm-210.76-2H396.58V253.09c-15.12,0-194.27-.22-208.76,0Z" transform="translate(-25.43 -15.05)"/><path class="cls-2" d="M318.27,361.14c0,2.08-.77,3.23-2.13,3.23-1.2,0-2-1.12-2-3.15S315,358,316.24,358,318.27,359.19,318.27,361.14Zm-3.33.09c0,1.59.49,2.5,1.25,2.5s1.25-1,1.25-2.56-.39-2.5-1.24-2.5S314.94,359.57,314.94,361.24Z" transform="translate(-25.43 -15.05)"/><path class="cls-2" d="M319.1,363.78a.56.56,0,0,1,.57-.59.59.59,0,1,1-.57.59Z" transform="translate(-25.43 -15.05)"/><path class="cls-2" d="M322.79,358.92h0l-1.07.58-.16-.63,1.34-.72h.71v6.13h-.8Z" transform="translate(-25.43 -15.05)"/><path class="cls-2" d="M329.9,361.14c0,2.08-.77,3.23-2.13,3.23-1.2,0-2-1.12-2-3.15s.89-3.19,2.13-3.19S329.9,359.19,329.9,361.14Zm-3.33.09c0,1.59.49,2.5,1.25,2.5s1.25-1,1.25-2.56-.39-2.5-1.24-2.5S326.57,359.57,326.57,361.24Z" transform="translate(-25.43 -15.05)"/><path class="cls-2" d="M333.43,359.87c0,1.29-.68,1.93-1.47,1.93s-1.42-.61-1.43-1.85S331.19,358,332,358,333.43,358.7,333.43,359.87Zm-2.24.06c0,.78.27,1.38.79,1.38s.79-.58.79-1.4-.22-1.37-.79-1.37S331.19,359.15,331.19,359.92Zm.72,4.45,3.6-6.34H336l-3.6,6.34Zm5.52-2c0,1.29-.68,1.93-1.46,1.93s-1.42-.61-1.43-1.84.67-1.92,1.48-1.92S337.42,361.24,337.42,362.4Zm-2.24.06c0,.78.29,1.38.8,1.38s.79-.58.79-1.4-.22-1.37-.79-1.37S335.17,361.69,335.17,362.46Z" transform="translate(-25.43 -15.05)"/><path class="cls-2" d="M247,361.14c0,2.08-.77,3.23-2.13,3.23-1.2,0-2-1.12-2-3.15s.89-3.19,2.13-3.19S247,359.19,247,361.14Zm-3.33.09c0,1.59.49,2.5,1.25,2.5s1.25-1,1.25-2.56-.39-2.5-1.24-2.5S243.64,359.57,243.64,361.24Z" transform="translate(-25.43 -15.05)"/><path class="cls-2" d="M247.8,363.78a.56.56,0,0,1,.57-.59.59.59,0,1,1-.57.59Z" transform="translate(-25.43 -15.05)"/><path class="cls-2" d="M253.76,361.14c0,2.08-.77,3.23-2.13,3.23-1.2,0-2-1.12-2-3.15s.89-3.19,2.13-3.19S253.76,359.19,253.76,361.14Zm-3.33.09c0,1.59.49,2.5,1.25,2.5s1.25-1,1.25-2.56-.39-2.5-1.24-2.5S250.44,359.57,250.44,361.24Z" transform="translate(-25.43 -15.05)"/><path class="cls-2" d="M258.6,361.14c0,2.08-.77,3.23-2.13,3.23-1.2,0-2-1.12-2-3.15s.89-3.19,2.13-3.19S258.6,359.19,258.6,361.14Zm-3.33.09c0,1.59.49,2.5,1.25,2.5s1.25-1,1.25-2.56-.39-2.5-1.24-2.5S255.28,359.57,255.28,361.24Z" transform="translate(-25.43 -15.05)"/><path class="cls-2" d="M262.13,359.87c0,1.29-.68,1.93-1.47,1.93s-1.42-.61-1.43-1.85.67-1.91,1.48-1.91S262.13,358.7,262.13,359.87Zm-2.24.06c0,.78.27,1.38.79,1.38s.79-.58.79-1.4-.22-1.37-.79-1.37S259.89,359.15,259.89,359.92Zm.72,4.45,3.6-6.34h.53l-3.6,6.34Zm5.52-2c0,1.29-.68,1.93-1.46,1.93s-1.42-.61-1.43-1.84.67-1.92,1.48-1.92S266.12,361.24,266.12,362.4Zm-2.24.06c0,.78.29,1.38.8,1.38s.79-.58.79-1.4-.22-1.37-.79-1.37S263.88,361.69,263.88,362.46Z" transform="translate(-25.43 -15.05)"/><path class="cls-2" d="M122.19,281.08a3.7,3.7,0,0,0,1.87.53c1.07,0,1.69-.56,1.69-1.38s-.43-1.19-1.52-1.61c-1.32-.47-2.13-1.15-2.13-2.29a2.33,2.33,0,0,1,2.61-2.2,3.67,3.67,0,0,1,1.79.4l-.29.85a3.21,3.21,0,0,0-1.54-.38c-1.1,0-1.52.66-1.52,1.21,0,.76.49,1.13,1.61,1.56,1.37.53,2.06,1.19,2.06,2.37s-.92,2.33-2.83,2.33a4.18,4.18,0,0,1-2.06-.52Z" transform="translate(-25.43 -15.05)"/><path class="cls-2" d="M128.21,278.44c0-.74,0-1.34,0-1.89h.95l0,1h0a2.28,2.28,0,0,1,2.06-1.13c1.4,0,2.46,1.19,2.46,3,0,2.09-1.27,3.12-2.64,3.12a2,2,0,0,1-1.79-.91h0v3.15h-1Zm1,1.55a2.43,2.43,0,0,0,0,.43,1.63,1.63,0,0,0,1.58,1.24c1.12,0,1.76-.91,1.76-2.24,0-1.16-.61-2.16-1.73-2.16a1.68,1.68,0,0,0-1.59,1.31,1.71,1.71,0,0,0-.07.43Z" transform="translate(-25.43 -15.05)"/><path class="cls-2" d="M138.25,282.35l-.08-.73h0a2.16,2.16,0,0,1-1.78.86,1.65,1.65,0,0,1-1.77-1.67c0-1.4,1.25-2.17,3.49-2.16v-.12a1.2,1.2,0,0,0-1.32-1.34,2.9,2.9,0,0,0-1.51.43l-.24-.7a3.6,3.6,0,0,1,1.91-.52c1.78,0,2.21,1.21,2.21,2.37V281a8.25,8.25,0,0,0,.1,1.39Zm-.16-3c-1.15,0-2.46.18-2.46,1.31a.93.93,0,0,0,1,1,1.44,1.44,0,0,0,1.4-1,1.09,1.09,0,0,0,.06-.34Z" transform="translate(-25.43 -15.05)"/><path class="cls-2" d="M145,282.14a3.9,3.9,0,0,1-1.67.34,2.76,2.76,0,0,1-2.89-3,3,3,0,0,1,3.12-3.08,3.54,3.54,0,0,1,1.46.3l-.24.82a2.45,2.45,0,0,0-1.22-.28,2.19,2.19,0,0,0,0,4.37,3,3,0,0,0,1.29-.29Z" transform="translate(-25.43 -15.05)"/><path class="cls-2" d="M147.37,274.92a.65.65,0,0,1-1.31,0,.64.64,0,0,1,.66-.66A.63.63,0,0,1,147.37,274.92Zm-1.17,7.44v-5.8h1.05v5.8Z" transform="translate(-25.43 -15.05)"/><path class="cls-2" d="M149,278.12c0-.6,0-1.09,0-1.57h.94l.06,1h0a2.14,2.14,0,0,1,1.92-1.09c.8,0,2.05.48,2.05,2.47v3.47h-1.05V279c0-.94-.35-1.72-1.34-1.72a1.5,1.5,0,0,0-1.42,1.08,1.52,1.52,0,0,0-.07.49v3.49H149Z" transform="translate(-25.43 -15.05)"/><path class="cls-2" d="M160.67,276.55c0,.42,0,.89,0,1.59v3.37a3.34,3.34,0,0,1-.83,2.65,3.07,3.07,0,0,1-2.11.7,3.75,3.75,0,0,1-1.93-.48l.26-.8a3.28,3.28,0,0,0,1.7.46c1.08,0,1.87-.56,1.87-2v-.65h0a2.07,2.07,0,0,1-1.85,1,2.59,2.59,0,0,1-2.47-2.83,2.79,2.79,0,0,1,2.61-3.08,1.93,1.93,0,0,1,1.81,1h0l0-.87Zm-1.09,2.29a1.54,1.54,0,0,0-1.54-1.6c-1,0-1.73.85-1.73,2.2,0,1.14.58,2.09,1.71,2.09a1.54,1.54,0,0,0,1.46-1.08,1.82,1.82,0,0,0,.08-.56Z" transform="translate(-25.43 -15.05)"/><path class="cls-2" d="M108.26,320.64a12.09,12.09,0,0,1,2-.16,3.32,3.32,0,0,1,2.27.67,2.17,2.17,0,0,1,.71,1.69,2.38,2.38,0,0,1-.62,1.73,3.35,3.35,0,0,1-2.47.89,3.61,3.61,0,0,1-.84-.07v3.24h-1Zm1,3.9a3.52,3.52,0,0,0,.86.08c1.26,0,2-.61,2-1.73s-.76-1.58-1.91-1.58a4.38,4.38,0,0,0-1,.08Z" transform="translate(-25.43 -15.05)"/><path class="cls-2" d="M114.42,324.64c0-.68,0-1.27,0-1.81h.92l0,1.14h0a1.74,1.74,0,0,1,1.61-1.27,1.13,1.13,0,0,1,.3,0v1a1.56,1.56,0,0,0-.36,0,1.48,1.48,0,0,0-1.42,1.36,3,3,0,0,0,0,.49v3.09h-1Z" transform="translate(-25.43 -15.05)"/><path class="cls-2" d="M123.48,325.68a2.84,2.84,0,0,1-2.89,3.08,2.76,2.76,0,0,1-2.78-3,2.83,2.83,0,0,1,2.88-3.08A2.75,2.75,0,0,1,123.48,325.68Zm-4.61.06c0,1.27.73,2.23,1.76,2.23s1.76-.95,1.76-2.25c0-1-.49-2.23-1.74-2.23S118.87,324.64,118.87,325.74Z" transform="translate(-25.43 -15.05)"/><path class="cls-2" d="M128.95,328.41a3.9,3.9,0,0,1-1.67.34,2.76,2.76,0,0,1-2.89-3,3,3,0,0,1,3.12-3.08,3.54,3.54,0,0,1,1.46.3l-.24.82a2.45,2.45,0,0,0-1.22-.28,2.19,2.19,0,0,0,0,4.37,3,3,0,0,0,1.29-.29Z" transform="translate(-25.43 -15.05)"/><path class="cls-2" d="M130.19,324.64c0-.68,0-1.27,0-1.81h.92l0,1.14h0a1.74,1.74,0,0,1,1.61-1.27,1.13,1.13,0,0,1,.3,0v1a1.56,1.56,0,0,0-.36,0,1.48,1.48,0,0,0-1.42,1.36,3,3,0,0,0,0,.49v3.09h-1Z" transform="translate(-25.43 -15.05)"/><path class="cls-2" d="M137.27,328.63l-.08-.73h0a2.16,2.16,0,0,1-1.78.86,1.65,1.65,0,0,1-1.77-1.67c0-1.4,1.25-2.17,3.49-2.16v-.12a1.2,1.2,0,0,0-1.32-1.34,2.9,2.9,0,0,0-1.51.43l-.24-.7a3.6,3.6,0,0,1,1.91-.52c1.78,0,2.21,1.21,2.21,2.37v2.17a8.25,8.25,0,0,0,.1,1.39Zm-.16-3c-1.15,0-2.46.18-2.46,1.31a.93.93,0,0,0,1,1,1.44,1.44,0,0,0,1.4-1,1.1,1.1,0,0,0,.06-.34Z" transform="translate(-25.43 -15.05)"/><path class="cls-2" d="M139.69,327.55a2.77,2.77,0,0,0,1.39.42c.77,0,1.13-.38,1.13-.86s-.3-.78-1.08-1.07c-1-.37-1.54-.95-1.54-1.64a1.79,1.79,0,0,1,2-1.7,2.9,2.9,0,0,1,1.43.36l-.26.77a2.26,2.26,0,0,0-1.19-.34c-.62,0-1,.36-1,.79s.35.7,1.1,1c1,.38,1.52.89,1.52,1.75,0,1-.79,1.74-2.17,1.74a3.32,3.32,0,0,1-1.63-.4Z" transform="translate(-25.43 -15.05)"/><path class="cls-2" d="M145.86,321.16v1.67h1.51v.8h-1.51v3.13c0,.72.2,1.13.79,1.13a2.34,2.34,0,0,0,.61-.07l0,.79a2.58,2.58,0,0,1-.94.14,1.46,1.46,0,0,1-1.14-.44,2.15,2.15,0,0,1-.41-1.51v-3.17h-.9v-.8h.9v-1.39Z" transform="translate(-25.43 -15.05)"/><path class="cls-2" d="M149.73,321.19a.65.65,0,0,1-1.31,0,.64.64,0,0,1,.66-.66A.63.63,0,0,1,149.73,321.19Zm-1.17,7.44v-5.8h1.05v5.8Z" transform="translate(-25.43 -15.05)"/><path class="cls-2" d="M151.37,324.4c0-.6,0-1.09,0-1.57h.94l.06,1h0a2.14,2.14,0,0,1,1.92-1.09c.8,0,2.05.48,2.05,2.47v3.47h-1.05v-3.35c0-.94-.35-1.72-1.34-1.72a1.5,1.5,0,0,0-1.42,1.08,1.52,1.52,0,0,0-.07.49v3.49h-1.05Z" transform="translate(-25.43 -15.05)"/><path class="cls-2" d="M161.24,328.63l-.08-.73h0a2.16,2.16,0,0,1-1.78.86,1.65,1.65,0,0,1-1.77-1.67c0-1.4,1.25-2.17,3.49-2.16v-.12a1.2,1.2,0,0,0-1.32-1.34,2.9,2.9,0,0,0-1.51.43l-.24-.7a3.6,3.6,0,0,1,1.91-.52c1.78,0,2.21,1.21,2.21,2.37v2.17a8.25,8.25,0,0,0,.1,1.39Zm-.16-3c-1.15,0-2.46.18-2.46,1.31a.93.93,0,0,0,1,1,1.44,1.44,0,0,0,1.4-1,1.1,1.1,0,0,0,.06-.34Z" transform="translate(-25.43 -15.05)"/><path class="cls-2" d="M165,321.16v1.67h1.51v.8H165v3.13c0,.72.2,1.13.79,1.13a2.34,2.34,0,0,0,.61-.07l0,.79a2.58,2.58,0,0,1-.94.14,1.46,1.46,0,0,1-1.14-.44,2.15,2.15,0,0,1-.41-1.51v-3.17h-.9v-.8h.9v-1.39Z" transform="translate(-25.43 -15.05)"/><path class="cls-2" d="M168.91,321.19a.65.65,0,0,1-1.31,0,.64.64,0,0,1,.66-.66A.63.63,0,0,1,168.91,321.19Zm-1.17,7.44v-5.8h1.05v5.8Z" transform="translate(-25.43 -15.05)"/><path class="cls-2" d="M175.8,325.68a2.84,2.84,0,0,1-2.89,3.08,2.76,2.76,0,0,1-2.78-3,2.83,2.83,0,0,1,2.88-3.08A2.75,2.75,0,0,1,175.8,325.68Zm-4.61.06c0,1.27.73,2.23,1.76,2.23s1.76-.95,1.76-2.25c0-1-.49-2.23-1.74-2.23S171.19,324.64,171.19,325.74Z" transform="translate(-25.43 -15.05)"/><path class="cls-2" d="M177.13,324.4c0-.6,0-1.09,0-1.57H178l.06,1h0a2.14,2.14,0,0,1,1.92-1.09c.8,0,2.05.48,2.05,2.47v3.47H181v-3.35c0-.94-.35-1.72-1.34-1.72a1.5,1.5,0,0,0-1.42,1.08,1.52,1.52,0,0,0-.07.49v3.49h-1.05Z" transform="translate(-25.43 -15.05)"/><path class="cls-2" d="M219.16,375H216v2.91h3.5v.88H215v-8.08h4.37v.88H216v2.55h3.14Z" transform="translate(-25.43 -15.05)"/><path class="cls-2" d="M220.7,377.71a2.77,2.77,0,0,0,1.39.42c.77,0,1.13-.38,1.13-.86s-.3-.78-1.08-1.07c-1-.37-1.54-.95-1.54-1.64a1.79,1.79,0,0,1,2-1.7,2.9,2.9,0,0,1,1.43.36l-.26.77a2.26,2.26,0,0,0-1.19-.34c-.62,0-1,.36-1,.79s.35.7,1.1,1c1,.38,1.52.89,1.52,1.75,0,1-.79,1.74-2.17,1.74a3.32,3.32,0,0,1-1.63-.4Z" transform="translate(-25.43 -15.05)"/><path class="cls-2" d="M226.86,371.32V373h1.51v.8h-1.51v3.13c0,.72.2,1.13.79,1.13a2.34,2.34,0,0,0,.61-.07l0,.79a2.58,2.58,0,0,1-.94.14,1.46,1.46,0,0,1-1.14-.44,2.15,2.15,0,0,1-.41-1.51v-3.17h-.9V373h.9v-1.39Z" transform="translate(-25.43 -15.05)"/><path class="cls-2" d="M230.74,371.35a.65.65,0,0,1-1.31,0,.64.64,0,0,1,.66-.66A.63.63,0,0,1,230.74,371.35Zm-1.17,7.44V373h1.05v5.8Z" transform="translate(-25.43 -15.05)"/><path class="cls-2" d="M232.37,374.56c0-.6,0-1.09,0-1.57h.92l0,.94h0a2,2,0,0,1,1.82-1.07A1.72,1.72,0,0,1,236.8,374h0a2.39,2.39,0,0,1,.65-.76,2,2,0,0,1,1.28-.41c.77,0,1.91.5,1.91,2.52v3.42h-1V375.5c0-1.12-.41-1.79-1.26-1.79a1.37,1.37,0,0,0-1.25,1,1.73,1.73,0,0,0-.08.53v3.59h-1v-3.48c0-.92-.41-1.59-1.21-1.59a1.57,1.57,0,0,0-1.39,1.57v3.5h-1Z" transform="translate(-25.43 -15.05)"/><path class="cls-2" d="M245.59,378.79l-.08-.73h0a2.16,2.16,0,0,1-1.78.86,1.65,1.65,0,0,1-1.77-1.67c0-1.4,1.25-2.17,3.49-2.16V375a1.2,1.2,0,0,0-1.32-1.34,2.9,2.9,0,0,0-1.51.43l-.24-.7a3.6,3.6,0,0,1,1.91-.52c1.78,0,2.21,1.21,2.21,2.37v2.17a8.25,8.25,0,0,0,.1,1.39Zm-.16-3c-1.15,0-2.46.18-2.46,1.31a.93.93,0,0,0,1,1,1.44,1.44,0,0,0,1.4-1,1.09,1.09,0,0,0,.06-.34Z" transform="translate(-25.43 -15.05)"/><path class="cls-2" d="M249.39,371.32V373h1.51v.8h-1.51v3.13c0,.72.2,1.13.79,1.13a2.34,2.34,0,0,0,.61-.07l0,.79a2.58,2.58,0,0,1-.94.14,1.46,1.46,0,0,1-1.14-.44,2.15,2.15,0,0,1-.41-1.51v-3.17h-.9V373h.9v-1.39Z" transform="translate(-25.43 -15.05)"/><path class="cls-2" d="M252.6,376.08a1.86,1.86,0,0,0,2,2,3.82,3.82,0,0,0,1.61-.3l.18.75a4.7,4.7,0,0,1-1.93.36A2.7,2.7,0,0,1,251.6,376c0-1.75,1-3.13,2.72-3.13a2.46,2.46,0,0,1,2.4,2.73,4,4,0,0,1,0,.49Zm3.09-.75a1.5,1.5,0,0,0-1.46-1.72,1.75,1.75,0,0,0-1.62,1.72Z" transform="translate(-25.43 -15.05)"/><path class="cls-2" d="M263,370.27v7c0,.52,0,1.1,0,1.5h-.95l0-1h0a2.14,2.14,0,0,1-2,1.14c-1.4,0-2.48-1.19-2.48-3,0-1.93,1.19-3.12,2.6-3.12a1.94,1.94,0,0,1,1.75.89h0v-3.47ZM262,375.35a1.85,1.85,0,0,0,0-.44,1.55,1.55,0,0,0-1.52-1.22c-1.09,0-1.74,1-1.74,2.24s.58,2.15,1.71,2.15a1.59,1.59,0,0,0,1.55-1.26,1.83,1.83,0,0,0,0-.46Z" transform="translate(-25.43 -15.05)"/><path class="cls-2" d="M271.56,375h-3.14v2.91h3.5v.88h-4.55v-8.08h4.37v.88h-3.32v2.55h3.14Z" transform="translate(-25.43 -15.05)"/><path class="cls-2" d="M276.83,378.79v-5H274.4v5h-1v-5h-.82V373h.82v-.19a2.74,2.74,0,0,1,.65-2,2,2,0,0,1,1.46-.54,1.86,1.86,0,0,1,.83.2l-.22.78a1.56,1.56,0,0,0-.62-.14c-.83,0-1.05.71-1.05,1.62V373h2.43v-.28a2.74,2.74,0,0,1,.68-2,2,2,0,0,1,1.4-.54,2.4,2.4,0,0,1,.9.17l-.13.82A1.65,1.65,0,0,0,279,371c-.89,0-1.13.79-1.13,1.68V373h1.4v.8h-1.39v5Z" transform="translate(-25.43 -15.05)"/><path class="cls-2" d="M280.67,376.08a1.86,1.86,0,0,0,2,2,3.82,3.82,0,0,0,1.61-.3l.18.75a4.7,4.7,0,0,1-1.93.36,2.7,2.7,0,0,1-2.85-2.93c0-1.75,1-3.13,2.72-3.13a2.46,2.46,0,0,1,2.4,2.73,4,4,0,0,1,0,.49Zm3.09-.75a1.5,1.5,0,0,0-1.46-1.72,1.75,1.75,0,0,0-1.62,1.72Z" transform="translate(-25.43 -15.05)"/><path class="cls-2" d="M290.23,378.57a3.9,3.9,0,0,1-1.67.34,2.76,2.76,0,0,1-2.89-3,3,3,0,0,1,3.12-3.08,3.54,3.54,0,0,1,1.46.3L290,374a2.45,2.45,0,0,0-1.22-.28,2.19,2.19,0,0,0,0,4.37,3,3,0,0,0,1.29-.29Z" transform="translate(-25.43 -15.05)"/><path class="cls-2" d="M292.9,371.32V373h1.51v.8H292.9v3.13c0,.72.2,1.13.79,1.13a2.34,2.34,0,0,0,.61-.07l0,.79a2.58,2.58,0,0,1-.94.14,1.46,1.46,0,0,1-1.14-.44,2.15,2.15,0,0,1-.41-1.51v-3.17H291V373h.9v-1.39Z" transform="translate(-25.43 -15.05)"/><path class="cls-2" d="M295.45,377.71a2.77,2.77,0,0,0,1.39.42c.77,0,1.13-.38,1.13-.86s-.3-.78-1.08-1.07c-1-.37-1.54-.95-1.54-1.64a1.79,1.79,0,0,1,2-1.7,2.9,2.9,0,0,1,1.43.36l-.26.77a2.26,2.26,0,0,0-1.19-.34c-.62,0-1,.36-1,.79s.35.7,1.1,1c1,.38,1.52.89,1.52,1.75,0,1-.79,1.74-2.17,1.74a3.32,3.32,0,0,1-1.63-.4Z" transform="translate(-25.43 -15.05)"/><path class="cls-2" d="M308.15,375.84a2.84,2.84,0,0,1-2.89,3.08,2.76,2.76,0,0,1-2.78-3,2.83,2.83,0,0,1,2.88-3.08A2.75,2.75,0,0,1,308.15,375.84Zm-4.61.06c0,1.27.73,2.23,1.76,2.23s1.76-.95,1.76-2.25c0-1-.49-2.23-1.74-2.23S303.54,374.8,303.54,375.9Z" transform="translate(-25.43 -15.05)"/><path class="cls-2" d="M309.48,374.56c0-.6,0-1.09,0-1.57h.94l.06,1h0a2.14,2.14,0,0,1,1.92-1.09c.8,0,2.05.48,2.05,2.47v3.47h-1.05v-3.35c0-.94-.35-1.72-1.34-1.72a1.5,1.5,0,0,0-1.42,1.08,1.52,1.52,0,0,0-.07.49v3.49h-1.05Z" transform="translate(-25.43 -15.05)"/><path class="cls-2" d="M322.91,375h-3.14v2.91h3.5v.88h-4.55v-8.08h4.37v.88h-3.32v2.55h3.14Z" transform="translate(-25.43 -15.05)"/><path class="cls-2" d="M325.08,373l.83,1.25c.22.32.4.62.59.95h0c.19-.35.38-.65.58-1l.82-1.24h1.14l-2,2.81,2,3h-1.2l-.85-1.31c-.23-.34-.42-.66-.62-1h0c-.19.35-.4.66-.61,1l-.84,1.31h-1.16l2.06-3-2-2.84Z" transform="translate(-25.43 -15.05)"/><path class="cls-2" d="M333.36,378.79l-.08-.73h0a2.16,2.16,0,0,1-1.78.86,1.65,1.65,0,0,1-1.77-1.67c0-1.4,1.25-2.17,3.49-2.16V375a1.2,1.2,0,0,0-1.32-1.34,2.9,2.9,0,0,0-1.51.43l-.24-.7a3.6,3.6,0,0,1,1.91-.52c1.78,0,2.21,1.21,2.21,2.37v2.17a8.25,8.25,0,0,0,.1,1.39Zm-.16-3c-1.15,0-2.46.18-2.46,1.31a.93.93,0,0,0,1,1,1.44,1.44,0,0,0,1.4-1,1.09,1.09,0,0,0,.06-.34Z" transform="translate(-25.43 -15.05)"/><path class="cls-2" d="M335.93,374.56c0-.6,0-1.09,0-1.57h.92l0,.94h0a2,2,0,0,1,1.82-1.07,1.72,1.72,0,0,1,1.64,1.16h0a2.39,2.39,0,0,1,.65-.76,2,2,0,0,1,1.28-.41c.77,0,1.91.5,1.91,2.52v3.42h-1V375.5c0-1.12-.41-1.79-1.26-1.79a1.37,1.37,0,0,0-1.25,1,1.73,1.73,0,0,0-.08.53v3.59h-1v-3.48c0-.92-.41-1.59-1.21-1.59a1.57,1.57,0,0,0-1.39,1.57v3.5h-1Z" transform="translate(-25.43 -15.05)"/><path class="cls-2" d="M348.37,377.52a3.7,3.7,0,0,0,1.87.53c1.07,0,1.69-.56,1.69-1.38s-.43-1.19-1.52-1.61c-1.32-.47-2.13-1.15-2.13-2.29a2.33,2.33,0,0,1,2.61-2.2,3.67,3.67,0,0,1,1.79.4l-.29.85a3.21,3.21,0,0,0-1.54-.38c-1.1,0-1.52.66-1.52,1.21,0,.76.49,1.13,1.61,1.56,1.37.53,2.06,1.19,2.06,2.37s-.92,2.33-2.83,2.33a4.18,4.18,0,0,1-2.06-.52Z" transform="translate(-25.43 -15.05)"/><path class="cls-2" d="M358.61,378.57a3.9,3.9,0,0,1-1.67.34,2.76,2.76,0,0,1-2.89-3,3,3,0,0,1,3.12-3.08,3.54,3.54,0,0,1,1.46.3l-.24.82a2.45,2.45,0,0,0-1.22-.28,2.19,2.19,0,0,0,0,4.37,3,3,0,0,0,1.29-.29Z" transform="translate(-25.43 -15.05)"/><path class="cls-2" d="M365,375.84a2.84,2.84,0,0,1-2.89,3.08,2.76,2.76,0,0,1-2.78-3,2.83,2.83,0,0,1,2.88-3.08A2.75,2.75,0,0,1,365,375.84Zm-4.61.06c0,1.27.73,2.23,1.76,2.23s1.76-.95,1.76-2.25c0-1-.49-2.23-1.74-2.23S360.42,374.8,360.42,375.9Z" transform="translate(-25.43 -15.05)"/><path class="cls-2" d="M366.36,374.8c0-.68,0-1.27,0-1.81h.92l0,1.14h0a1.74,1.74,0,0,1,1.61-1.27,1.13,1.13,0,0,1,.3,0v1a1.56,1.56,0,0,0-.36,0,1.48,1.48,0,0,0-1.42,1.36,3,3,0,0,0,0,.49v3.09h-1Z" transform="translate(-25.43 -15.05)"/><path class="cls-2" d="M370.75,376.08a1.86,1.86,0,0,0,2,2,3.82,3.82,0,0,0,1.61-.3l.18.75a4.7,4.7,0,0,1-1.93.36,2.7,2.7,0,0,1-2.85-2.93c0-1.75,1-3.13,2.72-3.13a2.46,2.46,0,0,1,2.4,2.73,4,4,0,0,1,0,.49Zm3.09-.75a1.5,1.5,0,0,0-1.46-1.72,1.75,1.75,0,0,0-1.62,1.72Z" transform="translate(-25.43 -15.05)"/><path class="cls-2" d="M376,377.71a2.77,2.77,0,0,0,1.39.42c.77,0,1.13-.38,1.13-.86s-.3-.78-1.08-1.07c-1-.37-1.54-.95-1.54-1.64a1.79,1.79,0,0,1,2-1.7,2.9,2.9,0,0,1,1.43.36l-.26.77a2.26,2.26,0,0,0-1.19-.34c-.62,0-1,.36-1,.79s.35.7,1.1,1c1,.38,1.52.89,1.52,1.75,0,1-.79,1.74-2.17,1.74a3.32,3.32,0,0,1-1.63-.4Z" transform="translate(-25.43 -15.05)"/><path class="cls-2" d="M200.91,312.19v.71h-2.72v-.71Z" transform="translate(-25.43 -15.05)"/><path class="cls-2" d="M206.49,311.87c0,2.43-.9,3.77-2.49,3.77-1.4,0-2.34-1.31-2.37-3.67s1-3.72,2.49-3.72S206.49,309.59,206.49,311.87Zm-3.88.11c0,1.86.57,2.92,1.45,2.92s1.46-1.16,1.46-3-.45-2.92-1.45-2.92C203.22,309,202.6,310,202.6,312Z" transform="translate(-25.43 -15.05)"/><path class="cls-2" d="M207.45,314.95a.65.65,0,0,1,.66-.69.69.69,0,1,1-.66.69Z" transform="translate(-25.43 -15.05)"/><path class="cls-2" d="M214.41,311.87c0,2.43-.9,3.77-2.49,3.77-1.4,0-2.34-1.31-2.37-3.67s1-3.72,2.49-3.72S214.41,309.59,214.41,311.87Zm-3.88.11c0,1.86.57,2.92,1.45,2.92s1.46-1.16,1.46-3S213,309,212,309C211.14,309,210.52,310,210.52,312Z" transform="translate(-25.43 -15.05)"/><path class="cls-2" d="M217.4,309.27h0l-1.24.67-.19-.74,1.56-.84h.83v7.15h-.93Z" transform="translate(-25.43 -15.05)"/><path class="cls-2" d="M223,309.27h0l-1.24.67-.19-.74,1.56-.84H224v7.15H223Z" transform="translate(-25.43 -15.05)"/><path class="cls-2" d="M232.14,310.38c0,1.51-.79,2.25-1.72,2.25s-1.66-.71-1.67-2.16.78-2.23,1.73-2.23S232.14,309,232.14,310.38Zm-2.62.07c0,.91.32,1.61.92,1.61s.92-.68.92-1.63-.25-1.6-.92-1.6S229.52,309.55,229.52,310.45Zm.84,5.19,4.2-7.39h.62l-4.2,7.39Zm6.44-2.3c0,1.51-.79,2.26-1.71,2.26s-1.66-.71-1.67-2.15.78-2.24,1.73-2.24S236.79,312,236.79,313.34Zm-2.62.07c0,.91.34,1.61.94,1.61s.92-.68.92-1.63-.25-1.59-.92-1.59S234.17,312.5,234.17,313.41Z" transform="translate(-25.43 -15.05)"/><path class="cls-2" d="M239.64,316.87a15.82,15.82,0,0,0,.66-2.63l1.08-.11a13.43,13.43,0,0,1-1,2.67Z" transform="translate(-25.43 -15.05)"/><path class="cls-2" d="M244.88,311.93c0-.68,0-1.23,0-1.74h.87l0,.91h0a2.09,2.09,0,0,1,1.89-1c1.29,0,2.25,1.09,2.25,2.71,0,1.91-1.17,2.86-2.42,2.86a1.87,1.87,0,0,1-1.64-.84h0v2.89h-1Zm1,1.42a2.14,2.14,0,0,0,0,.4,1.49,1.49,0,0,0,1.45,1.13c1,0,1.62-.84,1.62-2.06,0-1.07-.56-2-1.58-2a1.67,1.67,0,0,0-1.53,1.6Z" transform="translate(-25.43 -15.05)"/><path class="cls-2" d="M250.77,311.81v-.66h5.68v.66Zm0,2.16v-.66h5.68V314Z" transform="translate(-25.43 -15.05)"/><path class="cls-2" d="M264.47,311.87c0,2.43-.9,3.77-2.49,3.77-1.4,0-2.34-1.31-2.37-3.67s1-3.72,2.49-3.72S264.47,309.59,264.47,311.87Zm-3.88.11c0,1.86.57,2.92,1.45,2.92s1.46-1.16,1.46-3S263,309,262,309C261.2,309,260.58,310,260.58,312Z" transform="translate(-25.43 -15.05)"/><path class="cls-2" d="M265.43,314.95a.65.65,0,0,1,.66-.69.69.69,0,1,1-.66.69Z" transform="translate(-25.43 -15.05)"/><path class="cls-2" d="M267.55,313.7a2,2,0,0,1,1.42-1.91v0a1.77,1.77,0,0,1-1.13-1.61,2,2,0,0,1,2.21-1.9,1.85,1.85,0,0,1,2.08,1.76,1.82,1.82,0,0,1-1.18,1.67v0a2,2,0,0,1,1.44,1.85,2.2,2.2,0,0,1-2.43,2.08C268.45,315.64,267.55,314.75,267.55,313.7Zm3.85,0c0-.87-.61-1.29-1.57-1.56a1.55,1.55,0,0,0-1.29,1.47,1.32,1.32,0,0,0,1.43,1.36A1.29,1.29,0,0,0,271.4,313.66Zm-2.66-3.58c0,.71.54,1.1,1.36,1.32a1.41,1.41,0,0,0,1.09-1.3,1.11,1.11,0,0,0-1.21-1.17A1.14,1.14,0,0,0,268.73,310.08Z" transform="translate(-25.43 -15.05)"/><path class="cls-2" d="M277.55,309.18h-2.73l-.27,1.84a3.87,3.87,0,0,1,.58,0,3,3,0,0,1,1.54.39,2,2,0,0,1,1,1.84,2.48,2.48,0,0,1-2.66,2.44,3.49,3.49,0,0,1-1.78-.44l.24-.74a3.19,3.19,0,0,0,1.53.4,1.58,1.58,0,0,0,1.69-1.55c0-.92-.63-1.58-2.06-1.58a7.37,7.37,0,0,0-1,.08l.46-3.43h3.42Z" transform="translate(-25.43 -15.05)"/><path class="cls-2" d="M281,309.27h0l-1.24.67-.19-.74,1.56-.84H282v7.15H281Z" transform="translate(-25.43 -15.05)"/><path class="cls-2" d="M304.81,266.33c0,2.43-.9,3.77-2.49,3.77-1.4,0-2.34-1.31-2.37-3.67s1-3.72,2.49-3.72S304.81,264.06,304.81,266.33Zm-3.88.11c0,1.86.57,2.92,1.45,2.92s1.46-1.16,1.46-3-.45-2.92-1.45-2.92C301.54,263.46,300.92,264.5,300.92,266.44Z" transform="translate(-25.43 -15.05)"/><path class="cls-2" d="M305.77,269.41a.65.65,0,0,1,.66-.69.69.69,0,1,1-.66.69Z" transform="translate(-25.43 -15.05)"/><path class="cls-2" d="M310.08,263.74h0l-1.24.67-.19-.74,1.56-.84H311V270h-.93Z" transform="translate(-25.43 -15.05)"/><path class="cls-2" d="M313.85,268.88a3.24,3.24,0,0,0,1.58.45c1.24,0,1.63-.79,1.62-1.39,0-1-.91-1.43-1.85-1.43h-.54v-.73h.54c.7,0,1.6-.36,1.6-1.21,0-.57-.36-1.08-1.25-1.08a2.62,2.62,0,0,0-1.43.47l-.25-.7a3.39,3.39,0,0,1,1.87-.55c1.41,0,2,.84,2,1.71a1.77,1.77,0,0,1-1.32,1.68v0A1.86,1.86,0,0,1,318,268c0,1.14-.89,2.15-2.61,2.15a3.63,3.63,0,0,1-1.86-.48Z" transform="translate(-25.43 -15.05)"/><path class="cls-2" d="M323.34,263.52a3.52,3.52,0,0,0-.73,0,2.91,2.91,0,0,0-2.49,2.54h0a2.18,2.18,0,0,1,3.88,1.49,2.39,2.39,0,0,1-2.38,2.52c-1.53,0-2.53-1.19-2.53-3a4.49,4.49,0,0,1,1.21-3.22,3.89,3.89,0,0,1,2.29-1.06,4.63,4.63,0,0,1,.7-.05Zm-.27,4.13a1.45,1.45,0,0,0-1.47-1.64,1.59,1.59,0,0,0-1.39.88.82.82,0,0,0-.11.43c0,1.18.56,2,1.57,2C322.5,269.36,323.07,268.67,323.07,267.64Z" transform="translate(-25.43 -15.05)"/><path class="cls-2" d="M330.46,264.85c0,1.51-.79,2.25-1.72,2.25s-1.66-.71-1.67-2.16.78-2.23,1.73-2.23S330.46,263.48,330.46,264.85Zm-2.62.07c0,.91.32,1.61.92,1.61s.92-.68.92-1.63-.25-1.6-.92-1.6S327.84,264,327.84,264.92Zm.84,5.19,4.2-7.39h.62l-4.2,7.39Zm6.44-2.3c0,1.51-.79,2.26-1.71,2.26s-1.66-.71-1.67-2.15.78-2.24,1.73-2.24S335.11,266.44,335.11,267.81Zm-2.62.07c0,.91.34,1.61.94,1.61s.92-.68.92-1.63-.25-1.59-.92-1.59S332.49,267,332.49,267.87Z" transform="translate(-25.43 -15.05)"/><path class="cls-2" d="M338,271.34a15.82,15.82,0,0,0,.66-2.63l1.08-.11a13.43,13.43,0,0,1-1,2.67Z" transform="translate(-25.43 -15.05)"/><path class="cls-2" d="M343.19,266.4c0-.68,0-1.23,0-1.74H344l0,.91h0a2.09,2.09,0,0,1,1.89-1c1.29,0,2.25,1.09,2.25,2.71,0,1.91-1.17,2.86-2.42,2.86a1.87,1.87,0,0,1-1.64-.84h0v2.89h-1Zm1,1.42a2.14,2.14,0,0,0,0,.4,1.49,1.49,0,0,0,1.45,1.13c1,0,1.62-.84,1.62-2.06,0-1.07-.56-2-1.58-2a1.67,1.67,0,0,0-1.53,1.6Z" transform="translate(-25.43 -15.05)"/><path class="cls-2" d="M349.09,266.28v-.66h5.68v.66Zm0,2.16v-.66h5.68v.66Z" transform="translate(-25.43 -15.05)"/><path class="cls-2" d="M362.79,266.33c0,2.43-.9,3.77-2.49,3.77-1.4,0-2.34-1.31-2.37-3.67s1-3.72,2.49-3.72S362.79,264.06,362.79,266.33Zm-3.88.11c0,1.86.57,2.92,1.45,2.92s1.46-1.16,1.46-3-.45-2.92-1.45-2.92C359.52,263.46,358.9,264.5,358.9,266.44Z" transform="translate(-25.43 -15.05)"/><path class="cls-2" d="M363.75,269.41a.65.65,0,0,1,.66-.69.69.69,0,1,1-.66.69Z" transform="translate(-25.43 -15.05)"/><path class="cls-2" d="M370.71,266.33c0,2.43-.9,3.77-2.49,3.77-1.4,0-2.34-1.31-2.37-3.67s1-3.72,2.49-3.72S370.71,264.06,370.71,266.33Zm-3.88.11c0,1.86.57,2.92,1.45,2.92s1.46-1.16,1.46-3-.45-2.92-1.45-2.92C367.44,263.46,366.82,264.5,366.82,266.44Z" transform="translate(-25.43 -15.05)"/><path class="cls-2" d="M376.35,266.33c0,2.43-.9,3.77-2.49,3.77-1.4,0-2.34-1.31-2.37-3.67s1-3.72,2.49-3.72S376.35,264.06,376.35,266.33Zm-3.88.11c0,1.86.57,2.92,1.45,2.92s1.46-1.16,1.46-3-.45-2.92-1.45-2.92C373.08,263.46,372.46,264.5,372.46,266.44Z" transform="translate(-25.43 -15.05)"/><path class="cls-2" d="M377.24,270v-.59l.76-.74c1.83-1.74,2.65-2.66,2.66-3.74a1.28,1.28,0,0,0-1.42-1.4,2.44,2.44,0,0,0-1.52.6l-.31-.68a3.14,3.14,0,0,1,2-.73,2,2,0,0,1,2.19,2.08c0,1.32-1,2.39-2.46,3.84l-.57.53v0h3.21v.8Z" transform="translate(-25.43 -15.05)"/><path class="cls-2" d="M383.44,269.31a4.07,4.07,0,0,0,.78,0,2.7,2.7,0,0,0,1.5-.69,3.13,3.13,0,0,0,.95-1.9h0a2.1,2.1,0,0,1-1.68.77,2.07,2.07,0,0,1-2.11-2.19,2.45,2.45,0,0,1,2.44-2.54c1.46,0,2.37,1.19,2.37,3a4.52,4.52,0,0,1-1.23,3.36,3.57,3.57,0,0,1-2.08,1,4.49,4.49,0,0,1-.89.06Zm.35-4.12a1.38,1.38,0,0,0,1.38,1.52,1.6,1.6,0,0,0,1.41-.75.63.63,0,0,0,.09-.35c0-1.22-.45-2.16-1.46-2.16C384.38,263.45,383.79,264.18,383.79,265.19Z" transform="translate(-25.43 -15.05)"/><path class="cls-6" d="M392.49,281H317.8a1.5,1.5,0,0,1,0-3h74.69a1.5,1.5,0,0,1,0,3Z" transform="translate(-25.43 -15.05)"/><path class="cls-6" d="M292.33,326.62H198.54a1.5,1.5,0,1,1,0-3h93.78a1.5,1.5,0,0,1,0,3Z" transform="translate(-25.43 -15.05)"/></svg>