<svg id="Слой_2" data-name="Слой 2" xmlns="http://www.w3.org/2000/svg" xmlns:xlink="http://www.w3.org/1999/xlink" viewBox="0 0 334.74 317.43"><defs><style>.cls-1{fill:none;}.cls-2{fill:#fe3737;}.cls-3{fill:#f6eeca;}.cls-4{fill:#029d41;}.cls-5{clip-path:url(#clip-path);}.cls-6{fill:#ffc61a;}.cls-7{fill:#db9770;}.cls-8{fill:#303134;}.cls-9{fill:#b87f5e;}.cls-10{clip-path:url(#clip-path-2);}.cls-11{fill:#c92c2c;}.cls-12{fill:#4f6ddb;}</style><clipPath id="clip-path" transform="translate(-44.26 -37.89)"><circle class="cls-1" cx="117.41" cy="76.96" r="41.96"/></clipPath><clipPath id="clip-path-2" transform="translate(-44.26 -37.89)"><circle class="cls-1" cx="313.79" cy="76.96" r="41.96"/></clipPath></defs><title>ACM ICER 2021_dark_mode</title><rect class="cls-2" x="70.6" y="234.33" width="21.18" height="61.11"/><rect class="cls-2" x="107.63" y="221.51" width="21.18" height="73.92"/><rect class="cls-2" x="144.65" y="208.7" width="21.18" height="86.74"/><rect class="cls-2" x="181.68" y="195.89" width="21.18" height="99.55"/><rect class="cls-2" x="223.49" y="184.08" width="21.18" height="112.36"/><rect class="cls-2" x="260.52" y="171.27" width="21.18" height="125.18"/><path class="cls-3" d="M362.23,335.58H100.07V206.52a1.25,1.25,0,0,1,2.5,0V333.09H362.23a1.25,1.25,0,1,1,0,2.5Z" transform="translate(-44.26 -37.89)"/><path class="cls-3" d="M182.61,351.67a2.39,2.39,0,0,0,2.56,2.59,4.89,4.89,0,0,0,2.06-.39l.23,1a6.05,6.05,0,0,1-2.48.46,3.46,3.46,0,0,1-3.66-3.76c0-2.25,1.32-4,3.5-4,2.43,0,3.08,2.14,3.08,3.51a5.28,5.28,0,0,1,0,.63Zm4-1a1.93,1.93,0,0,0-1.88-2.2,2.25,2.25,0,0,0-2.08,2.2Z" transform="translate(-44.26 -37.89)"/><path class="cls-3" d="M190.16,347.69l1.06,1.6c.28.42.51.8.75,1.22h0c.25-.45.49-.83.74-1.23l1-1.59h1.46l-2.54,3.6,2.62,3.85h-1.54l-1.09-1.68c-.29-.43-.54-.85-.8-1.29h0c-.25.45-.51.85-.79,1.29L190,355.15h-1.49l2.65-3.8-2.53-3.65Z" transform="translate(-44.26 -37.89)"/><path class="cls-3" d="M200.78,355.15l-.11-.94h0a2.77,2.77,0,0,1-2.28,1.11,2.12,2.12,0,0,1-2.28-2.14c0-1.8,1.6-2.79,4.48-2.77v-.15a1.54,1.54,0,0,0-1.69-1.72,3.72,3.72,0,0,0-1.94.55l-.31-.89a4.62,4.62,0,0,1,2.45-.66c2.28,0,2.83,1.55,2.83,3v2.79a10.55,10.55,0,0,0,.12,1.79Zm-.2-3.8c-1.48,0-3.16.23-3.16,1.68a1.2,1.2,0,0,0,1.28,1.29,1.85,1.85,0,0,0,1.8-1.25,1.4,1.4,0,0,0,.08-.43Z" transform="translate(-44.26 -37.89)"/><path class="cls-3" d="M204.08,349.71c0-.77,0-1.4-.06-2h1.19l.06,1.2h0a2.57,2.57,0,0,1,2.34-1.37,2.2,2.2,0,0,1,2.11,1.49h0a3.08,3.08,0,0,1,.83-1,2.54,2.54,0,0,1,1.65-.52c1,0,2.45.65,2.45,3.23v4.39H213.4v-4.22c0-1.43-.52-2.29-1.62-2.29a1.75,1.75,0,0,0-1.6,1.23,2.24,2.24,0,0,0-.11.68v4.6h-1.32v-4.46c0-1.19-.52-2-1.55-2a2,2,0,0,0-1.79,2v4.5h-1.32Z" transform="translate(-44.26 -37.89)"/><path class="cls-3" d="M220,353.76a3.55,3.55,0,0,0,1.79.54c1,0,1.45-.49,1.45-1.11s-.38-1-1.38-1.37c-1.34-.48-2-1.22-2-2.11a2.3,2.3,0,0,1,2.57-2.19,3.73,3.73,0,0,1,1.83.46l-.34,1a2.91,2.91,0,0,0-1.52-.43c-.8,0-1.25.46-1.25,1s.45.89,1.42,1.26c1.29.49,2,1.14,2,2.25,0,1.31-1,2.23-2.79,2.23a4.24,4.24,0,0,1-2.09-.51Z" transform="translate(-44.26 -37.89)"/><path class="cls-3" d="M231.6,354.87a5,5,0,0,1-2.14.43,3.54,3.54,0,0,1-3.71-3.8,3.79,3.79,0,0,1,4-4,4.54,4.54,0,0,1,1.88.38l-.31,1a3.14,3.14,0,0,0-1.57-.35,2.81,2.81,0,0,0,0,5.6,3.86,3.86,0,0,0,1.66-.37Z" transform="translate(-44.26 -37.89)"/><path class="cls-3" d="M239.84,351.36a3.64,3.64,0,0,1-3.71,4,3.54,3.54,0,0,1-3.57-3.83,3.64,3.64,0,0,1,3.7-4A3.53,3.53,0,0,1,239.84,351.36Zm-5.91.08c0,1.63.94,2.86,2.26,2.86s2.26-1.22,2.26-2.89c0-1.26-.63-2.86-2.23-2.86S233.93,350,233.93,351.44Z" transform="translate(-44.26 -37.89)"/><path class="cls-3" d="M241.55,350c0-.88,0-1.63-.06-2.33h1.19l0,1.46h.06a2.24,2.24,0,0,1,2.06-1.63,1.49,1.49,0,0,1,.38,0v1.28a2,2,0,0,0-.46,0,1.9,1.9,0,0,0-1.82,1.74,3.76,3.76,0,0,0-.06.63v4h-1.34Z" transform="translate(-44.26 -37.89)"/><path class="cls-3" d="M247.19,351.67a2.39,2.39,0,0,0,2.56,2.59,4.89,4.89,0,0,0,2.06-.39l.23,1a6.05,6.05,0,0,1-2.48.46,3.46,3.46,0,0,1-3.66-3.76c0-2.25,1.32-4,3.5-4,2.43,0,3.08,2.14,3.08,3.51a5.28,5.28,0,0,1,0,.63Zm4-1a1.93,1.93,0,0,0-1.88-2.2,2.25,2.25,0,0,0-2.08,2.2Z" transform="translate(-44.26 -37.89)"/><path class="cls-3" d="M254,353.76a3.55,3.55,0,0,0,1.79.54c1,0,1.45-.49,1.45-1.11s-.38-1-1.38-1.37c-1.34-.48-2-1.22-2-2.11a2.3,2.3,0,0,1,2.57-2.19,3.73,3.73,0,0,1,1.83.46l-.34,1a2.91,2.91,0,0,0-1.52-.43c-.8,0-1.25.46-1.25,1s.45.89,1.42,1.26c1.29.49,2,1.14,2,2.25,0,1.31-1,2.23-2.79,2.23a4.24,4.24,0,0,1-2.09-.51Z" transform="translate(-44.26 -37.89)"/><path class="cls-3" d="M84.65,303.55a4.75,4.75,0,0,0,.68-2.4c0-1.37-.72-2.17-1.77-2.17s-1.52.55-2.06,2c-.6,1.69-1.48,2.74-2.94,2.74-1.62,0-2.82-1.34-2.82-3.36a4.71,4.71,0,0,1,.51-2.29l1.09.37a4.13,4.13,0,0,0-.49,2c0,1.42.85,2,1.55,2,1,0,1.45-.63,2-2.06.68-1.75,1.52-2.65,3-2.65s3,1.19,3,3.63a5.37,5.37,0,0,1-.66,2.65Z" transform="translate(-44.26 -37.89)"/><path class="cls-3" d="M81.26,295.82c-1,0-1.72,0-2.43.06v-1.22l1.28-.06v0a2.93,2.93,0,0,1-1.45-2.65c0-1.8,1.52-3.16,3.79-3.16,2.68,0,4,1.63,4,3.39a2.61,2.61,0,0,1-1.17,2.29v0h4v1.34Zm2-1.34a3,3,0,0,0,.55-.06,2.09,2.09,0,0,0,1.59-2c0-1.43-1.17-2.26-2.88-2.26-1.49,0-2.77.79-2.77,2.22a2.16,2.16,0,0,0,1.68,2,2.2,2.2,0,0,0,.55.09Z" transform="translate(-44.26 -37.89)"/><path class="cls-3" d="M86.28,282.93l-.94.11v0a2.77,2.77,0,0,1,1.11,2.28,2.12,2.12,0,0,1-2.14,2.28c-1.8,0-2.79-1.6-2.77-4.48h-.15a1.54,1.54,0,0,0-1.72,1.69,3.72,3.72,0,0,0,.55,1.94l-.89.31a4.62,4.62,0,0,1-.66-2.45c0-2.28,1.55-2.83,3-2.83H84.5a10.55,10.55,0,0,0,1.79-.12Zm-3.8.2c0,1.48.23,3.16,1.68,3.16A1.2,1.2,0,0,0,85.45,285a1.85,1.85,0,0,0-1.25-1.8,1.4,1.4,0,0,0-.43-.08Z" transform="translate(-44.26 -37.89)"/><path class="cls-3" d="M86,274.32a5,5,0,0,1,.43,2.14,3.54,3.54,0,0,1-3.8,3.71,3.79,3.79,0,0,1-4-4,4.54,4.54,0,0,1,.38-1.88l1,.31a3.14,3.14,0,0,0-.35,1.57,2.81,2.81,0,0,0,5.6,0,3.86,3.86,0,0,0-.37-1.66Z" transform="translate(-44.26 -37.89)"/><path class="cls-3" d="M76.74,271.23a.84.84,0,0,1,0,1.68.83.83,0,0,1-.85-.85A.8.8,0,0,1,76.74,271.23Zm9.55,1.51H78.83v-1.35h7.45Z" transform="translate(-44.26 -37.89)"/><path class="cls-3" d="M80.85,269.13c-.77,0-1.4,0-2,.06V268l1.23-.08v0a2.74,2.74,0,0,1-1.4-2.46c0-1,.62-2.63,3.17-2.63h4.45v1.35H82c-1.2,0-2.2.45-2.2,1.72a1.92,1.92,0,0,0,1.39,1.82,2,2,0,0,0,.63.09h4.48v1.35Z" transform="translate(-44.26 -37.89)"/><path class="cls-3" d="M78.83,254.16c.54,0,1.14.06,2,.06H85.2c1.71,0,2.76.34,3.4,1.06A4,4,0,0,1,89.5,258a4.81,4.81,0,0,1-.62,2.48l-1-.34a4.21,4.21,0,0,0,.58-2.19c0-1.39-.72-2.4-2.6-2.4H85v0A2.66,2.66,0,0,1,86.25,258c0,1.85-1.57,3.17-3.63,3.17-2.53,0-4-1.65-4-3.36A2.48,2.48,0,0,1,80,255.44v0l-1.12-.06Zm2.94,1.4a1.93,1.93,0,0,0-.62.08,2,2,0,0,0-1.43,1.89c0,1.29,1.09,2.22,2.82,2.22,1.46,0,2.68-.74,2.68-2.2a2,2,0,0,0-1.39-1.88,2.35,2.35,0,0,0-.72-.11Z" transform="translate(-44.26 -37.89)"/><path class="cls-3" d="M86.87,170.29a5.65,5.65,0,0,0,3,.88c1.69,0,2.68-.94,2.68-2.3s-.68-2-2.41-2.68c-2.09-.78-3.38-1.92-3.38-3.82,0-2.1,1.65-3.66,4.14-3.66a5.59,5.59,0,0,1,2.83.66l-.46,1.42a4.9,4.9,0,0,0-2.43-.64c-1.75,0-2.41,1.1-2.41,2,0,1.26.78,1.88,2.55,2.6,2.17.88,3.27,2,3.27,4s-1.46,3.88-4.49,3.88a6.36,6.36,0,0,1-3.27-.86Z" transform="translate(-44.26 -37.89)"/><path class="cls-3" d="M96.41,165.89c0-1.24,0-2.24-.08-3.16h1.5l.08,1.66h0a3.58,3.58,0,0,1,3.27-1.88c2.22,0,3.9,2,3.9,4.92,0,3.48-2,5.2-4.18,5.2a3.18,3.18,0,0,1-2.83-1.52h0v5.26H96.41Zm1.65,2.58a4.15,4.15,0,0,0,.08.72,2.61,2.61,0,0,0,2.51,2.06c1.77,0,2.79-1.52,2.79-3.74,0-1.94-1-3.6-2.74-3.6a2.7,2.7,0,0,0-2.53,2.18,3,3,0,0,0-.11.72Z" transform="translate(-44.26 -37.89)"/><path class="cls-3" d="M112.33,172.41l-.13-1.22h-.06a3.37,3.37,0,0,1-2.81,1.44,2.69,2.69,0,0,1-2.81-2.78c0-2.34,2-3.62,5.53-3.6v-.2a2,2,0,0,0-2.09-2.24,4.42,4.42,0,0,0-2.4.72l-.38-1.16a5.5,5.5,0,0,1,3-.86c2.81,0,3.5,2,3.5,4v3.62a14.43,14.43,0,0,0,.15,2.32Zm-.25-4.94c-1.83,0-3.9.3-3.9,2.18a1.52,1.52,0,0,0,1.58,1.68,2.3,2.3,0,0,0,2.22-1.62,1.91,1.91,0,0,0,.1-.56Z" transform="translate(-44.26 -37.89)"/><path class="cls-3" d="M123,172.05a5.9,5.9,0,0,1-2.64.56c-2.78,0-4.58-2-4.58-4.94a4.8,4.8,0,0,1,4.94-5.14,5.36,5.36,0,0,1,2.32.5l-.38,1.36a3.73,3.73,0,0,0-1.94-.46c-2.11,0-3.25,1.64-3.25,3.66,0,2.24,1.37,3.62,3.19,3.62a4.55,4.55,0,0,0,2.05-.48Z" transform="translate(-44.26 -37.89)"/><path class="cls-3" d="M126.78,160a1,1,0,1,1-2.07,0,1,1,0,0,1,1-1.1A1,1,0,0,1,126.78,160Zm-1.86,12.4v-9.68h1.67v9.68Z" transform="translate(-44.26 -37.89)"/><path class="cls-3" d="M129.37,165.35c0-1,0-1.82-.08-2.62h1.48l.09,1.6h0a3.36,3.36,0,0,1,3-1.82c1.27,0,3.25.8,3.25,4.12v5.78h-1.67v-5.58c0-1.56-.55-2.86-2.13-2.86a2.4,2.4,0,0,0-2.24,1.8,2.65,2.65,0,0,0-.11.82v5.82h-1.67Z" transform="translate(-44.26 -37.89)"/><path class="cls-3" d="M147.85,162.73c0,.7-.08,1.48-.08,2.66V171c0,2.22-.42,3.58-1.31,4.42a4.72,4.72,0,0,1-3.35,1.16,5.71,5.71,0,0,1-3.06-.8l.42-1.34a5,5,0,0,0,2.7.76c1.71,0,3-.94,3-3.38v-1.08h0a3.25,3.25,0,0,1-2.93,1.62c-2.28,0-3.92-2-3.92-4.72,0-3.28,2-5.14,4.14-5.14a3,3,0,0,1,2.87,1.68h0l.08-1.46Zm-1.73,3.82a2.63,2.63,0,0,0-.09-.8,2.43,2.43,0,0,0-2.34-1.86c-1.6,0-2.74,1.42-2.74,3.66,0,1.9.91,3.48,2.72,3.48a2.46,2.46,0,0,0,2.32-1.8,3.22,3.22,0,0,0,.13-.94Z" transform="translate(-44.26 -37.89)"/><rect class="cls-4" x="49.09" y="89.51" width="8.88" height="20.39" rx="1.72" ry="1.72"/><rect class="cls-4" x="13.28" y="89.51" width="8.88" height="20.39" rx="1.72" ry="1.72"/><rect class="cls-4" x="85.59" y="89.51" width="8.88" height="20.39" rx="1.72" ry="1.72"/><rect class="cls-4" x="123.78" y="89.51" width="8.88" height="20.39" rx="1.72" ry="1.72"/><path class="cls-3" d="M187.86,154.19h-10a1,1,0,0,1,0-2h10a1,1,0,0,1,0,2Zm-20,0h-10a1,1,0,0,1,0-2h10a1,1,0,0,1,0,2Zm-20,0h-10a1,1,0,0,1,0-2h10a1,1,0,0,1,0,2Zm-20,0h-10a1,1,0,1,1,0-2h10a1,1,0,1,1,0,2Zm-20,0h-10a1,1,0,1,1,0-2h10a1,1,0,0,1,0,2Zm-20,0h-10a1,1,0,1,1,0-2h10a1,1,0,0,1,0,2Zm-20,0h-10a1,1,0,1,1,0-2h10a1,1,0,0,1,0,2Zm-20,0h-2.6a1,1,0,0,1,0-2h2.6a1,1,0,0,1,0,2Z" transform="translate(-44.26 -37.89)"/><path class="cls-3" d="M182.66,158.38a1,1,0,0,1-.52-1.86l5.58-3.38-5.63-3.88a1,1,0,0,1,1.13-1.65l8.17,5.63-8.22,5A1,1,0,0,1,182.66,158.38Z" transform="translate(-44.26 -37.89)"/><path class="cls-3" d="M283.25,170.29a5.65,5.65,0,0,0,3,.88c1.69,0,2.68-.94,2.68-2.3s-.68-2-2.41-2.68c-2.09-.78-3.38-1.92-3.38-3.82,0-2.1,1.65-3.66,4.14-3.66a5.59,5.59,0,0,1,2.83.66l-.46,1.42a4.9,4.9,0,0,0-2.43-.64c-1.75,0-2.41,1.1-2.41,2,0,1.26.78,1.88,2.55,2.6,2.17.88,3.27,2,3.27,4s-1.46,3.88-4.49,3.88a6.36,6.36,0,0,1-3.27-.86Z" transform="translate(-44.26 -37.89)"/><path class="cls-3" d="M292.8,165.89c0-1.24,0-2.24-.08-3.16h1.5l.08,1.66h0a3.58,3.58,0,0,1,3.27-1.88c2.22,0,3.9,2,3.9,4.92,0,3.48-2,5.2-4.18,5.2a3.18,3.18,0,0,1-2.83-1.52h0v5.26H292.8Zm1.65,2.58a4.15,4.15,0,0,0,.08.72,2.61,2.61,0,0,0,2.51,2.06c1.77,0,2.79-1.52,2.79-3.74,0-1.94-1-3.6-2.74-3.6a2.7,2.7,0,0,0-2.53,2.18,3,3,0,0,0-.11.72Z" transform="translate(-44.26 -37.89)"/><path class="cls-3" d="M308.71,172.41l-.13-1.22h-.06a3.37,3.37,0,0,1-2.81,1.44,2.69,2.69,0,0,1-2.81-2.78c0-2.34,2-3.62,5.53-3.6v-.2a2,2,0,0,0-2.09-2.24,4.42,4.42,0,0,0-2.4.72l-.38-1.16a5.5,5.5,0,0,1,3-.86c2.81,0,3.5,2,3.5,4v3.62a14.43,14.43,0,0,0,.15,2.32Zm-.25-4.94c-1.83,0-3.9.3-3.9,2.18a1.52,1.52,0,0,0,1.58,1.68,2.3,2.3,0,0,0,2.22-1.62,1.91,1.91,0,0,0,.1-.56Z" transform="translate(-44.26 -37.89)"/><path class="cls-3" d="M319.34,172.05a5.9,5.9,0,0,1-2.64.56c-2.78,0-4.58-2-4.58-4.94a4.8,4.8,0,0,1,4.94-5.14,5.36,5.36,0,0,1,2.32.5l-.38,1.36a3.73,3.73,0,0,0-1.94-.46c-2.11,0-3.25,1.64-3.25,3.66,0,2.24,1.37,3.62,3.19,3.62a4.55,4.55,0,0,0,2.05-.48Z" transform="translate(-44.26 -37.89)"/><path class="cls-3" d="M323.16,160a1,1,0,1,1-2.07,0,1,1,0,0,1,1-1.1A1,1,0,0,1,323.16,160Zm-1.86,12.4v-9.68H323v9.68Z" transform="translate(-44.26 -37.89)"/><path class="cls-3" d="M325.75,165.35c0-1,0-1.82-.08-2.62h1.48l.09,1.6h0a3.36,3.36,0,0,1,3-1.82c1.27,0,3.25.8,3.25,4.12v5.78h-1.67v-5.58c0-1.56-.55-2.86-2.13-2.86a2.4,2.4,0,0,0-2.24,1.8,2.65,2.65,0,0,0-.11.82v5.82h-1.67Z" transform="translate(-44.26 -37.89)"/><path class="cls-3" d="M344.23,162.73c0,.7-.08,1.48-.08,2.66V171c0,2.22-.42,3.58-1.31,4.42a4.72,4.72,0,0,1-3.35,1.16,5.71,5.71,0,0,1-3.06-.8l.42-1.34a5,5,0,0,0,2.7.76c1.71,0,3-.94,3-3.38v-1.08h0a3.25,3.25,0,0,1-2.93,1.62c-2.28,0-3.92-2-3.92-4.72,0-3.28,2-5.14,4.14-5.14a3,3,0,0,1,2.87,1.68h0l.08-1.46Zm-1.73,3.82a2.63,2.63,0,0,0-.09-.8,2.43,2.43,0,0,0-2.34-1.86c-1.6,0-2.74,1.42-2.74,3.66,0,1.9.91,3.48,2.72,3.48a2.46,2.46,0,0,0,2.32-1.8,3.22,3.22,0,0,0,.13-.94Z" transform="translate(-44.26 -37.89)"/><rect class="cls-4" x="217.56" y="89.51" width="8.88" height="20.39" rx="1.72" ry="1.72"/><rect class="cls-4" x="273.91" y="89.51" width="8.88" height="20.39" rx="1.72" ry="1.72"/><rect class="cls-4" x="292.23" y="89.51" width="8.88" height="20.39" rx="1.72" ry="1.72"/><rect class="cls-4" x="311.24" y="89.51" width="8.88" height="20.39" rx="1.72" ry="1.72"/><path class="cls-3" d="M375.45,154.19h-10a1,1,0,0,1,0-2h10a1,1,0,0,1,0,2Zm-20,0h-10a1,1,0,0,1,0-2h10a1,1,0,0,1,0,2Zm-20,0h-10a1,1,0,0,1,0-2h10a1,1,0,0,1,0,2Zm-20,0h-10a1,1,0,0,1,0-2h10a1,1,0,0,1,0,2Zm-20,0h-10a1,1,0,0,1,0-2h10a1,1,0,0,1,0,2Zm-20,0h-10a1,1,0,0,1,0-2h10a1,1,0,0,1,0,2Zm-20,0h-5a1,1,0,0,1,0-2h5a1,1,0,0,1,0,2Z" transform="translate(-44.26 -37.89)"/><path class="cls-3" d="M370.26,158.38a1,1,0,0,1-.52-1.86l5.58-3.38-5.63-3.88a1,1,0,0,1,1.13-1.65l8.17,5.63-8.22,5A1,1,0,0,1,370.26,158.38Z" transform="translate(-44.26 -37.89)"/><g class="cls-5"><path class="cls-6" d="M148.52,99.82c-4-4.17-22.68-9-22.68-9l-18.43,1.1S104.57,97.8,89,104.69c-5.52,2.45-10.21,8.9-13.27,16.87S67.35,143.94,67,144.29c4.58,2.07,17.17,9.21,17.17,9.21l.93,14.58H145.7s-3.1-14.27,9.93-15c.18-1.64.25-7.21.29-8.67C156.11,135.43,152.5,104,148.52,99.82Z" transform="translate(-44.26 -37.89)"/><path class="cls-4" d="M132.83,104.36c19.25-10.62,4.16-32.25,6-34.42,2.9-3.45,4.44-15.32-7.17-22.66s-19.94-6-26-2.36-12.05,9.53-12.5,18.58c-.91,18.36,6.84,22.73.72,43.61,1.63,2.57,9,1.5,11.61-2.8,5.68-1.94,16.9-9.66,22.62-10.26C132.44,93.58,131.95,104.85,132.83,104.36Z" transform="translate(-44.26 -37.89)"/><path class="cls-7" d="M106.17,79.29s.35,2.9,3.07,7.7,8.62,8.34,12.78,8.34c3.18,0,3.77-.74,6-3.32.71-.81,1.57-1.81,2.71-3a12.86,12.86,0,0,0,3.35-10.63c-.07-.93-.17-1.7-.17-2.23,0-2.09,1.36-4.63,1.28-10.6s-3.9-7.25-3.9-7.25c-2,10.24-14.14,17-18.32,17.49s-4.89-.55-5.16-3.9-6.8-5.35-7.43.83S106.17,79.29,106.17,79.29Z" transform="translate(-44.26 -37.89)"/><path class="cls-7" d="M106.18,79.33a1.94,1.94,0,0,0,0,.27C106.2,79.46,106.19,79.37,106.18,79.33Z" transform="translate(-44.26 -37.89)"/><path class="cls-7" d="M119.33,113.11s-13.72-4.49-13.89-8.8c-.08-2,1.67-5.9,2-12.38.2-4-.84-10.36-1.15-12.15a26.38,26.38,0,0,0,3,7.22c2.73,4.8,8.61,8.35,12.78,8.35,3.18,0,3.77-.75,6-3.32C128.61,96.77,119.33,113.11,119.33,113.11Z" transform="translate(-44.26 -37.89)"/><ellipse class="cls-8" cx="86.06" cy="40.24" rx="1.31" ry="2.47"/><ellipse class="cls-8" cx="74.32" cy="40.51" rx="1.31" ry="2.47"/><path class="cls-8" d="M129,73.56a.57.57,0,0,1-.48-.89,3.51,3.51,0,0,1,2.3-1.62,5.21,5.21,0,0,1,3.54.88.57.57,0,0,1-.66.94,4.16,4.16,0,0,0-2.67-.69,2.37,2.37,0,0,0-1.55,1.12A.57.57,0,0,1,129,73.56Z" transform="translate(-44.26 -37.89)"/><path class="cls-8" d="M124.64,83.92l-.42,0a.57.57,0,0,1,.14-1.14c.75.09,1-.18,1-.27.68-.9-.16-3.67-.67-4.87a.57.57,0,1,1,1.06-.45c.19.44,1.79,4.34.53,6A2,2,0,0,1,124.64,83.92Z" transform="translate(-44.26 -37.89)"/><path class="cls-8" d="M124.14,90.37a5.35,5.35,0,0,1-4.1-1.46.57.57,0,0,1,.88-.74c1.3,1.54,4.64.95,4.67.94a.58.58,0,0,1,.67.46.57.57,0,0,1-.46.67A10,10,0,0,1,124.14,90.37Z" transform="translate(-44.26 -37.89)"/><path class="cls-9" d="M128,92a5.67,5.67,0,0,1-5.2,3.3c-4.07.22-7.91-1.91-11.57-5.58,1.66,3.87,4.94,7.47,10.92,7.12,4.73-.28,5.9-2.8,5.9-2.8Z" transform="translate(-44.26 -37.89)"/></g><g class="cls-10"><path class="cls-7" d="M332.3,88c-3.34-1.45-5.88-6.19-7.64-9.91-5.24,4.36-10.24,8.89-15.81,12.61,1.22,2.27,2.94,6.24.87,10.41,2.14,1.74,4.38,2.83,6.95,6.4s14,4.5,15.74.46l3.81-15.88A23.32,23.32,0,0,1,332.3,88Z" transform="translate(-44.26 -37.89)"/><path class="cls-2" d="M294.95,164.41c1.22,9.79-3.92,11.67,2.11,12.88,10.48,2.1,16.84,4.44,31.25,7,23.39,4.18,45.27-31.77,45.27-31.77s1.61-10.55,2.19-21.05c.57-10.27-2-23-10.41-27.9C356.62,98.48,343.9,93.91,332.3,88l-8.55,13.2c-2.5,3.9-7.8,3.4-10.3-.47-2.72-4.21-2.68-6.22-3.59-7.84-11.75,17.72-22.5,19.12-24.69,26.62C283.62,125,293.72,154.62,294.95,164.41Z" transform="translate(-44.26 -37.89)"/><path class="cls-11" d="M320,113.51h0c-3.76,0-5.49-.83-11.52-10.52l1.51-.94c6,9.67,7.36,9.68,10,9.69h0c6.93,0,15.31-14.82,18-20.54l1.61.75C339.13,92.83,329.45,113.51,320,113.51Z" transform="translate(-44.26 -37.89)"/><path class="cls-12" d="M334.43,75.42c-2.1-1.07-5.92.29-7.12,2.69-1.7,3.39-33.91-17.51-34.21-13.54-5.65-2.21-12-16.45-4.27-18.08,10-2.12,18.38-14,32.5-5.68,10.41,6.13,12.92-.74,19,8.93C347.33,60.86,338.33,71.51,334.43,75.42Z" transform="translate(-44.26 -37.89)"/><path class="cls-7" d="M325.9,81.88c-4.08,9.45-10.84,13.33-18,15.11s-9.94.3-13.13-9.44-.1-9.45-1.4-17.3a23.18,23.18,0,0,1-.28-5.67,12,12,0,0,1,1.68-5.86c6.67,11.4,14-4.09,16.5,8.05,1.2,5.94,8.15.3,9.54,4.08s3.48,4.78,5.18,1.39c1.2-2.41,4.72-3.8,6.82-2.72a3.13,3.13,0,0,1,1.63,2.63C334.95,76.81,333.56,81.88,325.9,81.88Z" transform="translate(-44.26 -37.89)"/><path class="cls-8" d="M299.25,72.11a.37.37,0,0,1-.32-.19,3.35,3.35,0,0,0-2.07-1.78,4,4,0,0,0-2.78.52.37.37,0,0,1-.4-.62,4.7,4.7,0,0,1,3.36-.62,4.06,4.06,0,0,1,2.54,2.14.37.37,0,0,1-.32.55Z" transform="translate(-44.26 -37.89)"/><path class="cls-8" d="M313.37,75.78a.37.37,0,0,1-.28-.13c-3.49-4.13-6.52-1.75-6.64-1.64a.37.37,0,0,1-.47-.57s3.71-3,7.68,1.74a.37.37,0,0,1-.28.61Z" transform="translate(-44.26 -37.89)"/><ellipse class="cls-8" cx="252.96" cy="38.63" rx="1.24" ry="2.38"/><ellipse class="cls-8" cx="264.59" cy="41.04" rx="1.24" ry="2.38"/><path class="cls-8" d="M301.64,85.1a2.21,2.21,0,0,1-1.67-.9c-1.94-2.26,1-7.23,1.11-7.44a.37.37,0,1,1,.63.38c-.78,1.31-2.51,5-1.18,6.58a1.42,1.42,0,0,0,1.2.63c.76-.06,1.47-1,1.68-1.33a.37.37,0,0,1,.63.38c0,.06-1,1.58-2.25,1.69Z" transform="translate(-44.26 -37.89)"/><path class="cls-8" d="M303.21,91.9a8.2,8.2,0,0,1-4.48-1.53.37.37,0,0,1,.45-.58c.16.13,4,3.05,7.49,0a.37.37,0,1,1,.49.55A5.83,5.83,0,0,1,303.21,91.9Z" transform="translate(-44.26 -37.89)"/><path class="cls-9" d="M311.05,96s7.73-2.31,11.07-7.75c-1.95,6.07-9.59,10.92-9.64,10.83S311.05,96,311.05,96Z" transform="translate(-44.26 -37.89)"/></g><path class="cls-8" d="M123.59,71.93a7.4,7.4,0,0,0-1.75-.42l-1.59,1.07,0,0a7,7,0,0,1,2.94.37.57.57,0,0,0,.44-1.06Z" transform="translate(-44.26 -37.89)"/></svg>