<svg id="Слой_2" data-name="Слой 2" xmlns="http://www.w3.org/2000/svg" xmlns:xlink="http://www.w3.org/1999/xlink" viewBox="0 0 387.35 329.64"><defs><style>.cls-1{fill:none;}.cls-16,.cls-2{fill:#fe3737;}.cls-3{fill:#fff;}.cls-4{fill:#727278;}.cls-17,.cls-5{fill:#242425;}.cls-6{fill:#cf8e6a;}.cls-7{fill:#db9770;}.cls-8{fill:#b87f5e;}.cls-9{fill:#4f6ddb;}.cls-10{fill:#364b96;}.cls-11{fill:#535357;}.cls-12{fill:#303134;}.cls-13{clip-path:url(#clip-path);}.cls-14{fill:#3d3d40;}.cls-15{fill:#029d41;}.cls-16{stroke:#fe3737;stroke-width:1.02px;}.cls-16,.cls-17{stroke-miterlimit:10;}.cls-17{stroke:#242425;stroke-width:0.31px;}</style><clipPath id="clip-path" transform="translate(-20.88 -30.81)"><path class="cls-1" d="M270.85,147.82c-2.36-1.21-6.67.32-8,3-1.91,3.81-5.73-3.93-7.3-8.19s-6.27.56-10.75-4.59-7.28-13.78-18.59-9.07c0,0-1.56,2.12-1.89,6.6-11.82-3.6-7.81-26.6.88-24.94,18.26,3.5,19.34-6,32.27-3.19,13.3,2.89,16.24,8.81,18.25,15.86C277.13,128.34,274.7,139.31,270.85,147.82Z"/></clipPath></defs><title>ACM ICER 2019_light_mode</title><circle class="cls-2" cx="49.45" cy="34.57" r="16.35"/><polygon class="cls-2" points="49.45 50.93 27.94 50.93 36.28 40.38 49.45 50.93"/><path class="cls-3" d="M76,75.85c-2.27-.6-4.49-1.27-6.43-1.95a3.21,3.21,0,0,0-1-.25c-4-.15-7.41-3.09-7.41-8.5S64.47,56.3,69,56.3s7.53,3.54,7.53,8.5c0,4.31-2,7.08-4.79,8.05V73c1.67.42,3.49.82,4.91,1.07ZM74.24,64.9c0-3.37-1.75-6.83-5.31-6.83s-5.46,3.39-5.43,7,1.94,6.78,5.33,6.78S74.24,68.74,74.24,64.9Z" transform="translate(-20.88 -30.81)"/><polygon class="cls-4" points="153.06 237.22 120.22 261.34 190.05 261.34 205.79 237.22 153.06 237.22"/><path class="cls-5" d="M323.81,265.52H155.3a1,1,0,1,1,0-1.95H323.81a1,1,0,0,1,0,1.95Z" transform="translate(-20.88 -30.81)"/><polygon class="cls-6" points="220.92 204.38 205.31 230.9 175.05 224.51 189.41 212.37 190.21 201.09 220.92 204.38"/><path class="cls-7" d="M197.18,268.07c.62.8,0,1.39-1.08,1.76a11.84,11.84,0,0,1-2.89.52c-2.67.19-7.29.31-9.7-1.11s-3.31-2.73-3.78-5,1.17-3,.33-5,0-4,1.44-4.3.91-.39,1.36-2.22,1.64-2.26,7.23-1.81a21.94,21.94,0,0,1,6.58,1.47,3.89,3.89,0,0,0-2.09,1.91c-.84,2.16-2.08,8,.39,9.12.72.33,1.42-.06,2.06-.77C199.24,265.55,198.63,267.55,197.18,268.07Z" transform="translate(-20.88 -30.81)"/><path class="cls-6" d="M204.15,269.24a6.86,6.86,0,0,1-8,.59c1.12-.37,1.7-1,1.08-1.76,1.45-.52,2.06-2.51-.16-5.45-.64.7-1.34,1.09-2.06.77-2.47-1.11-1.23-7-.39-9.12a3.89,3.89,0,0,1,2.09-1.91c1.78-.75,4.11-.2,4.75,4.06A115.87,115.87,0,0,0,204.15,269.24Z" transform="translate(-20.88 -30.81)"/><path class="cls-8" d="M195.41,263.68h-.13l.11-.77h0a2.27,2.27,0,0,0,1.39-.59,18.26,18.26,0,0,0,2.57-5.17l.74.24a18.48,18.48,0,0,1-2.78,5.5A3.21,3.21,0,0,1,195.41,263.68Z" transform="translate(-20.88 -30.81)"/><path class="cls-8" d="M188.59,253.36a24.89,24.89,0,0,1,3.18,3.82,11.16,11.16,0,0,1,1.21,2.23,3.43,3.43,0,0,1,.26,1.35,1.53,1.53,0,0,1-.24.78,1.26,1.26,0,0,1-.72.51,2.49,2.49,0,0,1-1.44-.21,7.61,7.61,0,0,1-1.15-.6,16.58,16.58,0,0,1-2-1.52,29.4,29.4,0,0,1-3.46-3.56c1.27,1.05,2.53,2.11,3.84,3.09a24.18,24.18,0,0,0,2,1.36,3.58,3.58,0,0,0,2,.68c.48-.07.46-.92.19-1.64a13.72,13.72,0,0,0-1-2.17C190.46,256.08,189.53,254.72,188.59,253.36Z" transform="translate(-20.88 -30.81)"/><path class="cls-8" d="M182.09,261.17c1.25,1,2.48,1.94,3.74,2.88a37.21,37.21,0,0,0,3.86,2.6,8.35,8.35,0,0,0,2.08.84c.68.17,1.51.13,1.67-.37a1,1,0,0,0-.22-.89,9.43,9.43,0,0,1-.52-1.09,18.8,18.8,0,0,1-.71-2.27c.34.71.67,1.43,1.06,2.11a10,10,0,0,0,.59,1,1.58,1.58,0,0,1,.39,1.31,1.32,1.32,0,0,1-1.09,1,3.51,3.51,0,0,1-1.31,0,8.68,8.68,0,0,1-2.3-.88,23.43,23.43,0,0,1-3.86-2.81A34.22,34.22,0,0,1,182.09,261.17Z" transform="translate(-20.88 -30.81)"/><path class="cls-8" d="M196.67,252.36a2.63,2.63,0,0,0-.78.51,3.79,3.79,0,0,0-.54.65c-.35.47-.61,1-1.06,1.6a2.57,2.57,0,0,1,0-1.06,2.71,2.71,0,0,1,.42-1,2.05,2.05,0,0,1,.86-.72A1.28,1.28,0,0,1,196.67,252.36Z" transform="translate(-20.88 -30.81)"/><path class="cls-2" d="M190.3,236.88h0a1.28,1.28,0,0,1,1.5,1.07c1,6.36,5.15,33.91,3.88,34s-5.5-27.42-6.43-33.63A1.28,1.28,0,0,1,190.3,236.88Z" transform="translate(-20.88 -30.81)"/><path class="cls-8" d="M197,262.62a6.38,6.38,0,0,1,1.08,1.22,5,5,0,0,1,.7,1.53,2.61,2.61,0,0,1-.18,1.78,2,2,0,0,1-1.4,1.23l.19-.51a1.62,1.62,0,0,1,.26.62,1,1,0,0,1-.12.69,1.13,1.13,0,0,1-.51.39,1.85,1.85,0,0,1-.56.12c.32-.18.65-.4.72-.68a.54.54,0,0,0,0-.38,1.17,1.17,0,0,0-.23-.35l-.32-.31.51-.2a1.64,1.64,0,0,0,.78-.92,2.22,2.22,0,0,0,.16-1.33A13.15,13.15,0,0,0,197,262.62Z" transform="translate(-20.88 -30.81)"/><path class="cls-7" d="M268.45,162c-3.76-1.64-6.62-7-8.61-11.17-5.9,4.91-11.53,10-17.81,14.2,1.37,2.56,3.31,7,1,11.72,2.41,2,4.94,3.19,7.82,7.21s15.71,5.06,17.72.51l4.29-17.89A26.27,26.27,0,0,1,268.45,162Z" transform="translate(-20.88 -30.81)"/><path class="cls-9" d="M226.37,248.06c1.38,11-4.41,13.15,2.38,14.5,9.19,1.84,56,1.28,81.15,1,6.81-20.41,9.87-42.1,9.33-48.29-1.18-13.48-4-30.21-13.54-35.76-9.85-5.75-24.18-10.9-37.24-17.53l-9.63,14.87c-2.81,4.4-8.79,3.83-11.6-.53-3.07-4.75-3-7-4-8.84-13.23,20-25.35,21.54-27.81,30C213.62,203.66,225,237,226.37,248.06Z" transform="translate(-20.88 -30.81)"/><path class="cls-10" d="M254.56,190.73h0c-4.24,0-6.18-.94-13-11.85l1.7-1.06c6.79,10.89,8.29,10.9,11.29,10.91h0c7.8,0,17.24-16.69,20.23-23.13l1.81.84C276.15,167.43,265.23,190.73,254.56,190.73Z" transform="translate(-20.88 -30.81)"/><path class="cls-7" d="M277.5,245.39l4.36-19.21,33.08,8.5s-8.05,30.5-16.82,34c-.64.26-1.86-.62-2.87-.35l-20.67-22Z" transform="translate(-20.88 -30.81)"/><polygon class="cls-9" points="194.37 167.34 183.36 197.28 205.79 209.75 194.37 167.34"/><path class="cls-7" d="M303.13,259.58c.3,14-20.9,13.1-36.9,13.6s-27.74-2.23-31.63-2.71-5.89.38-10,.88-11.64-2.91-11.94-2.86-1.93,1.62-3.36,2a7.61,7.61,0,0,1-5.26-.91c-2.14-1.05-1.06-2.27-1.06-2.27s-3.32-2.76-4.06-3.33.33-3.45.33-3.45l-.52-1.06c-.52-1.06,1.05-2.53,1.05-2.53s-1.54-2.33-.76-3.88,5.2-3.49,9.64-3.74,16.39,7,25.69,6.29,42-10.11,45.47-10.83C292.54,242.11,302.71,240.5,303.13,259.58Z" transform="translate(-20.88 -30.81)"/><polygon class="cls-8" points="182.06 236.47 184.79 230.22 180.68 235.33 182.06 236.47"/><polygon class="cls-8" points="178.34 229.69 183.96 225.97 177.82 231.57 178.34 229.69"/><path class="cls-8" d="M199.75,256.92c.39-.39,4.48-3.2,4.48-3.2l-5.14,1.87Z" transform="translate(-20.88 -30.81)"/><path class="cls-8" d="M244.52,171.06s8.7-2.6,12.46-8.72c-2.19,6.84-10.8,12.3-10.86,12.19S244.52,171.06,244.52,171.06Z" transform="translate(-20.88 -30.81)"/><path class="cls-11" d="M270.85,147.82c-2.36-1.21-6.67.32-8,3-1.91,3.81-5.73-3.93-7.3-8.19s-6.27.56-10.75-4.59-7.28-13.78-18.59-9.07c0,0-1.56,2.12-1.89,6.6-11.82-3.6-7.81-26.6.88-24.94,18.26,3.5,19.34-6,32.27-3.19,13.3,2.89,16.24,8.81,18.25,15.86C277.13,128.34,274.7,139.31,270.85,147.82Z" transform="translate(-20.88 -30.81)"/><path class="cls-7" d="M261.24,155.1c-4.59,10.64-12.21,15-20.27,17s-11.2.34-14.78-10.63-.12-10.64-1.58-19.49a26.11,26.11,0,0,1-.32-6.39c.34-4.48,1.89-6.6,1.89-6.6,11.31-4.71,14.11,3.92,18.59,9.07s9.18.34,10.75,4.59,3.92,5.38,5.83,1.57c1.36-2.71,5.32-4.28,7.68-3.07a3.52,3.52,0,0,1,1.84,3C271.43,149.39,269.87,155.1,261.24,155.1Z" transform="translate(-20.88 -30.81)"/><path class="cls-12" d="M231.22,144.09a.42.42,0,0,1-.36-.21,3.77,3.77,0,0,0-2.33-2,4.5,4.5,0,0,0-3.13.58.42.42,0,1,1-.45-.7,5.26,5.26,0,0,1,3.78-.69,4.57,4.57,0,0,1,2.86,2.41.42.42,0,0,1-.16.57A.42.42,0,0,1,231.22,144.09Z" transform="translate(-20.88 -30.81)"/><path class="cls-12" d="M247.13,148.23a.42.42,0,0,1-.32-.15c-3.95-4.67-7.34-2-7.48-1.85a.42.42,0,1,1-.53-.64s4.18-3.33,8.65,2a.42.42,0,0,1-.32.68Z" transform="translate(-20.88 -30.81)"/><ellipse class="cls-12" cx="208.05" cy="118.25" rx="1.4" ry="2.68"/><ellipse class="cls-12" cx="221.16" cy="120.96" rx="1.4" ry="2.68"/><path class="cls-12" d="M233.91,158.73a2.49,2.49,0,0,1-1.88-1c-2.19-2.55,1.11-8.14,1.25-8.38a.42.42,0,1,1,.71.43c-.88,1.47-2.82,5.67-1.33,7.41a1.66,1.66,0,0,0,1.35.71c.86-.07,1.66-1.11,1.9-1.5a.42.42,0,0,1,.71.43c0,.07-1.08,1.77-2.54,1.9Z" transform="translate(-20.88 -30.81)"/><path class="cls-12" d="M235.68,166.39a9.23,9.23,0,0,1-5-1.72.42.42,0,0,1,.51-.66c.18.14,4.54,3.44,8.43,0a.42.42,0,1,1,.55.63A6.56,6.56,0,0,1,235.68,166.39Z" transform="translate(-20.88 -30.81)"/><g class="cls-13"><path class="cls-14" d="M230.07,131.93c-.14-.09-14.33-9.05-4.69-25.24l.86.51c-9.13,15.32,3.8,23.53,4.35,23.87Z" transform="translate(-20.88 -30.81)"/><path class="cls-14" d="M235.94,132.72c-.28-.24-6.9-5.92-7.45-14-.31-4.57,1.41-9,5.11-13l.74.67c-3.51,3.89-5.14,8-4.86,12.31.51,7.66,7,13.25,7.09,13.3Z" transform="translate(-20.88 -30.81)"/><path class="cls-14" d="M230.33,133.67c-1.74,0-15.24-3.78-17.51-17.92l1-.16c2.31,14.36,16.4,17.07,16.54,17.08Z" transform="translate(-20.88 -30.81)"/></g><circle class="cls-15" cx="71.85" cy="27.85" r="16.35"/><polygon class="cls-15" points="71.85 44.2 93.36 44.2 85.02 33.66 71.85 44.2"/><circle class="cls-2" cx="21.51" cy="126.49" r="16.35"/><polygon class="cls-2" points="21.51 142.84 0 142.84 8.34 132.3 21.51 142.84"/><circle class="cls-15" cx="43.91" cy="119.76" r="16.35"/><polygon class="cls-15" points="43.91 136.12 65.42 136.12 57.08 125.58 43.91 136.12"/><circle class="cls-2" cx="39.54" cy="210.74" r="16.35"/><polygon class="cls-2" points="39.53 227.09 18.03 227.09 26.37 216.55 39.53 227.09"/><circle class="cls-15" cx="61.94" cy="204.01" r="16.35"/><polygon class="cls-15" points="61.94 220.37 83.44 220.37 75.1 209.83 61.94 220.37"/><circle class="cls-2" cx="331.23" cy="57.81" r="16.35"/><polygon class="cls-2" points="331.23 74.16 352.74 74.16 344.4 63.62 331.23 74.16"/><circle class="cls-15" cx="308.83" cy="51.09" r="16.35"/><polygon class="cls-15" points="308.83 67.44 287.32 67.44 295.66 56.9 308.83 67.44"/><circle class="cls-2" cx="365.84" cy="145.38" r="16.35"/><polygon class="cls-2" points="365.84 161.74 387.35 161.74 379.01 151.2 365.84 161.74"/><circle class="cls-15" cx="343.44" cy="138.66" r="16.35"/><polygon class="cls-15" points="343.44 155.02 321.93 155.02 330.27 144.47 343.44 155.02"/><circle class="cls-2" cx="303.55" cy="312.84" r="16.35"/><polygon class="cls-2" points="303.69 296.49 325.2 296.49 316.86 307.03 303.69 296.49"/><circle class="cls-15" cx="281.15" cy="306.12" r="16.35"/><polygon class="cls-15" points="280.99 289.77 259.48 289.77 267.82 300.31 280.99 289.77"/><circle class="cls-2" cx="357.56" cy="243.84" r="16.35"/><polygon class="cls-2" points="357.7 227.49 379.21 227.49 370.87 238.03 357.7 227.49"/><circle class="cls-15" cx="335.16" cy="237.12" r="16.35"/><polygon class="cls-15" points="335 220.76 313.49 220.76 321.83 231.31 335 220.76"/><circle class="cls-2" cx="187.88" cy="23.07" r="16.35"/><polygon class="cls-2" points="187.88 39.43 166.38 39.43 174.72 28.89 187.88 39.43"/><circle class="cls-15" cx="210.29" cy="16.35" r="16.35"/><polygon class="cls-15" points="210.28 32.71 231.79 32.71 223.45 22.17 210.28 32.71"/><circle class="cls-2" cx="139.62" cy="313.29" r="16.35"/><polygon class="cls-2" points="139.39 296.94 117.89 296.94 126.23 307.48 139.39 296.94"/><circle class="cls-15" cx="162.03" cy="306.57" r="16.35"/><polygon class="cls-15" points="161.8 290.22 183.3 290.22 174.96 300.76 161.8 290.22"/><circle class="cls-2" cx="38.48" cy="294.15" r="16.35"/><polygon class="cls-2" points="38.25 277.8 16.74 277.8 25.08 288.34 38.25 277.8"/><circle class="cls-15" cx="60.88" cy="287.43" r="16.35"/><polygon class="cls-15" points="60.65 271.08 82.16 271.08 73.82 281.62 60.65 271.08"/><path class="cls-16" d="M180,121a1.24,1.24,0,0,1-.43,1,1.43,1.43,0,0,1-1,.39,1.27,1.27,0,0,1-.7-.21,1.36,1.36,0,0,1-.51-.65l-1.4-3.28h-8.18l-1.39,3.28a1.38,1.38,0,0,1-.51.65,1.31,1.31,0,0,1-.72.21,1.44,1.44,0,0,1-1-.39,1.23,1.23,0,0,1-.44-1,1.56,1.56,0,0,1,.14-.64l6.42-14.5a1.55,1.55,0,0,1,.64-.75,1.77,1.77,0,0,1,1.84,0,1.55,1.55,0,0,1,.64.75l6.44,14.5A1.57,1.57,0,0,1,180,121Zm-11.18-5.23H175l-3.07-7.26Z" transform="translate(-20.88 -30.81)"/><path class="cls-16" d="M192.89,114.45a1.17,1.17,0,0,1,0,1.54,1,1,0,0,1-.73.31h-3.63v3.79a1.11,1.11,0,0,1-.29.78,1,1,0,0,1-1.46,0,1.11,1.11,0,0,1-.29-.78V116.3h-3.63a1,1,0,0,1-.73-.31,1.16,1.16,0,0,1,0-1.54,1,1,0,0,1,.73-.31h3.63v-3.81a1.07,1.07,0,0,1,.29-.77,1,1,0,0,1,1.46,0,1.07,1.07,0,0,1,.29.77v3.81h3.63A1,1,0,0,1,192.89,114.45Z" transform="translate(-20.88 -30.81)"/><path class="cls-2" d="M198.48,100.39c-10.29-6-20.66-10.9-32.47-6.74-8.51,3-14.72,9.86-15.25,19.08-.67,11.69,5.14,22.43,16.87,25.24,10.56,2.52,25.2-.28,32.21-9.2,8.95-11.38,3.34-29.08-.9-41.16-.52-1.48-2.89-.84-2.36.65,4.16,11.84,10.67,31.61-1,41.38-9.34,7.84-28.19,10.32-37.18.62-8.47-9.14-6.83-25.88,3.91-32.24,12-7.11,23.77-2,34.89,4.49a1.23,1.23,0,0,0,1.24-2.12Z" transform="translate(-20.88 -30.81)"/><path class="cls-3" d="M89.46,61.29l-1.68,5.09H85.62l5.5-16.18h2.52l5.52,16.18H96.92l-1.73-5.09Zm5.3-1.63L93.18,55c-.36-1.06-.6-2-.84-3h0C92,53,91.79,54,91.47,55l-1.58,4.68Z" transform="translate(-20.88 -30.81)"/><path class="cls-3" d="M213.76,64.21c-2.27-.6-4.49-1.27-6.43-1.95a3.21,3.21,0,0,0-1-.25c-4-.15-7.41-3.09-7.41-8.5s3.29-8.85,7.83-8.85,7.53,3.54,7.53,8.5c0,4.31-2,7.08-4.79,8.05v.1c1.67.42,3.49.82,4.91,1.07ZM212,53.27c0-3.37-1.75-6.83-5.31-6.83s-5.46,3.39-5.43,7,1.94,6.78,5.33,6.78S212,57.11,212,53.27Z" transform="translate(-20.88 -30.81)"/><path class="cls-3" d="M228.18,49.66l-1.68,5.09h-2.16l5.5-16.18h2.52l5.52,16.18h-2.23l-1.73-5.09Zm5.3-1.63-1.58-4.66c-.36-1.06-.6-2-.84-3h0c-.24,1-.5,1.94-.82,2.93L228.62,48Z" transform="translate(-20.88 -30.81)"/><path class="cls-3" d="M48.18,167.87c-2.27-.6-4.49-1.27-6.43-1.95a3.22,3.22,0,0,0-1-.25c-4-.15-7.41-3.09-7.41-8.5s3.29-8.85,7.83-8.85,7.53,3.54,7.53,8.5c0,4.31-2,7.08-4.79,8.05v.1c1.67.42,3.49.82,4.91,1.07Zm-1.79-10.95c0-3.37-1.75-6.83-5.31-6.83s-5.46,3.39-5.43,7,1.94,6.78,5.33,6.78S46.38,160.76,46.38,156.92Z" transform="translate(-20.88 -30.81)"/><path class="cls-3" d="M61.6,153.31l-1.68,5.09H57.75l5.5-16.18h2.52l5.52,16.18H69.06l-1.73-5.09Zm5.3-1.63L65.32,147c-.36-1.06-.6-2-.84-3h0c-.24,1-.5,1.94-.82,2.93L62,151.68Z" transform="translate(-20.88 -30.81)"/><path class="cls-3" d="M66,252.71c-2.27-.6-4.49-1.27-6.43-1.95a3.21,3.21,0,0,0-1-.25c-4-.15-7.41-3.09-7.41-8.5s3.29-8.85,7.83-8.85,7.53,3.54,7.53,8.5c0,4.31-2,7.08-4.79,8.05v.1c1.67.42,3.49.82,4.91,1.07Zm-1.79-10.95c0-3.37-1.75-6.83-5.31-6.83s-5.46,3.39-5.43,7,1.94,6.78,5.33,6.78S64.16,245.61,64.16,241.77Z" transform="translate(-20.88 -30.81)"/><path class="cls-3" d="M79.37,238.16l-1.68,5.09H75.53L81,227.07h2.52l5.52,16.18H86.84l-1.73-5.09Zm5.3-1.63-1.58-4.66c-.36-1.06-.6-2-.84-3h0c-.24,1-.5,1.94-.82,2.93l-1.58,4.68Z" transform="translate(-20.88 -30.81)"/><path class="cls-3" d="M65.51,336.23c-2.27-.6-4.49-1.27-6.43-1.95a3.21,3.21,0,0,0-1-.25c-4-.15-7.41-3.09-7.41-8.5s3.29-8.85,7.83-8.85,7.53,3.54,7.53,8.5c0,4.31-2,7.08-4.79,8.05v.1c1.67.42,3.49.82,4.91,1.07Zm-1.79-10.95c0-3.37-1.75-6.83-5.31-6.83s-5.46,3.39-5.43,7,1.94,6.78,5.33,6.78S63.72,329.12,63.72,325.28Z" transform="translate(-20.88 -30.81)"/><path class="cls-3" d="M78.93,321.68l-1.68,5.09H75.09l5.5-16.18h2.52l5.52,16.18H86.4l-1.73-5.09Zm5.3-1.63-1.58-4.66c-.36-1.06-.6-2-.84-3h0c-.24,1-.5,1.94-.82,2.93L79.36,320Z" transform="translate(-20.88 -30.81)"/><path class="cls-3" d="M165.27,354.78c-2.27-.6-4.49-1.27-6.43-1.95a3.21,3.21,0,0,0-1-.25c-4-.15-7.41-3.09-7.41-8.5s3.29-8.85,7.83-8.85,7.53,3.54,7.53,8.5c0,4.31-2,7.08-4.79,8.05v.1c1.67.42,3.49.82,4.91,1.07Zm-1.79-10.95c0-3.37-1.75-6.83-5.31-6.83s-5.46,3.39-5.43,7,1.94,6.78,5.33,6.78S163.48,347.68,163.48,343.84Z" transform="translate(-20.88 -30.81)"/><path class="cls-3" d="M178.69,340.23,177,345.32h-2.16l5.5-16.18h2.52l5.52,16.18h-2.23l-1.73-5.09Zm5.3-1.63-1.58-4.66c-.36-1.06-.6-2-.84-3h0c-.24,1-.5,1.94-.82,2.93l-1.58,4.68Z" transform="translate(-20.88 -30.81)"/><path class="cls-3" d="M333.26,353.75c-2.27-.6-4.49-1.27-6.43-1.95a3.21,3.21,0,0,0-1-.25c-4-.15-7.41-3.09-7.41-8.5s3.29-8.85,7.83-8.85,7.53,3.54,7.53,8.5c0,4.31-2,7.08-4.79,8.05v.1c1.67.42,3.49.82,4.91,1.07Zm-1.79-10.95c0-3.37-1.75-6.83-5.31-6.83s-5.46,3.39-5.43,7,1.94,6.78,5.33,6.78S331.47,346.65,331.47,342.81Z" transform="translate(-20.88 -30.81)"/><path class="cls-3" d="M299.21,340.23l-1.68,5.09h-2.16l5.5-16.18h2.52l5.52,16.18h-2.23l-1.73-5.09Zm5.3-1.63-1.58-4.66c-.36-1.06-.6-2-.84-3h0c-.24,1-.5,1.94-.82,2.93l-1.58,4.68Z" transform="translate(-20.88 -30.81)"/><path class="cls-3" d="M387.4,284.62c-2.27-.6-4.49-1.27-6.43-1.95a3.21,3.21,0,0,0-1-.25c-4-.15-7.41-3.09-7.41-8.5s3.29-8.85,7.83-8.85,7.53,3.54,7.53,8.5c0,4.31-2,7.08-4.79,8.05v.1c1.67.42,3.49.82,4.91,1.07Zm-1.79-10.95c0-3.37-1.75-6.83-5.31-6.83s-5.46,3.39-5.43,7,1.94,6.78,5.33,6.78S385.61,277.52,385.61,273.68Z" transform="translate(-20.88 -30.81)"/><path class="cls-3" d="M352.4,271.1l-1.68,5.09h-2.16l5.5-16.18h2.52l5.52,16.18h-2.23l-1.73-5.09Zm5.3-1.63-1.58-4.66c-.36-1.06-.6-2-.84-3h0c-.24,1-.5,1.94-.82,2.93l-1.58,4.68Z" transform="translate(-20.88 -30.81)"/><path class="cls-3" d="M395.68,186.17c-2.27-.6-4.49-1.27-6.43-1.95a3.21,3.21,0,0,0-1-.25c-4-.15-7.41-3.09-7.41-8.5s3.29-8.85,7.83-8.85,7.53,3.54,7.53,8.5c0,4.31-2,7.08-4.79,8.05v.1c1.67.42,3.49.82,4.91,1.07Zm-1.79-10.95c0-3.37-1.75-6.83-5.31-6.83s-5.46,3.39-5.43,7,1.94,6.78,5.33,6.78S393.89,179.06,393.89,175.22Z" transform="translate(-20.88 -30.81)"/><path class="cls-3" d="M360.69,172.64,359,177.73h-2.16l5.5-16.18h2.52l5.52,16.18h-2.23l-1.73-5.09ZM366,171l-1.58-4.66c-.36-1.06-.6-2-.84-3h0c-.24,1-.5,1.94-.82,2.93L361.12,171Z" transform="translate(-20.88 -30.81)"/><path class="cls-3" d="M361.12,98.43c-2.27-.6-4.49-1.27-6.43-1.95a3.21,3.21,0,0,0-1-.25c-4-.15-7.41-3.09-7.41-8.5s3.29-8.85,7.83-8.85,7.53,3.54,7.53,8.5c0,4.31-2,7.08-4.79,8.05v.1c1.67.42,3.49.82,4.91,1.07Zm-1.79-10.95c0-3.37-1.75-6.83-5.31-6.83s-5.46,3.39-5.43,7,1.94,6.78,5.33,6.78S359.33,91.33,359.33,87.49Z" transform="translate(-20.88 -30.81)"/><path class="cls-3" d="M326.13,84.91,324.45,90h-2.16l5.5-16.18h2.52L335.82,90h-2.23l-1.73-5.09Zm5.3-1.63-1.58-4.66c-.36-1.06-.6-2-.84-3h0c-.24,1-.5,1.94-.82,2.93l-1.58,4.68Z" transform="translate(-20.88 -30.81)"/><path class="cls-5" d="M144.38,209.13a46.5,46.5,0,0,1-9.3-92.06,1.28,1.28,0,0,1,.51,2.5,43.94,43.94,0,1,0,52.73,43.06,1.28,1.28,0,1,1,2.55,0A46.55,46.55,0,0,1,144.38,209.13Z" transform="translate(-20.88 -30.81)"/><path class="cls-5" d="M134.33,118.58c-3-2.34-4.83-7.44-5.35-11.07a34.81,34.81,0,0,0,15.4,9.91c-5.45,2.95-9.44,8-12.74,13.16C131.51,126.64,131.91,121.81,134.33,118.58Z" transform="translate(-20.88 -30.81)"/><path class="cls-17" d="M140.94,164.6h0l-1.66.9-.25-1,2.09-1.12h1.1V173h-1.25Z" transform="translate(-20.88 -30.81)"/><path class="cls-17" d="M152,168.08c0,3.25-1.21,5.05-3.33,5.05-1.87,0-3.14-1.75-3.17-4.92s1.38-5,3.33-5S152,165,152,168.08Zm-5.2.15c0,2.49.77,3.9,1.94,3.9s2-1.55,2-4-.6-3.9-1.94-3.9C147.66,164.23,146.84,165.62,146.84,168.23Z" transform="translate(-20.88 -30.81)"/><path class="cls-5" d="M168.13,177.31c-2.24-.59-4.44-1.26-6.36-1.92a3.18,3.18,0,0,0-1-.25c-3.95-.15-7.32-3.06-7.32-8.41s3.25-8.75,7.74-8.75,7.45,3.5,7.45,8.41c0,4.27-2,7-4.73,8v.1c1.65.42,3.45.81,4.86,1.06Zm-1.78-10.83c0-3.33-1.73-6.76-5.25-6.76s-5.4,3.35-5.38,7,1.92,6.71,5.28,6.71S166.36,170.28,166.36,166.49Z" transform="translate(-20.88 -30.81)"/><path class="cls-5" d="M119.92,151.57h-.05l-3,1.63-.45-1.79,3.79-2h2v17.33h-2.27Z" transform="translate(-20.88 -30.81)"/><path class="cls-17" d="M131.44,156.24v8.61c0,.63,0,1.35.06,1.84h-1.16l-.06-1.24h0a2.64,2.64,0,0,1-2.43,1.4c-1.72,0-3-1.46-3-3.62,0-2.37,1.46-3.83,3.2-3.83a2.38,2.38,0,0,1,2.15,1.09h0v-4.25Zm-1.3,6.23a2.3,2.3,0,0,0-.06-.54,1.91,1.91,0,0,0-1.87-1.5c-1.34,0-2.13,1.18-2.13,2.75s.71,2.64,2.11,2.64a2,2,0,0,0,1.9-1.55,2.26,2.26,0,0,0,.06-.56Z" transform="translate(-20.88 -30.81)"/><rect class="cls-5" x="122.23" y="162.69" width="29.43" height="1.48" transform="translate(-86.89 197.98) rotate(-67.89)"/><path class="cls-5" d="M143.25,137.19a1,1,0,0,1-1-1v-8.16a1,1,0,0,1,1.92,0v8.16A1,1,0,0,1,143.25,137.19Z" transform="translate(-20.88 -30.81)"/><path class="cls-5" d="M143.25,202.11a1,1,0,0,1-1-1V193a1,1,0,0,1,1.92,0v8.16A1,1,0,0,1,143.25,202.11Z" transform="translate(-20.88 -30.81)"/><path class="cls-5" d="M180.56,165.13H172.4a1,1,0,1,1,0-1.92h8.16a1,1,0,1,1,0,1.92Z" transform="translate(-20.88 -30.81)"/><path class="cls-5" d="M115.64,165.13h-8.16a1,1,0,0,1,0-1.92h8.16a1,1,0,0,1,0,1.92Z" transform="translate(-20.88 -30.81)"/><path class="cls-5" d="M170.24,191.26a1,1,0,0,1-.68-.28l-5.77-5.77a1,1,0,0,1,1.35-1.35l5.77,5.77a1,1,0,0,1-.68,1.63Z" transform="translate(-20.88 -30.81)"/><path class="cls-5" d="M124.33,145.35a1,1,0,0,1-.68-.28l-5.77-5.77a1,1,0,1,1,1.35-1.35l5.77,5.77a1,1,0,0,1-.68,1.63Z" transform="translate(-20.88 -30.81)"/><path class="cls-5" d="M117.4,191a1,1,0,0,1-.68-1.63l5.77-5.77a1,1,0,0,1,1.35,1.35l-5.77,5.77A1,1,0,0,1,117.4,191Z" transform="translate(-20.88 -30.81)"/></svg>