<svg id="Слой_2" data-name="Слой 2" xmlns="http://www.w3.org/2000/svg" viewBox="0 0 370.74 363.26"><defs><style>.cls-1{fill:#fe5e5e;}.cls-2{fill:#f6eeca;}.cls-3{fill:#bd0000;}.cls-4{fill:#eb1515;}.cls-5{fill:#fe3737;}.cls-6{fill:#ededed;}.cls-7{fill:#f67770;}.cls-8{fill:#030303;}</style></defs><title>ACM LAK 2022_dark_mode</title><circle class="cls-1" cx="163.94" cy="98.57" r="2.27" transform="translate(-50.99 39.32) rotate(-18.56)"/><circle class="cls-1" cx="99.91" cy="100.88" r="2.27" transform="translate(-55.05 19.06) rotate(-18.56)"/><circle class="cls-1" cx="96.96" cy="95.07" r="2.27" transform="translate(-53.35 17.82) rotate(-18.56)"/><circle class="cls-1" cx="99.56" cy="90.52" r="2.27" transform="translate(-51.77 18.41) rotate(-18.56)"/><circle class="cls-1" cx="95.9" cy="86.77" r="2.27" transform="translate(-50.77 17.05) rotate(-18.56)"/><circle class="cls-1" cx="103.63" cy="78.61" r="2.27" transform="translate(-47.77 19.08) rotate(-18.56)"/><circle class="cls-1" cx="98.84" cy="78.17" r="2.27" transform="translate(-47.88 17.54) rotate(-18.56)"/><circle class="cls-1" cx="121.72" cy="69.85" r="2.27" transform="translate(-44.04 24.39) rotate(-18.56)"/><circle class="cls-1" cx="151.1" cy="98.65" r="2.27" transform="translate(-51.68 35.24) rotate(-18.56)"/><circle class="cls-1" cx="152.12" cy="89.04" r="2.27" transform="translate(-48.57 35.06) rotate(-18.56)"/><circle class="cls-1" cx="157.03" cy="96.21" r="2.27" transform="translate(-50.59 37) rotate(-18.56)"/><circle class="cls-1" cx="151.68" cy="81.03" r="2.27" transform="translate(-46.04 34.51) rotate(-18.56)"/><circle class="cls-1" cx="139.75" cy="106.56" r="2.27" transform="translate(-54.79 32.04) rotate(-18.56)"/><circle class="cls-1" cx="112.11" cy="107.27" r="2.27" transform="matrix(0.95, -0.32, 0.32, 0.95, -56.45, 23.27)"/><circle class="cls-1" cx="96.69" cy="104.37" r="2.27" transform="translate(-56.33 18.22) rotate(-18.56)"/><circle class="cls-1" cx="91.66" cy="99.57" r="2.27" transform="translate(-55.06 16.37) rotate(-18.56)"/><circle class="cls-1" cx="88.05" cy="87.02" r="2.27" transform="translate(-51.25 14.56) rotate(-18.56)"/><circle class="cls-1" cx="92.63" cy="76.3" r="2.27" transform="translate(-47.61 15.46) rotate(-18.56)"/><circle class="cls-1" cx="155.33" cy="69.6" r="2.27" transform="translate(-42.21 35.07) rotate(-18.56)"/><circle class="cls-1" cx="149.93" cy="70.57" r="2.27" transform="translate(-42.8 33.4) rotate(-18.56)"/><circle class="cls-1" cx="131.23" cy="94.76" r="2.27" transform="translate(-51.47 28.71) rotate(-18.56)"/><circle class="cls-1" cx="118.26" cy="99.73" r="2.27" transform="translate(-53.73 24.84) rotate(-18.56)"/><circle class="cls-1" cx="120.58" cy="90.16" r="2.27" transform="translate(-50.56 25.08) rotate(-18.56)"/><circle class="cls-1" cx="132.58" cy="87.23" r="2.27" transform="translate(-49.01 28.75) rotate(-18.56)"/><circle class="cls-1" cx="113.6" cy="101.29" r="2.27" transform="translate(-54.47 23.44) rotate(-18.56)"/><circle class="cls-1" cx="106.82" cy="102.12" r="2.27" transform="translate(-55.08 21.32) rotate(-18.56)"/><circle class="cls-1" cx="105.94" cy="92.62" r="2.27" transform="translate(-52.11 20.55) rotate(-18.56)"/><circle class="cls-1" cx="144.42" cy="92.62" r="2.27" transform="translate(-50.11 32.8) rotate(-18.56)"/><circle class="cls-1" cx="147.9" cy="99.73" r="2.27" transform="translate(-52.19 34.27) rotate(-18.56)"/><circle class="cls-1" cx="140.44" cy="83.87" r="2.27" transform="translate(-47.53 31.08) rotate(-18.56)"/><circle class="cls-1" cx="148.93" cy="93.21" r="2.27" transform="translate(-50.06 34.26) rotate(-18.56)"/><circle class="cls-1" cx="133.11" cy="99.8" r="2.27" transform="translate(-52.98 29.57) rotate(-18.56)"/><circle class="cls-1" cx="139.28" cy="97.73" r="2.27" transform="matrix(0.95, -0.32, 0.32, 0.95, -52, 31.43)"/><path class="cls-2" d="M128.15,212.08a.42.42,0,0,1-.42-.42v-3.79a.42.42,0,1,1,.84,0v3.79A.42.42,0,0,1,128.15,212.08Zm0-7.58a.42.42,0,0,1-.42-.42v-3.79a.42.42,0,1,1,.84,0v3.79A.42.42,0,0,1,128.15,204.5Zm0-7.58a.42.42,0,0,1-.42-.42v-3.79a.42.42,0,1,1,.84,0v3.79A.42.42,0,0,1,128.15,196.92Zm0-7.58a.42.42,0,0,1-.42-.42v-3.79a.42.42,0,1,1,.84,0v3.79A.42.42,0,0,1,128.15,189.34Zm0-7.58a.42.42,0,0,1-.42-.42v-3.79a.42.42,0,1,1,.84,0v3.79A.42.42,0,0,1,128.15,181.76Zm0-7.58a.42.42,0,0,1-.42-.42V170a.42.42,0,1,1,.84,0v3.79A.42.42,0,0,1,128.15,174.19Zm0-7.58a.42.42,0,0,1-.42-.42V162.4a.42.42,0,1,1,.84,0v3.79A.42.42,0,0,1,128.15,166.61Zm0-7.58a.42.42,0,0,1-.42-.42v-3.79a.42.42,0,1,1,.84,0v3.79A.42.42,0,0,1,128.15,159Zm0-7.58a.42.42,0,0,1-.42-.42v-3.79a.42.42,0,1,1,.84,0V151A.42.42,0,0,1,128.15,151.45Zm0-7.58a.42.42,0,0,1-.42-.42v-3.79a.42.42,0,1,1,.84,0v3.79A.42.42,0,0,1,128.15,143.87Zm0-7.58a.42.42,0,0,1-.42-.42v-3.79a.42.42,0,0,1,.84,0v3.79A.42.42,0,0,1,128.15,136.29Zm0-7.58a.42.42,0,0,1-.42-.42v-3.79a.42.42,0,0,1,.84,0v3.79A.42.42,0,0,1,128.15,128.72Zm0-7.58a.42.42,0,0,1-.42-.42v-3.79a.42.42,0,0,1,.84,0v3.79A.42.42,0,0,1,128.15,121.14Zm0-7.58a.42.42,0,0,1-.42-.42v-3.79a.42.42,0,0,1,.84,0v3.79A.42.42,0,0,1,128.15,113.56Zm0-7.58a.42.42,0,0,1-.42-.42v-3.79a.42.42,0,0,1,.84,0v3.79A.42.42,0,0,1,128.15,106Zm0-7.58a.42.42,0,0,1-.42-.42V94.19a.42.42,0,0,1,.84,0V98A.42.42,0,0,1,128.15,98.4Zm0-7.58a.42.42,0,0,1-.42-.42V86.61a.42.42,0,0,1,.84,0V90.4A.42.42,0,0,1,128.15,90.82Zm0-7.58a.42.42,0,0,1-.42-.42V79a.42.42,0,0,1,.84,0v3.79A.42.42,0,0,1,128.15,83.25Zm0-7.58a.42.42,0,0,1-.42-.42V71.46a.42.42,0,0,1,.84,0v3.79A.42.42,0,0,1,128.15,75.67Zm0-7.58a.42.42,0,0,1-.42-.42V63.88a.42.42,0,0,1,.84,0v3.79A.42.42,0,0,1,128.15,68.09Zm0-7.58a.42.42,0,0,1-.42-.42V56.3a.42.42,0,0,1,.84,0v3.79A.42.42,0,0,1,128.15,60.51Zm0-7.58a.42.42,0,0,1-.42-.42V48.72a.42.42,0,0,1,.84,0v3.79A.42.42,0,0,1,128.15,52.93Zm0-7.58a.42.42,0,0,1-.42-.42V41.15a.42.42,0,0,1,.84,0v3.79A.42.42,0,0,1,128.15,45.36Zm0-7.58a.42.42,0,0,1-.42-.42V33.57a.42.42,0,0,1,.84,0v3.79A.42.42,0,0,1,128.15,37.78Zm0-7.58a.42.42,0,0,1-.42-.42V26a.42.42,0,0,1,.84,0v3.79A.42.42,0,0,1,128.15,30.2Zm0-7.58a.42.42,0,0,1-.42-.42V18.41a.42.42,0,0,1,.84,0V22.2A.42.42,0,0,1,128.15,22.62Z" transform="translate(-28.14 -17.99)"/><path class="cls-2" d="M223.27,108.12H223a.42.42,0,0,1,0-.84h.27a.42.42,0,1,1,0,.84Zm-4.06,0h-3.79a.42.42,0,0,1,0-.84h3.79a.42.42,0,1,1,0,.84Zm-7.58,0h-3.79a.42.42,0,0,1,0-.84h3.79a.42.42,0,1,1,0,.84Zm-7.58,0h-3.79a.42.42,0,0,1,0-.84h3.79a.42.42,0,1,1,0,.84Zm-7.58,0h-3.79a.42.42,0,0,1,0-.84h3.79a.42.42,0,1,1,0,.84Zm-7.58,0h-3.79a.42.42,0,0,1,0-.84h3.79a.42.42,0,1,1,0,.84Zm-7.58,0h-3.79a.42.42,0,0,1,0-.84h3.79a.42.42,0,1,1,0,.84Zm-7.58,0H170a.42.42,0,1,1,0-.84h3.79a.42.42,0,1,1,0,.84Zm-7.58,0h-3.79a.42.42,0,1,1,0-.84h3.79a.42.42,0,0,1,0,.84Zm-7.58,0H154.8a.42.42,0,1,1,0-.84h3.79a.42.42,0,0,1,0,.84Zm-7.58,0h-3.79a.42.42,0,1,1,0-.84H151a.42.42,0,0,1,0,.84Zm-7.58,0h-3.79a.42.42,0,1,1,0-.84h3.79a.42.42,0,0,1,0,.84Zm-7.58,0h-3.79a.42.42,0,1,1,0-.84h3.79a.42.42,0,0,1,0,.84Zm-7.58,0h-3.79a.42.42,0,1,1,0-.84h3.79a.42.42,0,0,1,0,.84Zm-7.58,0h-3.79a.42.42,0,1,1,0-.84h3.79a.42.42,0,0,1,0,.84Zm-7.58,0h-3.79a.42.42,0,1,1,0-.84h3.79a.42.42,0,0,1,0,.84Zm-7.58,0h-3.79a.42.42,0,1,1,0-.84h3.79a.42.42,0,0,1,0,.84Zm-7.58,0H94.17a.42.42,0,0,1,0-.84H98a.42.42,0,0,1,0,.84Zm-7.58,0H86.59a.42.42,0,0,1,0-.84h3.79a.42.42,0,0,1,0,.84Zm-7.58,0H79a.42.42,0,0,1,0-.84H82.8a.42.42,0,0,1,0,.84Zm-7.58,0H71.44a.42.42,0,0,1,0-.84h3.79a.42.42,0,0,1,0,.84Zm-7.58,0H63.86a.42.42,0,0,1,0-.84h3.79a.42.42,0,0,1,0,.84Zm-7.58,0H56.28a.42.42,0,0,1,0-.84h3.79a.42.42,0,0,1,0,.84Zm-7.58,0H48.7a.42.42,0,0,1,0-.84h3.79a.42.42,0,0,1,0,.84Zm-7.58,0H41.12a.42.42,0,0,1,0-.84h3.79a.42.42,0,0,1,0,.84Z" transform="translate(-28.14 -17.99)"/><circle class="cls-3" cx="62.83" cy="15.66" r="2.59"/><circle class="cls-4" cx="70.18" cy="23.4" r="2.59"/><circle class="cls-4" cx="82.82" cy="15.66" r="2.59"/><circle class="cls-4" cx="92.72" cy="16.1" r="2.59"/><circle class="cls-4" cx="100.01" cy="13.07" r="2.59"/><circle class="cls-4" cx="110.17" cy="17.5" r="2.59"/><circle class="cls-4" cx="84.77" cy="22.69" r="2.59"/><circle class="cls-4" cx="72.12" cy="29.18" r="2.59"/><circle class="cls-4" cx="77.96" cy="25.28" r="2.59"/><circle class="cls-4" cx="90.12" cy="31.77" r="2.59"/><circle class="cls-4" cx="99.26" cy="30.86" r="2.59"/><circle class="cls-4" cx="112.77" cy="36.96" r="2.59"/><circle class="cls-4" cx="123.15" cy="33.46" r="2.59"/><circle class="cls-4" cx="122.39" cy="26.58" r="2.59"/><circle class="cls-4" cx="130.39" cy="36.05" r="2.59"/><circle class="cls-4" cx="138.06" cy="36.2" r="2.59"/><circle class="cls-4" cx="105.09" cy="36.96" r="2.59"/><circle class="cls-4" cx="107.04" cy="41.39" r="2.59"/><circle class="cls-4" cx="101.85" cy="45.61" r="2.59"/><circle class="cls-4" cx="95.31" cy="44.38" r="2.59"/><circle class="cls-4" cx="91.74" cy="39.55" r="2.59"/><circle class="cls-4" cx="89.15" cy="46.97" r="2.59"/><circle class="cls-4" cx="76.61" cy="46.97" r="2.59"/><circle class="cls-4" cx="71.42" cy="41.24" r="2.59"/><circle class="cls-4" cx="70.18" cy="49.56" r="2.59"/><circle class="cls-4" cx="81.31" cy="58.34" r="2.59"/><circle class="cls-4" cx="89.63" cy="54.2" r="2.59"/><circle class="cls-4" cx="92.72" cy="63.53" r="2.59"/><circle class="cls-4" cx="86.55" cy="64.83" r="2.59"/><circle class="cls-4" cx="105.09" cy="56.79" r="2.59"/><circle class="cls-3" cx="85.42" cy="38.8" r="2.59"/><circle class="cls-3" cx="82.82" cy="49.56" r="2.59"/><circle class="cls-3" cx="112.77" cy="30.86" r="2.59"/><circle class="cls-3" cx="109.2" cy="23.4" r="2.59"/><circle class="cls-3" cx="104.44" cy="30.86" r="2.59"/><circle class="cls-3" cx="96.23" cy="36.7" r="2.59"/><circle class="cls-3" cx="115.36" cy="60.16" r="2.59"/><circle class="cls-3" cx="104.44" cy="72.62" r="2.59"/><circle class="cls-3" cx="104.44" cy="103.98" r="2.59"/><circle class="cls-3" cx="139.47" cy="106.57" r="2.59"/><circle class="cls-3" cx="134.93" cy="65.35" r="2.59"/><circle class="cls-3" cx="172.11" cy="83.07" r="2.59"/><circle class="cls-3" cx="144.66" cy="60.16" r="2.59"/><circle class="cls-3" cx="128.33" cy="23.4" r="2.59"/><circle class="cls-3" cx="75.37" cy="65.35" r="2.59"/><circle class="cls-3" cx="62.07" cy="77.89" r="2.59"/><circle class="cls-3" cx="80.23" cy="77.89" r="2.59"/><circle class="cls-5" cx="75.37" cy="181.6" r="2.27"/><circle class="cls-5" cx="62.32" cy="173.85" r="2.27"/><circle class="cls-5" cx="73.85" cy="165.78" r="2.27"/><circle class="cls-5" cx="72.41" cy="161.24" r="2.27"/><circle class="cls-5" cx="57.78" cy="155.18" r="2.27"/><circle class="cls-5" cx="49.57" cy="149.85" r="2.27"/><circle class="cls-5" cx="48.7" cy="155.18" r="2.27"/><circle class="cls-5" cx="47.3" cy="161.24" r="2.27"/><circle class="cls-5" cx="38.61" cy="158.21" r="2.27"/><circle class="cls-5" cx="38.61" cy="171.58" r="2.27"/><circle class="cls-5" cx="88.63" cy="156.7" r="2.27"/><circle class="cls-5" cx="86.9" cy="152.12" r="2.27"/><circle class="cls-5" cx="78.39" cy="145.27" r="2.27"/><circle class="cls-5" cx="87.83" cy="134.12" r="2.27"/><circle class="cls-5" cx="93.18" cy="141.12" r="2.27"/><circle class="cls-5" cx="96.64" cy="137.1" r="2.27"/><circle class="cls-5" cx="95.45" cy="128.01" r="2.27"/><circle class="cls-5" cx="90.1" cy="126.63" r="2.27"/><circle class="cls-5" cx="83.29" cy="122.95" r="2.27"/><circle class="cls-5" cx="97.72" cy="121.2" r="2.27"/><circle class="cls-5" cx="96.28" cy="116.03" r="2.27"/><circle class="cls-5" cx="74.68" cy="140.27" r="2.27"/><circle class="cls-5" cx="70.83" cy="136.39" r="2.27"/><circle class="cls-5" cx="61.13" cy="143" r="2.27"/><circle class="cls-5" cx="43.15" cy="134.83" r="2.27"/><circle class="cls-5" cx="37.42" cy="138" r="2.27"/><circle class="cls-5" cx="95.45" cy="147.54" r="2.27"/><circle class="cls-5" cx="103.09" cy="148.26" r="2.27"/><circle class="cls-5" cx="100.82" cy="153.67" r="2.27"/><circle class="cls-5" cx="98.55" cy="161.24" r="2.27"/><circle class="cls-5" cx="100.82" cy="167.04" r="2.27"/><circle class="cls-5" cx="109.61" cy="168.05" r="2.27"/><circle class="cls-5" cx="137.75" cy="200.6" r="2.27" transform="translate(-128.39 233.28) rotate(-67.54)"/><circle class="cls-5" cx="152.72" cy="204.13" r="2.27" transform="translate(-122.4 249.3) rotate(-67.54)"/><circle class="cls-5" cx="151.93" cy="191.84" r="2.27" transform="translate(-111.53 240.98) rotate(-67.54)"/><circle class="cls-5" cx="179" cy="152.82" r="2.27" transform="translate(-58.74 241.87) rotate(-67.54)"/><circle class="cls-5" cx="177.32" cy="158.74" r="2.27"/><circle class="cls-5" cx="171.38" cy="146.79" r="2.27"/><circle class="cls-5" cx="172.97" cy="132.06" r="2.27"/><circle class="cls-5" cx="158.74" cy="142.54" r="2.27"/><circle class="cls-5" cx="196.92" cy="180.26" r="2.27" transform="translate(-88.77 232.54) rotate(-57.73)"/><circle class="cls-5" cx="172.74" cy="194.97" r="2.27" transform="translate(-112.48 218.96) rotate(-57.73)"/><circle class="cls-5" cx="162.43" cy="209.42" r="2.27" transform="translate(-129.5 216.98) rotate(-57.73)"/><circle class="cls-5" cx="171.39" cy="179.23" r="2.27" transform="translate(-99.79 210.48) rotate(-57.73)"/><circle class="cls-5" cx="141.67" cy="194.4" r="2.27" transform="matrix(0.53, -0.85, 0.85, 0.53, -126.47, 192.42)"/><circle class="cls-5" cx="182.48" cy="171.99" r="2.27" transform="translate(-88.5 216.48) rotate(-57.73)"/><circle class="cls-5" cx="171.39" cy="168.88" r="2.27" transform="translate(-91.04 205.65) rotate(-57.73)"/><circle class="cls-5" cx="161.23" cy="163.42" r="2.27" transform="matrix(0.53, -0.85, 0.85, 0.53, -91.16, 194.51)"/><circle class="cls-5" cx="166.91" cy="159.82" r="2.27" transform="matrix(0.53, -0.85, 0.85, 0.53, -85.47, 197.64)"/><circle class="cls-5" cx="133.71" cy="154.38" r="2.27" transform="translate(-96.35 167.03) rotate(-57.73)"/><circle class="cls-5" cx="132.29" cy="160.89" r="2.27" transform="matrix(0.53, -0.85, 0.85, 0.53, -102.51, 168.86)"/><circle class="cls-5" cx="141.67" cy="156.34" r="2.27" transform="matrix(0.53, -0.85, 0.85, 0.53, -94.29, 174.67)"/><circle class="cls-5" cx="148.32" cy="150.05" r="2.27" transform="translate(-85.87 177.37) rotate(-57.73)"/><circle class="cls-5" cx="143.04" cy="148.11" r="2.27" transform="matrix(0.53, -0.85, 0.85, 0.53, -86.7, 172)"/><circle class="cls-5" cx="137.75" cy="144.09" r="2.27" transform="translate(-85.77 165.66) rotate(-57.73)"/><circle class="cls-5" cx="144.42" cy="140.95" r="2.27" transform="matrix(0.53, -0.85, 0.85, 0.53, -80, 169.83)"/><circle class="cls-5" cx="145.6" cy="135.54" r="2.27" transform="matrix(0.53, -0.85, 0.85, 0.53, -74.87, 168.31)"/><circle class="cls-5" cx="154.8" cy="135.54" r="2.27" transform="matrix(0.53, -0.85, 0.85, 0.53, -70.58, 176.08)"/><circle class="cls-5" cx="158.56" cy="129.68" r="2.27" transform="translate(-63.88 176.53) rotate(-57.73)"/><circle class="cls-5" cx="138.5" cy="139.2" r="2.27" transform="translate(-81.28 164) rotate(-57.73)"/><circle class="cls-5" cx="132.19" cy="135.21" r="2.27" transform="matrix(0.53, -0.85, 0.85, 0.53, -80.85, 156.81)"/><circle class="cls-5" cx="137.75" cy="131.75" r="2.27" transform="translate(-75.33 159.9) rotate(-57.73)"/><circle class="cls-5" cx="141.67" cy="125.55" r="2.27" transform="matrix(0.53, -0.85, 0.85, 0.53, -68.26, 160.32)"/><circle class="cls-5" cx="147.24" cy="129.07" r="2.27" transform="translate(-76.65 115.43) rotate(-42.51)"/><circle class="cls-5" cx="132.89" cy="139.37" r="2.27" transform="translate(-42.26 245.76) rotate(-86.6)"/><circle class="cls-5" cx="148.28" cy="144.71" r="2.27" transform="matrix(0.53, -0.85, 0.85, 0.53, -81.38, 174.85)"/><circle class="cls-5" cx="150.18" cy="140.13" r="2.27" transform="translate(-81.24 151.56) rotate(-51.25)"/><circle class="cls-5" cx="164.23" cy="147.6" r="2.27" transform="translate(-81.81 165.32) rotate(-51.25)"/><circle class="cls-5" cx="165.99" cy="184.63" r="2.27" transform="matrix(0.53, -0.85, 0.85, 0.53, -106.88, 208.43)"/><circle class="cls-5" cx="163.01" cy="179.23" r="2.27" transform="translate(-103.7 203.4) rotate(-57.73)"/><circle class="cls-5" cx="157.24" cy="181.79" r="2.27" transform="matrix(0.53, -0.85, 0.85, 0.53, -108.55, 199.71)"/><circle class="cls-5" cx="158.56" cy="175.44" r="2.27" transform="translate(-102.58 197.86) rotate(-57.73)"/><circle class="cls-5" cx="143.76" cy="163.42" r="2.27" transform="matrix(0.53, -0.85, 0.85, 0.53, -99.3, 179.74)"/><circle class="cls-5" cx="148.28" cy="160.51" r="2.27" transform="matrix(0.53, -0.85, 0.85, 0.53, -94.74, 182.21)"/><circle class="cls-5" cx="155.82" cy="152.82" r="2.27" transform="matrix(0.53, -0.85, 0.85, 0.53, -84.72, 185)"/><circle class="cls-5" cx="157.24" cy="145.04" r="2.27" transform="translate(-77.48 182.58) rotate(-57.73)"/><circle class="cls-5" cx="162.05" cy="144.71" r="2.27" transform="matrix(0.53, -0.85, 0.85, 0.53, -74.97, 186.49)"/><circle class="cls-5" cx="159.31" cy="139.37" r="2.27" transform="matrix(0.53, -0.85, 0.85, 0.53, -71.72, 181.68)"/><circle class="cls-5" cx="164.23" cy="138.77" r="2.27" transform="matrix(0.53, -0.85, 0.85, 0.53, -68.92, 185.56)"/><circle class="cls-5" cx="172.74" cy="140.13" r="2.27" transform="translate(-76.64 99.19) rotate(-33.13)"/><circle class="cls-5" cx="166.91" cy="135.25" r="2.27" transform="matrix(0.53, -0.85, 0.85, 0.53, -64.69, 186.19)"/><circle class="cls-5" cx="163.01" cy="132.49" r="2.27" transform="matrix(0.53, -0.85, 0.85, 0.53, -64.18, 181.61)"/><circle class="cls-5" cx="155.07" cy="124.79" r="2.27" transform="translate(-61.37 171.31) rotate(-57.73)"/><circle class="cls-5" cx="150.11" cy="126.43" r="2.27" transform="translate(-65.07 167.88) rotate(-57.73)"/><circle class="cls-5" cx="148.08" cy="121.97" r="2.27" transform="translate(-62.25 164.07) rotate(-57.73)"/><circle class="cls-5" cx="156.49" cy="120.59" r="2.27" transform="matrix(0.53, -0.85, 0.85, 0.53, -57.16, 170.54)"/><circle class="cls-5" cx="161.23" cy="117.55" r="2.27" transform="matrix(0.53, -0.85, 0.85, 0.53, -52.38, 173.14)"/><circle class="cls-5" cx="164.23" cy="113.49" r="2.27" transform="matrix(0.53, -0.85, 0.85, 0.53, -47.54, 173.78)"/><circle class="cls-5" cx="165.99" cy="119.33" r="2.27" transform="translate(-4.98 247.59) rotate(-81.39)"/><circle class="cls-5" cx="178.08" cy="119.33" r="2.27" transform="translate(5.29 259.53) rotate(-81.39)"/><circle class="cls-5" cx="175.01" cy="115.68" r="2.27" transform="translate(6.29 253.4) rotate(-81.39)"/><circle class="cls-5" cx="181.45" cy="112.22" r="2.27" transform="translate(15.18 256.83) rotate(-81.39)"/><circle class="cls-5" cx="151.68" cy="117.55" r="2.27" transform="translate(-15.4 231.93) rotate(-81.39)"/><circle class="cls-5" cx="155.07" cy="113.67" r="2.27" transform="translate(-8.67 231.98) rotate(-81.39)"/><circle class="cls-5" cx="148" cy="114.7" r="2.27" transform="translate(-15.7 225.87) rotate(-81.39)"/><circle class="cls-5" cx="141.67" cy="113.49" r="2.27" transform="translate(-19.89 218.57) rotate(-81.39)"/><circle class="cls-5" cx="143.04" cy="118.54" r="2.27" transform="translate(-23.72 224.22) rotate(-81.39)"/><circle class="cls-5" cx="138.78" cy="121.74" r="2.27" transform="translate(-30.51 222.73) rotate(-81.39)"/><circle class="cls-5" cx="137.16" cy="117.26" r="2.27" transform="translate(-27.45 217.32) rotate(-81.39)"/><circle class="cls-5" cx="131.23" cy="116.36" r="2.27" transform="matrix(0.15, -0.99, 0.99, 0.15, -31.6, 210.69)"/><circle class="cls-5" cx="135.48" cy="112.42" r="2.27" transform="translate(-24.1 211.55) rotate(-81.39)"/><circle class="cls-5" cx="144.42" cy="114.7" r="2.27" transform="translate(-18.75 222.32) rotate(-81.39)"/><circle class="cls-5" cx="123.59" cy="129.68" r="2.27" transform="translate(-51.27 214.46) rotate(-81.39)"/><circle class="cls-5" cx="116.76" cy="135.21" r="2.27" transform="translate(-62.55 212.42) rotate(-81.39)"/><circle class="cls-5" cx="111.43" cy="137.77" r="2.27" transform="translate(-69.61 209.32) rotate(-81.39)"/><circle class="cls-5" cx="111.43" cy="131.75" r="2.27" transform="translate(-63.66 204.2) rotate(-81.39)"/><circle class="cls-5" cx="116.06" cy="129.68" r="2.27" transform="translate(-43.11 -2.84) rotate(-7.02)"/><circle class="cls-5" cx="113.37" cy="126.43" r="2.27" transform="translate(-42.74 -3.19) rotate(-7.02)"/><circle class="cls-5" cx="113.88" cy="121.6" r="2.27" transform="translate(-42.14 -3.16) rotate(-7.02)"/><circle class="cls-5" cx="105.09" cy="127.16" r="2.27" transform="translate(-42.89 -4.2) rotate(-7.02)"/><circle class="cls-5" cx="101.23" cy="133.49" r="2.27" transform="translate(-43.69 -4.62) rotate(-7.02)"/><circle class="cls-5" cx="101.23" cy="140.77" r="2.27" transform="translate(-44.58 -4.57) rotate(-7.02)"/><circle class="cls-5" cx="92.73" cy="139.37" r="2.27" transform="translate(-44.47 -5.61) rotate(-7.02)"/><circle class="cls-5" cx="89.53" cy="145.19" r="2.27" transform="translate(-45.21 -5.96) rotate(-7.02)"/><circle class="cls-5" cx="84.3" cy="148.11" r="2.27" transform="translate(-45.6 -6.58) rotate(-7.02)"/><circle class="cls-5" cx="84.3" cy="140.13" r="2.27" transform="translate(-44.63 -6.64) rotate(-7.02)"/><circle class="cls-5" cx="71.29" cy="142.33" r="2.27" transform="translate(-44.99 -8.21) rotate(-7.02)"/><circle class="cls-5" cx="83.65" cy="134.86" r="2.27" transform="translate(-43.99 -6.76) rotate(-7.02)"/><circle class="cls-5" cx="87.84" cy="131.47" r="2.27" transform="translate(-43.54 -6.27) rotate(-7.02)"/><circle class="cls-5" cx="85.92" cy="127.16" r="2.27" transform="translate(-43.03 -6.54) rotate(-7.02)"/><circle class="cls-5" cx="82.58" cy="124.79" r="2.27" transform="translate(-42.77 -6.96) rotate(-7.02)"/><circle class="cls-5" cx="85.92" cy="121.6" r="2.27" transform="translate(-42.35 -6.58) rotate(-7.02)"/><circle class="cls-5" cx="82.58" cy="114.14" r="2.27" transform="translate(-41.47 -7.04) rotate(-7.02)"/><circle class="cls-5" cx="72.85" cy="96.08" r="2.27" transform="translate(-74.73 61.67) rotate(-45)"/><circle class="cls-5" cx="78.26" cy="108.73" r="2.27" transform="translate(-64.57 21.52) rotate(-23.15)"/><circle class="cls-5" cx="80.38" cy="88.55" r="2.27" transform="translate(-56.47 20.73) rotate(-23.15)"/><circle class="cls-5" cx="96.21" cy="90.61" r="2.27" transform="translate(-56.01 27.12) rotate(-23.15)"/><circle class="cls-5" cx="98.75" cy="93.28" r="2.27" transform="translate(-56.85 28.33) rotate(-23.15)"/><circle class="cls-5" cx="100.55" cy="96.82" r="2.27" transform="translate(-58.1 29.32) rotate(-23.15)"/><circle class="cls-5" cx="103.04" cy="93.28" r="2.27" transform="translate(-56.51 30.02) rotate(-23.15)"/><circle class="cls-5" cx="106.6" cy="89.09" r="2.27" transform="translate(-54.57 31.08) rotate(-23.15)"/><circle class="cls-5" cx="111.1" cy="88" r="2.27" transform="translate(-53.78 32.76) rotate(-23.15)"/><circle class="cls-5" cx="113.96" cy="91.85" r="2.27" transform="translate(-55.06 34.2) rotate(-23.15)"/><circle class="cls-5" cx="119.03" cy="94.43" r="2.27" transform="translate(-52 24.81) rotate(-18.56)"/><circle class="cls-5" cx="113.88" cy="103.55" r="2.27" transform="translate(-55.17 23.64) rotate(-18.56)"/><circle class="cls-5" cx="117.28" cy="106.56" r="2.27" transform="translate(-55.96 24.88) rotate(-18.56)"/><circle class="cls-5" cx="118.26" cy="103.14" r="2.27" transform="translate(-54.82 25.02) rotate(-18.56)"/><circle class="cls-5" cx="122.61" cy="105.09" r="2.27" transform="translate(-55.21 26.5) rotate(-18.56)"/><circle class="cls-5" cx="123.87" cy="101.7" r="2.27" transform="translate(-54.06 26.73) rotate(-18.56)"/><circle class="cls-5" cx="120.99" cy="98.47" r="2.27" transform="translate(-53.19 25.64) rotate(-18.56)"/><circle class="cls-5" cx="124.42" cy="96.21" r="2.27" transform="translate(-52.29 26.62) rotate(-18.56)"/><circle class="cls-5" cx="122.93" cy="91.77" r="2.27" transform="translate(-50.95 25.91) rotate(-18.56)"/><circle class="cls-5" cx="117.01" cy="89.78" r="2.27" transform="translate(-50.63 23.93) rotate(-18.56)"/><circle class="cls-5" cx="119.88" cy="86.42" r="2.27" transform="translate(-49.41 24.66) rotate(-18.56)"/><circle class="cls-5" cx="125.15" cy="88" r="2.27" transform="translate(-49.64 26.42) rotate(-18.56)"/><circle class="cls-5" cx="129.02" cy="85.41" r="2.27" transform="translate(-48.61 27.52) rotate(-18.56)"/><circle class="cls-5" cx="127.19" cy="92.88" r="2.27" transform="translate(-51.09 27.33) rotate(-18.56)"/><circle class="cls-5" cx="129.64" cy="98.99" r="2.27" transform="translate(-52.9 28.42) rotate(-18.56)"/><circle class="cls-5" cx="129.02" cy="105.24" r="2.27" transform="translate(-54.92 28.55) rotate(-18.56)"/><circle class="cls-5" cx="125.86" cy="109.07" r="2.27" transform="translate(-56.31 27.74) rotate(-18.56)"/><circle class="cls-5" cx="133.23" cy="105.37" r="2.27" transform="translate(-54.75 29.9) rotate(-18.56)"/><circle class="cls-5" cx="134.59" cy="101.07" r="2.27" transform="translate(-53.31 30.11) rotate(-18.56)"/><circle class="cls-5" cx="134.25" cy="96.42" r="2.27" transform="matrix(0.95, -0.32, 0.32, 0.95, -51.84, 29.76)"/><circle class="cls-5" cx="137.75" cy="93.77" r="2.27" transform="translate(-50.82 30.73) rotate(-18.56)"/><circle class="cls-5" cx="136.92" cy="87.52" r="2.27" transform="translate(-48.87 30.14) rotate(-18.56)"/><circle class="cls-5" cx="141.67" cy="87.52" r="2.27" transform="translate(-48.62 31.66) rotate(-18.56)"/><circle class="cls-5" cx="147.9" cy="86.42" r="2.27" transform="translate(-47.95 33.58) rotate(-18.56)"/><circle class="cls-5" cx="137.16" cy="83.55" r="2.27" transform="translate(-47.6 30.02) rotate(-18.56)"/><circle class="cls-5" cx="131.83" cy="82.07" r="2.27" transform="translate(-47.4 28.24) rotate(-18.56)"/><circle class="cls-5" cx="141.91" cy="92.88" r="2.27" transform="translate(-50.32 32.01) rotate(-18.56)"/><circle class="cls-5" cx="141.57" cy="98.99" r="2.27" transform="translate(-52.28 32.22) rotate(-18.56)"/><circle class="cls-5" cx="137.5" cy="103.55" r="2.27" transform="translate(-53.95 31.16) rotate(-18.56)"/><circle class="cls-5" cx="142.34" cy="103.66" r="2.27" transform="translate(-53.73 32.71) rotate(-18.56)"/><circle class="cls-5" cx="145.6" cy="97.73" r="2.27" transform="translate(-51.67 33.44) rotate(-18.56)"/><circle class="cls-5" cx="146.88" cy="93.2" r="2.27" transform="translate(-50.16 33.61) rotate(-18.56)"/><circle class="cls-5" cx="148.32" cy="103.44" r="2.27" transform="translate(-53.35 34.6) rotate(-18.56)"/><circle class="cls-5" cx="153.68" cy="104.37" r="2.27" transform="translate(-53.37 36.36) rotate(-18.56)"/><circle class="cls-5" cx="156.81" cy="106.56" r="2.27" transform="translate(-53.9 37.47) rotate(-18.56)"/><circle class="cls-5" cx="161.9" cy="103.44" r="2.27" transform="translate(-52.64 38.92) rotate(-18.56)"/><circle class="cls-5" cx="164.23" cy="106.56" r="2.27" transform="translate(-53.51 39.83) rotate(-18.56)"/><circle class="cls-5" cx="166.2" cy="102.57" r="2.27" transform="translate(-52.14 40.25) rotate(-18.56)"/><circle class="cls-5" cx="169.58" cy="98.47" r="2.27" transform="translate(-50.66 41.11) rotate(-18.56)"/><circle class="cls-5" cx="172.34" cy="101.7" r="2.27" transform="translate(-51.54 42.16) rotate(-18.56)"/><circle class="cls-5" cx="175.43" cy="98.9" r="2.27" transform="translate(-50.49 43) rotate(-18.56)"/><circle class="cls-5" cx="172.79" cy="94.76" r="2.27" transform="translate(-49.31 41.94) rotate(-18.56)"/><circle class="cls-5" cx="168.79" cy="92.88" r="2.27" transform="translate(-48.92 40.57) rotate(-18.56)"/><circle class="cls-5" cx="171.74" cy="88.02" r="2.27" transform="translate(-47.22 41.25) rotate(-18.56)"/><circle class="cls-5" cx="172.34" cy="84.11" r="2.27" transform="translate(-45.95 41.24) rotate(-18.56)"/><circle class="cls-5" cx="159.82" cy="89.78" r="2.27" transform="translate(-48.4 37.55) rotate(-18.56)"/><circle class="cls-5" cx="161.23" cy="84.96" r="2.27" transform="translate(-46.79 37.75) rotate(-18.56)"/><circle class="cls-5" cx="157.45" cy="82.72" r="2.27" transform="translate(-46.28 36.43) rotate(-18.56)"/><circle class="cls-5" cx="160.34" cy="78.91" r="2.27" transform="translate(-44.91 37.15) rotate(-18.56)"/><circle class="cls-5" cx="163.6" cy="72.15" r="2.27" transform="translate(-35.73 2.54) rotate(-7.02)"/><circle class="cls-5" cx="159.13" cy="75.3" r="2.27" transform="translate(-43.83 36.58) rotate(-18.56)"/><circle class="cls-5" cx="158.52" cy="71.44" r="2.27" transform="translate(-10.74 155.01) rotate(-60)"/><circle class="cls-5" cx="172.03" cy="72.26" r="2.27" transform="translate(-4.7 167.12) rotate(-60)"/><circle class="cls-5" cx="158.56" cy="67.11" r="2.27" transform="translate(-6.97 152.88) rotate(-60)"/><circle class="cls-5" cx="152.83" cy="73.02" r="2.27" transform="translate(-14.96 150.87) rotate(-60)"/><circle class="cls-5" cx="146.88" cy="72.26" r="2.27" transform="translate(-17.28 145.34) rotate(-60)"/><circle class="cls-5" cx="148.95" cy="68.66" r="2.27" transform="translate(-13.12 145.34) rotate(-60)"/><circle class="cls-5" cx="151.68" cy="66.19" r="2.27" transform="translate(-9.62 146.47) rotate(-60)"/><circle class="cls-5" cx="139.82" cy="72.19" r="2.27" transform="translate(-20.74 139.19) rotate(-60)"/><circle class="cls-5" cx="138.5" cy="78.08" r="2.27" transform="translate(-26.5 140.99) rotate(-60)"/><circle class="cls-5" cx="133.71" cy="72.15" r="2.27" transform="translate(-23.76 133.88) rotate(-60)"/><circle class="cls-5" cx="137.41" cy="69.42" r="2.27" transform="translate(-19.55 135.72) rotate(-60)"/><circle class="cls-5" cx="141.33" cy="66.85" r="2.27" transform="translate(-15.36 137.83) rotate(-60)"/><circle class="cls-5" cx="126.04" cy="72.56" r="2.27" transform="translate(-27.95 127.44) rotate(-60)"/><circle class="cls-5" cx="126.04" cy="69.03" r="2.27" transform="translate(-24.9 125.68) rotate(-60)"/><circle class="cls-5" cx="125.86" cy="77.41" r="2.27" transform="translate(-32.25 129.71) rotate(-60)"/><circle class="cls-5" cx="119.03" cy="77.93" r="2.27" transform="translate(-36.11 124.06) rotate(-60)"/><circle class="cls-5" cx="121.27" cy="74.05" r="2.27" transform="translate(-31.64 124.06) rotate(-60)"/><circle class="cls-5" cx="113.96" cy="77.54" r="2.27" transform="translate(-38.3 119.47) rotate(-60)"/><circle class="cls-5" cx="112.66" cy="73.02" r="2.27" transform="translate(-35.05 116.09) rotate(-60)"/><circle class="cls-5" cx="104.74" cy="75.3" r="2.27" transform="translate(-40.98 110.37) rotate(-60)"/><circle class="cls-5" cx="116.47" cy="59.77" r="2.27" transform="translate(-21.66 112.76) rotate(-60)"/><circle class="cls-5" cx="128.65" cy="54.4" r="2.27" transform="translate(-10.92 120.63) rotate(-60)"/><circle class="cls-5" cx="137.34" cy="51.45" r="2.27" transform="translate(-4.02 126.67) rotate(-60)"/><circle class="cls-5" cx="132.7" cy="58.78" r="2.27" transform="translate(-12.69 126.33) rotate(-60)"/><circle class="cls-5" cx="106.6" cy="54.4" r="2.27" transform="translate(-21.94 101.53) rotate(-60)"/><circle class="cls-5" cx="97.66" cy="56.57" r="2.27" transform="translate(-28.3 94.88) rotate(-60)"/><circle class="cls-5" cx="95.5" cy="60.32" r="2.27" transform="translate(-32.62 94.88) rotate(-60)"/><circle class="cls-5" cx="101.17" cy="70.15" r="2.27" transform="translate(-38.3 104.7) rotate(-60)"/><circle class="cls-5" cx="104.93" cy="61.83" r="2.27" transform="translate(-29.21 103.8) rotate(-60)"/><circle class="cls-5" cx="144.27" cy="54.4" r="2.27" transform="translate(-3.11 134.15) rotate(-60)"/><circle class="cls-5" cx="95.86" cy="79.72" r="2.27" transform="translate(-49.24 104.88) rotate(-60)"/><circle class="cls-5" cx="95.72" cy="83.57" r="2.27" transform="translate(-52.65 106.69) rotate(-60)"/><circle class="cls-5" cx="90.2" cy="81.18" r="2.27" transform="translate(-53.34 100.72) rotate(-60)"/><circle class="cls-5" cx="87.61" cy="69.03" r="2.27" transform="translate(-44.12 92.4) rotate(-60)"/><circle class="cls-5" cx="102.15" cy="81.74" r="2.27" transform="translate(-47.85 111.34) rotate(-60)"/><circle class="cls-5" cx="109.68" cy="82.72" r="2.27" transform="translate(-44.93 118.36) rotate(-60)"/><circle class="cls-5" cx="105.23" cy="85.89" r="2.27" transform="translate(-49.9 116.09) rotate(-60)"/><circle class="cls-5" cx="148.93" cy="61" r="2.27" transform="translate(-19.99 120.99) rotate(-51.25)"/><circle class="cls-5" cx="177.5" cy="88.55" r="2.27" transform="matrix(0.95, -0.32, 0.32, 0.95, -47.09, 43.11)"/><circle class="cls-5" cx="191.89" cy="86.42" r="2.27" transform="translate(-45.66 47.58) rotate(-18.56)"/><circle class="cls-5" cx="181.93" cy="101.26" r="2.27" transform="translate(-50.9 45.19) rotate(-18.56)"/><circle class="cls-5" cx="197.46" cy="77.93" r="2.27" transform="translate(-42.67 48.92) rotate(-18.56)"/><circle class="cls-5" cx="201.41" cy="91.56" r="2.27" transform="translate(-47.87 80.1) rotate(-26.14)"/><circle class="cls-5" cx="105.09" cy="96.82" r="2.27" transform="translate(-57.73 31.11) rotate(-23.15)"/><circle class="cls-5" cx="103.5" cy="101.07" r="2.27" transform="translate(-59.53 30.83) rotate(-23.15)"/><circle class="cls-5" cx="101.61" cy="105.09" r="2.27" transform="translate(-61.26 30.41) rotate(-23.15)"/><circle class="cls-5" cx="92.8" cy="104.24" r="2.27" transform="translate(-61.64 26.88) rotate(-23.15)"/><circle class="cls-5" cx="107.76" cy="105.24" r="2.27" transform="translate(-60.83 32.84) rotate(-23.15)"/><circle class="cls-5" cx="105.44" cy="108.25" r="2.27" transform="translate(-62.2 32.17) rotate(-23.15)"/><circle class="cls-5" cx="110.47" cy="100.55" r="2.27" transform="translate(-58.77 33.53) rotate(-23.15)"/><circle class="cls-5" cx="114.69" cy="97.73" r="2.27" transform="translate(-57.32 34.96) rotate(-23.15)"/><circle class="cls-5" cx="113.13" cy="95.23" r="2.27" transform="translate(-56.46 34.14) rotate(-23.15)"/><circle class="cls-5" cx="108.37" cy="92.88" r="2.27" transform="translate(-55.92 32.08) rotate(-23.15)"/><circle class="cls-5" cx="89.66" cy="90.61" r="2.27" transform="translate(-64.04 50.67) rotate(-35.39)"/><circle class="cls-5" cx="91.78" cy="87.52" r="2.27" transform="translate(-59.35 100.41) rotate(-57.73)"/><circle class="cls-5" cx="88.49" cy="113.67" r="2.27" transform="translate(-41.36 -6.33) rotate(-7.02)"/><circle class="cls-5" cx="97.09" cy="116.77" r="2.27" transform="translate(-41.68 -5.25) rotate(-7.02)"/><circle class="cls-5" cx="98.75" cy="120.59" r="2.27" transform="translate(-42.13 -5.02) rotate(-7.02)"/><circle class="cls-5" cx="101.61" cy="121.96" r="2.27" transform="translate(-42.28 -4.66) rotate(-7.02)"/><circle class="cls-5" cx="102.82" cy="118.14" r="2.27" transform="translate(-41.8 -4.54) rotate(-7.02)"/><circle class="cls-5" cx="106.6" cy="116.77" r="2.27" transform="translate(-41.61 -4.09) rotate(-7.02)"/><circle class="cls-5" cx="103.43" cy="113.67" r="2.27" transform="translate(-41.25 -4.5) rotate(-7.02)"/><circle class="cls-5" cx="111.61" cy="112.08" r="2.27" transform="translate(-41 -3.51) rotate(-7.02)"/><circle class="cls-5" cx="116.76" cy="114.56" r="2.27" transform="translate(-41.26 -2.86) rotate(-7.02)"/><circle class="cls-5" cx="119.05" cy="111.27" r="2.27" transform="translate(-40.84 -2.61) rotate(-7.02)"/><circle class="cls-5" cx="122.72" cy="113.67" r="2.27" transform="translate(-41.11 -2.14) rotate(-7.02)"/><circle class="cls-5" cx="120.99" cy="118.19" r="2.27" transform="translate(-41.67 -2.32) rotate(-7.02)"/><circle class="cls-5" cx="122.51" cy="121.96" r="2.27" transform="translate(-42.12 -2.11) rotate(-7.02)"/><circle class="cls-5" cx="126.35" cy="122.18" r="2.27" transform="translate(-42.12 -1.63) rotate(-7.02)"/><circle class="cls-5" cx="123.87" cy="126.43" r="2.27" transform="translate(-42.66 -1.91) rotate(-7.02)"/><circle class="cls-5" cx="119.05" cy="124.93" r="2.27" transform="translate(-42.51 -2.51) rotate(-7.02)"/><circle class="cls-5" cx="131.23" cy="111.91" r="2.27" transform="translate(-40.83 -1.12) rotate(-7.02)"/><circle class="cls-5" cx="93.19" cy="119.33" r="2.27" transform="translate(-42.02 -5.71) rotate(-7.02)"/><circle class="cls-5" cx="95.5" cy="123.2" r="2.27" transform="translate(-75.12 168.43) rotate(-76.14)"/><circle class="cls-5" cx="175.01" cy="131.75" r="2.27" transform="matrix(0.53, -0.85, 0.85, 0.53, -57.96, 191.41)"/><circle class="cls-5" cx="177.67" cy="137.97" r="2.27" transform="translate(-61.98 196.55) rotate(-57.73)"/><circle class="cls-5" cx="185.13" cy="135.21" r="2.27" transform="matrix(0.53, -0.85, 0.85, 0.53, -56.17, 201.58)"/><circle class="cls-5" cx="204.16" cy="130.71" r="2.27" transform="translate(-43.49 215.57) rotate(-57.73)"/><circle class="cls-5" cx="148.93" cy="179.23" r="2.27" transform="matrix(0.53, -0.85, 0.85, 0.53, -110.26, 191.49)"/><circle class="cls-5" cx="143.76" cy="175.44" r="2.27" transform="matrix(0.53, -0.85, 0.85, 0.53, -109.47, 185.35)"/><circle class="cls-5" cx="150.18" cy="170.11" r="2.27" transform="matrix(0.53, -0.85, 0.85, 0.53, -101.97, 188.29)"/><circle class="cls-5" cx="151.93" cy="165.89" r="2.27" transform="matrix(0.53, -0.85, 0.85, 0.53, -97.59, 187.81)"/><circle class="cls-5" cx="185.39" cy="175.87" r="2.27" transform="translate(-97.63 176.24) rotate(-47.61)"/><circle class="cls-5" cx="211.42" cy="189.57" r="2.27" transform="matrix(0.53, -0.85, 0.85, 0.53, -89.88, 249.14)"/><circle class="cls-1" cx="126.28" cy="98.05" r="2.27" transform="translate(-52.78 27.31) rotate(-18.56)"/><circle class="cls-1" cx="115.81" cy="92.68" r="2.27" transform="translate(-51.61 23.69) rotate(-18.56)"/><circle class="cls-1" cx="138.78" cy="89.7" r="2.27" transform="translate(-49.47 30.85) rotate(-18.56)"/><circle class="cls-1" cx="123.84" cy="83.65" r="2.27" transform="translate(-48.32 25.78) rotate(-18.56)"/><circle class="cls-1" cx="121.38" cy="108.57" r="2.27" transform="translate(-56.38 26.29) rotate(-18.56)"/><circle class="cls-1" cx="108.8" cy="112.79" r="2.27" transform="translate(-58.38 22.51) rotate(-18.56)"/><circle class="cls-1" cx="114.49" cy="118.99" r="2.27" transform="translate(-60.06 24.64) rotate(-18.56)"/><circle class="cls-1" cx="135.87" cy="115.16" r="2.27" transform="translate(-57.73 31.25) rotate(-18.56)"/><circle class="cls-1" cx="146.95" cy="109.97" r="2.27" transform="translate(-55.5 34.51) rotate(-18.56)"/><circle class="cls-1" cx="150.57" cy="119.2" r="2.27" transform="translate(-58.25 36.14) rotate(-18.56)"/><circle class="cls-1" cx="155.82" cy="111.27" r="2.27" transform="translate(-55.45 37.4) rotate(-18.56)"/><circle class="cls-1" cx="164.48" cy="103.66" r="2.27" transform="translate(-52.58 39.76) rotate(-18.56)"/><circle class="cls-1" cx="172.22" cy="98.05" r="2.27" transform="translate(-50.39 41.93) rotate(-18.56)"/><circle class="cls-1" cx="163.78" cy="89.51" r="2.27" transform="translate(-48.11 38.8) rotate(-18.56)"/><circle class="cls-1" cx="157.17" cy="93.77" r="2.27" transform="translate(-49.81 36.91) rotate(-18.56)"/><circle class="cls-1" cx="158.73" cy="79.72" r="2.27" transform="translate(-45.25 36.68) rotate(-18.56)"/><circle class="cls-1" cx="154.24" cy="88.23" r="2.27" transform="translate(-48.2 35.69) rotate(-18.56)"/><path class="cls-2" d="M33.46,124.49a2.84,2.84,0,0,0,.41-1.44c0-.82-.43-1.3-1.06-1.3s-.91.33-1.23,1.17c-.36,1-.88,1.64-1.76,1.64a1.79,1.79,0,0,1-1.68-2,2.81,2.81,0,0,1,.3-1.37l.65.22a2.47,2.47,0,0,0-.29,1.18c0,.85.51,1.17.93,1.17.58,0,.87-.38,1.2-1.23.4-1,.91-1.58,1.82-1.58s1.79.71,1.79,2.17a3.2,3.2,0,0,1-.4,1.58Z" transform="translate(-28.14 -17.99)"/><path class="cls-2" d="M31.44,119.87c-.57,0-1,0-1.45,0v-.73l.76,0v0a1.75,1.75,0,0,1-.87-1.58,2,2,0,0,1,2.26-1.89,2.11,2.11,0,0,1,2.39,2,1.56,1.56,0,0,1-.7,1.37v0h2.42v.8Zm1.19-.8a1.82,1.82,0,0,0,.33,0,1.25,1.25,0,0,0,.95-1.21c0-.86-.7-1.35-1.72-1.35s-1.66.47-1.66,1.33a1.29,1.29,0,0,0,1,1.22,1.32,1.32,0,0,0,.33.05Z" transform="translate(-28.14 -17.99)"/><path class="cls-2" d="M34.44,112.17l-.56.06v0a1.66,1.66,0,0,1,.66,1.36A1.27,1.27,0,0,1,33.26,115c-1.08,0-1.67-1-1.66-2.68h-.09a.92.92,0,0,0-1,1,2.22,2.22,0,0,0,.33,1.16l-.53.18a2.76,2.76,0,0,1-.4-1.46c0-1.36.93-1.69,1.82-1.69h1.67a6.22,6.22,0,0,0,1.07-.07Zm-2.27.12c0,.88.14,1.89,1,1.89a.72.72,0,0,0,.77-.76,1.11,1.11,0,0,0-.75-1.08.82.82,0,0,0-.26,0Z" transform="translate(-28.14 -17.99)"/><path class="cls-2" d="M34.27,107a3,3,0,0,1,.26,1.28,2.12,2.12,0,0,1-2.27,2.22,2.26,2.26,0,0,1-2.36-2.39,2.71,2.71,0,0,1,.23-1.12l.63.18a1.88,1.88,0,0,0-.21.94,1.68,1.68,0,0,0,3.35,0,2.31,2.31,0,0,0-.22-1Z" transform="translate(-28.14 -17.99)"/><path class="cls-2" d="M28.73,105.19a.5.5,0,0,1,0,1,.49.49,0,0,1-.51-.51A.48.48,0,0,1,28.73,105.19Zm5.71.9H30v-.81h4.45Z" transform="translate(-28.14 -17.99)"/><path class="cls-2" d="M31.19,103.94c-.46,0-.84,0-1.21,0v-.72l.74,0v0a1.64,1.64,0,0,1-.84-1.47c0-.62.37-1.57,1.9-1.57h2.66V101H31.87c-.72,0-1.32.27-1.32,1a1.15,1.15,0,0,0,.83,1.09,1.18,1.18,0,0,0,.38.05h2.68v.81Z" transform="translate(-28.14 -17.99)"/><path class="cls-2" d="M30,95c.32,0,.68,0,1.22,0h2.58a2.56,2.56,0,0,1,2,.63,2.36,2.36,0,0,1,.53,1.62A2.87,2.87,0,0,1,36,98.77l-.62-.2a2.52,2.52,0,0,0,.35-1.31c0-.83-.43-1.44-1.55-1.44h-.5v0a1.59,1.59,0,0,1,.75,1.42,2,2,0,0,1-2.17,1.9,2.14,2.14,0,0,1-2.37-2,1.48,1.48,0,0,1,.77-1.39v0l-.67,0Zm1.76.84a1.14,1.14,0,0,0-.37,0A1.17,1.17,0,0,0,30.52,97c0,.77.65,1.32,1.68,1.32.88,0,1.6-.44,1.6-1.32A1.18,1.18,0,0,0,33,95.9a1.41,1.41,0,0,0-.43-.06Z" transform="translate(-28.14 -17.99)"/><path class="cls-2" d="M99.66,218.39a9.29,9.29,0,0,1,1.54-.12,2.55,2.55,0,0,1,1.74.51,1.67,1.67,0,0,1,.54,1.3,1.82,1.82,0,0,1-.48,1.32,2.57,2.57,0,0,1-1.9.68,2.75,2.75,0,0,1-.64-.06v2.48h-.8Zm.8,3a2.69,2.69,0,0,0,.66.06c1,0,1.55-.47,1.55-1.33s-.58-1.21-1.46-1.21a3.33,3.33,0,0,0-.75.06Z" transform="translate(-28.14 -17.99)"/><path class="cls-2" d="M104.38,221.45c0-.53,0-1,0-1.39H105l0,.87h0a1.33,1.33,0,0,1,1.23-1,.92.92,0,0,1,.23,0v.76a1.27,1.27,0,0,0-.28,0,1.14,1.14,0,0,0-1.09,1,2.26,2.26,0,0,0,0,.38v2.37h-.8Z" transform="translate(-28.14 -17.99)"/><path class="cls-2" d="M111.32,222.25a2.18,2.18,0,0,1-2.22,2.37,2.12,2.12,0,0,1-2.13-2.29,2.17,2.17,0,0,1,2.21-2.37A2.11,2.11,0,0,1,111.32,222.25Zm-3.53,0c0,1,.56,1.71,1.35,1.71s1.35-.73,1.35-1.73c0-.75-.38-1.71-1.33-1.71S107.79,221.45,107.79,222.3Z" transform="translate(-28.14 -17.99)"/><path class="cls-2" d="M115.51,224.35a3,3,0,0,1-1.28.26,2.12,2.12,0,0,1-2.22-2.27,2.26,2.26,0,0,1,2.39-2.36,2.71,2.71,0,0,1,1.12.23l-.18.63a1.88,1.88,0,0,0-.94-.21,1.68,1.68,0,0,0,0,3.35,2.31,2.31,0,0,0,1-.22Z" transform="translate(-28.14 -17.99)"/><path class="cls-2" d="M116.46,221.45c0-.53,0-1,0-1.39h.71l0,.87h0a1.33,1.33,0,0,1,1.23-1,.92.92,0,0,1,.23,0v.76a1.27,1.27,0,0,0-.28,0,1.14,1.14,0,0,0-1.09,1,2.27,2.27,0,0,0,0,.38v2.37h-.8Z" transform="translate(-28.14 -17.99)"/><path class="cls-2" d="M121.89,224.51l-.06-.56h0a1.66,1.66,0,0,1-1.36.66,1.27,1.27,0,0,1-1.36-1.28c0-1.08,1-1.67,2.68-1.66v-.09a.92.92,0,0,0-1-1,2.22,2.22,0,0,0-1.16.33l-.18-.53a2.76,2.76,0,0,1,1.46-.4c1.36,0,1.69.93,1.69,1.82v1.67a6.22,6.22,0,0,0,.07,1.07Zm-.12-2.27c-.88,0-1.89.14-1.89,1a.72.72,0,0,0,.76.77,1.11,1.11,0,0,0,1.08-.75.82.82,0,0,0,0-.26Z" transform="translate(-28.14 -17.99)"/><path class="cls-2" d="M123.74,223.69a2.12,2.12,0,0,0,1.07.32c.59,0,.86-.29.86-.66s-.23-.6-.83-.82c-.8-.29-1.18-.73-1.18-1.26a1.37,1.37,0,0,1,1.54-1.31,2.22,2.22,0,0,1,1.09.28l-.2.59a1.73,1.73,0,0,0-.91-.26c-.48,0-.75.28-.75.61s.27.53.85.75c.77.29,1.17.68,1.17,1.34s-.61,1.33-1.67,1.33a2.54,2.54,0,0,1-1.25-.3Z" transform="translate(-28.14 -17.99)"/><path class="cls-2" d="M128.47,218.78v1.28h1.16v.62h-1.16v2.4c0,.55.16.87.61.87a1.77,1.77,0,0,0,.47-.06l0,.61a2,2,0,0,1-.72.11,1.12,1.12,0,0,1-.87-.34,1.65,1.65,0,0,1-.31-1.16v-2.43H127v-.62h.69V219Z" transform="translate(-28.14 -17.99)"/><path class="cls-2" d="M131.44,218.81a.5.5,0,0,1-1,0,.49.49,0,0,1,.51-.51A.48.48,0,0,1,131.44,218.81Zm-.9,5.71v-4.45h.81v4.45Z" transform="translate(-28.14 -17.99)"/><path class="cls-2" d="M132.69,221.27c0-.46,0-.84,0-1.21h.72l0,.74h0a1.64,1.64,0,0,1,1.47-.84c.62,0,1.57.37,1.57,1.9v2.66h-.81v-2.57c0-.72-.27-1.32-1-1.32a1.15,1.15,0,0,0-1.09.83,1.18,1.18,0,0,0-.05.38v2.68h-.81Z" transform="translate(-28.14 -17.99)"/><path class="cls-2" d="M140.26,224.51l-.06-.56h0a1.66,1.66,0,0,1-1.36.66,1.27,1.27,0,0,1-1.36-1.28c0-1.08,1-1.67,2.68-1.66v-.09a.92.92,0,0,0-1-1,2.22,2.22,0,0,0-1.16.33l-.18-.53a2.76,2.76,0,0,1,1.46-.4c1.36,0,1.69.93,1.69,1.82v1.67a6.22,6.22,0,0,0,.07,1.07Zm-.12-2.27c-.88,0-1.89.14-1.89,1a.72.72,0,0,0,.76.77,1.11,1.11,0,0,0,1.08-.75.82.82,0,0,0,0-.26Z" transform="translate(-28.14 -17.99)"/><path class="cls-2" d="M143.16,218.78v1.28h1.16v.62h-1.16v2.4c0,.55.16.87.61.87a1.77,1.77,0,0,0,.47-.06l0,.61a2,2,0,0,1-.72.11,1.12,1.12,0,0,1-.87-.34,1.65,1.65,0,0,1-.31-1.16v-2.43h-.69v-.62h.69V219Z" transform="translate(-28.14 -17.99)"/><path class="cls-2" d="M146.13,218.81a.5.5,0,0,1-1,0,.49.49,0,0,1,.51-.51A.48.48,0,0,1,146.13,218.81Zm-.9,5.71v-4.45H146v4.45Z" transform="translate(-28.14 -17.99)"/><path class="cls-2" d="M151.41,222.25a2.18,2.18,0,0,1-2.22,2.37,2.12,2.12,0,0,1-2.13-2.29,2.17,2.17,0,0,1,2.21-2.37A2.11,2.11,0,0,1,151.41,222.25Zm-3.53,0c0,1,.56,1.71,1.35,1.71s1.35-.73,1.35-1.73c0-.75-.38-1.71-1.33-1.71S147.88,221.45,147.88,222.3Z" transform="translate(-28.14 -17.99)"/><path class="cls-2" d="M152.43,221.27c0-.46,0-.84,0-1.21h.72l0,.74h0a1.64,1.64,0,0,1,1.47-.84c.62,0,1.57.37,1.57,1.9v2.66h-.81v-2.57c0-.72-.27-1.32-1-1.32a1.15,1.15,0,0,0-1.09.83,1.18,1.18,0,0,0-.05.38v2.68h-.81Z" transform="translate(-28.14 -17.99)"/><path class="cls-6" d="M398.37,328H187.62a.5.5,0,0,1,0-1H398.37a.5.5,0,0,1,0,1Z" transform="translate(-28.14 -17.99)"/><path class="cls-6" d="M398.37,282.38H187.62a.5.5,0,0,1,0-1H398.37a.5.5,0,0,1,0,1Z" transform="translate(-28.14 -17.99)"/><circle class="cls-7" cx="331.04" cy="263.89" r="4.76"/><circle class="cls-7" cx="216.83" cy="309.92" r="4.76"/><path class="cls-8" d="M254.73,357.36h0a.5.5,0,0,1-.5-.5V353.8a.5.5,0,0,1,.5-.5h0a.5.5,0,0,1,.5.5v3.06A.5.5,0,0,1,254.73,357.36Zm0-6.37h0a.5.5,0,0,1-.5-.5v-3.31a.5.5,0,0,1,.5-.5h0a.5.5,0,0,1,.5.5v3.31A.5.5,0,0,1,254.74,351Zm0-6.62h0a.5.5,0,0,1-.5-.5v-3.31a.5.5,0,0,1,.5-.5h0a.5.5,0,0,1,.5.5v3.31A.5.5,0,0,1,254.76,344.37Zm0-6.62h0a.5.5,0,0,1-.5-.5v-3.31a.5.5,0,0,1,.5-.5h0a.5.5,0,0,1,.5.5v3.31A.5.5,0,0,1,254.78,337.75Zm0-6.62h0a.5.5,0,0,1-.5-.5v-3.31a.5.5,0,0,1,.5-.5h0a.5.5,0,0,1,.5.5v3.31A.5.5,0,0,1,254.79,331.12Zm0-6.62h0a.5.5,0,0,1-.5-.5v-3.31a.5.5,0,0,1,.5-.5h0a.5.5,0,0,1,.5.5V324A.5.5,0,0,1,254.81,324.5Zm0-6.62h0a.5.5,0,0,1-.5-.5v-3.31a.5.5,0,0,1,.5-.5h0a.5.5,0,0,1,.5.5v3.31A.5.5,0,0,1,254.83,317.88Zm0-6.62h0a.5.5,0,0,1-.5-.5v-3.31a.5.5,0,0,1,.5-.5h0a.5.5,0,0,1,.5.5v3.31A.5.5,0,0,1,254.84,311.25Zm0-6.62h0a.5.5,0,0,1-.5-.5v-3.31a.5.5,0,0,1,.5-.5h0a.5.5,0,0,1,.5.5v3.31A.5.5,0,0,1,254.86,304.63Zm0-6.62h0a.5.5,0,0,1-.5-.5v-3.31a.5.5,0,0,1,.5-.5h0a.5.5,0,0,1,.5.5v3.31A.5.5,0,0,1,254.87,298Zm0-6.62h0a.5.5,0,0,1-.5-.5v-3.31a.5.5,0,0,1,.5-.5h0a.5.5,0,0,1,.5.5v3.31A.5.5,0,0,1,254.89,291.38Zm0-6.62h0a.5.5,0,0,1-.5-.5v-3.31a.5.5,0,0,1,.5-.5h0a.5.5,0,0,1,.5.5v3.31A.5.5,0,0,1,254.91,284.76Zm0-6.62h0a.5.5,0,0,1-.5-.5v-3.31a.5.5,0,0,1,.5-.5h0a.5.5,0,0,1,.5.5v3.31A.5.5,0,0,1,254.92,278.14Zm0-6.62h0a.5.5,0,0,1-.5-.5V267.7a.5.5,0,0,1,.5-.5h0a.5.5,0,0,1,.5.5V271A.5.5,0,0,1,254.94,271.51Zm0-6.62h0a.5.5,0,0,1-.5-.5v-3.31a.5.5,0,0,1,.5-.5h0a.5.5,0,0,1,.5.5v3.31A.5.5,0,0,1,255,264.89Zm0-6.62h0a.5.5,0,0,1-.5-.5v-3.31a.5.5,0,0,1,.5-.5h0a.5.5,0,0,1,.5.5v3.31A.5.5,0,0,1,255,258.27Z" transform="translate(-28.14 -17.99)"/><path class="cls-6" d="M326.66,356.26a.5.5,0,0,1-.5-.5v-3.31a.5.5,0,0,1,1,0v3.31A.5.5,0,0,1,326.66,356.26Zm0-6.62a.5.5,0,0,1-.5-.5v-3.31a.5.5,0,0,1,1,0v3.31A.5.5,0,0,1,326.66,349.64Zm0-6.62a.5.5,0,0,1-.5-.5V339.2a.5.5,0,0,1,1,0v3.31A.5.5,0,0,1,326.66,343Zm0-6.62a.5.5,0,0,1-.5-.5v-3.31a.5.5,0,0,1,1,0v3.31A.5.5,0,0,1,326.66,336.39Zm0-6.62a.5.5,0,0,1-.5-.5V326a.5.5,0,1,1,1,0v3.31A.5.5,0,0,1,326.66,329.77Zm0-6.62a.5.5,0,0,1-.5-.5v-3.31a.5.5,0,1,1,1,0v3.31A.5.5,0,0,1,326.66,323.14Zm0-6.62a.5.5,0,0,1-.5-.5v-3.31a.5.5,0,0,1,1,0V316A.5.5,0,0,1,326.66,316.52Zm0-6.62a.5.5,0,0,1-.5-.5v-3.31a.5.5,0,0,1,1,0v3.31A.5.5,0,0,1,326.66,309.9Zm0-6.62a.5.5,0,0,1-.5-.5v-3.31a.5.5,0,0,1,1,0v3.31A.5.5,0,0,1,326.66,303.27Zm0-6.62a.5.5,0,0,1-.5-.5v-3.31a.5.5,0,0,1,1,0v3.31A.5.5,0,0,1,326.66,296.65Zm0-6.62a.5.5,0,0,1-.5-.5v-3.31a.5.5,0,1,1,1,0v3.31A.5.5,0,0,1,326.66,290Zm0-6.62a.5.5,0,0,1-.5-.5v-3.31a.5.5,0,0,1,1,0v3.31A.5.5,0,0,1,326.66,283.4Zm0-6.62a.5.5,0,0,1-.5-.5V273a.5.5,0,0,1,1,0v3.31A.5.5,0,0,1,326.66,276.78Z" transform="translate(-28.14 -17.99)"/><path class="cls-6" d="M326.66,264.89a.5.5,0,0,1-.5-.5v-3.31a.5.5,0,0,1,1,0v3.31A.5.5,0,0,1,326.66,264.89Zm0-6.62a.5.5,0,0,1-.5-.5v-3.31a.5.5,0,0,1,1,0v3.31A.5.5,0,0,1,326.66,258.27Z" transform="translate(-28.14 -17.99)"/><path class="cls-6" d="M398.87,357.36H187.12V254l.4-.08c1.28-.26,189.41,0,210.86,0h.5Zm-210.76-1H397.87V255c-11.13,0-199.26-.23-209.76,0Z" transform="translate(-28.14 -17.99)"/><path class="cls-2" d="M319.06,363.5c0,2.08-.77,3.23-2.13,3.23-1.2,0-2-1.12-2-3.15s.89-3.19,2.13-3.19S319.06,361.55,319.06,363.5Zm-3.33.09c0,1.59.49,2.5,1.25,2.5s1.25-1,1.25-2.56-.39-2.5-1.24-2.5S315.73,361.93,315.73,363.6Z" transform="translate(-28.14 -17.99)"/><path class="cls-2" d="M319.89,366.14a.56.56,0,0,1,.57-.59.59.59,0,1,1-.57.59Z" transform="translate(-28.14 -17.99)"/><path class="cls-2" d="M323.58,361.28h0l-1.07.58-.16-.63,1.34-.72h.71v6.13h-.8Z" transform="translate(-28.14 -17.99)"/><path class="cls-2" d="M330.69,363.5c0,2.08-.77,3.23-2.13,3.23-1.2,0-2-1.12-2-3.15s.89-3.19,2.13-3.19S330.69,361.55,330.69,363.5Zm-3.33.09c0,1.59.49,2.5,1.25,2.5s1.25-1,1.25-2.56-.39-2.5-1.24-2.5S327.36,361.93,327.36,363.6Z" transform="translate(-28.14 -17.99)"/><path class="cls-2" d="M334.22,362.23c0,1.29-.68,1.93-1.47,1.93s-1.42-.61-1.43-1.85.67-1.91,1.48-1.91S334.22,361.06,334.22,362.23Zm-2.24.06c0,.78.27,1.38.79,1.38s.79-.58.79-1.4-.22-1.37-.79-1.37S332,361.51,332,362.29Zm.72,4.45,3.6-6.34h.53l-3.6,6.34Zm5.52-2c0,1.29-.68,1.93-1.46,1.93s-1.42-.61-1.43-1.84.67-1.92,1.48-1.92S338.21,363.6,338.21,364.77Zm-2.24.06c0,.78.29,1.38.8,1.38s.79-.58.79-1.4-.22-1.37-.79-1.37S336,364.05,336,364.82Z" transform="translate(-28.14 -17.99)"/><path class="cls-2" d="M247.76,363.5c0,2.08-.77,3.23-2.13,3.23-1.2,0-2-1.12-2-3.15s.89-3.19,2.13-3.19S247.76,361.55,247.76,363.5Zm-3.33.09c0,1.59.49,2.5,1.25,2.5s1.25-1,1.25-2.56-.39-2.5-1.24-2.5S244.43,361.93,244.43,363.6Z" transform="translate(-28.14 -17.99)"/><path class="cls-2" d="M248.59,366.14a.56.56,0,0,1,.57-.59.59.59,0,1,1-.57.59Z" transform="translate(-28.14 -17.99)"/><path class="cls-2" d="M254.55,363.5c0,2.08-.77,3.23-2.13,3.23-1.2,0-2-1.12-2-3.15s.89-3.19,2.13-3.19S254.55,361.55,254.55,363.5Zm-3.33.09c0,1.59.49,2.5,1.25,2.5s1.25-1,1.25-2.56-.39-2.5-1.24-2.5S251.22,361.93,251.22,363.6Z" transform="translate(-28.14 -17.99)"/><path class="cls-2" d="M259.39,363.5c0,2.08-.77,3.23-2.13,3.23-1.2,0-2-1.12-2-3.15s.89-3.19,2.13-3.19S259.39,361.55,259.39,363.5Zm-3.33.09c0,1.59.49,2.5,1.25,2.5s1.25-1,1.25-2.56-.39-2.5-1.24-2.5S256.06,361.93,256.06,363.6Z" transform="translate(-28.14 -17.99)"/><path class="cls-2" d="M262.92,362.23c0,1.29-.68,1.93-1.47,1.93s-1.42-.61-1.43-1.85.67-1.91,1.48-1.91S262.92,361.06,262.92,362.23Zm-2.24.06c0,.78.27,1.38.79,1.38s.79-.58.79-1.4-.22-1.37-.79-1.37S260.68,361.51,260.68,362.29Zm.72,4.45,3.6-6.34h.53l-3.6,6.34Zm5.52-2c0,1.29-.68,1.93-1.46,1.93s-1.42-.61-1.43-1.84.67-1.92,1.48-1.92S266.91,363.6,266.91,364.77Zm-2.24.06c0,.78.29,1.38.8,1.38s.79-.58.79-1.4-.22-1.37-.79-1.37S264.67,364.05,264.67,364.82Z" transform="translate(-28.14 -17.99)"/><path class="cls-2" d="M140.52,283.74a2.84,2.84,0,0,0,1.44.41c.82,0,1.3-.43,1.3-1.06s-.33-.91-1.17-1.23c-1-.36-1.64-.88-1.64-1.76a1.79,1.79,0,0,1,2-1.68,2.81,2.81,0,0,1,1.37.3l-.22.65a2.47,2.47,0,0,0-1.18-.29c-.85,0-1.17.51-1.17.93,0,.58.38.87,1.23,1.2,1,.4,1.58.91,1.58,1.82s-.71,1.79-2.17,1.79a3.2,3.2,0,0,1-1.58-.4Z" transform="translate(-28.14 -17.99)"/><path class="cls-2" d="M145.13,281.71c0-.57,0-1,0-1.45h.73l0,.76h0a1.75,1.75,0,0,1,1.58-.87,2,2,0,0,1,1.89,2.26,2.11,2.11,0,0,1-2,2.39,1.56,1.56,0,0,1-1.37-.7h0v2.42h-.8Zm.8,1.19a1.82,1.82,0,0,0,0,.33,1.25,1.25,0,0,0,1.21.95c.86,0,1.35-.7,1.35-1.72s-.47-1.66-1.33-1.66a1.29,1.29,0,0,0-1.22,1,1.32,1.32,0,0,0-.05.33Z" transform="translate(-28.14 -17.99)"/><path class="cls-2" d="M152.83,284.71l-.06-.56h0a1.66,1.66,0,0,1-1.36.66,1.27,1.27,0,0,1-1.36-1.28c0-1.08,1-1.67,2.68-1.66v-.09a.92.92,0,0,0-1-1,2.21,2.21,0,0,0-1.16.33l-.18-.53a2.76,2.76,0,0,1,1.46-.4c1.36,0,1.69.93,1.69,1.82v1.67a6.22,6.22,0,0,0,.07,1.07Zm-.12-2.27c-.88,0-1.89.14-1.89,1a.72.72,0,0,0,.76.77,1.11,1.11,0,0,0,1.08-.75.82.82,0,0,0,0-.26Z" transform="translate(-28.14 -17.99)"/><path class="cls-2" d="M158,284.55a3,3,0,0,1-1.28.26,2.12,2.12,0,0,1-2.22-2.27,2.26,2.26,0,0,1,2.39-2.36,2.71,2.71,0,0,1,1.12.23l-.18.63a1.88,1.88,0,0,0-.94-.21,1.68,1.68,0,0,0,0,3.35,2.31,2.31,0,0,0,1-.22Z" transform="translate(-28.14 -17.99)"/><path class="cls-2" d="M159.82,279a.5.5,0,0,1-1,0,.49.49,0,0,1,.51-.51A.48.48,0,0,1,159.82,279Zm-.9,5.71v-4.45h.81v4.45Z" transform="translate(-28.14 -17.99)"/><path class="cls-2" d="M161.07,281.46c0-.46,0-.84,0-1.21h.72l0,.74h0a1.64,1.64,0,0,1,1.47-.84c.62,0,1.57.37,1.57,1.9v2.66h-.81v-2.57c0-.72-.27-1.32-1-1.32a1.15,1.15,0,0,0-1.09.83,1.18,1.18,0,0,0-.05.38v2.68h-.81Z" transform="translate(-28.14 -17.99)"/><path class="cls-2" d="M170,280.26c0,.32,0,.68,0,1.22v2.58a2.56,2.56,0,0,1-.63,2,2.36,2.36,0,0,1-1.62.53,2.87,2.87,0,0,1-1.48-.37l.2-.62a2.52,2.52,0,0,0,1.31.35c.83,0,1.44-.43,1.44-1.55v-.5h0a1.59,1.59,0,0,1-1.42.75,2,2,0,0,1-1.9-2.17,2.14,2.14,0,0,1,2-2.37,1.48,1.48,0,0,1,1.39.77h0l0-.67Zm-.84,1.76a1.14,1.14,0,0,0,0-.37,1.17,1.17,0,0,0-1.13-.86c-.77,0-1.32.65-1.32,1.68,0,.88.44,1.6,1.32,1.6a1.18,1.18,0,0,0,1.12-.83,1.41,1.41,0,0,0,.06-.43Z" transform="translate(-28.14 -17.99)"/><path class="cls-2" d="M126.56,324.86a9.29,9.29,0,0,1,1.54-.12,2.55,2.55,0,0,1,1.74.51,1.67,1.67,0,0,1,.54,1.3,1.82,1.82,0,0,1-.48,1.32,2.57,2.57,0,0,1-1.9.68,2.75,2.75,0,0,1-.64-.06V331h-.8Zm.8,3a2.69,2.69,0,0,0,.66.06c1,0,1.55-.47,1.55-1.33s-.58-1.21-1.46-1.21a3.33,3.33,0,0,0-.75.06Z" transform="translate(-28.14 -17.99)"/><path class="cls-2" d="M131.28,327.93c0-.53,0-1,0-1.39h.71l0,.87h0a1.33,1.33,0,0,1,1.23-1,.92.92,0,0,1,.23,0v.76a1.27,1.27,0,0,0-.28,0,1.14,1.14,0,0,0-1.09,1,2.26,2.26,0,0,0,0,.38V331h-.8Z" transform="translate(-28.14 -17.99)"/><path class="cls-2" d="M138.22,328.73a2.18,2.18,0,0,1-2.22,2.37,2.12,2.12,0,0,1-2.13-2.29,2.17,2.17,0,0,1,2.21-2.37A2.11,2.11,0,0,1,138.22,328.73Zm-3.53,0c0,1,.56,1.71,1.35,1.71s1.35-.73,1.35-1.73c0-.75-.38-1.71-1.33-1.71S134.69,327.93,134.69,328.77Z" transform="translate(-28.14 -17.99)"/><path class="cls-2" d="M142.41,330.82a3,3,0,0,1-1.28.26,2.12,2.12,0,0,1-2.22-2.27,2.26,2.26,0,0,1,2.39-2.36,2.71,2.71,0,0,1,1.12.23l-.18.63a1.88,1.88,0,0,0-.94-.21,1.68,1.68,0,0,0,0,3.35,2.31,2.31,0,0,0,1-.22Z" transform="translate(-28.14 -17.99)"/><path class="cls-2" d="M143.36,327.93c0-.53,0-1,0-1.39H144l0,.87h0a1.33,1.33,0,0,1,1.23-1,.92.92,0,0,1,.23,0v.76a1.27,1.27,0,0,0-.28,0,1.14,1.14,0,0,0-1.09,1,2.27,2.27,0,0,0,0,.38V331h-.8Z" transform="translate(-28.14 -17.99)"/><path class="cls-2" d="M148.79,331l-.06-.56h0a1.66,1.66,0,0,1-1.36.66,1.27,1.27,0,0,1-1.36-1.28c0-1.08,1-1.67,2.68-1.66v-.09a.92.92,0,0,0-1-1,2.22,2.22,0,0,0-1.16.33l-.18-.53a2.76,2.76,0,0,1,1.46-.4c1.36,0,1.69.93,1.69,1.82v1.67a6.22,6.22,0,0,0,.07,1.07Zm-.12-2.27c-.88,0-1.89.14-1.89,1a.72.72,0,0,0,.76.77,1.11,1.11,0,0,0,1.08-.75.82.82,0,0,0,0-.26Z" transform="translate(-28.14 -17.99)"/><path class="cls-2" d="M150.64,330.16a2.12,2.12,0,0,0,1.07.32c.59,0,.86-.29.86-.66s-.23-.6-.83-.82c-.8-.29-1.18-.73-1.18-1.26a1.37,1.37,0,0,1,1.54-1.31,2.22,2.22,0,0,1,1.09.28l-.2.59a1.73,1.73,0,0,0-.91-.26c-.48,0-.75.28-.75.61s.27.53.85.75c.77.29,1.17.68,1.17,1.34s-.61,1.33-1.67,1.33a2.54,2.54,0,0,1-1.25-.3Z" transform="translate(-28.14 -17.99)"/><path class="cls-2" d="M155.37,325.26v1.28h1.16v.62h-1.16v2.4c0,.55.16.87.61.87a1.77,1.77,0,0,0,.47-.06l0,.61a2,2,0,0,1-.72.11,1.12,1.12,0,0,1-.87-.34,1.65,1.65,0,0,1-.31-1.16v-2.43h-.69v-.62h.69v-1.07Z" transform="translate(-28.14 -17.99)"/><path class="cls-2" d="M158.34,325.29a.5.5,0,0,1-1,0,.49.49,0,0,1,.51-.51A.48.48,0,0,1,158.34,325.29Zm-.9,5.71v-4.45h.81V331Z" transform="translate(-28.14 -17.99)"/><path class="cls-2" d="M159.59,327.74c0-.46,0-.84,0-1.21h.72l0,.74h0a1.64,1.64,0,0,1,1.47-.84c.62,0,1.57.37,1.57,1.9V331h-.81v-2.57c0-.72-.27-1.32-1-1.32a1.15,1.15,0,0,0-1.09.83,1.18,1.18,0,0,0-.05.38V331h-.81Z" transform="translate(-28.14 -17.99)"/><path class="cls-2" d="M167.16,331l-.06-.56h0a1.66,1.66,0,0,1-1.36.66,1.27,1.27,0,0,1-1.36-1.28c0-1.08,1-1.67,2.68-1.66v-.09a.92.92,0,0,0-1-1,2.22,2.22,0,0,0-1.16.33l-.18-.53a2.76,2.76,0,0,1,1.46-.4c1.36,0,1.69.93,1.69,1.82v1.67a6.22,6.22,0,0,0,.07,1.07Zm-.12-2.27c-.88,0-1.89.14-1.89,1a.72.72,0,0,0,.76.77,1.11,1.11,0,0,0,1.08-.75.82.82,0,0,0,0-.26Z" transform="translate(-28.14 -17.99)"/><path class="cls-2" d="M170.06,325.26v1.28h1.16v.62h-1.16v2.4c0,.55.16.87.61.87a1.77,1.77,0,0,0,.47-.06l0,.61a2,2,0,0,1-.72.11,1.12,1.12,0,0,1-.87-.34,1.65,1.65,0,0,1-.31-1.16v-2.43h-.69v-.62h.69v-1.07Z" transform="translate(-28.14 -17.99)"/><path class="cls-2" d="M173,325.29a.5.5,0,0,1-1,0,.49.49,0,0,1,.51-.51A.48.48,0,0,1,173,325.29Zm-.9,5.71v-4.45h.81V331Z" transform="translate(-28.14 -17.99)"/><path class="cls-2" d="M178.31,328.73a2.18,2.18,0,0,1-2.22,2.37A2.12,2.12,0,0,1,174,328.8a2.17,2.17,0,0,1,2.21-2.37A2.11,2.11,0,0,1,178.31,328.73Zm-3.53,0c0,1,.56,1.71,1.35,1.71s1.35-.73,1.35-1.73c0-.75-.38-1.71-1.33-1.71S174.78,327.93,174.78,328.77Z" transform="translate(-28.14 -17.99)"/><path class="cls-2" d="M179.33,327.74c0-.46,0-.84,0-1.21H180l0,.74h0a1.64,1.64,0,0,1,1.47-.84c.62,0,1.57.37,1.57,1.9V331h-.81v-2.57c0-.72-.27-1.32-1-1.32a1.15,1.15,0,0,0-1.09.83,1.18,1.18,0,0,0-.05.38V331h-.81Z" transform="translate(-28.14 -17.99)"/><path class="cls-2" d="M232.45,378.24H230v2.24h2.69v.67h-3.49V375h3.35v.67H230v2h2.41Z" transform="translate(-28.14 -17.99)"/><path class="cls-2" d="M233.62,380.32a2.13,2.13,0,0,0,1.07.32c.59,0,.86-.29.86-.66s-.23-.6-.83-.82c-.8-.29-1.18-.73-1.18-1.26a1.37,1.37,0,0,1,1.54-1.31,2.22,2.22,0,0,1,1.1.28l-.2.59a1.73,1.73,0,0,0-.91-.26c-.48,0-.75.28-.75.61s.27.53.85.75c.77.29,1.17.68,1.17,1.34s-.61,1.33-1.67,1.33a2.54,2.54,0,0,1-1.25-.3Z" transform="translate(-28.14 -17.99)"/><path class="cls-2" d="M238.35,375.42v1.28h1.16v.62h-1.16v2.4c0,.55.16.87.61.87a1.77,1.77,0,0,0,.47-.06l0,.61a2,2,0,0,1-.72.11,1.12,1.12,0,0,1-.87-.34,1.65,1.65,0,0,1-.31-1.16v-2.43h-.69v-.62h.69v-1.07Z" transform="translate(-28.14 -17.99)"/><path class="cls-2" d="M241.32,375.45a.5.5,0,0,1-1,0,.49.49,0,0,1,.51-.51A.48.48,0,0,1,241.32,375.45Zm-.9,5.71V376.7h.81v4.45Z" transform="translate(-28.14 -17.99)"/><path class="cls-2" d="M242.57,377.9c0-.46,0-.84,0-1.21h.71l0,.72h0a1.53,1.53,0,0,1,1.4-.82,1.31,1.31,0,0,1,1.26.89h0a1.84,1.84,0,0,1,.5-.58,1.52,1.52,0,0,1,1-.31c.59,0,1.46.39,1.46,1.93v2.62h-.79v-2.52c0-.86-.31-1.37-1-1.37a1,1,0,0,0-1,.74,1.33,1.33,0,0,0-.06.41v2.75h-.79v-2.67c0-.71-.31-1.22-.93-1.22a1.11,1.11,0,0,0-1,.81,1.14,1.14,0,0,0-.06.4v2.69h-.79Z" transform="translate(-28.14 -17.99)"/><path class="cls-2" d="M252.71,381.15l-.06-.56h0a1.66,1.66,0,0,1-1.36.66,1.27,1.27,0,0,1-1.36-1.28c0-1.08,1-1.67,2.68-1.66v-.09a.92.92,0,0,0-1-1,2.21,2.21,0,0,0-1.16.33l-.18-.53a2.76,2.76,0,0,1,1.46-.4c1.36,0,1.69.93,1.69,1.82v1.67a6.32,6.32,0,0,0,.07,1.07Zm-.12-2.27c-.88,0-1.89.14-1.89,1a.72.72,0,0,0,.76.77,1.11,1.11,0,0,0,1.08-.75.8.8,0,0,0,0-.26Z" transform="translate(-28.14 -17.99)"/><path class="cls-2" d="M255.61,375.42v1.28h1.16v.62h-1.16v2.4c0,.55.16.87.61.87a1.77,1.77,0,0,0,.47-.06l0,.61a2,2,0,0,1-.72.11,1.12,1.12,0,0,1-.87-.34,1.65,1.65,0,0,1-.31-1.16v-2.43h-.69v-.62h.69v-1.07Z" transform="translate(-28.14 -17.99)"/><path class="cls-2" d="M258.08,379.07a1.43,1.43,0,0,0,1.53,1.55,2.92,2.92,0,0,0,1.23-.23l.14.58a3.63,3.63,0,0,1-1.48.28A2.07,2.07,0,0,1,257.3,379a2.16,2.16,0,0,1,2.09-2.4,1.89,1.89,0,0,1,1.84,2.1,3.38,3.38,0,0,1,0,.38Zm2.37-.58a1.15,1.15,0,0,0-1.12-1.32,1.34,1.34,0,0,0-1.24,1.32Z" transform="translate(-28.14 -17.99)"/><path class="cls-2" d="M266.08,374.62V380c0,.4,0,.85,0,1.15h-.73l0-.77h0a1.65,1.65,0,0,1-1.52.87,2,2,0,0,1-1.9-2.26,2.13,2.13,0,0,1,2-2.39,1.49,1.49,0,0,1,1.34.68h0v-2.66Zm-.81,3.89a1.35,1.35,0,0,0,0-.34,1.19,1.19,0,0,0-1.17-.94c-.84,0-1.33.74-1.33,1.72s.44,1.65,1.32,1.65a1.22,1.22,0,0,0,1.19-1,1.33,1.33,0,0,0,0-.35Z" transform="translate(-28.14 -17.99)"/><path class="cls-2" d="M272.61,378.24H270.2v2.24h2.69v.67h-3.49V375h3.35v.67H270.2v2h2.41Z" transform="translate(-28.14 -17.99)"/><path class="cls-2" d="M276.64,381.15v-3.84h-1.87v3.84H274v-3.84h-.62v-.62H274v-.15a2.1,2.1,0,0,1,.5-1.52,1.53,1.53,0,0,1,1.12-.41,1.41,1.41,0,0,1,.63.16l-.17.6a1.18,1.18,0,0,0-.48-.11c-.63,0-.81.54-.81,1.24v.19h1.87v-.21a2.1,2.1,0,0,1,.53-1.55,1.54,1.54,0,0,1,1.08-.41,1.83,1.83,0,0,1,.69.13l-.1.63a1.26,1.26,0,0,0-.52-.1c-.68,0-.87.61-.87,1.29v.24h1.08v.62h-1.07v3.84Z" transform="translate(-28.14 -17.99)"/><path class="cls-2" d="M279.58,379.07a1.43,1.43,0,0,0,1.53,1.55,2.92,2.92,0,0,0,1.23-.23l.14.58a3.63,3.63,0,0,1-1.48.28,2.07,2.07,0,0,1-2.19-2.25,2.16,2.16,0,0,1,2.09-2.4,1.89,1.89,0,0,1,1.84,2.1,3.38,3.38,0,0,1,0,.38Zm2.37-.58a1.15,1.15,0,0,0-1.12-1.32,1.34,1.34,0,0,0-1.24,1.32Z" transform="translate(-28.14 -17.99)"/><path class="cls-2" d="M286.91,381a3,3,0,0,1-1.28.26,2.12,2.12,0,0,1-2.22-2.27,2.26,2.26,0,0,1,2.39-2.36,2.71,2.71,0,0,1,1.12.23l-.18.63a1.88,1.88,0,0,0-.94-.21,1.68,1.68,0,0,0,0,3.35,2.31,2.31,0,0,0,1-.22Z" transform="translate(-28.14 -17.99)"/><path class="cls-2" d="M289,375.42v1.28h1.16v.62H289v2.4c0,.55.16.87.61.87a1.77,1.77,0,0,0,.47-.06l0,.61a2,2,0,0,1-.72.11,1.12,1.12,0,0,1-.87-.34,1.65,1.65,0,0,1-.31-1.16v-2.43h-.69v-.62h.69v-1.07Z" transform="translate(-28.14 -17.99)"/><path class="cls-2" d="M290.91,380.32a2.13,2.13,0,0,0,1.07.32c.59,0,.86-.29.86-.66s-.23-.6-.83-.82c-.8-.29-1.18-.73-1.18-1.26a1.37,1.37,0,0,1,1.54-1.31,2.22,2.22,0,0,1,1.1.28l-.2.59a1.73,1.73,0,0,0-.91-.26c-.48,0-.75.28-.75.61s.27.53.85.75c.77.29,1.17.68,1.17,1.34s-.61,1.33-1.67,1.33a2.54,2.54,0,0,1-1.25-.3Z" transform="translate(-28.14 -17.99)"/><path class="cls-2" d="M300.64,378.89a2.18,2.18,0,0,1-2.22,2.37,2.12,2.12,0,0,1-2.13-2.29,2.18,2.18,0,0,1,2.21-2.37A2.11,2.11,0,0,1,300.64,378.89Zm-3.53,0c0,1,.56,1.71,1.35,1.71s1.35-.73,1.35-1.73c0-.75-.38-1.71-1.34-1.71S297.11,378.09,297.11,378.93Z" transform="translate(-28.14 -17.99)"/><path class="cls-2" d="M301.66,377.9c0-.46,0-.84,0-1.21h.72l0,.74h0a1.64,1.64,0,0,1,1.47-.84c.62,0,1.57.37,1.57,1.9v2.66h-.81v-2.57c0-.72-.27-1.32-1-1.32a1.19,1.19,0,0,0-1.14,1.21v2.68h-.81Z" transform="translate(-28.14 -17.99)"/><path class="cls-2" d="M312,378.24h-2.41v2.24h2.69v.67h-3.49V375h3.35v.67h-2.55v2H312Z" transform="translate(-28.14 -17.99)"/><path class="cls-2" d="M313.62,376.7l.63,1c.17.25.3.48.45.73h0c.15-.27.29-.5.44-.74l.63-.95h.88l-1.52,2.15,1.56,2.3h-.92l-.65-1c-.18-.26-.32-.51-.48-.77h0c-.15.27-.3.51-.47.77l-.64,1h-.89l1.58-2.27-1.51-2.18Z" transform="translate(-28.14 -17.99)"/><path class="cls-2" d="M320,381.15l-.06-.56h0a1.66,1.66,0,0,1-1.36.66,1.27,1.27,0,0,1-1.36-1.28c0-1.08,1-1.67,2.68-1.66v-.09a.92.92,0,0,0-1-1,2.21,2.21,0,0,0-1.16.33l-.18-.53a2.76,2.76,0,0,1,1.46-.4c1.36,0,1.69.93,1.69,1.82v1.67a6.12,6.12,0,0,0,.07,1.07Zm-.12-2.27c-.88,0-1.88.14-1.88,1a.72.72,0,0,0,.76.77,1.11,1.11,0,0,0,1.08-.75.85.85,0,0,0,0-.26Z" transform="translate(-28.14 -17.99)"/><path class="cls-2" d="M321.93,377.9c0-.46,0-.84,0-1.21h.71l0,.72h0a1.53,1.53,0,0,1,1.4-.82,1.32,1.32,0,0,1,1.26.89h0a1.85,1.85,0,0,1,.5-.58,1.51,1.51,0,0,1,1-.31c.59,0,1.46.39,1.46,1.93v2.62h-.79v-2.52c0-.86-.31-1.37-1-1.37a1,1,0,0,0-1,.74,1.33,1.33,0,0,0-.06.41v2.75h-.79v-2.67c0-.71-.31-1.22-.93-1.22a1.1,1.1,0,0,0-1,.81,1.09,1.09,0,0,0-.06.4v2.69h-.79Z" transform="translate(-28.14 -17.99)"/><path class="cls-2" d="M331.46,380.18a2.83,2.83,0,0,0,1.44.41c.82,0,1.3-.43,1.3-1.06s-.33-.91-1.17-1.23c-1-.36-1.64-.88-1.64-1.76a1.79,1.79,0,0,1,2-1.68,2.82,2.82,0,0,1,1.37.3l-.22.65a2.47,2.47,0,0,0-1.18-.29c-.85,0-1.17.51-1.17.93,0,.58.38.87,1.23,1.2,1,.4,1.58.91,1.58,1.82s-.71,1.79-2.17,1.79a3.21,3.21,0,0,1-1.58-.4Z" transform="translate(-28.14 -17.99)"/><path class="cls-2" d="M339.31,381a3,3,0,0,1-1.28.26,2.12,2.12,0,0,1-2.22-2.27,2.26,2.26,0,0,1,2.39-2.36,2.7,2.7,0,0,1,1.12.23l-.18.63a1.87,1.87,0,0,0-.94-.21,1.68,1.68,0,0,0,0,3.35,2.31,2.31,0,0,0,1-.22Z" transform="translate(-28.14 -17.99)"/><path class="cls-2" d="M344.23,378.89a2.18,2.18,0,0,1-2.22,2.37,2.12,2.12,0,0,1-2.13-2.29,2.17,2.17,0,0,1,2.21-2.37A2.11,2.11,0,0,1,344.23,378.89Zm-3.53,0c0,1,.56,1.71,1.35,1.71s1.35-.73,1.35-1.73c0-.75-.38-1.71-1.33-1.71S340.7,378.09,340.7,378.93Z" transform="translate(-28.14 -17.99)"/><path class="cls-2" d="M345.25,378.09c0-.53,0-1,0-1.39h.71l0,.87h0a1.34,1.34,0,0,1,1.23-1,.92.92,0,0,1,.23,0v.76a1.26,1.26,0,0,0-.28,0,1.14,1.14,0,0,0-1.09,1,2.16,2.16,0,0,0,0,.38v2.37h-.8Z" transform="translate(-28.14 -17.99)"/><path class="cls-2" d="M348.61,379.07a1.43,1.43,0,0,0,1.53,1.55,2.93,2.93,0,0,0,1.23-.23l.14.58a3.62,3.62,0,0,1-1.48.28,2.07,2.07,0,0,1-2.19-2.25,2.16,2.16,0,0,1,2.09-2.4,1.89,1.89,0,0,1,1.84,2.1,3,3,0,0,1,0,.38Zm2.38-.58a1.15,1.15,0,0,0-1.12-1.32,1.34,1.34,0,0,0-1.24,1.32Z" transform="translate(-28.14 -17.99)"/><path class="cls-2" d="M352.66,380.32a2.13,2.13,0,0,0,1.07.32c.59,0,.86-.29.86-.66s-.23-.6-.83-.82c-.8-.29-1.18-.73-1.18-1.26a1.37,1.37,0,0,1,1.54-1.31,2.22,2.22,0,0,1,1.1.28l-.2.59a1.73,1.73,0,0,0-.91-.26c-.48,0-.75.28-.75.61s.27.53.85.75c.77.29,1.17.68,1.17,1.34s-.61,1.33-1.67,1.33a2.54,2.54,0,0,1-1.25-.3Z" transform="translate(-28.14 -17.99)"/><path class="cls-2" d="M202.83,314.85v.65h-2.47v-.65Z" transform="translate(-28.14 -17.99)"/><path class="cls-2" d="M207.9,314.56c0,2.21-.82,3.43-2.26,3.43-1.27,0-2.13-1.19-2.15-3.34s.94-3.38,2.26-3.38S207.9,312.49,207.9,314.56Zm-3.53.1c0,1.69.52,2.65,1.32,2.65s1.33-1,1.33-2.71-.41-2.65-1.32-2.65S204.37,312.89,204.37,314.66Z" transform="translate(-28.14 -17.99)"/><path class="cls-2" d="M208.78,317.36a.59.59,0,0,1,.6-.63.63.63,0,0,1,0,1.26A.59.59,0,0,1,208.78,317.36Z" transform="translate(-28.14 -17.99)"/><path class="cls-2" d="M215.1,314.56c0,2.21-.82,3.43-2.26,3.43-1.27,0-2.13-1.19-2.15-3.34s.94-3.38,2.26-3.38S215.1,312.49,215.1,314.56Zm-3.53.1c0,1.69.52,2.65,1.32,2.65s1.33-1,1.33-2.71-.41-2.65-1.32-2.65S211.57,312.89,211.57,314.66Z" transform="translate(-28.14 -17.99)"/><path class="cls-2" d="M217.82,312.2h0l-1.13.61-.17-.67,1.42-.76h.75v6.5h-.85Z" transform="translate(-28.14 -17.99)"/><path class="cls-2" d="M223,312.2h0l-1.13.61-.17-.67,1.42-.76h.75v6.5H223Z" transform="translate(-28.14 -17.99)"/><path class="cls-2" d="M231.22,313.21c0,1.37-.72,2-1.56,2s-1.51-.65-1.52-2,.71-2,1.57-2S231.22,312,231.22,313.21Zm-2.38.06c0,.83.29,1.46.84,1.46s.84-.62.84-1.48-.23-1.45-.84-1.45S228.84,312.45,228.84,313.27Zm.76,4.72,3.82-6.72H234L230.16,318Zm5.85-2.09c0,1.37-.72,2-1.55,2s-1.51-.65-1.52-1.95.71-2,1.57-2S235.45,314.66,235.45,315.9Zm-2.38.06c0,.83.31,1.46.85,1.46s.84-.62.84-1.48-.23-1.45-.84-1.45S233.07,315.14,233.07,316Z" transform="translate(-28.14 -17.99)"/><path class="cls-2" d="M238,319.11a14.44,14.44,0,0,0,.6-2.39l1-.1a12.25,12.25,0,0,1-.95,2.43Z" transform="translate(-28.14 -17.99)"/><path class="cls-2" d="M242.8,314.62c0-.62,0-1.12,0-1.58h.79l0,.83h0a1.9,1.9,0,0,1,1.72-.94,2.19,2.19,0,0,1,2,2.46c0,1.74-1.06,2.6-2.2,2.6a1.7,1.7,0,0,1-1.49-.76h0v2.63h-.87Zm.87,1.29a2,2,0,0,0,0,.36,1.36,1.36,0,0,0,1.32,1c.93,0,1.47-.76,1.47-1.87s-.51-1.8-1.44-1.8a1.4,1.4,0,0,0-1.33,1.09,1.42,1.42,0,0,0-.06.36Z" transform="translate(-28.14 -17.99)"/><path class="cls-2" d="M248.16,314.51v-.6h5.16v.6Zm0,2v-.6h5.16v.6Z" transform="translate(-28.14 -17.99)"/><path class="cls-2" d="M260.61,314.56c0,2.21-.82,3.43-2.26,3.43-1.27,0-2.13-1.19-2.15-3.34s.94-3.38,2.26-3.38S260.61,312.49,260.61,314.56Zm-3.53.1c0,1.69.52,2.65,1.32,2.65s1.33-1,1.33-2.71-.41-2.65-1.32-2.65S257.08,312.89,257.08,314.66Z" transform="translate(-28.14 -17.99)"/><path class="cls-2" d="M261.49,317.36a.59.59,0,0,1,.6-.63.63.63,0,0,1,0,1.26A.59.59,0,0,1,261.49,317.36Z" transform="translate(-28.14 -17.99)"/><path class="cls-2" d="M263.41,316.23a1.85,1.85,0,0,1,1.29-1.74v0a1.61,1.61,0,0,1-1-1.46,1.82,1.82,0,0,1,2-1.73,1.68,1.68,0,0,1,1.89,1.6,1.65,1.65,0,0,1-1.07,1.52v0a1.8,1.8,0,0,1,1.31,1.68,2,2,0,0,1-2.21,1.89C264.23,318,263.41,317.18,263.41,316.23Zm3.5,0c0-.79-.55-1.17-1.43-1.42a1.41,1.41,0,0,0-1.17,1.34,1.2,1.2,0,0,0,1.3,1.24A1.18,1.18,0,0,0,266.91,316.19Zm-2.42-3.25c0,.65.49,1,1.24,1.2a1.28,1.28,0,0,0,1-1.18,1,1,0,0,0-1.1-1.06A1,1,0,0,0,264.49,312.94Z" transform="translate(-28.14 -17.99)"/><path class="cls-2" d="M272.5,312.12H270l-.25,1.67a3.54,3.54,0,0,1,.53,0,2.75,2.75,0,0,1,1.4.35,1.85,1.85,0,0,1,.93,1.67,2.25,2.25,0,0,1-2.42,2.22,3.17,3.17,0,0,1-1.62-.4l.22-.67a2.92,2.92,0,0,0,1.39.36,1.43,1.43,0,0,0,1.54-1.41c0-.84-.57-1.44-1.87-1.44a6.65,6.65,0,0,0-.9.07l.42-3.12h3.11Z" transform="translate(-28.14 -17.99)"/><path class="cls-2" d="M275.66,312.2h0l-1.13.61-.17-.67,1.42-.76h.75v6.5h-.85Z" transform="translate(-28.14 -17.99)"/><path class="cls-2" d="M307.67,269c0,2.21-.82,3.43-2.26,3.43-1.27,0-2.13-1.19-2.15-3.34s.94-3.38,2.26-3.38S307.67,267,307.67,269Zm-3.53.1c0,1.69.52,2.65,1.32,2.65s1.33-1,1.33-2.71-.41-2.65-1.32-2.65S304.14,267.36,304.14,269.13Z" transform="translate(-28.14 -17.99)"/><path class="cls-2" d="M308.55,271.83a.59.59,0,0,1,.6-.63.63.63,0,0,1,0,1.26A.59.59,0,0,1,308.55,271.83Z" transform="translate(-28.14 -17.99)"/><path class="cls-2" d="M312.46,266.67h0l-1.13.61-.17-.67,1.42-.76h.75v6.5h-.85Z" transform="translate(-28.14 -17.99)"/><path class="cls-2" d="M315.89,271.34a2.94,2.94,0,0,0,1.44.41c1.13,0,1.48-.72,1.47-1.26,0-.91-.83-1.3-1.68-1.3h-.49v-.66h.49c.64,0,1.45-.33,1.45-1.1,0-.52-.33-1-1.14-1a2.38,2.38,0,0,0-1.3.43l-.23-.64a3.09,3.09,0,0,1,1.7-.5c1.28,0,1.86.76,1.86,1.55a1.61,1.61,0,0,1-1.2,1.53v0a1.69,1.69,0,0,1,1.45,1.67c0,1-.81,1.95-2.37,1.95a3.3,3.3,0,0,1-1.69-.44Z" transform="translate(-28.14 -17.99)"/><path class="cls-2" d="M324.52,266.47a3.19,3.19,0,0,0-.66,0,2.64,2.64,0,0,0-2.26,2.31h0a2,2,0,0,1,3.53,1.35,2.17,2.17,0,0,1-2.16,2.29c-1.39,0-2.3-1.08-2.3-2.77a4.09,4.09,0,0,1,1.1-2.93,3.54,3.54,0,0,1,2.08-1,4.36,4.36,0,0,1,.64,0Zm-.25,3.75a1.32,1.32,0,0,0-1.34-1.49,1.45,1.45,0,0,0-1.26.8.74.74,0,0,0-.1.39c0,1.07.51,1.86,1.43,1.86C323.76,271.78,324.27,271.15,324.27,270.22Z" transform="translate(-28.14 -17.99)"/><path class="cls-2" d="M331,267.68c0,1.37-.72,2-1.56,2s-1.51-.65-1.52-2,.71-2,1.57-2S331,266.44,331,267.68Zm-2.38.06c0,.83.29,1.46.84,1.46s.84-.62.84-1.48-.23-1.45-.84-1.45S328.61,266.92,328.61,267.74Zm.76,4.72,3.82-6.72h.56l-3.82,6.72Zm5.85-2.09c0,1.37-.72,2-1.55,2s-1.51-.65-1.52-1.95.71-2,1.57-2S335.21,269.13,335.21,270.37Zm-2.38.06c0,.83.31,1.46.85,1.46s.84-.62.84-1.48-.23-1.45-.84-1.45S332.84,269.61,332.84,270.43Z" transform="translate(-28.14 -17.99)"/><path class="cls-2" d="M337.81,273.58a14.44,14.44,0,0,0,.6-2.39l1-.1a12.25,12.25,0,0,1-.95,2.43Z" transform="translate(-28.14 -17.99)"/><path class="cls-2" d="M342.57,269.09c0-.62,0-1.12,0-1.58h.79l0,.83h0a1.9,1.9,0,0,1,1.72-.94,2.19,2.19,0,0,1,2,2.46c0,1.74-1.06,2.6-2.2,2.6a1.7,1.7,0,0,1-1.49-.76h0v2.63h-.87Zm.87,1.29a2,2,0,0,0,0,.36,1.36,1.36,0,0,0,1.32,1c.93,0,1.47-.76,1.47-1.87s-.51-1.8-1.44-1.8a1.4,1.4,0,0,0-1.33,1.09,1.42,1.42,0,0,0-.06.36Z" transform="translate(-28.14 -17.99)"/><path class="cls-2" d="M347.93,269v-.6h5.16v.6Zm0,2v-.6h5.16v.6Z" transform="translate(-28.14 -17.99)"/><path class="cls-2" d="M360.38,269c0,2.21-.82,3.43-2.26,3.43-1.27,0-2.13-1.19-2.15-3.34s.94-3.38,2.26-3.38S360.38,267,360.38,269Zm-3.53.1c0,1.69.52,2.65,1.32,2.65s1.33-1,1.33-2.71-.41-2.65-1.32-2.65S356.85,267.36,356.85,269.13Z" transform="translate(-28.14 -17.99)"/><path class="cls-2" d="M361.26,271.83a.59.59,0,0,1,.6-.63.63.63,0,0,1,0,1.26A.59.59,0,0,1,361.26,271.83Z" transform="translate(-28.14 -17.99)"/><path class="cls-2" d="M367.58,269c0,2.21-.82,3.43-2.26,3.43-1.27,0-2.13-1.19-2.15-3.34s.94-3.38,2.26-3.38S367.58,267,367.58,269Zm-3.53.1c0,1.69.52,2.65,1.32,2.65s1.33-1,1.33-2.71-.41-2.65-1.32-2.65S364,267.36,364,269.13Z" transform="translate(-28.14 -17.99)"/><path class="cls-2" d="M372.71,269c0,2.21-.82,3.43-2.26,3.43-1.27,0-2.13-1.19-2.15-3.34s.94-3.38,2.26-3.38S372.71,267,372.71,269Zm-3.53.1c0,1.69.52,2.65,1.32,2.65s1.33-1,1.33-2.71-.41-2.65-1.32-2.65S369.18,267.36,369.18,269.13Z" transform="translate(-28.14 -17.99)"/><path class="cls-2" d="M373.52,272.35v-.54l.69-.67c1.66-1.58,2.41-2.42,2.42-3.4a1.16,1.16,0,0,0-1.29-1.27A2.21,2.21,0,0,0,374,267l-.28-.62a2.85,2.85,0,0,1,1.84-.66,1.83,1.83,0,0,1,2,1.89c0,1.2-.87,2.17-2.24,3.49l-.52.48v0h2.92v.73Z" transform="translate(-28.14 -17.99)"/><path class="cls-2" d="M379.16,271.73a3.67,3.67,0,0,0,.71,0,2.46,2.46,0,0,0,1.36-.63,2.85,2.85,0,0,0,.86-1.73h0a1.9,1.9,0,0,1-1.53.7,1.88,1.88,0,0,1-1.92-2,2.23,2.23,0,0,1,2.22-2.31c1.33,0,2.15,1.08,2.15,2.74a4.11,4.11,0,0,1-1.12,3,3.25,3.25,0,0,1-1.89.87,4,4,0,0,1-.81,0Zm.32-3.74a1.25,1.25,0,0,0,1.25,1.38,1.45,1.45,0,0,0,1.28-.68.58.58,0,0,0,.08-.32c0-1.11-.41-2-1.33-2C380,266.41,379.48,267.07,379.48,268Z" transform="translate(-28.14 -17.99)"/><path class="cls-7" d="M393.28,283.38H318.59a1.5,1.5,0,0,1,0-3h74.69a1.5,1.5,0,0,1,0,3Z" transform="translate(-28.14 -17.99)"/><path class="cls-7" d="M293.12,329H199.33a1.5,1.5,0,0,1,0-3h93.78a1.5,1.5,0,0,1,0,3Z" transform="translate(-28.14 -17.99)"/></svg>