<svg id="Слой_2" data-name="Слой 2" xmlns="http://www.w3.org/2000/svg" xmlns:xlink="http://www.w3.org/1999/xlink" viewBox="0 0 411.13 353.02"><defs><style>.cls-1{fill:none;}.cls-2{fill:#a15900;}.cls-3{fill:#4f6ddb;}.cls-4{fill:#fff;}.cls-5{fill:#fec2a0;}.cls-6{fill:#de9972;}.cls-7{fill:#ffc61a;}.cls-8{fill:#794300;}.cls-9{fill:#f6eeca;}.cls-10{fill:#f4706b;}.cls-11{fill:#029d41;}.cls-12{fill:#303134;}.cls-13{fill:#f99979;}.cls-14{fill:#f99055;}.cls-15{fill:#d1a215;}.cls-16{fill:#7794ff;}.cls-17{fill:#d1d1d1;}.cls-18{fill:#f0f0f0;}.cls-19{fill:#f66a31;}.cls-20{fill:#494a4f;}.cls-21{fill:#fdc383;}.cls-22{fill:#ff9c1a;}.cls-23{fill:#fe3737;}.cls-24{fill:#36373b;}.cls-25{fill:#657ed9;}.cls-26{clip-path:url(#clip-path);}.cls-27{fill:#bfbfbf;}</style><clipPath id="clip-path" transform="translate(-8.98 -31.92)"><path class="cls-1" d="M50.51,55.34C54.2,39.88,72.15,36.56,79.94,36.56s14.25,3.39,12.2,14.53a70.86,70.86,0,0,1-2.46,9.29c.69-1.92-.36-6.11-1-8.09-.32-1.11-4.73,2.93-11.31-.59a1.94,1.94,0,0,0-1.16,1.42L74.67,63.77l-4.29.55s.43-7.42-5.18-7.41-5.62,9.16.63,11.24a33.61,33.61,0,0,1-2.71,6.59S54.61,56.36,50.51,55.34Z"/></clipPath></defs><title>ACM SIGCSE 2023_dark_mode</title><circle class="cls-2" cx="358.37" cy="225.2" r="8.83"/><circle class="cls-2" cx="361.87" cy="217.37" r="8.83"/><circle class="cls-2" cx="357.8" cy="201.37" r="8.83"/><circle class="cls-2" cx="349.54" cy="197.7" r="8.83"/><circle class="cls-2" cx="340.28" cy="196.48" r="8.83"/><circle class="cls-2" cx="330.46" cy="197.7" r="8.83"/><circle class="cls-2" cx="361.87" cy="208.54" r="8.83"/><path class="cls-3" d="M358.7,72.76c-2.75-9.75-10.46-1.5-21.81-5.71-7.33-2.71-16.82,2.77-16.81,11.35,0,6.34,4,5.38,5.55,9.57v0c-.12-3.74,4.2-7.69,7.8-7.54s7.92-.24,8.05.46l2.94,10.23a4,4,0,0,0,3.19,2.85v0c0-.66.13-8.44,6.26-8.17,6.4.27,6,10.71-1.25,12.8a38.55,38.55,0,0,0,2.78,7.66l.07-.08C356.73,104.46,377.12,77.7,358.7,72.76Z" transform="translate(-8.98 -31.92)"/><path class="cls-4" d="M359.27,94.71l-.17,0a.5.5,0,0,1-.3-.64,4.83,4.83,0,0,0-.17-4,2.94,2.94,0,0,0-2.4-1.24.5.5,0,0,1-.46-.54.49.49,0,0,1,.54-.46,3.94,3.94,0,0,1,3.17,1.7,5.84,5.84,0,0,1,.27,4.88A.5.5,0,0,1,359.27,94.71Z" transform="translate(-8.98 -31.92)"/><path class="cls-5" d="M91.25,268.93c-2.59,6.08-12,5.5-12,5.5-3.46,4.06,1.67,11.42,1.67,11.42s-24.26,5.37-28.22,6c0-.08,10-9.41,7.92-20.33,6.24-4.53,8.88-22.74,10-26s19.52.13,20.79-4a27.64,27.64,0,0,1,.35,8.93C90.76,257.36,94.49,261.29,91.25,268.93Z" transform="translate(-8.98 -31.92)"/><path class="cls-3" d="M89.66,277.75s4.37-8.08,19.66-12,26.21-19.49,26.21-19.49l18.18-30.34h11s-12.27,44-16.86,53-35.7,22-38.32,28.07,2,52.23,2,52.23L60,356.6l-9-24-6.33,37.79h0a14.93,14.93,0,0,1-14-16.5c1.59-14.87,3.79-36.11,4.19-44,.66-12.67,3.12-14.69,15.37-20.34C61.79,284.17,89.66,277.75,89.66,277.75Z" transform="translate(-8.98 -31.92)"/><path class="cls-5" d="M155.64,210.78a5.82,5.82,0,0,1-2.41-3.92c-.55-2.84-.26-7.64-.59-8.79s-2.47-3.82-.78-5.19,3.71,2.75,4,4.41c.25,1.29.12,4.38.77,4.38s5.41-13,6-14.25,1.42-4.21,2.51-4,.11,3.87.6,4,2.14-6.4,3.68-6-2,11.06-2,11.06,3.33-8.57,4.42-8.41-.16,6.28-1.09,8.79-2.4,7-2.13,7.32,4.79-9.61,5.83-9.12.56,2.69-1.94,8c-2,4.18-2.75,5.82-4,8-.93,1.62-3,5.8-3,5.8l-.89,3.4h-11Z" transform="translate(-8.98 -31.92)"/><path class="cls-6" d="M165.73,187.43a19.13,19.13,0,0,1-.69,3.69,18.93,18.93,0,0,1-1.32,3.52,19,19,0,0,1,.69-3.69A19.16,19.16,0,0,1,165.73,187.43Z" transform="translate(-8.98 -31.92)"/><path class="cls-6" d="M167.42,192.45a7.19,7.19,0,0,1-.28,2.27,7.11,7.11,0,0,1-.92,2.1,7.1,7.1,0,0,1,.28-2.27A7.19,7.19,0,0,1,167.42,192.45Z" transform="translate(-8.98 -31.92)"/><path class="cls-7" d="M89.12,282.1c-.66-2-6.07-9.76-4.41-19.33.74-4.23,2.72-9.32,4.31-14.1.13-.38,3.84-.33,4-.71,1.79-5.59.13-10.38-3.28-13.41-5-4.4-15.49-5.17-24.72-3.81-10.35,1.53-14.79,11.87-16.63,18.82-2.36,8.86-4,17.7-3.23,22C54.79,276.92,69.1,284.15,89.12,282.1Z" transform="translate(-8.98 -31.92)"/><ellipse class="cls-8" cx="250.92" cy="270.06" rx="11.05" ry="12.79" transform="translate(-30.3 -10.42) rotate(-4.71)"/><path class="cls-9" d="M119.1,133.91a1,1,0,0,1-1-1v-4.38a1,1,0,0,1,1.95,0v4.38A1,1,0,0,1,119.1,133.91Z" transform="translate(-8.98 -31.92)"/><path class="cls-9" d="M314.06,147.94a1,1,0,0,1-1-1v-9a1,1,0,0,1,1.95,0v9A1,1,0,0,1,314.06,147.94Zm0-17.91a1,1,0,0,1-1-1v-9a1,1,0,0,1,1.95,0v9A1,1,0,0,1,314.06,130Zm-195-9.46a1,1,0,0,1-1-1v-9a1,1,0,1,1,1.95,0v9A1,1,0,0,1,119.1,120.57Zm195-8.45a1,1,0,0,1-1-1v-9a1,1,0,1,1,1.95,0v9A1,1,0,0,1,314.06,112.12Zm-195-9.46a1,1,0,0,1-1-1v-9a1,1,0,1,1,1.95,0v9A1,1,0,0,1,119.1,102.66Zm195-8.45a1,1,0,0,1-1-1v-9a1,1,0,0,1,1.95,0v9A1,1,0,0,1,314.06,94.21Zm-195-9.46a1,1,0,0,1-1-1v-9a1,1,0,1,1,1.95,0v9A1,1,0,0,1,119.1,84.76Zm195-8.45a1,1,0,0,1-1-1v-9a1,1,0,0,1,1.95,0v9A1,1,0,0,1,314.06,76.3Zm-195-9.46a1,1,0,0,1-1-1v-9a1,1,0,1,1,1.95,0v9A1,1,0,0,1,119.1,66.85Zm195-8.45a1,1,0,0,1-1-1v-9a1,1,0,0,1,1.95,0v9A1,1,0,0,1,314.06,58.39Zm-195-9.46a1,1,0,0,1-1-1v-2.6a13.45,13.45,0,0,1,1.71-6.56,1,1,0,1,1,1.7,1,11.5,11.5,0,0,0-1.46,5.61V48A1,1,0,0,1,119.1,48.94ZM312.72,40.7a1,1,0,0,1-.87-.53,11.51,11.51,0,0,0-6-5.46,1,1,0,0,1,.73-1.81,13.46,13.46,0,0,1,7,6.39,1,1,0,0,1-.87,1.41Zm-185.35-6.1A1,1,0,0,1,127,32.7a13.42,13.42,0,0,1,4.52-.78h4.68a1,1,0,0,1,0,1.95h-4.67a11.47,11.47,0,0,0-3.87.67A1,1,0,0,1,127.37,34.59Zm170.05-.72h-9a1,1,0,0,1,0-1.95h9a1,1,0,1,1,0,1.95Zm-17.91,0h-9a1,1,0,0,1,0-1.95h9a1,1,0,0,1,0,1.95Zm-17.91,0h-9a1,1,0,0,1,0-1.95h9a1,1,0,0,1,0,1.95Zm-17.91,0h-9a1,1,0,1,1,0-1.95h9a1,1,0,0,1,0,1.95Zm-17.91,0h-9a1,1,0,0,1,0-1.95h9a1,1,0,0,1,0,1.95Zm-17.91,0h-9a1,1,0,0,1,0-1.95h9a1,1,0,1,1,0,1.95Zm-17.91,0h-9a1,1,0,0,1,0-1.95h9a1,1,0,0,1,0,1.95Zm-17.91,0h-9a1,1,0,0,1,0-1.95h9a1,1,0,0,1,0,1.95Zm-17.91,0h-9a1,1,0,1,1,0-1.95h9a1,1,0,0,1,0,1.95Z" transform="translate(-8.98 -31.92)"/><path class="cls-9" d="M314.06,161.3a1,1,0,0,1-1-1v-4.38a1,1,0,0,1,1.95,0v4.38A1,1,0,0,1,314.06,161.3Z" transform="translate(-8.98 -31.92)"/><path class="cls-9" d="M301.59,173.77h-4.38a1,1,0,0,1,0-1.95h4.38a1,1,0,1,1,0,1.95Z" transform="translate(-8.98 -31.92)"/><path class="cls-9" d="M288,173.77h-9.18a1,1,0,1,1,0-1.95H288a1,1,0,0,1,0,1.95Zm-18.36,0h-9.18a1,1,0,1,1,0-1.95h9.18a1,1,0,0,1,0,1.95Zm-18.36,0h-9.18a1,1,0,0,1,0-1.95h9.18a1,1,0,1,1,0,1.95Zm-18.36,0h-9.18a1,1,0,1,1,0-1.95h9.18a1,1,0,1,1,0,1.95Zm-18.36,0h-9.18a1,1,0,0,1,0-1.95h9.18a1,1,0,1,1,0,1.95Zm-18.36,0H187a1,1,0,1,1,0-1.95h9.18a1,1,0,0,1,0,1.95Zm-18.36,0h-9.18a1,1,0,1,1,0-1.95h9.18a1,1,0,0,1,0,1.95Zm-18.36,0H150.3a1,1,0,0,1,0-1.95h9.18a1,1,0,1,1,0,1.95Zm-18.36,0h-9.18a1,1,0,1,1,0-1.95h9.18a1,1,0,0,1,0,1.95Z" transform="translate(-8.98 -31.92)"/><path class="cls-9" d="M123.46,170.77a1,1,0,0,1-.63-.23,13.43,13.43,0,0,1-3-3.63,1,1,0,1,1,1.7-1,11.51,11.51,0,0,0,2.55,3.11,1,1,0,0,1-.63,1.71Z" transform="translate(-8.98 -31.92)"/><path class="cls-10" d="M234.26,75.16H196.9A1.92,1.92,0,0,1,195,73.25V45.84a1.92,1.92,0,0,1,1.91-1.91h37.35a1.92,1.92,0,0,1,1.91,1.91V73.25A1.92,1.92,0,0,1,234.26,75.16ZM196.9,44.9a1,1,0,0,0-.94.94V73.25a1,1,0,0,0,.94.95h37.35a1,1,0,0,0,.94-.95V45.84a1,1,0,0,0-.94-.94Z" transform="translate(-8.98 -31.92)"/><path class="cls-10" d="M234.26,140.82H196.9A1.92,1.92,0,0,1,195,138.9V111.49a1.92,1.92,0,0,1,1.91-1.91h37.35a1.92,1.92,0,0,1,1.91,1.91V138.9A1.92,1.92,0,0,1,234.26,140.82ZM196.9,110.55a1,1,0,0,0-.94.94V138.9a1,1,0,0,0,.94.94h37.35a1,1,0,0,0,.94-.94V111.49a1,1,0,0,0-.94-.94Z" transform="translate(-8.98 -31.92)"/><path class="cls-10" d="M300.18,109.16H262.83a1.92,1.92,0,0,1-1.91-1.91V79.83a1.92,1.92,0,0,1,1.91-1.91h37.35a1.92,1.92,0,0,1,1.91,1.91v27.41A1.92,1.92,0,0,1,300.18,109.16ZM262.83,78.89a1,1,0,0,0-.94.94v27.41a1,1,0,0,0,.94.94h37.35a1,1,0,0,0,.94-.94V79.83a1,1,0,0,0-.94-.94Z" transform="translate(-8.98 -31.92)"/><path class="cls-10" d="M170.32,75.78H133a1.92,1.92,0,0,1-1.91-1.91V46.45A1.92,1.92,0,0,1,133,44.54h37.35a1.92,1.92,0,0,1,1.91,1.91V73.86A1.92,1.92,0,0,1,170.32,75.78ZM133,45.51a1,1,0,0,0-.95.95V73.86a1,1,0,0,0,.95.94h37.35a1,1,0,0,0,.95-.94V46.45a1,1,0,0,0-.95-.95Z" transform="translate(-8.98 -31.92)"/><rect class="cls-11" x="164.58" y="26.9" width="17.07" height="1.45"/><polygon class="cls-11" points="180.1 27.62 180.1 24.47 182.82 26.05 185.55 27.62 182.82 29.2 180.1 30.77 180.1 27.62"/><path class="cls-10" d="M170.32,118.77H133a1.92,1.92,0,0,1-1.91-1.91V89.45A1.92,1.92,0,0,1,133,87.53h37.35a1.92,1.92,0,0,1,1.91,1.91v27.41A1.92,1.92,0,0,1,170.32,118.77ZM133,88.5a1,1,0,0,0-.95.94v27.41a1,1,0,0,0,.95.95h37.35a1,1,0,0,0,.95-.95V89.45a1,1,0,0,0-.95-.94Z" transform="translate(-8.98 -31.92)"/><rect class="cls-11" x="181.96" y="97.87" width="1.45" height="21.04" transform="translate(-11.26 180.93) rotate(-60.14)"/><polygon class="cls-11" points="180.14 80.21 181.64 77.44 183.29 80.12 184.94 82.8 181.79 82.89 178.65 82.98 180.14 80.21"/><rect class="cls-11" x="171.63" y="142.08" width="21.04" height="1.45" transform="translate(-54.77 70.63) rotate(-28.08)"/><polygon class="cls-11" points="179.72 107.35 181.12 110.16 182.86 107.54 184.6 104.91 181.45 104.72 178.31 104.53 179.72 107.35"/><rect class="cls-11" x="247.42" y="65.23" width="1.45" height="21.04" transform="translate(49.92 221.3) rotate(-60.14)"/><polygon class="cls-11" points="245.6 47.56 247.09 44.79 248.75 47.47 250.4 50.15 247.25 50.24 244.1 50.34 245.6 47.56"/><rect class="cls-11" x="237.08" y="109.44" width="21.04" height="1.45" transform="translate(-31.69 97.6) rotate(-28.08)"/><polygon class="cls-11" points="245.17 74.7 246.58 77.52 248.32 74.89 250.05 72.26 246.91 72.08 243.77 71.89 245.17 74.7"/><path class="cls-10" d="M170.32,161.76H133a1.92,1.92,0,0,1-1.91-1.91V132.44a1.92,1.92,0,0,1,1.91-1.91h37.35a1.92,1.92,0,0,1,1.91,1.91v27.41A1.92,1.92,0,0,1,170.32,161.76ZM133,131.49a1,1,0,0,0-.95.94v27.41a1,1,0,0,0,.95.94h37.35a1,1,0,0,0,.95-.94V132.44a1,1,0,0,0-.95-.94Z" transform="translate(-8.98 -31.92)"/><path class="cls-7" d="M315.8,191.38l0,.33a10.27,10.27,0,0,0,8.14,11.61c9.35,1.87,24,4.75,36.85,7,20.85,3.73,21.35-10.71,23-21.75,3.76-9,13.05-29.85,13.57-39.21.51-9.16-.11-17.6-8.32-20.52-5.57-1.95-26.67-11.85-29-15.19l-8.07,13.08a5.3,5.3,0,0,1-9.19-.42c-1.81-3.48-3.9-7.1-5.57-8.77a.3.3,0,0,1-.28.28c-3.2,4.31-28.51,14.59-30.45,21.27C305,144,300.71,170.39,315.8,191.38Z" transform="translate(-8.98 -31.92)"/><path class="cls-5" d="M362.08,115.78l-10.3,11.55a5.16,5.16,0,0,1-8.9-.42,48.86,48.86,0,0,0-5.71-9c2.78-4,1.25-6,.56-7.8-8.08,1.81-12-7.37-11.56-10.85a49,49,0,0,0,.28-6.54,10.77,10.77,0,0,0-.69-4.18,4.77,4.77,0,0,1-.13-.57c-.12-3.74,4.2-7.69,7.8-7.54s7.92-.24,8.05.46l2.94,10.23a4,4,0,0,0,3.19,2.85v0c0-.66.13-8.44,6.26-8.17,6.4.27,6,10.71-1.25,12.8a38.55,38.55,0,0,0,2.78,7.66l.07-.08a46.2,46.2,0,0,0,3.27,5.92A25.37,25.37,0,0,0,362.08,115.78Z" transform="translate(-8.98 -31.92)"/><ellipse class="cls-12" cx="327.91" cy="60.48" rx="1.11" ry="2.23"/><ellipse class="cls-12" cx="318.86" cy="60.2" rx="0.97" ry="2.09"/><path class="cls-12" d="M330.3,99.71a1.39,1.39,0,0,1-1.21-.62c-.68-1-.23-2.95.91-4a.31.31,0,1,1,.42.46,2.9,2.9,0,0,0-.82,3.19c.37.55,1.14.33,1.72.06a.31.31,0,0,1,.27.56A3.07,3.07,0,0,1,330.3,99.71Z" transform="translate(-8.98 -31.92)"/><path class="cls-13" d="M337.73,110.08s3.76-1.25,4.87-4.31c0,4.31-3.9,7-3.9,7Z" transform="translate(-8.98 -31.92)"/><path class="cls-12" d="M332.26,104.81a5.6,5.6,0,0,1-2.12-.44.31.31,0,0,1,.27-.57c.13.06,3.3,1.49,4.89-1.55a.31.31,0,1,1,.55.29A3.86,3.86,0,0,1,332.26,104.81Z" transform="translate(-8.98 -31.92)"/><path class="cls-12" d="M334.59,88.29a.31.31,0,0,1-.17-.57c.11-.08,2.81-1.85,5.15-.29a.31.31,0,1,1-.35.52c-2-1.33-4.43.28-4.46.29A.31.31,0,0,1,334.59,88.29Z" transform="translate(-8.98 -31.92)"/><path class="cls-12" d="M328.94,87.85a.31.31,0,0,1-.23-.1,2,2,0,0,0-2.15-.35.31.31,0,0,1-.19-.6,2.64,2.64,0,0,1,2.81.53.31.31,0,0,1-.23.52Z" transform="translate(-8.98 -31.92)"/><path class="cls-5" d="M315.76,176.37c-2-5.16-21.63-38.37-21.61-41.29s-3.32-6.43-7-10.09-5.66-4.28-8.24-6.89-3.21-1.91-3.51-.51,1.05,3.17,2.38,4.32,3.79,2.8,3.82,3.42-2,1.37-5.33-.52-4.54-3.38-5.82-6-2.26-5-3.88-4.66-.51,1.81-.51,1.81-1.07-.25-.52,1.39a34.19,34.19,0,0,1,1.32,4.76c.41,2,.21,2.65.69,3.5s3.29,4.54,4.27,5.72,3.3,3.17,4.18,4.19a15.63,15.63,0,0,0,4.44,2.84c1.48.69,5.54,1,6.21,2.59.45,1.09,10.66,50,18.65,53a9.42,9.42,0,0,0,6,.52C316.79,193.23,319.59,186.37,315.76,176.37Z" transform="translate(-8.98 -31.92)"/><path class="cls-14" d="M269.9,120.4l-.56,0a5.79,5.79,0,0,0-.77-2.67,2.78,2.78,0,0,0-2.47-1.45l0-.56a3.3,3.3,0,0,1,3,1.75A6.18,6.18,0,0,1,269.9,120.4Z" transform="translate(-8.98 -31.92)"/><path class="cls-14" d="M273.68,132.57l-.25-.12-.27.05c0-.13-.43-.84-.84-1.59a59.12,59.12,0,0,1-3-6c-.26-.69-.52-1.24-.75-1.72-.59-1.24-1-2.06.17-2.88a1.15,1.15,0,0,1,1-.18c1.15.3,2.28,2.24,3,3.81.15.31.3.69.47,1.1a9.75,9.75,0,0,0,2,3.54c1.24,1,1.94,1.76,2,1.79l-.4.39s-.72-.74-1.93-1.75a10.1,10.1,0,0,1-2.2-3.75c-.16-.4-.32-.76-.46-1.07-1-2-1.94-3.31-2.66-3.5a.59.59,0,0,0-.53.1c-.74.52-.61.88,0,2.18.22.47.5,1.06.77,1.77a58.66,58.66,0,0,0,3,5.95C273.77,132.39,273.77,132.39,273.68,132.57Z" transform="translate(-8.98 -31.92)"/><path class="cls-14" d="M290.38,134.3a5.83,5.83,0,0,0-5.77-2.17,1.81,1.81,0,0,1-.52,0l.1-.55.35,0a6.42,6.42,0,0,1,6.27,2.37Z" transform="translate(-8.98 -31.92)"/><polygon class="cls-15" points="372.24 149.39 371.74 126.99 373.92 131.55 376.37 143.17 372.24 149.39"/><path class="cls-5" d="M418.23,103.11c.24-1.53,0-3-1.2-3.32s-2.52-.86-2.39-2.72c0-.31,0-.73.07-1.2A26.8,26.8,0,0,1,417.47,85c1.59-3.19.43-4.78-1.28-3.8-1.24.9-2.9,2.52-4.25,7.16A56.15,56.15,0,0,0,410.52,95a7.3,7.3,0,0,1-.65,2.57c-.55.54-1.12.14-2.8,1.91s-6.59,6.16-6.71,6.93a1.71,1.71,0,0,0,2.53,1.8c-2,1.72-2.74,2.54-1.54,3.83a2.06,2.06,0,0,0,2.82,0s.7,1.52,1.27,2.86a10.31,10.31,0,0,1,1.21,4.26c.07,1.57-1.21,5.75-2.53,8.21-.85,1.65-22.08,50-22.08,50-2.23,5.46-1.59,14.94,3.76,17.43,4.35,2,11.34,1.64,14.68-2.6,11.2-14.25,18.39-74.13,18.64-76.69C419.67,109.91,421.46,103.46,418.23,103.11Z" transform="translate(-8.98 -31.92)"/><path class="cls-5" d="M403.3,103.59s-2.54-4.78-.64-5.89,3.58,2.12,3.84,2.48Z" transform="translate(-8.98 -31.92)"/><polyline class="cls-5" points="394.43 75.91 400.12 70.54 405.55 69.83"/><path class="cls-13" d="M403.42,108.34a.5.5,0,0,1-.34-.87l5.81-5.48,5.59-.74a.5.5,0,0,1,.13,1l-5.27.7-5.57,5.25A.5.5,0,0,1,403.42,108.34Z" transform="translate(-8.98 -31.92)"/><path class="cls-5" d="M404,111.84s6.07-5.78,6.7-5.83,4.67-.83,4.67-.83" transform="translate(-8.98 -31.92)"/><path class="cls-13" d="M404,112.34a.5.5,0,0,1-.35-.87c4.11-3.91,6.46-5.92,7-6s3.5-.61,4.62-.83a.5.5,0,0,1,.19,1c-.42.08-4.08.78-4.72.84a80.58,80.58,0,0,0-6.4,5.7A.5.5,0,0,1,404,112.34Z" transform="translate(-8.98 -31.92)"/><path class="cls-13" d="M406.23,116.87s5.16,3,7.61,3.38a7.18,7.18,0,0,1-7-1.25Z" transform="translate(-8.98 -31.92)"/><path class="cls-5" d="M406.08,111.85s3.76-3,5.59-2.72a10.45,10.45,0,0,0,3.5-.39" transform="translate(-8.98 -31.92)"/><path class="cls-13" d="M406.08,112.35a.5.5,0,0,1-.31-.9c.4-.32,4-3.13,6-2.83a9.75,9.75,0,0,0,3.27-.37.5.5,0,0,1,.31,1,10.69,10.69,0,0,1-3.69.41c-1.19-.18-3.85,1.5-5.24,2.62A.5.5,0,0,1,406.08,112.35Z" transform="translate(-8.98 -31.92)"/><path class="cls-15" d="M348.26,135l-.05-1.82c7.44-.22,16.19-15.35,16.28-15.5l1.58.9C365.69,119.28,356.72,134.79,348.26,135Z" transform="translate(-8.98 -31.92)"/><path class="cls-16" d="M106.67,115.45h0c1,14.55,2,30.81-4.62,38S83.62,157,83.62,157l-.92,1.55a5.31,5.31,0,0,1-5.12,2.84c-9-1.1-35-8.52-35-8.52s-19.31,4-23.48-7.07c-3-8,.84-11.55,3.18-15,3-4.27,2.22-15.39,3.41-23.51s3.73-13.5,11-15.76c4.94-1.5,19.94-7.59,22.13-10.42l6.59,11.73a4.64,4.64,0,0,0,8,0c1.71-3,3.66-6.07,5.19-7.47a.26.26,0,0,0,.23.25c2.64,3.89,24.82,16.14,26.28,22.06A56.12,56.12,0,0,1,106.67,115.45Z" transform="translate(-8.98 -31.92)"/><path class="cls-5" d="M78.44,78.8c-.67,1.56-2.08,3.21.21,6.84a42.82,42.82,0,0,0-5.32,7.71,4.52,4.52,0,0,1-7.8,0L56.93,82.91A21.84,21.84,0,0,0,60,79.75,40.14,40.14,0,0,0,65.7,68.28c-2.77-.85-5.48-3-5.87-5.36-.49-2.82,1.15-7.27,4.33-7.38,5.61,0,6.81.52,8.66-6.1s17.37,1.69,17.37,1.69.19,7.32-.5,9.25A9.44,9.44,0,0,0,88.92,64a43.14,43.14,0,0,0,0,5.73C89.17,72.78,85.43,80.68,78.44,78.8Z" transform="translate(-8.98 -31.92)"/><path class="cls-17" d="M77.52,59.62c2.85-1.1,4-.32,4-.32l.3-1.45a.68.68,0,0,0-.58-.76,13.64,13.64,0,0,0-3.54.22C76.87,57.77,77.52,59.62,77.52,59.62Z" transform="translate(-8.98 -31.92)"/><path class="cls-17" d="M90.06,58.71c-1.09-.17-2.79,1.07-2.79,1.07l-.05-1.71a.92.92,0,0,1,.64-.83L90,56.67l.08,1.84Z" transform="translate(-8.98 -31.92)"/><ellipse class="cls-12" cx="79.8" cy="63.37" rx="1.95" ry="0.97" transform="translate(4.21 108.57) rotate(-87.63)"/><ellipse class="cls-12" cx="87.73" cy="63.46" rx="1.83" ry="0.85" transform="translate(11.72 116.57) rotate(-87.63)"/><path class="cls-12" d="M85.37,70a2.59,2.59,0,0,1-1.19-.35.27.27,0,0,1,.26-.48c.5.26,1.16.48,1.51,0a2.54,2.54,0,0,0-.6-2.82.27.27,0,0,1,.39-.39c1,1,1.28,2.68.65,3.53A1.21,1.21,0,0,1,85.37,70Z" transform="translate(-8.98 -31.92)"/><path class="cls-13" d="M78.44,78.8s-3.24-1.23-4.1-3.95c-.16,3.77,3.16,6.23,3.16,6.23Z" transform="translate(-8.98 -31.92)"/><path class="cls-17" d="M50.51,55.34C54.2,39.88,72.15,36.56,79.94,36.56s14.25,3.39,12.2,14.53a70.86,70.86,0,0,1-2.46,9.29c.69-1.92-.36-6.11-1-8.09-.32-1.11-4.73,2.93-11.31-.59a1.94,1.94,0,0,0-1.16,1.42L74.67,63.77l-4.29.55s.43-7.42-5.18-7.41-5.62,9.16.63,11.24a33.61,33.61,0,0,1-2.71,6.59S54.61,56.36,50.51,55.34Z" transform="translate(-8.98 -31.92)"/><polygon class="cls-17" points="68.86 52.22 60.12 57.22 73.52 65.64 69.9 53.73 68.86 52.22"/><polygon class="cls-17" points="49.47 49.59 60.12 57.22 45.39 63.73 47.57 51.22 49.47 49.59"/><path class="cls-18" d="M59.46,93.41l8.25,42.06,10-40.93-8.58-5.39Z" transform="translate(-8.98 -31.92)"/><polygon class="cls-19" points="64.18 59.77 61.96 63.76 57.66 63.58 55.85 59.11 60.12 57.22 64.18 59.77"/><path class="cls-19" d="M64.41,118.64l3.3,16.83,4-16.53-.8-23.26-4.29-.18Z" transform="translate(-8.98 -31.92)"/><path class="cls-20" d="M5.41,110H112.77a5.41,5.41,0,0,1,5.41,5.41v7.18a0,0,0,0,1,0,0H0a0,0,0,0,1,0,0v-7.18A5.41,5.41,0,0,1,5.41,110Z"/><rect class="cls-20" x="10.67" y="122.24" width="96.85" height="12.59"/><path class="cls-20" d="M25.76,166.44l2.61,35.25A7.8,7.8,0,0,0,36,209.13h66.44a5.82,5.82,0,0,0,5.69-5.46l3.43-37.24Z" transform="translate(-8.98 -31.92)"/><path class="cls-12" d="M83.19,75.2a3,3,0,0,1-2.88-1.77.27.27,0,0,1,.52-.19c0,.08.77,2,3.54,1.24a.27.27,0,1,1,.14.53A5.25,5.25,0,0,1,83.19,75.2Z" transform="translate(-8.98 -31.92)"/><path class="cls-5" d="M26.9,141.95s1.55-6.61,4.13-5.14,2.93-1.2,4.54-.24c2.78,1.65,3.23-.48,4.95.62s3.07,3.84,4.91,3.23,4.54-.63,4.78,1.53C44,142,26.9,141.95,26.9,141.95Z" transform="translate(-8.98 -31.92)"/><path class="cls-8" d="M215.56,291.86c-.69,4,.31,8.82,1.39,14.35,3,15.32-11,29.77,1.47,46.4a45.1,45.1,0,0,0,3.23,3.84c4.18-15.23,14.19-37.84,12.05-51.57C232.49,297.12,226.5,294.73,215.56,291.86Z" transform="translate(-8.98 -31.92)"/><path class="cls-8" d="M295.81,308a54.42,54.42,0,0,1-.65-9.08,6.52,6.52,0,0,0-9.11-6.1c-4.53,2.05-8.15,5.43-8.61,10.53-1.88,20,1.7,41.81,6.45,61.57,7.17-3.38,12.95-7.95,16.15-13.05C306.27,341.95,298.27,323.65,295.81,308Z" transform="translate(-8.98 -31.92)"/><path class="cls-11" d="M283.79,299.42a50.19,50.19,0,0,1,12.1-2.39c.37-4.85-6.33-15.07-12.69-18.48a94,94,0,0,0-12.14-5.37c-5-1.87-9.23,5.37-18,1.47-3.12-1.39-8.77-4.83-12-4.77-6.4.12-16.83,4.56-20.5,8-1.66,1.57-5.83,8-7.07,15.17,5.59,1.46,15.15,5.69,15.15,5.69S226.37,337,221,356.46c16.91,18,49.37,17.13,67.76,8.46C284,345.16,283.79,299.42,283.79,299.42Z" transform="translate(-8.98 -31.92)"/><path class="cls-20" d="M227.47,311.12h59.8a5.43,5.43,0,0,1,5.39,4.76l4.89,39.59a14.44,14.44,0,0,1-14.33,16.21H232.68a14.44,14.44,0,0,1-14.38-15.8L222.07,316A5.43,5.43,0,0,1,227.47,311.12Z" transform="translate(-8.98 -31.92)"/><path d="M265.92,271.43c-3,1.21-11.83-7-18-5.71-7.88,1.69-11,6.1-15,6.54-1.77-11.28-8.44-19.16-10.1-30.66-1.45-10,3-18,14.59-20.8,8-1.94,14.52.92,19.74,7.59,3.67,4.69,6.45,12.1,8.43,18,.7,2.1-2,4.93-1.55,7,.87,3.79,0,5.23,0,8.26C264,266.09,268,270.57,265.92,271.43Z" transform="translate(-8.98 -31.92)"/><path class="cls-21" d="M201.87,273.44c-2.39,5.6-11,5.07-11,5.07-3.19,3.74,1.31,9,1.31,9s-18.49-2-22.13-1.44c0-.07,3.28-6.11,2.93-7.56l.13.07c5.75-4.17,8.53-28.28,9.53-31.24s18.32,1.09,19.49-2.67c1.46,3.88.68,8.67.23,11.88C201.42,262.78,204.85,266.4,201.87,273.44Z" transform="translate(-8.98 -31.92)"/><path class="cls-22" d="M187.59,364.4c-12,19.13-20.84,32-43.35,2-12.52-16.69-8.56-30.62-11.54-46s1.24-24.95,6.17-29.43c5.81-5.29,14.39-5.61,20.82-5.73s15.72.18,17.8.36h0c8.57.52,15.63,1,24.13,5.53,12.66,6.8,4.62,17.73,1.09,33C196.18,352.45,193.84,354.44,187.59,364.4Z" transform="translate(-8.98 -31.92)"/><path class="cls-23" d="M202,247.65c-1.19,3.84-3.16,8.8-4.89,10.32,0,0-4.73-5.27-7.45.15-3.41,6.78,2.9,10.62,4.84,10.51-1.95,4.87-2.17,8.84-8.05,9.77s-8.11-4.11-14,.14l-.13-.07h0c-8.81-4-15.94-18.26-13.43-27.91s11.33-16.85,19.93-17.37c6.09-.37,13.63,1.75,18.9,2.35,3.28.37,5.82,4.56,5.28,7.82A31.85,31.85,0,0,1,202,247.65Z" transform="translate(-8.98 -31.92)"/><path class="cls-21" d="M334.25,260.7c1.93,5.75,10.58,5.9,10.58,5.9,2.87,4-2,8.8-2,8.8s22.66.2,26.23,1.08c0-.08-2.92-14.39-3.84-14.51-5.38-4.6-9.14-10.67-11.88-17.63-2.4-6.11-16.35-4.81-17.21-8.64a25.36,25.36,0,0,0-1,8.14C335.54,250.15,331.84,253.48,334.25,260.7Z" transform="translate(-8.98 -31.92)"/><path class="cls-21" d="M314.17,307.19c0,.22-4.5-2.27-4.45-2,3,15.32-8,32.44,4.45,49.07a44.19,44.19,0,0,0,7.5,7.82C326.2,343.48,336.73,314.92,314.17,307.19Z" transform="translate(-8.98 -31.92)"/><path class="cls-21" d="M400.76,306.46c-7.72,2.09-21.88,3.91-22.62,7.65-5.2,14.84,1.56,32.83,8,49.17a33,33,0,0,0,10.27-9.81C402.63,343.54,400.88,307.72,400.76,306.46Z" transform="translate(-8.98 -31.92)"/><path class="cls-3" d="M385.14,320.23c.75-3.74,9.64-9.53,17.36-11.61-1.13-12.22-3.93-20.17-15.37-26.31-8.47-4.55-16.53-7.48-25.06-8h0c-2.07-.18-11.33-.48-17.73-.36s-24.2,9.25-27.5,11.61c-2.85,2-10.26,8.21-7.57,23.28,22.56,7.73,17,34.64,12.42,53.18,19.11,15.52,47.89,11.89,64.47,1.24C379.69,346.93,379.95,335.08,385.14,320.23Z" transform="translate(-8.98 -31.92)"/><path class="cls-20" d="M323.83,312.71h59.8a5.43,5.43,0,0,1,5.39,4.76l4.89,39.59a14.44,14.44,0,0,1-14.33,16.21H329a14.44,14.44,0,0,1-14.38-15.8l3.77-39.84A5.43,5.43,0,0,1,323.83,312.71Z" transform="translate(-8.98 -31.92)"/><path class="cls-2" d="M341.32,247.54s2.87-5.16,6.7-.61-2.41,15.71,3.24,17.06c7.59-8.58,14.92,0,14.92,0,8.88-3.2,10.55-14.86,8.85-24.45s-9-15.22-15.57-15c-6.78-3.21-15,0-20.94-.1a5.6,5.6,0,0,0-5.55,6.67C334.52,238.91,341.32,247.54,341.32,247.54Z" transform="translate(-8.98 -31.92)"/><path class="cls-21" d="M339.44,248.29l3.93-2.84s4.63.22,5.33,2.36a5.68,5.68,0,0,1,.39,3.63C348.55,253,339.44,248.29,339.44,248.29Z" transform="translate(-8.98 -31.92)"/><polygon class="cls-24" points="10.67 122.24 107.51 122.24 107.51 125.37 10.67 122.24"/><polygon class="cls-25" points="79.65 110.02 82.84 94.09 83.54 110.02 79.65 110.02"/><path class="cls-20" d="M49.75,317.65h60a5.45,5.45,0,0,1,5.41,4.78l4.9,39.73a14.49,14.49,0,0,1-14.38,16.27H55a14.49,14.49,0,0,1-14.43-15.86l3.78-40A5.45,5.45,0,0,1,49.75,317.65Z" transform="translate(-8.98 -31.92)"/><g class="cls-26"><path class="cls-27" d="M84.47,54.78l-.9-.44c.05-.1,5-10.48,1.61-15.9-1.38-2.2-4-3.32-7.81-3.32h-.07v-1c4.24,0,7.15,1.26,8.74,3.78C89.73,43.81,84.68,54.34,84.47,54.78Z" transform="translate(-8.98 -31.92)"/><path class="cls-27" d="M83.64,54.24l-1-.1c0-.08.76-8.59-3.94-13.75-2.4-2.63-5.82-4-10.17-4h-.08v-1c4.71,0,8.39,1.42,11,4.29C84.45,45.21,83.68,53.87,83.64,54.24Z" transform="translate(-8.98 -31.92)"/><path class="cls-27" d="M54.48,60.35,53.55,60A12.93,12.93,0,0,1,61,52.24c7.41-2.78,16.34,1.68,16.72,1.87l-.45.89c-.09,0-8.92-4.45-15.92-1.83A12,12,0,0,0,54.48,60.35Z" transform="translate(-8.98 -31.92)"/></g><path d="M222.79,234.8s-6.81,23.32.91,33.06a7.41,7.41,0,0,1,1.33,7.68c-1,2.56-3.38,4.9-1.43,7.51,3.81,5.11-4.18,9.05-.64,14.53,2.27,3.52,4.25,4.75,3.43,7.87,10.19-1.23,13.19-10.74,10-13.07s3.14-9.18,1.21-14.5c-.39-1.08-1.21-2.15-1.45-3-.92-3.33.15-5,4.73-6.91S222.79,234.8,222.79,234.8Z" transform="translate(-8.98 -31.92)"/><path class="cls-7" d="M226.24,269.43c2.45-.64,7.33-1.18,10,1.13,1,.87.69,2.38.09,3.66v0a.24.24,0,0,1-.23.15L225.35,274c-.83,0-.79-1.12-.66-2l0-.18C224.91,270.5,225.11,269.73,226.24,269.43Z" transform="translate(-8.98 -31.92)"/><path d="M257.15,228.4s13.36,20.3,8.84,31.87a7.41,7.41,0,0,0,1,7.74c1.74,2.15,4.67,3.69,3.57,6.76-2.14,6,6.33,7.35,4.88,13.7s-4.47,8.16-2.77,10.9c-10.39.65-14-8.76-11.64-11.91s-5.7-7.86-5.42-13.51c.06-1.15.53-2.41.51-3.29-.09-3.45-1.6-4.7-6.55-5.22S257.15,228.4,257.15,228.4Z" transform="translate(-8.98 -31.92)"/><path class="cls-7" d="M264.84,265.14c-2.51-.31-7.42-.19-9.81,2.46-.91,1-.37,2.45.4,3.64h0a.24.24,0,0,0,.25.11l10.64-1.82c.82-.14.64-1.22.38-2.11l-.05-.18C266.31,266,266,265.28,264.84,265.14Z" transform="translate(-8.98 -31.92)"/><path class="cls-23" d="M165.58,270c-3.89,1.66-8.71,3.27-7.13,7.88s3.2,1.13,6.17,6.08a7.89,7.89,0,0,0,10,3.5c2.68-1,2.38-4.83,7.55-4,3.14.53,7.48-7.82.09-8.67S165.58,270,165.58,270Z" transform="translate(-8.98 -31.92)"/><path class="cls-22" d="M196.2,318.51S202,358.88,208.5,361c15.14,4.89,28.89-41.73,28.89-41.73l-11.69-1-12.55,11.94S218.76,305,205.5,294C206.7,309.11,196.2,318.51,196.2,318.51Z" transform="translate(-8.98 -31.92)"/><path class="cls-20" d="M139.13,324.17h60a5.45,5.45,0,0,1,5.41,4.78l4.9,39.73a14.49,14.49,0,0,1-14.38,16.27H144.35a14.49,14.49,0,0,1-14.43-15.86l3.78-40A5.45,5.45,0,0,1,139.13,324.17Z" transform="translate(-8.98 -31.92)"/><path class="cls-21" d="M243.78,311.12c-.34-3.81-3.12-4.68-4.58-6.24s-3,2.17-5,.14-3.26,1.42-5-.47-3.73,5.27-6,5.72c-3.67.74,2.09,6.35,1.49,7.7a25.4,25.4,0,0,1-1.53,2.61,13,13,0,0,0,6.54,1.12,17,17,0,0,0,7.55-2.26,10,10,0,0,0,2.35-3.91C240.36,313.27,240.92,311.12,243.78,311.12Z" transform="translate(-8.98 -31.92)"/><path class="cls-4" d="M337,96.72a4.32,4.32,0,1,1,4.32-4.32A4.33,4.33,0,0,1,337,96.72Zm0-7.64a3.32,3.32,0,1,0,3.32,3.32A3.33,3.33,0,0,0,337,89.08Z" transform="translate(-8.98 -31.92)"/><path class="cls-4" d="M327.34,96.44a4.35,4.35,0,1,1,3.85-4.32A4.11,4.11,0,0,1,327.34,96.44Zm0-7.64a3.36,3.36,0,1,0,2.85,3.32A3.12,3.12,0,0,0,327.34,88.8Z" transform="translate(-8.98 -31.92)"/><rect class="cls-4" x="321.71" y="59.3" width="2.48" height="1"/><path class="cls-4" d="M340.75,92.22a.5.5,0,0,1-.17-1s3.88-1.38,7.83-2.56a.5.5,0,0,1,.29,1c-3.93,1.17-7.75,2.53-7.78,2.54A.48.48,0,0,1,340.75,92.22Z" transform="translate(-8.98 -31.92)"/></svg>