<svg id="Слой_2" data-name="Слой 2" xmlns="http://www.w3.org/2000/svg" xmlns:xlink="http://www.w3.org/1999/xlink" viewBox="0 0 376.32 324.87"><defs><style>.cls-1{fill:none;}.cls-2{fill:#fe3737;}.cls-3{fill:#fff;}.cls-4{fill:#f6eeca;}.cls-5{fill:#cf8e6a;}.cls-6{fill:#db9770;}.cls-7{fill:#b87f5e;}.cls-8{fill:#4f6ddb;}.cls-9{fill:#364b96;}.cls-10{fill:#ffc61a;}.cls-11{fill:#303134;}.cls-12{clip-path:url(#clip-path);}.cls-13{fill:#e0ae17;}.cls-14{fill:#029d41;}</style><clipPath id="clip-path" transform="translate(-29.86 -35.55)"><path class="cls-1" d="M268.81,140.78c-2.36-1.21-6.67.32-8,3-1.91,3.81-5.73-3.93-7.3-8.19s-6.27.56-10.75-4.59-7.28-13.78-18.59-9.07c0,0-1.56,2.12-1.89,6.6-11.82-3.6-7.81-26.6.88-24.94,18.26,3.5,19.34-6,32.27-3.19,13.3,2.89,16.24,8.81,18.25,15.86C275.09,121.3,272.66,132.28,268.81,140.78Z"/></clipPath></defs><title>ACM ICER 2019_dark_mode</title><circle class="cls-2" cx="55.68" cy="42.79" r="16.35"/><polygon class="cls-2" points="55.68 59.14 34.17 59.14 42.51 48.6 55.68 59.14"/><path class="cls-3" d="M91.26,88.81c-2.27-.6-4.49-1.27-6.43-1.95a3.21,3.21,0,0,0-1-.25c-4-.15-7.41-3.09-7.41-8.5s3.29-8.85,7.83-8.85,7.53,3.54,7.53,8.5c0,4.31-2,7.08-4.79,8.05v.1c1.67.42,3.49.82,4.91,1.07ZM89.46,77.86c0-3.37-1.75-6.83-5.31-6.83s-5.46,3.39-5.43,7,1.94,6.78,5.33,6.78S89.46,81.7,89.46,77.86Z" transform="translate(-29.86 -35.55)"/><polygon class="cls-4" points="142.03 225.45 109.19 249.56 179.02 249.56 194.76 225.45 142.03 225.45"/><path class="cls-4" d="M321.77,258.49H153.26a1,1,0,1,1,0-1.95H321.77a1,1,0,0,1,0,1.95Z" transform="translate(-29.86 -35.55)"/><polygon class="cls-5" points="209.89 192.6 194.28 219.12 164.02 212.73 178.39 200.59 179.18 189.31 209.89 192.6"/><path class="cls-6" d="M195.14,261c.62.8,0,1.39-1.08,1.76a11.84,11.84,0,0,1-2.89.52c-2.67.19-7.29.31-9.7-1.11s-3.31-2.73-3.78-5,1.17-3,.33-5,0-4,1.44-4.3.91-.39,1.36-2.22,1.64-2.26,7.23-1.81a21.94,21.94,0,0,1,6.58,1.47,3.89,3.89,0,0,0-2.09,1.91c-.84,2.16-2.08,8,.39,9.12.72.33,1.42-.06,2.06-.77C197.2,258.52,196.59,260.52,195.14,261Z" transform="translate(-29.86 -35.55)"/><path class="cls-5" d="M202.11,262.21a6.86,6.86,0,0,1-8,.59c1.12-.37,1.7-1,1.08-1.76,1.45-.52,2.06-2.51-.16-5.45-.64.7-1.34,1.09-2.06.77-2.47-1.11-1.23-7-.39-9.12a3.89,3.89,0,0,1,2.09-1.91c1.78-.75,4.11-.2,4.75,4.06A115.87,115.87,0,0,0,202.11,262.21Z" transform="translate(-29.86 -35.55)"/><path class="cls-7" d="M193.37,256.65h-.13l.11-.77h0a2.27,2.27,0,0,0,1.39-.6,18.23,18.23,0,0,0,2.57-5.17l.74.24a18.47,18.47,0,0,1-2.78,5.5A3.21,3.21,0,0,1,193.37,256.65Z" transform="translate(-29.86 -35.55)"/><path class="cls-7" d="M186.55,246.32a24.89,24.89,0,0,1,3.18,3.82,11.14,11.14,0,0,1,1.21,2.23,3.43,3.43,0,0,1,.26,1.35,1.53,1.53,0,0,1-.24.78,1.26,1.26,0,0,1-.72.51,2.49,2.49,0,0,1-1.44-.21,7.62,7.62,0,0,1-1.15-.6,16.57,16.57,0,0,1-2-1.52,29.39,29.39,0,0,1-3.46-3.56c1.27,1.05,2.53,2.11,3.84,3.09a24.14,24.14,0,0,0,2,1.36,3.58,3.58,0,0,0,2,.68c.48-.07.46-.92.19-1.64a13.7,13.7,0,0,0-1-2.17C188.42,249,187.48,247.69,186.55,246.32Z" transform="translate(-29.86 -35.55)"/><path class="cls-7" d="M180,254.13c1.25,1,2.48,1.94,3.74,2.88a37.18,37.18,0,0,0,3.86,2.6,8.34,8.34,0,0,0,2.07.84c.68.17,1.51.13,1.67-.37a1,1,0,0,0-.22-.89,9.47,9.47,0,0,1-.52-1.09,18.85,18.85,0,0,1-.71-2.27c.34.71.67,1.43,1.06,2.11a10,10,0,0,0,.59,1,1.58,1.58,0,0,1,.39,1.31,1.32,1.32,0,0,1-1.09,1,3.51,3.51,0,0,1-1.31,0,8.68,8.68,0,0,1-2.3-.88,23.43,23.43,0,0,1-3.86-2.81A34.24,34.24,0,0,1,180,254.13Z" transform="translate(-29.86 -35.55)"/><path class="cls-7" d="M194.63,245.32a2.62,2.62,0,0,0-.78.51,3.81,3.81,0,0,0-.54.65c-.35.47-.61,1-1.06,1.6a2.59,2.59,0,0,1,0-1.06,2.72,2.72,0,0,1,.43-1,2.05,2.05,0,0,1,.86-.72A1.28,1.28,0,0,1,194.63,245.32Z" transform="translate(-29.86 -35.55)"/><path class="cls-2" d="M188.26,229.85h0a1.28,1.28,0,0,1,1.5,1.07c1,6.36,5.15,33.91,3.88,34s-5.5-27.42-6.43-33.63A1.28,1.28,0,0,1,188.26,229.85Z" transform="translate(-29.86 -35.55)"/><path class="cls-7" d="M195,255.58a6.37,6.37,0,0,1,1.08,1.22,5,5,0,0,1,.7,1.53,2.61,2.61,0,0,1-.18,1.78,2,2,0,0,1-1.4,1.23l.19-.51a1.61,1.61,0,0,1,.26.62,1,1,0,0,1-.12.69,1.12,1.12,0,0,1-.51.39,1.85,1.85,0,0,1-.56.12c.32-.18.65-.4.72-.68a.54.54,0,0,0,0-.38,1.17,1.17,0,0,0-.23-.35l-.32-.31.51-.2a1.64,1.64,0,0,0,.78-.92,2.22,2.22,0,0,0,.16-1.33A13.14,13.14,0,0,0,195,255.58Z" transform="translate(-29.86 -35.55)"/><path class="cls-6" d="M266.41,155c-3.76-1.64-6.62-7-8.61-11.17-5.9,4.91-11.53,10-17.81,14.2,1.37,2.56,3.31,7,1,11.72,2.41,2,4.94,3.19,7.82,7.21s15.71,5.06,17.72.51l4.29-17.89A26.27,26.27,0,0,1,266.41,155Z" transform="translate(-29.86 -35.55)"/><path class="cls-8" d="M224.33,241c1.38,11-4.41,13.15,2.38,14.5,9.19,1.84,59.09-8.74,80.75-13.52a13.08,13.08,0,0,0,10.26-12.65c.07-6.55,0-14.91-.53-21.09-1.18-13.48-4-30.21-13.54-35.76-9.85-5.75-24.18-10.9-37.24-17.53l-9.63,14.87c-2.81,4.4-8.79,3.83-11.6-.53-3.07-4.75-3-7-4-8.84-13.23,20-25.35,21.54-27.81,30C211.57,196.63,223,230,224.33,241Z" transform="translate(-29.86 -35.55)"/><path class="cls-9" d="M252.52,183.7h0c-4.24,0-6.18-.94-13-11.85l1.7-1.06c6.79,10.89,8.29,10.9,11.29,10.91h0c7.8,0,17.24-16.69,20.23-23.13l1.81.84C274.11,160.4,263.19,183.7,252.52,183.7Z" transform="translate(-29.86 -35.55)"/><path class="cls-6" d="M275.46,238.36l4.36-19.21,33.08,8.5s-8.05,30.5-16.82,34c-.64.26-1.86-.62-2.87-.35l-20.67-22Z" transform="translate(-29.86 -35.55)"/><polygon class="cls-8" points="183.34 155.56 172.33 185.5 194.76 197.98 183.34 155.56"/><path class="cls-6" d="M301.08,252.55c.3,14-20.9,13.1-36.9,13.6s-27.74-2.23-31.63-2.71-5.89.38-10,.88-11.64-2.91-11.94-2.86-1.93,1.62-3.36,2a7.61,7.61,0,0,1-5.26-.91c-2.14-1.05-1.06-2.27-1.06-2.27s-3.32-2.76-4.06-3.33.33-3.45.33-3.45l-.52-1.06c-.52-1.06,1.05-2.53,1.05-2.53s-1.54-2.33-.76-3.88,5.2-3.49,9.64-3.74,16.39,7,25.69,6.29,42-10.11,45.47-10.83C290.5,235.08,300.67,233.47,301.08,252.55Z" transform="translate(-29.86 -35.55)"/><polygon class="cls-7" points="171.03 224.7 173.76 218.44 169.65 223.55 171.03 224.7"/><polygon class="cls-7" points="167.31 217.92 172.93 214.19 166.8 219.8 167.31 217.92"/><path class="cls-7" d="M197.71,249.88c.39-.39,4.48-3.2,4.48-3.2l-5.14,1.87Z" transform="translate(-29.86 -35.55)"/><path class="cls-7" d="M242.48,164s8.7-2.6,12.46-8.72c-2.19,6.84-10.8,12.3-10.86,12.19S242.48,164,242.48,164Z" transform="translate(-29.86 -35.55)"/><path class="cls-10" d="M268.81,140.78c-2.36-1.21-6.67.32-8,3-1.91,3.81-5.73-3.93-7.3-8.19s-6.27.56-10.75-4.59-7.28-13.78-18.59-9.07c0,0-1.56,2.12-1.89,6.6-11.82-3.6-7.81-26.6.88-24.94,18.26,3.5,19.34-6,32.27-3.19,13.3,2.89,16.24,8.81,18.25,15.86C275.09,121.3,272.66,132.28,268.81,140.78Z" transform="translate(-29.86 -35.55)"/><path class="cls-6" d="M259.2,148.06c-4.59,10.64-12.21,15-20.27,17s-11.2.34-14.78-10.63S224,143.81,222.57,135a26.11,26.11,0,0,1-.32-6.39c.34-4.48,1.89-6.6,1.89-6.6,11.31-4.71,14.11,3.92,18.59,9.07s9.18.34,10.75,4.59,3.92,5.38,5.83,1.57c1.36-2.71,5.32-4.28,7.68-3.07a3.52,3.52,0,0,1,1.84,3C269.39,142.36,267.83,148.06,259.2,148.06Z" transform="translate(-29.86 -35.55)"/><path class="cls-11" d="M229.18,137.06a.42.42,0,0,1-.36-.21,3.78,3.78,0,0,0-2.33-2,4.53,4.53,0,0,0-3.14.58.42.42,0,0,1-.45-.7,5.3,5.3,0,0,1,3.78-.69,4.57,4.57,0,0,1,2.86,2.41.42.42,0,0,1-.16.57A.42.42,0,0,1,229.18,137.06Z" transform="translate(-29.86 -35.55)"/><path class="cls-11" d="M245.09,141.2a.42.42,0,0,1-.32-.15c-3.95-4.67-7.34-2-7.48-1.85a.42.42,0,1,1-.53-.64s4.18-3.33,8.65,2a.42.42,0,0,1-.32.68Z" transform="translate(-29.86 -35.55)"/><ellipse class="cls-11" cx="197.02" cy="106.47" rx="1.4" ry="2.68"/><ellipse class="cls-11" cx="210.13" cy="109.18" rx="1.4" ry="2.68"/><path class="cls-11" d="M231.87,151.7a2.49,2.49,0,0,1-1.88-1c-2.19-2.55,1.11-8.14,1.25-8.38a.42.42,0,1,1,.71.43c-.88,1.47-2.82,5.67-1.33,7.41a1.67,1.67,0,0,0,1.35.72c.87-.07,1.66-1.11,1.89-1.5a.42.42,0,0,1,.71.43c0,.07-1.08,1.78-2.54,1.9Z" transform="translate(-29.86 -35.55)"/><path class="cls-11" d="M233.64,159.35a9.23,9.23,0,0,1-5-1.72.42.42,0,0,1,.51-.66c.18.14,4.54,3.44,8.43,0a.42.42,0,1,1,.55.63A6.56,6.56,0,0,1,233.64,159.35Z" transform="translate(-29.86 -35.55)"/><g class="cls-12"><path class="cls-13" d="M228,124.89c-.14-.09-14.33-9.05-4.69-25.24l.86.51c-9.13,15.32,3.8,23.53,4.35,23.87Z" transform="translate(-29.86 -35.55)"/><path class="cls-13" d="M233.9,125.68c-.28-.24-6.9-5.92-7.45-14-.31-4.57,1.41-9,5.11-13.05l.74.67c-3.51,3.88-5.14,8-4.86,12.31.51,7.65,7,13.25,7.09,13.31Z" transform="translate(-29.86 -35.55)"/><path class="cls-13" d="M228.29,126.63c-1.74,0-15.24-3.78-17.51-17.92l1-.16c2.31,14.36,16.4,17.07,16.54,17.08Z" transform="translate(-29.86 -35.55)"/></g><circle class="cls-14" cx="78.08" cy="36.07" r="16.35"/><polygon class="cls-14" points="78.08 52.42 99.59 52.42 91.25 41.88 78.08 52.42"/><circle class="cls-2" cx="21.51" cy="126.16" r="16.35"/><polygon class="cls-2" points="21.51 142.52 0 142.52 8.34 131.97 21.51 142.52"/><circle class="cls-14" cx="43.91" cy="119.44" r="16.35"/><polygon class="cls-14" points="43.91 135.79 65.42 135.79 57.08 125.25 43.91 135.79"/><circle class="cls-2" cx="82.78" cy="189.07" r="16.35"/><polygon class="cls-2" points="82.78 205.43 61.28 205.43 69.62 194.89 82.78 205.43"/><circle class="cls-14" cx="105.19" cy="182.35" r="16.35"/><polygon class="cls-14" points="105.19 198.71 126.69 198.71 118.35 188.17 105.19 198.71"/><circle class="cls-2" cx="325.35" cy="35.1" r="16.35"/><polygon class="cls-2" points="325.36 51.45 346.86 51.45 338.52 40.91 325.36 51.45"/><circle class="cls-14" cx="302.95" cy="28.38" r="16.35"/><polygon class="cls-14" points="302.95 44.73 281.45 44.73 289.79 34.19 302.95 44.73"/><circle class="cls-2" cx="354.81" cy="140.61" r="16.35"/><polygon class="cls-2" points="354.81 156.96 376.32 156.96 367.98 146.42 354.81 156.96"/><circle class="cls-14" cx="332.41" cy="133.89" r="16.35"/><polygon class="cls-14" points="332.41 150.24 310.9 150.24 319.25 139.7 332.41 150.24"/><circle class="cls-2" cx="292.52" cy="308.06" r="16.35"/><polygon class="cls-2" points="292.67 291.71 314.17 291.71 305.83 302.25 292.67 291.71"/><circle class="cls-14" cx="270.12" cy="301.34" r="16.35"/><polygon class="cls-14" points="269.96 284.99 248.46 284.99 256.8 295.53 269.96 284.99"/><circle class="cls-2" cx="346.53" cy="239.06" r="16.35"/><polygon class="cls-2" points="346.68 222.71 368.18 222.71 359.84 233.25 346.68 222.71"/><circle class="cls-14" cx="324.13" cy="232.34" r="16.35"/><polygon class="cls-14" points="323.97 215.99 302.46 215.99 310.81 226.53 323.97 215.99"/><circle class="cls-2" cx="166.35" cy="23.07" r="16.35"/><polygon class="cls-2" points="166.35 39.43 144.84 39.43 153.18 28.89 166.35 39.43"/><circle class="cls-14" cx="188.75" cy="16.35" r="16.35"/><polygon class="cls-14" points="188.75 32.71 210.25 32.71 201.91 22.17 188.75 32.71"/><circle class="cls-2" cx="128.6" cy="308.51" r="16.35"/><polygon class="cls-2" points="128.37 292.16 106.86 292.16 115.2 302.7 128.37 292.16"/><circle class="cls-14" cx="151" cy="301.79" r="16.35"/><polygon class="cls-14" points="150.77 285.44 172.28 285.44 163.93 295.98 150.77 285.44"/><circle class="cls-2" cx="27.9" cy="269.33" r="16.35"/><polygon class="cls-2" points="27.67 252.98 6.16 252.98 14.5 263.52 27.67 252.98"/><circle class="cls-14" cx="50.3" cy="262.61" r="16.35"/><polygon class="cls-14" points="50.07 246.26 71.58 246.26 63.23 256.8 50.07 246.26"/><path class="cls-3" d="M104.67,74.25,103,79.34h-2.16l5.5-16.18h2.52l5.52,16.18h-2.23l-1.73-5.09Zm5.3-1.63L108.4,68c-.36-1.06-.6-2-.84-3h0c-.24,1-.5,1.94-.82,2.93l-1.58,4.68Z" transform="translate(-29.86 -35.55)"/><path class="cls-3" d="M201.21,69c-2.27-.6-4.49-1.27-6.43-1.95a3.21,3.21,0,0,0-1-.25c-4-.15-7.41-3.09-7.41-8.5s3.29-8.85,7.83-8.85,7.53,3.54,7.53,8.5c0,4.31-2,7.08-4.79,8.05v.1c1.67.42,3.49.82,4.91,1.07ZM199.42,58c0-3.37-1.75-6.83-5.31-6.83s-5.46,3.39-5.43,7S190.62,65,194,65,199.42,61.85,199.42,58Z" transform="translate(-29.86 -35.55)"/><path class="cls-3" d="M215.63,54.4,214,59.49h-2.16l5.5-16.18h2.52l5.52,16.18H223.1l-1.73-5.09Zm5.3-1.63-1.58-4.66c-.36-1.06-.6-2-.84-3h0c-.24,1-.5,1.94-.82,2.93l-1.58,4.68Z" transform="translate(-29.86 -35.55)"/><path class="cls-3" d="M57.16,172.29c-2.27-.6-4.49-1.27-6.43-1.95a3.21,3.21,0,0,0-1-.25c-4-.15-7.41-3.09-7.41-8.5s3.29-8.85,7.83-8.85,7.53,3.54,7.53,8.5c0,4.31-2,7.08-4.79,8.05v.1c1.67.42,3.49.82,4.91,1.07Zm-1.79-10.95c0-3.37-1.75-6.83-5.31-6.83s-5.46,3.39-5.43,7,1.94,6.78,5.33,6.78S55.37,165.18,55.37,161.34Z" transform="translate(-29.86 -35.55)"/><path class="cls-3" d="M70.58,157.73l-1.68,5.09H66.74l5.5-16.18h2.52l5.52,16.18H78l-1.73-5.09Zm5.3-1.63-1.58-4.66c-.36-1.06-.6-2-.84-3h0c-.24,1-.5,1.94-.82,2.93L71,156.1Z" transform="translate(-29.86 -35.55)"/><path class="cls-3" d="M118.19,235.8c-2.27-.6-4.49-1.27-6.43-1.95a3.21,3.21,0,0,0-1-.25c-4-.15-7.41-3.09-7.41-8.5s3.29-8.85,7.83-8.85,7.53,3.54,7.53,8.5c0,4.31-2,7.08-4.79,8.05v.1c1.67.42,3.49.82,4.91,1.07Zm-1.79-10.95c0-3.37-1.75-6.83-5.31-6.83s-5.46,3.39-5.43,7,1.94,6.78,5.33,6.78S116.4,228.69,116.4,224.85Z" transform="translate(-29.86 -35.55)"/><path class="cls-3" d="M131.61,221.24l-1.68,5.09h-2.16l5.5-16.18h2.52l5.52,16.18h-2.23l-1.73-5.09Zm5.3-1.63L135.33,215c-.36-1.06-.6-2-.84-3h0c-.24,1-.5,1.94-.82,2.93L132,219.61Z" transform="translate(-29.86 -35.55)"/><path class="cls-3" d="M63.92,316.15c-2.27-.6-4.49-1.27-6.43-1.95a3.21,3.21,0,0,0-1-.25c-4-.15-7.41-3.09-7.41-8.5s3.29-8.85,7.83-8.85,7.53,3.54,7.53,8.5c0,4.31-2,7.08-4.79,8.05v.1c1.67.42,3.49.82,4.91,1.07Zm-1.79-10.95c0-3.37-1.75-6.83-5.31-6.83s-5.46,3.39-5.43,7,1.94,6.78,5.33,6.78S62.12,309,62.12,305.21Z" transform="translate(-29.86 -35.55)"/><path class="cls-3" d="M77.34,301.6l-1.68,5.09H73.5L79,290.51h2.52L87,306.69H84.8l-1.73-5.09Zm5.3-1.63-1.58-4.66c-.36-1.06-.6-2-.84-3h0c-.24,1-.5,1.94-.82,2.93L77.77,300Z" transform="translate(-29.86 -35.55)"/><path class="cls-3" d="M163.23,354.75c-2.27-.6-4.49-1.27-6.43-1.95a3.21,3.21,0,0,0-1-.25c-4-.15-7.41-3.09-7.41-8.5s3.29-8.85,7.83-8.85,7.53,3.54,7.53,8.5c0,4.31-2,7.08-4.79,8.05v.1c1.67.42,3.49.82,4.91,1.07Zm-1.79-10.95c0-3.37-1.75-6.83-5.31-6.83s-5.46,3.39-5.43,7,1.94,6.78,5.33,6.78S161.44,347.64,161.44,343.8Z" transform="translate(-29.86 -35.55)"/><path class="cls-3" d="M176.65,340.19,175,345.28h-2.16l5.5-16.18h2.52l5.52,16.18h-2.23l-1.73-5.09Zm5.3-1.63-1.58-4.66c-.36-1.06-.6-2-.84-3h0c-.24,1-.5,1.94-.82,2.93l-1.58,4.68Z" transform="translate(-29.86 -35.55)"/><path class="cls-3" d="M331.22,353.72c-2.27-.6-4.49-1.27-6.43-1.95a3.21,3.21,0,0,0-1-.25c-4-.15-7.41-3.09-7.41-8.5s3.29-8.85,7.83-8.85,7.53,3.54,7.53,8.5c0,4.31-2,7.08-4.79,8.05v.1c1.67.42,3.49.82,4.91,1.07Zm-1.79-10.95c0-3.37-1.75-6.83-5.31-6.83s-5.46,3.39-5.43,7,1.94,6.78,5.33,6.78S329.43,346.61,329.43,342.77Z" transform="translate(-29.86 -35.55)"/><path class="cls-3" d="M297.17,340.19l-1.68,5.09h-2.16l5.5-16.18h2.52l5.52,16.18h-2.23l-1.73-5.09Zm5.3-1.63-1.58-4.66c-.36-1.06-.6-2-.84-3h0c-.24,1-.5,1.94-.82,2.93l-1.58,4.68Z" transform="translate(-29.86 -35.55)"/><path class="cls-3" d="M385.36,284.59c-2.27-.6-4.49-1.27-6.43-1.95a3.21,3.21,0,0,0-1-.25c-4-.15-7.41-3.09-7.41-8.5s3.29-8.85,7.83-8.85,7.53,3.54,7.53,8.5c0,4.31-2,7.08-4.79,8.05v.1c1.67.42,3.49.82,4.91,1.07Zm-1.79-10.95c0-3.37-1.75-6.83-5.31-6.83s-5.46,3.39-5.43,7,1.94,6.78,5.33,6.78S383.56,277.48,383.56,273.64Z" transform="translate(-29.86 -35.55)"/><path class="cls-3" d="M350.36,271.06l-1.68,5.09h-2.16L352,260h2.52l5.52,16.18h-2.23l-1.73-5.09Zm5.3-1.63-1.58-4.66c-.36-1.06-.6-2-.84-3h0c-.24,1-.5,1.94-.82,2.93l-1.58,4.68Z" transform="translate(-29.86 -35.55)"/><path class="cls-3" d="M393.64,186.13c-2.27-.6-4.49-1.27-6.43-1.95a3.21,3.21,0,0,0-1-.25c-4-.15-7.41-3.09-7.41-8.5s3.29-8.85,7.83-8.85,7.53,3.54,7.53,8.5c0,4.31-2,7.08-4.79,8.05v.1c1.67.42,3.49.82,4.91,1.07Zm-1.79-10.95c0-3.37-1.75-6.83-5.31-6.83s-5.46,3.39-5.43,7,1.94,6.78,5.33,6.78S391.85,179,391.85,175.19Z" transform="translate(-29.86 -35.55)"/><path class="cls-3" d="M358.64,172.61,357,177.7H354.8l5.5-16.18h2.52l5.52,16.18h-2.23l-1.73-5.09Zm5.3-1.63-1.58-4.66c-.36-1.06-.6-2-.84-3h0c-.24,1-.5,1.94-.82,2.93L359.08,171Z" transform="translate(-29.86 -35.55)"/><path class="cls-3" d="M364.24,80.46c-2.27-.6-4.49-1.27-6.43-1.95a3.21,3.21,0,0,0-1-.25c-4-.15-7.41-3.09-7.41-8.5s3.29-8.85,7.83-8.85,7.53,3.54,7.53,8.5c0,4.31-2,7.08-4.79,8.05v.1c1.67.42,3.49.82,4.91,1.07Zm-1.79-10.95c0-3.37-1.75-6.83-5.31-6.83s-5.46,3.39-5.43,7,1.94,6.78,5.33,6.78S362.44,73.36,362.44,69.52Z" transform="translate(-29.86 -35.55)"/><path class="cls-3" d="M329.24,66.94,327.56,72H325.4l5.5-16.18h2.52L338.93,72H336.7L335,66.94Zm5.3-1.63L333,60.65c-.36-1.06-.6-2-.84-3h0c-.24,1-.5,1.94-.82,2.93l-1.58,4.68Z" transform="translate(-29.86 -35.55)"/></svg>