<svg id="Слой_2" data-name="Слой 2" xmlns="http://www.w3.org/2000/svg" xmlns:xlink="http://www.w3.org/1999/xlink" viewBox="0 0 376.43 321.97"><defs><style>.cls-1{fill:none;}.cls-2{fill:#029d41;}.cls-3{fill:#f6eeca;}.cls-4{clip-path:url(#clip-path);}.cls-5{fill:#4f6ddb;}.cls-6{fill:#ffc61a;}.cls-7{fill:#db9770;}.cls-8{fill:#303134;}.cls-9{fill:#b87f5e;}.cls-10{clip-path:url(#clip-path-2);}.cls-11{fill:#fe3737;}.cls-12{fill:#c92c2c;}.cls-13{fill:#fff;}.cls-14{fill:#28282a;}</style><clipPath id="clip-path" transform="translate(-26.33 -38.42)"><circle class="cls-1" cx="116.56" cy="76.97" r="41.96"/></clipPath><clipPath id="clip-path-2" transform="translate(-26.33 -38.42)"><circle class="cls-1" cx="312.94" cy="76.09" r="41.96"/></clipPath></defs><title>ACM SIGCSE 2019_dark_mode</title><rect class="cls-2" x="48.55" y="234.13" width="20.85" height="61.98"/><path class="cls-3" d="M125.39,215.61a4.09,4.09,0,0,0,2.15.64c1.23,0,1.94-.68,1.94-1.67s-.5-1.44-1.75-1.94c-1.52-.57-2.45-1.39-2.45-2.77a2.72,2.72,0,0,1,3-2.65,4.05,4.05,0,0,1,2.05.48l-.33,1a3.56,3.56,0,0,0-1.76-.46c-1.27,0-1.75.8-1.75,1.46,0,.91.56,1.36,1.85,1.88,1.57.64,2.37,1.43,2.37,2.87s-1.06,2.81-3.25,2.81a4.61,4.61,0,0,1-2.37-.62Z" transform="translate(-26.33 -38.42)"/><path class="cls-3" d="M132.3,212.42c0-.9,0-1.62-.05-2.29h1.09l.06,1.2h0a2.6,2.6,0,0,1,2.37-1.36c1.61,0,2.82,1.44,2.82,3.57,0,2.52-1.46,3.77-3,3.77a2.31,2.31,0,0,1-2.05-1.1h0V220h-1.2Zm1.2,1.87a3,3,0,0,0,.05.52,1.89,1.89,0,0,0,1.82,1.49c1.28,0,2-1.1,2-2.71,0-1.41-.7-2.61-2-2.61a2,2,0,0,0-1.83,1.58,2.19,2.19,0,0,0-.08.52Z" transform="translate(-26.33 -38.42)"/><path class="cls-3" d="M143.84,217.14l-.1-.88h0a2.44,2.44,0,0,1-2,1,2,2,0,0,1-2-2c0-1.7,1.43-2.62,4-2.61v-.14a1.42,1.42,0,0,0-1.52-1.62,3.2,3.2,0,0,0-1.74.52l-.28-.84a4,4,0,0,1,2.19-.62c2,0,2.54,1.46,2.54,2.87v2.62a10.34,10.34,0,0,0,.11,1.68Zm-.18-3.58c-1.32,0-2.83.22-2.83,1.58a1.1,1.1,0,0,0,1.14,1.22,1.67,1.67,0,0,0,1.61-1.17,1.38,1.38,0,0,0,.07-.41Z" transform="translate(-26.33 -38.42)"/><path class="cls-3" d="M151.54,216.88a4.29,4.29,0,0,1-1.92.41,3.26,3.26,0,0,1-3.32-3.58,3.48,3.48,0,0,1,3.58-3.73,3.89,3.89,0,0,1,1.68.36l-.28,1a2.7,2.7,0,0,0-1.41-.33,2.38,2.38,0,0,0-2.36,2.65,2.36,2.36,0,0,0,2.31,2.62,3.31,3.31,0,0,0,1.49-.35Z" transform="translate(-26.33 -38.42)"/><path class="cls-3" d="M154.31,208.16a.75.75,0,1,1-1.5,0,.76.76,0,0,1,.76-.8A.74.74,0,0,1,154.31,208.16Zm-1.35,9v-7h1.21v7Z" transform="translate(-26.33 -38.42)"/><path class="cls-3" d="M156.18,212c0-.72,0-1.32-.05-1.9h1.07l.07,1.16h0a2.44,2.44,0,0,1,2.2-1.32c.92,0,2.36.58,2.36,3v4.19h-1.21v-4c0-1.13-.4-2.07-1.54-2.07a1.74,1.74,0,0,0-1.63,1.3,1.93,1.93,0,0,0-.08.59v4.22h-1.21Z" transform="translate(-26.33 -38.42)"/><path class="cls-3" d="M169.57,210.13c0,.51-.06,1.07-.06,1.93v4.07c0,1.61-.3,2.59-1,3.2a3.42,3.42,0,0,1-2.43.84,4.14,4.14,0,0,1-2.22-.58l.3-1a3.62,3.62,0,0,0,2,.55c1.24,0,2.15-.68,2.15-2.45v-.78h0a2.36,2.36,0,0,1-2.12,1.17c-1.65,0-2.84-1.48-2.84-3.42,0-2.38,1.47-3.73,3-3.73a2.21,2.21,0,0,1,2.08,1.22h0l.05-1.06Zm-1.25,2.77a1.89,1.89,0,0,0-.07-.58,1.76,1.76,0,0,0-1.69-1.35c-1.16,0-2,1-2,2.65,0,1.38.66,2.52,2,2.52a1.79,1.79,0,0,0,1.68-1.3,2.35,2.35,0,0,0,.1-.68Z" transform="translate(-26.33 -38.42)"/><path class="cls-3" d="M39.27,314.06a4.09,4.09,0,0,0,.64-2.15c0-1.23-.68-1.94-1.67-1.94s-1.44.5-1.94,1.75c-.57,1.52-1.39,2.45-2.77,2.45a2.72,2.72,0,0,1-2.65-3,4.05,4.05,0,0,1,.48-2.05l1,.33a3.56,3.56,0,0,0-.46,1.76c0,1.27.8,1.75,1.46,1.75.91,0,1.36-.56,1.88-1.85.64-1.57,1.43-2.37,2.87-2.37S41,309.8,41,312a4.61,4.61,0,0,1-.62,2.37Z" transform="translate(-26.33 -38.42)"/><path class="cls-3" d="M31.78,305.72h2V304h1v1.74h3.78c.87,0,1.36-.23,1.36-.91a2.59,2.59,0,0,0-.09-.7l1-.06a2.84,2.84,0,0,1,.17,1.08,1.64,1.64,0,0,1-.54,1.31,2.69,2.69,0,0,1-1.83.47H34.76v1h-1v-1H32.11Z" transform="translate(-26.33 -38.42)"/><path class="cls-3" d="M38.9,297c.72,0,1.36,0,1.91-.06v1.08l-1.15.07v0a2.49,2.49,0,0,1,1.3,2.2c0,1-.61,2.3-3.07,2.3h-4.1v-1.21h3.88c1.33,0,2.23-.39,2.23-1.49a1.76,1.76,0,0,0-1.16-1.6,2,2,0,0,0-.65-.11h-4.3V297Z" transform="translate(-26.33 -38.42)"/><path class="cls-3" d="M30.52,289.27H39c.62,0,1.33,0,1.81-.05v1.09l-1.22.05v0A2.45,2.45,0,0,1,41,292.66c0,1.61-1.43,2.85-3.57,2.85-2.33,0-3.77-1.36-3.77-3a2.2,2.2,0,0,1,1.07-2v0H30.52Zm6.13,1.21a2.38,2.38,0,0,0-.54.05,1.81,1.81,0,0,0-1.48,1.75c0,1.25,1.16,2,2.71,2s2.59-.66,2.59-2a1.85,1.85,0,0,0-1.52-1.78,2.34,2.34,0,0,0-.55-.05Z" transform="translate(-26.33 -38.42)"/><path class="cls-3" d="M33.79,286.82l4.15-1.46c.46-.15,1-.32,1.43-.43v0c-.42-.12-1-.26-1.46-.43l-4.12-1.32v-1.28l5,1.82c2.41.87,3.64,1.46,4.39,2.29a3.22,3.22,0,0,1,.83,1.49l-1.07.3a3.17,3.17,0,0,0-.62-1.06,3.85,3.85,0,0,0-1.42-1,.94.94,0,0,0-.3-.1,1.16,1.16,0,0,0-.33.08l-6.46,2.47Z" transform="translate(-26.33 -38.42)"/><rect class="cls-2" x="103.75" y="146.12" width="6.43" height="14.77" rx="1.25" ry="1.25"/><rect class="cls-2" x="77.81" y="146.12" width="6.43" height="14.77" rx="1.25" ry="1.25"/><rect class="cls-2" x="130.19" y="146.12" width="6.43" height="14.77" rx="1.25" ry="1.25"/><rect class="cls-2" x="157.86" y="146.12" width="6.43" height="14.77" rx="1.25" ry="1.25"/><path class="cls-3" d="M198.55,203.94h-7.25a.72.72,0,1,1,0-1.45h7.25a.72.72,0,1,1,0,1.45Zm-14.49,0h-7.25a.72.72,0,1,1,0-1.45h7.25a.72.72,0,1,1,0,1.45Zm-14.49,0h-7.24a.72.72,0,1,1,0-1.45h7.24a.72.72,0,1,1,0,1.45Zm-14.49,0h-7.25a.72.72,0,1,1,0-1.45h7.25a.72.72,0,1,1,0,1.45Zm-14.49,0h-7.25a.72.72,0,1,1,0-1.45h7.25a.72.72,0,1,1,0,1.45Zm-14.49,0h-7.25a.72.72,0,1,1,0-1.45h7.25a.72.72,0,1,1,0,1.45Zm-14.49,0h-7.24a.72.72,0,1,1,0-1.45h7.24a.72.72,0,1,1,0,1.45Z" transform="translate(-26.33 -38.42)"/><path class="cls-3" d="M194.79,207a.72.72,0,0,1-.38-1.34l4-2.45-4.08-2.81a.72.72,0,1,1,.82-1.19l5.92,4.08-6,3.61A.72.72,0,0,1,194.79,207Z" transform="translate(-26.33 -38.42)"/><path class="cls-3" d="M333.37,216a3.75,3.75,0,0,0,2,.58c1.12,0,1.78-.62,1.78-1.53s-.45-1.31-1.6-1.78c-1.39-.52-2.25-1.27-2.25-2.54a2.49,2.49,0,0,1,2.75-2.43,3.71,3.71,0,0,1,1.88.44l-.3.94a3.26,3.26,0,0,0-1.62-.42c-1.16,0-1.6.73-1.6,1.34,0,.84.52,1.25,1.69,1.73,1.44.58,2.17,1.31,2.17,2.63s-1,2.58-3,2.58a4.22,4.22,0,0,1-2.17-.57Z" transform="translate(-26.33 -38.42)"/><path class="cls-3" d="M339.71,213.12c0-.82,0-1.49,0-2.1h1l.05,1.1h0a2.38,2.38,0,0,1,2.17-1.25c1.48,0,2.59,1.31,2.59,3.27,0,2.31-1.34,3.45-2.78,3.45a2.11,2.11,0,0,1-1.88-1h0v3.49h-1.1Zm1.1,1.71a2.73,2.73,0,0,0,.05.48,1.73,1.73,0,0,0,1.67,1.37c1.17,0,1.85-1,1.85-2.48,0-1.29-.64-2.39-1.82-2.39a1.79,1.79,0,0,0-1.68,1.45,2,2,0,0,0-.08.48Z" transform="translate(-26.33 -38.42)"/><path class="cls-3" d="M350.27,217.45l-.09-.81h0a2.24,2.24,0,0,1-1.87,1,1.78,1.78,0,0,1-1.87-1.85c0-1.55,1.31-2.4,3.67-2.39v-.13a1.3,1.3,0,0,0-1.39-1.49,2.93,2.93,0,0,0-1.59.48l-.25-.77a3.64,3.64,0,0,1,2-.57c1.87,0,2.32,1.34,2.32,2.63v2.4a9.57,9.57,0,0,0,.1,1.54Zm-.16-3.28c-1.21,0-2.59.2-2.59,1.45a1,1,0,0,0,1,1.12,1.53,1.53,0,0,0,1.48-1.08,1.26,1.26,0,0,0,.06-.37Z" transform="translate(-26.33 -38.42)"/><path class="cls-3" d="M357.33,217.21a3.92,3.92,0,0,1-1.75.37,3,3,0,0,1-3-3.28,3.19,3.19,0,0,1,3.28-3.41,3.54,3.54,0,0,1,1.54.33l-.25.9a2.48,2.48,0,0,0-1.29-.31,2.18,2.18,0,0,0-2.16,2.43,2.16,2.16,0,0,0,2.12,2.4,3,3,0,0,0,1.36-.32Z" transform="translate(-26.33 -38.42)"/><path class="cls-3" d="M359.87,209.22a.69.69,0,1,1-1.38,0,.69.69,0,0,1,.69-.73A.68.68,0,0,1,359.87,209.22Zm-1.24,8.23V211h1.11v6.42Z" transform="translate(-26.33 -38.42)"/><path class="cls-3" d="M361.59,212.76c0-.66,0-1.21,0-1.74h1l.06,1.06h0a2.23,2.23,0,0,1,2-1.21c.85,0,2.16.53,2.16,2.73v3.84h-1.11v-3.7c0-1-.37-1.9-1.41-1.9a1.59,1.59,0,0,0-1.49,1.2,1.75,1.75,0,0,0-.08.54v3.86h-1.11Z" transform="translate(-26.33 -38.42)"/><path class="cls-3" d="M373.86,211c0,.46-.05,1-.05,1.77v3.73a3.82,3.82,0,0,1-.87,2.93,3.13,3.13,0,0,1-2.22.77,3.78,3.78,0,0,1-2-.53l.28-.89a3.33,3.33,0,0,0,1.79.5c1.14,0,2-.62,2-2.24v-.72h0a2.16,2.16,0,0,1-1.94,1.08c-1.51,0-2.6-1.35-2.6-3.13,0-2.18,1.35-3.41,2.75-3.41a2,2,0,0,1,1.91,1.12h0l.05-1Zm-1.15,2.54a1.74,1.74,0,0,0-.06-.53,1.62,1.62,0,0,0-1.55-1.23c-1.06,0-1.82.94-1.82,2.43,0,1.26.61,2.31,1.8,2.31a1.63,1.63,0,0,0,1.54-1.19,2.12,2.12,0,0,0,.09-.62Z" transform="translate(-26.33 -38.42)"/><rect class="cls-2" x="287.57" y="149.15" width="5.89" height="13.53" rx="1.14" ry="1.14"/><rect class="cls-2" x="348.7" y="149.15" width="5.89" height="13.53" rx="1.14" ry="1.14"/><rect class="cls-2" x="336.47" y="149.15" width="5.89" height="13.53" rx="1.14" ry="1.14"/><rect class="cls-2" x="360.92" y="149.15" width="5.89" height="13.53" rx="1.14" ry="1.14"/><path class="cls-3" d="M400.41,205.35h-6.64a.66.66,0,0,1,0-1.33h6.64a.66.66,0,1,1,0,1.33Zm-13.28,0H380.5a.66.66,0,0,1,0-1.33h6.64a.66.66,0,0,1,0,1.33Zm-13.28,0h-6.64a.66.66,0,1,1,0-1.33h6.64a.66.66,0,0,1,0,1.33Zm-13.28,0h-6.64a.66.66,0,0,1,0-1.33h6.64a.66.66,0,0,1,0,1.33Zm-13.28,0h-6.64a.66.66,0,1,1,0-1.33h6.64a.66.66,0,0,1,0,1.33Zm-13.28,0h-6.64a.66.66,0,0,1,0-1.33H334a.66.66,0,1,1,0,1.33Zm-13.28,0h-6.64a.66.66,0,0,1,0-1.33h6.64a.66.66,0,0,1,0,1.33Z" transform="translate(-26.33 -38.42)"/><path class="cls-3" d="M397,208.13a.66.66,0,0,1-.34-1.23l3.7-2.24-3.74-2.58a.66.66,0,0,1,.75-1.09l5.42,3.74L397.31,208A.66.66,0,0,1,397,208.13Z" transform="translate(-26.33 -38.42)"/><g class="cls-4"><path class="cls-5" d="M147.67,99.83c-4-4.17-22.68-9-22.68-9l-18.43,1.1s-2.85,5.88-18.36,12.76c-5.52,2.45-10.21,8.9-13.27,16.87S66.5,144,66.17,144.31c4.58,2.07,17.17,9.21,17.17,9.21l.93,14.58h60.58s-3.1-14.27,9.93-15c.18-1.64.25-7.21.29-8.67C155.26,135.44,151.65,104,147.67,99.83Z" transform="translate(-26.33 -38.42)"/><path class="cls-6" d="M107.14,91.62c.23-4.64,22.31-8.09,26-9.52,9.68-3.68,3-10,4.77-12.14,2.9-3.45,4.44-15.32-7.17-22.66s-19.94-6-26-2.36a25.44,25.44,0,0,0-12.5,18.58c-.71,4.66-5.5,23.47-2,28.65C94.15,98.28,103.49,90,107.14,91.62Z" transform="translate(-26.33 -38.42)"/><path class="cls-7" d="M105.32,79.3s.35,2.9,3.07,7.7,8.62,8.34,12.78,8.34c3.18,0,3.77-.74,6-3.32.71-.81,1.57-1.81,2.71-3a12.86,12.86,0,0,0,3.35-10.63c-.07-.93-.17-1.7-.17-2.23,0-2.09,1.36-4.63,1.28-10.6s-3.9-7.25-3.9-7.25c-2,10.24-14.14,17-18.32,17.49s-4.89-.55-5.16-3.9-6.8-5.35-7.43.83S105.32,79.3,105.32,79.3Z" transform="translate(-26.33 -38.42)"/><path class="cls-7" d="M105.33,79.34a1.94,1.94,0,0,0,0,.27C105.35,79.47,105.34,79.39,105.33,79.34Z" transform="translate(-26.33 -38.42)"/><path class="cls-7" d="M122.63,104a9.2,9.2,0,0,1-2.17,1.48,8.29,8.29,0,0,1-2.31.75,38.9,38.9,0,0,1-5.05.55c-4.68.17-6-.85-7.63.72-.25-.73-.47-1.43-.64-2.06l0-.07,0-.12a.27.27,0,0,0,0-.07c0-.11,0-.21-.07-.32l-.12-.55c-.32-2,1.67-5.9,2-12.38.2-4-.84-10.36-1.15-12.15a26.38,26.38,0,0,0,3,7.22c2.73,4.8,8.61,8.35,12.78,8.35,3.18,0,3.77-.75,6-3.32A15.24,15.24,0,0,1,122.63,104Z" transform="translate(-26.33 -38.42)"/><ellipse class="cls-8" cx="103.14" cy="39.73" rx="1.31" ry="2.47"/><ellipse class="cls-8" cx="91.4" cy="40" rx="1.31" ry="2.47"/><path class="cls-8" d="M128.16,73.57a.57.57,0,0,1-.48-.89,3.51,3.51,0,0,1,2.3-1.62,5.23,5.23,0,0,1,3.54.88.57.57,0,0,1-.66.94,4.07,4.07,0,0,0-2.67-.69,2.37,2.37,0,0,0-1.55,1.12A.57.57,0,0,1,128.16,73.57Z" transform="translate(-26.33 -38.42)"/><path class="cls-8" d="M123.79,83.93l-.42,0a.57.57,0,0,1,.14-1.14c.75.09,1-.18,1-.27.68-.9-.16-3.67-.67-4.87a.57.57,0,1,1,1.06-.45c.19.44,1.79,4.34.53,6A2,2,0,0,1,123.79,83.93Z" transform="translate(-26.33 -38.42)"/><path class="cls-8" d="M123.29,90.38a5.35,5.35,0,0,1-4.1-1.46.57.57,0,0,1,.88-.74c1.3,1.54,4.64.95,4.67.94a.58.58,0,0,1,.67.46.57.57,0,0,1-.46.67A10,10,0,0,1,123.29,90.38Z" transform="translate(-26.33 -38.42)"/><path class="cls-9" d="M127.16,92a5.67,5.67,0,0,1-5.2,3.3c-4.07.22-7.91-1.91-11.57-5.58,1.66,3.87,4.94,7.47,10.92,7.12,4.73-.28,5.9-2.8,5.9-2.8Z" transform="translate(-26.33 -38.42)"/></g><g class="cls-10"><path class="cls-7" d="M331.46,87.16c-3.34-1.45-5.88-6.19-7.64-9.91-5.24,4.36-10.24,8.89-15.81,12.61,1.22,2.27,2.94,6.24.87,10.41,2.14,1.74,4.38,2.83,6.95,6.4s14,4.5,15.74.46l3.81-15.88A23.32,23.32,0,0,1,331.46,87.16Z" transform="translate(-26.33 -38.42)"/><path class="cls-11" d="M294.1,163.54c1.22,9.79-3.92,11.67,2.11,12.88,10.48,2.1,16.84,4.44,31.25,7,23.39,4.18,45.27-31.77,45.27-31.77s1.61-10.55,2.19-21.05c.57-10.27-2-23-10.41-27.9-8.75-5.11-21.47-9.68-33.06-15.56l-8.55,13.2c-2.5,3.9-7.8,3.4-10.3-.47-2.72-4.21-2.68-6.22-3.59-7.84-11.75,17.72-22.5,19.12-24.69,26.62C282.77,124.12,292.87,153.76,294.1,163.54Z" transform="translate(-26.33 -38.42)"/><path class="cls-12" d="M319.12,112.64h0c-3.76,0-5.49-.84-11.52-10.52l1.51-.94c6,9.67,7.36,9.68,10,9.69h0c6.92,0,15.31-14.82,18-20.54l1.61.75C338.29,92,328.6,112.64,319.12,112.64Z" transform="translate(-26.33 -38.42)"/><path class="cls-5" d="M333.58,74.55c-2.1-1.07-5.92.29-7.12,2.69-1.7,3.39-5.09-3.49-6.48-7.27s-5.57.49-9.54-4.08-6.46-12.23-16.5-8.05a12,12,0,0,0-1.68,5.86c-2.06-3.65-7-14.66-.07-18.29,8.41-4.38,17-9.65,28.29-5.47s13.09,6.7,14.88,13C336.63,57.34,337,67,333.58,74.55Z" transform="translate(-26.33 -38.42)"/><path class="cls-7" d="M325.05,81c-4.08,9.45-10.84,13.33-18,15.11s-9.94.3-13.13-9.44-.1-9.45-1.4-17.3a23.18,23.18,0,0,1-.28-5.67,12,12,0,0,1,1.68-5.86c10-4.18,12.53,3.48,16.5,8.05s8.15.3,9.54,4.08,3.48,4.78,5.18,1.39c1.2-2.41,4.72-3.8,6.82-2.72a3.13,3.13,0,0,1,1.63,2.63C334.1,75.94,332.71,81,325.05,81Z" transform="translate(-26.33 -38.42)"/><path class="cls-8" d="M298.4,71.24a.37.37,0,0,1-.32-.19A3.35,3.35,0,0,0,296,69.27a4,4,0,0,0-2.78.52.37.37,0,0,1-.4-.62,4.7,4.7,0,0,1,3.36-.62,4.06,4.06,0,0,1,2.54,2.14.37.37,0,0,1-.32.55Z" transform="translate(-26.33 -38.42)"/><path class="cls-8" d="M312.52,74.92a.37.37,0,0,1-.28-.13c-3.49-4.13-6.52-1.75-6.64-1.64a.37.37,0,0,1-.47-.57s3.71-3,7.68,1.74a.37.37,0,0,1-.28.61Z" transform="translate(-26.33 -38.42)"/><ellipse class="cls-8" cx="270.03" cy="37.23" rx="1.24" ry="2.38"/><ellipse class="cls-8" cx="281.66" cy="39.64" rx="1.24" ry="2.38"/><path class="cls-8" d="M300.79,84.24a2.21,2.21,0,0,1-1.67-.9c-1.94-2.26,1-7.23,1.11-7.44a.37.37,0,1,1,.63.38c-.78,1.31-2.51,5-1.18,6.58a1.42,1.42,0,0,0,1.2.63c.76-.06,1.47-1,1.68-1.33a.37.37,0,0,1,.63.38c0,.06-1,1.58-2.25,1.69Z" transform="translate(-26.33 -38.42)"/><path class="cls-8" d="M302.36,91a8.2,8.2,0,0,1-4.48-1.53.37.37,0,0,1,.45-.58c.17.13,4,3.05,7.49,0a.37.37,0,1,1,.49.55A5.83,5.83,0,0,1,302.36,91Z" transform="translate(-26.33 -38.42)"/><path class="cls-9" d="M310.2,95.18s7.73-2.31,11.07-7.75c-1.95,6.07-9.59,10.92-9.64,10.83S310.2,95.18,310.2,95.18Z" transform="translate(-26.33 -38.42)"/></g><path class="cls-3" d="M219.48,244.16a1,1,0,0,1-1-1V58.37a1,1,0,0,1,2,0V243.16A1,1,0,0,1,219.48,244.16Z" transform="translate(-26.33 -38.42)"/><path class="cls-3" d="M122.52,335.53H48V258.84a1,1,0,0,1,2,0v74.69h72.56a1,1,0,1,1,0,2Z" transform="translate(-26.33 -38.42)"/><path class="cls-3" d="M80.11,344.94h5V346h-3.8v3.25h3.51v1H81.31v4.42h-1.2Z" transform="translate(-26.33 -38.42)"/><path class="cls-3" d="M87,351.44a2.19,2.19,0,0,0,2.29,2.44,4.19,4.19,0,0,0,1.85-.36l.21.91a5.17,5.17,0,0,1-2.22.43c-2.05,0-3.28-1.42-3.28-3.54s1.19-3.78,3.13-3.78c2.18,0,2.76,2,2.76,3.31a5.08,5.08,0,0,1,0,.59Zm3.56-.91c0-.81-.32-2.07-1.68-2.07s-1.76,1.19-1.86,2.07Z" transform="translate(-26.33 -38.42)"/><path class="cls-3" d="M93.26,349.6c0-.72,0-1.32-.05-1.9h1.06l.05,1.13h0a2.29,2.29,0,0,1,2.09-1.29,2,2,0,0,1,1.89,1.41h0a2.85,2.85,0,0,1,.74-.91,2.2,2.2,0,0,1,1.47-.49c.88,0,2.19.61,2.19,3v4.13h-1.19v-4c0-1.35-.47-2.16-1.45-2.16a1.59,1.59,0,0,0-1.43,1.16,2.21,2.21,0,0,0-.1.64v4.33H97.43v-4.2c0-1.12-.47-1.93-1.39-1.93a1.68,1.68,0,0,0-1.5,1.28,1.86,1.86,0,0,0-.1.62v4.23H93.26Z" transform="translate(-26.33 -38.42)"/><path class="cls-3" d="M108.44,354.72l-.1-.88h0a2.44,2.44,0,0,1-2,1,2,2,0,0,1-2-2c0-1.7,1.43-2.62,4-2.61v-.14a1.42,1.42,0,0,0-1.52-1.62A3.2,3.2,0,0,0,105,349l-.28-.84a4,4,0,0,1,2.19-.62c2,0,2.54,1.46,2.54,2.87V353a10.34,10.34,0,0,0,.11,1.68Zm-.18-3.58c-1.32,0-2.83.22-2.83,1.58a1.1,1.1,0,0,0,1.14,1.22,1.67,1.67,0,0,0,1.61-1.17,1.38,1.38,0,0,0,.07-.41Z" transform="translate(-26.33 -38.42)"/><path class="cls-3" d="M111.39,344.42h1.21v10.29h-1.21Z" transform="translate(-26.33 -38.42)"/><path class="cls-3" d="M115.31,351.44a2.19,2.19,0,0,0,2.29,2.44,4.19,4.19,0,0,0,1.85-.36l.21.91a5.17,5.17,0,0,1-2.22.43c-2.05,0-3.28-1.42-3.28-3.54s1.19-3.78,3.13-3.78c2.18,0,2.76,2,2.76,3.31a5.08,5.08,0,0,1,0,.59Zm3.56-.91c0-.81-.32-2.07-1.68-2.07s-1.76,1.19-1.86,2.07Z" transform="translate(-26.33 -38.42)"/><rect class="cls-2" x="255.47" y="259.67" width="20.85" height="36.44"/><path class="cls-3" d="M247.7,314.06a4.09,4.09,0,0,0,.64-2.15c0-1.23-.68-1.94-1.67-1.94s-1.44.5-1.94,1.75c-.57,1.52-1.39,2.45-2.77,2.45a2.72,2.72,0,0,1-2.65-3,4.05,4.05,0,0,1,.48-2.05l1,.33a3.56,3.56,0,0,0-.46,1.76c0,1.27.8,1.75,1.46,1.75.91,0,1.36-.56,1.88-1.85.64-1.57,1.43-2.37,2.87-2.37s2.81,1.06,2.81,3.25a4.61,4.61,0,0,1-.62,2.37Z" transform="translate(-26.33 -38.42)"/><path class="cls-3" d="M240.2,305.72h2V304h1v1.74H247c.87,0,1.36-.23,1.36-.91a2.59,2.59,0,0,0-.09-.7l1-.06a2.84,2.84,0,0,1,.17,1.08,1.64,1.64,0,0,1-.54,1.31,2.69,2.69,0,0,1-1.83.47h-3.83v1h-1v-1h-1.68Z" transform="translate(-26.33 -38.42)"/><path class="cls-3" d="M247.32,297c.72,0,1.36,0,1.91-.06v1.08l-1.15.07v0a2.49,2.49,0,0,1,1.3,2.2c0,1-.61,2.3-3.07,2.3h-4.1v-1.21h3.88c1.33,0,2.23-.39,2.23-1.49a1.76,1.76,0,0,0-1.16-1.6,2,2,0,0,0-.65-.11h-4.3V297Z" transform="translate(-26.33 -38.42)"/><path class="cls-3" d="M238.94,289.27h8.48c.62,0,1.33,0,1.81-.05v1.09l-1.22.05v0a2.45,2.45,0,0,1,1.38,2.27c0,1.61-1.43,2.85-3.57,2.85-2.33,0-3.77-1.36-3.77-3a2.2,2.2,0,0,1,1.07-2v0h-4.19Zm6.13,1.21a2.38,2.38,0,0,0-.54.05,1.81,1.81,0,0,0-1.48,1.75c0,1.25,1.16,2,2.71,2s2.59-.66,2.59-2a1.85,1.85,0,0,0-1.52-1.78,2.34,2.34,0,0,0-.55-.05Z" transform="translate(-26.33 -38.42)"/><path class="cls-3" d="M242.22,286.82l4.15-1.46c.46-.15,1-.32,1.43-.43v0c-.42-.12-1-.26-1.46-.43l-4.12-1.32v-1.28l5,1.82c2.41.87,3.64,1.46,4.39,2.29a3.22,3.22,0,0,1,.83,1.49l-1.07.3a3.17,3.17,0,0,0-.62-1.06,3.85,3.85,0,0,0-1.42-1,.94.94,0,0,0-.3-.1,1.16,1.16,0,0,0-.33.08l-6.46,2.47Z" transform="translate(-26.33 -38.42)"/><path class="cls-3" d="M326.14,335.53H256.38V258.84a1,1,0,0,1,2,0v74.69h67.76a1,1,0,0,1,0,2Z" transform="translate(-26.33 -38.42)"/><path class="cls-3" d="M311.52,355.94c-.07-1.36-.15-3-.14-4.22h0c-.32,1.14-.7,2.36-1.17,3.71l-1.64,4.74h-.91l-1.5-4.65c-.44-1.38-.81-2.64-1.08-3.8h0c0,1.22-.1,2.86-.18,4.32l-.25,4.19h-1.14l.65-9.77h1.53l1.58,4.73c.39,1.2.7,2.28.94,3.29h0c.23-1,.56-2.06,1-3.29l1.65-4.73h1.53l.58,9.77h-1.17Z" transform="translate(-26.33 -38.42)"/><path class="cls-3" d="M318.51,360.23l-.1-.88h0a2.44,2.44,0,0,1-2,1,2,2,0,0,1-2-2c0-1.7,1.43-2.62,4-2.61v-.14a1.42,1.42,0,0,0-1.52-1.62,3.2,3.2,0,0,0-1.74.52l-.28-.84a4,4,0,0,1,2.19-.62c2,0,2.54,1.46,2.54,2.87v2.62a10.34,10.34,0,0,0,.11,1.68Zm-.18-3.58c-1.32,0-2.83.22-2.83,1.58a1.1,1.1,0,0,0,1.14,1.22,1.67,1.67,0,0,0,1.61-1.17,1.37,1.37,0,0,0,.07-.41Z" transform="translate(-26.33 -38.42)"/><path class="cls-3" d="M321.45,349.94h1.21v10.29h-1.21Z" transform="translate(-26.33 -38.42)"/><path class="cls-3" d="M325.38,357a2.19,2.19,0,0,0,2.29,2.44,4.19,4.19,0,0,0,1.85-.36l.21.91a5.17,5.17,0,0,1-2.22.43c-2.05,0-3.28-1.42-3.28-3.54s1.19-3.78,3.13-3.78c2.18,0,2.76,2,2.76,3.31a5.08,5.08,0,0,1,0,.59Zm3.56-.91c0-.81-.32-2.07-1.68-2.07s-1.76,1.19-1.86,2.07Z" transform="translate(-26.33 -38.42)"/><circle class="cls-6" cx="245.49" cy="164.64" r="25.64"/><path class="cls-13" d="M292.83,203.05a21,21,0,1,1-22-21c.34,0,.68,0,1,0a21,21,0,0,1,21,21Z" transform="translate(-26.33 -38.42)"/><path class="cls-2" d="M290.39,193.21h0L271.08,204.4l-.28-22.33c.34,0,.68,0,1,0A21,21,0,0,1,290.39,193.21Z" transform="translate(-26.33 -38.42)"/><path class="cls-14" d="M271.07,184.57a71,71,0,0,1,1.11,9.24c.19,3.08.25,6.16.2,9.24l-.8-1.21q3.49,1.55,6.89,3.33,1.7.88,3.37,1.85c1.11.64,2.21,1.31,3.29,2-1.27-.27-2.51-.61-3.74-1s-2.45-.74-3.66-1.16q-3.63-1.22-7.17-2.68l-.78-.32v-.89c0-3.08,0-6.16.2-9.24A71,71,0,0,1,271.07,184.57Z" transform="translate(-26.33 -38.42)"/><circle class="cls-6" cx="37.13" cy="164.79" r="25.49"/><path class="cls-13" d="M84.35,203.2a20.9,20.9,0,0,1-17.43,20.61,21.28,21.28,0,0,1-3.46.28,20.89,20.89,0,0,1-1-41.75c.34,0,.68,0,1,0A20.87,20.87,0,0,1,84.35,203.2Z" transform="translate(-26.33 -38.42)"/><path class="cls-2" d="M81.92,193.42h0l-19.2,11.11-.28-22.2c.34,0,.68,0,1,0A20.89,20.89,0,0,1,81.92,193.42Z" transform="translate(-26.33 -38.42)"/><path class="cls-2" d="M84.35,203.2a20.9,20.9,0,0,1-17.43,20.61l-4.2-19.26,19.2-11.13A20.84,20.84,0,0,1,84.35,203.2Z" transform="translate(-26.33 -38.42)"/><path class="cls-14" d="M62.72,184.83A70.63,70.63,0,0,1,63.83,194c.19,3.06.25,6.13.2,9.19l-.79-1.2q3.47,1.54,6.85,3.31,1.69.88,3.35,1.83c1.1.64,2.2,1.3,3.27,2-1.26-.27-2.5-.6-3.72-1s-2.44-.74-3.64-1.15q-3.61-1.21-7.12-2.66l-.78-.32v-.88c0-3.06,0-6.13.2-9.19A70.63,70.63,0,0,1,62.72,184.83Z" transform="translate(-26.33 -38.42)"/><path class="cls-11" d="M146.36,305.57a8,8,0,0,0,1.62-.07,5.48,5.48,0,0,0,3.1-1.51,7,7,0,0,0,2-4.15H153a4.27,4.27,0,0,1-3.49,1.68c-2.67,0-4.38-2.11-4.38-4.78,0-3,2-5.54,5.07-5.54s4.91,2.59,4.91,6.58a10.14,10.14,0,0,1-2.56,7.32,7.27,7.27,0,0,1-4.31,2.09,8.93,8.93,0,0,1-1.85.12Zm.73-9c0,1.94,1.12,3.31,2.85,3.31a3.29,3.29,0,0,0,2.92-1.63,1.45,1.45,0,0,0,.18-.77c0-2.66-.94-4.7-3-4.7C148.3,292.8,147.09,294.39,147.09,296.59Z" transform="translate(-26.33 -38.42)"/><path class="cls-11" d="M146.71,307.81h-.37l-.48,0V305l.55.06a7.35,7.35,0,0,0,1.51-.07,5,5,0,0,0,2.8-1.37,5.79,5.79,0,0,0,1.48-2.4,4.86,4.86,0,0,1-2.72.78c-2.83,0-4.88-2.22-4.88-5.28a5.76,5.76,0,0,1,5.57-6c3.29,0,5.41,2.78,5.41,7.08,0,4.07-1.47,6.42-2.7,7.67a7.71,7.71,0,0,1-4.61,2.23A9.63,9.63,0,0,1,146.71,307.81Zm.15-1.72v.72a9,9,0,0,0,1.27-.12,6.82,6.82,0,0,0,4-1.94c1.1-1.12,2.42-3.24,2.42-7s-1.69-6.08-4.41-6.08-4.57,2.17-4.57,5c0,2.52,1.6,4.28,3.88,4.28a3.79,3.79,0,0,0,3.1-1.49l.15-.19h.82l0,.57a7.45,7.45,0,0,1-2.11,4.44,5.94,5.94,0,0,1-3.38,1.65C147.58,306,147.2,306.08,146.86,306.09Zm3.08-5.68c-2,0-3.35-1.57-3.35-3.81,0-2.49,1.44-4.29,3.42-4.29,2.21,0,3.54,1.95,3.54,5.2a2,2,0,0,1-.25,1A3.77,3.77,0,0,1,149.94,300.41Zm.07-7.1c-1.43,0-2.42,1.35-2.42,3.29,0,1.71.92,2.81,2.35,2.81a2.78,2.78,0,0,0,2.49-1.38.93.93,0,0,0,.12-.52C152.55,296.24,152.3,293.3,150,293.3Z" transform="translate(-26.33 -38.42)"/><path class="cls-11" d="M161.26,293.43h0l-2.58,1.46-.39-1.61,3.24-1.82h1.71v15.6h-1.94Z" transform="translate(-26.33 -38.42)"/><path class="cls-11" d="M163.7,307.56h-2.94v-13.3l-2.46,1.39-.63-2.62,3.68-2.07h2.34Zm-1.94-1h.94V292h-1.08l-2.8,1.57.14.6,2.12-1.2h.63l0,.5Z" transform="translate(-26.33 -38.42)"/><path class="cls-11" d="M175.3,295.85c0,3.29-1.64,4.92-3.56,4.92s-3.45-1.56-3.47-4.71,1.62-4.87,3.58-4.87S175.3,292.87,175.3,295.85Zm-5.43.14c0,2,.66,3.5,1.92,3.5s1.92-1.49,1.92-3.55c0-1.9-.53-3.48-1.92-3.48S169.86,294,169.86,296Zm1.74,11.33,8.72-16.13h1.28l-8.72,16.13Zm13.35-5c0,3.29-1.64,4.92-3.54,4.92s-3.45-1.56-3.47-4.68,1.62-4.9,3.58-4.9S185,299.33,185,302.31Zm-5.43.14c0,2,.71,3.5,1.94,3.5s1.92-1.49,1.92-3.55c0-1.9-.52-3.48-1.92-3.48S179.52,300.48,179.52,302.45Z" transform="translate(-26.33 -38.42)"/><path class="cls-11" d="M173.18,307.82h-2.42L180,290.69h2.42Zm-.74-1h.14l8.18-15.13h-.14Zm9,.9c-2,0-3.94-1.6-4-5.18,0-3.18,1.68-5.4,4.08-5.4s3.92,2,3.92,5.16C185.45,306.05,183.42,307.73,181.42,307.73Zm.11-9.58c-1.84,0-3.08,1.77-3.08,4.4s1.18,4.18,3,4.18,3-1.74,3-4.42S183.36,298.15,181.53,298.15Zm-.07,8.3a1.94,1.94,0,0,1-1.4-.6,4.82,4.82,0,0,1-1-3.4c0-2.45,1-4,2.44-4s2.42,1.45,2.42,4S183,306.45,181.46,306.45Zm0-7c-1,0-1.44,1.57-1.44,3h0a3.94,3.94,0,0,0,.75,2.69.94.94,0,0,0,.69.31c1.28,0,1.42-2.13,1.42-3.05S182.74,299.42,181.46,299.42Zm-9.72,1.85c-2,0-3.94-1.61-4-5.2,0-3.17,1.68-5.38,4.08-5.38s3.95,2,3.95,5.16C175.8,299.59,173.76,301.27,171.74,301.27Zm.11-9.58c-1.84,0-3.08,1.76-3.08,4.37s1.18,4.21,3,4.21,3.06-1.74,3.06-4.42S173.7,291.69,171.85,291.69Zm-.07,8.3a2,2,0,0,1-1.42-.61,4.71,4.71,0,0,1-1-3.4c0-2.44,1-4,2.42-4s2.42,1.45,2.42,4S173.32,300,171.78,300Zm0-7c-1,0-1.42,1.52-1.42,3h0a3.89,3.89,0,0,0,.71,2.68,1,1,0,0,0,.7.31c1.28,0,1.42-2.13,1.42-3.05S173.06,293,171.78,293Z" transform="translate(-26.33 -38.42)"/><path class="cls-11" d="M185.08,283.9c-10.11-5.87-20.34-10.74-32-6.7-8.47,3-14.71,9.68-15.32,18.86-.76,11.4,4.84,22.15,16.23,25.12,10.34,2.7,24.42.12,31.77-8.14,9.85-11.06,4.14-29.35-.13-41.52-.64-1.81-3.53-1-2.89.8,4,11.52,10.46,30.81-.84,40.3-9,7.6-27.4,10-36.1.63-8.34-9-6.55-25.4,4.2-31.43,11.68-6.54,22.8-1.58,33.52,4.65a1.5,1.5,0,0,0,1.51-2.59Z" transform="translate(-26.33 -38.42)"/><path class="cls-11" d="M352.72,305.57a8,8,0,0,0,1.62-.07,5.48,5.48,0,0,0,3.1-1.51,7,7,0,0,0,2-4.15h-.07a4.27,4.27,0,0,1-3.49,1.68c-2.67,0-4.38-2.11-4.38-4.78,0-3,2-5.54,5.07-5.54s4.91,2.59,4.91,6.58a10.14,10.14,0,0,1-2.56,7.32,7.27,7.27,0,0,1-4.31,2.09,8.93,8.93,0,0,1-1.85.12Zm.73-9c0,1.94,1.12,3.31,2.85,3.31a3.29,3.29,0,0,0,2.92-1.63,1.45,1.45,0,0,0,.18-.77c0-2.66-.94-4.7-3-4.7C354.66,292.8,353.45,294.39,353.45,296.59Z" transform="translate(-26.33 -38.42)"/><path class="cls-11" d="M353.07,307.81h-.37l-.48,0V305l.55.06a7.35,7.35,0,0,0,1.51-.07,5,5,0,0,0,2.8-1.37,5.79,5.79,0,0,0,1.48-2.4,4.86,4.86,0,0,1-2.72.78c-2.83,0-4.88-2.22-4.88-5.28a5.76,5.76,0,0,1,5.57-6c3.29,0,5.41,2.78,5.41,7.08,0,4.07-1.47,6.42-2.7,7.67a7.71,7.71,0,0,1-4.61,2.23A9.63,9.63,0,0,1,353.07,307.81Zm.15-1.72v.72a9,9,0,0,0,1.27-.12,6.82,6.82,0,0,0,4-1.94c1.1-1.12,2.42-3.24,2.42-7s-1.69-6.08-4.41-6.08-4.57,2.17-4.57,5c0,2.52,1.6,4.28,3.88,4.28a3.79,3.79,0,0,0,3.1-1.49l.15-.19h.82l0,.57a7.45,7.45,0,0,1-2.11,4.44,5.94,5.94,0,0,1-3.38,1.65C353.94,306,353.56,306.08,353.22,306.09Zm3.08-5.68c-2,0-3.35-1.57-3.35-3.81,0-2.49,1.44-4.29,3.42-4.29,2.21,0,3.54,1.95,3.54,5.2a2,2,0,0,1-.25,1A3.77,3.77,0,0,1,356.3,300.41Zm.07-7.1c-1.43,0-2.42,1.35-2.42,3.29,0,1.71.92,2.81,2.35,2.81a2.78,2.78,0,0,0,2.49-1.38.93.93,0,0,0,.12-.52C358.91,296.24,358.66,293.3,356.37,293.3Z" transform="translate(-26.33 -38.42)"/><path class="cls-11" d="M367.62,293.43h0L365,294.89l-.39-1.61,3.24-1.82h1.71v15.6h-1.94Z" transform="translate(-26.33 -38.42)"/><path class="cls-11" d="M370.06,307.56h-2.94v-13.3l-2.46,1.39L364,293l3.68-2.07h2.34Zm-1.94-1h.94V292H368l-2.8,1.57.14.6,2.12-1.2h.63l0,.5Z" transform="translate(-26.33 -38.42)"/><path class="cls-11" d="M381.66,295.85c0,3.29-1.64,4.92-3.56,4.92s-3.45-1.56-3.47-4.71,1.62-4.87,3.58-4.87S381.66,292.87,381.66,295.85Zm-5.43.14c0,2,.66,3.5,1.92,3.5s1.92-1.49,1.92-3.55c0-1.9-.53-3.48-1.92-3.48S376.22,294,376.22,296ZM378,307.32l8.72-16.13H388l-8.72,16.13Zm13.35-5c0,3.29-1.64,4.92-3.54,4.92s-3.45-1.56-3.47-4.68,1.62-4.9,3.58-4.9S391.31,299.33,391.31,302.31Zm-5.43.14c0,2,.71,3.5,1.94,3.5s1.92-1.49,1.92-3.55c0-1.9-.52-3.48-1.92-3.48S385.88,300.48,385.88,302.45Z" transform="translate(-26.33 -38.42)"/><path class="cls-11" d="M379.54,307.82h-2.42l9.26-17.13h2.42Zm-.74-1h.14l8.18-15.13H387Zm9,.9c-2,0-3.94-1.6-4-5.18,0-3.18,1.68-5.4,4.08-5.4s3.92,2,3.92,5.16C391.81,306.05,389.78,307.73,387.77,307.73Zm.11-9.58c-1.84,0-3.08,1.77-3.08,4.4s1.18,4.18,3,4.18,3-1.74,3-4.42S389.72,298.15,387.89,298.15Zm-.07,8.3a1.94,1.94,0,0,1-1.4-.6,4.82,4.82,0,0,1-1-3.4c0-2.45,1-4,2.44-4s2.42,1.45,2.42,4S389.36,306.45,387.82,306.45Zm0-7c-1,0-1.44,1.57-1.44,3h0a3.94,3.94,0,0,0,.75,2.69.94.94,0,0,0,.69.31c1.28,0,1.42-2.13,1.42-3.05S389.1,299.42,387.82,299.42Zm-9.72,1.85c-2,0-3.94-1.61-4-5.2,0-3.17,1.68-5.38,4.08-5.38s3.95,2,3.95,5.16C382.16,299.59,380.12,301.27,378.1,301.27Zm.11-9.58c-1.84,0-3.08,1.76-3.08,4.37s1.18,4.21,3,4.21,3.06-1.74,3.06-4.42S380.06,291.69,378.21,291.69Zm-.07,8.3a2,2,0,0,1-1.42-.61,4.71,4.71,0,0,1-1-3.4c0-2.44,1-4,2.42-4s2.42,1.45,2.42,4S379.68,300,378.14,300Zm0-7c-1,0-1.42,1.52-1.42,3h0a3.89,3.89,0,0,0,.71,2.68,1,1,0,0,0,.7.31c1.28,0,1.42-2.13,1.42-3.05S379.42,293,378.14,293Z" transform="translate(-26.33 -38.42)"/><path class="cls-11" d="M391.44,283.9c-10.11-5.87-20.34-10.74-32-6.7-8.47,3-14.71,9.68-15.32,18.86-.76,11.4,4.84,22.15,16.23,25.12,10.34,2.7,24.42.12,31.77-8.14C402,302,396.3,283.7,392,271.53c-.64-1.81-3.53-1-2.89.8,4,11.52,10.46,30.81-.84,40.3-9,7.6-27.4,10-36.1.63-8.34-9-6.55-25.4,4.2-31.43,11.68-6.54,22.8-1.58,33.52,4.65a1.5,1.5,0,0,0,1.51-2.59Z" transform="translate(-26.33 -38.42)"/><rect class="cls-11" y="101.6" width="46.4" height="18" rx="1.62" ry="1.62"/><rect class="cls-13" x="1.91" y="103.44" width="14.42" height="14.42" rx="1.58" ry="1.58"/><polygon class="cls-11" points="11.33 119.6 0 128.77 0.07 118.44 11.33 119.6"/><rect class="cls-2" x="52.72" y="153.1" width="46.4" height="18" rx="1.62" ry="1.62" transform="translate(125.5 285.77) rotate(-180)"/><rect class="cls-13" x="54.38" y="154.94" width="14.42" height="14.42" rx="1.58" ry="1.58" transform="translate(96.83 285.87) rotate(-180)"/><path class="cls-2" d="M36.45,153.45c1.72-.6,2.95-2.3,2.95-5,0-3.05-1.83-5.23-4.64-5.23s-4.82,2.13-4.82,5.45,2.1,5.14,4.56,5.23a2,2,0,0,1,.63.15c1.2.41,2.56.83,4,1.2l.38-1.12c-.87-.15-2-.4-3-.66Zm-1.8-.6c-2.09,0-3.3-2-3.29-4.18s1.09-4.33,3.35-4.33S38,146.49,38,148.56C38,150.92,36.79,152.86,34.66,152.86Z" transform="translate(-26.33 -38.42)"/><path class="cls-2" d="M39.33,155.75l-.34-.09c-1.38-.36-2.76-.78-4-1.21a1.79,1.79,0,0,0-.51-.13c-2.46-.09-4.93-1.86-4.93-5.61,0-3.43,2.14-5.82,5.2-5.82s5,2.31,5,5.61a5.52,5.52,0,0,1-2.3,4.88c.74.17,1.47.32,2.07.43l.43.08Zm-4.82-2.18a2.26,2.26,0,0,1,.73.17c1.12.39,2.35.76,3.6,1.1l.13-.38c-.79-.15-1.72-.36-2.62-.59l-.28-.07v-.56l.25-.15c1.71-.6,2.7-2.27,2.7-4.6,0-2.91-1.71-4.86-4.26-4.86s-4.45,2-4.45,5.07c0,3.47,2.26,4.79,4.2,4.86Zm.14-.34a3.26,3.26,0,0,1-2.36-1,5,5,0,0,1-1.3-3.57A5.23,5.23,0,0,1,32.3,145a3.33,3.33,0,0,1,2.41-1c2.39,0,3.65,2.3,3.65,4.58C38.36,151.31,36.84,153.23,34.66,153.23Zm.06-8.5a2.55,2.55,0,0,0-1.88.76,4.49,4.49,0,0,0-1.09,3.19,4.26,4.26,0,0,0,1.08,3,2.49,2.49,0,0,0,1.83.76c2,0,3-2,3-3.92S36.71,144.73,34.72,144.73Z" transform="translate(-26.33 -38.42)"/><path class="cls-2" d="M62.5,156.5H60.88l-3.53,10.35h1.43l1.11-3.25h3.67l1.07,3.25H66Zm-2.33,6,1-3c.23-.67.38-1.29.54-1.89h0c.15.61.32,1.24.52,1.87l1,3Z" transform="translate(-26.33 -38.42)"/><path class="cls-2" d="M66.53,167.22H64.36L63.28,164H60.15L59,167.22H56.83l3.79-11.1h2.15Zm-1.63-.75h.59l-3.26-9.6H61.15l-3.27,9.6h.63l1.11-3.25h4.21Zm-1.1-3.55H59.64l1.18-3.47c.21-.63.36-1.21.51-1.77l.07-.28.31-.09H62l.1.28c.15.61.32,1.23.52,1.85Zm-3.12-.75h2.07l-.85-2.5q-.1-.3-.18-.6c-.06.2-.12.41-.2.62Z" transform="translate(-26.33 -38.42)"/><polygon class="cls-2" points="61.46 132.68 72.78 141.84 72.71 131.51 61.46 132.68"/><rect class="cls-13" x="19.93" y="105.17" width="21.75" height="2.63"/><rect class="cls-13" x="19.93" y="109.93" width="21.75" height="2.63"/><rect class="cls-13" x="44.72" y="119.92" width="21.75" height="2.63"/><rect class="cls-13" x="44.72" y="124.67" width="21.75" height="2.63"/><rect class="cls-11" x="209.1" y="101.6" width="46.4" height="18" rx="1.62" ry="1.62"/><rect class="cls-13" x="211" y="103.44" width="14.42" height="14.42" rx="1.58" ry="1.58"/><polygon class="cls-11" points="220.42 119.6 209.09 128.77 209.17 118.44 220.42 119.6"/><rect class="cls-2" x="261.81" y="153.1" width="46.4" height="18" rx="1.62" ry="1.62" transform="translate(543.69 285.77) rotate(-180)"/><rect class="cls-13" x="263.47" y="154.94" width="14.42" height="14.42" rx="1.58" ry="1.58" transform="translate(515.02 285.87) rotate(-180)"/><path class="cls-2" d="M245.55,153.45c1.72-.6,2.95-2.3,2.95-5,0-3.05-1.83-5.23-4.64-5.23S239,145.4,239,148.71s2.1,5.14,4.56,5.23a2,2,0,0,1,.63.15c1.2.41,2.56.83,4,1.2l.38-1.12c-.87-.15-2-.4-3-.66Zm-1.8-.6c-2.09,0-3.3-2-3.29-4.18s1.09-4.33,3.35-4.33,3.27,2.13,3.27,4.21C247.08,150.92,245.88,152.86,243.75,152.86Z" transform="translate(-26.33 -38.42)"/><path class="cls-2" d="M248.43,155.75l-.34-.09c-1.38-.36-2.76-.78-4-1.21a1.79,1.79,0,0,0-.51-.13c-2.46-.09-4.93-1.86-4.93-5.61,0-3.43,2.14-5.82,5.2-5.82s5,2.31,5,5.61a5.52,5.52,0,0,1-2.3,4.88c.74.17,1.47.32,2.07.43l.43.08Zm-4.82-2.18a2.25,2.25,0,0,1,.73.17c1.12.39,2.35.76,3.6,1.1l.13-.38c-.79-.15-1.72-.36-2.62-.59l-.28-.07v-.56l.25-.15c1.71-.6,2.7-2.27,2.7-4.6,0-2.91-1.71-4.86-4.26-4.86s-4.45,2-4.45,5.07c0,3.47,2.26,4.79,4.2,4.86Zm.14-.34a3.26,3.26,0,0,1-2.36-1,5,5,0,0,1-1.3-3.57A5.23,5.23,0,0,1,241.4,145a3.33,3.33,0,0,1,2.41-1c2.39,0,3.65,2.3,3.65,4.58C247.46,151.31,245.93,153.23,243.75,153.23Zm.06-8.5a2.55,2.55,0,0,0-1.88.76,4.49,4.49,0,0,0-1.09,3.19,4.26,4.26,0,0,0,1.08,3,2.49,2.49,0,0,0,1.83.76c2,0,3-2,3-3.92S245.8,144.73,243.81,144.73Z" transform="translate(-26.33 -38.42)"/><path class="cls-2" d="M271.59,156.5H270l-3.53,10.35h1.43L269,163.6h3.67l1.07,3.25h1.38Zm-2.33,6,1-3c.23-.67.38-1.29.54-1.89h0c.15.61.32,1.24.52,1.87l1,3Z" transform="translate(-26.33 -38.42)"/><path class="cls-2" d="M275.63,167.22h-2.18L272.38,164h-3.13l-1.11,3.25h-2.22l3.79-11.1h2.15Zm-1.63-.75h.59l-3.26-9.6h-1.07l-3.27,9.6h.63l1.11-3.25h4.21Zm-1.1-3.55h-4.16l1.18-3.47c.21-.63.36-1.21.51-1.77l.07-.28.31-.09h.29l.1.28c.15.61.32,1.23.52,1.85Zm-3.12-.75h2.07l-.85-2.5q-.1-.3-.18-.6c-.06.2-.12.41-.2.62Z" transform="translate(-26.33 -38.42)"/><polygon class="cls-2" points="270.55 132.68 281.88 141.84 281.81 131.51 270.55 132.68"/><rect class="cls-13" x="229.02" y="105.17" width="21.75" height="2.63"/><rect class="cls-13" x="229.02" y="109.93" width="21.75" height="2.63"/><rect class="cls-13" x="253.81" y="119.92" width="21.75" height="2.63"/><rect class="cls-13" x="253.81" y="124.67" width="21.75" height="2.63"/></svg>