<svg id="Слой_2" data-name="Слой 2" xmlns="http://www.w3.org/2000/svg" xmlns:xlink="http://www.w3.org/1999/xlink" viewBox="0 0 390.55 327.73"><defs><style>.cls-1{fill:none;}.cls-2{fill:#fe3737;}.cls-3{fill:#029d41;}.cls-4{fill:#794300;}.cls-5{fill:#ffc61a;}.cls-6{fill:#303134;}.cls-7{clip-path:url(#clip-path);}.cls-8{fill:#dbaa16;}.cls-9{fill:#452600;}.cls-10{fill:#4f6ddb;}.cls-11{fill:#ed9d6f;}.cls-12{fill:#cc8760;}.cls-13{fill:#b38b12;}</style><clipPath id="clip-path" transform="translate(-19.27 -34.92)"><path class="cls-1" d="M328.13,242.13s-8.86-13.69,15.37-14.6c33.65-1.25,28.24,22,26.25,28.23-4.61,14.39-23.33,13.6-23.33,13.6Z"/></clipPath></defs><title>ACM CHI 2020</title><path class="cls-2" d="M214.16,276.84a20,20,0,1,1,20-20A20,20,0,0,1,214.16,276.84Zm0-38a18,18,0,1,0,18,18A18,18,0,0,0,214.16,238.84Z" transform="translate(-19.27 -34.92)"/><path class="cls-3" d="M211.7,259.41l-.06-.83a7.32,7.32,0,0,1,2-5.51c1.43-1.69,2.23-2.93,2.23-4.37,0-1.62-1-2.71-3-2.74a5.67,5.67,0,0,0-3.22,1l-.76-2a8.35,8.35,0,0,1,4.56-1.28c3.67,0,5.32,2.26,5.32,4.69,0,2.17-1.21,3.73-2.74,5.55a6.3,6.3,0,0,0-1.82,4.69l0,.83Zm-.7,4.46a1.88,1.88,0,0,1,1.91-2,2,2,0,1,1-1.91,2Z" transform="translate(-19.27 -34.92)"/><path class="cls-3" d="M208.35,236.49c-.07-.16-6.84-15.66-13.36-31.13-13.39-31.72-12.8-32.35-12.29-32.91l.86-.21-.23.69.33.6a.59.59,0,0,0,.26-.41c-.09,2.58,15.36,39,25.77,62.79Z" transform="translate(-19.27 -34.92)"/><path class="cls-4" d="M393.43,311.61s19.67,26.72,15.92,33.18-26.72,12.85-26.72,12.85L364.1,332s-1.5-15.55,4.5-16.77S393.43,311.61,393.43,311.61Z" transform="translate(-19.27 -34.92)"/><circle class="cls-2" cx="227.2" cy="34.81" r="19"/><circle class="cls-2" cx="171.14" cy="158.34" r="19" transform="translate(-62.21 31.04) rotate(-19.43)"/><rect class="cls-3" x="174.91" y="119.72" width="79.92" height="1.45" transform="translate(-35.09 171.89) rotate(-49.8)"/><rect class="cls-3" x="277.06" y="80.41" width="1.45" height="76.74" transform="translate(-28.69 177.58) rotate(-41.22)"/><path d="M245.14,74.06l-.06-.83a7.32,7.32,0,0,1,2-5.51c1.43-1.69,2.23-2.93,2.23-4.37,0-1.62-1-2.71-3-2.74a5.67,5.67,0,0,0-3.22,1l-.76-2a8.35,8.35,0,0,1,4.56-1.28c3.67,0,5.32,2.26,5.32,4.69,0,2.17-1.21,3.73-2.74,5.55a6.3,6.3,0,0,0-1.82,4.69l0,.83Zm-.7,4.46a1.88,1.88,0,0,1,1.91-2,2,2,0,1,1-1.91,2Z" transform="translate(-19.27 -34.92)"/><path d="M169.58,161.58l-.33-.76a7.32,7.32,0,0,1,0-5.86c.79-2.07,1.13-3.51.65-4.86-.54-1.53-1.86-2.21-3.77-1.58a5.66,5.66,0,0,0-2.71,2l-1.39-1.64a8.34,8.34,0,0,1,3.87-2.72c3.46-1.22,5.77.36,6.58,2.65.72,2,.1,3.92-.74,6.14a6.3,6.3,0,0,0-.15,5l.3.77Zm.82,4.44a1.88,1.88,0,0,1,1.14-2.53A2,2,0,1,1,170.4,166Z" transform="translate(-19.27 -34.92)"/><circle class="cls-2" cx="116.53" cy="217.99" r="19"/><path d="M133.21,255.48l-.06-.83a7.32,7.32,0,0,1,2-5.51c1.43-1.69,2.23-2.93,2.23-4.37,0-1.62-1-2.71-3-2.74a5.67,5.67,0,0,0-3.22,1l-.76-2a8.35,8.35,0,0,1,4.56-1.28c3.67,0,5.32,2.26,5.32,4.69,0,2.17-1.21,3.73-2.74,5.55a6.3,6.3,0,0,0-1.82,4.69l0,.83Zm-.7,4.46a1.88,1.88,0,0,1,1.91-2,2,2,0,1,1-1.91,2Z" transform="translate(-19.27 -34.92)"/><circle class="cls-2" cx="238.49" cy="272.27" r="19" transform="translate(-78.13 30.96) rotate(-14.02)"/><path d="M236.64,275.46l-.26-.79a7.32,7.32,0,0,1,.58-5.83c1-2,1.46-3.39,1.11-4.78-.39-1.58-1.65-2.38-3.6-1.93a5.68,5.68,0,0,0-2.88,1.74l-1.23-1.76a8.35,8.35,0,0,1,4.11-2.34c3.56-.89,5.71.91,6.3,3.26.53,2.1-.27,3.91-1.32,6a6.3,6.3,0,0,0-.63,5l.23.8Zm.4,4.5a1.89,1.89,0,0,1,1.37-2.41A2,2,0,1,1,237,280Z" transform="translate(-19.27 -34.92)"/><path class="cls-2" d="M305.81,187.82a20,20,0,1,1,20-20A20,20,0,0,1,305.81,187.82Zm0-38a18,18,0,1,0,18,18A18,18,0,0,0,305.81,149.82Z" transform="translate(-19.27 -34.92)"/><path class="cls-3" d="M303.34,170.39l-.06-.83a7.32,7.32,0,0,1,2-5.51c1.43-1.69,2.23-2.93,2.23-4.37,0-1.62-1-2.71-3-2.74a5.67,5.67,0,0,0-3.22,1l-.76-2a8.35,8.35,0,0,1,4.56-1.28c3.67,0,5.32,2.26,5.32,4.69,0,2.17-1.21,3.73-2.74,5.55a6.3,6.3,0,0,0-1.82,4.69l0,.83Zm-.7,4.46a1.88,1.88,0,0,1,1.91-2,2,2,0,1,1-1.91,2Z" transform="translate(-19.27 -34.92)"/><path class="cls-5" d="M328.13,242.13s-8.86-13.69,15.37-14.6c33.65-1.25,28.24,22,26.25,28.23-4.61,14.39-23.33,13.6-23.33,13.6Z" transform="translate(-19.27 -34.92)"/><path class="cls-4" d="M324.94,252.17c2.68-6.11,1.85-7.1,3.19-10a25.18,25.18,0,0,1,1.75-3.7c.85-.76.58,2.29,3.35,2.2,12.78-.42,5.7,15.18,13.28,17.2.89-1,2.86-4.13,5.69-4.61s6.61,4.45,3.78,9.31c-2,3.4-9.28,3.25-9.28,3.25s-.72,6.21,2.86,9.53c-.38,9.17-19.78,9.63-19.78,9.63s5.29-13-1.9-14.95C319.78,267.76,323.86,254.64,324.94,252.17Z" transform="translate(-19.27 -34.92)"/><path class="cls-6" d="M327.73,259.22h0c-1.5-.11-2.4-.55-2.68-1.31-.52-1.41,1.36-3.3,1.44-3.38a.29.29,0,0,1,.41.41c-.47.47-1.63,1.88-1.3,2.76.25.66,1.32.88,2.18.94a.29.29,0,0,1,0,.58Z" transform="translate(-19.27 -34.92)"/><path class="cls-6" d="M327.62,265.41a3.34,3.34,0,0,1-1.15-.19,3,3,0,0,1-1.74-1.78.29.29,0,1,1,.54-.22,2.45,2.45,0,0,0,1.4,1.46,4.37,4.37,0,0,0,3-.34.29.29,0,0,1,.27.52A5.61,5.61,0,0,1,327.62,265.41Z" transform="translate(-19.27 -34.92)"/><ellipse class="cls-6" cx="333.75" cy="252.91" rx="2.23" ry="1.09" transform="translate(-4.47 489.32) rotate(-77.54)"/><ellipse class="cls-6" cx="326.98" cy="250.34" rx="2.02" ry="0.89" transform="translate(-7.27 480.69) rotate(-77.54)"/><path class="cls-6" d="M337.73,247.38a.3.3,0,0,1-.25-.14s-1.24-1.83-2.7-1.95a2.19,2.19,0,0,0-1.79.82.3.3,0,0,1-.45-.42,2.77,2.77,0,0,1,2.28-1c1.76.14,3.1,2.13,3.16,2.22a.3.3,0,0,1-.25.47Z" transform="translate(-19.27 -34.92)"/><path class="cls-6" d="M330.07,245a.31.31,0,0,1-.29-.21c-.08-.26-.4-1-.87-1.08a1.08,1.08,0,0,0-1,.35.3.3,0,0,1-.4-.46,1.61,1.61,0,0,1,1.52-.48c.89.25,1.27,1.44,1.29,1.49a.31.31,0,0,1-.2.38Z" transform="translate(-19.27 -34.92)"/><g class="cls-7"><path class="cls-8" d="M370.13,251.24c-16,0-32.11-25.49-32.87-26.72l.95-.59c.21.33,20.89,33.15,37.86,24.81l.49,1A14.39,14.39,0,0,1,370.13,251.24Z" transform="translate(-19.27 -34.92)"/><path class="cls-8" d="M374.21,242.68c-18.81-3.87-39.07-17.08-39.27-17.21l.61-.93c.2.13,20.29,13.22,38.88,17Z" transform="translate(-19.27 -34.92)"/><path class="cls-8" d="M371.27,256.14c-32.53-3.29-34.09-28.38-34.1-28.63v-.31l7.69-5.19.62.92-7.17,4.83c.25,3,3.1,24.23,33.08,27.27Z" transform="translate(-19.27 -34.92)"/></g><path class="cls-4" d="M304.61,310.73c-4.72-2.1-31.24-13.53-35.18-15.95a13.89,13.89,0,0,1-4.76-4.71,19.74,19.74,0,0,0-7.64-8c-4-2.13-8.69-2.16-10.47-3.19s-3.11-.14-3.13,1.18,1.38,3.17,3.57,3.66,5.52,1.05,5.26,1.91-7.11-1-8.76-1.34-4.48-.51-6.28-1.43-7.49-2.63-8.85-1.73-1.06,2.37.43,3.12c.1.83,1,1.45,2,2.06s2.11,1.57,2.11,1.57a1.62,1.62,0,0,0-2.26,1c-.35,1.08.1,1.34,1.4,2.16a26.88,26.88,0,0,0,4.1,2.43,33.82,33.82,0,0,0,4.56,1.26s-4.44-.51-5.22-.11a1.38,1.38,0,0,0-.45,2.12,9.83,9.83,0,0,0,3.87.88c2.19.21,7.68.83,10,1.3s8.15.68,9.51,1.28a92.15,92.15,0,0,1,7.84,6.23c6.32,5.36,29.31,22,33.59,23.69s10.61-3.32,11.34-12.15C311.76,313.83,309.33,312.84,304.61,310.73Z" transform="translate(-19.27 -34.92)"/><path class="cls-9" d="M245.37,289.95a9.5,9.5,0,0,0-3.56-1,20.8,20.8,0,0,1-5.49-1.82l-7.5-2.86s6.42,3.46,8.28,4.24S245.37,289.95,245.37,289.95Z" transform="translate(-19.27 -34.92)"/><path class="cls-9" d="M246.13,294.45s-1.07-.59-2-1.15-5.58-1.22-7-1.95a22.77,22.77,0,0,1-3.91-3.25s2.93,2.4,5,2.89S243.93,291.73,246.13,294.45Z" transform="translate(-19.27 -34.92)"/><path class="cls-9" d="M246.72,296.14a36,36,0,0,0-5.4-1.23l5.33,1.81Z" transform="translate(-19.27 -34.92)"/><path class="cls-10" d="M387.89,353c-.9-7.18-5-18-6.74-23.79-6.56-21.46,8.71-31-.44-40.74-5.25-5.61-12.1-7.12-26.06-11.92-9.9-3.4-26.41,5.07-37,11.61a17.85,17.85,0,0,0-8.34,17.47A125.49,125.49,0,0,1,310.39,328c2.81,8.69,5.71,18.76,7.47,25a8.66,8.66,0,0,0,7.92,6.31c10.38.5,31.06,3.28,42.65,3.34,3.91,0,8.09-.13,11.65-.31A8.31,8.31,0,0,0,387.89,353Z" transform="translate(-19.27 -34.92)"/><path class="cls-10" d="M314.41,302.62c-1.34,3.28-3-.11-11.37.52-3.29.25-13.83,24.17-13.83,24.17s8.88,9.94,16.58,10.39c4.86.28,38.19-7,42.72-7.91l.91.32C338.23,320.38,326.12,311.48,314.41,302.62Z" transform="translate(-19.27 -34.92)"/><path class="cls-10" d="M376.07,284.94c5.88,2.38,23.28,27.41,23.28,27.41l-21.13,14.19Z" transform="translate(-19.27 -34.92)"/><rect class="cls-3" x="123.04" y="205.21" width="63.67" height="1.45" transform="translate(-116.78 222.92) rotate(-64.68)"/><path class="cls-11" d="M102.49,134.4c4.31-1,43.74-6.43,47-5.76,3.52.72,15.64,3.16,17.36,4s7.53,6.58,9.58,9.14,2.92,3.31,1.75,4.09-2.41-.65-2.41-.65a2.36,2.36,0,0,1-2.24-.44c-.74.46-1.37,0-2.91-1.5a25.24,25.24,0,0,0-6.83-4.45c-2.08-.78-2.8-.51-3.12.25-.22.53.43,1.9,1.28,3.17l-2.57,3-.11-.09c-1.66-1.11-3.6-2.53-5.16-2.64s-3.71-1.37-4.91-2.14-1.65-1.44-3-1.5c-13.24-.59-34.89,14.49-42.15,15.38-8.14,1-10-3.66-11-8.3S93.81,136.37,102.49,134.4Z" transform="translate(-19.27 -34.92)"/><path class="cls-3" d="M101,70.08a14.66,14.66,0,0,1,1.51-3.87c1.19-1.74-20.23-1-20.23-1s2.49-7.46-3.28-9-8.27,7.88-2.37,11.62a17.34,17.34,0,0,1-4.47,5.86c-9.84-21.58,2.16-36.28,6.59-38.22,7-3.07,34.42,6.81,32.74,16.74S102.64,69.21,101,70.08Z" transform="translate(-19.27 -34.92)"/><path class="cls-11" d="M86.65,82.18c-1.06,1.42-3.08,2.73-1.69,7.08-4.49,2.5,2,26.93-10.33,26.93s-9.91-33.68-9.91-33.68c.58-.45,9.7-11,11.92-14.66A7.2,7.2,0,0,1,73.29,61c.3-3.06,2.5-5.61,5.71-4.78,5.77,1.49,3.28,9,3.28,9l9.78-12,13.53,7.31s-2.53,4.88-3.09,5.7A14.66,14.66,0,0,0,101,70.08a49.35,49.35,0,0,0-1.22,5.64C99.28,79,93.25,86,86.65,82.18Z" transform="translate(-19.27 -34.92)"/><path class="cls-5" d="M112.13,116l-2.7,1.7L96.52,145.84,38,146,19.27,119.32S26.48,96.93,32.11,92.6c4.34-3.32,30.8-7.93,33-11,0,0,5.81,25.52,9.5,25.82s7.07-17.7,9.86-20.74C84.53,86.6,113.72,99.89,112.13,116Z" transform="translate(-19.27 -34.92)"/><path class="cls-11" d="M109.43,117.66c-8,5.43-13.72,8.89-13.72,8.89s-4,23.72.73,25.75c4.26,1.81,8.63,3.29,13.63-4.1C113.75,142.76,110.59,130.38,109.43,117.66Z" transform="translate(-19.27 -34.92)"/><path class="cls-6" d="M95.11,63.42a.29.29,0,0,1-.22-.1s-1-1.09-3.92-.72a.29.29,0,0,1-.32-.25A.29.29,0,0,1,90.9,62c3.3-.4,4.39.87,4.44.92a.29.29,0,0,1,0,.41A.29.29,0,0,1,95.11,63.42Z" transform="translate(-19.27 -34.92)"/><path class="cls-6" d="M100.81,65.55a.29.29,0,0,1-.16-.53,3.19,3.19,0,0,1,2.62-.41.29.29,0,1,1-.21.54,2.64,2.64,0,0,0-2.09.36A.29.29,0,0,1,100.81,65.55Z" transform="translate(-19.27 -34.92)"/><ellipse class="cls-6" cx="92.27" cy="66.79" rx="2.12" ry="1.04" transform="translate(-18.29 100) rotate(-72.64)"/><ellipse class="cls-6" cx="99.84" cy="69.64" rx="1.73" ry="0.85" transform="translate(-15.69 109.22) rotate(-72.64)"/><path class="cls-6" d="M96.5,75.12A2.25,2.25,0,0,1,95,74.39a.29.29,0,0,1,.39-.42c.43.4,1,.8,1.52.43a2.73,2.73,0,0,0,.19-3.05.29.29,0,0,1,.51-.28c.7,1.27.54,3.11-.34,3.79A1.26,1.26,0,0,1,96.5,75.12Z" transform="translate(-19.27 -34.92)"/><path class="cls-6" d="M94.85,77.28h0A4.39,4.39,0,0,1,91.43,76a2.77,2.77,0,0,1-.6-2.07.29.29,0,0,1,.33-.24.29.29,0,0,1,.24.33,2.23,2.23,0,0,0,.48,1.62,3.87,3.87,0,0,0,3,1.08.29.29,0,0,1,0,.58Z" transform="translate(-19.27 -34.92)"/><path class="cls-12" d="M86.65,82.18s-3-2.2-3.13-5.18C82.32,80.83,85,84.3,85,84.3Z" transform="translate(-19.27 -34.92)"/><path class="cls-6" d="M91.51,71.94a4.3,4.3,0,0,1-4.11-5.59h0a4.3,4.3,0,1,1,4.11,5.58Zm0-8A3.7,3.7,0,0,0,88,66.54h0a3.69,3.69,0,1,0,3.52-2.59Z" transform="translate(-19.27 -34.92)"/><path class="cls-6" d="M100.54,74.5a3,3,0,0,1-.9-.14c-1.87-.59-2.83-2.9-2.12-5.17h0c.71-2.26,2.81-3.62,4.68-3a3.27,3.27,0,0,1,2,2,5,5,0,0,1-1.8,5.76A3.45,3.45,0,0,1,100.54,74.5Zm-2.44-5.12c-.61,1.95.16,3.92,1.72,4.41a2.68,2.68,0,0,0,2.29-.39,4.36,4.36,0,0,0,1.57-5A2.68,2.68,0,0,0,102,66.73c-1.56-.49-3.32.7-3.93,2.64Z" transform="translate(-19.27 -34.92)"/><polygon class="cls-6" points="78.68 33.89 76.14 33.09 76.32 32.51 78.86 33.31 78.68 33.89"/><rect class="cls-6" x="85.14" y="60.39" width="0.61" height="6.28" transform="translate(-33.85 65.12) rotate(-56.69)"/><path class="cls-11" d="M24.56,121.56a3.13,3.13,0,0,1,4.62-1.8c6.39,3.82,15.06,8.78,15.46,8.93h0a.37.37,0,0,0,0,.07l0,.08L40.9,141c4.72,2,11.46,4.89,14.71,5.79,5.22,1.44,12.79,3.2,18.27,2.81s11.16-2.48,13.64-2.68,5.09-1.77,7-2.68,3.07-2.34,4-1.43.07,2.15-.72,3.13a16.82,16.82,0,0,1-4.83,3c-.85.26-2.41,1.44-1.76,2.68s3.2,2.94,3.65,2.74a8.12,8.12,0,0,0,1-.59s1.63,1.57,1.63,2.22-.26,2.68-3.33,2.41c-.39,1.31-.33,2.94-1.76,3.65s-2,.39-2,1,0,1.83-1.22,1.89-1.52-.2-1.85.78-.91,1.5-2.61,1.5-5.94-1.17-7.11-2.28-1.83-3.07-3.72-3.26-4.83-.72-9.92-.91-14.1-.78-20-1.37-21.8-4.07-24.15-9.62C17.75,144.86,21.88,130.67,24.56,121.56Z" transform="translate(-19.27 -34.92)"/><path class="cls-13" d="M74.94,112.94c-5.11,0-10.08-18-11-21.67L65.14,91c2.1,8,6.61,20.72,9.8,20.72,3.59,0,6.74-9.82,7.65-13.61l1.24.3C83.47,99.85,80.17,112.94,74.94,112.94Z" transform="translate(-19.27 -34.92)"/></svg>