<svg xmlns="http://www.w3.org/2000/svg" xmlns:xlink="http://www.w3.org/1999/xlink" viewBox="0 0 359.91 346.17"><defs><style>.cls-1{fill:none;}.cls-2{fill:#f6eeca;}.cls-3{fill:#cf8e6a;}.cls-4{fill:#db9770;}.cls-5{fill:#b87f5e;}.cls-13,.cls-6{fill:#fe3737;}.cls-7{fill:#4f6ddb;}.cls-8{fill:#364b96;}.cls-9{fill:#535357;}.cls-10{fill:#303134;}.cls-11{clip-path:url(#clip-path);}.cls-12{fill:#3d3d40;}.cls-13{stroke:#fe3737;stroke-miterlimit:10;stroke-width:0.76px;}.cls-14{fill:#ffc61a;}.cls-15{fill:#fff;}.cls-16{fill:#242425;}.cls-17{clip-path:url(#clip-path-2);}</style><clipPath id="clip-path" transform="translate(-33.18 -24.59)"><path class="cls-1" d="M176.76,60.35c-2-1-5.66.28-6.81,2.57-1.62,3.24-4.86-3.34-6.2-6.95s-5.32.47-9.12-3.9-6.18-11.69-15.77-7.69a11.49,11.49,0,0,0-1.6,5.6c-10-3.06-6.63-22.57.75-21.15,15.49,3,16.41-5.09,27.37-2.71,11.28,2.45,13.77,7.47,15.49,13.46C182.08,43.82,180,53.13,176.76,60.35Z"/></clipPath><clipPath id="clip-path-2" transform="translate(-33.18 -24.59)"><path class="cls-1" d="M97.2,221.53c5.06-9.27,22.23-8.64,29.53-9,8.59-.39,16.06-4.17,16,5.27a49.67,49.67,0,0,1-3.67,17.72,22.67,22.67,0,0,0-1.82-9.51c-.46-1.38-2.78,1-6.75,1.18s-8.71-.26-8.86.5L118.45,239a4.42,4.42,0,0,1-3.5,3.13h0s.15-9.33-6.89-9-6.58,11.78,1.38,14.08a42.22,42.22,0,0,1-3.06,8.42S92.14,230.8,97.2,221.53Z"/></clipPath></defs><title>ACM ICER 2019_new_darkmode</title><g id="Слой_2" data-name="Слой 2"><polygon class="cls-2" points="61.36 137.74 33.51 158.19 92.74 158.19 106.09 137.74 61.36 137.74"/><path class="cls-2" d="M221.68,160.2H42.76a.83.83,0,1,1,0-1.65H221.68a.83.83,0,1,1,0,1.65Z" transform="translate(-33.18 -24.59)"/><polygon class="cls-3" points="118.92 109.87 105.69 132.37 80.02 126.95 92.2 116.65 92.88 107.08 118.92 109.87"/><path class="cls-4" d="M114.26,162.36c.53.68,0,1.18-.91,1.5a10,10,0,0,1-2.45.44c-2.27.16-6.19.26-8.23-.94a5.74,5.74,0,0,1-3.21-4.25c-.4-1.93,1-2.54.28-4.25s0-3.37,1.22-3.64.77-.33,1.15-1.88,1.39-1.92,6.13-1.54a18.61,18.61,0,0,1,5.58,1.25,3.3,3.3,0,0,0-1.78,1.62c-.72,1.83-1.76,6.8.33,7.74.61.28,1.21-.05,1.75-.65C116,160.22,115.5,161.92,114.26,162.36Z" transform="translate(-33.18 -24.59)"/><path class="cls-3" d="M120.17,163.35a5.82,5.82,0,0,1-6.82.5c1-.32,1.44-.82.91-1.5,1.23-.44,1.75-2.13-.13-4.62-.54.6-1.14.93-1.75.65-2.09-.94-1-5.91-.33-7.74a3.3,3.3,0,0,1,1.78-1.62c1.51-.64,3.48-.17,4,3.44A98.29,98.29,0,0,0,120.17,163.35Z" transform="translate(-33.18 -24.59)"/><path class="cls-5" d="M112.76,158.64h-.11l.09-.66h0a1.93,1.93,0,0,0,1.18-.5,15.47,15.47,0,0,0,2.18-4.38l.63.2a15.69,15.69,0,0,1-2.36,4.67A2.73,2.73,0,0,1,112.76,158.64Z" transform="translate(-33.18 -24.59)"/><path class="cls-5" d="M107,149.88a21.13,21.13,0,0,1,2.7,3.24,9.07,9.07,0,0,1,1,1.9,3,3,0,0,1,.22,1.14,1.29,1.29,0,0,1-.2.66,1.07,1.07,0,0,1-.61.44,2.1,2.1,0,0,1-1.22-.18,6.84,6.84,0,0,1-1-.52,13.22,13.22,0,0,1-1.7-1.28,24.9,24.9,0,0,1-2.94-3c1.08.89,2.15,1.79,3.25,2.62.56.4,1.11.82,1.7,1.16a3,3,0,0,0,1.71.57c.41-.05.41-.78.17-1.39a12.36,12.36,0,0,0-.88-1.83C108.56,152.19,107.77,151,107,149.88Z" transform="translate(-33.18 -24.59)"/><path class="cls-5" d="M101.46,156.5c1.06.82,2.11,1.64,3.17,2.44a27.34,27.34,0,0,0,3.27,2.2,7,7,0,0,0,1.76.73c.58.14,1.28.09,1.42-.33a.89.89,0,0,0-.19-.75,8.07,8.07,0,0,1-.44-.93,16,16,0,0,1-.6-1.92c.29.6.57,1.21.9,1.79a8.5,8.5,0,0,0,.5.84,1.34,1.34,0,0,1,.33,1.11,1.11,1.11,0,0,1-.92.81,3,3,0,0,1-1.11,0,7.48,7.48,0,0,1-2-.74,21.86,21.86,0,0,1-3.27-2.39A29,29,0,0,1,101.46,156.5Z" transform="translate(-33.18 -24.59)"/><path class="cls-5" d="M113.83,149a2.23,2.23,0,0,0-.66.44,3.24,3.24,0,0,0-.46.56c-.29.4-.52.87-.9,1.35a2.22,2.22,0,0,1,.36-1.74,1.74,1.74,0,0,1,.73-.61A1.09,1.09,0,0,1,113.83,149Z" transform="translate(-33.18 -24.59)"/><path class="cls-6" d="M108.43,135.9h0a1.09,1.09,0,0,1,1.28.9c.83,5.4,4.37,28.76,3.29,28.86s-4.66-23.26-5.46-28.53A1.09,1.09,0,0,1,108.43,135.9Z" transform="translate(-33.18 -24.59)"/><path class="cls-5" d="M114.13,157.73a4.83,4.83,0,0,1,1.51,2.33,2.22,2.22,0,0,1-.15,1.51,1.67,1.67,0,0,1-1.19,1l.16-.43a1.37,1.37,0,0,1,.22.53.84.84,0,0,1-.1.58,1.14,1.14,0,0,1-.91.43c.27-.15.55-.34.61-.57a.71.71,0,0,0-.23-.63l-.25-.27.41-.16a1.39,1.39,0,0,0,.67-.78,1.88,1.88,0,0,0,.14-1.13A11.15,11.15,0,0,0,114.13,157.73Z" transform="translate(-33.18 -24.59)"/><path class="cls-4" d="M174.72,72.4c-3.19-1.39-5.61-5.91-7.3-9.47-5,4.16-9.78,8.49-15.11,12,1.17,2.17,2.81,6,.83,9.94,2,1.66,4.19,2.7,6.64,6.12s13.33,4.3,15,.43l3.64-15.17A22.28,22.28,0,0,1,174.72,72.4Z" transform="translate(-33.18 -24.59)"/><path class="cls-7" d="M139,145.39c1.17,9.35-3.74,11.15,2,12.3,7.8,1.56,47.52,1.08,68.83.87,5.77-17.32,8.37-35.71,7.92-41-1-11.43-3.42-25.62-11.48-30.33C198,82.38,185.8,78,174.72,72.4L166.56,85c-2.39,3.73-7.45,3.25-9.84-.45-2.6-4-2.56-5.94-3.43-7.5C142.06,94,131.78,95.34,129.7,102.5,128.2,107.72,137.86,136,139,145.39Z" transform="translate(-33.18 -24.59)"/><path class="cls-8" d="M162.94,96.75h0c-3.59,0-5.24-.8-11-10.06l1.44-.9c5.76,9.24,7,9.24,9.58,9.25h0c6.62,0,14.63-14.16,17.16-19.62l1.54.71C181.25,77,172,96.75,162.94,96.75Z" transform="translate(-33.18 -24.59)"/><path class="cls-4" d="M182.4,143.12l3.7-16.3L214.16,134s-6.83,25.88-14.27,28.87c-.54.22-1.58-.52-2.44-.3l-17.53-18.66Z" transform="translate(-33.18 -24.59)"/><polygon class="cls-7" points="96.41 78.45 87.06 103.85 106.09 114.43 96.41 78.45"/><path class="cls-4" d="M204.13,155.16c.26,11.9-17.73,11.12-31.3,11.53s-23.53-1.89-26.83-2.3-5,.32-8.52.74-9.87-2.47-10.12-2.42-1.64,1.37-2.85,1.67a6.46,6.46,0,0,1-4.46-.77c-1.82-.89-.9-1.93-.9-1.93s-2.82-2.34-3.44-2.83.28-2.93.28-2.93l-.44-.9c-.44-.9.89-2.14.89-2.14s-1.31-2-.64-3.29,4.41-3,8.18-3.17,13.9,6,21.79,5.33,35.63-8.58,38.57-9.19C195.16,140.34,203.78,139,204.13,155.16Z" transform="translate(-33.18 -24.59)"/><polygon class="cls-5" points="85.96 137.1 88.28 131.79 84.79 136.13 85.96 137.1"/><polygon class="cls-5" points="82.81 131.35 87.57 128.18 82.37 132.94 82.81 131.35"/><path class="cls-5" d="M116.44,152.89c.33-.33,3.8-2.71,3.8-2.71l-4.36,1.58Z" transform="translate(-33.18 -24.59)"/><path class="cls-5" d="M154.42,80.06s7.38-2.21,10.57-7.4c-1.86,5.8-9.16,10.43-9.21,10.34S154.42,80.06,154.42,80.06Z" transform="translate(-33.18 -24.59)"/><path class="cls-9" d="M176.76,60.35c-2-1-5.66.28-6.81,2.57-1.62,3.24-4.86-3.34-6.2-6.95s-5.32.47-9.12-3.9-6.18-11.69-15.77-7.69a11.49,11.49,0,0,0-1.6,5.6c-10-3.06-6.63-22.57.75-21.15,15.49,3,16.41-5.09,27.37-2.71,11.28,2.45,13.77,7.47,15.49,13.46C182.08,43.82,180,53.13,176.76,60.35Z" transform="translate(-33.18 -24.59)"/><path class="cls-4" d="M168.61,66.52c-3.9,9-10.36,12.74-17.19,14.44s-9.5.29-12.54-9-.1-9-1.34-16.54a22.15,22.15,0,0,1-.27-5.42,11.49,11.49,0,0,1,1.6-5.6c9.59-4,12,3.32,15.77,7.69s7.79.29,9.12,3.9,3.32,4.56,4.95,1.33c1.15-2.3,4.51-3.63,6.52-2.6a3,3,0,0,1,1.56,2.51C177.25,61.68,175.92,66.52,168.61,66.52Z" transform="translate(-33.18 -24.59)"/><path class="cls-10" d="M143.14,57.18a.35.35,0,0,1-.31-.18,3.2,3.2,0,0,0-2-1.7,3.84,3.84,0,0,0-2.66.5.35.35,0,0,1-.38-.59,4.51,4.51,0,0,1,3.21-.59,3.87,3.87,0,0,1,2.42,2,.35.35,0,0,1-.31.52Z" transform="translate(-33.18 -24.59)"/><path class="cls-10" d="M156.63,60.7a.35.35,0,0,1-.27-.12c-3.34-4-6.22-1.67-6.35-1.57a.35.35,0,1,1-.45-.54s3.54-2.83,7.33,1.66a.35.35,0,0,1-.27.58Z" transform="translate(-33.18 -24.59)"/><ellipse class="cls-10" cx="108.01" cy="36.81" rx="1.19" ry="2.27"/><ellipse class="cls-10" cx="119.13" cy="39.11" rx="1.19" ry="2.27"/><path class="cls-10" d="M145.42,69.61a2.11,2.11,0,0,1-1.6-.86c-1.85-2.16.94-6.91,1.06-7.11a.35.35,0,1,1,.61.36c-.74,1.25-2.39,4.81-1.13,6.29a1.44,1.44,0,0,0,1.15.61c.73-.06,1.41-.94,1.61-1.27a.35.35,0,0,1,.61.36,3.39,3.39,0,0,1-2.15,1.61Z" transform="translate(-33.18 -24.59)"/><path class="cls-10" d="M146.92,76.1a7.83,7.83,0,0,1-4.28-1.46.35.35,0,0,1,.43-.56c.16.12,3.85,2.92,7.15,0a.35.35,0,1,1,.47.53A5.57,5.57,0,0,1,146.92,76.1Z" transform="translate(-33.18 -24.59)"/><g class="cls-11"><path class="cls-12" d="M142.16,46.87c-.12-.08-12.16-7.68-4-21.41l.73.43c-7.74,13,3.22,20,3.69,20.25Z" transform="translate(-33.18 -24.59)"/><path class="cls-12" d="M147.14,47.54c-.24-.2-5.86-5-6.32-11.88-.26-3.87,1.2-7.6,4.34-11.07l.63.57c-3,3.3-4.36,6.81-4.12,10.45.44,6.5,6,11.24,6,11.29Z" transform="translate(-33.18 -24.59)"/><path class="cls-12" d="M142.38,48.34c-1.47,0-12.93-3.21-14.86-15.2l.84-.13c2,12.18,13.91,14.48,14,14.49Z" transform="translate(-33.18 -24.59)"/></g><path class="cls-13" d="M96.73,60.65a.93.93,0,0,1-.32.71,1.07,1.07,0,0,1-.74.29,1,1,0,0,1-.52-.16,1,1,0,0,1-.38-.48l-1-2.45H87.62l-1,2.45a1,1,0,0,1-.38.48,1,1,0,0,1-.54.16,1.08,1.08,0,0,1-.73-.29.91.91,0,0,1-.33-.71,1.17,1.17,0,0,1,.1-.47L89.5,49.36A1.16,1.16,0,0,1,90,48.8a1.32,1.32,0,0,1,1.37,0,1.16,1.16,0,0,1,.48.56l4.8,10.82A1.17,1.17,0,0,1,96.73,60.65Zm-8.34-3.9H93l-2.29-5.42Z" transform="translate(-33.18 -24.59)"/><path class="cls-13" d="M106.32,55.79a.87.87,0,0,1,0,1.15.72.72,0,0,1-.55.23h-2.71V60a.83.83,0,0,1-.22.58.75.75,0,0,1-1.09,0,.83.83,0,0,1-.22-.58V57.17H98.83a.72.72,0,0,1-.55-.23.87.87,0,0,1,0-1.15.72.72,0,0,1,.55-.23h2.71V52.71a.8.8,0,0,1,.22-.57.77.77,0,0,1,1.09,0,.8.8,0,0,1,.22.57v2.85h2.71A.73.73,0,0,1,106.32,55.79Z" transform="translate(-33.18 -24.59)"/><path class="cls-6" d="M110.48,45.29c-9.27-5.38-19.69-9.41-29.3-2.42-7.78,5.66-8.44,18.39-2.24,25.58,7.05,8.18,21.85,6.6,29.78.67,10.29-7.69,5.59-23.39,2.1-33.37-.39-1.1-2.15-.63-1.76.49,3.06,8.75,7.71,22.64-.05,30.26C102.4,73,87.89,74.8,80.94,67.92c-6.78-6.71-5.49-19.58,2.61-24.42,8.91-5.32,17.78-1.4,26,3.37a.92.92,0,0,0,.92-1.58Z" transform="translate(-33.18 -24.59)"/><path class="cls-14" d="M67.88,120.9A34.7,34.7,0,0,1,60.93,52.2a1,1,0,0,1,.38,1.87A32.79,32.79,0,1,0,100.67,86.2a1,1,0,0,1,1.91,0A34.73,34.73,0,0,1,67.88,120.9Z" transform="translate(-33.18 -24.59)"/><path class="cls-14" d="M60.37,53.33c-2.21-1.75-3.6-5.55-4-8.26a26,26,0,0,0,11.49,7.39c-4.07,2.2-7,6-9.51,9.82C58.27,59.34,58.57,55.74,60.37,53.33Z" transform="translate(-33.18 -24.59)"/><polygon class="cls-15" points="16.29 56.16 16.5 56.98 17.55 56.42 17.55 61.71 18.55 61.71 18.55 55.4 17.74 55.4 16.29 56.16"/><path class="cls-15" d="M55.91,79.88c-1.37,0-2.23,1.26-2.23,3.28s.83,3.24,2.12,3.24S58,85.19,58,83.08,57.25,79.88,55.91,79.88Zm0,.83c1,0,1.14,1.5,1.14,2.4s-.15,2.45-1.15,2.45c-.71,0-1.15-.92-1.15-2.4S55.15,80.72,55.86,80.72Z" transform="translate(-33.18 -24.59)"/><path class="cls-15" d="M67.91,88.3c-1.23-.32-2.43-.69-3.48-1.05a1.75,1.75,0,0,0-.55-.13c-2.16-.08-4-1.67-4-4.6s1.78-4.79,4.24-4.79,4.08,1.92,4.08,4.6c0,2.34-1.08,3.83-2.59,4.36v.05c.9.23,1.89.45,2.66.58Zm-1-5.93c0-1.82-.95-3.7-2.88-3.7s-3,1.84-2.94,3.81,1.05,3.67,2.89,3.67S66.93,84.45,66.93,82.37Z" transform="translate(-33.18 -24.59)"/><path class="cls-15" d="M74.54,88.68h0l-1.73.93-.26-1,2.17-1.16h1.15v9.95h-1.3Z" transform="translate(-33.18 -24.59)"/><path class="cls-15" d="M83,97.35c0-.28,0-.73,0-1.23V90.24H81.92v2.67a1.8,1.8,0,0,0-1.36-.54,2.1,2.1,0,0,0-1.5.63,2.83,2.83,0,0,0-.75,2,2.29,2.29,0,0,0,2.15,2.53A1.93,1.93,0,0,0,82,96.84l0,.63h1Zm-2.33-.69c-1,0-1.31-.9-1.31-1.67,0-1,.54-1.75,1.33-1.75a1.18,1.18,0,0,1,1.16.93,1.39,1.39,0,0,1,0,.34v.83a1.4,1.4,0,0,1,0,.35A1.21,1.21,0,0,1,80.7,96.67Z" transform="translate(-33.18 -24.59)"/><rect class="cls-15" x="58.79" y="87.02" width="22.82" height="1" transform="translate(-70.48 95.05) rotate(-67.91)"/><path class="cls-14" d="M67,67.21a.72.72,0,0,1-.71-.71V60.41a.71.71,0,1,1,1.43,0V66.5A.72.72,0,0,1,67,67.21Z" transform="translate(-33.18 -24.59)"/><path class="cls-14" d="M67,115.66a.72.72,0,0,1-.71-.71v-6.09a.71.71,0,0,1,1.43,0v6.09A.72.72,0,0,1,67,115.66Z" transform="translate(-33.18 -24.59)"/><path class="cls-14" d="M94.87,88.06H88.78a.71.71,0,0,1,0-1.43h6.09a.71.71,0,0,1,0,1.43Z" transform="translate(-33.18 -24.59)"/><path class="cls-14" d="M46.43,88.06H40.34a.71.71,0,0,1,0-1.43h6.09a.71.71,0,1,1,0,1.43Z" transform="translate(-33.18 -24.59)"/><path class="cls-14" d="M87.17,107.56a.71.71,0,0,1-.5-.21L82.36,103a.71.71,0,1,1,1-1l4.31,4.3a.71.71,0,0,1-.5,1.22Z" transform="translate(-33.18 -24.59)"/><path class="cls-14" d="M52.91,73.3a.71.71,0,0,1-.5-.21l-4.31-4.3a.71.71,0,0,1,1-1l4.31,4.3a.71.71,0,0,1-.5,1.22Z" transform="translate(-33.18 -24.59)"/><path class="cls-14" d="M47.74,107.39a.71.71,0,0,1-.5-1.22l4.31-4.3a.71.71,0,0,1,1,1l-4.31,4.3A.71.71,0,0,1,47.74,107.39Z" transform="translate(-33.18 -24.59)"/><path class="cls-2" d="M294.12,133.83v3.1h3.59v-3.1h1v7.42h-1v-3.48h-3.59v3.48h-1v-7.42Z" transform="translate(-33.18 -24.59)"/><path class="cls-2" d="M305.12,138.54a2.6,2.6,0,0,1-2.65,2.83,2.53,2.53,0,0,1-2.55-2.74,2.6,2.6,0,0,1,2.64-2.83A2.52,2.52,0,0,1,305.12,138.54Zm-4.22.05c0,1.17.67,2,1.62,2s1.62-.87,1.62-2.07c0-.9-.45-2-1.6-2S300.9,137.58,300.9,138.59Z" transform="translate(-33.18 -24.59)"/><path class="cls-2" d="M310.8,139.79c0,.55,0,1,0,1.45H310l-.05-.87h0a2,2,0,0,1-1.76,1c-.84,0-1.84-.46-1.84-2.33v-3.11h1v2.95c0,1,.31,1.69,1.19,1.69a1.37,1.37,0,0,0,1.36-1.38v-3.27h1Z" transform="translate(-33.18 -24.59)"/><path class="cls-2" d="M312.4,137.58c0-.63,0-1.17,0-1.66h.85l0,1h0a1.6,1.6,0,0,1,1.47-1.17,1.07,1.07,0,0,1,.28,0v.91a1.49,1.49,0,0,0-.33,0,1.36,1.36,0,0,0-1.3,1.24,2.66,2.66,0,0,0,0,.45v2.84h-1Z" transform="translate(-33.18 -24.59)"/><path class="cls-2" d="M315.87,140.25a2.53,2.53,0,0,0,1.28.38c.7,0,1-.35,1-.79s-.28-.71-1-1c-1-.34-1.41-.87-1.41-1.51a1.64,1.64,0,0,1,1.84-1.56,2.66,2.66,0,0,1,1.31.33l-.24.7a2.07,2.07,0,0,0-1.09-.31c-.57,0-.89.33-.89.73s.32.64,1,.9c.92.35,1.4.81,1.4,1.61s-.73,1.6-2,1.6a3,3,0,0,1-1.5-.36Z" transform="translate(-33.18 -24.59)"/><path class="cls-2" d="M322.72,133.92a11.09,11.09,0,0,1,1.84-.14,3,3,0,0,1,2.08.62,2,2,0,0,1,.65,1.55,2.18,2.18,0,0,1-.57,1.58,3.08,3.08,0,0,1-2.27.81,3.26,3.26,0,0,1-.77-.07v3h-1Zm1,3.58a3.18,3.18,0,0,0,.79.08c1.16,0,1.86-.56,1.86-1.58s-.69-1.45-1.75-1.45a4,4,0,0,0-.9.08Z" transform="translate(-33.18 -24.59)"/><path class="cls-2" d="M328.36,137.58c0-.63,0-1.17,0-1.66h.85l0,1h0a1.6,1.6,0,0,1,1.47-1.17,1.07,1.07,0,0,1,.28,0v.91a1.49,1.49,0,0,0-.33,0,1.36,1.36,0,0,0-1.3,1.24,2.66,2.66,0,0,0,0,.45v2.84h-1Z" transform="translate(-33.18 -24.59)"/><path class="cls-2" d="M334.85,141.24l-.08-.67h0a2,2,0,0,1-1.63.79,1.52,1.52,0,0,1-1.63-1.53c0-1.29,1.14-2,3.2-2v-.11a1.1,1.1,0,0,0-1.21-1.23,2.66,2.66,0,0,0-1.39.4l-.22-.64a3.3,3.3,0,0,1,1.75-.47c1.63,0,2,1.11,2,2.18v2a7.46,7.46,0,0,0,.09,1.28Zm-.14-2.72c-1.06,0-2.25.17-2.25,1.2a.86.86,0,0,0,.91.92,1.33,1.33,0,0,0,1.29-.89,1,1,0,0,0,.05-.31Z" transform="translate(-33.18 -24.59)"/><path class="cls-2" d="M341,141a3.57,3.57,0,0,1-1.53.31,2.53,2.53,0,0,1-2.65-2.72,2.71,2.71,0,0,1,2.86-2.83,3.25,3.25,0,0,1,1.34.27l-.22.75a2.24,2.24,0,0,0-1.12-.25,2,2,0,0,0,0,4,2.75,2.75,0,0,0,1.19-.26Z" transform="translate(-33.18 -24.59)"/><path class="cls-2" d="M343.44,134.39v1.53h1.39v.74h-1.39v2.87c0,.66.19,1,.73,1a2.15,2.15,0,0,0,.56-.07l0,.73a2.37,2.37,0,0,1-.86.13,1.34,1.34,0,0,1-1-.41,2,2,0,0,1-.37-1.39v-2.9h-.83v-.74h.83v-1.28Z" transform="translate(-33.18 -24.59)"/><path class="cls-2" d="M347,134.42a.6.6,0,0,1-1.2,0,.59.59,0,0,1,.61-.6A.57.57,0,0,1,347,134.42Zm-1.08,6.82v-5.33h1v5.33Z" transform="translate(-33.18 -24.59)"/><path class="cls-2" d="M352.29,141a3.57,3.57,0,0,1-1.53.31,2.53,2.53,0,0,1-2.65-2.72,2.71,2.71,0,0,1,2.86-2.83,3.25,3.25,0,0,1,1.34.27l-.22.75a2.24,2.24,0,0,0-1.12-.25,2,2,0,0,0,0,4,2.75,2.75,0,0,0,1.19-.26Z" transform="translate(-33.18 -24.59)"/><path class="cls-2" d="M353.89,138.76a1.71,1.71,0,0,0,1.83,1.85,3.5,3.5,0,0,0,1.47-.28l.17.69a4.32,4.32,0,0,1-1.77.33,2.47,2.47,0,0,1-2.62-2.68,2.58,2.58,0,0,1,2.5-2.87,2.26,2.26,0,0,1,2.2,2.51,3.69,3.69,0,0,1,0,.45Zm2.84-.69a1.38,1.38,0,0,0-1.34-1.57,1.6,1.6,0,0,0-1.49,1.57Z" transform="translate(-33.18 -24.59)"/><path class="cls-2" d="M363.46,133.43v6.44c0,.47,0,1,0,1.38h-.87l0-.92h0a2,2,0,0,1-1.82,1,2.43,2.43,0,0,1-2.28-2.71c0-1.77,1.09-2.86,2.39-2.86a1.78,1.78,0,0,1,1.61.81h0v-3.18Zm-1,4.65a1.7,1.7,0,0,0,0-.41,1.42,1.42,0,0,0-1.4-1.12c-1,0-1.59.88-1.59,2.06s.53,2,1.57,2a1.46,1.46,0,0,0,1.42-1.16,1.67,1.67,0,0,0,0-.42Z" transform="translate(-33.18 -24.59)"/><rect class="cls-16" x="45.78" y="153.9" width="42.5" height="1"/><rect class="cls-16" x="50.59" y="150.46" width="40.5" height="1"/><rect class="cls-16" x="56.53" y="147.04" width="36.88" height="0.85"/><rect class="cls-16" x="61.65" y="143.4" width="33.5" height="0.75"/><rect class="cls-16" x="80.02" y="140.34" width="17.56" height="0.75"/><rect class="cls-6" x="238.91" y="84.44" width="14" height="17.06"/><rect class="cls-6" x="262.41" y="67.44" width="14" height="34.06"/><rect class="cls-6" x="285.91" y="50.44" width="14" height="51.06"/><rect class="cls-6" x="309.41" y="37.44" width="14" height="64.06"/><rect class="cls-6" x="332.91" y="24.44" width="14" height="77.06"/><path class="cls-2" d="M248.94,109.14V112h2.67v-3.21h.8V113H245v-4h.8v3h2.34v-2.88Z" transform="translate(-33.18 -24.59)"/><path class="cls-2" d="M247.09,107.15l1.14-.76c.3-.2.57-.36.87-.54v0c-.32-.18-.59-.35-.88-.53l-1.13-.75v-1l2.58,1.81,2.75-1.87v1.1l-1.2.78c-.31.21-.61.38-.92.57v0c.32.18.6.36.92.56l1.2.77v1.07l-2.72-1.89-2.61,1.8Z" transform="translate(-33.18 -24.59)"/><path class="cls-2" d="M252.42,99.56l-.67.08v0a2,2,0,0,1,.79,1.63,1.52,1.52,0,0,1-1.53,1.63c-1.29,0-2-1.14-2-3.2h-.11a1.1,1.1,0,0,0-1.23,1.21,2.65,2.65,0,0,0,.39,1.39l-.64.22a3.29,3.29,0,0,1-.47-1.75c0-1.63,1.11-2,2.18-2h2a7.47,7.47,0,0,0,1.28-.09Zm-2.72.14c0,1.06.17,2.25,1.2,2.25a.86.86,0,0,0,.93-.91,1.33,1.33,0,0,0-.89-1.29,1,1,0,0,0-.31-.05Z" transform="translate(-33.18 -24.59)"/><path class="cls-2" d="M248.54,97.21c-.55,0-1,0-1.44,0V96.4l.86,0v0a1.83,1.83,0,0,1-1-1.67A1.57,1.57,0,0,1,248,93.15v0a2.21,2.21,0,0,1-.69-.59,1.82,1.82,0,0,1-.37-1.18c0-.7.46-1.75,2.31-1.75h3.14v.95h-3c-1,0-1.64.37-1.64,1.16a1.25,1.25,0,0,0,.88,1.14,1.58,1.58,0,0,0,.48.08h3.29v.95h-3.19c-.85,0-1.46.37-1.46,1.11a1.44,1.44,0,0,0,1.44,1.28h3.21v.95Z" transform="translate(-33.18 -24.59)"/><path class="cls-2" d="M251.25,85.8a3.4,3.4,0,0,0,.48-1.72c0-1-.52-1.55-1.27-1.55s-1.09.4-1.47,1.4c-.43,1.21-1.06,2-2.1,2a2.14,2.14,0,0,1-2-2.4,3.36,3.36,0,0,1,.36-1.64l.78.26a3,3,0,0,0-.35,1.41c0,1,.61,1.4,1.11,1.4.69,0,1-.45,1.43-1.47.48-1.25,1.09-1.89,2.18-1.89s2.13.85,2.13,2.6a3.84,3.84,0,0,1-.47,1.89Z" transform="translate(-33.18 -24.59)"/><path class="cls-2" d="M252.22,76.42a3.55,3.55,0,0,1,.31,1.53,2.53,2.53,0,0,1-2.72,2.65A2.71,2.71,0,0,1,247,77.74a3.23,3.23,0,0,1,.28-1.34l.75.22a2.23,2.23,0,0,0-.25,1.12,2,2,0,0,0,4,0,2.75,2.75,0,0,0-.26-1.19Z" transform="translate(-33.18 -24.59)"/><path class="cls-2" d="M249.71,70.53a2.6,2.6,0,0,1,2.83,2.65,2.53,2.53,0,0,1-2.74,2.55A2.6,2.6,0,0,1,247,73.09,2.52,2.52,0,0,1,249.71,70.53Zm.05,4.22c1.17,0,2-.67,2-1.62s-.87-1.62-2.07-1.62c-.9,0-2,.45-2,1.6S248.76,74.75,249.77,74.75Z" transform="translate(-33.18 -24.59)"/><path class="cls-2" d="M248.76,69.31c-.63,0-1.17,0-1.66,0v-.85l1,0v0A1.59,1.59,0,0,1,247,67a1.07,1.07,0,0,1,0-.28h.91a1.49,1.49,0,0,0,0,.33,1.36,1.36,0,0,0,1.24,1.3,2.65,2.65,0,0,0,.45,0h2.84v1Z" transform="translate(-33.18 -24.59)"/><path class="cls-2" d="M249.93,65.29a1.71,1.71,0,0,0,1.85-1.83,3.5,3.5,0,0,0-.28-1.47l.69-.17a4.31,4.31,0,0,1,.33,1.77,2.47,2.47,0,0,1-2.68,2.62,2.58,2.58,0,0,1-2.87-2.5,2.26,2.26,0,0,1,2.51-2.2,3.72,3.72,0,0,1,.45,0Zm-.69-2.84a1.38,1.38,0,0,0-1.57,1.34,1.6,1.6,0,0,0,1.57,1.49Z" transform="translate(-33.18 -24.59)"/><path class="cls-2" d="M251.43,60.45a2.53,2.53,0,0,0,.38-1.28c0-.7-.35-1-.79-1s-.71.28-1,1c-.34,1-.87,1.41-1.51,1.41A1.64,1.64,0,0,1,247,58.7a2.66,2.66,0,0,1,.33-1.31l.71.24a2.06,2.06,0,0,0-.31,1.09c0,.57.33.89.73.89s.64-.32.9-1c.35-.92.81-1.4,1.61-1.4s1.6.73,1.6,2a3,3,0,0,1-.36,1.5Z" transform="translate(-33.18 -24.59)"/><path class="cls-2" d="M392.1,127.09h-133V47.94a1,1,0,0,1,2,0v77.15h131a1,1,0,0,1,0,2Z" transform="translate(-33.18 -24.59)"/><path class="cls-2" d="M296.35,325.48v3.1h3.59v-3.1h1v7.42h-1v-3.48h-3.59v3.48h-1v-7.42Z" transform="translate(-33.18 -24.59)"/><path class="cls-2" d="M307.35,330.19A2.6,2.6,0,0,1,304.7,333a2.53,2.53,0,0,1-2.55-2.74,2.6,2.6,0,0,1,2.64-2.83A2.52,2.52,0,0,1,307.35,330.19Zm-4.22.05c0,1.17.67,2,1.62,2s1.62-.87,1.62-2.07c0-.9-.45-2-1.6-2S303.13,329.23,303.13,330.24Z" transform="translate(-33.18 -24.59)"/><path class="cls-2" d="M313,331.44c0,.55,0,1,0,1.45h-.86l-.05-.87h0a2,2,0,0,1-1.76,1c-.84,0-1.84-.46-1.84-2.33v-3.11h1v2.95c0,1,.31,1.69,1.19,1.69a1.37,1.37,0,0,0,1.36-1.38v-3.27h1Z" transform="translate(-33.18 -24.59)"/><path class="cls-2" d="M314.63,329.23c0-.63,0-1.17,0-1.66h.85l0,1h0a1.6,1.6,0,0,1,1.47-1.17,1.07,1.07,0,0,1,.28,0v.91a1.49,1.49,0,0,0-.33,0,1.36,1.36,0,0,0-1.3,1.24,2.66,2.66,0,0,0,0,.45v2.84h-1Z" transform="translate(-33.18 -24.59)"/><path class="cls-2" d="M318.1,331.9a2.53,2.53,0,0,0,1.28.38c.7,0,1-.35,1-.79s-.28-.71-1-1c-1-.34-1.41-.87-1.41-1.51a1.64,1.64,0,0,1,1.84-1.56,2.66,2.66,0,0,1,1.31.33l-.24.7a2.07,2.07,0,0,0-1.09-.31c-.57,0-.89.33-.89.73s.32.64,1,.9c.92.35,1.4.81,1.4,1.61s-.73,1.6-2,1.6a3,3,0,0,1-1.5-.36Z" transform="translate(-33.18 -24.59)"/><path class="cls-2" d="M324.82,331.73a3.4,3.4,0,0,0,1.72.48c1,0,1.55-.52,1.55-1.27s-.4-1.09-1.4-1.47c-1.21-.43-2-1.06-2-2.1a2.14,2.14,0,0,1,2.4-2,3.36,3.36,0,0,1,1.64.36l-.26.78a2.94,2.94,0,0,0-1.41-.35c-1,0-1.4.61-1.4,1.11,0,.69.45,1,1.47,1.43,1.25.48,1.89,1.09,1.89,2.18s-.85,2.13-2.6,2.13a3.83,3.83,0,0,1-1.89-.47Z" transform="translate(-33.18 -24.59)"/><path class="cls-2" d="M331.48,326v1.53h1.39v.74h-1.39v2.87c0,.66.19,1,.73,1a2.15,2.15,0,0,0,.56-.07l0,.73a2.37,2.37,0,0,1-.86.13,1.34,1.34,0,0,1-1-.41,2,2,0,0,1-.37-1.39v-2.9h-.83v-.74h.83v-1.28Z" transform="translate(-33.18 -24.59)"/><path class="cls-2" d="M338.41,331.44c0,.55,0,1,0,1.45h-.86l-.05-.87h0a2,2,0,0,1-1.76,1c-.84,0-1.84-.46-1.84-2.33v-3.11h1v2.95c0,1,.31,1.69,1.19,1.69a1.37,1.37,0,0,0,1.36-1.38v-3.27h1Z" transform="translate(-33.18 -24.59)"/><path class="cls-2" d="M344.61,325.08v6.44c0,.47,0,1,0,1.38h-.87l0-.92h0a2,2,0,0,1-1.82,1,2.43,2.43,0,0,1-2.28-2.71c0-1.77,1.09-2.86,2.39-2.86a1.78,1.78,0,0,1,1.61.81h0v-3.18Zm-1,4.65a1.7,1.7,0,0,0,0-.41,1.42,1.42,0,0,0-1.4-1.12c-1,0-1.59.88-1.59,2.06s.53,2,1.57,2a1.46,1.46,0,0,0,1.42-1.16,1.67,1.67,0,0,0,0-.42Z" transform="translate(-33.18 -24.59)"/><path class="cls-2" d="M347.29,326.07a.6.6,0,0,1-1.2,0,.59.59,0,0,1,.61-.6A.57.57,0,0,1,347.29,326.07Zm-1.08,6.82v-5.33h1v5.33Z" transform="translate(-33.18 -24.59)"/><path class="cls-2" d="M349.33,330.41a1.71,1.71,0,0,0,1.83,1.85,3.5,3.5,0,0,0,1.47-.28l.17.69A4.32,4.32,0,0,1,351,333a2.47,2.47,0,0,1-2.62-2.68,2.58,2.58,0,0,1,2.5-2.87,2.26,2.26,0,0,1,2.2,2.51,3.69,3.69,0,0,1,0,.45Zm2.84-.69a1.38,1.38,0,0,0-1.34-1.57,1.6,1.6,0,0,0-1.49,1.57Z" transform="translate(-33.18 -24.59)"/><path class="cls-2" d="M358.9,325.08v6.44c0,.47,0,1,0,1.38h-.87l0-.92h0a2,2,0,0,1-1.82,1,2.43,2.43,0,0,1-2.28-2.71c0-1.77,1.09-2.86,2.39-2.86a1.78,1.78,0,0,1,1.61.81h0v-3.18Zm-1,4.65a1.7,1.7,0,0,0,0-.41,1.42,1.42,0,0,0-1.4-1.12c-1,0-1.59.88-1.59,2.06s.53,2,1.57,2a1.46,1.46,0,0,0,1.42-1.16,1.67,1.67,0,0,0,0-.42Z" transform="translate(-33.18 -24.59)"/><rect class="cls-6" x="238.91" y="270.07" width="14" height="23.06"/><rect class="cls-6" x="262.41" y="263.07" width="14" height="30.06"/><rect class="cls-6" x="285.91" y="270.07" width="14" height="23.06"/><rect class="cls-6" x="309.41" y="263.07" width="14" height="30.06"/><rect class="cls-6" x="332.91" y="270.07" width="14" height="23.06"/><path class="cls-2" d="M248.94,300.77v2.88h2.67v-3.21h.8v4.17H245v-4h.8v3h2.34v-2.88Z" transform="translate(-33.18 -24.59)"/><path class="cls-2" d="M247.09,298.78l1.14-.76c.3-.2.57-.36.87-.54v0c-.32-.18-.59-.35-.88-.53l-1.13-.75v-1l2.58,1.81,2.75-1.87v1.1l-1.2.78c-.31.21-.61.38-.92.57v0c.32.18.6.36.92.56l1.2.77v1.07l-2.72-1.89-2.61,1.8Z" transform="translate(-33.18 -24.59)"/><path class="cls-2" d="M252.42,291.19l-.67.08v0a2,2,0,0,1,.79,1.63,1.52,1.52,0,0,1-1.53,1.63c-1.29,0-2-1.14-2-3.2h-.11a1.1,1.1,0,0,0-1.23,1.21,2.65,2.65,0,0,0,.39,1.39l-.64.22a3.29,3.29,0,0,1-.47-1.75c0-1.63,1.11-2,2.18-2h2a7.47,7.47,0,0,0,1.28-.09Zm-2.72.14c0,1.06.17,2.25,1.2,2.25a.86.86,0,0,0,.93-.91,1.33,1.33,0,0,0-.89-1.29,1,1,0,0,0-.31-.05Z" transform="translate(-33.18 -24.59)"/><path class="cls-2" d="M248.54,288.84c-.55,0-1,0-1.44,0V288l.86,0v0a1.83,1.83,0,0,1-1-1.67,1.57,1.57,0,0,1,1.07-1.51v0a2.21,2.21,0,0,1-.69-.59A1.82,1.82,0,0,1,247,283c0-.7.46-1.75,2.31-1.75h3.14v.95h-3c-1,0-1.64.37-1.64,1.16a1.25,1.25,0,0,0,.88,1.14,1.58,1.58,0,0,0,.48.08h3.29v.95h-3.19c-.85,0-1.46.37-1.46,1.11a1.44,1.44,0,0,0,1.44,1.28h3.21v.95Z" transform="translate(-33.18 -24.59)"/><path class="cls-2" d="M251.25,277.43a3.4,3.4,0,0,0,.48-1.72c0-1-.52-1.55-1.27-1.55s-1.09.4-1.47,1.4c-.43,1.21-1.06,2-2.1,2a2.14,2.14,0,0,1-2-2.4,3.36,3.36,0,0,1,.36-1.64l.78.26a3,3,0,0,0-.35,1.41c0,1,.61,1.4,1.11,1.4.69,0,1-.45,1.43-1.47.48-1.25,1.09-1.89,2.18-1.89s2.13.85,2.13,2.6a3.84,3.84,0,0,1-.47,1.89Z" transform="translate(-33.18 -24.59)"/><path class="cls-2" d="M252.22,268a3.55,3.55,0,0,1,.31,1.53,2.53,2.53,0,0,1-2.72,2.65,2.71,2.71,0,0,1-2.83-2.86,3.23,3.23,0,0,1,.28-1.34l.75.22a2.23,2.23,0,0,0-.25,1.12,2,2,0,0,0,4,0,2.75,2.75,0,0,0-.26-1.19Z" transform="translate(-33.18 -24.59)"/><path class="cls-2" d="M249.71,262.16a2.6,2.6,0,0,1,2.83,2.65,2.53,2.53,0,0,1-2.74,2.55,2.6,2.6,0,0,1-2.83-2.64A2.52,2.52,0,0,1,249.71,262.16Zm.05,4.22c1.17,0,2-.67,2-1.62s-.87-1.62-2.07-1.62c-.9,0-2,.45-2,1.6S248.76,266.38,249.77,266.38Z" transform="translate(-33.18 -24.59)"/><path class="cls-2" d="M248.76,260.94c-.63,0-1.17,0-1.66,0v-.85l1,0v0a1.59,1.59,0,0,1-1.17-1.47,1.07,1.07,0,0,1,0-.28h.91a1.49,1.49,0,0,0,0,.33,1.36,1.36,0,0,0,1.24,1.3,2.65,2.65,0,0,0,.45,0h2.84v1Z" transform="translate(-33.18 -24.59)"/><path class="cls-2" d="M249.93,256.91a1.71,1.71,0,0,0,1.85-1.83,3.5,3.5,0,0,0-.28-1.47l.69-.17a4.31,4.31,0,0,1,.33,1.77,2.47,2.47,0,0,1-2.68,2.62,2.58,2.58,0,0,1-2.87-2.5,2.26,2.26,0,0,1,2.51-2.2,3.72,3.72,0,0,1,.45,0Zm-.69-2.84a1.38,1.38,0,0,0-1.57,1.34,1.6,1.6,0,0,0,1.57,1.49Z" transform="translate(-33.18 -24.59)"/><path class="cls-2" d="M251.43,252.07a2.53,2.53,0,0,0,.38-1.28c0-.7-.35-1-.79-1s-.71.28-1,1c-.34,1-.87,1.41-1.51,1.41a1.64,1.64,0,0,1-1.56-1.84,2.66,2.66,0,0,1,.33-1.31l.71.24a2.06,2.06,0,0,0-.31,1.09c0,.57.33.89.73.89s.64-.32.9-1c.35-.92.81-1.4,1.61-1.4s1.6.73,1.6,2a3,3,0,0,1-.36,1.5Z" transform="translate(-33.18 -24.59)"/><path class="cls-2" d="M392.1,318.72h-133V239.57a1,1,0,0,1,2,0v77.15h131a1,1,0,0,1,0,2Z" transform="translate(-33.18 -24.59)"/><path class="cls-7" d="M153.74,350.66c-1.2,9.6-6.8,10.51-12.71,11.69-10.28,2.06-26.38,5.22-40.51,7.74C77.59,374.2,77,358.32,75.19,346.19c-4.13-9.95-14.35-32.81-14.92-43.11-.56-10.07.12-19.35,9.15-22.56,6.12-2.14,29.32-13,31.92-16.7l8.87,14.38a5.83,5.83,0,0,0,10.1-.46c2-3.83,4.28-7.8,6.12-9.64a.33.33,0,0,0,.31.31c3.52,4.74,31.34,16,33.48,23.38C161.74,297.16,154.94,341.06,153.74,350.66Z" transform="translate(-33.18 -24.59)"/><path class="cls-4" d="M125.81,259.85c-.77,2-2.45,4.13.61,8.57-1.84,2-4.28,6.12-6.27,9.95a5.68,5.68,0,0,1-9.79.46L99,266.12a27.43,27.43,0,0,0,3.67-4.13,50.41,50.41,0,0,0,6.58-14.69c-3.52-.92-7-3.52-7.65-6.43-.77-3.52,1.07-9.18,5-9.49,7-.31,8.57.31,10.56-8.11s21.88,1.22,21.88,1.22.61,9.18-.15,11.63a11.86,11.86,0,0,0-.77,4.59,54.19,54.19,0,0,0,.31,7.19C139,251.74,134.69,261.84,125.81,259.85Z" transform="translate(-33.18 -24.59)"/><ellipse class="cls-10" cx="93.55" cy="215.83" rx="1.22" ry="2.45"/><ellipse class="cls-10" cx="103.49" cy="215.52" rx="1.07" ry="2.3"/><path class="cls-10" d="M134,248.45a3.36,3.36,0,0,1-1.43-.38.34.34,0,0,1,.3-.62c.64.3,1.49.54,1.89-.06s.19-2.51-.9-3.5a.34.34,0,1,1,.46-.51c1.26,1.16,1.75,3.29,1,4.4A1.53,1.53,0,0,1,134,248.45Z" transform="translate(-33.18 -24.59)"/><path class="cls-5" d="M125.81,259.85s-4.13-1.38-5.36-4.74c0,4.74,4.28,7.65,4.28,7.65Z" transform="translate(-33.18 -24.59)"/><path class="cls-9" d="M97.2,221.53c5.06-9.27,22.23-8.64,29.53-9,8.59-.39,16.06-4.17,16,5.27a49.67,49.67,0,0,1-3.67,17.72,22.67,22.67,0,0,0-1.82-9.51c-.46-1.38-2.78,1-6.75,1.18s-8.71-.26-8.86.5L118.45,239a4.42,4.42,0,0,1-3.5,3.13h0s.15-9.33-6.89-9-6.58,11.78,1.38,14.08a42.22,42.22,0,0,1-3.06,8.42S92.14,230.8,97.2,221.53Z" transform="translate(-33.18 -24.59)"/><path class="cls-10" d="M131.82,254.06a4.24,4.24,0,0,1-3.95-2.49.34.34,0,1,1,.61-.32c1.75,3.36,5.23,1.78,5.38,1.71a.34.34,0,0,1,.29.62A6.17,6.17,0,0,1,131.82,254.06Z" transform="translate(-33.18 -24.59)"/><path class="cls-10" d="M129.26,235.89a.34.34,0,0,1-.19-.06s-2.71-1.77-4.9-.32a.34.34,0,1,1-.38-.57c2.57-1.71,5.54.24,5.66.32a.34.34,0,0,1-.19.63Z" transform="translate(-33.18 -24.59)"/><path class="cls-10" d="M135.47,235.41a.34.34,0,0,1-.26-.57,2.89,2.89,0,0,1,3.08-.58.34.34,0,0,1-.21.66,2.23,2.23,0,0,0-2.37.38A.34.34,0,0,1,135.47,235.41Z" transform="translate(-33.18 -24.59)"/><g class="cls-17"><path class="cls-12" d="M129.61,228.12l-.7-.48c0-.06,4-5.92,2.7-10.79a7.4,7.4,0,0,0-4.12-4.77l.38-.76a8.21,8.21,0,0,1,4.55,5.32C133.78,221.88,129.78,227.87,129.61,228.12Z" transform="translate(-33.18 -24.59)"/><path class="cls-12" d="M132.89,228l-.57-.63s4.74-4.32,4.59-9.26c-.07-2.49-1.37-4.76-3.85-6.74l.53-.66c2.69,2.14,4.09,4.63,4.17,7.38C137.92,223.39,133.1,227.79,132.89,228Z" transform="translate(-33.18 -24.59)"/></g><path class="cls-8" d="M114.23,287.14c-9.23,0-19-17.24-19.45-18l1.48-.83c.1.17,9.73,17.11,18,17.11h0c2.84,0,6.09-.78,11.76-9.88l1.44.9c-6.13,9.83-9.87,10.66-13.19,10.68Z" transform="translate(-33.18 -24.59)"/><path class="cls-14" d="M158,293.42,126.62,334.2l23,9.69,16.52,6.22,39-41.65Z" transform="translate(-33.18 -24.59)"/><polygon class="cls-15" points="172 283.87 131.37 270.93 134.1 267.48 137.2 268.81 172 283.87"/><polygon class="cls-15" points="172 283.87 137.2 268.81 140.36 265.1 146.97 269.02 172 283.87"/><polygon class="cls-14" points="172 283.87 146.97 269.02 155.96 259.77 172 283.87"/><path class="cls-4" d="M188.48,326.28c-.49,5.77-6.18,5.15-7,6.4a7.39,7.39,0,0,1-3.51,2.93h0a2.79,2.79,0,0,1-2,.06c.2.9-1.07,3.16-2.7,3.16s-.93,1.1-3.54,1.36a16.07,16.07,0,0,1-6.18-1.1s-6.55,2.32-14,4.81h0c-7.77,2.58-16.47,5.34-19.6,5.8-6.18.9-39.32,5.08-47,2s-11.8-21.33-11.8-21.33L100,323l3.8,8.85s25.93.47,31.7,0c4.79-.41,9.43-1.1,13.75-1.8,9.54-1.54,8.53-2.55,10.24-4.52s6.82-9,11.34-9.8,8.32,2.39,6.87,3.58-4.87.29-5.57.64a6.3,6.3,0,0,0-2.2,3.2c0,.73,3.71,3.1,9.16,4.44S186.3,327.56,188.48,326.28Z" transform="translate(-33.18 -24.59)"/></g></svg>