<svg width="398" height="337" viewBox="0 0 398 337" fill="none" xmlns="http://www.w3.org/2000/svg">
<g clip-path="url(#clip0_1251_2702)">
<path d="M344.71 230.36C351.315 230.36 356.67 225.005 356.67 218.4C356.67 211.795 351.315 206.44 344.71 206.44C338.105 206.44 332.75 211.795 332.75 218.4C332.75 225.005 338.105 230.36 344.71 230.36Z" fill="#FEC519"/>
<path d="M358.91 228.91C365.515 228.91 370.87 223.556 370.87 216.95C370.87 210.345 365.515 204.99 358.91 204.99C352.305 204.99 346.95 210.345 346.95 216.95C346.95 223.556 352.305 228.91 358.91 228.91Z" fill="#FEC519"/>
<path d="M366.18 238.74C372.785 238.74 378.14 233.385 378.14 226.78C378.14 220.174 372.785 214.82 366.18 214.82C359.575 214.82 354.22 220.174 354.22 226.78C354.22 233.385 359.575 238.74 366.18 238.74Z" fill="#FEC519"/>
<path d="M364.71 250.22C371.315 250.22 376.67 244.865 376.67 238.26C376.67 231.654 371.315 226.3 364.71 226.3C358.105 226.3 352.75 231.654 352.75 238.26C352.75 244.865 358.105 250.22 364.71 250.22Z" fill="#FEC519"/>
<path d="M186.33 123.12C186.065 123.12 185.81 123.015 185.623 122.827C185.435 122.64 185.33 122.385 185.33 122.12V43.1201C185.33 42.8549 185.435 42.6005 185.623 42.413C185.81 42.2255 186.065 42.1201 186.33 42.1201C186.595 42.1201 186.85 42.2255 187.037 42.413C187.225 42.6005 187.33 42.8549 187.33 43.1201V122.12C187.33 122.385 187.225 122.64 187.037 122.827C186.85 123.015 186.595 123.12 186.33 123.12Z" fill="#69696E"/>
<path d="M277.63 247.18C277.507 247.179 277.385 247.155 277.27 247.11L185.33 212.05V199.05C185.33 198.785 185.435 198.53 185.623 198.343C185.81 198.155 186.065 198.05 186.33 198.05C186.595 198.05 186.85 198.155 187.037 198.343C187.225 198.53 187.33 198.785 187.33 199.05V210.68L277.99 245.25C278.206 245.335 278.385 245.493 278.498 245.696C278.61 245.899 278.648 246.135 278.606 246.363C278.563 246.591 278.442 246.798 278.264 246.947C278.086 247.096 277.862 247.178 277.63 247.18Z" fill="#69696E"/>
<path d="M32.64 268.66C32.4049 268.659 32.1775 268.576 31.9975 268.425C31.8176 268.274 31.6968 268.064 31.6562 267.832C31.6156 267.601 31.6579 267.362 31.7756 267.159C31.8934 266.955 32.079 266.8 32.3 266.72L185.98 210.48C186.229 210.388 186.505 210.4 186.746 210.511C186.987 210.623 187.173 210.825 187.265 211.075C187.356 211.324 187.345 211.6 187.234 211.841C187.122 212.081 186.919 212.268 186.67 212.36L32.99 268.6C32.8779 268.64 32.7593 268.661 32.64 268.66Z" fill="#69696E"/>
<path d="M310.15 105.6V105.87C309.816 108.058 310.339 110.29 311.609 112.102C312.88 113.914 314.8 115.167 316.97 115.6C324.8 117.17 337.07 119.6 347.83 121.5C365.3 124.62 365.72 112.5 367.13 103.28C370.28 95.6998 378.06 78.2798 378.5 70.4398C378.92 62.7698 378.41 55.6998 371.5 53.2498C366.84 51.6198 349.17 43.3298 347.18 40.5298L340.42 51.5298C340 52.1882 339.415 52.7243 338.722 53.0841C338.029 53.4439 337.254 53.6146 336.474 53.5791C335.694 53.5436 334.937 53.3031 334.28 52.8819C333.623 52.4606 333.088 51.8735 332.73 51.1798C331.21 48.2698 329.47 45.2398 328.07 43.8398C328.065 43.8993 328.04 43.9551 327.998 43.9973C327.955 44.0395 327.899 44.0652 327.84 44.0698C325.16 47.6798 303.97 56.2898 302.33 61.8898C301.15 65.9298 297.52 88.0198 310.15 105.6Z" fill="#FE3737"/>
<path d="M328.52 37.4802C329.1 39.0002 330.39 40.6302 328.05 44.0102C329.916 46.3546 331.518 48.8964 332.83 51.5902C333.179 52.2606 333.698 52.8278 334.335 53.235C334.972 53.6421 335.704 53.8751 336.459 53.9105C337.214 53.9459 337.966 53.7826 338.638 53.4369C339.31 53.0911 339.88 52.575 340.29 51.9402L348.92 42.2602C347.883 41.3072 346.945 40.2518 346.12 39.1102C343.865 35.6718 342.177 31.8937 341.12 27.9202C343.8 27.2202 346.48 25.2402 346.95 23.0202C347.53 20.3402 346.13 16.0202 343.1 15.7902C337.74 15.5602 336.57 16.0202 335.1 9.61016C333.63 3.20016 318.43 10.5402 318.43 10.5402C318.43 10.5402 317.96 17.5402 318.55 19.4002C318.974 20.5168 319.171 21.7066 319.13 22.9002C319.175 24.7299 319.098 26.5606 318.9 28.3802C318.5 31.3302 321.72 39.0202 328.52 37.4802Z" fill="#9E5700"/>
<path d="M327.82 24.5701C328.334 24.5701 328.75 23.7329 328.75 22.7001C328.75 21.6673 328.334 20.8301 327.82 20.8301C327.306 20.8301 326.89 21.6673 326.89 22.7001C326.89 23.7329 327.306 24.5701 327.82 24.5701Z" fill="#303134"/>
<path d="M320.24 24.2202C320.693 24.2202 321.06 23.4367 321.06 22.4702C321.06 21.5037 320.693 20.7202 320.24 20.7202C319.787 20.7202 319.42 21.5037 319.42 22.4702C319.42 23.4367 319.787 24.2202 320.24 24.2202Z" fill="#303134"/>
<path d="M322.3 28.8198C322.103 28.8243 321.908 28.779 321.733 28.6881C321.558 28.5972 321.409 28.4636 321.3 28.2998C321.056 27.7327 320.999 27.1031 321.135 26.5012C321.272 25.8993 321.596 25.3562 322.06 24.9498C322.112 24.902 322.18 24.8768 322.251 24.8796C322.321 24.8824 322.387 24.9131 322.435 24.9648C322.483 25.0165 322.508 25.0851 322.505 25.1554C322.502 25.2257 322.472 25.292 322.42 25.3398C322.05 25.6637 321.786 26.0923 321.665 26.5691C321.544 27.0458 321.57 27.5482 321.74 28.0098C322.05 28.4698 322.74 28.2898 323.18 28.0098C323.242 27.9793 323.314 27.9748 323.38 27.9973C323.446 28.0198 323.5 28.0674 323.53 28.1298C323.561 28.1921 323.565 28.264 323.542 28.3296C323.52 28.3953 323.472 28.4493 323.41 28.4798C323.071 28.6763 322.691 28.7926 322.3 28.8198Z" fill="#303134"/>
<path d="M328.52 37.4801C328.52 37.4801 331.67 36.4801 332.6 33.8701C332.6 37.4801 329.34 39.7001 329.34 39.7001L328.52 37.4801Z" fill="#733F00"/>
<path d="M350.32 8.3099C346.46 1.2399 333.39 1.72989 327.82 1.46989C321.28 1.16989 315.59 -1.7101 315.59 5.46989C315.689 10.1034 316.638 14.6793 318.39 18.9699C318.325 16.4813 318.8 14.0081 319.78 11.7199C320.13 10.7199 321.9 12.4999 324.92 12.6199C327.94 12.7399 331.55 12.4199 331.67 12.9999L334.13 21.5699C334.305 22.179 334.649 22.7264 335.121 23.1492C335.593 23.5719 336.175 23.8529 336.8 23.9599C336.8 23.9599 336.68 16.8499 342.05 17.0799C347.42 17.3099 347.05 26.0799 341.05 27.7999C341.597 30.0131 342.378 32.1618 343.38 34.2099C343.38 34.2099 354.18 15.3699 350.32 8.3099Z" fill="#4F6DDB"/>
<path d="M323.95 33.1C323.339 33.0972 322.734 32.9749 322.17 32.74C322.106 32.7109 322.057 32.6576 322.033 32.592C322.008 32.5263 322.011 32.4537 322.04 32.39C322.069 32.3264 322.122 32.2769 322.188 32.2526C322.254 32.2282 322.326 32.2309 322.39 32.26C323.107 32.6263 323.939 32.6953 324.707 32.4519C325.474 32.2086 326.115 31.6725 326.49 30.96C326.504 30.9275 326.525 30.8981 326.551 30.874C326.577 30.8498 326.608 30.8312 326.642 30.8194C326.675 30.8076 326.711 30.8028 326.747 30.8054C326.782 30.8079 326.817 30.8177 326.848 30.8342C326.88 30.8506 326.908 30.8734 326.93 30.9011C326.952 30.9288 326.969 30.9607 326.979 30.995C326.988 31.0293 326.99 31.0652 326.986 31.1005C326.981 31.1358 326.969 31.1696 326.95 31.2C326.69 31.7752 326.268 32.2616 325.735 32.5993C325.201 32.937 324.581 33.111 323.95 33.1Z" fill="#303134"/>
<path d="M325.9 19.2499C325.843 19.2526 325.786 19.2361 325.739 19.2032C325.692 19.1702 325.657 19.1226 325.64 19.0678C325.623 19.0129 325.624 18.954 325.644 18.9001C325.664 18.8462 325.701 18.8005 325.75 18.7699C325.84 18.7099 328.11 17.2199 330.07 18.5299C330.128 18.5684 330.169 18.6285 330.183 18.6969C330.197 18.7654 330.183 18.8366 330.145 18.8949C330.126 18.9238 330.101 18.9487 330.073 18.9681C330.044 18.9875 330.012 19.0011 329.978 19.008C329.91 19.0221 329.838 19.0084 329.78 18.9699C328.12 17.8599 326.07 19.1999 326.05 19.2099C326.005 19.2382 325.953 19.2522 325.9 19.2499Z" fill="#303134"/>
<path d="M321.17 18.8901C321.132 18.8906 321.095 18.8828 321.06 18.8673C321.026 18.8517 320.995 18.8288 320.97 18.8001C320.729 18.5848 320.431 18.443 320.112 18.3916C319.793 18.3402 319.466 18.3813 319.17 18.5101C319.104 18.5294 319.033 18.5225 318.971 18.4908C318.91 18.4592 318.863 18.4053 318.84 18.3401C318.829 18.3073 318.825 18.2727 318.828 18.2382C318.83 18.2037 318.84 18.1702 318.856 18.1394C318.872 18.1087 318.893 18.0815 318.92 18.0593C318.946 18.0371 318.977 18.0204 319.01 18.0101C319.403 17.8504 319.833 17.8069 320.25 17.8849C320.666 17.9629 321.052 18.1591 321.36 18.4501C321.396 18.4877 321.42 18.5352 321.429 18.5865C321.438 18.6378 321.431 18.6906 321.409 18.738C321.388 18.7854 321.353 18.8253 321.308 18.8524C321.264 18.8795 321.212 18.8927 321.16 18.8901H321.17Z" fill="#303134"/>
<path d="M310.13 93.0301C308.45 88.7101 292.02 60.8901 292.03 58.4501C292.04 56.0101 289.25 53.0601 286.18 50.0001C283.11 46.9401 281.44 46.4201 279.28 44.2301C277.12 42.0401 276.59 42.6301 276.34 43.8001C276.09 44.9701 277.22 46.4501 278.34 47.4201C279.46 48.3901 281.51 49.7701 281.54 50.2901C281.57 50.8101 279.89 51.4401 277.08 49.8501C274.909 48.8224 273.18 47.0476 272.21 44.8501C271.14 42.6501 270.31 40.6601 268.96 40.9501C267.61 41.2401 268.52 42.4801 268.52 42.4801C268.52 42.4801 267.62 42.2701 268.08 43.6501C268.546 44.9548 268.917 46.2917 269.19 47.6501C269.53 49.3501 269.37 49.8701 269.76 50.5801C270.15 51.2901 272.52 54.3801 273.34 55.3701C274.16 56.3601 276.1 58.0201 276.84 58.8801C277.936 59.8784 279.194 60.6832 280.56 61.2601C281.8 61.8401 285.2 62.0801 285.76 63.4301C286.14 64.3401 294.68 105.32 301.38 107.82C302.954 108.507 304.71 108.662 306.38 108.26C310.99 107.15 313.33 101.41 310.13 93.0301Z" fill="#9E5700"/>
<path d="M271.48 46.5501C271.425 46.5463 271.371 46.5316 271.321 46.5069C271.272 46.4822 271.228 46.4479 271.191 46.4061C271.155 46.3643 271.128 46.3158 271.11 46.2632C271.093 46.2107 271.086 46.1553 271.09 46.1001C271.057 45.3475 270.844 44.6137 270.47 43.9601C270.285 43.6211 270.012 43.3388 269.679 43.1433C269.346 42.9478 268.966 42.8464 268.58 42.8501C268.469 42.8501 268.362 42.8058 268.283 42.7271C268.204 42.6483 268.16 42.5415 268.16 42.4301C268.16 42.3187 268.204 42.2118 268.283 42.1331C268.362 42.0543 268.469 42.0101 268.58 42.0101C269.127 42.0023 269.667 42.1445 270.139 42.4212C270.611 42.698 270.999 43.0987 271.26 43.5801C271.714 44.3654 271.962 45.2531 271.98 46.1601C271.977 46.2201 271.961 46.2787 271.933 46.3321C271.905 46.3854 271.866 46.4321 271.819 46.469C271.772 46.506 271.717 46.5324 271.658 46.5464C271.6 46.5603 271.539 46.5616 271.48 46.5501Z" fill="#733F00"/>
<path d="M274.72 56.6602C274.623 56.6597 274.529 56.6255 274.454 56.5635C274.379 56.5015 274.328 56.4155 274.31 56.3202C274.24 56.1602 273.93 55.5902 273.63 55.0402C272.695 53.4026 271.854 51.7132 271.11 49.9802C270.9 49.4102 270.68 48.9802 270.49 48.5502C269.99 47.5502 269.6 46.6802 270.7 45.9102C270.842 45.8063 271.006 45.7361 271.179 45.7049C271.352 45.6737 271.531 45.6823 271.7 45.7302C272.53 45.9502 273.42 47.0502 274.35 49.0202C274.48 49.2802 274.61 49.6002 274.75 49.9502C275.096 51.0185 275.662 52.0029 276.41 52.8402C277.41 53.7102 278.05 54.3202 278.08 54.3502C278.119 54.3896 278.149 54.4362 278.17 54.4874C278.191 54.5387 278.201 54.5935 278.201 54.6487C278.2 54.704 278.189 54.7586 278.167 54.8095C278.146 54.8603 278.114 54.9064 278.075 54.9452C278.036 54.9839 277.989 55.0145 277.938 55.0352C277.887 55.056 277.832 55.0664 277.776 55.0659C277.721 55.0655 277.667 55.0541 277.616 55.0325C277.565 55.011 277.519 54.9796 277.48 54.9402C277.48 54.9402 276.88 54.3302 275.88 53.4902C275.019 52.5727 274.37 51.4767 273.98 50.2802C273.84 49.9502 273.72 49.6502 273.6 49.3902C272.82 47.7602 272.04 46.7002 271.5 46.5602C271.451 46.5438 271.399 46.5399 271.349 46.5486C271.298 46.5573 271.25 46.5785 271.21 46.6102C270.73 46.9502 270.74 47.0702 271.28 48.2002C271.47 48.6002 271.71 49.0902 271.93 49.7002C272.658 51.4124 273.482 53.0818 274.4 54.7002C275.24 56.2502 275.24 56.2502 275.13 56.4802C275.086 56.5458 275.024 56.5975 274.951 56.6294C274.878 56.6612 274.798 56.6719 274.72 56.6602Z" fill="#733F00"/>
<path d="M289.05 58.0701C288.987 58.0713 288.925 58.0585 288.868 58.0325C288.811 58.0066 288.76 57.9682 288.72 57.9201C288.183 57.2232 287.463 56.6901 286.639 56.3809C285.816 56.0717 284.923 55.9987 284.06 56.1701C283.894 56.1958 283.726 56.1958 283.56 56.1701C283.45 56.1515 283.352 56.09 283.287 55.9991C283.222 55.9081 283.196 55.7952 283.215 55.6851C283.234 55.575 283.295 55.4769 283.386 55.4122C283.477 55.3475 283.59 55.3215 283.7 55.3401H283.95C284.955 55.1493 285.992 55.2398 286.949 55.6016C287.905 55.9633 288.743 56.5823 289.37 57.3901C289.422 57.4519 289.455 57.5273 289.465 57.6073C289.475 57.6874 289.462 57.7686 289.427 57.8414C289.392 57.9142 289.337 57.9754 289.269 58.0177C289.2 58.0601 289.121 58.0817 289.04 58.0801L289.05 58.0701Z" fill="#733F00"/>
<path d="M364.95 97.1702L364.53 78.4102L370.92 85.5201L368.41 91.9702L364.95 97.1702Z" fill="#E83232"/>
<path d="M395.95 31.6699C396.15 30.3899 395.95 29.1799 394.95 28.8899C393.95 28.5999 392.84 28.1699 392.95 26.6099C392.95 26.3499 392.95 25.9899 393.01 25.6099C393.13 22.4476 393.917 19.3465 395.32 16.5099C396.66 13.8399 395.68 12.5099 394.25 13.3299C393.25 14.0899 391.82 15.4399 390.69 19.3299C390.181 21.1608 389.784 23.0208 389.5 24.8999C389.452 25.6434 389.269 26.372 388.96 27.0499C388.5 27.4999 388.02 27.1699 386.61 28.6499C385.2 30.1299 381.09 33.8099 380.99 34.4499C380.942 34.7183 380.971 34.9947 381.074 35.2471C381.178 35.4995 381.35 35.7175 381.572 35.8757C381.794 36.0338 382.057 36.1257 382.329 36.1406C382.601 36.1555 382.872 36.0928 383.11 35.9599C381.44 37.3999 380.81 38.0899 381.82 39.1599C382.14 39.4586 382.562 39.6247 383 39.6247C383.438 39.6247 383.86 39.4586 384.18 39.1599C384.18 39.1599 384.77 40.4299 385.25 41.5499C385.837 42.6503 386.178 43.8649 386.25 45.1099C385.981 47.5128 385.262 49.8435 384.13 51.9799C383.42 53.3599 365.64 93.8399 365.64 93.8399C363.78 98.4099 364.31 106.35 368.79 108.44C372.43 110.14 378.29 109.81 381.08 106.26C390.46 94.3299 396.48 44.1699 396.69 42.0299C397.16 37.3599 398.66 31.9599 395.95 31.6699Z" fill="#9E5700"/>
<path d="M383.44 32.0702C383.44 32.0702 381.31 28.0702 382.9 27.1402C384.49 26.2102 385.9 28.9202 386.11 29.2102L383.44 32.0702Z" fill="#9E5700"/>
<path d="M383.54 36.0402C383.455 36.0415 383.371 36.0169 383.3 35.9696C383.229 35.9223 383.174 35.8545 383.143 35.7753C383.111 35.696 383.105 35.6091 383.124 35.526C383.143 35.443 383.187 35.3677 383.25 35.3102L388.11 30.7202L392.79 30.1002C392.895 30.0948 392.999 30.1293 393.08 30.1968C393.161 30.2643 393.214 30.3598 393.228 30.4644C393.242 30.569 393.216 30.675 393.155 30.7613C393.094 30.8476 393.003 30.9079 392.9 30.9302L388.49 31.5102L383.83 35.9102C383.754 35.9898 383.65 36.0365 383.54 36.0402Z" fill="#733F00"/>
<path d="M384.07 39.3998C383.985 39.4012 383.901 39.3766 383.83 39.3292C383.759 39.2819 383.704 39.2142 383.673 39.1349C383.641 39.0557 383.635 38.9688 383.654 38.8857C383.673 38.8026 383.717 38.7273 383.78 38.6698C387.22 35.3898 389.19 33.6698 389.64 33.6698C390.09 33.6698 392.57 33.1598 393.51 32.9798C393.62 32.9586 393.734 32.982 393.827 33.0448C393.92 33.1076 393.984 33.2047 394.005 33.3148C394.026 33.4249 394.003 33.5389 393.94 33.6317C393.877 33.7245 393.78 33.7886 393.67 33.8098C393.32 33.8798 390.26 34.4698 389.67 34.5098C387.8 36.0033 386.01 37.5955 384.31 39.2798C384.245 39.345 384.161 39.3871 384.07 39.3998Z" fill="#733F00"/>
<path d="M385.9 43.2002C385.9 43.2002 390.22 45.7102 392.27 46.0302C391.291 46.3869 390.235 46.4823 389.207 46.307C388.18 46.1316 387.216 45.6916 386.41 45.0302L385.9 43.2002Z" fill="#733F00"/>
<path d="M385.72 39.4101C385.633 39.4101 385.548 39.3829 385.476 39.3323C385.405 39.2817 385.352 39.2101 385.323 39.1276C385.294 39.0451 385.292 38.9558 385.317 38.872C385.341 38.7881 385.391 38.7141 385.46 38.6601C385.8 38.3901 388.78 36.0301 390.46 36.2901C391.384 36.3373 392.31 36.2326 393.2 35.9801C393.306 35.9456 393.422 35.9547 393.521 36.0053C393.62 36.0559 393.696 36.144 393.73 36.2501C393.764 36.3562 393.755 36.4716 393.705 36.571C393.654 36.6704 393.566 36.7456 393.46 36.7801C392.458 37.0724 391.412 37.1908 390.37 37.1301C389.37 36.9701 387.14 38.3901 385.98 39.3201C385.906 39.3784 385.814 39.4101 385.72 39.4101Z" fill="#733F00"/>
<mask id="mask0_1251_2702" style="mask-type:luminance" maskUnits="userSpaceOnUse" x="315" y="0" width="37" height="35">
<path d="M350.32 8.3099C346.46 1.2399 333.39 1.72989 327.82 1.46989C321.28 1.16989 315.59 -1.7101 315.59 5.46989C315.689 10.1034 316.638 14.6793 318.39 18.9699C318.325 16.4813 318.8 14.0081 319.78 11.7199C320.13 10.7199 321.9 12.4999 324.92 12.6199C327.94 12.7399 331.55 12.4199 331.67 12.9999L334.13 21.5699C334.305 22.179 334.649 22.7264 335.121 23.1492C335.593 23.5719 336.175 23.8529 336.8 23.9599C336.8 23.9599 336.68 16.8499 342.05 17.0799C347.42 17.3099 347.05 26.0799 341.05 27.7999C341.597 30.0131 342.378 32.1618 343.38 34.2099C343.38 34.2099 354.18 15.3699 350.32 8.3099Z" fill="white"/>
</mask>
<g mask="url(#mask0_1251_2702)">
<path d="M325.58 13.3597C325.45 13.1697 322.39 8.58975 323.42 4.57975C323.665 3.68179 324.106 2.84929 324.711 2.1421C325.316 1.43491 326.071 0.870597 326.92 0.489746L327.26 1.15975C326.509 1.49412 325.84 1.99013 325.303 2.6124C324.765 3.23467 324.372 3.96788 324.15 4.75975C323.15 8.43975 326.15 12.8897 326.15 12.9297L325.58 13.3597Z" fill="#4762C4"/>
<path d="M331.78 15.8095L331.04 15.6495C333.85 2.68954 347.72 3.47954 347.89 3.47954V4.22954C347.3 4.16954 334.45 3.47955 331.78 15.8095Z" fill="#4762C4"/>
<path d="M332.89 19.2296L332.31 18.7396C337.31 12.8296 351.23 7.28957 351.82 7.05957L352.1 7.75957C351.96 7.81957 337.72 13.4796 332.89 19.2296Z" fill="#4762C4"/>
<path d="M323.09 13.2597C322.93 13.1197 319.24 9.74975 319.36 5.65975C319.433 4.53493 319.759 3.44104 320.313 2.45941C320.867 1.47777 321.635 0.633629 322.56 -0.0102539L323.03 0.579746C322.194 1.15736 321.498 1.9156 320.994 2.79838C320.491 3.68117 320.192 4.6659 320.12 5.67975C320.01 9.41975 323.56 12.6797 323.6 12.6797L323.09 13.2597Z" fill="#4762C4"/>
</g>
<path d="M337.35 58.4101V56.8901C343.59 56.7101 350.91 44.0401 350.98 43.8901L352.3 44.6501C351.94 45.2101 344.43 58.2001 337.35 58.4101Z" fill="#E83232"/>
<path d="M317.72 267.48C324.45 262.13 343.25 258.48 343.25 258.48C343.25 258.48 345.02 250.86 359.05 258.31C367.38 263.38 371.28 261.48 375.72 267.48C383.45 277.95 384.98 290.35 373.72 306.36C365.58 317.93 380.09 333.59 357.84 336.5C345.39 338.13 344.91 330.21 331.01 328.5C317.11 326.79 314.46 321.5 314.46 321.5C314.46 321.5 306.96 319.7 308.71 303.25C310.29 288.48 310.84 272.92 317.72 267.48Z" fill="#FF9C1A"/>
<path d="M337.32 230.35C337.32 230.35 330.39 212.4 352.1 211.08C371.84 209.87 366.8 227.97 360.96 240.62C360.35 241.934 359.413 243.07 358.239 243.918C357.064 244.767 355.692 245.299 354.253 245.465C352.813 245.63 351.356 245.424 350.019 244.864C348.683 244.305 347.512 243.412 346.62 242.27L337.32 230.35Z" fill="#FEC519"/>
<path d="M335.98 233.58C338.26 228.04 337.48 227.17 338.63 224.51C339.035 223.355 339.533 222.234 340.12 221.16C340.86 220.46 340.69 223.16 343.17 223.06C354.62 222.41 349.08 237.47 355.92 239.11C356.69 238.22 357.92 234.43 360.46 233.95C363 233.47 366.3 236.78 363.87 241.2C362.17 244.29 355.8 245.33 355.8 245.33C355.8 245.33 355.8 255.42 359.05 258.33C350.25 271.06 335.34 271.71 335.34 271.71C335.34 271.71 349.28 251.71 339.01 249.52C331.63 247.9 335.06 235.82 335.98 233.58Z" fill="#FED3BC"/>
<path d="M338.63 239.85C337.29 239.79 336.47 239.41 336.19 238.73C335.69 237.48 337.34 235.73 337.41 235.67C337.434 235.645 337.462 235.625 337.493 235.611C337.525 235.597 337.559 235.589 337.593 235.588C337.627 235.588 337.662 235.593 337.694 235.606C337.726 235.618 337.755 235.636 337.78 235.66C337.805 235.684 337.825 235.712 337.839 235.743C337.853 235.775 337.861 235.809 337.862 235.843C337.863 235.877 337.857 235.912 337.844 235.944C337.832 235.976 337.814 236.005 337.79 236.03C337.38 236.46 336.37 237.76 336.68 238.54C336.92 239.13 337.88 239.3 338.68 239.33C338.749 239.33 338.815 239.357 338.864 239.406C338.913 239.455 338.94 239.521 338.94 239.59C338.94 239.659 338.913 239.725 338.864 239.774C338.815 239.823 338.749 239.85 338.68 239.85H338.63Z" fill="#303134"/>
<path d="M338.78 245.58C338.595 245.581 338.411 245.56 338.23 245.52C337.287 245.229 336.497 244.579 336.03 243.71C336.011 243.679 335.999 243.646 335.994 243.61C335.99 243.575 335.992 243.539 336.002 243.505C336.011 243.471 336.028 243.439 336.05 243.411C336.072 243.383 336.1 243.36 336.132 243.344C336.163 243.327 336.198 243.318 336.233 243.315C336.269 243.313 336.305 243.317 336.338 243.329C336.372 243.341 336.403 243.36 336.429 243.384C336.455 243.408 336.476 243.437 336.49 243.47C336.887 244.203 337.549 244.757 338.34 245.02C338.711 245.081 339.091 245.059 339.452 244.955C339.814 244.851 340.148 244.668 340.43 244.42C340.486 244.379 340.555 244.361 340.624 244.372C340.692 244.382 340.754 244.419 340.795 244.475C340.836 244.531 340.853 244.6 340.843 244.669C340.833 244.737 340.796 244.799 340.74 244.84C340.184 245.292 339.496 245.552 338.78 245.58Z" fill="#303134"/>
<path d="M344.46 235.94C345.001 235.94 345.44 235.045 345.44 233.94C345.44 232.835 345.001 231.94 344.46 231.94C343.919 231.94 343.48 232.835 343.48 233.94C343.48 235.045 343.919 235.94 344.46 235.94Z" fill="#303134"/>
<path d="M337.87 233.99C338.312 233.99 338.67 233.175 338.67 232.17C338.67 231.165 338.312 230.35 337.87 230.35C337.428 230.35 337.07 231.165 337.07 232.17C337.07 233.175 337.428 233.99 337.87 233.99Z" fill="#303134"/>
<path d="M346.95 230.09C346.906 230.089 346.864 230.078 346.825 230.057C346.787 230.036 346.754 230.006 346.73 229.97C346.73 229.97 345.58 228.36 344.26 228.28C343.955 228.281 343.653 228.352 343.379 228.487C343.106 228.622 342.866 228.818 342.68 229.06C342.656 229.087 342.628 229.109 342.595 229.125C342.563 229.141 342.528 229.15 342.493 229.152C342.457 229.155 342.421 229.15 342.387 229.138C342.353 229.127 342.322 229.109 342.295 229.085C342.268 229.062 342.246 229.033 342.23 229.001C342.214 228.969 342.205 228.934 342.203 228.898C342.2 228.862 342.205 228.826 342.217 228.792C342.228 228.758 342.246 228.727 342.27 228.7C342.504 228.391 342.806 228.14 343.153 227.966C343.5 227.793 343.882 227.702 344.27 227.7C345.85 227.79 347.1 229.55 347.15 229.62C347.171 229.65 347.185 229.683 347.193 229.718C347.201 229.753 347.202 229.79 347.195 229.825C347.188 229.86 347.175 229.894 347.155 229.924C347.135 229.954 347.11 229.98 347.08 230C347.047 230.042 347.001 230.074 346.95 230.09Z" fill="#303134"/>
<path d="M339.55 228.36C339.488 228.361 339.427 228.341 339.377 228.303C339.328 228.265 339.294 228.211 339.28 228.15C339.23 227.91 339.01 227.25 338.64 227.09C338.55 227.057 338.454 227.047 338.36 227.061C338.265 227.075 338.176 227.112 338.1 227.17C338.069 227.188 338.035 227.2 337.999 227.206C337.964 227.211 337.928 227.209 337.893 227.2C337.858 227.191 337.825 227.176 337.796 227.154C337.768 227.133 337.743 227.106 337.725 227.075C337.707 227.044 337.694 227.01 337.689 226.974C337.684 226.939 337.686 226.903 337.695 226.868C337.704 226.833 337.719 226.8 337.741 226.771C337.762 226.743 337.789 226.718 337.82 226.7C337.966 226.603 338.132 226.542 338.307 226.523C338.481 226.504 338.657 226.527 338.82 226.59C339.51 226.89 339.75 227.92 339.82 228.03C339.829 228.065 339.83 228.102 339.824 228.138C339.818 228.175 339.805 228.209 339.786 228.24C339.766 228.271 339.74 228.297 339.71 228.318C339.68 228.339 339.646 228.353 339.61 228.36H339.55Z" fill="#303134"/>
<path d="M339.88 311.88C339.88 311.88 350.51 304.19 352.49 299.09C350.22 306.09 347.85 311.74 347.85 311.74L339.88 311.88Z" fill="#DB8616"/>
<path d="M299.28 243.18L299.09 242.96L300.84 241.47L301.02 241.69L299.28 243.18Z" fill="#4F6DDB"/>
<path d="M284.25 232.56C284.388 232.419 284.557 232.312 284.743 232.249C284.93 232.186 285.129 232.168 285.324 232.196C285.519 232.224 285.704 232.298 285.865 232.412C286.026 232.526 286.158 232.676 286.25 232.85C286.922 233.897 287.456 235.026 287.84 236.21C288.27 237.21 289.01 239.14 289.21 239.51C289.41 239.88 291.58 242.18 291.58 242.18C291.58 242.18 293.16 237.63 294.25 237.24C294.579 237.139 294.931 237.142 295.258 237.247C295.585 237.353 295.872 237.556 296.08 237.83C296.408 237.679 296.776 237.644 297.127 237.729C297.477 237.814 297.788 238.016 298.01 238.3C299.421 238.952 300.663 239.921 301.64 241.13C301.77 241.51 302.22 245.33 302.22 245.33C303.9 246.33 306.16 247.7 307.15 248.33C308.65 249.33 309.02 253.28 309.76 258.24C310.5 263.2 314.52 272.24 314.91 273.24C315.41 274.46 319.84 289.08 320.76 294.74C321.68 300.4 322.21 308.16 317.26 309.79C312.31 311.42 307.81 310.36 304.67 306.79C302.99 304.91 301.24 298.95 301.97 285.44C302.395 277.235 302.395 269.014 301.97 260.81C301.77 258.46 301.7 256.81 299.27 254.81C296.84 252.81 292.53 250.4 291.42 249.41C290.31 248.42 290 247.5 289.1 245.81C288.2 244.12 286.49 242.2 286.21 241.28C285.93 240.36 283.92 232.95 284.25 232.56Z" fill="#FED3BC"/>
<path d="M302.24 245.34C301.87 245.23 301.52 245.1 301.17 244.96L300.17 244.53C299.76 244.368 299.422 244.063 299.22 243.67C299.03 243.306 298.911 242.909 298.87 242.5V242.42V242.36C299.207 241.597 299.304 240.75 299.15 239.93C299.377 240.33 299.513 240.775 299.547 241.233C299.582 241.691 299.515 242.151 299.35 242.58V242.43C299.377 242.764 299.482 243.087 299.656 243.373C299.829 243.659 300.067 243.901 300.35 244.08C300.66 244.23 301 244.48 301.35 244.68C301.7 244.88 301.94 245.1 302.24 245.34Z" fill="#F99979"/>
<path d="M298.03 238.31C297.917 238.293 297.802 238.303 297.694 238.339C297.586 238.376 297.489 238.438 297.41 238.52C297.24 238.665 297.095 238.838 296.98 239.03C296.74 239.41 296.53 239.83 296.31 240.27C296.09 240.71 295.85 241.11 295.58 241.52C295.319 241.934 295.028 242.328 294.71 242.7C294.836 242.229 294.996 241.767 295.19 241.32C295.37 240.87 295.59 240.43 295.81 240C296.026 239.549 296.306 239.132 296.64 238.76C296.821 238.568 297.034 238.409 297.27 238.29C297.387 238.225 297.519 238.193 297.653 238.197C297.786 238.2 297.917 238.239 298.03 238.31Z" fill="#F99979"/>
<path d="M296.1 237.84C295.677 238.152 295.334 238.56 295.1 239.03C294.87 239.48 294.68 239.96 294.45 240.45C294.22 240.94 293.99 241.45 293.72 241.87C293.461 242.339 293.17 242.79 292.85 243.22C292.972 242.697 293.129 242.182 293.32 241.68C293.5 241.18 293.71 240.68 293.93 240.21C294.145 239.709 294.413 239.233 294.73 238.79C295.052 238.313 295.541 237.974 296.1 237.84Z" fill="#F99979"/>
<path d="M291.6 242.19C291.612 242.445 291.588 242.701 291.53 242.95C291.43 243.426 291.243 243.88 290.98 244.29C290.848 244.508 290.686 244.706 290.5 244.88C290.488 244.625 290.512 244.369 290.57 244.12C290.67 243.644 290.857 243.189 291.12 242.78C291.252 242.562 291.414 242.364 291.6 242.19Z" fill="#F99979"/>
<path d="M117.89 27.6398C118.34 26.8298 118.4 26.2098 117.64 25.9998C116.88 25.7898 114.06 28.7198 114.06 28.7198L115.28 26.3198C115.45 25.9798 115.42 25.1798 114.48 25.4398C113.54 25.6998 112.83 27.2398 112.19 28.5098C111.309 29.912 110.173 31.1365 108.84 32.1198C107.49 33.2498 104.18 34.2398 104.08 33.7598C103.98 33.2798 106.53 30.9898 107.43 29.9798C107.783 29.6752 108.008 29.2492 108.062 28.7863C108.116 28.3233 107.994 27.857 107.72 27.4798C107.36 27.1698 106.91 27.0298 106.05 27.9698C104.719 29.2084 103.302 30.3513 101.81 31.3898C99.6774 32.983 97.7759 34.8643 96.16 36.9798C95.2666 39.2575 94.0252 41.3828 92.48 43.2798C88.68 47.7698 76.88 68.2798 76.88 68.2798C76.88 68.2798 66.42 65.1598 64.88 66.9898C56.51 76.8698 54.37 87.5798 61.96 85.7498C65.91 84.7998 75.57 87.0698 82.33 83.5198C89.09 79.9698 100.2 44.5198 100.33 44.4198C102.203 43.2601 104.254 42.4155 106.4 41.9198C108.729 41.156 110.879 39.9279 112.72 38.3098C113.14 37.6598 113.87 35.6098 114.27 34.8198C114.67 34.0298 117.85 29.3798 118.16 28.7698C118.47 28.1598 118.18 27.7398 117.89 27.6398Z" fill="#FEC2A0"/>
<path d="M109.87 34.4802L109.67 34.2202C110.572 33.5229 111.388 32.7205 112.1 31.8302C112.69 30.8802 113.91 28.7002 113.92 28.6802L114.21 28.8402C114.21 28.8402 112.98 31.0602 112.38 32.0102C111.648 32.9333 110.805 33.7629 109.87 34.4802Z" fill="#F99979"/>
<path d="M114.52 31.21L114.24 31.03C114.986 29.8371 115.815 28.6977 116.72 27.62C116.875 27.4496 117.089 27.3438 117.319 27.3234C117.548 27.3031 117.777 27.3696 117.96 27.51L117.74 27.75C117.74 27.75 117.4 27.48 116.93 27.87C116.054 28.9292 115.249 30.0449 114.52 31.21Z" fill="#F99979"/>
<path d="M108.72 37.9401V37.7801V37.6201C109.53 37.3579 110.26 36.8933 110.84 36.2701C111.01 36.0601 111.16 35.9001 111.29 35.7601C111.698 35.3679 111.98 34.8631 112.1 34.3101V34.2001C112.38 33.2001 112.86 31.4801 113.68 31.0601C113.792 31.0102 113.913 30.9844 114.035 30.9844C114.157 30.9844 114.278 31.0102 114.39 31.0601C114.497 31.0973 114.595 31.1579 114.677 31.2374C114.758 31.3169 114.82 31.4135 114.86 31.5201C115.24 32.4601 114.26 34.4401 114.22 34.5201L113.93 34.3701C114.2 33.8401 114.83 32.3001 114.56 31.6401C114.538 31.5781 114.502 31.5217 114.455 31.475C114.408 31.4284 114.352 31.3926 114.29 31.3701C114.219 31.3377 114.143 31.321 114.065 31.321C113.987 31.321 113.911 31.3377 113.84 31.3701C113.14 31.7301 112.67 33.3701 112.42 34.3101V34.4201C112.29 35.0253 111.984 35.5784 111.54 36.0101C111.42 36.1501 111.27 36.3001 111.1 36.5101C110.458 37.2019 109.632 37.6977 108.72 37.9401Z" fill="#F99979"/>
<path d="M59.72 25.04C59.72 25.04 61 21.04 57.88 19.53C54.76 18.02 49.72 19.19 48.32 25.09C46.92 30.99 44.41 31.91 44.41 31.91C44.41 31.91 44.54 25.35 39.57 25.6C34.6 25.85 34.94 33.94 40.57 35.45C40.2922 37.5049 39.5761 39.476 38.47 41.23C35.47 32.96 30.33 34.67 28.11 28.86C26.41 24.42 26.95 15.06 34.89 15.99C42.83 16.92 39.6 12.49 44.22 9.11999C52.99 2.71999 62.39 8.40999 61.79 17.78C61.5121 20.299 60.8123 22.7532 59.72 25.04Z" fill="#029D41"/>
<path d="M52.11 44.3598C51.62 45.7498 50.34 47.2998 52.53 50.4198C49.53 53.5298 45.11 63.8798 45.11 63.8798L34.89 47.3598C35.24 46.8598 35.59 46.3598 35.89 45.7998C37.985 42.6284 39.5646 39.1453 40.57 35.4798C39.4819 35.1965 38.4952 34.6132 37.7226 33.7964C36.9499 32.9795 36.4223 31.962 36.2 30.8598C35.67 28.3498 36.79 25.7698 39.56 25.6298C44.56 25.3798 44.4 31.9398 44.4 31.9398C44.4 31.9398 46.89 31.0098 48.31 25.1198C49.73 19.2298 54.72 18.0098 57.83 19.4798C60.94 20.9498 61.29 25.9598 60.77 27.6398C60.526 28.7759 60.4452 29.9409 60.53 31.0998C60.5832 32.7037 60.7301 34.3031 60.97 35.8898C61.37 38.6398 58.34 45.7898 52.11 44.3598Z" fill="#FEC2A0"/>
<path d="M71.37 66.9699L60.84 81.6199L62.44 111.99C62.5321 113.817 62.2375 115.643 61.5755 117.348C60.9136 119.054 59.8991 120.6 58.5984 121.887C57.2978 123.173 55.7402 124.171 54.0276 124.814C52.3151 125.457 50.486 125.732 48.66 125.62L13.55 122.12C4.95 121.57 8.13 114.79 11 106.67L17.87 87.2499V87.1799V87.1199C14.0082 85.5967 10.2789 83.7571 6.72 81.6199C4.43422 80.2947 2.36378 78.6289 0.580002 76.6799C7.17 74.1999 10.32 60.4799 15.01 56.8399C18.63 54.0699 33.01 49.9599 34.89 47.3599L35.97 49.1199C36.8262 50.4739 37.985 51.6107 39.3552 52.4408C40.7254 53.2708 42.2696 53.7715 43.8662 53.9033C45.4627 54.0352 47.0681 53.7946 48.5559 53.2005C50.0437 52.6064 51.3733 51.6751 52.44 50.4799L52.54 50.3799C52.5809 50.4729 52.6385 50.5576 52.71 50.6299C56.94 54.2599 71.37 66.9699 71.37 66.9699Z" fill="#FFC61A"/>
<path d="M50.58 26.1301C50.5245 26.1311 50.4704 26.1128 50.4269 26.0783C50.3833 26.0438 50.3531 25.9954 50.3413 25.9411C50.3295 25.8869 50.3369 25.8302 50.3622 25.7808C50.3875 25.7314 50.4291 25.6923 50.48 25.6701C53 24.5201 54.2 25.2701 54.25 25.3001C54.3044 25.3346 54.3428 25.3892 54.3569 25.4521C54.371 25.5149 54.3595 25.5807 54.325 25.6351C54.2905 25.6895 54.2359 25.7279 54.173 25.742C54.1102 25.7561 54.0444 25.7446 53.99 25.7101C53.99 25.7101 52.93 25.0901 50.69 26.1101L50.58 26.1301Z" fill="#303134"/>
<path d="M59.18 26.0201C59.1327 26.0224 59.0858 26.0106 59.0453 25.9862C59.0047 25.9619 58.9722 25.9261 58.9519 25.8834C58.9316 25.8406 58.9243 25.7928 58.9311 25.746C58.9379 25.6991 58.9584 25.6553 58.99 25.6201C59.2294 25.3167 59.5328 25.0698 59.8784 24.897C60.2241 24.7241 60.6036 24.6296 60.99 24.6201C61.0216 24.6226 61.0523 24.6314 61.0805 24.6458C61.1086 24.6603 61.1337 24.6802 61.1541 24.7043C61.1746 24.7285 61.19 24.7565 61.1996 24.7866C61.2092 24.8168 61.2127 24.8486 61.21 24.8801C61.2089 24.9122 61.2011 24.9436 61.1871 24.9725C61.1731 25.0014 61.1532 25.027 61.1287 25.0477C61.1042 25.0684 61.0757 25.0838 61.0449 25.0928C61.0141 25.1018 60.9818 25.1043 60.95 25.1001C60.6455 25.1161 60.3476 25.1955 60.0755 25.3333C59.8035 25.471 59.5631 25.6641 59.37 25.9001C59.3505 25.9341 59.323 25.9628 59.2899 25.9837C59.2568 26.0046 59.2191 26.0171 59.18 26.0201Z" fill="#303134"/>
<path d="M52.76 30.8999C53.2405 30.8999 53.63 30.1074 53.63 29.1299C53.63 28.1523 53.2405 27.3599 52.76 27.3599C52.2795 27.3599 51.89 28.1523 51.89 29.1299C51.89 30.1074 52.2795 30.8999 52.76 30.8999Z" fill="#303134"/>
<path d="M59.67 30.5802C60.0621 30.5802 60.38 29.931 60.38 29.1302C60.38 28.3294 60.0621 27.6802 59.67 27.6802C59.2779 27.6802 58.96 28.3294 58.96 29.1302C58.96 29.931 59.2779 30.5802 59.67 30.5802Z" fill="#303134"/>
<path d="M57.84 34.76C57.4907 34.7455 57.1491 34.6533 56.84 34.49C56.8111 34.4762 56.7852 34.4569 56.7638 34.4331C56.7424 34.4093 56.7259 34.3815 56.7152 34.3514C56.7045 34.3212 56.6999 34.2892 56.7016 34.2572C56.7033 34.2252 56.7112 34.1939 56.725 34.165C56.7388 34.1361 56.7581 34.1102 56.7819 34.0888C56.8057 34.0674 56.8335 34.0509 56.8637 34.0402C56.8939 34.0295 56.9259 34.0249 56.9578 34.0266C56.9898 34.0283 57.0211 34.0362 57.05 34.05C57.49 34.26 58.05 34.43 58.36 34.05C58.522 33.6163 58.5476 33.1434 58.4332 32.6948C58.3188 32.2461 58.0699 31.8432 57.72 31.54C57.6736 31.4963 57.6465 31.4359 57.6446 31.3721C57.6427 31.3083 57.6662 31.2464 57.71 31.2C57.7538 31.1536 57.8142 31.1265 57.8779 31.1246C57.9417 31.1227 58.0036 31.1463 58.05 31.19C58.4723 31.5714 58.7648 32.0753 58.8868 32.6311C59.0087 33.1869 58.9539 33.7669 58.73 34.29C58.6316 34.4354 58.4989 34.5542 58.3437 34.6362C58.1885 34.7182 58.0155 34.7607 57.84 34.76Z" fill="#303134"/>
<path d="M55.93 39.07C55.3842 39.0891 54.8449 38.9464 54.38 38.66C54.1213 38.4898 53.8994 38.2692 53.7276 38.0116C53.5558 37.7539 53.4376 37.4643 53.38 37.16C53.3714 37.0977 53.3875 37.0346 53.4249 36.9841C53.4623 36.9337 53.5179 36.8998 53.58 36.89C53.6422 36.8813 53.7053 36.8974 53.7558 36.9348C53.8063 36.9722 53.8401 37.0279 53.85 37.09C53.9493 37.5686 54.2331 37.9889 54.64 38.26C55.0454 38.4635 55.4891 38.5794 55.9422 38.6001C56.3954 38.6208 56.8478 38.5458 57.27 38.38C57.3323 38.3627 57.3989 38.371 57.4552 38.4028C57.5115 38.4347 57.5528 38.4876 57.57 38.55C57.5872 38.6123 57.579 38.6789 57.5471 38.7352C57.5152 38.7914 57.4623 38.8327 57.4 38.85C56.922 38.9888 56.4276 39.0628 55.93 39.07Z" fill="#303134"/>
<path d="M52.11 44.36C52.11 44.36 49.2 43.36 48.32 41.02C48.32 44.36 51.32 46.45 51.32 46.45L52.11 44.36Z" fill="#F99979"/>
<path d="M17.89 87.1201C14.0214 85.598 10.2853 83.7584 6.72001 81.6201C4.77001 88.5101 -0.379993 100.12 0.0400068 105.32C0.220007 107.48 3.27001 108.98 5.69001 110.17C7.01001 108.4 10.16 107.69 11.29 107.49L11.71 107.42L17.88 87.2501V87.1801V87.1201H17.89Z" fill="#FEC2A0"/>
<path d="M10.49 95.5799C10.83 95.5799 22.69 101.03 27.05 102.22C31.41 103.41 37.72 104.89 42.3 104.56C46.88 104.23 51.61 102.48 53.72 102.33C55.83 102.18 57.97 100.85 59.6 100.09C61.23 99.3299 62.16 98.0899 62.92 98.8999C63.68 99.7099 62.97 100.7 62.32 101.51C61.1384 102.567 59.7858 103.416 58.32 104.02C57.61 104.24 56.32 105.22 56.85 106.25C57.38 107.28 59.52 108.7 59.85 108.54C60.1516 108.398 60.4424 108.234 60.72 108.05C60.72 108.05 62.08 109.36 62.08 109.9C62.08 110.44 61.86 112.13 59.3 111.9C58.97 112.99 59.03 114.35 57.83 114.9C56.63 115.45 56.14 115.23 56.14 115.77C56.14 116.31 56.14 117.29 55.14 117.35C54.14 117.41 53.87 117.19 53.6 118C53.33 118.81 52.84 119.25 51.42 119.25C50 119.25 46.42 118.25 45.48 117.34C44.54 116.43 43.96 114.78 42.38 114.62C40.8 114.46 38.38 114.02 34.1 113.86C29.82 113.7 22.34 113.21 17.38 112.72C13.0209 112.427 8.7417 111.407 4.71999 109.7C0.959994 108.01 -0.0800047 94.7099 10.49 95.5799Z" fill="#FEC2A0"/>
<path d="M0.570007 76.6899C0.570007 76.6899 0.770007 82.9199 5.38001 85.7799C5.91001 84.1999 6.38001 82.8599 6.71001 81.6199C4.43001 80.2904 2.36066 78.6289 0.570007 76.6899Z" fill="#FF9C1A"/>
<mask id="mask1_1251_2702" style="mask-type:luminance" maskUnits="userSpaceOnUse" x="27" y="6" width="35" height="36">
<path d="M59.72 25.0399C59.72 25.0399 61 21.0399 57.88 19.5299C54.76 18.0199 49.72 19.1899 48.32 25.0899C46.92 30.9899 44.41 31.9099 44.41 31.9099C44.41 31.9099 44.54 25.3499 39.57 25.5999C34.6 25.8499 34.94 33.9399 40.57 35.4499C40.2922 37.5048 39.5761 39.476 38.47 41.2299C35.47 32.9599 30.33 34.6699 28.11 28.8599C26.41 24.4199 26.95 15.0599 34.89 15.9899C42.83 16.9199 39.6 12.4899 44.22 9.11993C52.99 2.71993 62.64 8.74993 61.79 17.7799C61.4569 20.2877 60.7595 22.7335 59.72 25.0399Z" fill="white"/>
</mask>
<g mask="url(#mask1_1251_2702)">
<path d="M50.72 23.1901C50.63 22.6401 48.67 9.62012 55.31 6.87012L55.61 7.60012C49.53 10.1201 51.47 22.9401 51.49 23.0701L50.72 23.1901Z" fill="#028F3B"/>
<path d="M55.13 20.4102L54.51 19.9202L54.82 20.1602L54.45 20.0402C54.4155 19.58 54.352 19.1225 54.26 18.6702C53.8 15.9002 52.83 10.1502 55.17 6.99023L55.8 7.46024C53.66 10.3502 54.59 15.8802 55.03 18.5402C55.26 19.8902 55.31 20.1902 55.13 20.4102Z" fill="#028F3B"/>
<path d="M57.72 21.2802L56.97 21.0302L57.34 21.1602L56.96 21.0602C56.96 20.9602 56.96 20.6802 56.96 20.2602C57.03 17.7702 57.22 11.1602 59.79 9.2002L60.27 9.83019C58 11.5602 57.81 18.1202 57.75 20.2802C57.7767 20.6136 57.7667 20.949 57.72 21.2802Z" fill="#028F3B"/>
</g>
<path d="M166.32 129.09C166.32 129.09 152.55 161.53 154.72 183.23C156.89 204.93 207.88 200.67 213.94 192.23C220 183.79 166.32 129.09 166.32 129.09Z" fill="#FE3737"/>
<path d="M166.32 129.09L209.22 114.09C209.22 114.09 233.45 182.98 213.52 192.17C193.59 201.36 166.32 129.09 166.32 129.09Z" fill="#FFC61A"/>
<path d="M276.06 89.9199L252.8 147.77L298.34 164.38L276.06 89.9199Z" fill="#FE3737"/>
<path d="M131.05 86.29L87.66 102.12V166.81L131.05 151.37V86.29Z" fill="#FFC61A"/>
<path d="M188.06 283.29C206.468 283.29 221.39 276.203 221.39 267.46C221.39 258.717 206.468 251.63 188.06 251.63C169.652 251.63 154.73 258.717 154.73 267.46C154.73 276.203 169.652 283.29 188.06 283.29Z" fill="#FF9C1A"/>
<path d="M212.34 194.48C212.162 194.48 211.991 194.416 211.856 194.301C211.72 194.186 211.63 194.027 211.602 193.852C211.573 193.677 211.607 193.497 211.698 193.345C211.79 193.192 211.932 193.077 212.1 193.02L217.78 191.08C217.874 191.044 217.975 191.028 218.076 191.032C218.176 191.036 218.275 191.06 218.367 191.103C218.458 191.146 218.54 191.207 218.607 191.282C218.674 191.357 218.725 191.445 218.757 191.541C218.79 191.637 218.802 191.738 218.795 191.838C218.787 191.939 218.759 192.037 218.713 192.126C218.666 192.216 218.602 192.295 218.524 192.359C218.447 192.424 218.357 192.472 218.26 192.5L212.58 194.44C212.503 194.466 212.422 194.48 212.34 194.48ZM223.72 190.58C223.542 190.58 223.371 190.516 223.236 190.401C223.1 190.286 223.01 190.127 222.982 189.952C222.953 189.777 222.987 189.597 223.078 189.445C223.17 189.292 223.312 189.177 223.48 189.12L229.16 187.18C229.254 187.144 229.355 187.128 229.456 187.132C229.556 187.136 229.655 187.16 229.747 187.203C229.838 187.246 229.92 187.307 229.987 187.382C230.054 187.457 230.105 187.545 230.137 187.641C230.17 187.737 230.182 187.838 230.175 187.938C230.167 188.039 230.139 188.137 230.093 188.226C230.046 188.316 229.982 188.395 229.904 188.459C229.827 188.524 229.737 188.572 229.64 188.6L223.96 190.54C223.883 190.566 223.802 190.58 223.72 190.58ZM235.08 186.71C234.902 186.71 234.731 186.646 234.596 186.531C234.46 186.416 234.37 186.257 234.342 186.082C234.313 185.907 234.347 185.727 234.438 185.575C234.53 185.422 234.672 185.307 234.84 185.25L240.52 183.31C240.706 183.255 240.906 183.274 241.078 183.363C241.251 183.453 241.382 183.605 241.444 183.789C241.506 183.973 241.494 184.174 241.412 184.349C241.329 184.525 241.181 184.661 241 184.73L235.32 186.67C235.233 186.697 235.141 186.707 235.05 186.7L235.08 186.71ZM246.44 182.84C246.262 182.84 246.091 182.776 245.956 182.661C245.82 182.546 245.73 182.387 245.702 182.212C245.673 182.037 245.707 181.857 245.798 181.705C245.89 181.552 246.032 181.437 246.2 181.38L251.88 179.44C251.974 179.404 252.075 179.388 252.176 179.392C252.276 179.396 252.375 179.42 252.467 179.463C252.558 179.506 252.64 179.567 252.707 179.642C252.774 179.717 252.825 179.805 252.857 179.901C252.89 179.997 252.902 180.098 252.895 180.198C252.887 180.299 252.859 180.397 252.813 180.486C252.766 180.576 252.702 180.655 252.624 180.719C252.547 180.784 252.457 180.832 252.36 180.86L246.68 182.8C246.593 182.827 246.501 182.837 246.41 182.83L246.44 182.84ZM257.8 178.97C257.622 178.97 257.451 178.906 257.316 178.791C257.18 178.676 257.09 178.517 257.062 178.342C257.033 178.167 257.067 177.987 257.158 177.835C257.25 177.682 257.392 177.567 257.56 177.51L263.24 175.57C263.426 175.515 263.626 175.534 263.798 175.623C263.971 175.713 264.102 175.865 264.164 176.049C264.226 176.233 264.214 176.434 264.132 176.609C264.049 176.785 263.901 176.921 263.72 176.99L258.04 178.93C257.953 178.957 257.861 178.967 257.77 178.96L257.8 178.97ZM269.16 175.1C268.982 175.1 268.811 175.036 268.676 174.921C268.54 174.806 268.45 174.647 268.422 174.472C268.393 174.297 268.427 174.117 268.518 173.965C268.61 173.812 268.752 173.697 268.92 173.64L274.6 171.7C274.694 171.664 274.795 171.648 274.896 171.652C274.996 171.656 275.095 171.68 275.187 171.723C275.278 171.766 275.36 171.827 275.427 171.902C275.494 171.977 275.545 172.065 275.577 172.161C275.61 172.257 275.622 172.358 275.615 172.458C275.607 172.559 275.579 172.657 275.533 172.746C275.486 172.836 275.422 172.915 275.344 172.979C275.267 173.044 275.177 173.092 275.08 173.12L269.4 175.06C269.313 175.087 269.221 175.097 269.13 175.09L269.16 175.1ZM280.52 171.23C280.342 171.23 280.171 171.166 280.036 171.051C279.9 170.936 279.81 170.777 279.782 170.602C279.753 170.427 279.787 170.247 279.878 170.095C279.97 169.942 280.112 169.827 280.28 169.77L285.96 167.83C286.146 167.775 286.346 167.794 286.518 167.883C286.691 167.973 286.822 168.125 286.884 168.309C286.946 168.493 286.934 168.694 286.852 168.869C286.769 169.045 286.621 169.181 286.44 169.25L280.72 171.17C280.646 171.195 280.568 171.209 280.49 171.21L280.52 171.23ZM291.88 167.36C291.702 167.36 291.531 167.296 291.396 167.181C291.26 167.066 291.17 166.907 291.142 166.732C291.113 166.557 291.147 166.377 291.238 166.225C291.33 166.072 291.472 165.957 291.64 165.9L297.32 163.96C297.414 163.924 297.515 163.908 297.616 163.912C297.716 163.916 297.815 163.94 297.907 163.983C297.998 164.026 298.08 164.087 298.147 164.162C298.214 164.237 298.265 164.325 298.297 164.421C298.33 164.517 298.342 164.618 298.335 164.718C298.327 164.819 298.299 164.917 298.253 165.006C298.206 165.096 298.142 165.175 298.064 165.239C297.987 165.304 297.897 165.352 297.8 165.38L292.12 167.32C292.032 167.343 291.94 167.35 291.85 167.34L291.88 167.36Z" fill="#FE3737"/>
<path d="M220.85 159.25C220.672 159.25 220.501 159.186 220.366 159.071C220.23 158.956 220.14 158.797 220.112 158.622C220.083 158.447 220.117 158.267 220.208 158.115C220.3 157.962 220.442 157.847 220.61 157.79L226.3 155.88C226.486 155.825 226.686 155.844 226.858 155.933C227.031 156.023 227.162 156.175 227.224 156.359C227.286 156.543 227.274 156.744 227.192 156.919C227.109 157.095 226.961 157.231 226.78 157.3L221.09 159.21C221.013 159.237 220.932 159.25 220.85 159.25ZM232.23 155.48C232.052 155.48 231.881 155.416 231.746 155.301C231.61 155.186 231.52 155.027 231.492 154.852C231.463 154.677 231.497 154.497 231.588 154.345C231.68 154.192 231.822 154.077 231.99 154.02L237.68 152.11C237.866 152.055 238.066 152.074 238.238 152.163C238.411 152.253 238.542 152.405 238.604 152.589C238.666 152.773 238.654 152.974 238.572 153.149C238.489 153.325 238.341 153.461 238.16 153.53L232.47 155.44C232.393 155.466 232.312 155.48 232.23 155.48ZM243.61 151.66C243.432 151.66 243.261 151.596 243.126 151.481C242.99 151.366 242.9 151.207 242.872 151.032C242.843 150.857 242.877 150.677 242.968 150.525C243.06 150.372 243.202 150.257 243.37 150.2L249.06 148.29C249.246 148.235 249.446 148.254 249.618 148.343C249.791 148.433 249.922 148.585 249.984 148.769C250.046 148.953 250.034 149.154 249.952 149.329C249.869 149.505 249.721 149.641 249.54 149.71L243.85 151.62C243.767 151.631 243.682 151.628 243.6 151.61L243.61 151.66Z" fill="#FE3737"/>
<path d="M209.22 114.89C209.041 114.895 208.866 114.835 208.727 114.721C208.588 114.608 208.494 114.449 208.463 114.272C208.431 114.095 208.464 113.913 208.555 113.759C208.647 113.604 208.79 113.488 208.96 113.43L214.6 111.43C214.785 111.369 214.987 111.383 215.163 111.468C215.339 111.553 215.474 111.704 215.54 111.887C215.607 112.071 215.599 112.273 215.519 112.451C215.438 112.629 215.292 112.769 215.11 112.84L209.47 114.84C209.39 114.871 209.306 114.888 209.22 114.89ZM220.5 110.8C220.321 110.805 220.146 110.745 220.007 110.631C219.868 110.518 219.774 110.359 219.743 110.182C219.711 110.005 219.744 109.823 219.835 109.669C219.927 109.514 220.07 109.398 220.24 109.34L225.88 107.34C226.065 107.279 226.267 107.293 226.443 107.378C226.619 107.463 226.754 107.614 226.82 107.797C226.887 107.981 226.879 108.183 226.799 108.361C226.718 108.539 226.572 108.679 226.39 108.75L220.75 110.75C220.67 110.781 220.586 110.798 220.5 110.8ZM231.78 106.71C231.601 106.715 231.426 106.655 231.287 106.541C231.148 106.428 231.054 106.269 231.023 106.092C230.991 105.915 231.024 105.733 231.115 105.579C231.207 105.424 231.35 105.308 231.52 105.25L237.16 103.25C237.345 103.189 237.547 103.203 237.723 103.288C237.899 103.373 238.034 103.524 238.1 103.707C238.167 103.891 238.159 104.093 238.079 104.271C237.998 104.449 237.852 104.589 237.67 104.66L232.03 106.66C231.953 106.69 231.872 106.707 231.79 106.71H231.78ZM243.06 102.62C242.881 102.625 242.706 102.565 242.567 102.451C242.428 102.338 242.334 102.179 242.303 102.002C242.271 101.825 242.304 101.643 242.395 101.489C242.487 101.334 242.63 101.218 242.8 101.16L248.44 99.1602C248.625 99.099 248.827 99.1125 249.003 99.1979C249.179 99.2833 249.314 99.4337 249.38 99.6173C249.447 99.8009 249.439 100.003 249.359 100.181C249.278 100.359 249.132 100.499 248.95 100.57L243.31 102.57C243.233 102.6 243.152 102.617 243.07 102.62H243.06ZM254.34 98.5302C254.161 98.5348 253.986 98.4749 253.847 98.3615C253.708 98.248 253.614 98.0885 253.583 97.9119C253.551 97.7353 253.584 97.5533 253.675 97.3989C253.767 97.2444 253.91 97.1278 254.08 97.0702L259.72 95.0702C259.905 95.009 260.107 95.0225 260.283 95.1079C260.459 95.1933 260.594 95.3437 260.66 95.5273C260.727 95.7109 260.719 95.9132 260.639 96.0911C260.558 96.269 260.412 96.4086 260.23 96.4802L254.59 98.4802C254.514 98.5134 254.433 98.5336 254.35 98.5402L254.34 98.5302ZM265.63 94.4802C265.451 94.4848 265.276 94.4249 265.137 94.3115C264.998 94.198 264.904 94.0385 264.873 93.8619C264.841 93.6853 264.874 93.5033 264.965 93.3489C265.057 93.1944 265.2 93.0778 265.37 93.0202L271.01 91.0202C271.195 90.959 271.397 90.9725 271.573 91.0579C271.749 91.1433 271.884 91.2937 271.95 91.4773C272.017 91.6609 272.009 91.8632 271.929 92.0411C271.848 92.219 271.702 92.3586 271.52 92.4302L265.88 94.4302C265.8 94.461 265.716 94.4779 265.63 94.4802Z" fill="#FE3737"/>
<path d="M204.72 113.33C204.637 113.344 204.553 113.344 204.47 113.33L198.8 111.33C198.612 111.265 198.457 111.128 198.37 110.949C198.283 110.77 198.27 110.563 198.335 110.375C198.4 110.187 198.537 110.032 198.716 109.945C198.895 109.857 199.102 109.845 199.29 109.91L204.96 111.91C205.129 111.967 205.272 112.083 205.363 112.236C205.454 112.39 205.488 112.571 205.458 112.747C205.428 112.922 205.336 113.082 205.199 113.196C205.062 113.31 204.888 113.372 204.71 113.37L204.72 113.33ZM193.38 109.4C193.297 109.414 193.213 109.414 193.13 109.4L187.46 107.4C187.272 107.335 187.117 107.198 187.03 107.019C186.943 106.84 186.93 106.633 186.995 106.445C187.06 106.257 187.197 106.102 187.376 106.015C187.555 105.927 187.762 105.915 187.95 105.98L193.62 107.98C193.789 108.037 193.932 108.153 194.023 108.306C194.114 108.46 194.148 108.641 194.118 108.817C194.088 108.992 193.996 109.152 193.859 109.266C193.722 109.38 193.548 109.442 193.37 109.44L193.38 109.4ZM182.07 105.48C181.987 105.494 181.903 105.494 181.82 105.48L176.15 103.48C175.962 103.415 175.807 103.278 175.72 103.099C175.633 102.92 175.62 102.713 175.685 102.525C175.75 102.337 175.887 102.182 176.066 102.095C176.245 102.007 176.452 101.995 176.64 102.06L182.31 104.06C182.479 104.117 182.622 104.233 182.713 104.386C182.804 104.54 182.838 104.721 182.808 104.897C182.778 105.072 182.686 105.232 182.549 105.346C182.412 105.46 182.238 105.522 182.06 105.52L182.07 105.48ZM170.72 101.54C170.637 101.554 170.553 101.554 170.47 101.54L164.8 99.5399C164.707 99.5077 164.621 99.4575 164.547 99.3921C164.473 99.3267 164.413 99.2474 164.37 99.1587C164.327 99.07 164.301 98.9737 164.295 98.8752C164.289 98.7768 164.303 98.6781 164.335 98.5849C164.367 98.4917 164.417 98.4057 164.483 98.3318C164.548 98.258 164.628 98.1978 164.716 98.1546C164.805 98.1114 164.901 98.0861 165 98.0802C165.098 98.0742 165.197 98.0877 165.29 98.1199L170.96 100.12C171.129 100.177 171.272 100.293 171.363 100.446C171.454 100.6 171.488 100.781 171.458 100.957C171.428 101.132 171.336 101.292 171.199 101.406C171.062 101.52 170.888 101.582 170.71 101.58L170.72 101.54ZM159.38 97.6099C159.297 97.6241 159.213 97.6241 159.13 97.6099L153.46 95.6099C153.367 95.5777 153.281 95.5275 153.207 95.4621C153.133 95.3967 153.073 95.3174 153.03 95.2287C152.987 95.14 152.961 95.0437 152.955 94.9452C152.949 94.8468 152.963 94.7481 152.995 94.6549C153.027 94.5617 153.077 94.4757 153.143 94.4018C153.208 94.328 153.288 94.2678 153.376 94.2246C153.465 94.1814 153.561 94.1561 153.66 94.1502C153.758 94.1442 153.857 94.1577 153.95 94.1899L159.62 96.1899C159.789 96.2473 159.932 96.3631 160.023 96.5165C160.114 96.6698 160.148 96.8507 160.118 97.0265C160.088 97.2024 159.996 97.3618 159.859 97.476C159.722 97.5903 159.548 97.6519 159.37 97.6499L159.38 97.6099ZM148.04 93.6799C147.957 93.6941 147.873 93.6941 147.79 93.6799L142.12 91.6799C141.932 91.6149 141.777 91.4778 141.69 91.2987C141.603 91.1196 141.59 90.9132 141.655 90.7249C141.72 90.5366 141.857 90.3818 142.036 90.2946C142.215 90.2074 142.422 90.1949 142.61 90.2599L148.28 92.2599C148.449 92.3173 148.592 92.4331 148.683 92.5865C148.774 92.7398 148.808 92.9207 148.778 93.0965C148.748 93.2724 148.656 93.4318 148.519 93.546C148.382 93.6603 148.208 93.7219 148.03 93.7199L148.04 93.6799ZM136.72 89.7399C136.637 89.7541 136.553 89.7541 136.47 89.7399L130.8 87.7399C130.707 87.7077 130.621 87.6575 130.547 87.5921C130.473 87.5267 130.413 87.4474 130.37 87.3587C130.327 87.27 130.301 87.1737 130.295 87.0752C130.289 86.9768 130.303 86.8781 130.335 86.7849C130.367 86.6917 130.417 86.6057 130.483 86.5318C130.548 86.458 130.628 86.3978 130.716 86.3546C130.805 86.3114 130.901 86.2861 131 86.2802C131.098 86.2742 131.197 86.2877 131.29 86.3199L136.96 88.3199C137.129 88.3773 137.272 88.4931 137.363 88.6465C137.454 88.7998 137.488 88.9807 137.458 89.1565C137.428 89.3324 137.336 89.4918 137.199 89.606C137.062 89.7203 136.888 89.7819 136.71 89.7799L136.72 89.7399Z" fill="#FFC61A"/>
<path d="M156.49 161.55C156.404 161.566 156.316 161.566 156.23 161.55L153.29 160.46C153.103 160.391 152.951 160.251 152.868 160.07C152.784 159.889 152.776 159.682 152.845 159.495C152.914 159.308 153.054 159.156 153.235 159.073C153.416 158.989 153.623 158.981 153.81 159.05L156.75 160.14C156.913 160.203 157.049 160.32 157.134 160.472C157.22 160.624 157.25 160.801 157.219 160.973C157.188 161.144 157.099 161.3 156.966 161.413C156.833 161.525 156.664 161.588 156.49 161.59V161.55ZM147.92 158.38C147.834 158.396 147.746 158.396 147.66 158.38L142.03 156.3C141.843 156.231 141.691 156.091 141.608 155.91C141.524 155.729 141.516 155.522 141.585 155.335C141.654 155.148 141.794 154.996 141.975 154.913C142.156 154.829 142.363 154.821 142.55 154.89L148.18 156.97C148.343 157.033 148.479 157.15 148.564 157.302C148.65 157.454 148.68 157.631 148.649 157.803C148.618 157.974 148.529 158.13 148.396 158.243C148.263 158.355 148.094 158.418 147.92 158.42V158.38ZM136.72 154.21C136.634 154.226 136.546 154.226 136.46 154.21L130.83 152.13C130.737 152.096 130.652 152.044 130.58 151.977C130.508 151.91 130.449 151.83 130.408 151.74C130.366 151.65 130.343 151.553 130.339 151.455C130.335 151.356 130.351 151.258 130.385 151.165C130.419 151.073 130.471 150.988 130.538 150.915C130.605 150.843 130.686 150.784 130.775 150.743C130.865 150.702 130.962 150.678 131.06 150.674C131.159 150.671 131.257 150.686 131.35 150.72L136.98 152.8C137.143 152.863 137.279 152.98 137.364 153.132C137.45 153.284 137.48 153.461 137.449 153.633C137.418 153.804 137.329 153.96 137.196 154.073C137.063 154.185 136.894 154.248 136.72 154.25V154.21Z" fill="#FFC61A"/>
<path d="M161.25 194.27C161.161 194.286 161.069 194.286 160.98 194.27L155.37 192.15C155.196 192.071 155.059 191.929 154.986 191.753C154.914 191.577 154.911 191.38 154.978 191.201C155.046 191.023 155.179 190.877 155.35 190.793C155.521 190.709 155.718 190.694 155.9 190.75L161.51 192.88C161.674 192.943 161.81 193.061 161.895 193.214C161.981 193.367 162.01 193.545 161.978 193.717C161.946 193.89 161.855 194.045 161.72 194.157C161.585 194.269 161.415 194.33 161.24 194.33L161.25 194.27ZM150.03 190.02C149.941 190.036 149.849 190.036 149.76 190.02L144.15 187.9C144.057 187.863 143.972 187.807 143.9 187.737C143.828 187.667 143.771 187.583 143.731 187.49C143.692 187.398 143.671 187.299 143.67 187.198C143.669 187.098 143.688 186.998 143.725 186.905C143.762 186.812 143.818 186.727 143.888 186.655C143.958 186.583 144.042 186.526 144.134 186.486C144.227 186.447 144.326 186.426 144.427 186.425C144.527 186.424 144.627 186.443 144.72 186.48L150.33 188.61C150.494 188.673 150.63 188.791 150.715 188.944C150.801 189.097 150.83 189.275 150.798 189.447C150.766 189.62 150.675 189.775 150.54 189.887C150.405 189.999 150.235 190.06 150.06 190.06L150.03 190.02ZM138.81 185.77C138.721 185.786 138.629 185.786 138.54 185.77L132.93 183.65C132.832 183.62 132.741 183.57 132.663 183.503C132.585 183.437 132.522 183.355 132.477 183.263C132.432 183.171 132.406 183.07 132.401 182.968C132.396 182.866 132.413 182.763 132.449 182.668C132.485 182.572 132.541 182.484 132.612 182.411C132.684 182.337 132.769 182.279 132.864 182.24C132.959 182.201 133.061 182.181 133.163 182.183C133.266 182.185 133.367 182.208 133.46 182.25L139.07 184.38C139.234 184.443 139.37 184.561 139.455 184.714C139.541 184.867 139.57 185.045 139.538 185.217C139.506 185.39 139.415 185.545 139.28 185.657C139.145 185.769 138.975 185.83 138.8 185.83L138.81 185.77ZM127.58 181.48C127.491 181.496 127.399 181.496 127.31 181.48L121.72 179.35C121.622 179.32 121.531 179.27 121.453 179.203C121.375 179.137 121.312 179.055 121.267 178.963C121.222 178.871 121.196 178.77 121.191 178.668C121.186 178.566 121.203 178.463 121.239 178.368C121.275 178.272 121.331 178.184 121.402 178.111C121.474 178.037 121.559 177.979 121.654 177.94C121.749 177.901 121.851 177.881 121.953 177.883C122.056 177.885 122.157 177.908 122.25 177.95L127.86 180.08C128.024 180.143 128.16 180.261 128.245 180.414C128.331 180.567 128.36 180.745 128.328 180.917C128.296 181.09 128.205 181.245 128.07 181.357C127.935 181.469 127.765 181.53 127.59 181.53L127.58 181.48ZM116.36 177.23C116.271 177.246 116.179 177.246 116.09 177.23L110.48 175.11C110.306 175.031 110.169 174.889 110.096 174.713C110.024 174.537 110.021 174.34 110.088 174.161C110.156 173.983 110.289 173.837 110.46 173.753C110.631 173.669 110.828 173.654 111.01 173.71L116.62 175.84C116.784 175.903 116.92 176.021 117.005 176.174C117.091 176.327 117.12 176.505 117.088 176.677C117.056 176.85 116.965 177.005 116.83 177.117C116.695 177.229 116.525 177.29 116.35 177.29L116.36 177.23ZM105.14 172.98C105.051 172.996 104.959 172.996 104.87 172.98L99.26 170.86C99.162 170.83 99.0713 170.78 98.9933 170.713C98.9154 170.647 98.8519 170.565 98.8068 170.473C98.7617 170.381 98.736 170.28 98.7312 170.178C98.7264 170.076 98.7427 169.973 98.779 169.878C98.8153 169.782 98.8708 169.694 98.9422 169.621C99.0136 169.547 99.0993 169.489 99.1941 169.45C99.2888 169.411 99.3906 169.391 99.4931 169.393C99.5956 169.395 99.6966 169.418 99.79 169.46L105.4 171.59C105.564 171.653 105.7 171.771 105.785 171.924C105.871 172.077 105.9 172.255 105.868 172.427C105.836 172.6 105.745 172.755 105.61 172.867C105.475 172.979 105.305 173.04 105.13 173.04L105.14 172.98ZM93.92 168.73C93.8307 168.746 93.7393 168.746 93.65 168.73L88.04 166.61C87.942 166.58 87.8513 166.53 87.7733 166.463C87.6954 166.397 87.6319 166.315 87.5868 166.223C87.5417 166.131 87.516 166.03 87.5112 165.928C87.5064 165.826 87.5227 165.723 87.559 165.628C87.5953 165.532 87.6508 165.444 87.7222 165.371C87.7936 165.297 87.8794 165.239 87.9741 165.2C88.0688 165.161 88.1706 165.141 88.2731 165.143C88.3756 165.145 88.4766 165.168 88.57 165.21L94.18 167.34C94.3436 167.403 94.4799 167.521 94.5654 167.674C94.6509 167.827 94.6802 168.005 94.6481 168.177C94.616 168.35 94.5246 168.505 94.3898 168.617C94.255 168.729 94.0852 168.79 93.91 168.79L93.92 168.73Z" fill="#FFC61A"/>
<path d="M154.72 268.21C154.521 268.21 154.33 268.131 154.19 267.99C154.049 267.85 153.97 267.659 153.97 267.46V267.23C153.97 267.031 154.049 266.84 154.19 266.7C154.33 266.559 154.521 266.48 154.72 266.48C154.919 266.48 155.11 266.559 155.25 266.7C155.391 266.84 155.47 267.031 155.47 267.23V267.48C155.465 267.675 155.383 267.861 155.243 267.997C155.103 268.134 154.915 268.21 154.72 268.21ZM154.72 261.98C154.521 261.98 154.33 261.901 154.19 261.76C154.049 261.62 153.97 261.429 153.97 261.23V255.23C153.97 255.031 154.049 254.84 154.19 254.7C154.33 254.559 154.521 254.48 154.72 254.48C154.919 254.48 155.11 254.559 155.25 254.7C155.391 254.84 155.47 255.031 155.47 255.23V261.23C155.47 261.429 155.391 261.62 155.25 261.76C155.11 261.901 154.919 261.98 154.72 261.98ZM154.72 249.98C154.521 249.98 154.33 249.901 154.19 249.76C154.049 249.62 153.97 249.429 153.97 249.23V243.23C153.97 243.031 154.049 242.84 154.19 242.7C154.33 242.559 154.521 242.48 154.72 242.48C154.919 242.48 155.11 242.559 155.25 242.7C155.391 242.84 155.47 243.031 155.47 243.23V249.23C155.47 249.429 155.391 249.62 155.25 249.76C155.11 249.901 154.919 249.98 154.72 249.98ZM154.72 237.98C154.521 237.98 154.33 237.901 154.19 237.76C154.049 237.62 153.97 237.429 153.97 237.23V231.23C153.97 231.031 154.049 230.84 154.19 230.7C154.33 230.559 154.521 230.48 154.72 230.48C154.919 230.48 155.11 230.559 155.25 230.7C155.391 230.84 155.47 231.031 155.47 231.23V237.23C155.47 237.429 155.391 237.62 155.25 237.76C155.11 237.901 154.919 237.98 154.72 237.98ZM154.72 225.98C154.521 225.98 154.33 225.901 154.19 225.76C154.049 225.62 153.97 225.429 153.97 225.23V219.23C153.97 219.031 154.049 218.84 154.19 218.7C154.33 218.559 154.521 218.48 154.72 218.48C154.919 218.48 155.11 218.559 155.25 218.7C155.391 218.84 155.47 219.031 155.47 219.23V225.23C155.47 225.429 155.391 225.62 155.25 225.76C155.11 225.901 154.919 225.98 154.72 225.98ZM154.72 213.98C154.521 213.98 154.33 213.901 154.19 213.76C154.049 213.62 153.97 213.429 153.97 213.23V207.23C153.97 207.031 154.049 206.84 154.19 206.7C154.33 206.559 154.521 206.48 154.72 206.48C154.919 206.48 155.11 206.559 155.25 206.7C155.391 206.84 155.47 207.031 155.47 207.23V213.23C155.47 213.429 155.391 213.62 155.25 213.76C155.11 213.901 154.919 213.98 154.72 213.98ZM154.72 201.98C154.521 201.98 154.33 201.901 154.19 201.76C154.049 201.62 153.97 201.429 153.97 201.23V195.23C153.97 195.031 154.049 194.84 154.19 194.7C154.33 194.559 154.521 194.48 154.72 194.48C154.919 194.48 155.11 194.559 155.25 194.7C155.391 194.84 155.47 195.031 155.47 195.23V201.23C155.47 201.429 155.391 201.62 155.25 201.76C155.11 201.901 154.919 201.98 154.72 201.98ZM154.72 189.98C154.521 189.98 154.33 189.901 154.19 189.76C154.049 189.62 153.97 189.429 153.97 189.23V183.23C153.97 183.031 154.049 182.84 154.19 182.7C154.33 182.559 154.521 182.48 154.72 182.48C154.919 182.48 155.11 182.559 155.25 182.7C155.391 182.84 155.47 183.031 155.47 183.23V189.23C155.47 189.429 155.391 189.62 155.25 189.76C155.11 189.901 154.919 189.98 154.72 189.98Z" fill="#FF9C1A"/>
<path d="M221.39 265.96C221.191 265.96 221 265.881 220.86 265.74C220.719 265.6 220.64 265.409 220.64 265.21V259.21C220.64 259.011 220.719 258.82 220.86 258.68C221 258.539 221.191 258.46 221.39 258.46C221.589 258.46 221.78 258.539 221.92 258.68C222.061 258.82 222.14 259.011 222.14 259.21V265.21C222.14 265.409 222.061 265.6 221.92 265.74C221.78 265.881 221.589 265.96 221.39 265.96ZM221.39 253.96C221.191 253.96 221 253.881 220.86 253.74C220.719 253.6 220.64 253.409 220.64 253.21V247.21C220.64 247.011 220.719 246.82 220.86 246.68C221 246.539 221.191 246.46 221.39 246.46C221.589 246.46 221.78 246.539 221.92 246.68C222.061 246.82 222.14 247.011 222.14 247.21V253.21C222.14 253.409 222.061 253.6 221.92 253.74C221.78 253.881 221.589 253.96 221.39 253.96ZM221.39 241.96C221.191 241.96 221 241.881 220.86 241.74C220.719 241.6 220.64 241.409 220.64 241.21V235.21C220.64 235.011 220.719 234.82 220.86 234.68C221 234.539 221.191 234.46 221.39 234.46C221.589 234.46 221.78 234.539 221.92 234.68C222.061 234.82 222.14 235.011 222.14 235.21V241.21C222.14 241.409 222.061 241.6 221.92 241.74C221.78 241.881 221.589 241.96 221.39 241.96ZM221.39 229.96C221.191 229.96 221 229.881 220.86 229.74C220.719 229.6 220.64 229.409 220.64 229.21V223.21C220.64 223.011 220.719 222.82 220.86 222.68C221 222.539 221.191 222.46 221.39 222.46C221.589 222.46 221.78 222.539 221.92 222.68C222.061 222.82 222.14 223.011 222.14 223.21V229.21C222.14 229.409 222.061 229.6 221.92 229.74C221.78 229.881 221.589 229.96 221.39 229.96ZM221.39 217.96C221.191 217.96 221 217.881 220.86 217.74C220.719 217.6 220.64 217.409 220.64 217.21V211.21C220.64 211.011 220.719 210.82 220.86 210.68C221 210.539 221.191 210.46 221.39 210.46C221.589 210.46 221.78 210.539 221.92 210.68C222.061 210.82 222.14 211.011 222.14 211.21V217.21C222.14 217.409 222.061 217.6 221.92 217.74C221.78 217.881 221.589 217.96 221.39 217.96ZM221.39 205.96C221.191 205.96 221 205.881 220.86 205.74C220.719 205.6 220.64 205.409 220.64 205.21V199.21C220.64 199.011 220.719 198.82 220.86 198.68C221 198.539 221.191 198.46 221.39 198.46C221.589 198.46 221.78 198.539 221.92 198.68C222.061 198.82 222.14 199.011 222.14 199.21V205.21C222.14 205.409 222.061 205.6 221.92 205.74C221.78 205.881 221.589 205.96 221.39 205.96ZM221.39 193.96C221.191 193.96 221 193.881 220.86 193.74C220.719 193.6 220.64 193.409 220.64 193.21V187.21C220.64 187.011 220.719 186.82 220.86 186.68C221 186.539 221.191 186.46 221.39 186.46C221.589 186.46 221.78 186.539 221.92 186.68C222.061 186.82 222.14 187.011 222.14 187.21V193.21C222.14 193.409 222.061 193.6 221.92 193.74C221.78 193.881 221.589 193.96 221.39 193.96ZM221.39 181.96C221.191 181.96 221 181.881 220.86 181.74C220.719 181.6 220.64 181.409 220.64 181.21V175.21C220.64 175.011 220.719 174.82 220.86 174.68C221 174.539 221.191 174.46 221.39 174.46C221.589 174.46 221.78 174.539 221.92 174.68C222.061 174.82 222.14 175.011 222.14 175.21V181.21C222.14 181.409 222.061 181.6 221.92 181.74C221.78 181.881 221.589 181.96 221.39 181.96Z" fill="#FF9C1A"/>
<path d="M340.6 250.08C340.6 250.08 345.84 249.83 347.7 249.08C346.201 250.573 344.176 251.417 342.06 251.43C342.06 251.43 341.36 250.77 340.6 250.08Z" fill="#EDA47E"/>
<path d="M353.09 315.69C348.7 316.24 324.19 319.63 320.23 319.6C318.289 319.615 316.373 319.155 314.65 318.26C311.899 316.578 308.724 315.717 305.5 315.78C301.59 316.01 298.17 318.06 296.41 318.08C294.65 318.1 294.07 319.36 294.64 320.33C295.144 320.932 295.824 321.362 296.584 321.559C297.344 321.756 298.147 321.711 298.88 321.43C300.7 320.83 303.39 319.75 303.59 320.5C303.79 321.25 297.92 322.9 296.59 323.4C295.26 323.9 293.08 325.02 291.35 325.13C289.62 325.24 284.69 326.53 284.1 327.78C283.51 329.03 284.37 329.99 285.8 329.87C286.24 330.43 287.21 330.46 288.18 330.5C289.15 330.54 290.42 330.72 290.42 330.72C290.22 330.74 290.027 330.802 289.854 330.903C289.681 331.005 289.532 331.142 289.417 331.307C289.302 331.471 289.224 331.658 289.188 331.856C289.153 332.053 289.16 332.256 289.21 332.45C289.43 333.39 289.88 333.39 291.21 333.45C292.567 333.571 293.933 333.571 295.29 333.45C296.614 333.175 297.917 332.807 299.19 332.35C299.19 332.35 295.71 333.95 295.31 334.58C295.212 334.731 295.15 334.902 295.128 335.08C295.107 335.258 295.126 335.439 295.185 335.609C295.243 335.779 295.34 335.933 295.468 336.06C295.595 336.186 295.75 336.282 295.92 336.34C297.058 336.207 298.157 335.843 299.15 335.27C300.85 334.45 305.15 332.48 307.04 331.8C308.93 331.12 313.32 328.68 314.58 328.52C317.434 328.729 320.275 329.093 323.09 329.61C330.09 330.73 354.31 332.71 358.22 332.07C362.13 331.43 364.52 324.93 361.15 318.14C359.72 314.78 357.48 315.13 353.09 315.69Z" fill="#FED3BC"/>
<path d="M300.45 326.73C299.385 326.803 298.346 327.085 297.39 327.56C295.839 328.15 294.213 328.52 292.56 328.66L285.79 329.89C285.79 329.89 292.03 329.57 293.79 329.32C295.55 329.07 300.45 326.73 300.45 326.73Z" fill="#F99979"/>
<path d="M303 329.69C303 329.69 302 329.69 301 329.75C300 329.81 296.37 331.33 295 331.44C293.544 331.385 292.098 331.167 290.69 330.79C292.32 331.037 293.979 331.01 295.6 330.71C297.3 330.17 300.18 328.67 303 329.69Z" fill="#F99979"/>
<path d="M304.18 330.67C302.641 331.05 301.133 331.548 299.67 332.16L304.38 331.16L304.18 330.67Z" fill="#F99979"/>
</g>
<defs>
<clipPath id="clip0_1251_2702">
<rect width="397.53" height="336.7" fill="white"/>
</clipPath>
</defs>
</svg>
