<svg xmlns="http://www.w3.org/2000/svg" xmlns:xlink="http://www.w3.org/1999/xlink" viewBox="0 0 383.76 345.08"><defs><style>.cls-1,.cls-10,.cls-14,.cls-15,.cls-19,.cls-2,.cls-21,.cls-22,.cls-23,.cls-26,.cls-27,.cls-28,.cls-29,.cls-3,.cls-8{fill:none;}.cls-2,.cls-27{stroke:#f4706b;}.cls-10,.cls-14,.cls-15,.cls-19,.cls-2,.cls-21,.cls-22,.cls-23,.cls-26,.cls-27,.cls-28,.cls-29,.cls-3,.cls-8{stroke-miterlimit:10;}.cls-2,.cls-22,.cls-23,.cls-3{stroke-width:2px;}.cls-3{stroke:#029d41;}.cls-4{fill:#029d41;}.cls-5{fill:#4f6ddb;}.cls-6{fill:#fec2a0;}.cls-7{fill:#fff;}.cls-10,.cls-14,.cls-15,.cls-8{stroke:#303134;}.cls-10,.cls-14,.cls-15,.cls-22,.cls-23,.cls-27,.cls-29,.cls-8{stroke-linecap:round;}.cls-8{stroke-width:0.75px;}.cls-9{fill:#303134;}.cls-10{stroke-width:0.78px;}.cls-11{fill:#fe3737;}.cls-12{fill:#fec519;}.cls-13{fill:#fed3bc;}.cls-14{stroke-width:0.75px;}.cls-15{stroke-width:0.78px;}.cls-16{fill:#f99979;}.cls-17{fill:#e03131;}.cls-18{clip-path:url(#clip-path);}.cls-19{stroke:#dbaa16;}.cls-19,.cls-21{stroke-width:1.04px;}.cls-20{clip-path:url(#clip-path-2);}.cls-21{stroke:#4762c4;}.cls-22,.cls-23{stroke:#49494d;}.cls-22{stroke-dasharray:11.2;}.cls-23{stroke-dasharray:11.2;}.cls-24{fill:#49494d;}.cls-25{fill:#676673;}.cls-26{stroke:#4f6ddb;stroke-width:0.41px;}.cls-27{stroke-width:1.07px;}.cls-28,.cls-29{stroke:#fec519;stroke-width:1.51px;}</style><clipPath id="clip-path" transform="translate(-22.67 -25.83)"><path class="cls-1" d="M93.13,219s8.07-20.67-13.23-26.28A42.83,42.83,0,0,0,72,191.46a66.29,66.29,0,0,0-12.14.16c-4.23.45-8,1.3-10.82,2.95-15.72,9.25-11.53,32.21-24.76,38,.75,14.7,26,37.92,37.55,35.46-4.2-7.47,1.95-15.44,2-16.68l4.62-.77s2.21-32.81,7.62-38.79c3.9-4.31,8.93-2.26,11-4S93.13,219,93.13,219Z"/></clipPath><clipPath id="clip-path-2" transform="translate(-22.67 -25.83)"><path class="cls-1" d="M317.72,205.25s-11.37-17.59,19.74-18.75c43.21-1.61,36.28,28.25,33.71,36.26-5.92,18.48-30,17.47-30,17.47Z"/></clipPath></defs><title>Effective Ways to Learn_light_mood</title><g id="Слой_4" data-name="Слой 4"><rect class="cls-2" x="212.81" y="98.09" width="63.94" height="40.61" rx="1.92" ry="1.92"/><rect class="cls-2" x="97.04" y="68.51" width="63.94" height="40.61" rx="1.92" ry="1.92"/><line class="cls-3" x1="173.41" y1="88.82" x2="197.89" y2="102.87"/><polygon class="cls-4" points="194.29 100.86 196.3 97.14 198.52 100.74 200.73 104.34 196.51 104.46 192.29 104.58 194.29 100.86"/><line class="cls-3" x1="172.48" y1="148.66" x2="197.38" y2="135.38"/><polygon class="cls-4" points="193.72 137.27 195.61 141.05 197.94 137.53 200.27 134 196.05 133.75 191.83 133.49 193.72 137.27"/><rect class="cls-2" x="97.04" y="126.19" width="63.94" height="40.61" rx="1.92" ry="1.92"/><path class="cls-4" d="M277.45,265.24c8-8,38.72-7.5,44.34-14.21,0,0,7-12,26.57-4.32,8.75,16.71,24.72,14.85,31.47,22.05,11.75,12.55-1.92,18.74,6.51,46.3,5.47,17.87,3.78,44.29-17,38.43-16-4.5-33.63-1.74-52.15-1.91s-39.7,12.74-53.82-9.92C248.36,317.56,269.26,273.47,277.45,265.24Z" transform="translate(-22.67 -25.83)"/><path class="cls-5" d="M317.72,205.25s-11.37-17.59,19.74-18.75c43.21-1.61,36.28,28.25,33.71,36.26-5.92,18.48-30,17.47-30,17.47Z" transform="translate(-22.67 -25.83)"/><path class="cls-6" d="M313.62,218.14c3.45-7.84,2.37-9.12,4.09-12.89A32.34,32.34,0,0,1,320,200.5c1.09-1,.75,2.94,4.3,2.82,16.41-.54,7.32,19.5,17.05,22.09,1.14-1.25,3.67-5.31,7.31-5.92,3.5-.58,8.49,5.72,4.86,12-2.54,4.36-11.91,4.17-11.91,4.17s-2,6.81,2.61,11.06c-.48,11.78-22.23,21.07-22.23,21.07l-.53-16.32s5.22-7.87-4-10.4C307,238.16,312.23,221.31,313.62,218.14Z" transform="translate(-22.67 -25.83)"/><path class="cls-7" d="M336.6,257.09C336,265.4,318.36,300,318.36,300l3.07-48.6S325.41,265.67,336.6,257.09Z" transform="translate(-22.67 -25.83)"/><path class="cls-8" d="M315.84,221.44s-5,4.94,1.36,5.39" transform="translate(-22.67 -25.83)"/><path class="cls-8" d="M319.86,234.09s-4.52,2.32-6.16-1.62" transform="translate(-22.67 -25.83)"/><ellipse class="cls-9" cx="324.93" cy="219.09" rx="2.86" ry="1.4" transform="translate(18.24 463.28) rotate(-77.54)"/><ellipse class="cls-9" cx="316.23" cy="215.78" rx="2.6" ry="1.15" transform="translate(14.64 452.19) rotate(-77.54)"/><path class="cls-10" d="M330,211.6s-3.24-4.86-6.38-1.49" transform="translate(-22.67 -25.83)"/><path class="cls-10" d="M320.21,208.51s-.91-2.9-3-1.12" transform="translate(-22.67 -25.83)"/><path class="cls-11" d="M123,262.89c-8.87-7-31.13-3.21-37.48-9.2,0,0-3.18-12.2-21.68-2.37C52.9,258,36,270.07,30.1,278c-10.19,13.8-10.85,30.4,4,51.49C44.83,344.73,22.67,366.89,52,370.73c16.41,2.15,31.45-15.62,49.77-17.93s36.36-15.53,36.36-15.53,14.48-28.63.24-42S132.1,270.1,123,262.89Z" transform="translate(-22.67 -25.83)"/><path class="cls-12" d="M93.13,219S103,193.36,72,191.46C29,188.82,45.39,216.51,27.84,224.17c5.5,28,40.65,26.38,40.65,26.38Z" transform="translate(-22.67 -25.83)"/><path class="cls-13" d="M95,223.58c-3.25-7.9-2.15-9.16-3.78-13a32.26,32.26,0,0,0-2.13-4.79c-1.06-1-.82,2.91-4.36,2.71-16.36-.93-8.44,20.57-18.21,22.92-1.1-1.28-2.86-6.68-6.48-7.37-3.47-.67-8.33,4-4.86,10.35,2.43,4.41,11.52,5.9,11.52,5.9s1.82,6.84-2.87,11c.2,11.76,25.4,26.68,25.4,26.68L86,254s.72-6.47,4.76-7.73C101,243.11,96.36,226.78,95,223.58Z" transform="translate(-22.67 -25.83)"/><path class="cls-7" d="M63.88,251.32c-8.79,9.93,10.09,43.86,26.65,41.93S86,254,86,254s3.25,18.47-.62,18.9S70,266.38,63.88,251.32Z" transform="translate(-22.67 -25.83)"/><path class="cls-14" d="M92.76,226.82s4.84,5-1.49,5.34" transform="translate(-22.67 -25.83)"/><line class="cls-14" x1="65.78" y1="213.51" x2="71.97" y2="212.04"/><ellipse class="cls-9" cx="60.28" cy="198.26" rx="1.4" ry="2.85"/><ellipse class="cls-9" cx="69.67" cy="195.74" rx="1.15" ry="2.59"/><path class="cls-15" d="M79.39,216.78s3.34-4.77,6.4-1.34" transform="translate(-22.67 -25.83)"/><path class="cls-15" d="M90,214.31s.58-2.63,2.26-1.65" transform="translate(-22.67 -25.83)"/><path class="cls-13" d="M52.58,353.27c2.33,13.51,22.5,8.65,37.94,6.13s35.78-9.2,39.41-10.39,5.72-.74,9.8-1,10.61-5,10.91-5,2.15,1.19,3.59,1.26a7.44,7.44,0,0,0,4.87-1.86c1.86-1.41.59-2.38.59-2.38s2.67-3.27,3.27-4-1-3.25-1-3.25l.3-1.11c.3-1.11-1.48-2.23-1.48-2.23s1-2.52,0-3.86-5.64-2.38-9.95-1.78-14.4,9.8-23.46,10.84-51.76,0-55.23,0C59.46,334.53,49.41,334.89,52.58,353.27Z" transform="translate(-22.67 -25.83)"/><polygon class="cls-16" points="137.03 314.19 133.24 308.7 138.14 312.83 137.03 314.19"/><polygon class="cls-16" points="139.33 306.99 133.24 304.46 140.17 308.7 139.33 306.99"/><path class="cls-16" d="M160.81,329.48c-.45-.3-4.9-2.23-4.9-2.23l5.28.83Z" transform="translate(-22.67 -25.83)"/><path class="cls-17" d="M86.12,334.93s-14-10.14-16.62-16.86c3,9.19,6.12,16.67,6.12,16.67Z" transform="translate(-22.67 -25.83)"/><g class="cls-18"><path class="cls-19" d="M76.83,213.43s-7.49-30.22-26-22.23" transform="translate(-22.67 -25.83)"/><path class="cls-19" d="M77.81,187.11s13.36,8.53,6.54,24.36" transform="translate(-22.67 -25.83)"/><path class="cls-19" d="M74.66,221.57c.35-.3-5.68-34-26.69-30.38" transform="translate(-22.67 -25.83)"/></g><g class="cls-20"><path class="cls-21" d="M330,182.25S357,225.5,379.58,214.38" transform="translate(-22.67 -25.83)"/><path class="cls-21" d="M326.85,183.25s25.89,17,50.19,22" transform="translate(-22.67 -25.83)"/><path class="cls-21" d="M339.59,180,330,186.44s1.51,31.87,43.15,36.09" transform="translate(-22.67 -25.83)"/></g><rect class="cls-22" x="246.6" y="1" width="118.31" height="44.01" rx="20.32" ry="20.32"/><rect class="cls-23" x="6.41" y="1" width="118.38" height="44.01" rx="20.33" ry="20.33"/><path class="cls-24" d="M326.95,31.53H291.19a17.31,17.31,0,0,0-17.31,17.31h0a17.31,17.31,0,0,0,17.31,17.31h35.76Z" transform="translate(-22.67 -25.83)"/><path class="cls-24" d="M365.66,31.53H329.9V66.15h35.76A17.31,17.31,0,0,0,383,48.84h0A17.31,17.31,0,0,0,365.66,31.53Z" transform="translate(-22.67 -25.83)"/><path class="cls-4" d="M345.28,50.21l1.35-1.31a1.08,1.08,0,0,1,1.49,0L351.39,52l9.55-10.77a1.08,1.08,0,0,1,1.53-.08l1.41,1.28a1.08,1.08,0,0,1,.1,1.49L352.86,57.1a1.33,1.33,0,0,1-1.93.1l-5.65-5.44A1.08,1.08,0,0,1,345.28,50.21Z" transform="translate(-22.67 -25.83)"/><path class="cls-25" d="M298.73,57.44l-1.31-1.2a1.08,1.08,0,0,1-.08-1.51l11.92-13.47a1.08,1.08,0,0,1,1.53-.08l1.31,1.2a1.08,1.08,0,0,1,.08,1.51L300.27,57.36A1.08,1.08,0,0,1,298.73,57.44Z" transform="translate(-22.67 -25.83)"/><path class="cls-25" d="M312.78,55.41l-1.18,1.34a1.08,1.08,0,0,1-1.53.08L296.83,44.7a1.08,1.08,0,0,1-.08-1.51l1.18-1.34a1.08,1.08,0,0,1,1.53-.08L312.7,53.91A1.08,1.08,0,0,1,312.78,55.41Z" transform="translate(-22.67 -25.83)"/><path class="cls-24" d="M86.79,31.53H51A17.31,17.31,0,0,0,33.73,48.84h0A17.31,17.31,0,0,0,51,66.15H86.79Z" transform="translate(-22.67 -25.83)"/><path class="cls-24" d="M125.5,31.53H89.75V66.15H125.5a17.31,17.31,0,0,0,17.31-17.31h0A17.31,17.31,0,0,0,125.5,31.53Z" transform="translate(-22.67 -25.83)"/><path class="cls-25" d="M105.12,50.21l1.35-1.31a1.08,1.08,0,0,1,1.49,0L111.23,52l9.55-10.77a1.08,1.08,0,0,1,1.53-.08l1.41,1.28a1.08,1.08,0,0,1,.1,1.49L112.71,57.1a1.33,1.33,0,0,1-1.93.1l-5.65-5.44A1.08,1.08,0,0,1,105.12,50.21Z" transform="translate(-22.67 -25.83)"/><path class="cls-11" d="M58.58,57.44l-1.31-1.2a1.08,1.08,0,0,1-.08-1.51L69.11,41.25a1.08,1.08,0,0,1,1.53-.08L72,42.38A1.08,1.08,0,0,1,72,43.88L60.11,57.36A1.08,1.08,0,0,1,58.58,57.44Z" transform="translate(-22.67 -25.83)"/><path class="cls-11" d="M72.63,55.41l-1.18,1.34a1.08,1.08,0,0,1-1.53.08L56.67,44.7a1.08,1.08,0,0,1-.08-1.51l1.18-1.34a1.08,1.08,0,0,1,1.53-.08L72.55,53.91A1.08,1.08,0,0,1,72.63,55.41Z" transform="translate(-22.67 -25.83)"/><path class="cls-26" d="M143.81,230.22c.15.11,2.51,2.13,2.51,2.13" transform="translate(-22.67 -25.83)"/><path class="cls-13" d="M167.77,217.26c-.48-.54-1.77-1.1-2.91.42a20.84,20.84,0,0,0-2.28,4.83c-.62,1.5-1.67,4.2-2,4.74s-3.4,3.83-3.4,3.83-2.27-6.53-3.83-7.09a2.41,2.41,0,0,0-2.62.85,2.3,2.3,0,0,0-2.77.68c-1.57.35-5,3.51-5.21,4.06s-.83,6-.83,6c-2.41,1.39-5.66,3.41-7.07,4.32-2.15,1.39-2.69,7.11-3.75,14.23s-6.84,20.13-7.39,21.47c-.72,1.75-7.08,22.74-8.4,30.87s-2.08,19.27,5,21.61,13.56.82,18.07-4.24c2.4-2.7,4.92-11.25,3.87-30.66a341.62,341.62,0,0,1-.07-35.37c.28-3.37.39-5.67,3.88-8.62s9.68-6.32,11.27-7.76,2-2.74,3.33-5.17,3.75-5.19,4.14-6.5S168.25,217.81,167.77,217.26Z" transform="translate(-22.67 -25.83)"/><path class="cls-16" d="M141.95,235.61a15.53,15.53,0,0,1,1.3-1,8,8,0,0,1,1.43-.82,3.1,3.1,0,0,0,1.39-2.36l0,.21a4.3,4.3,0,0,1-.28-2,4.4,4.4,0,0,1,.58-1.83,6,6,0,0,0,.41,3.49l0,.09v.12a4.64,4.64,0,0,1-.5,1.68,2.61,2.61,0,0,1-1.36,1.24c-.52.16-1,.37-1.49.57S142.47,235.43,141.95,235.61Z" transform="translate(-22.67 -25.83)"/><path class="cls-16" d="M148,225.52a1.08,1.08,0,0,1,1.09,0,2.89,2.89,0,0,1,.9.67,7.79,7.79,0,0,1,1.18,1.78,18.72,18.72,0,0,1,1.58,3.88,18.79,18.79,0,0,1-2.3-3.48,18.61,18.61,0,0,0-1-1.77,3.52,3.52,0,0,0-.61-.73A1,1,0,0,0,148,225.52Z" transform="translate(-22.67 -25.83)"/><path class="cls-16" d="M150.76,224.84a3.31,3.31,0,0,1,1.9,1.37,11.43,11.43,0,0,1,1.14,2,22.58,22.58,0,0,1,1.56,4.31,22.57,22.57,0,0,1-2.31-4c-.32-.7-.59-1.39-.93-2A4.77,4.77,0,0,0,150.76,224.84Z" transform="translate(-22.67 -25.83)"/><path class="cls-16" d="M157.22,231.08a5,5,0,0,1,1.17,1.77,5,5,0,0,1,.41,2.09,5,5,0,0,1-1.17-1.77A5,5,0,0,1,157.22,231.08Z" transform="translate(-22.67 -25.83)"/><line class="cls-27" x1="359.47" y1="215.27" x2="354.35" y2="217.2"/><line class="cls-27" x1="358.49" y1="207.73" x2="350.25" y2="207.84"/><line class="cls-27" x1="361.75" y1="202.31" x2="358.57" y2="196.26"/><line class="cls-27" x1="369.55" y1="193.47" x2="368.89" y2="199.92"/><line class="cls-27" x1="378.57" y1="202.33" x2="374.29" y2="205.83"/><path class="cls-6" d="M358.6,329c-.47-6.88,18.14-44.83,24.06-59,.51-1.22,1.38-3.75,2.23-5.93a8.91,8.91,0,0,0,.14-7.28c-1.45-3.17-1.64-9.67-1.77-10.58s1.63-4.63,1.23-7.49-2.29-5.3-.51-5.65a2.7,2.7,0,0,1,2.35.39s.86-1.47,2.07-1.2a3,3,0,0,1,.63.23h0c1.23.55,3,1.79,4.93,1.74h.42a2.52,2.52,0,0,1,2.43,1.77,6.83,6.83,0,0,1,.47,1.85,3.18,3.18,0,0,1,2.48.67,8.92,8.92,0,0,1,1.74,2.94,2.87,2.87,0,0,1,2.39,1.68c.91,1.69,2.43,4.43,2.52,5.39s-1.66,8-2.42,9.72-2.78,3-4,4.85a12,12,0,0,0-.73,1.48h0s0,0,0,0A70,70,0,0,0,396,275.11c-3.27,15.8-14.75,70.82-19.34,72.09C370.54,348.9,359.08,336.18,358.6,329Z" transform="translate(-22.67 -25.83)"/><path class="cls-16" d="M386.32,233.53a10.79,10.79,0,0,1,2,1.79,15.11,15.11,0,0,1,1.72,2.14,2.29,2.29,0,0,1,.19.37.71.71,0,0,1,.07.3v.2l0,.69c0,.45-.06.89-.1,1.34l-.1,1.32a9.63,9.63,0,0,0,0,1.2v.05a5.69,5.69,0,0,1-.38,2.25,4.78,4.78,0,0,1-1.24,1.88,10.33,10.33,0,0,1-1.71,1.29,15.7,15.7,0,0,1-1.86,1,25.33,25.33,0,0,0,3-2.81,4.52,4.52,0,0,0,.9-1.66A5.89,5.89,0,0,0,389,243v.05a7.55,7.55,0,0,1,0-1.47l.13-1.34c0-.44.1-.89.15-1.33l.07-.64v-.13s0,0,0,0a2.43,2.43,0,0,0-.1-.24,22.17,22.17,0,0,0-1.38-2.22A17,17,0,0,0,386.32,233.53Z" transform="translate(-22.67 -25.83)"/><path class="cls-16" d="M397.06,238c-.87.91-1.76,1.79-2.6,2.71a23.67,23.67,0,0,0-2.38,2.79c-.62,1-1.22,2.15-1.75,3.26l-.38.83a2.3,2.3,0,0,0-.22.7,1.13,1.13,0,0,0,.55,1.1,1.9,1.9,0,0,0,.7.21,2.22,2.22,0,0,0,.74,0c.34-.05.73-.54,1.13-1s.83-.93,1.18-1.41.66-1,1-1.55a5.55,5.55,0,0,1,1.42-1.4c.54-.37,1.08-.68,1.63-1,1.11-.59,2.22-1.17,3.37-1.68-1,.72-2.09,1.39-3.1,2.12a8.62,8.62,0,0,0-2.63,2.41c-.31.5-.6,1.08-1,1.62s-.79,1-1.16,1.52c-.2.25-.39.49-.64.75a2.18,2.18,0,0,1-1,.64,3.16,3.16,0,0,1-1.12,0,2.92,2.92,0,0,1-1.09-.32,2,2,0,0,1-.85-.91,2.51,2.51,0,0,1-.22-1.15,3,3,0,0,1,.32-1.08c.13-.3.27-.59.42-.87a31.13,31.13,0,0,1,2-3.27,18.9,18.9,0,0,1,2.71-2.71C395.07,239.52,396,238.72,397.06,238Z" transform="translate(-22.67 -25.83)"/><path class="cls-16" d="M403.29,245.51a3.86,3.86,0,0,1-.45.81,4,4,0,0,1-.66.68,4.66,4.66,0,0,1-1.72.84l.25-.19a11.32,11.32,0,0,1-2.31,3.19,5.69,5.69,0,0,1-.81.67,3.32,3.32,0,0,1-1.05.41,2.83,2.83,0,0,1-1.16,0,1.66,1.66,0,0,1-1.1-.75,2.38,2.38,0,0,1,0-2.29,7.32,7.32,0,0,1,.52-.85,4.08,4.08,0,0,0,.37-.78,6,6,0,0,1,2.1-3.21c-.32.55-.68,1.09-.93,1.64s-.3,1.18-.46,1.8a4.83,4.83,0,0,1-.35,1c-.15.3-.29.56-.4.82a1.48,1.48,0,0,0,0,1.36c.14.27.64.35,1.16.23a2.48,2.48,0,0,0,1.37-.79,13.83,13.83,0,0,0,2.38-2.76l.11-.17.14,0a5,5,0,0,0,1.64-.49A4.17,4.17,0,0,0,403.29,245.51Z" transform="translate(-22.67 -25.83)"/><path class="cls-16" d="M405.32,248a1.84,1.84,0,0,1-1.2.72,3.79,3.79,0,0,1-1.37,0,4.16,4.16,0,0,1-2.36-1.2,5.58,5.58,0,0,1,1.32,0c.42,0,.82.1,1.21.15l1.16.2A6.55,6.55,0,0,0,405.32,248Z" transform="translate(-22.67 -25.83)"/><path class="cls-16" d="M389.79,237.91c.43.06.8.15,1.17.2a5,5,0,0,0,1,.09h.47l0,.54a5.09,5.09,0,0,0,.26,1.23,5.74,5.74,0,0,0,.63,1.31,2.05,2.05,0,0,1-1.42-.88,2.75,2.75,0,0,1-.51-1.67l.52.53a2.5,2.5,0,0,1-1.28-.42A2.64,2.64,0,0,1,389.79,237.91Z" transform="translate(-22.67 -25.83)"/><path class="cls-6" d="M389,232.56h0c1.23.55,3,1.79,4.93,1.74h.42c-.42-.94-1.51-3.42-2-4.41-.65-1.24-1.3-2.9-2.85-2.52a1.56,1.56,0,0,0-1.33,2.11C388.27,230.08,388.82,231.88,389,232.56Z" transform="translate(-22.67 -25.83)"/><path class="cls-16" d="M390.47,261.78a22.33,22.33,0,0,1,2.26,1l2.16,1.06a18.07,18.07,0,0,0,2.16.88,2.74,2.74,0,0,0,2.23,0,1.57,1.57,0,0,1-1.06.76,3.94,3.94,0,0,1-1.33.07,8.13,8.13,0,0,1-2.46-.74A12.29,12.29,0,0,1,390.47,261.78Z" transform="translate(-22.67 -25.83)"/><path class="cls-16" d="M394.39,234.31a2.34,2.34,0,0,1-1.48.31,5,5,0,0,1-1.47-.34,5.91,5.91,0,0,1-2.4-1.71,23.58,23.58,0,0,1,2.69,1c.43.18.86.33,1.29.48A5.41,5.41,0,0,0,394.39,234.31Z" transform="translate(-22.67 -25.83)"/><path class="cls-28" d="M246.33,255.48l-4.76.6a1.86,1.86,0,0,1-2.08-1.62l-.78-6.22,8.34-1,.89,6.21A1.86,1.86,0,0,1,246.33,255.48Z" transform="translate(-22.67 -25.83)"/><path class="cls-28" d="M250.39,233.93a9.31,9.31,0,0,0-18.48,2.32c.54,4.36,5.43,8.11,5.86,9.15a28.56,28.56,0,0,1,1,2.84l8.34-1a15,15,0,0,1,.2-2.91C247.56,242.73,251,238.44,250.39,233.93Z" transform="translate(-22.67 -25.83)"/><path class="cls-6" d="M249.73,257.16s2.19-1.27,1.23-2.48a8.55,8.55,0,0,0-6.42-2.47c-2.63.18-6.48,2.46-7,3.6s.07,8.15-.18,10.32-.78,1.42.52,4.43,5.4,11.57,5.9,13.66,1.7,6.94,3.89,10A82.15,82.15,0,0,1,255,308c1.78,4.41,14.49,30.5,19.84,37.33s17.79-18.45,15.83-22.21-27.8-25.65-33-35.85a97.55,97.55,0,0,1-2.41-10.34c-.34-1.86,1.52-4.29.53-6.26.84-1.49.35-4-.63-5.93a27.46,27.46,0,0,1-1.37-3s.44-1.19-1.05-2.59A10.24,10.24,0,0,0,249.73,257.16Z" transform="translate(-22.67 -25.83)"/><path class="cls-16" d="M251.44,277.19a3.38,3.38,0,0,1-.91-1.75,1.66,1.66,0,0,1,.27-1.2,2,2,0,0,1,1-.69,2.86,2.86,0,0,1,2.09.34,5.35,5.35,0,0,0,1.61.77,1.5,1.5,0,0,1-1,.22,6.54,6.54,0,0,1-.94-.16,3,3,0,0,0-1.49-.07c-.46.14-.63.26-.72.77A14.85,14.85,0,0,0,251.44,277.19Z" transform="translate(-22.67 -25.83)"/><path class="cls-16" d="M255.8,270.68a15.3,15.3,0,0,0-1.57-2.38c-.29-.31-.63-.58-.87-.55a3.18,3.18,0,0,0-1.09.37c-.83.38-1.66.88-2.51,1.34s-1.7.94-2.61,1.35a13.6,13.6,0,0,1,2.12-2.08,13.1,13.1,0,0,1,2.52-1.63,3.48,3.48,0,0,1,1.69-.41,2.16,2.16,0,0,1,1.44,1.09A6.21,6.21,0,0,1,255.8,270.68Z" transform="translate(-22.67 -25.83)"/><path class="cls-16" d="M244.75,265.9a12.07,12.07,0,0,1,1.76-2.07,15.36,15.36,0,0,1,2.11-1.71,7.2,7.2,0,0,1,2.57-1.14,3.94,3.94,0,0,1,1.45,0,1.57,1.57,0,0,1,1.17.8,2.63,2.63,0,0,0-2.38.08,11.87,11.87,0,0,0-2.18,1.23C247.79,264,246.37,265,244.75,265.9Z" transform="translate(-22.67 -25.83)"/><path class="cls-16" d="M238.9,264a21.93,21.93,0,0,1,1.52-3.58,13.35,13.35,0,0,1,2.28-3.27c.48-.42.94-.86,1.47-1.28a4.57,4.57,0,0,1,.93-.58,2.1,2.1,0,0,1,1.19-.15,6,6,0,0,1,1.87.86,15.5,15.5,0,0,1,1.57,1.17c-.62-.22-1.2-.47-1.81-.67a7.61,7.61,0,0,0-1.72-.48,2,2,0,0,0-1.34.67L243.46,258a9.61,9.61,0,0,0-1.17,1.37c-.38.49-.74,1-1.12,1.53Q240.08,262.44,238.9,264Z" transform="translate(-22.67 -25.83)"/><line class="cls-29" x1="216.76" y1="190" x2="217.5" y2="196.32"/><line class="cls-29" x1="225.41" y1="198.25" x2="228.08" y2="192.6"/><line class="cls-29" x1="231.25" y1="203.88" x2="236.6" y2="200.67"/><line class="cls-29" x1="210.28" y1="199.99" x2="206.44" y2="195.34"/></g></svg>