<svg id="Слой_5" data-name="Слой 5" xmlns="http://www.w3.org/2000/svg" xmlns:xlink="http://www.w3.org/1999/xlink" viewBox="0 0 392.58 346.98"><defs><style>.cls-1{fill:#63656b;}.cls-10,.cls-13,.cls-15,.cls-2,.cls-21,.cls-26,.cls-27,.cls-28,.cls-3,.cls-30,.cls-4,.cls-5,.cls-6,.cls-8{fill:none;}.cls-2{clip-path:url(#clip-path);}.cls-4{stroke:#f4706b;}.cls-10,.cls-13,.cls-15,.cls-16,.cls-21,.cls-26,.cls-27,.cls-28,.cls-30,.cls-4,.cls-5,.cls-6,.cls-8{stroke-miterlimit:10;}.cls-27,.cls-28,.cls-4,.cls-5,.cls-6,.cls-8{stroke-width:2px;}.cls-5,.cls-8{stroke:#f6eeca;}.cls-10,.cls-13,.cls-15,.cls-16,.cls-21,.cls-5,.cls-8{stroke-linecap:round;}.cls-5{stroke-dasharray:10;}.cls-6{stroke:#029d41;}.cls-7{fill:#029d41;}.cls-8{stroke-dasharray:14.39;}.cls-16,.cls-9{fill:#fec2a0;}.cls-10,.cls-13,.cls-21{stroke:#303134;}.cls-10{stroke-width:0.7px;}.cls-11{fill:#f99979;}.cls-12{fill:#303134;}.cls-13{stroke-width:1.22px;}.cls-14{fill:#028537;}.cls-15{stroke:#fec519;stroke-width:2.03px;}.cls-16{stroke:#f99979;stroke-width:1.09px;}.cls-17,.cls-23{fill:#fec519;}.cls-18{fill:#fe3737;}.cls-19{fill:#794300;}.cls-20{fill:#fff;}.cls-21{stroke-width:0.67px;}.cls-22{fill:#663800;}.cls-23{font-size:25.82px;}.cls-23,.cls-31{font-family:MyriadPro-Regular, Myriad Pro;}.cls-24{fill:#e6ac00;}.cls-25{clip-path:url(#clip-path-2);}.cls-26{stroke:#505054;}.cls-26,.cls-30{stroke-width:0.93px;}.cls-27{stroke:#028537;}.cls-28{stroke:#e6ac00;}.cls-29{clip-path:url(#clip-path-3);}.cls-30{stroke:#e03131;}.cls-31{font-size:16.63px;fill:#f6eeca;}.cls-32{letter-spacing:0em;}.cls-33{letter-spacing:0em;}.cls-34{letter-spacing:0.02em;}.cls-35{letter-spacing:-0.01em;}.cls-36{letter-spacing:0em;}.cls-37{letter-spacing:-0.01em;}.cls-38{letter-spacing:0em;}.cls-39{letter-spacing:0em;}</style><clipPath id="clip-path"><path class="cls-1" d="M390.16,198c-1.75-5.35-7.12-5.42-11.59-3-4.12-7.18-8.4-3.9-9.06,1.69a24,24,0,0,0-7.58-1.82c-18.17-.05-17.44,15.5-17.44,15.5s2.59-6.82,16,.79a2,2,0,0,1,.82,2l-1.62,12.92,4.86,2.1s1.91-8.81,8.46-6.9,3.55,12.6-4.46,12.84c0,4.94.76,6.21.76,6.21S383,232.1,387.08,220a12.94,12.94,0,0,0-1.31-11.18C389.4,206.89,391.79,203,390.16,198Z"/></clipPath><clipPath id="clip-path-2" transform="translate(-18.43 -30)"><path class="cls-2" d="M390.16,198c-1.75-5.35-7.12-5.42-11.59-3-4.12-7.18-8.4-3.9-9.06,1.69a24,24,0,0,0-7.58-1.82c-18.17-.05-17.44,15.5-17.44,15.5s2.59-6.82,16,.79a2,2,0,0,1,.82,2l-1.62,12.92,4.86,2.1s1.91-8.81,8.46-6.9,3.55,12.6-4.46,12.84c0,4.94.76,6.21.76,6.21S383,232.1,387.08,220a12.94,12.94,0,0,0-1.31-11.18C389.4,206.89,391.79,203,390.16,198Z"/></clipPath><clipPath id="clip-path-3" transform="translate(-18.43 -30)"><path class="cls-3" d="M81.31,241.4s8.84-22.87-18.83-24.56c-38.43-2.35-26.93,44.81-42.59,51.65.67,13.12,23.22,18.86,33.51,16.66-3.75-6.67,1.74-13.78,1.81-14.89l4.12-.69s2-29.28,6.8-34.62c3.48-3.85,8-2,9.86-3.54S81.31,241.4,81.31,241.4Z"/></clipPath></defs><title>4.1</title><rect class="cls-4" x="186.58" y="66.58" width="53.94" height="40.61" rx="1.92" ry="1.92"/><rect class="cls-5" x="186.58" y="154.66" width="53.94" height="40.61" rx="1.92" ry="1.92"/><rect class="cls-4" x="275.03" y="112.19" width="53.94" height="40.61" rx="1.92" ry="1.92"/><rect class="cls-4" x="100.81" y="67.4" width="53.94" height="40.61" rx="1.92" ry="1.92"/><line class="cls-6" x1="157.18" y1="86.88" x2="180.09" y2="86.88"/><polygon class="cls-7" points="178 86.88 178 82.66 181.66 84.77 185.32 86.88 181.66 89 178 91.11 178 86.88"/><rect class="cls-4" x="100.81" y="125.08" width="53.94" height="40.61" rx="1.92" ry="1.92"/><line class="cls-6" x1="157.18" y1="145.38" x2="181.66" y2="159.44"/><polygon class="cls-7" points="178.06 157.43 180.07 153.71 182.29 157.31 184.5 160.91 180.28 161.03 176.06 161.15 178.06 157.43"/><line class="cls-6" x1="156.24" y1="205.23" x2="181.15" y2="191.95"/><polygon class="cls-7" points="177.49 193.84 179.38 197.62 181.71 194.1 184.04 190.57 179.82 190.32 175.6 190.06 177.49 193.84"/><line class="cls-6" x1="245" y1="101.59" x2="269.48" y2="115.64"/><polygon class="cls-7" points="265.88 113.64 267.89 109.92 270.1 113.51 272.32 117.11 268.1 117.23 263.88 117.35 265.88 113.64"/><line class="cls-6" x1="244.06" y1="161.43" x2="268.97" y2="148.15"/><polygon class="cls-7" points="265.31 150.05 267.2 153.82 269.53 150.3 271.86 146.78 267.64 146.52 263.42 146.27 265.31 150.05"/><rect class="cls-4" x="100.81" y="182.76" width="53.94" height="40.61" rx="1.92" ry="1.92"/><path class="cls-4" d="M270.16,315.58l-5.93,19.63a1.92,1.92,0,0,1-2.39,1.28l-48-14.49a1.92,1.92,0,0,1-1.28-2.39l10.63-35.2a1.92,1.92,0,0,1,2.39-1.28l48,14.49a1.92,1.92,0,0,1,1.28,2.39l-2.78,9.21" transform="translate(-18.43 -30)"/><path class="cls-8" d="M85,219.18V44.28C85,36.94,89.73,31,95.6,31H367.36C373.22,31,378,36.94,378,44.28V182.35" transform="translate(-18.43 -30)"/><line class="cls-8" x1="272.06" y1="240.37" x2="91.9" y2="240.37"/><path class="cls-9" d="M343.27,217.15a12.9,12.9,0,0,1-.26,4.56,63.78,63.78,0,0,1-1.82,6.68c-1.39,3.49.41,14,9.18,14.06.21,2,.71,7.17-2.74,10.93-2.14,6.19-5.14,22.54-5.14,22.54s20.95-1.39,23.94-4.38l7.78-5.6,3.3-11.79c-1-1.31-4.55-4.7-5-5.47a33.9,33.9,0,0,1-3.92-14.51c3.55-.1,7.37-1.77,8.56-4.31,1.5-3.19,1.06-8.92-2.6-10-6.55-1.91-8.12-1.59-8.16-9.9s-20.74-3.77-20.74-3.77S343.12,214.74,343.27,217.15Z" transform="translate(-18.43 -30)"/><path class="cls-10" d="M346.22,225.36c-2.08,1.22-3,4.92.38,4.19" transform="translate(-18.43 -30)"/><path class="cls-11" d="M350.37,242.45s4.21-.44,6.11-3.27a8.72,8.72,0,0,1-5.94,6.44C350.5,243.74,350.37,242.45,350.37,242.45Z" transform="translate(-18.43 -30)"/><path class="cls-10" d="M348.3,235.32s-1.75,2-4.36.06" transform="translate(-18.43 -30)"/><path class="cls-12" d="M357.81,220.29s-1-4.33-5.33-2.68l.08,1.19S354.73,217.39,357.81,220.29Z" transform="translate(-18.43 -30)"/><path class="cls-12" d="M343.36,217c1.26-2.62,4.09-.65,4.09-.65l-.43,1.52A2.69,2.69,0,0,0,343.36,217Z" transform="translate(-18.43 -30)"/><path class="cls-13" d="M355.78,223.21s-1.74-2.93-4.38-1" transform="translate(-18.43 -30)"/><path class="cls-13" d="M346.65,221.16s-1.24-2.1-2.88-.57" transform="translate(-18.43 -30)"/><path class="cls-7" d="M310.54,289.14h0c-2,18.33,14.4,28.64,6,47.42,15.93-3.2,55.17,22.42,71.3-1.33,8.12-12,24.2-34,23.17-51.9-.59-10.24-3.94-17.14-13.08-20.4-6.12-2.2-22.73-10.56-25.37-14.27L348.3,270.8s1.19-15.47-.66-17.42c-.07.11-23.27,7.18-27.2,15.15S310.73,287.8,310.54,289.14Z" transform="translate(-18.43 -30)"/><polygon class="cls-14" points="316.44 286.68 343.47 277.2 329.71 286.7 316.44 286.68"/><path class="cls-7" d="M296.63,280.85c11.67-2.54,26.87,2.19,26.87,2.19l-2.26,28.73c-5.7,1.34-13.51,5.21-22.46,2.55C283.76,309.84,285,283.4,296.63,280.85Z" transform="translate(-18.43 -30)"/><line class="cls-15" x1="284.14" y1="172.35" x2="286.76" y2="177.96"/><line class="cls-15" x1="292.46" y1="169.17" x2="291.96" y2="176.65"/><line class="cls-15" x1="299.94" y1="173.05" x2="296.49" y2="178.74"/><path class="cls-9" d="M296.8,249.93c1.17-5.93,1.26-13.16,4.8-12.55.22-1.58.88-3,2.2-3s3-.16,3.39-2.06a31.37,31.37,0,0,0,.8-13.4c-.67-3.85,1.08-5.12,2.47-3.5,1.06,1.24,2.19,3.55,2.16,8.71s-1.18,9.47-.81,10.15,1.08.49,2.31,2.79,4.9,8.38,4.81,9.34c-.14,1.4-1.6,2.31-3.15,1.06,1.54,2.35,2.08,3.57.47,4.49-1.78,1-2.86-.94-2.86-.94s-1.24,1.28-2.25,2.53a15.88,15.88,0,0,0-2.64,3.94c-.67,1.52-.48,6.38.1,9.27.95,4.7,9.17,20.36,6.88,26.38-2.38,6.24-15.55,7.24-20.55,4.06S295.63,255.85,296.8,249.93Z" transform="translate(-18.43 -30)"/><path class="cls-9" d="M316.81,242.45s4.1-4.24,2.43-5.91-4.35,1.12-4.68,1.33Z" transform="translate(-18.43 -30)"/><polyline class="cls-16" points="296.96 216.87 292.79 209.63 287.35 207.03"/><path class="cls-16" d="M313.43,250.81s-4.55-7.89-5-8.13l-4.57-2.3" transform="translate(-18.43 -30)"/><path class="cls-11" d="M309.74,255.31s-6.23,1.46-8.9,1.2a8,8,0,0,0,7.66.95Z" transform="translate(-18.43 -30)"/><path class="cls-16" d="M311.37,250.23s-3-4.22-4.88-4.6a11.74,11.74,0,0,1-3.59-1.48" transform="translate(-18.43 -30)"/><path class="cls-9" d="M289.61,332.65c-1.38-.14-16.48,1.57-19.14,1.33a40.94,40.94,0,0,1-11.11-3.23c-2.33-1.28-.71-2.33-.71-2.33s-5.37-2.66-5.37-4.42,3.75-.62,3.75-.62a29.44,29.44,0,0,1-3.8-3c-.85-1-1.9-2.42-.47-3.32s7.84,3.47,7.84,3.47-5.79-4.61-6.22-5.32-.24-1.85,1.23-2.23,7.08,3.37,9.78,4.46,6.7,1.76,9,1.28,2.8-2.42,2-3.47-4.89-.57-7.79-1-4.23-1.52-4.8-3.51.24-2.37,3.37-1.47,6.79.24,11.54,1.38,11.59,7.69,14.44,8.93a20.86,20.86,0,0,0,5.22,1.52c3.91.41,43.76-6.94,49.69-4.4s5.56,19,3.08,22.54S291,332.79,289.61,332.65Z" transform="translate(-18.43 -30)"/><path class="cls-11" d="M270.66,324.29s-6.65-1-10.07-3.75l10.53,2.4Z" transform="translate(-18.43 -30)"/><path class="cls-11" d="M270.66,329.32s-8.41-2.52-13.63-5.94l14.09,4.68Z" transform="translate(-18.43 -30)"/><path class="cls-11" d="M267.84,332s-7.8-2.82-9.2-3.58l9.48,2.33Z" transform="translate(-18.43 -30)"/><path class="cls-17" d="M108,280.59c-7.92-6.29-27.78-2.86-33.44-8.21,0,0-7.43-9.85-23.94-1.07C44.6,287,30.29,287,25.07,294.06c-9.1,12.32-9.68,27.13,3.57,46,9.58,13.61-10.2,33.38,16,36.81,14.64,1.92,28.06-13.94,44.42-16S121.46,347,121.46,347s12.92-25.55.22-37.5S116.08,287,108,280.59Z" transform="translate(-18.43 -30)"/><path class="cls-18" d="M81.31,241.4s8.84-22.87-18.83-24.56c-38.43-2.35-26.93,44.81-42.59,51.65.67,13.12,23.22,18.86,33.51,16.66-3.75-6.67,1.74-13.78,1.81-14.89l4.12-.69Z" transform="translate(-18.43 -30)"/><path class="cls-19" d="M83,245.51c-2.9-7.05-1.92-8.17-3.37-11.56a28.79,28.79,0,0,0-1.9-4.27c-.95-.89-.73,2.6-3.89,2.42-14.59-.83-7.53,18.36-16.25,20.46-1-1.14-2.55-6-5.78-6.58s-7.44,3.6-4.34,9.24c2.16,3.94,10.28,5.27,10.28,5.27s1.63,6.1-2.56,9.79C55.39,280.76,77.85,287,77.85,287s-7.46-18.45,1.31-21.19C88.35,262.94,84.2,248.36,83,245.51Z" transform="translate(-18.43 -30)"/><polygon class="cls-20" points="46.39 251.61 61.78 267.51 59.41 256.99 46.39 251.61"/><path class="cls-21" d="M81,248.4s4.32,4.5-1.33,4.77" transform="translate(-18.43 -30)"/><line class="cls-21" x1="58.7" y1="229.57" x2="64.22" y2="228.26"/><ellipse class="cls-12" cx="53.79" cy="215.97" rx="1.25" ry="2.55"/><ellipse class="cls-12" cx="62.17" cy="213.72" rx="1.02" ry="2.31"/><path class="cls-10" d="M69,241.22S72,237,74.76,240" transform="translate(-18.43 -30)"/><path class="cls-10" d="M78.48,239s.51-2.35,2-1.48" transform="translate(-18.43 -30)"/><path class="cls-19" d="M120.41,348.87c1.06-3,.21-11-7.29-26.59-9-18.68-12.59-30.93-12.59-33.9s2.25-16.34,1.72-18.6-9.51-9.21-11-9.41S78.5,262.22,78,262.91s0,3.18,4.22,2.43c-2.43,1.84-3.13,2.63-1.64,3.68s3.53-1.34,4.57-1.84S89,265.69,89,265.69l1.49,2.78s-3.83-.65-4.77.1a11.45,11.45,0,0,0-3.08,5c-.25,1.54-1,4.17,0,4.42a2.49,2.49,0,0,0,3.08-2c.5-1.94.5-2.58,1.64-2.93s2.29.2,2.38.75a55.77,55.77,0,0,1-.35,5.61c-.1.7-1.84,3.92-.84,6.46s2.73,7,2.73,8.3.55,18.28.55,20,1.94,21.16,3.63,28.32S100.31,359,107,358.54,118.43,354.59,120.41,348.87Z" transform="translate(-18.43 -30)"/><path class="cls-19" d="M45.13,361.23C47.21,373.29,65.2,369,79,366.7s31.93-8.21,35.17-9.27,5.1-.66,8.74-.93,9.47-4.44,9.74-4.44,1.92,1.06,3.2,1.13a6.64,6.64,0,0,0,4.35-1.66c1.66-1.26.53-2.12.53-2.12s2.38-2.91,2.91-3.53-.86-2.9-.86-2.9l.26-1c.26-1-1.32-2-1.32-2s.93-2.25,0-3.44-5-2.12-8.88-1.59-12.85,8.74-20.93,9.67-46.19,0-49.28,0C51.26,344.52,42.29,344.84,45.13,361.23Z" transform="translate(-18.43 -30)"/><polygon class="cls-22" points="122.28 319.42 118.9 314.51 123.27 318.2 122.28 319.42"/><polygon class="cls-22" points="124.33 312.99 118.9 310.74 125.09 314.51 124.33 312.99"/><path class="cls-22" d="M141.71,340c-.4-.26-4.37-2-4.37-2l4.71.74Z" transform="translate(-18.43 -30)"/><text class="cls-23" transform="translate(29.7 171.89)">?!</text><line class="cls-4" x1="253.65" y1="279.22" x2="251.73" y2="285.58"/><path class="cls-24" d="M75.05,344.87s-12.5-9-14.83-15c2.67,8.2,5.46,14.88,5.46,14.88Z" transform="translate(-18.43 -30)"/><path class="cls-1" d="M390.16,198c-1.75-5.35-7.12-5.42-11.59-3-4.12-7.18-8.4-3.9-9.06,1.69a24,24,0,0,0-7.58-1.82c-18.17-.05-17.44,15.5-17.44,15.5s2.59-6.82,16,.79a2,2,0,0,1,.82,2l-1.62,12.92,4.86,2.1s1.91-8.81,8.46-6.9,3.55,12.6-4.46,12.84c0,4.94.76,6.21.76,6.21S383,232.1,387.08,220a12.94,12.94,0,0,0-1.31-11.18C389.4,206.89,391.79,203,390.16,198Z" transform="translate(-18.43 -30)"/><g class="cls-25"><path class="cls-26" d="M358.75,213.75c.38-.12,20.5,2.25,32.63,0" transform="translate(-18.43 -30)"/><path class="cls-26" d="M358.75,217.63s16,4.32,31.94,2.66" transform="translate(-18.43 -30)"/><path class="cls-26" d="M375.88,202.35s12.88,1,16.63-8.47" transform="translate(-18.43 -30)"/><path class="cls-26" d="M378,205.89s10.65,2,16.15-5.32" transform="translate(-18.43 -30)"/><path class="cls-26" d="M373.63,202.38c0-.25-3.92-12.63,4.35-13.38" transform="translate(-18.43 -30)"/></g><line class="cls-27" x1="356.32" y1="226.81" x2="332.97" y2="247.21"/><polyline class="cls-28" points="49.2 265.18 64.13 275.4 66.54 259.56"/><g class="cls-29"><path class="cls-30" d="M66.76,236.45s1-29.5-15.49-22.37" transform="translate(-18.43 -30)"/><path class="cls-30" d="M67.64,213s11.92,7.61,5.84,21.74" transform="translate(-18.43 -30)"/><path class="cls-30" d="M64.82,243.72c.31-.27-2.69-27.27-21.44-24" transform="translate(-18.43 -30)"/></g><text class="cls-31" transform="translate(99.95 26.71)"><tspan class="cls-32">W</tspan><tspan x="13.99" y="0">h</tspan><tspan class="cls-33" x="23.22" y="0">a</tspan><tspan x="31.17" y="0">t should one </tspan><tspan class="cls-34" x="121.36" y="0">k</tspan><tspan x="129.45" y="0">n</tspan><tspan class="cls-35" x="138.68" y="0">o</tspan><tspan class="cls-36" x="147.69" y="0">w </tspan><tspan class="cls-37" x="163.46" y="0">t</tspan><tspan class="cls-38" x="168.87" y="0">o lea</tspan><tspan class="cls-39" x="201.8" y="0">r</tspan><tspan x="207.3" y="0">n</tspan></text><text class="cls-31" transform="translate(212.58 50.34)">wh<tspan class="cls-33" x="21.47" y="0">a</tspan><tspan class="cls-38" x="29.42" y="0">t I&apos;m sha</tspan><tspan class="cls-39" x="86.79" y="0">r</tspan><tspan x="92.29" y="0">ing?</tspan></text></svg>