<svg width="463" height="326" viewBox="0 0 463 326" fill="none" xmlns="http://www.w3.org/2000/svg">
<line y1="-2.5" x2="15.8311" y2="-2.5" transform="matrix(0.955872 -0.293783 -0.257707 -0.966223 134.684 35.734)" stroke="#00B84C" stroke-width="5"/>
<path d="M156.286 30.7848L148.79 27.2343L151.676 38.0561L156.286 30.7848Z" fill="#00B84C"/>
<line y1="-2.5" x2="15.7957" y2="-2.5" transform="matrix(0.91611 0.400926 0.369123 -0.92938 136.424 51.1368)" stroke="#00B84C" stroke-width="5"/>
<path d="M156.083 61.5083L152.367 53.7595L148.224 64.1909L156.083 61.5083Z" fill="#00B84C"/>
<line y1="-2.5" x2="15.772" y2="-2.5" transform="matrix(0.961219 -0.275786 -0.244001 -0.969775 216.411 57.4294)" stroke="#00B84C" stroke-width="5"/>
<path d="M238.031 52.9134L230.595 49.203L233.338 60.1036L238.031 52.9134Z" fill="#00B84C"/>
<line y1="-2.5" x2="15.7446" y2="-2.5" transform="matrix(0.918065 0.396429 0.369308 -0.929307 216.589 72.4156)" stroke="#00B84C" stroke-width="5"/>
<path d="M236.225 82.6639L232.522 74.9359L228.364 85.3986L236.225 82.6639Z" fill="#00B84C"/>
<rect width="59.4949" height="37.0254" rx="3" transform="matrix(-1 0 0 1 301.708 71.9747)" fill="url(#paint0_linear_918_4220)"/>
<rect width="59.4949" height="37.0254" rx="3" transform="matrix(-1 0 0 1 301.708 26.1726)" fill="url(#paint1_linear_918_4220)"/>
<rect width="58.4512" height="37.0254" rx="3" transform="matrix(-1 0 0 1 217.52 49.0736)" fill="url(#paint2_linear_918_4220)"/>
<rect width="59.4949" height="37.0254" rx="3" transform="matrix(-1 0 0 1 136.495 27)" fill="url(#paint3_linear_918_4220)"/>
<rect width="59.4949" height="37.0254" rx="3" transform="matrix(-1 0 0 1 219.345 0)" fill="url(#paint4_linear_918_4220)"/>
<path d="M296.044 162.876H299.495V168.678C299.215 168.664 298.132 168.645 296.044 168.678C296.044 169.309 289.058 170.781 285.817 171.159C283.082 171.454 282.913 171.201 280.472 170.36C278.747 170.15 278.831 168.426 277.232 168.048C275.38 167.98 274.973 166.73 275.001 166.113C277.526 166.085 283.006 166.046 284.723 166.113C286.575 166.197 289.268 162.876 289.647 162.497C288.427 162.119 286.617 160.647 285.817 159.049C285.018 157.451 286.406 156.442 287.459 156.736C287.29 157.661 288.974 158.923 291.288 159.638C293.073 159.604 295.202 161.782 296.044 162.876Z" fill="#F2AA79"/>
<path d="M419.018 104.356V108.729L418.682 109.612L425.458 112.514C425.542 112.387 425.82 111.933 426.257 111.126C429.75 110.453 432.318 103.136 432.865 101.539C433.412 99.9407 432.149 99.6043 431.728 99.0577C431.644 97.9644 431.055 98.0485 430.466 97.7962C430.163 95.2396 427.843 95.8058 426.72 96.4085C427.352 94.6144 428.892 90.3535 430.003 87.6623C430.373 85.0384 428.502 85.3075 427.52 85.7701C426.342 88.9518 423.741 95.9292 422.764 98.3849C420.45 100.782 419.566 94.6425 418.429 92.7923C415.82 90.5216 414.894 93.3389 416.03 94.3061C417.167 95.2732 416.914 97.2495 416.788 99.6043C416.687 100.815 418.233 103.277 419.018 104.356Z" fill="#F2AA79"/>
<path d="M336.135 222.736L338.885 176.225H381.528L385.673 218.237V270.93H369.462L366.219 222.736L360.432 190.229L352.552 226.059L357.436 274H340.034L336.135 222.736Z" fill="#4550BB"/>
<path d="M350.524 108.204L348.949 101.087L365.987 93.2553V105.581L350.524 108.204Z" fill="#E28E55"/>
<path d="M370.202 93.9607C366.434 100.159 357.292 103.529 353.193 104.44C341.984 100.485 344.251 84.5415 344.033 79.7299C343.815 74.9184 344.949 74.1029 348.744 70.1069C377.835 63.0119 373.561 84.5415 370.202 93.9607Z" fill="#F2AA79"/>
<path d="M345.943 93.0492C348.254 93.5802 353.208 94.2791 354.533 92.8261C353.429 95.0566 351.394 101.78 345.943 93.0492Z" fill="#7A4400" fill-opacity="0.5"/>
<path d="M357.54 74.4852C364.042 75.9976 364.631 84.1081 364.042 87.9066C368.125 84.8792 368.373 83.8421 369.889 85.5663C371.404 87.2905 369.184 92.6521 367.669 97.4037C376.507 89.2041 373.061 74.2906 371.798 68.4457C362.75 57.8492 346.715 65.4601 344.148 68.4457C339.392 77.9068 349.081 75.999 357.54 74.4852Z" fill="black"/>
<path d="M354.385 84.5795C354.458 85.2471 354.134 85.8298 353.662 85.881C353.191 85.9322 352.749 85.4325 352.677 84.7649C352.604 84.0973 352.928 83.5146 353.399 83.4634C353.871 83.4122 354.312 83.9119 354.385 84.5795Z" fill="black"/>
<path d="M347.295 84.5806C347.403 85.2435 347.237 85.8219 346.925 85.8725C346.613 85.923 346.272 85.4266 346.165 84.7638C346.057 84.1009 346.223 83.5225 346.535 83.4719C346.848 83.4214 347.188 83.9177 347.295 84.5806Z" fill="black"/>
<path d="M345.943 93.0407C347.245 94.6599 351.111 96.7838 354.462 92.8976C352.49 93.5763 347.732 93.5414 345.943 93.0407Z" fill="#D9D9D9"/>
<path d="M347.41 91.1095L349.236 85.9597L349.701 89.6075L350.417 89.4286L351.24 90.7161L351.419 91.1095C349.873 91.9106 348.102 91.4433 347.41 91.1095Z" fill="#7A4400" fill-opacity="0.3"/>
<path d="M297.908 170.503V160.382L322.14 155.196L330.218 113.163C330.339 112.533 330.717 111.98 331.272 111.657C334.153 109.976 339.24 107.42 347.374 104.556C358.857 110.021 363.159 104.413 366.452 101.659L384.072 105C384.877 105.153 385.605 105.576 386.134 106.2L405.897 129.483L416.85 108.133L426.585 112.174C423.758 118.373 417.165 132.93 413.413 141.571C411.925 144.873 407.038 144.41 404.665 143.936C404.129 143.829 403.641 143.567 403.226 143.212L384.528 127.194V181.088L335.563 182.841C336.422 178.227 337.982 161.09 339.5 145.469C337.639 162.005 327.175 168.846 323.787 168.464L297.908 170.503Z" fill="url(#paint5_linear_918_4220)"/>
<path d="M44.5029 260.845H446.34V326H44.5029V260.845Z" fill="#004F7B"/>
<path d="M166.018 255.584H144.573L150.516 245.797C149.766 244.731 147.383 240.472 144.573 236.299C139.963 234.659 141.372 230.671 142.652 228.882C145.024 228.691 153.806 228.587 169.967 229.696C172.776 233.797 169.617 235.807 167.686 236.299L163.153 244.711L166.018 255.584Z" fill="#F6D3A9"/>
<path d="M142.996 209.526C138.457 222.551 145.884 240.239 150.006 244.681C152.948 242.178 161.562 243.324 162.583 244.681C172.338 236.601 172.374 213.935 170.993 212.005C162.709 198.226 144.466 208.049 142.996 209.526Z" fill="black"/>
<path d="M129.535 259.907L124.043 295.243C123.773 296.979 126.231 298.76 127.494 299.434H183.594C185.659 299.434 187.356 297.323 187.946 296.268C186.886 289.263 184.53 273.426 183.594 266.118C182.724 257.706 178.281 256.711 176.24 256.259C172.338 255.656 167.896 254.54 165.735 253.666C157.906 256.801 149.106 254.972 145.684 253.666C145.294 254.048 143.475 254.932 139.321 255.414C132.501 255.897 129.956 258.61 129.535 259.907Z" fill="#612D5B"/>
<path d="M312.949 234.775H301.484L302.127 233.355C301.484 232.442 299.443 228.794 297.037 225.221C293.088 223.816 294.294 220.4 295.391 218.868C297.422 218.705 304.944 218.615 318.785 219.565C321.191 223.077 318.485 224.799 316.831 225.221L312.949 232.425V234.775Z" fill="#F6D3A9"/>
<path d="M295.957 207.558C292.07 218.713 298.159 229.111 301.69 232.916C304.209 230.772 311.587 231.754 312.461 232.916C320.816 225.995 319.274 210.579 318.091 208.927C310.996 197.126 297.217 206.293 295.957 207.558Z" fill="#DDC55E"/>
<path d="M298.605 239.785C298.605 236.79 301.022 234.362 304.004 234.362H309.761C312.743 234.362 315.16 236.79 315.16 239.785V241.695H298.605V239.785Z" fill="#119094"/>
<path d="M284.158 245.931L279.453 284.751C279.221 286.659 281.328 288.615 282.41 289.355H330.468C332.237 289.355 333.69 287.037 334.196 285.877C333.288 278.182 331.27 260.784 330.468 252.755C329.722 243.513 325.916 242.42 324.168 241.923C320.825 241.261 317.02 240.036 315.168 239.075C308.462 242.52 300.923 240.51 297.992 239.075C297.658 239.495 296.099 240.466 292.541 240.996C286.699 241.526 284.518 244.507 284.158 245.931Z" fill="#4550BB"/>
<path d="M141.607 206.691C141.607 204.552 143.334 202.817 145.464 202.817H167.754C169.883 202.817 171.61 204.552 171.61 206.691V218.235H141.607V206.691Z" fill="url(#paint6_linear_918_4220)"/>
<path d="M218.157 226.776C219.453 234.399 214.095 238.759 211.254 239.985L232.541 240.566L231.924 236.228V231.657L234.277 216.55C227.952 215.426 214.169 213.59 209.634 215.233C208.338 218.703 211.357 220.785 213.028 221.392C213.658 222.102 215.565 224.173 218.157 226.776Z" fill="#F6D3A9"/>
<path d="M202.462 243.989C200.24 247.885 199.222 271.047 198.991 282.14L202.462 292.625H246.129C247.363 293.978 250.017 291.34 250.758 269.964C251.498 248.589 245.512 241.035 242.426 239.93C239.352 238.87 232.928 236.751 231.818 236.751H214.459C211.682 236.751 205.471 238.712 202.462 243.989Z" fill="url(#paint7_linear_918_4220)"/>
<path d="M212.642 201.016C201.289 212.42 214.133 224.839 222.399 229.449C224.481 237.584 230.42 235.143 235.279 233.981C240.138 232.819 237.824 223.987 235.279 220.966C238.75 219.571 238.519 213.063 237.824 206.129C234.624 191.061 215.959 198.886 212.642 201.016Z" fill="#343434"/>
<path d="M115.924 261.62C115.924 257.341 119.377 253.872 123.636 253.872H176.469C180.729 253.872 184.182 257.341 184.182 261.62V292.919H115.924V261.62Z" fill="#00ADFF"/>
<path d="M119.7 268.592C119.7 264.314 123.153 260.845 127.412 260.845H172.475C176.735 260.845 180.188 264.314 180.188 268.592V292.919H119.7V268.592Z" fill="#004F7B"/>
<path d="M81.64 247.914H60.1952L66.1384 238.126C65.3879 237.061 63.0047 232.802 60.1952 228.629C55.5848 226.989 56.9935 223.001 58.2742 221.212C60.6454 221.021 69.4281 220.917 85.5886 222.026C88.3981 226.127 85.2384 228.137 83.3074 228.629L78.775 237.041L81.64 247.914Z" fill="#F6D3A9"/>
<path d="M58.4224 206.178C53.9511 217.385 61.0602 233.178 65.231 236.983C68.2227 234.828 77.4399 235.815 78.4778 236.983C88.3993 230.025 87.98 210.507 86.5757 208.845C78.2694 197.148 61.7539 202.9 58.6197 205.877C58.5298 205.963 58.4684 206.063 58.4224 206.178Z" fill="#56392F"/>
<path d="M45.1573 252.237L39.6644 287.573C39.3944 289.309 41.8531 291.09 43.1162 291.764H99.2158C101.281 291.764 102.978 289.653 103.568 288.598C102.508 281.593 100.152 265.756 99.2158 258.448C98.3454 250.036 93.903 249.041 91.862 248.589C87.9599 247.986 83.5175 246.87 81.3564 245.996C73.5283 249.131 64.7276 247.302 61.3058 245.996C60.9156 246.378 59.0966 247.262 54.9424 247.744C48.1228 248.227 45.5775 250.94 45.1573 252.237Z" fill="#FF8A00"/>
<path d="M42.2662 261.62C42.2662 257.341 45.7193 253.872 49.979 253.872H108.211C112.47 253.872 115.924 257.341 115.924 261.62V292.919H42.2662V261.62Z" fill="#00ADFF"/>
<path d="M46.3408 268.592C46.3408 264.314 49.794 260.845 54.0536 260.845H103.901C108.161 260.845 111.614 264.314 111.614 268.592V292.919H46.3408V268.592Z" fill="#004F7B"/>
<path d="M196.06 261.62C196.06 257.341 199.513 253.872 203.772 253.872H250.743C255.003 253.872 258.456 257.341 258.456 261.62V292.919H196.06V261.62Z" fill="#00ADFF"/>
<path d="M199.511 268.592C199.511 264.314 202.965 260.845 207.224 260.845H247.093C251.352 260.845 254.805 264.314 254.805 268.592V292.919H199.511V268.592Z" fill="#004F7B"/>
<path d="M351.039 218.214C349.158 218.146 345.754 216.638 347.189 211.148C348.694 214.312 350.383 217.177 351.039 218.214Z" fill="#7A4400"/>
<path d="M372.754 210.68C374.056 212.045 375.451 215.51 370.612 218.442C371.728 215.119 372.505 211.883 372.754 210.68Z" fill="#7A4400"/>
<path d="M351.647 221.412C352.087 225.901 349.225 230.261 347.739 231.879C353.943 231.317 367.915 230.234 374.167 230.397C369.999 229.21 370.192 223.913 370.809 221.412C370.375 221.412 369.993 220.069 371.938 214.696C376.772 198.995 366.352 196.756 360.041 196C337.926 199.722 349.621 215.801 351.647 221.412Z" fill="black"/>
<path d="M338.824 238.799V247.028L340.676 263.078L382.359 262.147C382.484 260.839 382.66 255.983 382.359 247.028C383.841 239.259 380.738 236.057 379.001 235.427L371.562 232.083L366.467 230.629C362.251 230.687 356.105 229.972 353.557 231.182C348.486 231.786 340.551 236.813 338.824 238.799Z" fill="#40B17B"/>
<path d="M277.97 264.176C277.97 259.898 281.423 256.429 285.682 256.429H334.505C338.764 256.429 342.217 259.898 342.217 264.176V295.475H277.97V264.176Z" fill="#00ADFF"/>
<path d="M281.524 271.149C281.524 266.87 284.977 263.402 289.237 263.402H330.745C335.005 263.402 338.458 266.87 338.458 271.149V295.475H281.524V271.149Z" fill="#004F7B"/>
<path d="M331.882 261.387C331.882 257.109 335.335 253.64 339.595 253.64H396.67C400.93 253.64 404.383 257.109 404.383 261.387V292.686H331.882V261.387Z" fill="#00ADFF"/>
<path d="M335.893 268.36C335.893 264.081 339.346 260.613 343.606 260.613H392.428C396.687 260.613 400.141 264.081 400.141 268.36V292.686H335.893V268.36Z" fill="#004F7B"/>
<path d="M117.3 255.715H100.1L101.064 253.585C100.1 252.216 97.0381 246.744 93.4285 241.383C87.505 239.275 89.315 234.152 90.9604 231.853C94.0069 231.608 105.291 231.474 126.054 232.899C129.663 238.167 125.604 240.75 123.123 241.383L117.3 252.19V255.715Z" fill="#7A4400"/>
<path d="M91.8087 214.112C85.9778 230.846 95.1124 246.444 100.408 252.151C104.188 248.936 115.256 250.408 116.567 252.151C129.1 241.77 126.786 218.644 125.012 216.165C114.369 198.462 93.6983 212.214 91.8087 214.112Z" fill="#343434"/>
<path d="M95.7809 260.518C95.7809 257.523 98.1981 255.095 101.18 255.095H115.217C118.199 255.095 120.616 257.523 120.616 260.518V266.097H95.7809V260.518Z" fill="#532A0E"/>
<path d="M74.1079 271.713L67.0507 317.113C66.7039 319.344 69.8628 321.632 71.4856 322.497H143.562C146.215 322.497 148.395 319.786 149.154 318.43C147.791 309.43 144.765 289.083 143.562 279.693C142.443 268.886 136.736 267.607 134.114 267.026C129.1 266.252 123.393 264.818 120.616 263.695C110.559 267.723 99.2517 265.373 94.8554 263.695C94.354 264.186 92.0171 265.322 86.6798 265.942C77.9181 266.561 74.6478 270.048 74.1079 271.713Z" fill="url(#paint8_linear_918_4220)"/>
<path d="M278.806 259.202H261.606L262.57 257.071C261.606 255.702 258.544 250.23 254.935 244.869C249.011 242.762 250.821 237.638 252.467 235.34C255.513 235.095 266.797 234.96 287.56 236.386C291.169 241.654 287.11 244.236 284.629 244.869L278.806 255.677V259.202Z" fill="#8C6F4D"/>
<path d="M253.315 218.373C247.484 235.107 256.619 250.705 261.915 256.413C265.694 253.197 276.762 254.669 278.073 256.413C290.607 246.031 288.293 222.905 286.519 220.426C275.875 202.724 255.205 216.475 253.315 218.373Z" fill="#0D0A08"/>
<path d="M257.287 264.005C257.287 261.01 259.704 258.582 262.686 258.582H276.723C279.705 258.582 282.122 261.01 282.122 264.005V269.583H257.287V264.005Z" fill="#9B5622"/>
<path d="M235.614 275.2L228.557 320.599C228.21 322.83 231.369 325.118 232.992 325.984H305.068C307.721 325.984 309.901 323.272 310.66 321.916C309.297 312.916 306.271 292.569 305.068 283.18C303.95 272.372 298.242 271.094 295.62 270.513C290.607 269.738 284.899 268.305 282.122 267.181C272.065 271.21 260.758 268.86 256.362 267.181C255.86 267.672 253.523 268.808 248.186 269.428C239.424 270.048 236.154 273.534 235.614 275.2Z" fill="#EF7E2B"/>
<path d="M182.982 251.742C180.475 251.651 175.94 249.642 177.853 242.329C179.858 246.543 182.108 250.36 182.982 251.742Z" fill="#C29053"/>
<path d="M207.45 243.723C209.185 245.543 211.043 250.159 204.597 254.064C206.083 249.638 207.118 245.326 207.45 243.723Z" fill="#C29053"/>
<path d="M185.03 271.188C187.776 270.32 185.043 264.964 183.334 262.394H202.577C200.356 264.626 200.932 269.186 201.497 271.188H185.03Z" fill="#C29053"/>
<path d="M182.403 253.235C182.989 258.248 179.365 264.306 177.386 266.113C185.649 265.485 201.746 265.931 210.073 266.113C204.522 264.788 206.36 253.975 207.182 251.183C206.604 251.183 207.182 249.739 208.686 243.682C214.743 227.405 202.826 222.806 192.841 222.806C162.809 225.468 179.704 246.969 182.403 253.235Z" fill="url(#paint9_linear_918_4220)"/>
<path d="M164.669 279.997V290.96L167.137 312.342L222.669 311.103C222.836 309.36 223.07 302.891 222.669 290.96C224.643 280.609 220.509 276.343 218.195 275.504L208.284 271.049L201.497 269.112C195.88 269.19 187.691 268.237 184.298 269.848C177.541 270.654 166.969 277.35 164.669 279.997Z" fill="url(#paint10_linear_918_4220)"/>
<path d="M315.223 278.664L311.366 310.699V316.355L381.013 315.154C380.203 312.184 378.383 302.96 377.581 289.82C376.578 273.396 369.097 273.202 366.281 273.202C363.466 273.202 356.178 271.382 354.751 269.135C354.519 270.336 329.337 272.582 323.899 273.202C319.395 273.853 316.238 277.115 315.223 278.664Z" fill="url(#paint11_linear_918_4220)"/>
<path d="M364.122 254.158C354.743 277.524 330.34 282.255 319.31 281.699C326.136 276.625 325.596 267.096 324.169 257.605C321.547 224.989 335.469 223.943 339.287 222.51C372.374 221.89 366.551 241.994 364.122 254.158Z" fill="#70422E"/>
<path d="M324.092 255.848C326.499 270.289 320.686 277.954 317.729 279.981C331.844 278.587 340.328 270.762 350.393 253.718C365.124 228.151 346.922 221.45 338.669 222.302C324.516 227.377 321.484 240.199 324.092 255.848Z" fill="#4D332A"/>
<path d="M397.21 272.621L393.353 304.656V310.312L463 309.111C462.19 306.141 460.37 296.917 459.568 283.777C458.565 267.353 451.084 267.159 448.269 267.159C445.453 267.159 438.165 265.339 436.738 263.092C436.507 264.293 411.324 266.539 405.887 267.159C401.382 267.81 398.225 271.072 397.21 272.621Z" fill="#99CE79"/>
<path d="M443.562 266.87C435.81 286.172 416.498 277.76 407.381 277.302C398.423 279.19 410.632 265.377 409.453 257.537C407.285 230.593 420.068 229.729 423.224 228.545C450.575 228.033 445.571 256.822 443.562 266.87Z" fill="#5446A8"/>
<path d="M447.832 263.306C447.967 278.859 451.954 274.316 450.042 278.413C425.057 278.413 437.978 281.472 427.54 264.507C412.175 239.019 429.636 232.563 433.549 230.028C444.731 235.282 446.288 246.891 447.832 263.306Z" fill="#5A4BB4"/>
<path d="M0 294.701C0 290.422 3.45314 286.953 7.71281 286.953H64.7876C69.0473 286.953 72.5004 290.422 72.5004 294.701V326H0V294.701Z" fill="#00ADFF"/>
<path d="M4.01066 301.673C4.01066 297.395 7.4638 293.926 11.7235 293.926H60.5456C64.8052 293.926 68.2584 297.395 68.2584 301.673V326H4.01066V301.673Z" fill="#004F7B"/>
<path d="M389.497 294.701C389.497 290.422 392.95 286.953 397.21 286.953H454.285C458.544 286.953 461.997 290.422 461.997 294.701V326H389.497V294.701Z" fill="#00ADFF"/>
<path d="M393.508 301.673C393.508 297.395 396.961 293.926 401.22 293.926H450.042C454.302 293.926 457.755 297.395 457.755 301.673V326H393.508V301.673Z" fill="#004F7B"/>
<path d="M79.6733 294.701C79.6733 290.422 83.1265 286.953 87.3861 286.953H144.461C148.721 286.953 152.174 290.422 152.174 294.701V326H79.6733V294.701Z" fill="#00ADFF"/>
<path d="M83.684 301.673C83.684 297.395 87.1371 293.926 91.3968 293.926H140.219C144.479 293.926 147.932 297.395 147.932 301.673V326H83.684V301.673Z" fill="#004F7B"/>
<path d="M157.496 294.701C157.496 290.422 160.949 286.953 165.208 286.953H222.283C226.543 286.953 229.996 290.422 229.996 294.701V326H157.496V294.701Z" fill="#00ADFF"/>
<path d="M161.506 301.673C161.506 297.395 164.959 293.926 169.219 293.926H218.041C222.301 293.926 225.754 297.395 225.754 301.673V326H161.506V301.673Z" fill="#004F7B"/>
<path d="M233.852 294.701C233.852 290.422 237.306 286.953 241.565 286.953H298.64C302.9 286.953 306.353 290.422 306.353 294.701V326H233.852V294.701Z" fill="#00ADFF"/>
<path d="M237.863 301.673C237.863 297.395 241.316 293.926 245.576 293.926H294.398C298.658 293.926 302.111 297.395 302.111 301.673V326H237.863V301.673Z" fill="#004F7B"/>
<path d="M311.675 294.701C311.675 290.422 315.128 286.953 319.387 286.953H376.462C380.722 286.953 384.175 290.422 384.175 294.701V326H311.675V294.701Z" fill="#00ADFF"/>
<path d="M315.685 301.673C315.685 297.395 319.138 293.926 323.398 293.926H372.22C376.48 293.926 379.933 297.395 379.933 301.673V326H315.685V301.673Z" fill="#004F7B"/>
<path d="M117.41 138.715V141H110.252V138.715H117.41ZM111.199 126.781V141H108.27V126.781H111.199ZM123.777 141.195C122.957 141.195 122.221 141.065 121.57 140.805C120.919 140.538 120.366 140.17 119.91 139.701C119.461 139.232 119.116 138.689 118.875 138.07C118.634 137.445 118.514 136.781 118.514 136.078V135.688C118.514 134.887 118.628 134.154 118.855 133.49C119.083 132.826 119.409 132.25 119.832 131.762C120.262 131.273 120.783 130.899 121.395 130.639C122.007 130.372 122.697 130.238 123.465 130.238C124.214 130.238 124.878 130.362 125.457 130.609C126.036 130.857 126.521 131.208 126.912 131.664C127.309 132.12 127.609 132.667 127.811 133.305C128.012 133.936 128.113 134.639 128.113 135.414V136.586H119.715V134.711H125.35V134.496C125.35 134.105 125.278 133.757 125.135 133.451C124.998 133.139 124.79 132.891 124.51 132.709C124.23 132.527 123.872 132.436 123.436 132.436C123.064 132.436 122.745 132.517 122.479 132.68C122.212 132.842 121.993 133.07 121.824 133.363C121.661 133.656 121.538 134.001 121.453 134.398C121.375 134.789 121.336 135.219 121.336 135.688V136.078C121.336 136.501 121.395 136.892 121.512 137.25C121.635 137.608 121.808 137.917 122.029 138.178C122.257 138.438 122.531 138.64 122.85 138.783C123.175 138.926 123.543 138.998 123.953 138.998C124.461 138.998 124.933 138.9 125.369 138.705C125.812 138.503 126.193 138.201 126.512 137.797L127.879 139.281C127.658 139.6 127.355 139.906 126.971 140.199C126.593 140.492 126.137 140.733 125.604 140.922C125.07 141.104 124.461 141.195 123.777 141.195ZM135.418 138.617V133.91C135.418 133.572 135.363 133.282 135.252 133.041C135.141 132.794 134.969 132.602 134.734 132.465C134.507 132.328 134.21 132.26 133.846 132.26C133.533 132.26 133.263 132.315 133.035 132.426C132.807 132.53 132.632 132.683 132.508 132.885C132.384 133.08 132.322 133.311 132.322 133.578H129.51C129.51 133.129 129.614 132.702 129.822 132.299C130.031 131.895 130.333 131.54 130.73 131.234C131.128 130.922 131.6 130.678 132.146 130.502C132.7 130.326 133.318 130.238 134.002 130.238C134.822 130.238 135.551 130.375 136.189 130.648C136.827 130.922 137.329 131.332 137.693 131.879C138.064 132.426 138.25 133.109 138.25 133.93V138.451C138.25 139.031 138.286 139.506 138.357 139.877C138.429 140.242 138.533 140.561 138.67 140.834V141H135.828C135.691 140.714 135.587 140.355 135.516 139.926C135.451 139.49 135.418 139.053 135.418 138.617ZM135.789 134.564L135.809 136.156H134.236C133.865 136.156 133.543 136.199 133.27 136.283C132.996 136.368 132.771 136.488 132.596 136.645C132.42 136.794 132.29 136.97 132.205 137.172C132.127 137.374 132.088 137.595 132.088 137.836C132.088 138.077 132.143 138.295 132.254 138.49C132.365 138.679 132.524 138.829 132.732 138.939C132.941 139.044 133.185 139.096 133.465 139.096C133.888 139.096 134.256 139.011 134.568 138.842C134.881 138.673 135.122 138.464 135.291 138.217C135.467 137.969 135.558 137.735 135.564 137.514L136.307 138.705C136.202 138.972 136.059 139.249 135.877 139.535C135.701 139.822 135.477 140.092 135.203 140.346C134.93 140.593 134.601 140.798 134.217 140.961C133.833 141.117 133.377 141.195 132.85 141.195C132.179 141.195 131.57 141.062 131.023 140.795C130.483 140.521 130.053 140.147 129.734 139.672C129.422 139.19 129.266 138.643 129.266 138.031C129.266 137.478 129.37 136.986 129.578 136.557C129.786 136.127 130.092 135.766 130.496 135.473C130.906 135.173 131.417 134.949 132.029 134.799C132.641 134.643 133.351 134.564 134.158 134.564H135.789ZM143.23 132.738V141H140.418V130.434H143.064L143.23 132.738ZM146.414 130.365L146.365 132.973C146.229 132.953 146.062 132.937 145.867 132.924C145.678 132.904 145.506 132.895 145.35 132.895C144.952 132.895 144.607 132.947 144.314 133.051C144.028 133.148 143.787 133.295 143.592 133.49C143.403 133.686 143.26 133.923 143.162 134.203C143.071 134.483 143.019 134.802 143.006 135.16L142.439 134.984C142.439 134.301 142.508 133.673 142.645 133.1C142.781 132.52 142.98 132.016 143.24 131.586C143.507 131.156 143.833 130.824 144.217 130.59C144.601 130.355 145.04 130.238 145.535 130.238C145.691 130.238 145.851 130.251 146.014 130.277C146.176 130.297 146.31 130.326 146.414 130.365ZM150.496 132.689V141H147.684V130.434H150.32L150.496 132.689ZM150.086 135.346H149.324C149.324 134.564 149.425 133.861 149.627 133.236C149.829 132.605 150.112 132.068 150.477 131.625C150.841 131.176 151.274 130.834 151.775 130.6C152.283 130.359 152.85 130.238 153.475 130.238C153.969 130.238 154.422 130.31 154.832 130.453C155.242 130.596 155.594 130.824 155.887 131.137C156.186 131.449 156.414 131.863 156.57 132.377C156.733 132.891 156.814 133.52 156.814 134.262V141H153.982V134.252C153.982 133.783 153.917 133.419 153.787 133.158C153.657 132.898 153.465 132.715 153.211 132.611C152.964 132.501 152.658 132.445 152.293 132.445C151.915 132.445 151.587 132.52 151.307 132.67C151.033 132.82 150.805 133.028 150.623 133.295C150.447 133.555 150.314 133.861 150.223 134.213C150.132 134.564 150.086 134.942 150.086 135.346ZM161.922 130.434V141H159.1V130.434H161.922ZM158.924 127.68C158.924 127.27 159.067 126.931 159.354 126.664C159.64 126.397 160.024 126.264 160.506 126.264C160.981 126.264 161.362 126.397 161.648 126.664C161.941 126.931 162.088 127.27 162.088 127.68C162.088 128.09 161.941 128.428 161.648 128.695C161.362 128.962 160.981 129.096 160.506 129.096C160.024 129.096 159.64 128.962 159.354 128.695C159.067 128.428 158.924 128.09 158.924 127.68ZM167 132.689V141H164.188V130.434H166.824L167 132.689ZM166.59 135.346H165.828C165.828 134.564 165.929 133.861 166.131 133.236C166.333 132.605 166.616 132.068 166.98 131.625C167.345 131.176 167.778 130.834 168.279 130.6C168.787 130.359 169.354 130.238 169.979 130.238C170.473 130.238 170.926 130.31 171.336 130.453C171.746 130.596 172.098 130.824 172.391 131.137C172.69 131.449 172.918 131.863 173.074 132.377C173.237 132.891 173.318 133.52 173.318 134.262V141H170.486V134.252C170.486 133.783 170.421 133.419 170.291 133.158C170.161 132.898 169.969 132.715 169.715 132.611C169.467 132.501 169.161 132.445 168.797 132.445C168.419 132.445 168.09 132.52 167.811 132.67C167.537 132.82 167.309 133.028 167.127 133.295C166.951 133.555 166.818 133.861 166.727 134.213C166.635 134.564 166.59 134.942 166.59 135.346ZM182.146 130.434H184.695V140.648C184.695 141.612 184.48 142.429 184.051 143.1C183.628 143.777 183.035 144.288 182.273 144.633C181.512 144.984 180.626 145.16 179.617 145.16C179.174 145.16 178.706 145.102 178.211 144.984C177.723 144.867 177.254 144.685 176.805 144.438C176.362 144.19 175.991 143.878 175.691 143.5L176.932 141.84C177.257 142.217 177.635 142.51 178.064 142.719C178.494 142.934 178.969 143.041 179.49 143.041C179.998 143.041 180.428 142.947 180.779 142.758C181.131 142.576 181.401 142.305 181.59 141.947C181.779 141.596 181.873 141.169 181.873 140.668V132.875L182.146 130.434ZM175.037 135.844V135.639C175.037 134.831 175.135 134.099 175.33 133.441C175.532 132.777 175.815 132.208 176.18 131.732C176.551 131.257 177 130.889 177.527 130.629C178.055 130.368 178.65 130.238 179.314 130.238C180.018 130.238 180.607 130.368 181.082 130.629C181.557 130.889 181.948 131.26 182.254 131.742C182.56 132.217 182.798 132.781 182.967 133.432C183.143 134.076 183.279 134.783 183.377 135.551V136C183.279 136.736 183.133 137.419 182.938 138.051C182.742 138.682 182.485 139.236 182.166 139.711C181.847 140.18 181.45 140.544 180.975 140.805C180.506 141.065 179.946 141.195 179.295 141.195C178.644 141.195 178.055 141.062 177.527 140.795C177.007 140.528 176.561 140.154 176.189 139.672C175.818 139.19 175.532 138.624 175.33 137.973C175.135 137.322 175.037 136.612 175.037 135.844ZM177.85 135.639V135.844C177.85 136.28 177.892 136.687 177.977 137.064C178.061 137.442 178.191 137.777 178.367 138.07C178.549 138.357 178.774 138.581 179.041 138.744C179.314 138.9 179.637 138.979 180.008 138.979C180.522 138.979 180.942 138.871 181.268 138.656C181.593 138.435 181.837 138.132 182 137.748C182.163 137.364 182.257 136.921 182.283 136.42V135.141C182.27 134.73 182.215 134.363 182.117 134.037C182.02 133.705 181.883 133.422 181.707 133.188C181.531 132.953 181.303 132.771 181.023 132.641C180.743 132.51 180.411 132.445 180.027 132.445C179.656 132.445 179.334 132.53 179.061 132.699C178.794 132.862 178.569 133.087 178.387 133.373C178.211 133.66 178.077 133.998 177.986 134.389C177.895 134.773 177.85 135.189 177.85 135.639ZM197.576 135.932H193.953V133.646H197.576C198.136 133.646 198.592 133.555 198.943 133.373C199.295 133.184 199.552 132.924 199.715 132.592C199.878 132.26 199.959 131.885 199.959 131.469C199.959 131.046 199.878 130.652 199.715 130.287C199.552 129.923 199.295 129.63 198.943 129.408C198.592 129.187 198.136 129.076 197.576 129.076H194.969V141H192.039V126.781H197.576C198.689 126.781 199.643 126.983 200.438 127.387C201.238 127.784 201.85 128.334 202.273 129.037C202.697 129.74 202.908 130.544 202.908 131.449C202.908 132.367 202.697 133.161 202.273 133.832C201.85 134.503 201.238 135.02 200.438 135.385C199.643 135.749 198.689 135.932 197.576 135.932ZM210.34 138.617V133.91C210.34 133.572 210.285 133.282 210.174 133.041C210.063 132.794 209.891 132.602 209.656 132.465C209.428 132.328 209.132 132.26 208.768 132.26C208.455 132.26 208.185 132.315 207.957 132.426C207.729 132.53 207.553 132.683 207.43 132.885C207.306 133.08 207.244 133.311 207.244 133.578H204.432C204.432 133.129 204.536 132.702 204.744 132.299C204.952 131.895 205.255 131.54 205.652 131.234C206.049 130.922 206.521 130.678 207.068 130.502C207.622 130.326 208.24 130.238 208.924 130.238C209.744 130.238 210.473 130.375 211.111 130.648C211.749 130.922 212.251 131.332 212.615 131.879C212.986 132.426 213.172 133.109 213.172 133.93V138.451C213.172 139.031 213.208 139.506 213.279 139.877C213.351 140.242 213.455 140.561 213.592 140.834V141H210.75C210.613 140.714 210.509 140.355 210.438 139.926C210.372 139.49 210.34 139.053 210.34 138.617ZM210.711 134.564L210.73 136.156H209.158C208.787 136.156 208.465 136.199 208.191 136.283C207.918 136.368 207.693 136.488 207.518 136.645C207.342 136.794 207.212 136.97 207.127 137.172C207.049 137.374 207.01 137.595 207.01 137.836C207.01 138.077 207.065 138.295 207.176 138.49C207.286 138.679 207.446 138.829 207.654 138.939C207.863 139.044 208.107 139.096 208.387 139.096C208.81 139.096 209.178 139.011 209.49 138.842C209.803 138.673 210.044 138.464 210.213 138.217C210.389 137.969 210.48 137.735 210.486 137.514L211.229 138.705C211.124 138.972 210.981 139.249 210.799 139.535C210.623 139.822 210.398 140.092 210.125 140.346C209.852 140.593 209.523 140.798 209.139 140.961C208.755 141.117 208.299 141.195 207.771 141.195C207.101 141.195 206.492 141.062 205.945 140.795C205.405 140.521 204.975 140.147 204.656 139.672C204.344 139.19 204.188 138.643 204.188 138.031C204.188 137.478 204.292 136.986 204.5 136.557C204.708 136.127 205.014 135.766 205.418 135.473C205.828 135.173 206.339 134.949 206.951 134.799C207.563 134.643 208.273 134.564 209.08 134.564H210.711ZM220.516 130.434V132.426H214.363V130.434H220.516ZM215.887 127.826H218.699V137.816C218.699 138.122 218.738 138.357 218.816 138.52C218.901 138.682 219.025 138.796 219.188 138.861C219.35 138.92 219.555 138.949 219.803 138.949C219.979 138.949 220.135 138.943 220.271 138.93C220.415 138.91 220.535 138.891 220.633 138.871L220.643 140.941C220.402 141.02 220.141 141.081 219.861 141.127C219.581 141.173 219.272 141.195 218.934 141.195C218.315 141.195 217.775 141.094 217.312 140.893C216.857 140.684 216.505 140.352 216.258 139.896C216.01 139.441 215.887 138.842 215.887 138.1V127.826ZM224.861 126V141H222.049V126H224.861ZM224.461 135.346H223.689C223.696 134.61 223.794 133.933 223.982 133.314C224.171 132.689 224.441 132.149 224.793 131.693C225.145 131.231 225.564 130.873 226.053 130.619C226.548 130.365 227.094 130.238 227.693 130.238C228.214 130.238 228.686 130.313 229.109 130.463C229.539 130.606 229.907 130.84 230.213 131.166C230.525 131.485 230.766 131.905 230.936 132.426C231.105 132.947 231.189 133.578 231.189 134.32V141H228.357V134.301C228.357 133.832 228.289 133.464 228.152 133.197C228.022 132.924 227.83 132.732 227.576 132.621C227.329 132.504 227.023 132.445 226.658 132.445C226.255 132.445 225.91 132.52 225.623 132.67C225.343 132.82 225.118 133.028 224.949 133.295C224.78 133.555 224.656 133.861 224.578 134.213C224.5 134.564 224.461 134.942 224.461 135.346ZM236.346 138.266L238.543 130.434H240.33L239.754 133.51L237.557 141H236.062L236.346 138.266ZM235.232 130.434L236.805 138.256L236.951 141H235.193L232.518 130.434H235.232ZM242.342 138.129L243.875 130.434H246.6L243.924 141H242.176L242.342 138.129ZM240.574 130.434L242.762 138.207L243.064 141H241.561L239.363 133.52L238.807 130.434H240.574ZM253.719 138.617V133.91C253.719 133.572 253.663 133.282 253.553 133.041C253.442 132.794 253.27 132.602 253.035 132.465C252.807 132.328 252.511 132.26 252.146 132.26C251.834 132.26 251.564 132.315 251.336 132.426C251.108 132.53 250.932 132.683 250.809 132.885C250.685 133.08 250.623 133.311 250.623 133.578H247.811C247.811 133.129 247.915 132.702 248.123 132.299C248.331 131.895 248.634 131.54 249.031 131.234C249.428 130.922 249.9 130.678 250.447 130.502C251.001 130.326 251.619 130.238 252.303 130.238C253.123 130.238 253.852 130.375 254.49 130.648C255.128 130.922 255.63 131.332 255.994 131.879C256.365 132.426 256.551 133.109 256.551 133.93V138.451C256.551 139.031 256.587 139.506 256.658 139.877C256.73 140.242 256.834 140.561 256.971 140.834V141H254.129C253.992 140.714 253.888 140.355 253.816 139.926C253.751 139.49 253.719 139.053 253.719 138.617ZM254.09 134.564L254.109 136.156H252.537C252.166 136.156 251.844 136.199 251.57 136.283C251.297 136.368 251.072 136.488 250.896 136.645C250.721 136.794 250.59 136.97 250.506 137.172C250.428 137.374 250.389 137.595 250.389 137.836C250.389 138.077 250.444 138.295 250.555 138.49C250.665 138.679 250.825 138.829 251.033 138.939C251.242 139.044 251.486 139.096 251.766 139.096C252.189 139.096 252.557 139.011 252.869 138.842C253.182 138.673 253.423 138.464 253.592 138.217C253.768 137.969 253.859 137.735 253.865 137.514L254.607 138.705C254.503 138.972 254.36 139.249 254.178 139.535C254.002 139.822 253.777 140.092 253.504 140.346C253.23 140.593 252.902 140.798 252.518 140.961C252.133 141.117 251.678 141.195 251.15 141.195C250.48 141.195 249.871 141.062 249.324 140.795C248.784 140.521 248.354 140.147 248.035 139.672C247.723 139.19 247.566 138.643 247.566 138.031C247.566 137.478 247.671 136.986 247.879 136.557C248.087 136.127 248.393 135.766 248.797 135.473C249.207 135.173 249.718 134.949 250.33 134.799C250.942 134.643 251.652 134.564 252.459 134.564H254.09ZM261.697 139.809L264.5 130.434H267.518L263.27 142.592C263.178 142.859 263.055 143.145 262.898 143.451C262.749 143.757 262.544 144.047 262.283 144.32C262.029 144.6 261.707 144.828 261.316 145.004C260.932 145.18 260.46 145.268 259.9 145.268C259.633 145.268 259.415 145.251 259.246 145.219C259.077 145.186 258.875 145.141 258.641 145.082V143.021C258.712 143.021 258.787 143.021 258.865 143.021C258.943 143.028 259.018 143.031 259.09 143.031C259.461 143.031 259.764 142.989 259.998 142.904C260.232 142.82 260.421 142.689 260.564 142.514C260.708 142.344 260.822 142.123 260.906 141.85L261.697 139.809ZM260.525 130.434L262.82 138.09L263.221 141.068L261.307 141.273L257.508 130.434H260.525ZM274.354 138.08C274.354 137.878 274.295 137.696 274.178 137.533C274.061 137.37 273.842 137.221 273.523 137.084C273.211 136.941 272.758 136.811 272.166 136.693C271.632 136.576 271.134 136.43 270.672 136.254C270.216 136.072 269.819 135.854 269.48 135.6C269.148 135.346 268.888 135.046 268.699 134.701C268.51 134.35 268.416 133.949 268.416 133.5C268.416 133.057 268.51 132.641 268.699 132.25C268.895 131.859 269.171 131.514 269.529 131.215C269.894 130.909 270.337 130.671 270.857 130.502C271.385 130.326 271.977 130.238 272.635 130.238C273.553 130.238 274.34 130.385 274.998 130.678C275.662 130.971 276.17 131.374 276.521 131.889C276.88 132.396 277.059 132.976 277.059 133.627H274.246C274.246 133.354 274.188 133.109 274.07 132.895C273.96 132.673 273.784 132.501 273.543 132.377C273.309 132.247 273.003 132.182 272.625 132.182C272.312 132.182 272.042 132.237 271.814 132.348C271.587 132.452 271.411 132.595 271.287 132.777C271.17 132.953 271.111 133.148 271.111 133.363C271.111 133.526 271.144 133.673 271.209 133.803C271.281 133.926 271.395 134.04 271.551 134.145C271.707 134.249 271.909 134.346 272.156 134.438C272.41 134.522 272.723 134.6 273.094 134.672C273.855 134.828 274.536 135.033 275.135 135.287C275.734 135.535 276.209 135.873 276.561 136.303C276.912 136.726 277.088 137.283 277.088 137.973C277.088 138.441 276.984 138.871 276.775 139.262C276.567 139.652 276.268 139.994 275.877 140.287C275.486 140.574 275.018 140.798 274.471 140.961C273.93 141.117 273.322 141.195 272.645 141.195C271.661 141.195 270.828 141.02 270.145 140.668C269.467 140.316 268.953 139.87 268.602 139.33C268.257 138.783 268.084 138.223 268.084 137.65H270.75C270.763 138.035 270.861 138.344 271.043 138.578C271.232 138.812 271.469 138.982 271.756 139.086C272.049 139.19 272.365 139.242 272.703 139.242C273.068 139.242 273.37 139.193 273.611 139.096C273.852 138.992 274.035 138.855 274.158 138.686C274.288 138.51 274.354 138.308 274.354 138.08Z" fill="white"/>
<defs>
<linearGradient id="paint0_linear_918_4220" x1="67.3061" y1="5.50735e-07" x2="0.238813" y2="47.4378" gradientUnits="userSpaceOnUse">
<stop stop-color="#EF7E2B"/>
<stop offset="1" stop-color="#FF3838"/>
</linearGradient>
<linearGradient id="paint1_linear_918_4220" x1="59.1999" y1="-9.51914e-07" x2="-3.36902" y2="41.3036" gradientUnits="userSpaceOnUse">
<stop stop-color="#EF7E2B"/>
<stop offset="1" stop-color="#FF3838"/>
</linearGradient>
<linearGradient id="paint2_linear_918_4220" x1="58.731" y1="-6.95209" x2="-0.157346" y2="45.8021" gradientUnits="userSpaceOnUse">
<stop stop-color="#EF7E2B"/>
<stop offset="1" stop-color="#FF3838"/>
</linearGradient>
<linearGradient id="paint3_linear_918_4220" x1="7.96888" y1="-10.2237" x2="59.4962" y2="51.9362" gradientUnits="userSpaceOnUse">
<stop stop-color="#EF7E2B"/>
<stop offset="1" stop-color="#FF3838"/>
</linearGradient>
<linearGradient id="paint4_linear_918_4220" x1="59.739" y1="-7.36105" x2="0.0327457" y2="43.3484" gradientUnits="userSpaceOnUse">
<stop stop-color="#EF7E2B"/>
<stop offset="1" stop-color="#FF3838"/>
</linearGradient>
<linearGradient id="paint5_linear_918_4220" x1="350.131" y1="107.668" x2="380.331" y2="184.575" gradientUnits="userSpaceOnUse">
<stop stop-color="#6C63FF"/>
<stop offset="1" stop-color="#00ADFF"/>
</linearGradient>
<linearGradient id="paint6_linear_918_4220" x1="463" y1="475.271" x2="-107.873" y2="462.463" gradientUnits="userSpaceOnUse">
<stop stop-color="#00ADFF"/>
<stop offset="1" stop-color="#40B17B"/>
</linearGradient>
<linearGradient id="paint7_linear_918_4220" x1="231.5" y1="196" x2="258.808" y2="418.598" gradientUnits="userSpaceOnUse">
<stop stop-color="#EEEEEE"/>
<stop offset="1"/>
</linearGradient>
<linearGradient id="paint8_linear_918_4220" x1="334.149" y1="208.455" x2="292.131" y2="393.927" gradientUnits="userSpaceOnUse">
<stop stop-color="#F34040"/>
<stop offset="1"/>
</linearGradient>
<linearGradient id="paint9_linear_918_4220" x1="-453.861" y1="130.603" x2="-368.521" y2="489.523" gradientUnits="userSpaceOnUse">
<stop stop-color="#DDC55E"/>
<stop offset="1" stop-color="#FFE95F"/>
</linearGradient>
<linearGradient id="paint10_linear_918_4220" x1="231.5" y1="196" x2="231.5" y2="326" gradientUnits="userSpaceOnUse">
<stop stop-color="#612D5B"/>
<stop offset="1" stop-color="#FF00E2"/>
</linearGradient>
<linearGradient id="paint11_linear_918_4220" x1="374.04" y1="153.449" x2="347.014" y2="342.512" gradientUnits="userSpaceOnUse">
<stop stop-color="#FEFBCF"/>
<stop offset="1" stop-color="#B6AAFB"/>
</linearGradient>
</defs>
</svg>
