<svg xmlns="http://www.w3.org/2000/svg" xmlns:xlink="http://www.w3.org/1999/xlink" viewBox="0 0 411.13 362.76"><defs><style>.cls-1,.cls-11,.cls-14,.cls-18,.cls-19,.cls-2,.cls-22,.cls-28,.cls-3,.cls-31,.cls-32,.cls-35,.cls-36,.cls-39,.cls-4,.cls-41,.cls-47,.cls-49,.cls-5,.cls-6{fill:none;}.cls-2,.cls-3,.cls-4{stroke:#f6eeca;stroke-width:1.95px;}.cls-11,.cls-16,.cls-2,.cls-22,.cls-3,.cls-36,.cls-4{stroke-linecap:round;}.cls-11,.cls-14,.cls-16,.cls-18,.cls-19,.cls-2,.cls-22,.cls-28,.cls-3,.cls-31,.cls-32,.cls-35,.cls-36,.cls-39,.cls-4,.cls-41,.cls-47,.cls-49,.cls-5,.cls-6{stroke-miterlimit:10;}.cls-3{stroke-dasharray:8.95 8.95;}.cls-4{stroke-dasharray:9.18 9.18;}.cls-5{stroke:#f4706b;stroke-width:0.97px;}.cls-6{stroke:#029d41;stroke-width:1.45px;}.cls-7{fill:#029d41;}.cls-8{fill:#ff9c1a;}.cls-16,.cls-9{fill:#fec2a0;}.cls-10{fill:#303134;}.cls-11,.cls-22{stroke:#303134;}.cls-11{stroke-width:0.63px;}.cls-12{fill:#f99979;}.cls-13{fill:#4f6ddb;}.cls-14{stroke:#f99055;stroke-width:0.56px;}.cls-15{fill:#eb6c18;}.cls-16{stroke:#f99979;stroke-width:1.01px;}.cls-17{clip-path:url(#clip-path);}.cls-18{stroke:#4762c4;stroke-width:0.9px;}.cls-19{stroke:#eb6c18;stroke-width:1.82px;}.cls-20{fill:#7794ff;}.cls-21{fill:#d1d1d1;}.cls-22{stroke-width:0.55px;}.cls-23{fill:#f0f0f0;}.cls-24{fill:#f66a31;}.cls-25{fill:#494a4f;}.cls-26{fill:#794300;}.cls-27{fill:#39393d;}.cls-28{stroke:#39393d;}.cls-28,.cls-31{stroke-width:1.4px;}.cls-29{fill:#452600;}.cls-30{fill:#3d54a8;}.cls-31{stroke:#f66a31;}.cls-32{stroke:#c45527;stroke-width:0.93px;}.cls-33{fill:#fdc383;}.cls-34{fill:#fe3737;}.cls-35{stroke:#d1d1d1;stroke-width:1.31px;}.cls-36{stroke:#3d54a8;stroke-width:1.91px;}.cls-37{fill:#36373b;}.cls-38{clip-path:url(#clip-path-2);}.cls-39{stroke:#2b2b2e;}.cls-40{clip-path:url(#clip-path-3);}.cls-41{stroke:#e03131;}.cls-42{fill:#657ed9;}.cls-43{fill:#fff;}.cls-44{fill:#d12d2d;}.cls-45{fill:#6e6e75;}.cls-46{fill:#626269;}.cls-47{stroke:#626269;}.cls-48{clip-path:url(#clip-path-4);}.cls-49{stroke:#bfbfbf;}</style><clipPath id="clip-path" transform="translate(-8.15 -21.3)"><path class="cls-1" d="M362.92,35.2c-4.6-8.44-20.22-7.86-26.86-8.16-7.81-.35-14.6-3.79-14.6,4.79A45.18,45.18,0,0,0,324.8,48a20.62,20.62,0,0,1,1.66-8.65c.42-1.25,2.53.93,6.14,1.08s7.92-.24,8.06.46l2.94,10.23a4,4,0,0,0,3.18,2.85h0s-.14-8.49,6.26-8.21,6,10.72-1.25,12.8a38.4,38.4,0,0,0,2.78,7.65S367.53,43.64,362.92,35.2Z"/></clipPath><clipPath id="clip-path-2" transform="translate(-8.15 -21.3)"><path class="cls-1" d="M284.38,295.12c-3.16.51-9.67-3.35-16-3.53-8.06-.23-11.81,3.67-15.8,3.12-11.59-1.62-9.47-59.78,16-59.78S294.6,293.47,284.38,295.12Z"/></clipPath><clipPath id="clip-path-3" transform="translate(-8.15 -21.3)"><path class="cls-1" d="M349.49,243.91s2.87-5.16,6.7-.61-2.41,15.71,3.24,17.06c7.59-8.58,14.92,0,14.92,0,8.88-3.2,10.55-14.86,8.85-24.45s-9-15.22-15.57-15c-6.78-3.21-15,0-20.94-.1a5.6,5.6,0,0,0-5.55,6.67C342.69,235.28,349.49,243.91,349.49,243.91Z"/></clipPath><clipPath id="clip-path-4" transform="translate(-8.15 -21.3)"><path class="cls-1" d="M49.68,44.71c3.69-15.45,21.64-18.78,29.43-18.78s14.25,3.39,12.2,14.53a70.86,70.86,0,0,1-2.46,9.29c.69-1.92-.36-6.11-1-8.09-.32-1.11-4.73,2.93-11.31-.59a1.94,1.94,0,0,0-1.16,1.42L73.84,53.15l-4.29.55s.43-7.42-5.18-7.41-5.62,9.16.63,11.24a33.61,33.61,0,0,1-2.71,6.59S53.78,45.73,49.68,44.71Z"/></clipPath></defs><title>Learning _Through_Teaching2</title><g id="Слой_3" data-name="Слой 3"><line class="cls-2" x1="110.11" y1="101.01" x2="110.11" y2="96.63"/><path class="cls-3" d="M118.27,109V34.74a12.47,12.47,0,0,1,12.47-12.47h170a12.47,12.47,0,0,1,12.47,12.47V140.84" transform="translate(-8.15 -21.3)"/><line class="cls-2" x1="305.07" y1="124.02" x2="305.07" y2="128.4"/><line class="cls-2" x1="292.61" y1="140.87" x2="288.23" y2="140.87"/><path class="cls-4" d="M287.2,162.17H130.73a12.45,12.45,0,0,1-4.15-.71" transform="translate(-8.15 -21.3)"/><path class="cls-2" d="M122.63,159.18a12.52,12.52,0,0,1-2.77-3.37" transform="translate(-8.15 -21.3)"/><rect class="cls-5" x="186.49" y="12.49" width="40.21" height="30.27" rx="1.43" ry="1.43"/><rect class="cls-5" x="186.49" y="78.14" width="40.21" height="30.27" rx="1.43" ry="1.43"/><rect class="cls-5" x="252.42" y="46.48" width="40.21" height="30.27" rx="1.43" ry="1.43"/><rect class="cls-5" x="122.56" y="13.1" width="40.21" height="30.27" rx="1.43" ry="1.43"/><line class="cls-6" x1="164.58" y1="27.62" x2="181.65" y2="27.62"/><polygon class="cls-7" points="180.1 27.62 180.1 24.47 182.82 26.05 185.55 27.62 182.82 29.2 180.1 30.77 180.1 27.62"/><rect class="cls-5" x="122.56" y="56.09" width="40.21" height="30.27" rx="1.43" ry="1.43"/><line class="cls-6" x1="164.58" y1="71.23" x2="182.82" y2="81.7"/><polygon class="cls-7" points="180.14 80.21 181.64 77.44 183.29 80.12 184.94 82.8 181.79 82.89 178.65 82.98 180.14 80.21"/><line class="cls-6" x1="163.88" y1="115.83" x2="182.44" y2="105.94"/><polygon class="cls-7" points="179.72 107.35 181.12 110.16 182.86 107.54 184.6 104.91 181.45 104.72 178.31 104.53 179.72 107.35"/><line class="cls-6" x1="230.04" y1="38.58" x2="248.28" y2="49.06"/><polygon class="cls-7" points="245.6 47.56 247.09 44.79 248.75 47.47 250.4 50.15 247.25 50.24 244.1 50.34 245.6 47.56"/><line class="cls-6" x1="229.34" y1="83.19" x2="247.9" y2="73.29"/><polygon class="cls-7" points="245.17 74.7 246.58 77.52 248.32 74.89 250.05 72.26 246.91 72.08 243.77 71.89 245.17 74.7"/><rect class="cls-5" x="122.56" y="99.09" width="40.21" height="30.27" rx="1.43" ry="1.43"/><path class="cls-8" d="M315,151.36l0,.33a10.27,10.27,0,0,0,8.14,11.61c9.35,1.87,24,4.75,36.85,7,20.85,3.73,21.35-10.71,23-21.75,3.76-9,13.05-29.85,13.57-39.21.51-9.16-.11-17.6-8.32-20.52-5.57-1.95-26.67-11.85-29-15.19l-8.07,13.08a5.3,5.3,0,0,1-9.19-.42c-1.81-3.48-3.9-7.1-5.57-8.77a.3.3,0,0,1-.28.28c-3.2,4.31-28.51,14.59-30.45,21.27C304.22,104,299.88,130.37,315,151.36Z" transform="translate(-8.15 -21.3)"/><path class="cls-9" d="M336.9,70.06c.7,1.81,2.23,3.76-.56,7.79a48.93,48.93,0,0,1,5.71,9,5.16,5.16,0,0,0,8.91.42l10.3-11.55A25,25,0,0,1,357.91,72a45.85,45.85,0,0,1-6-13.36c3.2-.84,6.4-3.2,7-5.85.7-3.2-1-8.35-4.59-8.63-6.4-.28-7.79.28-9.6-7.38s-19.9,1.11-19.9,1.11-.56,8.35.14,10.58a10.79,10.79,0,0,1,.7,4.18,49.29,49.29,0,0,1-.28,6.54C324.93,62.68,328.82,71.87,336.9,70.06Z" transform="translate(-8.15 -21.3)"/><ellipse class="cls-10" cx="327.91" cy="31.09" rx="1.11" ry="2.23"/><ellipse class="cls-10" cx="318.86" cy="30.81" rx="0.97" ry="2.09"/><path class="cls-11" d="M329.38,55.31c-1.67,1.53-1.67,5.15,1.25,3.76" transform="translate(-8.15 -21.3)"/><path class="cls-12" d="M336.9,70.06s3.76-1.25,4.87-4.31c0,4.31-3.9,7-3.9,7Z" transform="translate(-8.15 -21.3)"/><path class="cls-13" d="M362.92,35.2c-4.6-8.44-20.22-7.86-26.86-8.16-7.81-.35-14.6-3.79-14.6,4.79A45.18,45.18,0,0,0,324.8,48a20.62,20.62,0,0,1,1.66-8.65c.42-1.25,2.53.93,6.14,1.08s7.92-.24,8.06.46l2.94,10.23a4,4,0,0,0,3.18,2.85h0s-.14-8.49,6.26-8.21,6,10.72-1.25,12.8a38.4,38.4,0,0,0,2.78,7.65S367.53,43.64,362.92,35.2Z" transform="translate(-8.15 -21.3)"/><path class="cls-11" d="M329.44,64.08s3.55,1.67,5.3-1.69" transform="translate(-8.15 -21.3)"/><path class="cls-11" d="M333.76,48s2.61-1.75,4.8-.29" transform="translate(-8.15 -21.3)"/><path class="cls-11" d="M328.11,47.52a2.34,2.34,0,0,0-2.48-.44" transform="translate(-8.15 -21.3)"/><path class="cls-9" d="M314.93,136.36c-2-5.16-21.63-38.37-21.61-41.29s-3.32-6.43-7-10.09-5.66-4.28-8.24-6.89-3.21-1.91-3.51-.51,1.05,3.17,2.38,4.32,3.79,2.8,3.82,3.42-2,1.37-5.33-.52-4.54-3.38-5.82-6-2.26-5-3.88-4.66-.51,1.81-.51,1.81-1.07-.25-.52,1.39a34.19,34.19,0,0,1,1.32,4.76c.41,2,.21,2.65.69,3.5S270,90.14,271,91.32s3.3,3.17,4.18,4.19a15.63,15.63,0,0,0,4.44,2.84c1.48.69,5.54,1,6.21,2.59.45,1.09,10.66,50,18.65,53a9.42,9.42,0,0,0,6,.52C316,153.22,318.76,146.36,314.93,136.36Z" transform="translate(-8.15 -21.3)"/><path class="cls-14" d="M265.25,75.94a3.06,3.06,0,0,1,2.73,1.6,5.94,5.94,0,0,1,.8,2.82" transform="translate(-8.15 -21.3)"/><path class="cls-14" d="M272.6,92.43c.06-.13-2.9-5.12-3.85-7.65s-2-3.33-.68-4.27,3,2.22,3.6,3.52,1.35,3.69,2.59,4.73,2,1.77,2,1.77" transform="translate(-8.15 -21.3)"/><path class="cls-14" d="M283.32,91.87c.43.09,3.77-1.06,6.45,2.24" transform="translate(-8.15 -21.3)"/><polygon class="cls-15" points="372.24 120 371.74 97.6 373.92 102.16 376.37 113.78 372.24 120"/><path class="cls-9" d="M417.4,63.09c.24-1.53,0-3-1.2-3.32s-2.52-.86-2.39-2.72c0-.31,0-.73.07-1.2A26.8,26.8,0,0,1,416.64,45c1.59-3.19.43-4.78-1.28-3.8-1.24.9-2.9,2.52-4.25,7.16A56.15,56.15,0,0,0,409.69,55a7.3,7.3,0,0,1-.65,2.57c-.55.54-1.12.14-2.8,1.91s-6.59,6.16-6.71,6.93a1.71,1.71,0,0,0,2.53,1.8c-2,1.72-2.74,2.54-1.54,3.83a2.06,2.06,0,0,0,2.82,0s.7,1.52,1.27,2.86a10.31,10.31,0,0,1,1.21,4.26c.07,1.57-1.21,5.75-2.53,8.21-.85,1.65-22.08,50-22.08,50-2.23,5.46-1.59,14.94,3.76,17.43,4.35,2,11.34,1.64,14.68-2.6C410.84,137.88,418,78,418.29,75.43,418.84,69.89,420.63,63.44,417.4,63.09Z" transform="translate(-8.15 -21.3)"/><path class="cls-9" d="M402.47,63.57s-2.54-4.78-.64-5.89,3.58,2.12,3.84,2.48Z" transform="translate(-8.15 -21.3)"/><polyline class="cls-16" points="394.43 46.52 400.12 41.15 405.55 40.44"/><path class="cls-16" d="M403.21,71.82s6.07-5.78,6.7-5.83,4.67-.83,4.67-.83" transform="translate(-8.15 -21.3)"/><path class="cls-12" d="M405.4,76.86s5.16,3,7.61,3.38A7.18,7.18,0,0,1,406,79Z" transform="translate(-8.15 -21.3)"/><path class="cls-16" d="M405.25,71.83s3.76-3,5.59-2.72a10.45,10.45,0,0,0,3.5-.39" transform="translate(-8.15 -21.3)"/><g class="cls-17"><path class="cls-18" d="M333.76,41s-7.05-10.4,1.43-14.71" transform="translate(-8.15 -21.3)"/><path class="cls-18" d="M360,29.84s-16.33-1.05-19.64,14.22" transform="translate(-8.15 -21.3)"/><path class="cls-18" d="M364.88,34.13S347.72,40.9,341.77,48" transform="translate(-8.15 -21.3)"/><path class="cls-18" d="M330.71,40.78s-9.24-8.3-.66-15.15" transform="translate(-8.15 -21.3)"/></g><path class="cls-19" d="M364.45,78.15s-9,15.72-17,16" transform="translate(-8.15 -21.3)"/><path class="cls-20" d="M105.84,104.82h0c1,14.55,2,30.81-4.62,38s-18.44,3.63-18.44,3.63L81.87,148a5.31,5.31,0,0,1-5.12,2.84c-9-1.1-35-8.52-35-8.52s-19.31,4-23.48-7.07c-3-8,.84-11.55,3.18-15,3-4.27,2.22-15.39,3.41-23.51s3.73-13.5,11-15.76c4.94-1.5,19.94-7.59,22.13-10.42l6.59,11.73a4.64,4.64,0,0,0,8,0c1.71-3,3.66-6.07,5.19-7.47a.26.26,0,0,0,.23.25c2.64,3.89,24.82,16.14,26.28,22.06A56.12,56.12,0,0,1,105.84,104.82Z" transform="translate(-8.15 -21.3)"/><path class="cls-9" d="M77.61,68.18c-.67,1.56-2.08,3.21.21,6.84a42.82,42.82,0,0,0-5.32,7.71,4.52,4.52,0,0,1-7.8,0L56.1,72.29a21.84,21.84,0,0,0,3.06-3.17,40.14,40.14,0,0,0,5.72-11.47c-2.77-.85-5.48-3-5.87-5.36-.49-2.82,1.15-7.27,4.33-7.38,5.61,0,6.81.52,8.66-6.1S89.36,40.5,89.36,40.5s.19,7.32-.5,9.25a9.44,9.44,0,0,0-.76,3.63,43.14,43.14,0,0,0,0,5.73C88.34,62.16,84.6,70,77.61,68.18Z" transform="translate(-8.15 -21.3)"/><path class="cls-21" d="M76.69,49c2.85-1.1,4-.32,4-.32l.3-1.45a.68.68,0,0,0-.58-.76,13.64,13.64,0,0,0-3.54.22C76,47.14,76.69,49,76.69,49Z" transform="translate(-8.15 -21.3)"/><path class="cls-21" d="M89.23,48.08c-1.09-.17-2.79,1.07-2.79,1.07l-.05-1.71a.92.92,0,0,1,.64-.83L89.15,46l.08,1.84Z" transform="translate(-8.15 -21.3)"/><ellipse class="cls-10" cx="78.98" cy="52.75" rx="1.95" ry="0.97" transform="translate(14.86 108.18) rotate(-87.63)"/><ellipse class="cls-10" cx="86.9" cy="52.83" rx="1.83" ry="0.85" transform="translate(22.37 116.18) rotate(-87.63)"/><path class="cls-22" d="M84.71,55.54c1.41,1.4,1.27,4.56-1.23,3.24" transform="translate(-8.15 -21.3)"/><path class="cls-12" d="M77.61,68.18s-3.24-1.23-4.1-3.95c-.16,3.77,3.16,6.23,3.16,6.23Z" transform="translate(-8.15 -21.3)"/><path class="cls-21" d="M49.68,44.71c3.69-15.45,21.64-18.78,29.43-18.78s14.25,3.39,12.2,14.53a70.86,70.86,0,0,1-2.46,9.29c.69-1.92-.36-6.11-1-8.09-.32-1.11-4.73,2.93-11.31-.59a1.94,1.94,0,0,0-1.16,1.42L73.84,53.15l-4.29.55s.43-7.42-5.18-7.41-5.62,9.16.63,11.24a33.61,33.61,0,0,1-2.71,6.59S53.78,45.73,49.68,44.71Z" transform="translate(-8.15 -21.3)"/><polygon class="cls-21" points="68.86 52.22 60.12 57.22 73.52 65.64 69.9 53.73 68.86 52.22"/><polygon class="cls-21" points="49.47 49.59 60.12 57.22 45.39 63.73 47.57 51.22 49.47 49.59"/><path class="cls-23" d="M58.63,82.78l8.25,42.06,10-40.93-8.58-5.39Z" transform="translate(-8.15 -21.3)"/><polygon class="cls-24" points="64.18 59.77 61.96 63.76 57.66 63.58 55.85 59.11 60.12 57.22 64.18 59.77"/><path class="cls-24" d="M63.58,108l3.3,16.83,4-16.53-.8-23.26-4.29-.18Z" transform="translate(-8.15 -21.3)"/><path class="cls-25" d="M5.41,110H112.77a5.41,5.41,0,0,1,5.41,5.41v7.18a0,0,0,0,1,0,0H0a0,0,0,0,1,0,0v-7.18A5.41,5.41,0,0,1,5.41,110Z"/><rect class="cls-25" x="10.67" y="122.24" width="96.85" height="12.59"/><path class="cls-25" d="M24.93,155.81l2.61,35.25a7.8,7.8,0,0,0,7.63,7.44h66.44a5.82,5.82,0,0,0,5.69-5.46l3.43-37.24Z" transform="translate(-8.15 -21.3)"/><path class="cls-22" d="M79.74,62.71s.8,2.21,3.86,1.41" transform="translate(-8.15 -21.3)"/><path class="cls-9" d="M26.07,131.32s1.55-6.61,4.13-5.14,2.93-1.2,4.54-.24c2.78,1.65,3.23-.48,4.95.62s3.07,3.84,4.91,3.23,4.54-.63,4.78,1.53C43.12,131.39,26.07,131.32,26.07,131.32Z" transform="translate(-8.15 -21.3)"/><path class="cls-26" d="M226.43,304.24a39.9,39.9,0,0,0,.28,14.4c3,15.32-12.6,29.72-.12,46.35a45.1,45.1,0,0,0,3.23,3.84C236.37,345,256.69,312.16,226.43,304.24Z" transform="translate(-8.15 -21.3)"/><path class="cls-26" d="M304,320.38c-1.13-7.15.48-12.86.84-17.64-7.9.77-13.44,4.49-14.21,13-1.88,20-3.3,41.81,1.45,61.57,7.17-3.38,12.95-7.95,16.15-13.05C314.44,354.32,306.44,336,304,320.38Z" transform="translate(-8.15 -21.3)"/><path class="cls-7" d="M293,311.79a95.59,95.59,0,0,1,14.78-2.7c.37-4.85-3.46-15.07-9.82-18.48-8.47-4.55-15.5-5-24-5.51h0c-2.07-.18-11.33-.48-17.73-.36s-20.75,4-24,6.36c-1.86,1.33-7.46,7.13-8.7,14.34,5.59,1.46,14.45,5.69,14.45,5.69s-3.29,38.26-8.63,57.7c16.91,18,49.37,17.13,67.76,8.46C292.21,357.54,293,311.79,293,311.79Z" transform="translate(-8.15 -21.3)"/><path class="cls-25" d="M235.64,323.5h59.8a5.43,5.43,0,0,1,5.39,4.76l4.89,39.59a14.44,14.44,0,0,1-14.33,16.21H240.85a14.44,14.44,0,0,1-14.38-15.8l3.77-39.84A5.43,5.43,0,0,1,235.64,323.5Z" transform="translate(-8.15 -21.3)"/><path class="cls-27" d="M284.38,295.12c-3.16.51-9.67-3.35-16-3.53-8.06-.23-11.81,3.67-15.8,3.12-11.59-1.62-9.47-59.78,16-59.78S294.6,293.47,284.38,295.12Z" transform="translate(-8.15 -21.3)"/><path class="cls-28" d="M270.86,235.92s17.31,2.7,20.66,22.86c1.35,8.14,1.85,19.33-4.86,33.68" transform="translate(-8.15 -21.3)"/><path class="cls-13" d="M211.83,277.44l-18.07-1.2,13.59,37.3s25.51-15.69,26-34c.14-5,3.17-39.25,2.74-48.06-2.82-.76-8.77,1.18-13,1.38a3.86,3.86,0,0,0-3.72,3.6C218.79,247.38,211.83,277.44,211.83,277.44Z" transform="translate(-8.15 -21.3)"/><path class="cls-26" d="M236.9,220.8c1-2,3.63-6.41,4.73-8.16a9.21,9.21,0,0,0,1.55-3.38,1.29,1.29,0,0,0-1.83-.88c-.74.35-2.9,3.94-2.9,3.94a31.69,31.69,0,0,0,1.67-4.1,25.18,25.18,0,0,0,.53-4.43c.14-1.44.2-1.92-.8-2.27a1.52,1.52,0,0,0-2,1.11s0-1.41,0-2.47.16-2.12-.39-2.66c.3-1.54-.63-2.59-2.07-2.1s-3.42,5.7-3.76,7.56-1.81,4.07-2.52,5.48-3.22,7.58-4,7.28.71-3.1,1.58-5,.3-4-.69-4.74-2.42-.26-2.66,1.65-2.87,5.38-3.6,9.6a18.5,18.5,0,0,0,1.59,10.24,14.9,14.9,0,0,1,.77,6.52,42.4,42.4,0,0,0,10.61,4.2c-.25-5.16-.42-9.09-.3-9.59C232.76,227.25,235.94,222.78,236.9,220.8Z" transform="translate(-8.15 -21.3)"/><path class="cls-29" d="M232.26,213.06a8.9,8.9,0,0,1,1.27-3.23,19.48,19.48,0,0,0,1.78-5.12c.22-.75,2.15-7.21,2.15-7.21s-1.1,6.75-1.57,8.58S232.26,213.06,232.26,213.06Z" transform="translate(-8.15 -21.3)"/><path class="cls-29" d="M235.18,216.18s.17-1.13.3-2.17,2.28-4.84,2.56-6.33a21.33,21.33,0,0,0-.18-4.76s.11,3.54-.68,5.33S234.41,213,235.18,216.18Z" transform="translate(-8.15 -21.3)"/><path class="cls-29" d="M236.09,217.58a33.68,33.68,0,0,1,2.17-4.72l-1.69,5Z" transform="translate(-8.15 -21.3)"/><path class="cls-26" d="M196,262.81c-2.39,5.6-11,5.07-11,5.07-3.19,3.74,1.31,9,1.31,9s-18.49-2-22.13-1.44c0-.07,3.28-6.11,2.93-7.56l.13.07c5.75-4.17,8.53-28.28,9.53-31.24s18.32,1.09,19.49-2.67c1.46,3.88.68,8.67.23,11.88C195.59,252.16,199,255.78,196,262.81Z" transform="translate(-8.15 -21.3)"/><path class="cls-13" d="M193.76,353.78c-12,19.13-20.84,32-43.35,2-12.52-16.69-8.56-30.62-11.54-46s-.05-26.71,2.85-28.79c3.31-2.37,17.71-6.25,24.13-6.38s15.72.18,17.8.36h0c8.57.52,15.62,1,24.13,5.53,12.66,6.8,4.62,17.73,1.09,33C202.35,341.83,200,343.82,193.76,353.78Z" transform="translate(-8.15 -21.3)"/><path class="cls-25" d="M145.3,313.54h60a5.45,5.45,0,0,1,5.41,4.78l4.9,39.73a14.49,14.49,0,0,1-14.38,16.27H150.52a14.49,14.49,0,0,1-14.43-15.86l3.78-40A5.45,5.45,0,0,1,145.3,313.54Z" transform="translate(-8.15 -21.3)"/><path class="cls-24" d="M196.15,237.66c-1.17,3.76-3.09,8.62-4.79,10.11,0,0-4.63-5.16-7.3.15-3.34,6.64,2.84,10.4,4.75,10.29-1.91,4.77-2.13,8.66-7.89,9.57s-7.94-4-13.69.14l-.13-.07h0c-8.63-3.91-13.56-17.45-11.1-26.91s9.27-15.77,17.69-16.27c6-.36,13.35,1.71,18.52,2.3a5.61,5.61,0,0,1,4.95,6.49A31.2,31.2,0,0,1,196.15,237.66Z" transform="translate(-8.15 -21.3)"/><path class="cls-13" d="M158,296.55c-14.84-2.1-8.36-16.89-4-24.35a5,5,0,0,1,6.55-2,33.34,33.34,0,0,0,11.35,3.36,43.48,43.48,0,0,0,15.84-1.54,5,5,0,0,1,4.16.69l5.4,3.72S177.94,299.39,158,296.55Z" transform="translate(-8.15 -21.3)"/><path class="cls-30" d="M151.28,277.37s-6.73,13,2,17.8,27.91,0,43.95-18.7c-3.47,13.09-21.52,23.93-34.12,25.68S139.88,291.9,151.28,277.37Z" transform="translate(-8.15 -21.3)"/><path class="cls-24" d="M165.45,227.27c1.35-5.39-10.09-11.41-11.21-5.72-1.31,6.66-6.71,6-5.26,9.76s.19,9.7,11,6.19S164.1,232.66,165.45,227.27Z" transform="translate(-8.15 -21.3)"/><path class="cls-31" d="M192.25,228s6.85.52,6.77,6.4S192,245.85,192,245.85" transform="translate(-8.15 -21.3)"/><path class="cls-32" d="M173.69,224.66s3.9,18.62-18.13,24.66" transform="translate(-8.15 -21.3)"/><path class="cls-32" d="M173.69,224.66s9.13,21.67-16.44,31.46" transform="translate(-8.15 -21.3)"/><path class="cls-33" d="M342.42,257.07C344.35,262.83,353,263,353,263c2.87,4-2,8.8-2,8.8s22.66.2,26.23,1.08c0-.08-2.92-14.39-3.84-14.51-5.38-4.6-9.14-10.67-11.88-17.63-2.4-6.11-16.35-4.81-17.21-8.64a25.36,25.36,0,0,0-1,8.14C343.71,246.53,340,249.85,342.42,257.07Z" transform="translate(-8.15 -21.3)"/><path class="cls-33" d="M322.34,303.56c0,.22-4.5-2.27-4.45-2,3,15.32-8,32.44,4.45,49.07a44.19,44.19,0,0,0,7.5,7.82C334.37,339.86,344.9,311.29,322.34,303.56Z" transform="translate(-8.15 -21.3)"/><path class="cls-33" d="M408.93,302.83c-7.72,2.09-21.88,3.91-22.62,7.65-5.2,14.84,1.56,32.83,8,49.17a33,33,0,0,0,10.27-9.81C410.8,339.91,409,304.09,408.93,302.83Z" transform="translate(-8.15 -21.3)"/><path class="cls-13" d="M393.31,316.61c.75-3.74,9.64-9.53,17.36-11.61-1.13-12.22-3.93-20.17-15.37-26.31-8.47-4.55-16.53-7.48-25.06-8h0c-2.07-.18-11.33-.48-17.73-.36s-24.2,9.25-27.5,11.61c-2.85,2-10.26,8.21-7.57,23.28,22.56,7.73,17,34.64,12.42,53.18,19.11,15.52,47.89,11.89,64.47,1.24C387.86,343.31,388.12,331.45,393.31,316.61Z" transform="translate(-8.15 -21.3)"/><path class="cls-25" d="M332,309.09h59.8a5.43,5.43,0,0,1,5.39,4.76l4.89,39.59a14.44,14.44,0,0,1-14.33,16.21H337.21a14.44,14.44,0,0,1-14.38-15.8L326.6,314A5.43,5.43,0,0,1,332,309.09Z" transform="translate(-8.15 -21.3)"/><path class="cls-34" d="M349.49,243.91s2.87-5.16,6.7-.61-2.41,15.71,3.24,17.06c7.59-8.58,14.92,0,14.92,0,8.88-3.2,10.55-14.86,8.85-24.45s-9-15.22-15.57-15c-6.78-3.21-15,0-20.94-.1a5.6,5.6,0,0,0-5.55,6.67C342.69,235.28,349.49,243.91,349.49,243.91Z" transform="translate(-8.15 -21.3)"/><path class="cls-35" d="M342.65,246.19c-2.47-.48-2.7-2.12-2.7-4,0-2.27.91-4.16,3.27-4" transform="translate(-8.15 -21.3)"/><line class="cls-35" x1="331.79" y1="220.68" x2="342.92" y2="222.16"/><path class="cls-35" d="M355.68,244.59s5.85-.07,2.93,6.48" transform="translate(-8.15 -21.3)"/><path class="cls-33" d="M347.61,244.66l3.93-2.84s4.63.22,5.33,2.36a5.68,5.68,0,0,1,.39,3.63C356.72,249.33,347.61,244.66,347.61,244.66Z" transform="translate(-8.15 -21.3)"/><line class="cls-36" x1="371.56" y1="254.75" x2="367.29" y2="254.37"/><polyline class="cls-36" points="361.3 253.83 357.03 253.44 355.14 256.75 353.16 252.89 345.42 253.15"/><polygon class="cls-37" points="10.67 122.24 107.51 122.24 107.51 125.37 10.67 122.24"/><g class="cls-38"><path class="cls-39" d="M269.88,230.5S242,255.88,256,295.88" transform="translate(-8.15 -21.3)"/><path class="cls-39" d="M266.88,231.31s-16.62,40.78-6.75,63.86" transform="translate(-8.15 -21.3)"/><path class="cls-39" d="M264.5,230.5s-8.25,46-.5,64.67" transform="translate(-8.15 -21.3)"/></g><g class="cls-40"><path class="cls-41" d="M364.5,257.69s8.56-10.81,16.44-.69" transform="translate(-8.15 -21.3)"/><path class="cls-41" d="M363.25,258.75s2.13-10.81,11.38-10.31,11.88,9.25,11.88,9.25" transform="translate(-8.15 -21.3)"/></g><polygon class="cls-42" points="79.65 110.03 82.84 94.09 83.54 110.03 79.65 110.03"/><ellipse class="cls-25" cx="370.38" cy="229.74" rx="9.34" ry="12.98" transform="translate(10.25 465.49) rotate(-67.95)"/><path class="cls-24" d="M382,233.29a6.51,6.51,0,0,1-2.7,3.13,10,10,0,0,1-3.87,1.34,15.78,15.78,0,0,1-7.94-1.11,16.58,16.58,0,0,1-6.46-4.74,9.84,9.84,0,0,1-1.86-3.65,6.51,6.51,0,0,1,.24-4.13,6.41,6.41,0,0,1,2.8-3A9.88,9.88,0,0,1,366,220a16.14,16.14,0,0,1,7.69,1.26,17.06,17.06,0,0,1,6.38,4.46,9.72,9.72,0,0,1,2,3.46A6.4,6.4,0,0,1,382,233.29Zm-.87-.35a5.57,5.57,0,0,0,.21-3.53,9.07,9.07,0,0,0-1.67-3.32,14.84,14.84,0,0,0-6.1-4.45,15.66,15.66,0,0,0-7.48-1,8.91,8.91,0,0,0-3.51,1.2,5.56,5.56,0,0,0-2.3,2.67,5.48,5.48,0,0,0,0,3.47,9,9,0,0,0,1.78,3.13,15.24,15.24,0,0,0,6,4.17,16.15,16.15,0,0,0,7.22,1.18C377.65,236.25,380.12,235.14,381.11,232.94Z" transform="translate(-8.15 -21.3)"/><ellipse class="cls-43" cx="371.35" cy="227.51" rx="6.13" ry="9.03" transform="translate(12.92 465) rotate(-67.95)"/><path class="cls-9" d="M110.75,246.41c-2.53,5.93-11.7,5.37-11.7,5.37-3.37,4,1.39,9.5,1.39,9.5S80.86,259.12,77,259.75c0-.08,3.48-6.47,3.11-8l.14.07c6.09-4.42,9.29-25,10.36-28.19s19,.13,20.28-3.86a27,27,0,0,1,.34,8.71C110.27,235.12,113.91,239,110.75,246.41Z" transform="translate(-8.15 -21.3)"/><path class="cls-9" d="M46.29,312.27c-2.75,9.44-5.89,19,1.92,29.4A44.27,44.27,0,0,0,69.14,357C68.36,339.38,62.69,320.44,46.29,312.27Z" transform="translate(-8.15 -21.3)"/><path class="cls-34" d="M129.23,309.6c-1.06-4.28-2.09-8.58-2.73-12.7-2.28-14.46,6.59-23.08-6.08-29.88-8.5-4.56-15.56-5-24.13-5.53h0c-2.08-.18-11.37-.48-17.8-.36s-20.83,4-24.13,6.38C51.43,269.59,43,277.76,46,293.27c1.12,5.78-5.45,11.84-7.1,17.53C55.28,319,68.36,339.38,69.14,357a57.33,57.33,0,0,0,25.8,2.57c.26-12.13.93-24.08,6.62-34.2C107.16,315.75,118.61,312.73,129.23,309.6Z" transform="translate(-8.15 -21.3)"/><path class="cls-9" d="M129.23,309.6c-10.62,3.12-22.06,6.15-27.66,15.75-5.69,10.12-6.36,22.07-6.62,34.2,15.72-1.87,30-9.36,35.8-18.63C135.35,333.57,132.19,321.65,129.23,309.6Z" transform="translate(-8.15 -21.3)"/><path class="cls-25" d="M57.92,300h60a5.45,5.45,0,0,1,5.41,4.78l4.9,39.73a14.49,14.49,0,0,1-14.38,16.27H63.14a14.49,14.49,0,0,1-14.43-15.86l3.78-40A5.45,5.45,0,0,1,57.92,300Z" transform="translate(-8.15 -21.3)"/><path class="cls-44" d="M38.88,306.8A81.77,81.77,0,0,0,44,317.12c.36-1.65,1.57-6.22,1.57-6.22S40.57,306.93,38.88,306.8Z" transform="translate(-8.15 -21.3)"/><path class="cls-45" d="M104.93,249.07s2.38-.09,4-9.44,5-22.29.3-26.76-14-4.73-24.11-3.72-13.41,11.58-13.2,18.58,2.54,19.3,2.84,20.72-6.4,3.66-6.09,6.91c-3.4-.32-5.93-.08-8.53,4.67-4.67,1.73-9.34,4.26-9.75,8.22S66.76,298,66.76,298a51.71,51.71,0,0,0,39.85-16.45c13.41-14.48,10.6-20,9-20.8s-2,1.52-3.25-1.42-4-2.23-5.59-3.86S104.93,249.07,104.93,249.07Z" transform="translate(-8.15 -21.3)"/><path class="cls-46" d="M90.71,216.57l14.22,32.5.33,2.72s-6.73-5.05-11-16S90.71,216.57,90.71,216.57Z" transform="translate(-8.15 -21.3)"/><path class="cls-46" d="M104.93,249.07s.41-29.76-10.16-35.65c9.34,4.57,12.29,18.18,12.39,23.87s0,8.54,0,8.54S107.16,247.44,104.93,249.07Z" transform="translate(-8.15 -21.3)"/><path class="cls-46" d="M74.55,249.07s-4.48,4.4.93,9.24c6.7,6,33.72-4.85,37.42,2.1-10.41-3.21-19.48,3.06-31.75,2.14s-11-8.4-10.18-10.76C72.23,250.9,74.55,249.07,74.55,249.07Z" transform="translate(-8.15 -21.3)"/><path class="cls-47" d="M68.16,257.5s-2.23,25.29,11,30.57,30.47-22.24,30.47-22.24" transform="translate(-8.15 -21.3)"/><path class="cls-47" d="M61.06,266.13S57.81,287.8,75,290.85s29.45-16.7,34.52-24.62" transform="translate(-8.15 -21.3)"/><g class="cls-48"><path class="cls-49" d="M83.19,43.94s9.72-20-6.73-19.94" transform="translate(-8.15 -21.3)"/><path class="cls-49" d="M82.31,43.56s1.77-18.31-14.69-18.25" transform="translate(-8.15 -21.3)"/><path class="cls-49" d="M76.69,43.94S59.07,35,53.19,49.53" transform="translate(-8.15 -21.3)"/></g></g></svg>