<svg width="251" height="251" viewBox="0 0 251 251" fill="none" xmlns="http://www.w3.org/2000/svg">
<path d="M133.804 1.85518C135.916 1.71143 138.943 1.6126 143.238 1.57666C145.767 1.70244 148.812 2.06182 152.184 2.91534C156.923 4.11925 160.722 5.89816 163.491 7.47043L163.624 7.59621C165.958 9.00676 169.171 11.1091 172.729 14.029C177.806 18.1978 187.213 26.1131 192.538 39.4909C193.603 42.1592 195.005 45.753 195.636 50.7214C196.177 54.989 195.928 58.8792 195.431 66.6777C195.014 73.1285 194.695 74.0449 195.032 77.0726C195.307 79.5433 195.653 83.5594 198.032 87.4676C199.842 90.4324 201.378 91.0793 207.137 96.7036C212.125 101.573 210.945 101.052 213.944 103.738C219.855 109.021 222.935 109.668 224.887 114.16C225.251 115.005 225.455 115.697 225.526 115.984C225.65 116.46 226.52 119.982 225.145 123.252C224.248 125.391 223.441 124.933 220.539 128.499C218.888 130.521 217.725 131.967 216.935 134.276C216.66 135.067 215.941 137.412 216.234 140.467C216.394 142.111 216.563 143.962 217.734 145.713C219.545 148.427 221.746 147.888 223.441 150.853C223.84 151.553 224.479 152.712 224.39 154.213C224.239 156.648 222.251 158.337 221.737 158.777C220.184 160.098 219.465 159.711 218.196 161.176C217.743 161.706 216.713 162.892 216.926 164.257C217.06 165.093 217.601 165.632 218.062 166.072C219.855 167.806 221.399 167.051 222.464 168.516C223.139 169.441 223.13 170.582 223.13 171.382C223.13 171.921 223.05 173.332 222.198 174.67C221.506 175.748 220.805 175.991 220.059 176.629C217.903 178.48 217.654 181.75 217.521 183.484C217.281 186.628 218.231 187.886 218.719 190.761C219.864 197.527 216.758 203.384 216.181 204.48C213.279 209.943 208.646 212.477 206.836 213.438C200.348 216.879 192.529 216.547 176.874 215.882C176.128 215.855 174.016 215.756 171.212 216.025C171.212 216.025 169.091 216.223 166.934 216.672C164.609 217.149 158.938 218.29 153.586 221.713C143.921 227.903 139.946 237.229 138.632 240.751L136.36 243.131C134.585 244.254 131.967 245.701 128.621 246.842C126.163 247.678 124.095 248.073 120.483 248.594C114.563 249.438 111.093 249.942 106.07 250.139C98.0116 250.454 91.9323 249.735 86.8558 249.169C77.9809 248.172 70.0202 246.519 63.1155 244.65L71.6886 245.593C75.7356 245.961 80.4038 246.231 86.0305 246.024C91.0981 245.836 94.6036 245.351 100.568 244.524C104.215 244.021 106.292 243.635 108.777 242.817C112.158 241.712 114.794 240.301 116.587 239.205L118.877 236.896C120.199 233.473 124.21 224.408 133.964 218.388C139.36 215.055 145.084 213.95 147.427 213.483C149.601 213.052 151.749 212.854 151.749 212.854C154.58 212.593 156.71 212.683 157.456 212.719C173.244 213.357 181.134 213.681 187.684 210.338C189.512 209.404 194.18 206.942 197.109 201.632C197.695 200.572 200.827 194.876 199.674 188.3C199.186 185.505 198.218 184.284 198.467 181.229C198.6 179.54 198.857 176.359 201.023 174.562C201.768 173.942 202.478 173.709 203.179 172.658C204.049 171.355 204.12 169.98 204.12 169.459C204.12 168.678 204.129 167.573 203.445 166.674C202.363 165.246 200.81 165.973 198.999 164.293C198.538 163.862 197.987 163.341 197.854 162.523C197.641 161.194 198.671 160.044 199.132 159.531C200.41 158.103 201.138 158.489 202.7 157.205C203.224 156.773 205.229 155.129 205.38 152.766C205.478 151.311 204.83 150.188 204.422 149.505C202.709 146.621 200.499 147.151 198.671 144.51C197.49 142.812 197.313 141.006 197.162 139.406C196.869 136.433 197.597 134.16 197.872 133.387C198.671 131.141 199.851 129.739 201.511 127.772C204.439 124.304 205.256 124.753 206.161 122.668C207.546 119.488 206.667 116.065 206.543 115.598C206.463 115.319 206.259 114.636 205.895 113.828C203.934 109.461 200.818 108.833 194.855 103.693C191.828 101.088 193.017 101.591 187.994 96.8563C182.181 91.3938 180.628 90.7649 178.809 87.8809C176.404 84.0805 176.058 80.1812 175.782 77.7824C175.445 74.8445 175.774 73.955 176.191 67.6839C176.697 60.1101 176.945 56.3186 176.395 52.1768C175.756 47.3432 174.345 43.8573 173.271 41.2608C167.901 28.2603 158.405 20.5607 153.285 16.5087C150.906 14.622 148.678 13.0857 146.761 11.8728C145.173 10.4263 142.723 8.45872 139.404 6.73371C133.777 3.81378 129.26 3.47237 129.305 2.7626C129.322 2.52002 129.846 2.27744 131.488 2.0708L133.804 1.85518Z" fill="#F37F2F"/>
<path d="M118.663 248.828C114.279 249.448 111.191 249.852 107.303 250.05Z" fill="#F37F2F"/>
<path d="M63.4173 244.659C63.3463 244.641 63.2753 244.623 63.2131 244.605L71.7863 245.548C75.8332 245.917 80.5014 246.186 86.1281 245.98C91.1957 245.791 94.7013 245.306 100.665 244.479C104.313 243.976 106.39 243.59 108.875 242.772C112.256 241.667 114.892 240.256 116.684 239.16L118.974 236.851C120.297 233.428 124.308 224.363 134.061 218.343C139.457 215.01 145.182 213.905 147.525 213.438C149.699 213.007 151.847 212.809 151.847 212.809C154.678 212.549 156.808 212.638 157.553 212.674C173.342 213.312 181.232 213.636 187.781 210.293C189.61 209.359 194.278 206.897 197.206 201.588C197.792 200.527 200.925 194.831 199.771 188.255C199.283 185.461 198.316 184.239 198.564 181.184C198.697 179.495 198.955 176.314 201.12 174.518C201.866 173.898 202.576 173.664 203.277 172.613C204.147 171.31 204.218 169.935 204.218 169.414C204.218 168.633 204.226 167.528 203.543 166.629C202.46 165.201 200.907 165.928 199.097 164.248C198.635 163.817 198.085 163.296 197.952 162.478C197.739 161.149 198.768 159.999 199.23 159.487C200.508 158.058 201.236 158.444 202.798 157.16C203.321 156.728 205.327 155.084 205.478 152.721C205.575 151.266 204.928 150.143 204.519 149.46C202.806 146.576 200.597 147.106 198.768 144.465C197.588 142.767 197.411 140.961 197.26 139.362C196.967 136.388 197.695 134.115 197.97 133.342C198.768 131.096 199.949 129.694 201.608 127.727C204.537 124.259 205.354 124.708 206.259 122.624C207.643 119.443 206.765 116.02 206.64 115.553C206.561 115.274 206.356 114.592 205.993 113.783C204.031 109.416 200.916 108.788 194.952 103.649C191.926 101.043 193.115 101.546 188.092 96.8114C182.279 91.3489 180.726 90.72 178.906 87.836C176.501 84.0356 176.155 80.1363 175.88 77.7375C175.543 74.7996 175.871 73.9101 176.288 67.639C176.794 60.0651 177.043 56.2737 176.492 52.1319C175.853 47.2983 174.442 43.8124 173.368 41.2159C167.999 28.2154 158.503 20.5158 153.382 16.4638C151.004 14.5771 148.776 13.0408 146.859 11.8279C145.27 10.3814 142.821 8.41379 139.502 6.68879C133.875 3.76885 129.358 3.42745 129.402 2.71768C129.42 2.4751 129.944 2.23252 131.585 2.02588L133.893 1.81026C136.005 1.66651 139.031 1.56768 143.327 1.53174C145.856 1.65752 148.9 2.01689 152.273 2.87041C157.012 4.07432 160.81 5.85324 163.579 7.42551L163.713 7.55129C166.047 8.96184 169.259 11.0642 172.818 13.9841C177.895 18.1529 187.302 26.0682 192.627 39.4459C193.692 42.1143 195.094 45.7081 195.724 50.6764C196.266 54.944 196.017 58.8343 195.52 66.6328C195.103 73.0836 194.784 74 195.121 77.0277C195.396 79.4984 195.742 83.5145 198.121 87.4227C199.931 90.3875 201.466 91.0344 207.226 96.6586C212.214 101.528 211.034 101.007 214.033 103.693C219.944 108.976 223.024 109.623 224.976 114.115C225.34 114.96 225.544 115.652 225.615 115.939C225.739 116.415 226.609 119.937 225.233 123.208C224.337 125.346 223.529 124.888 220.627 128.454C218.977 130.476 217.814 131.922 217.024 134.231C216.749 135.022 216.03 137.367 216.323 140.422C216.483 142.066 216.651 143.917 217.823 145.669C219.633 148.382 221.834 147.843 223.529 150.808C223.929 151.508 224.568 152.667 224.479 154.168C224.328 156.603 222.34 158.292 221.825 158.732C220.272 160.053 219.553 159.666 218.284 161.131C217.832 161.661 216.802 162.847 217.015 164.212C217.148 165.048 217.69 165.587 218.151 166.027C219.944 167.761 221.488 167.007 222.553 168.471C223.228 169.396 223.219 170.537 223.219 171.337C223.219 171.876 223.139 173.287 222.287 174.625C221.595 175.703 220.894 175.946 220.148 176.584C217.991 178.435 217.743 181.705 217.61 183.439C217.37 186.584 218.32 187.841 218.808 190.716C219.953 197.482 216.847 203.339 216.27 204.436C213.368 209.898 208.735 212.432 206.924 213.393C200.437 216.834 192.618 216.502 176.963 215.837C176.217 215.81 174.105 215.711 171.301 215.981C171.301 215.981 169.179 216.178 167.023 216.627C164.698 217.104 159.027 218.245 153.675 221.668C144.01 227.858 140.034 237.184 138.721 240.706L136.449 243.087C134.674 244.21 132.056 245.656 128.71 246.797C126.252 247.633 124.184 248.028 120.572 248.549C119.906 248.648 119.276 248.738 118.664 248.819" fill="#F37F2F"/>
<path d="M119.284 248.729C119.684 248.675 120.092 248.612 120.518 248.549C124.13 248.028 126.198 247.633 128.656 246.797C132.011 245.656 134.62 244.209 136.395 243.086L138.667 240.706C139.972 237.184 143.957 227.858 153.612 221.677C158.964 218.253 164.635 217.121 166.96 216.636C169.117 216.187 171.238 215.989 171.238 215.989C174.042 215.72 176.155 215.819 176.9 215.855C179.9 215.98 182.616 216.097 185.092 216.178L185.669 216.115C186.68 216.169 187.728 216.196 188.784 216.196C194.89 216.196 200.401 215.316 205.176 214.076L205.682 213.995C206.081 213.815 206.471 213.627 206.862 213.42C208.672 212.459 213.305 209.925 216.207 204.462C216.784 203.375 219.89 197.517 218.745 190.752C218.257 187.877 217.308 186.628 217.547 183.475C217.68 181.741 217.929 178.471 220.085 176.62C220.822 175.982 221.523 175.739 222.224 174.661C223.085 173.322 223.156 171.912 223.156 171.373C223.156 170.564 223.165 169.432 222.491 168.507C221.417 167.042 219.881 167.788 218.089 166.054C217.627 165.605 217.086 165.075 216.953 164.239C216.74 162.874 217.76 161.688 218.222 161.158C219.491 159.693 220.21 160.079 221.754 158.759C222.269 158.319 224.257 156.629 224.408 154.195C224.496 152.694 223.857 151.535 223.458 150.834C221.763 147.861 219.562 148.409 217.751 145.695C216.58 143.943 216.402 142.093 216.251 140.449C215.959 137.394 216.677 135.049 216.953 134.258C217.742 131.949 218.914 130.512 220.556 128.49C223.458 124.923 224.266 125.382 225.162 123.243C226.529 119.973 225.659 116.451 225.535 115.975C225.464 115.687 225.26 114.987 224.896 114.151C222.943 109.659 219.864 109.012 213.953 103.729C210.953 101.052 212.134 101.564 207.146 96.6945C201.386 91.0702 199.851 90.4234 198.04 87.4585C195.662 83.5503 195.316 79.5432 195.04 77.0725C194.703 74.0538 195.032 73.1284 195.44 66.6865C195.937 58.8971 196.185 54.9978 195.644 50.7392C195.005 45.7708 193.603 42.1861 192.547 39.5087C187.222 26.1309 177.805 18.2157 172.729 14.0469C169.17 11.127 165.957 9.01563 163.623 7.61406L163.49 7.48828C160.721 5.91601 156.914 4.12812 152.175 2.93319C148.802 2.07967 145.758 1.72029 143.229 1.59451C141.658 1.6035 140.256 1.63045 139.004 1.6574L133.892 2.24139L137.034 1.57654C141.871 0.7949 145.909 0.839824 148.802 1.05545C158.077 1.73826 165.061 4.90976 170.386 7.34453C173.865 8.93477 176.962 10.6598 179.66 12.3668L180.157 12.7531C183.042 14.7117 186.059 16.9399 189.13 19.4915C190.576 20.6954 191.952 21.8903 193.257 23.0852L193.372 23.184C199.158 27.3977 206.782 34.0103 211.743 44.0099C212.994 46.5345 214.654 49.9306 215.515 54.6834C216.26 58.7623 216.118 62.5178 215.843 70.0287C215.612 76.2459 215.293 77.1444 215.763 80.0284C216.145 82.3913 216.66 86.2366 219.393 89.8933C221.47 92.6694 223.165 93.2355 229.653 98.4105C235.262 102.894 233.957 102.444 237.321 104.897C243.959 109.74 247.34 110.243 249.621 114.484C250.047 115.274 250.296 115.939 250.384 116.209C250.535 116.667 251.6 120.009 250.225 123.207C249.319 125.301 248.423 124.888 245.379 128.436C243.648 130.449 242.424 131.877 241.643 134.132C241.376 134.905 240.666 137.187 241.092 140.116C241.323 141.688 241.572 143.467 242.912 145.102C244.98 147.636 247.358 147.034 249.319 149.819C249.781 150.475 250.517 151.562 250.473 153.009C250.393 155.354 248.281 157.061 247.731 157.501C246.08 158.831 245.281 158.489 243.95 159.945C243.471 160.475 242.388 161.652 242.672 162.954C242.841 163.754 243.453 164.248 243.977 164.662C245.991 166.252 247.651 165.47 248.867 166.836C249.639 167.698 249.666 168.794 249.692 169.567C249.71 170.079 249.674 171.445 248.787 172.765C248.068 173.835 247.305 174.095 246.524 174.733C244.234 176.593 244.074 179.746 243.994 181.426C243.835 184.463 244.926 185.631 245.556 188.371C247.047 194.831 243.852 200.581 243.258 201.65C240.276 207.014 235.315 209.637 233.371 210.635C232.404 211.129 231.401 211.56 230.354 211.919L217.769 214.75C208.202 218.065 200.658 218.811 195.458 218.846C191.428 218.882 185.03 218.532 177.06 221.182C174.779 221.946 172.96 222.755 171.779 223.321L171.424 223.581C164.085 229.529 160.979 236.627 159.86 239.574L157.464 241.954C155.565 243.104 152.76 244.605 149.139 245.827C146.477 246.725 144.241 247.192 140.309 247.83C133.884 248.881 130.103 249.492 124.627 249.888C121.858 250.085 119.293 250.175 116.906 250.193C114.101 250.202 111.297 250.211 108.492 250.22" fill="#F2AA79"/>
<path d="M15.6079 112.776C23.7198 112.776 30.2959 106.119 30.2959 97.9073C30.2959 89.6953 23.7198 83.0381 15.6079 83.0381C7.49595 83.0381 0.919922 89.6953 0.919922 97.9073C0.919922 106.119 7.49595 112.776 15.6079 112.776Z" fill="#F37F2F"/>
<path d="M17.1877 97.0717L52.1459 168.713L14.0371 98.7428C13.5667 97.8714 13.8774 96.7842 14.7382 96.2991C15.5991 95.8229 16.6729 96.1374 17.1522 97.0088C17.1611 97.0268 17.1699 97.0538 17.1877 97.0717Z" fill="#F27F2D"/>
<path d="M35.1415 42.4107C41.7585 42.4107 47.1226 36.9804 47.1226 30.2818C47.1226 23.5831 41.7585 18.1528 35.1415 18.1528C28.5245 18.1528 23.1604 23.5831 23.1604 30.2818C23.1604 36.9804 28.5245 42.4107 35.1415 42.4107Z" fill="#F37F2F"/>
<path d="M51.1342 176.189C57.7512 176.189 63.1153 170.758 63.1153 164.06C63.1153 157.361 57.7512 151.931 51.1342 151.931C44.5172 151.931 39.1531 157.361 39.1531 164.06C39.1531 170.758 44.5172 176.189 51.1342 176.189Z" fill="#F37F2F"/>
<path d="M51.7907 162.326L105.999 186.251L50.4772 165.668C49.5542 165.326 49.0839 164.293 49.4211 163.359C49.7584 162.424 50.779 161.948 51.702 162.29C51.7286 162.299 51.7641 162.317 51.7907 162.326Z" fill="#F27F2D"/>
<path d="M52.8737 163.862L64.4022 227.795L49.3947 164.608C49.164 163.646 49.7497 162.676 50.7082 162.442C51.6578 162.209 52.6163 162.802 52.8471 163.772C52.8559 163.799 52.8648 163.835 52.8737 163.862Z" fill="#F27F2D"/>
<path d="M104.712 193.987C108.966 193.987 112.415 190.495 112.415 186.188C112.415 181.881 108.966 178.39 104.712 178.39C100.457 178.39 97.0085 181.881 97.0085 186.188C97.0085 190.495 100.457 193.987 104.712 193.987Z" fill="#F37F2F"/>
<path d="M64.4021 231.901C68.6566 231.901 72.1056 228.409 72.1056 224.102C72.1056 219.795 68.6566 216.304 64.4021 216.304C60.1477 216.304 56.6987 219.795 56.6987 224.102C56.6987 228.409 60.1477 231.901 64.4021 231.901Z" fill="#F37F2F"/>
<path d="M50.2733 162.595L96.485 131.896L52.3146 165.533C51.5336 166.126 50.4153 165.973 49.8296 165.174C49.2439 164.383 49.3947 163.251 50.1846 162.658C50.2112 162.64 50.2467 162.613 50.2733 162.595Z" fill="#F27F2D"/>
<path d="M92.5889 142.641C96.8434 142.641 100.292 139.149 100.292 134.842C100.292 130.535 96.8434 127.044 92.5889 127.044C88.3344 127.044 84.8855 130.535 84.8855 134.842C84.8855 139.149 88.3344 142.641 92.5889 142.641Z" fill="#F37F2F"/>
<path d="M36.8456 30.776L15.6079 99.3001L33.4287 29.7877C33.6772 28.8264 34.6446 28.2514 35.5942 28.5029C36.5438 28.7545 37.1118 29.7338 36.8633 30.6951C36.8633 30.7131 36.8544 30.749 36.8456 30.776Z" fill="#F27F2D"/>
<path d="M35.7008 27.9815L114.102 56.1477L34.5826 31.3866C33.6418 31.0991 33.1182 30.0929 33.4111 29.1405C33.704 28.1882 34.6891 27.6581 35.6298 27.9546C35.6476 27.9636 35.6742 27.9726 35.7008 27.9815Z" fill="#F27F2D"/>
<path d="M114.759 64.0361C119.013 64.0361 122.462 60.5446 122.462 56.2377C122.462 51.9307 119.013 48.4392 114.759 48.4392C110.504 48.4392 107.055 51.9307 107.055 56.2377C107.055 60.5446 110.504 64.0361 114.759 64.0361Z" fill="#F37F2F"/>
<path d="M36.5437 28.5837L82.4536 91.0703L33.7392 30.7939C33.118 30.0212 33.2334 28.8892 33.9877 28.2603C34.751 27.6314 35.8692 27.7482 36.4904 28.5118C36.5082 28.5388 36.5259 28.5568 36.5437 28.5837Z" fill="#F27F2D"/>
<path d="M82.3294 99.7041C86.5839 99.7041 90.0328 96.2126 90.0328 91.9057C90.0328 87.5987 86.5839 84.1072 82.3294 84.1072C78.0749 84.1072 74.626 87.5987 74.626 91.9057C74.626 96.2126 78.0749 99.7041 82.3294 99.7041Z" fill="#F37F2F"/>
<path d="M34.6711 27.9548L109.513 8.76416L35.6208 31.4138C34.68 31.7013 33.6949 31.1623 33.4109 30.2189C33.1269 29.2666 33.6594 28.2693 34.5913 27.9818C34.609 27.9728 34.6445 27.9638 34.6711 27.9548Z" fill="#F27F2D"/>
<path d="M109.913 15.8169C114.167 15.8169 117.616 12.3254 117.616 8.01844C117.616 3.71146 114.167 0.219971 109.913 0.219971C105.658 0.219971 102.209 3.71146 102.209 8.01844C102.209 12.3254 105.658 15.8169 109.913 15.8169Z" fill="#F37F2F"/>
</svg>
