<?xml version="1.0" encoding="UTF-8" standalone="no"?>
<!-- Created with Inkscape (http://www.inkscape.org/) -->

<svg
   width="115mm"
   height="130mm"
   viewBox="0 0 115 130"
   version="1.1"
   id="svg5"
   sodipodi:docname="DarkModeLogo.svg"
   inkscape:export-filename="C:\Users\onewe\Desktop\visualExp\VisualExp\src\assets\DarkmodeLogo.png"
   inkscape:export-xdpi="96"
   inkscape:export-ydpi="96"
   inkscape:version="1.1.1 (3bf5ae0d25, 2021-09-20)"
   xmlns:inkscape="http://www.inkscape.org/namespaces/inkscape"
   xmlns:sodipodi="http://sodipodi.sourceforge.net/DTD/sodipodi-0.dtd"
   xmlns:xlink="http://www.w3.org/1999/xlink"
   xmlns="http://www.w3.org/2000/svg"
   xmlns:svg="http://www.w3.org/2000/svg">
  <sodipodi:namedview
     id="namedview7"
     pagecolor="#505050"
     bordercolor="#eeeeee"
     borderopacity="1"
     inkscape:pageshadow="0"
     inkscape:pageopacity="0"
     inkscape:pagecheckerboard="0"
     inkscape:document-units="mm"
     showgrid="false"
     inkscape:zoom="0.72337262"
     inkscape:cx="180.40495"
     inkscape:cy="463.7997"
     inkscape:window-width="1920"
     inkscape:window-height="1001"
     inkscape:window-x="-9"
     inkscape:window-y="-9"
     inkscape:window-maximized="1"
     inkscape:current-layer="layer1"
     width="209mm" />
  <defs
     id="defs2" />
  <g
     inkscape:label="Layer 1"
     inkscape:groupmode="layer"
     id="layer1">
    <g
       id="g1336"
       transform="matrix(0.26458333,0,0,0.26458333,20.415308,12.617224)">
      <g
         id="Layer_3">
</g>
      <path
         class="st0"
         d="M 52.7,266.5"
         id="path12" />
      <path
         class="st1"
         d="M 151.7,1.4"
         id="path14" />
      <g
         class="st2"
         id="g30">
	<path
   class="st3"
   d="m 8.1,338.1 c 0,-5.3 -0.2,-7.1 -3.8,-7.4 l -3.8,-0.3 c -0.6,-0.3 -0.7,-1.4 -0.1,-1.7 6.6,-1.2 10.9,-3.2 13,-4.6 0.3,0 0.6,0.2 0.8,0.4 -0.2,1.4 -0.3,5.3 -0.3,9.8 v 30.5 c 0,6.1 0.2,7.4 3.4,7.6 l 3.3,0.2 c 0.5,0.5 0.4,1.7 -0.2,2 -3.1,-0.2 -6.6,-0.2 -9.4,-0.2 -2.8,0 -6.4,0.1 -9.4,0.2 -0.6,-0.2 -0.6,-1.5 -0.2,-2 l 3.2,-0.2 C 7.9,372.2 8,370.8 8,364.8 v -26.7 z"
   id="path16" />

	<path
   class="st3"
   d="m 43.5,327.9 c 5.7,-4.5 13.1,-6.7 21.2,-6.7 4.2,0 10.2,0.9 13.9,1.9 0.9,0.2 1.5,0.4 2.2,0.3 0.1,1.8 0.5,6.8 1.1,11.6 -0.4,0.6 -1.6,0.6 -2.1,0.2 -1.2,-5.3 -4.7,-11.5 -16.1,-11.5 -12,0 -22.3,7.6 -22.3,23.9 0,16.5 10.5,25.6 23.4,25.6 10.1,0 14.6,-6.6 16.4,-11.3 0.6,-0.4 1.7,-0.2 2,0.3 -0.6,4.1 -2.6,9.3 -3.8,10.8 -0.9,0.2 -1.9,0.5 -2.8,0.8 -1.7,0.6 -7.4,1.8 -12.4,1.8 -7.1,0 -13.8,-1.4 -19.6,-5.3 -6.3,-4.3 -11.2,-11.5 -11.2,-21.6 0.2,-8.7 4.1,-16.2 10.1,-20.8 z"
   id="path18" />

	<path
   class="st3"
   d="m 103.5,358.1 c 1.2,-0.4 1.3,-1.1 1.3,-2.3 l 0.1,-3.6 c 0.1,-2.9 -0.9,-6.8 -5.7,-6.8 -2.2,0 -4.9,1.1 -5,3.5 -0.1,1.3 -0.2,2.2 -0.8,2.7 -1.2,0.9 -3.3,1.5 -4.5,1.5 -0.7,0 -1.1,-0.4 -1.1,-1.1 0,-4.1 8.9,-9.7 14.6,-9.7 5.7,0 8.4,3.3 8.2,9.2 l -0.5,13.7 c -0.2,3.6 0.6,6.8 3.6,6.8 0.8,0 1.5,-0.2 2,-0.5 0.4,-0.2 0.8,-0.6 1,-0.6 0.3,0 0.6,0.5 0.6,1 0,0.4 -2.8,3.5 -6.6,3.5 -1.9,0 -3.8,-0.7 -5.1,-2.4 -0.3,-0.5 -0.8,-1.1 -1.3,-1.1 -0.6,0 -1.5,0.7 -3.1,1.6 -1.7,0.9 -3.5,2 -5.7,2 -2.3,0 -4.2,-0.6 -5.5,-1.8 -1.5,-1.3 -2.4,-3.3 -2.4,-5.5 0,-3.1 1.5,-4.9 6.5,-6.7 z M 98.6,372 c 1.6,0 4,-1.2 4.8,-2 0.9,-0.9 0.9,-2 1,-3.7 l 0.2,-4.6 c 0,-0.9 -0.3,-1 -0.8,-1 -0.5,0 -1.8,0.3 -3.2,0.8 -4.6,1.6 -6.9,2.8 -6.9,5.8 0,1.3 0.9,4.7 4.9,4.7 z"
   id="path20" />

	<path
   class="st3"
   d="m 150,362.9 c 0,6.2 0.1,9.1 2.3,9.1 0.9,0 2.2,-0.4 3.4,-0.8 0.6,0.2 0.6,2.1 -0.1,2.5 -3.3,0.5 -8.2,1.7 -10.4,2.5 -0.5,0 -0.9,-0.2 -0.9,-0.6 v -1.3 c 0,-1.2 0,-2.1 -0.2,-2.4 h -0.3 c -3.5,2.4 -6.1,3.6 -9.9,3.6 -8.7,0 -14.6,-6.8 -14.6,-15.1 0,-11 8.3,-18.1 19,-18.1 2.7,0 4.4,0.4 5.3,0.7 0.4,0 0.5,-0.5 0.5,-1.1 V 330 c 0,-4.6 -0.1,-5.1 -2.4,-6.5 L 141,323 c -0.4,-0.2 -0.4,-1.3 0,-1.6 2,-0.6 5.7,-1.8 8.5,-3.3 0.3,0 0.6,0.2 0.8,0.5 -0.1,2.4 -0.2,6.3 -0.2,9.8 v 34.5 z m -5.8,-11.8 c 0,-1.6 -0.3,-2.3 -0.9,-3.1 -1.2,-1.7 -3.5,-3.3 -6.6,-3.3 -7.2,0 -10.9,6.2 -10.9,13.1 0,7.2 4,13.9 11.7,13.9 2.1,0 4.8,-0.9 6.1,-2.2 0.5,-0.5 0.6,-1.7 0.6,-2.9 z"
   id="path22" />

	<path
   class="st3"
   d="m 166.9,354.3 c -2,0 -2.1,0.2 -2.1,2.1 0,7.9 4.6,14.7 13.1,14.7 2.6,0 4.8,-0.8 7.2,-3.9 0.8,-0.2 1.3,0.2 1.4,0.9 -2.6,5.3 -8.3,7.3 -12.4,7.3 -5.1,0 -9.1,-2.2 -11.4,-5.2 -2.4,-3.1 -3.3,-6.8 -3.3,-10.2 0,-9.7 6.4,-17.8 15.8,-17.8 6.8,0 11.2,4.6 11.2,9.4 0,1.1 -0.2,1.7 -0.3,2 -0.2,0.5 -1.3,0.6 -4.6,0.6 h -14.6 z m 4.9,-2.4 c 5.8,0 7.6,-0.3 8.2,-0.8 0.2,-0.2 0.5,-0.5 0.5,-1.5 0,-2.2 -1.5,-5 -6.1,-5 -4.6,0 -8.7,4.2 -8.7,6.8 0,0.2 0,0.4 0.6,0.4 h 5.5 z"
   id="path24" />

	<path
   class="st3"
   d="m 237.3,354.2 c 0,-5.3 -2.4,-8.1 -7.3,-8.1 -3,0 -5.4,1.3 -6.5,2.8 -0.9,1.2 -1.2,2 -1.2,4.7 v 12 c 0,5.7 0.2,6.5 3,6.8 l 1.7,0.2 c 0.6,0.4 0.4,1.7 -0.2,2 -2.4,-0.2 -4.6,-0.2 -7.4,-0.2 -2.8,0 -5,0.1 -7.2,0.2 -0.6,-0.2 -0.7,-1.6 -0.2,-2 l 1.4,-0.2 c 2.9,-0.5 3,-1.2 3,-6.8 v -11.4 c 0,-5.3 -2.4,-8.1 -7.2,-8.1 -3.2,0 -5.4,1.4 -6.6,2.8 -0.8,0.9 -1.2,2 -1.2,4.5 v 12.2 c 0,5.7 0.2,6.4 3,6.8 l 1.4,0.2 c 0.6,0.4 0.4,1.7 -0.2,2 -2.1,-0.2 -4.4,-0.2 -7.2,-0.2 -2.8,0 -5.2,0.1 -7.6,0.2 -0.6,-0.2 -0.7,-1.6 -0.2,-2 l 1.9,-0.2 c 2.9,-0.4 3,-1.2 3,-6.8 v -13.8 c 0,-3.1 0,-3.5 -2.1,-4.9 l -0.7,-0.5 c -0.3,-0.3 -0.3,-1.2 0.1,-1.4 1.8,-0.6 6.3,-2.7 7.9,-3.9 0.3,0 0.7,0.2 0.9,0.6 -0.2,1.8 -0.2,3 -0.2,3.7 0,0.5 0.3,0.9 0.9,0.9 3,-2.1 6.7,-4 10.5,-4 3.9,0 6.1,1.4 8.3,4.6 0.7,0.2 1.3,-0.2 2,-0.6 3.1,-2.2 7,-4 10.7,-4 6.3,0 9.4,4.3 9.4,9.8 v 13.5 c 0,5.7 0.2,6.5 3,6.8 l 1.9,0.2 c 0.6,0.4 0.4,1.7 -0.2,2 -2.6,-0.2 -4.9,-0.2 -7.6,-0.2 -2.8,0 -5,0.1 -7.2,0.2 -0.6,-0.2 -0.7,-1.6 -0.2,-2 l 1.4,-0.2 c 2.9,-0.5 3,-1.2 3,-6.8 z"
   id="path26" />

	<path
   class="st3"
   d="m 251.7,390.6 c 0,-2.1 1.4,-3.1 3.1,-3.1 h 1.5 c 1.3,0 2,-0.6 2.6,-1.4 2.3,-3.5 3.9,-6.8 4.6,-8.7 0.2,-0.6 0.8,-2.3 0.8,-3.4 0,-1.6 -0.3,-2.5 -1.3,-5.4 l -6.1,-16.8 c -1.3,-3.7 -1.9,-5.6 -4.6,-6.1 l -2,-0.4 c -0.5,-0.4 -0.4,-1.7 0.2,-2 2.5,0.2 4.9,0.2 7.5,0.2 2.1,0 4.3,-0.1 6.8,-0.2 0.6,0.2 0.7,1.6 0.2,2 l -2,0.4 c -1.1,0.2 -1.7,0.5 -1.7,1 0,0.9 1.8,6.1 2.3,7.4 l 2.5,7.2 c 0.5,1.3 2,5.4 2.3,5.6 0.2,-0.2 1.5,-2.6 2.9,-5.8 l 2.7,-6.2 c 1.7,-4.1 2.8,-7 2.8,-7.9 0,-0.6 -0.5,-1.1 -1.9,-1.3 l -2.4,-0.4 c -0.6,-0.4 -0.5,-1.7 0.2,-2 2.5,0.2 4.9,0.2 6.9,0.2 2,0 3.8,-0.1 6,-0.2 0.6,0.3 0.7,1.5 0.2,2 l -1.3,0.2 c -2.6,0.5 -4,2.8 -6.7,8.3 l -4.4,9 c -2.6,5.3 -9,19 -12.9,27.5 -1.3,3 -3.2,3.7 -5,3.7 -2.7,0 -3.8,-1.4 -3.8,-3.4 z"
   id="path28" />

</g>
      <g
         id="g38">
	<path
   class="st3"
   d="m 158.9,1.8 c 2.4,-0.2 5.8,-0.3 10.6,-0.3 2.9,0.1 6.3,0.5 10.1,1.5 5.3,1.3 9.6,3.3 12.7,5.1 l 0.1,0.1 c 2.6,1.6 6.2,3.9 10.3,7.2 5.7,4.6 16.3,13.4 22.3,28.3 1.2,3 2.8,7 3.5,12.5 0.6,4.8 0.3,9.1 -0.2,17.8 -0.5,7.2 -0.8,8.2 -0.4,11.6 0.3,2.8 0.7,7.2 3.4,11.6 2,3.3 3.8,4 10.3,10.3 5.6,5.4 4.3,4.8 7.7,7.8 6.7,5.9 10.1,6.6 12.3,11.6 0.4,0.9 0.6,1.7 0.7,2 0.1,0.5 1.1,4.4 -0.4,8.1 -1,2.4 -1.9,1.9 -5.2,5.8 -1.9,2.2 -3.2,3.9 -4.1,6.4 -0.3,0.9 -1.1,3.5 -0.8,6.9 0.2,1.8 0.4,3.9 1.7,5.8 2,3 4.5,2.4 6.4,5.7 0.5,0.8 1.2,2.1 1.1,3.7 -0.2,2.7 -2.4,4.6 -3,5.1 -1.8,1.5 -2.6,1 -4,2.7 -0.5,0.6 -1.7,1.9 -1.4,3.4 0.1,0.9 0.8,1.5 1.3,2 2,1.9 3.8,1.1 5,2.7 0.8,1 0.8,2.3 0.8,3.2 0,0.6 -0.1,2.2 -1,3.7 -0.8,1.2 -1.6,1.5 -2.4,2.2 -2.4,2.1 -2.7,5.7 -2.9,7.6 -0.3,3.5 0.8,4.9 1.4,8.1 1.3,7.5 -2.2,14 -2.9,15.3 -3.3,6.1 -8.5,8.9 -10.5,10 -7.3,3.8 -16.1,3.5 -33.8,2.7 -0.8,0 -3.2,-0.1 -6.4,0.2 0,0 -2.4,0.2 -4.8,0.7 -2.6,0.5 -9,1.8 -15,5.6 -10.9,6.9 -15.4,17.3 -16.9,21.2 l -2.6,2.6 c -2,1.2 -4.9,2.9 -8.7,4.1 -2.8,0.9 -5.1,1.4 -9.2,2 -6.7,0.9 -10.6,1.5 -16.2,1.7 -9.1,0.4 -15.9,-0.5 -21.6,-1.1 -10,-1.1 -19,-3 -26.8,-5 l 9.7,1 c 4.6,0.4 9.8,0.7 16.2,0.5 5.7,-0.2 9.7,-0.8 16.4,-1.7 4.1,-0.6 6.4,-1 9.3,-1.9 3.8,-1.2 6.8,-2.8 8.8,-4 l 2.6,-2.6 c 1.5,-3.8 6,-13.9 17,-20.6 6.1,-3.7 12.5,-4.9 15.2,-5.5 2.4,-0.5 4.9,-0.7 4.9,-0.7 3.2,-0.3 5.6,-0.2 6.4,-0.1 17.8,0.7 26.7,1.1 34.1,-2.6 2.1,-1 7.3,-3.8 10.6,-9.7 0.7,-1.2 4.2,-7.5 2.9,-14.8 -0.5,-3.1 -1.6,-4.5 -1.4,-7.9 0.1,-1.9 0.4,-5.4 2.9,-7.4 0.8,-0.7 1.6,-0.9 2.4,-2.1 1,-1.4 1.1,-3 1.1,-3.6 0,-0.9 0,-2.1 -0.8,-3.1 -1.2,-1.6 -3,-0.8 -5,-2.6 -0.5,-0.5 -1.1,-1.1 -1.3,-2 -0.2,-1.5 0.9,-2.8 1.4,-3.3 1.4,-1.6 2.3,-1.2 4,-2.6 0.6,-0.5 2.9,-2.3 3,-4.9 0.1,-1.6 -0.6,-2.9 -1.1,-3.6 -1.9,-3.2 -4.4,-2.6 -6.5,-5.6 -1.3,-1.9 -1.5,-3.9 -1.7,-5.7 -0.3,-3.3 0.5,-5.8 0.8,-6.7 0.9,-2.5 2.2,-4.1 4.1,-6.2 3.3,-3.9 4.2,-3.4 5.2,-5.7 1.6,-3.5 0.6,-7.4 0.4,-7.9 -0.1,-0.3 -0.3,-1.1 -0.7,-2 -2.2,-4.9 -5.7,-5.6 -12.4,-11.3 -3.4,-2.9 -2.1,-2.3 -7.7,-7.6 -6.6,-6.1 -8.3,-6.8 -10.4,-10 -2.7,-4.2 -3.1,-8.6 -3.4,-11.2 -0.4,-3.3 0,-4.3 0.5,-11.2 0.6,-8.4 0.9,-12.7 0.2,-17.3 -0.7,-5.4 -2.3,-9.3 -3.5,-12.2 -6.1,-14.5 -16.8,-23 -22.5,-27.6 -2.7,-2.1 -5.2,-3.8 -7.4,-5.2 C 171.9,11.2 169.1,9 165.4,7.1 159.1,3.9 154,3.5 154,2.7 c 0,-0.3 0.6,-0.5 2.5,-0.8 z"
   id="path32" />

	<path
   class="st3"
   d="m 141.8,276.7 c -4.9,0.7 -8.4,1.1 -12.8,1.4"
   id="path34" />

	<path
   class="st3"
   d="m 79.6,272.1 c -0.1,0 -0.2,0 -0.2,-0.1 l 9.7,1 c 4.6,0.4 9.8,0.7 16.2,0.5 5.7,-0.2 9.7,-0.8 16.4,-1.7 4.1,-0.6 6.5,-1 9.3,-1.9 3.8,-1.2 6.8,-2.8 8.8,-4 l 2.6,-2.6 c 1.5,-3.8 6,-13.9 17,-20.6 6.1,-3.7 12.5,-4.9 15.2,-5.5 2.4,-0.5 4.9,-0.7 4.9,-0.7 3.2,-0.3 5.6,-0.2 6.4,-0.1 17.8,0.7 26.7,1.1 34.1,-2.6 2.1,-1 7.3,-3.8 10.6,-9.7 0.7,-1.2 4.2,-7.5 2.9,-14.8 -0.5,-3.1 -1.6,-4.5 -1.4,-7.9 0.1,-1.9 0.4,-5.4 2.9,-7.4 0.8,-0.7 1.6,-0.9 2.4,-2.1 1,-1.4 1.1,-3 1.1,-3.6 0,-0.9 0,-2.1 -0.8,-3.1 -1.2,-1.6 -3,-0.8 -5,-2.6 -0.5,-0.5 -1.1,-1.1 -1.3,-2 -0.2,-1.5 0.9,-2.8 1.4,-3.3 1.4,-1.6 2.3,-1.2 4,-2.6 0.6,-0.5 2.9,-2.3 3,-4.9 0.1,-1.6 -0.6,-2.9 -1.1,-3.6 -1.9,-3.2 -4.4,-2.6 -6.5,-5.6 -1.3,-1.9 -1.5,-3.9 -1.7,-5.7 -0.3,-3.3 0.5,-5.8 0.8,-6.7 0.9,-2.5 2.2,-4.1 4.1,-6.2 3.3,-3.9 4.2,-3.4 5.2,-5.7 1.6,-3.5 0.6,-7.4 0.4,-7.9 -0.1,-0.3 -0.3,-1.1 -0.7,-2 -2.2,-4.9 -5.7,-5.6 -12.4,-11.3 -3.4,-2.9 -2.1,-2.3 -7.7,-7.6 -6.6,-6.1 -8.3,-6.8 -10.4,-10 -2.7,-4.2 -3.1,-8.6 -3.4,-11.2 -0.4,-3.3 0,-4.3 0.5,-11.2 0.6,-8.4 0.9,-12.7 0.2,-17.3 -0.7,-5.4 -2.3,-9.3 -3.5,-12.2 -6.1,-14.5 -16.8,-23 -22.5,-27.6 -2.7,-2.1 -5.2,-3.8 -7.4,-5.2 C 171.9,11.2 169.1,9 165.4,7.1 159,4 153.9,3.6 153.9,2.8 c 0,-0.3 0.6,-0.5 2.5,-0.8 L 159,1.8 c 2.4,-0.2 5.8,-0.3 10.6,-0.3 2.9,0.1 6.3,0.5 10.1,1.5 5.3,1.3 9.6,3.3 12.7,5.1 l 0.1,0.1 c 2.6,1.6 6.2,3.9 10.3,7.2 5.7,4.6 16.3,13.4 22.3,28.3 1.2,3 2.8,7 3.5,12.5 0.6,4.8 0.3,9.1 -0.2,17.8 -0.5,7.2 -0.8,8.2 -0.4,11.6 0.3,2.8 0.7,7.2 3.4,11.6 2,3.3 3.8,4 10.3,10.3 5.6,5.4 4.3,4.8 7.7,7.8 6.7,5.9 10.1,6.6 12.3,11.6 0.4,0.9 0.6,1.7 0.7,2 0.1,0.5 1.1,4.4 -0.4,8.1 -1,2.4 -1.9,1.9 -5.2,5.8 -1.9,2.2 -3.2,3.9 -4.1,6.4 -0.3,0.9 -1.1,3.5 -0.8,6.9 0.2,1.8 0.4,3.9 1.7,5.8 2,3 4.5,2.4 6.4,5.7 0.5,0.8 1.2,2.1 1.1,3.7 -0.2,2.7 -2.4,4.6 -3,5.1 -1.8,1.5 -2.6,1 -4,2.7 -0.5,0.6 -1.7,1.9 -1.4,3.4 0.1,0.9 0.8,1.5 1.3,2 2,1.9 3.8,1.1 5,2.7 0.8,1 0.8,2.3 0.8,3.2 0,0.6 -0.1,2.2 -1,3.7 -0.8,1.2 -1.6,1.5 -2.4,2.2 -2.4,2.1 -2.7,5.7 -2.9,7.6 -0.3,3.5 0.8,4.9 1.4,8.1 1.3,7.5 -2.2,14 -2.9,15.3 -3.3,6.1 -8.5,8.9 -10.5,10 -7.3,3.8 -16.1,3.5 -33.8,2.7 -0.8,0 -3.2,-0.1 -6.4,0.2 0,0 -2.4,0.2 -4.8,0.7 -2.6,0.5 -9,1.8 -15,5.6 -10.9,6.9 -15.4,17.3 -16.9,21.2 l -2.6,2.6 c -2,1.2 -4.9,2.9 -8.7,4.1 -2.8,0.9 -5.1,1.4 -9.2,2 -0.8,0.1 -1.5,0.2 -2.1,0.3"
   id="path36" />

</g>
      <path
         class="st4"
         d="m 142.5,276.6 c 0.4,-0.1 0.9,-0.1 1.4,-0.2 4.1,-0.6 6.4,-1 9.2,-2 3.8,-1.3 6.7,-2.9 8.7,-4.1 l 2.6,-2.6 c 1.5,-3.9 6,-14.3 16.8,-21.2 6,-3.8 12.4,-5.1 15,-5.6 2.4,-0.5 4.8,-0.7 4.8,-0.7 3.2,-0.3 5.5,-0.2 6.4,-0.1 3.4,0.1 6.4,0.3 9.2,0.4 l 0.6,-0.1 c 1.1,0.1 2.3,0.1 3.5,0.1 6.9,0 13.1,-1 18.5,-2.4 l 0.6,-0.1 c 0.5,-0.2 0.9,-0.4 1.3,-0.6 2,-1.1 7.3,-3.9 10.5,-10 0.6,-1.2 4.1,-7.7 2.9,-15.3 -0.5,-3.2 -1.6,-4.6 -1.4,-8.1 0.1,-1.9 0.4,-5.6 2.9,-7.6 0.8,-0.7 1.6,-1 2.4,-2.2 1,-1.5 1,-3.1 1,-3.7 0,-0.9 0,-2.2 -0.8,-3.2 -1.2,-1.6 -2.9,-0.8 -5,-2.7 -0.5,-0.5 -1.1,-1.1 -1.3,-2 -0.2,-1.5 0.9,-2.8 1.4,-3.4 1.4,-1.6 2.2,-1.2 4,-2.7 0.6,-0.5 2.8,-2.4 3,-5.1 0.1,-1.7 -0.6,-3 -1.1,-3.7 -1.9,-3.3 -4.4,-2.7 -6.4,-5.7 -1.3,-1.9 -1.5,-4 -1.7,-5.8 -0.3,-3.4 0.5,-6 0.8,-6.9 0.9,-2.6 2.2,-4.2 4.1,-6.4 3.3,-4 4.2,-3.5 5.2,-5.8 1.5,-3.6 0.6,-7.6 0.4,-8.1 -0.1,-0.3 -0.3,-1.1 -0.7,-2 -2.2,-5 -5.7,-5.7 -12.3,-11.6 -3.4,-3 -2,-2.4 -7.7,-7.8 -6.5,-6.3 -8.2,-7 -10.3,-10.3 -2.7,-4.4 -3.1,-8.8 -3.4,-11.6 -0.4,-3.4 0,-4.4 0.4,-11.6 0.6,-8.7 0.8,-13 0.2,-17.8 -0.7,-5.5 -2.3,-9.5 -3.5,-12.5 -6,-14.9 -16.6,-23.7 -22.3,-28.3 -4,-3.2 -7.6,-5.6 -10.3,-7.2 L 192,8.2 c -3.1,-1.8 -7.4,-3.7 -12.8,-5.1 -3.8,-1 -7.2,-1.3 -10.1,-1.5 -1.8,0 -3.4,0 -4.8,0.1 l -5.3,0.5 3.5,-0.7 c 5.4,-0.9 10,-0.8 13.3,-0.6 10.4,0.8 18.3,4.3 24.3,7 3.9,1.8 7.4,3.7 10.4,5.6 l 0.6,0.4 c 3.2,2.2 6.6,4.7 10.1,7.5 1.6,1.3 3.2,2.7 4.6,4 l 0.1,0.1 c 6.5,4.7 15.1,12.1 20.7,23.2 1.4,2.8 3.3,6.6 4.2,11.9 0.8,4.5 0.7,8.7 0.4,17.1 -0.3,6.9 -0.6,7.9 -0.1,11.1 0.4,2.6 1,6.9 4.1,11 2.3,3.1 4.2,3.7 11.6,9.5 6.3,5 4.9,4.5 8.6,7.2 7.5,5.4 11.3,5.9 13.9,10.7 0.5,0.9 0.8,1.6 0.9,1.9 0.2,0.5 1.4,4.2 -0.2,7.8 -1,2.3 -2,1.9 -5.5,5.8 -2,2.2 -3.3,3.8 -4.2,6.3 -0.3,0.9 -1.1,3.4 -0.6,6.7 0.3,1.8 0.5,3.7 2,5.6 2.3,2.8 5,2.1 7.2,5.2 0.5,0.7 1.4,1.9 1.3,3.6 -0.1,2.6 -2.5,4.5 -3.1,5 -1.9,1.5 -2.8,1.1 -4.3,2.7 -0.5,0.6 -1.8,1.9 -1.4,3.4 0.2,0.9 0.9,1.4 1.5,1.9 2.3,1.8 4.1,0.9 5.5,2.4 0.9,1 0.9,2.2 0.9,3 0,0.6 0,2.1 -1,3.6 -0.8,1.2 -1.7,1.5 -2.5,2.2 -2.6,2.1 -2.8,5.6 -2.9,7.5 -0.2,3.4 1,4.7 1.8,7.7 1.7,7.2 -1.9,13.6 -2.6,14.8 -3.4,6 -9,8.9 -11.1,10 -1.1,0.5 -2.2,1 -3.4,1.4 l -14.2,3.1 c -10.8,3.7 -19.3,4.5 -25.1,4.6 -4.5,0 -11.8,-0.4 -20.7,2.6 -2.6,0.9 -4.6,1.8 -5.9,2.4 l -0.4,0.3 c -8.3,6.6 -11.8,14.5 -13,17.8 l -2.7,2.6 c -2.1,1.3 -5.3,3 -9.4,4.3 -3,1 -5.5,1.5 -9.9,2.2 -7.2,1.2 -11.5,1.9 -17.7,2.3 -3.1,0.2 -6,0.3 -8.7,0.3 -3.2,0 -6.3,0 -9.5,0"
         id="path40" />
      <g
         id="Layer_2_1_">
</g>
      <g
         id="Layer_7">
</g>
      <g
         id="Layer_8">
</g>
      <g
         id="Layer_6">
</g>
      <g
         id="Layer_11">
</g>
      <g
         id="Layer_1_1_">
	<circle
   class="st3"
   cx="25.700001"
   cy="108.7"
   r="16.6"
   id="circle47" />

	<g
   id="g51">
		<path
   class="st5"
   d="M 27.5,107.8 66.9,187.5 24,109.7 c -0.5,-1 -0.2,-2.2 0.8,-2.7 0.9,-0.6 2.1,-0.2 2.7,0.8 0,0 0,0 0,0 z"
   id="path49" />

	</g>

	<circle
   class="st3"
   cx="47.700001"
   cy="33.5"
   r="13.5"
   id="circle53" />

	<circle
   class="st3"
   cx="65.800003"
   cy="182.39999"
   r="13.5"
   id="circle55" />

	<g
   id="g59">
		<path
   class="st5"
   d="M 66.5,180.4 127.6,207 65,184.1 c -1,-0.4 -1.6,-1.5 -1.2,-2.6 0.4,-1 1.6,-1.5 2.7,-1.1 -0.1,0 0,0 0,0 z"
   id="path57" />

	</g>

	<g
   id="g63">
		<path
   class="st5"
   d="m 67.7,182.1 13,71.2 L 63.8,183 c -0.3,-1.1 0.4,-2.1 1.5,-2.4 1,-0.3 2.1,0.4 2.4,1.5 0,0 0,0 0,0 z"
   id="path61" />

	</g>

	<circle
   class="st3"
   cx="126.1"
   cy="207"
   r="8.6999998"
   id="circle65" />

	<circle
   class="st3"
   cx="80.699997"
   cy="249.2"
   r="8.6999998"
   id="circle67" />

	<g
   id="g71">
		<path
   class="st5"
   d="M 64.8,180.7 116.9,146.5 67.1,184 c -0.9,0.7 -2.1,0.5 -2.8,-0.4 -0.7,-0.9 -0.5,-2.1 0.5,-2.9 -0.1,0.1 0,0.1 0,0 z"
   id="path69" />

	</g>

	
		<circle
   transform="matrix(0.07088897,-0.9975,0.9975,0.07088897,-44.9712,251.3994)"
   class="st3"
   cx="112.5"
   cy="149.8"
   id="ellipse73"
   r="8.6999998" />

	<g
   id="g77">
		<path
   class="st5"
   d="M 49.7,34 25.8,110.3 45.9,32.9 c 0.3,-1.1 1.4,-1.7 2.4,-1.4 1,0.3 1.7,1.3 1.4,2.5 0,-0.1 0,0 0,0 z"
   id="path75" />

	</g>

	<g
   id="g81">
		<path
   class="st5"
   d="M 48.4,30.9 136.7,62.2 47.1,34.7 c -1.1,-0.3 -1.7,-1.4 -1.3,-2.5 0.4,-1.1 1.4,-1.7 2.6,-1.3 -0.1,0 -0.1,0 0,0 z"
   id="path79" />

	</g>

	<circle
   class="st3"
   cx="137.39999"
   cy="62.299999"
   r="8.6999998"
   id="circle83" />

	<g
   id="g87">
		<path
   class="st5"
   d="M 49.3,31.6 101,101.1 46.2,34 c -0.7,-0.9 -0.6,-2.1 0.3,-2.8 0.8,-0.7 2.1,-0.6 2.8,0.4 0,-0.1 0,-0.1 0,0 z"
   id="path85" />

	</g>

	<circle
   class="st3"
   cx="100.9"
   cy="102.1"
   r="8.6999998"
   id="circle89" />

	<g
   id="g93">
		<path
   class="st5"
   d="M 47.2,30.9 131.5,9.5 48.3,34.7 c -1.1,0.3 -2.2,-0.3 -2.5,-1.3 -0.3,-1.1 0.3,-2.2 1.4,-2.5 -0.1,0 0,0 0,0 z"
   id="path91" />

	</g>

	<circle
   class="st3"
   cx="132"
   cy="8.6999998"
   r="8.6999998"
   id="circle95" />

</g>
      <g
         id="Layer_4"
         class="st6">
	<g
   class="st7"
   id="g100">
		<path
   class="st8"
   d="m -2402.5,868.1 71.5,-52.4 -70.3,54 c -0.4,0.3 -1.1,0.2 -1.4,-0.2 -0.3,-0.5 -0.2,-1.1 0.2,-1.4 0,0 0,0 0,0 z"
   id="path98" />

	</g>

	<circle
   class="st9"
   cx="-2401.8999"
   cy="868.5"
   r="15.9"
   id="circle102" />

	<g
   class="st7"
   id="g106">
		<path
   class="st8"
   d="m -2333.7,809 48.2,63.1 -49,-62.5 c -0.2,-0.2 -0.1,-0.5 0.1,-0.7 0.2,-0.2 0.5,-0.1 0.7,0.1 z"
   id="path104" />

	</g>

	<circle
   class="st9"
   cx="-2331"
   cy="815.90002"
   r="11.6"
   id="circle108" />

	<circle
   class="st9"
   cx="-2391.3999"
   cy="951.29999"
   r="11.6"
   id="circle110" />

	<circle
   class="st9"
   cx="-2329.1001"
   cy="897"
   r="11.6"
   id="circle112" />

	<circle
   class="st9"
   cx="-2321.6001"
   cy="945.79999"
   r="7.5"
   id="circle114" />

	<circle
   class="st9"
   cx="-2291.1001"
   cy="866.70001"
   r="7.5"
   id="circle116" />

	<g
   class="st7"
   id="g168">
		<g
   id="g120">
			<path
   class="st8"
   d="m 441.8,108.6 75.3,-40 -74.3,41.7 c -0.5,0.3 -1.1,0.1 -1.4,-0.4 -0.3,-0.4 -0.2,-1.1 0.4,-1.3 -0.1,0 0,0 0,0 z"
   id="path118" />

		</g>

		<g
   id="g124">
			<path
   class="st8"
   d="m 415.6,185.7 26.6,-76.3 -24.7,76.9 c -0.2,0.5 -0.7,0.8 -1.3,0.6 -0.5,-0.1 -0.8,-0.7 -0.6,-1.2 0,0 0,0 0,0 z"
   id="path122" />

		</g>

		<g
   id="g128">
			<path
   class="st8"
   d="m 416.6,183.7 81.9,-29.3 -81.2,31.1 c -0.5,0.2 -1.1,-0.1 -1.3,-0.6 -0.2,-0.5 0.1,-1 0.6,-1.2 0,0 0,0 0,0 z"
   id="path126" />

		</g>

		<g
   id="g132">
			<path
   class="st8"
   d="m 517.3,67.2 28.3,41.1 -29.9,-39.9 c -0.3,-0.4 -0.2,-1.1 0.2,-1.4 0.4,-0.3 1,-0.2 1.4,0.2 -0.1,0 -0.1,0 0,0 z"
   id="path130" />

		</g>

		<g
   id="g136">
			<path
   class="st8"
   d="m 417.8,184 50.1,60.1 -51.7,-58.8 c -0.4,-0.4 -0.3,-1.1 0.1,-1.4 0.4,-0.3 1.1,-0.3 1.5,0.1 -0.1,0 -0.1,0 0,0 z"
   id="path134" />

		</g>

		<g
   id="g140">
			<path
   class="st8"
   d="m 463.7,240.5 67.2,-24.6 -66.4,26.4 c -0.5,0.2 -1.1,0 -1.3,-0.6 -0.3,-0.4 0,-1 0.5,-1.2 0,0 0,0 0,0 z"
   id="path138" />

		</g>

		<g
   id="g144">
			<path
   class="st8"
   d="m 465.6,239.4 63.5,20.8 -64.1,-18.9 c -0.5,-0.2 -0.8,-0.7 -0.7,-1.2 0.1,-0.5 0.7,-0.8 1.3,-0.7 -0.1,0 0,0 0,0 z"
   id="path142" />

		</g>

		<g
   id="g148">
			<path
   class="st8"
   d="m 466.3,240.6 6.8,72.5 -8.8,-72.3 c -0.1,-0.5 0.3,-1 0.9,-1.1 0.5,-0.1 1,0.3 1.1,0.9 0,0 0,0 0,0 z"
   id="path146" />

		</g>

		<circle
   class="st10"
   cx="416.60001"
   cy="184.7"
   r="17.1"
   id="circle150" />

		<circle
   class="st10"
   cx="442.29999"
   cy="108.3"
   r="13.9"
   id="circle152" />

		
			<circle
   transform="matrix(0.3827,-0.9239,0.9239,0.3827,165.0665,555.9395)"
   class="st10"
   cx="498.5"
   cy="154.39999"
   id="ellipse154"
   r="13.9" />

		<circle
   class="st10"
   cx="464.10001"
   cy="241.39999"
   r="13.9"
   id="circle156" />

		<circle
   class="st10"
   cx="516.40002"
   cy="69.099998"
   r="9"
   id="circle158" />

		<circle
   class="st10"
   cx="530.90002"
   cy="215.89999"
   r="9"
   id="circle160" />

		<circle
   class="st10"
   cx="527.59998"
   cy="260.20001"
   r="9"
   id="circle162" />

		<circle
   class="st10"
   cx="473"
   cy="313.10001"
   r="9"
   id="circle164" />

		<circle
   class="st10"
   cx="545.5"
   cy="107.1"
   r="9"
   id="circle166" />

	</g>

	<g
   class="st7"
   id="g220">
		<g
   id="g172">
			<path
   class="st8"
   d="m -61.7,516 70,-37.1 -69,38.8 c -0.5,0.3 -1.1,0.1 -1.4,-0.4 -0.3,-0.5 -0.1,-1 0.4,-1.3 0,0 0,0 0,0 z"
   id="path170" />

		</g>

		<g
   id="g176">
			<path
   class="st8"
   d="m -86,587.7 24.8,-70.8 -22.9,71.5 c -0.2,0.5 -0.7,0.8 -1.3,0.7 -0.5,-0.3 -0.8,-0.9 -0.6,-1.4 0,0 0,0 0,0 z"
   id="path174" />

		</g>

		<g
   id="g180">
			<path
   class="st8"
   d="m -85,585.8 76.1,-27.1 -75.4,29 c -0.5,0.2 -1.1,-0.1 -1.3,-0.6 -0.2,-0.5 0.1,-1.1 0.6,-1.3 0,0 0,0 0,0 z"
   id="path178" />

		</g>

		<g
   id="g184">
			<path
   class="st8"
   d="M 8.6,477.6 34.8,515.8 6.9,478.7 c -0.3,-0.4 -0.2,-1.1 0.2,-1.4 0.4,-0.3 1.1,-0.2 1.5,0.3 -0.1,0 0,0 0,0 z"
   id="path182" />

		</g>

		<g
   id="g188">
			<path
   class="st8"
   d="m -83.9,586.1 46.6,55.9 -48.1,-54.6 c -0.4,-0.4 -0.3,-1.1 0.1,-1.4 0.4,-0.4 1,-0.3 1.4,0.1 0,0 0,0 0,0 z"
   id="path186" />

		</g>

		<g
   id="g192">
			<path
   class="st8"
   d="m -41.2,638.5 62.4,-22.8 -61.7,24.6 c -0.5,0.2 -1.1,-0.1 -1.3,-0.6 -0.2,-0.4 0,-0.9 0.6,-1.2 -0.1,0 -0.1,0 0,0 z"
   id="path190" />

		</g>

		<g
   id="g196">
			<path
   class="st8"
   d="m -39.5,637.6 59,19.3 -59.6,-17.4 c -0.5,-0.2 -0.8,-0.7 -0.7,-1.2 0.2,-0.6 0.7,-0.9 1.3,-0.7 0,0 0,0 0,0 z"
   id="path194" />

		</g>

		<g
   id="g200">
			<path
   class="st8"
   d="m -38.8,638.7 6.2,67.4 -8.2,-67.2 c -0.1,-0.5 0.3,-1 0.9,-1.1 0.5,0 1,0.3 1.1,0.9 0,0 0,0 0,0 z"
   id="path198" />

		</g>

		
			<circle
   transform="matrix(0.03327792,-0.9994,0.9994,0.03327792,-668.6502,482.2156)"
   class="st10"
   cx="-85.099998"
   cy="586.79999"
   id="ellipse202"
   r="15.9" />

		<circle
   class="st10"
   cx="-61.099998"
   cy="515.79999"
   r="12.9"
   id="circle204" />

		<circle
   class="st10"
   cx="-8.8999996"
   cy="558.70001"
   r="12.9"
   id="circle206" />

		<circle
   class="st10"
   cx="-40.900002"
   cy="639.5"
   r="12.9"
   id="circle208" />

		<circle
   class="st10"
   cx="7.8000002"
   cy="479.39999"
   r="8.3000002"
   id="circle210" />

		<circle
   class="st10"
   cx="21.200001"
   cy="615.79999"
   r="8.3000002"
   id="circle212" />

		<circle
   class="st10"
   cx="18.1"
   cy="656.90002"
   r="8.3000002"
   id="circle214" />

		<circle
   class="st10"
   cx="-32.599998"
   cy="706.09998"
   r="8.3000002"
   id="circle216" />

		<circle
   class="st10"
   cx="34.799999"
   cy="514.59998"
   r="8.3000002"
   id="circle218" />

	</g>

	<g
   class="st7"
   id="g272">
		<g
   id="g224">
			<path
   class="st8"
   d="m -448,520.9 75.3,-40 -74.3,41.7 c -0.5,0.3 -1.1,0.1 -1.4,-0.4 -0.3,-0.5 -0.2,-1.1 0.4,-1.3 -0.1,0 -0.1,0 0,0 z"
   id="path222" />

		</g>

		<g
   id="g228">
			<path
   class="st8"
   d="m -474.2,598 26.6,-76.3 -24.7,76.9 c -0.2,0.5 -0.7,0.8 -1.3,0.7 -0.5,-0.2 -0.8,-0.7 -0.6,-1.3 0,0 0,0 0,0 z"
   id="path226" />

		</g>

		<g
   id="g232">
			<path
   class="st8"
   d="m -473.2,596 81.9,-29.3 -81.2,31.2 c -0.5,0.2 -1.1,-0.1 -1.3,-0.6 -0.2,-0.5 0.1,-1.1 0.6,-1.3 0,0 0,0 0,0 z"
   id="path230" />

		</g>

		<g
   id="g236">
			<path
   class="st8"
   d="m -372.6,479.5 28.3,41.1 -29.9,-39.9 c -0.3,-0.4 -0.2,-1.1 0.2,-1.4 0.4,-0.3 1.1,-0.3 1.4,0.2 0,0 0,0 0,0 z"
   id="path234" />

		</g>

		<g
   id="g240">
			<path
   class="st8"
   d="m -472.1,596.3 50.1,60.1 -51.7,-58.8 c -0.4,-0.4 -0.3,-1 0.1,-1.4 0.4,-0.4 1.2,-0.3 1.5,0.1 0,0 0,0 0,0 z"
   id="path238" />

		</g>

		<g
   id="g244">
			<path
   class="st8"
   d="m -426.1,652.8 67.1,-24.6 -66.4,26.4 c -0.5,0.2 -1.1,-0.1 -1.3,-0.6 -0.2,-0.5 0.1,-1 0.6,-1.2 0,0 0,0 0,0 z"
   id="path242" />

		</g>

		<g
   id="g248">
			<path
   class="st8"
   d="m -424.2,651.7 63.5,20.8 -64.1,-18.8 c -0.5,-0.2 -0.8,-0.7 -0.7,-1.2 0.1,-0.6 0.7,-0.9 1.3,-0.8 -0.1,0 -0.1,0 0,0 z"
   id="path246" />

		</g>

		<g
   id="g252">
			<path
   class="st8"
   d="m -423.5,652.9 6.8,72.5 -8.8,-72.3 c -0.1,-0.6 0.3,-1.1 0.9,-1.1 0.5,-0.1 1,0.3 1.1,0.9 0,0 0,0 0,0 z"
   id="path250" />

		</g>

		<circle
   class="st10"
   cx="-473.20001"
   cy="597"
   r="17.1"
   id="circle254" />

		<circle
   class="st10"
   cx="-447.5"
   cy="520.59998"
   r="13.9"
   id="circle256" />

		<circle
   class="st10"
   cx="-391.29999"
   cy="566.79999"
   r="13.9"
   id="circle258" />

		<circle
   class="st10"
   cx="-425.70001"
   cy="653.70001"
   r="13.9"
   id="circle260" />

		<circle
   class="st10"
   cx="-373.39999"
   cy="481.39999"
   r="9"
   id="circle262" />

		<circle
   class="st10"
   cx="-358.89999"
   cy="628.20001"
   r="9"
   id="circle264" />

		<circle
   class="st10"
   cx="-362.20001"
   cy="672.5"
   r="9"
   id="circle266" />

		<circle
   class="st10"
   cx="-416.79999"
   cy="725.40002"
   r="9"
   id="circle268" />

		<circle
   class="st10"
   cx="-344.29999"
   cy="519.29999"
   r="9"
   id="circle270" />

	</g>

	<g
   class="st7"
   id="g324">
		<g
   id="g276">
			<path
   class="st8"
   d="m -448,-605.3 75.3,-40 -74.3,41.7 c -0.5,0.3 -1.1,0.1 -1.4,-0.4 -0.3,-0.5 -0.2,-1.1 0.4,-1.3 -0.1,0 -0.1,0 0,0 z"
   id="path274" />

		</g>

		<g
   id="g280">
			<path
   class="st8"
   d="m -474.2,-528.2 26.6,-76.3 -24.7,76.9 c -0.2,0.5 -0.7,0.8 -1.3,0.6 -0.6,-0.2 -0.8,-0.7 -0.6,-1.2 0,0 0,0 0,0 z"
   id="path278" />

		</g>

		<g
   id="g284">
			<path
   class="st8"
   d="m -473.2,-530.2 81.9,-29.3 -81.2,31.1 c -0.5,0.2 -1.1,-0.1 -1.3,-0.6 -0.2,-0.4 0.1,-1 0.6,-1.2 0,0 0,0 0,0 z"
   id="path282" />

		</g>

		<g
   id="g288">
			<path
   class="st8"
   d="m -372.6,-646.7 28.3,41.1 -29.9,-39.9 c -0.3,-0.4 -0.2,-1.1 0.2,-1.4 0.5,-0.4 1.1,-0.3 1.4,0.2 0,0 0,0 0,0 z"
   id="path286" />

		</g>

		<g
   id="g292">
			<path
   class="st8"
   d="m -472.1,-529.9 50.1,60.1 -51.7,-58.8 c -0.4,-0.4 -0.3,-1 0.1,-1.4 0.5,-0.4 1.2,-0.3 1.5,0.1 0,0 0,0 0,0 z"
   id="path290" />

		</g>

		<g
   id="g296">
			<path
   class="st8"
   d="m -426.1,-473.5 67.1,-24.6 -66.4,26.4 c -0.5,0.2 -1.1,0 -1.3,-0.6 -0.2,-0.4 0.1,-0.9 0.6,-1.2 0,0 0,0 0,0 z"
   id="path294" />

		</g>

		<g
   id="g300">
			<path
   class="st8"
   d="m -424.2,-474.5 63.5,20.8 -64.1,-18.8 c -0.5,-0.2 -0.8,-0.7 -0.7,-1.2 0.1,-0.6 0.7,-0.9 1.3,-0.8 -0.1,0 -0.1,0 0,0 z"
   id="path298" />

		</g>

		<g
   id="g304">
			<path
   class="st8"
   d="m -423.5,-473.3 6.8,72.5 -8.8,-72.3 c -0.1,-0.5 0.3,-1 0.9,-1.1 0.5,-0.1 1,0.3 1.1,0.9 0,0 0,0 0,0 z"
   id="path302" />

		</g>

		<circle
   class="st10"
   cx="-473.20001"
   cy="-529.29999"
   r="17.1"
   id="circle306" />

		<circle
   class="st10"
   cx="-447.5"
   cy="-605.59998"
   r="13.9"
   id="circle308" />

		<circle
   class="st10"
   cx="-391.29999"
   cy="-559.5"
   r="13.9"
   id="circle310" />

		<circle
   class="st10"
   cx="-425.70001"
   cy="-472.5"
   r="13.9"
   id="circle312" />

		<circle
   class="st10"
   cx="-373.39999"
   cy="-644.79999"
   r="9"
   id="circle314" />

		<circle
   class="st10"
   cx="-358.89999"
   cy="-498"
   r="9"
   id="circle316" />

		<circle
   class="st10"
   cx="-362.20001"
   cy="-453.70001"
   r="9"
   id="circle318" />

		<circle
   class="st10"
   cx="-416.79999"
   cy="-400.79999"
   r="9"
   id="circle320" />

		<circle
   class="st10"
   cx="-344.29999"
   cy="-606.90002"
   r="9"
   id="circle322" />

	</g>

	<g
   class="st7"
   id="g328">
		<path
   class="st11"
   d="m -451.3,-1199.5 75.3,-25.5 -74.6,27.4 c -0.5,0.2 -1.1,-0.1 -1.3,-0.6 -0.2,-0.5 0,-1.1 0.6,-1.3 -0.1,0 0,0 0,0 z"
   id="path326" />

	</g>

	<g
   class="st7"
   id="g332">
		<path
   class="st8"
   d="m -484.5,-1118.5 33.5,-88 -31.7,88.7 c -0.2,0.5 -0.8,0.8 -1.3,0.6 -0.5,-0.2 -0.7,-0.8 -0.5,-1.3 0,0 0,0 0,0 z"
   id="path330" />

	</g>

	<g
   class="st7"
   id="g336">
		<path
   class="st11"
   d="m -483.5,-1120.8 93.7,6.3 -93.8,-4.3 c -0.5,0 -1,-0.5 -1,-1.1 0,-0.6 0.5,-0.9 1.1,-0.9 -0.1,0 0,0 0,0 z"
   id="path334" />

	</g>

	<g
   class="st7"
   id="g340">
		<path
   class="st11"
   d="m -452.3,-1196.2 93.4,30.7 -94,-28.8 c -0.5,-0.2 -0.8,-0.7 -0.7,-1.2 0.1,-0.5 0.8,-0.9 1.3,-0.7 0,0 0,0 0,0 z"
   id="path338" />

	</g>

	<g
   class="st7"
   id="g344">
		<path
   class="st11"
   d="m -482.8,-1120.3 49.9,81.8 -51.6,-80.7 c -0.3,-0.5 -0.2,-1.1 0.3,-1.4 0.5,-0.3 1.1,-0.2 1.4,0.3 0,0 0,0 0,0 z"
   id="path342" />

	</g>

	<g
   class="st7"
   id="g348">
		<path
   class="st11"
   d="m -426.1,-1038.8 67.1,-24.6 -66.4,26.4 c -0.5,0.2 -1.1,-0.1 -1.3,-0.6 -0.2,-0.4 0.1,-0.9 0.6,-1.2 0,0 0,0 0,0 z"
   id="path346" />

	</g>

	<g
   class="st7"
   id="g352">
		<path
   class="st11"
   d="m -424.2,-1039.8 63.5,20.8 -64.1,-18.8 c -0.5,-0.2 -0.8,-0.7 -0.7,-1.2 0.1,-0.6 0.7,-0.9 1.3,-0.8 -0.1,0 -0.1,0 0,0 z"
   id="path350" />

	</g>

	<g
   class="st7"
   id="g356">
		<path
   class="st11"
   d="m -431.9,-1038.6 6.8,72.5 -8.8,-72.3 c -0.1,-0.6 0.3,-1.1 0.9,-1.1 0.6,-0.1 1.1,0.3 1.1,0.9 0,0 0,0 0,0 z"
   id="path354" />

	</g>

	<circle
   class="st12"
   cx="-483.60001"
   cy="-1119.8"
   r="17.1"
   id="circle358" />

	<circle
   class="st12"
   cx="-452.60001"
   cy="-1197.4"
   r="13.9"
   id="circle360" />

	<circle
   class="st12"
   cx="-391.29999"
   cy="-1114.4"
   r="13.9"
   id="circle362" />

	<circle
   class="st12"
   cx="-434"
   cy="-1037.8"
   r="13.9"
   id="circle364" />

	<circle
   class="st12"
   cx="-376"
   cy="-1222"
   r="8.8999996"
   id="circle366" />

	<circle
   class="st12"
   cx="-358.89999"
   cy="-1063.3"
   r="9"
   id="circle368" />

	<circle
   class="st12"
   cx="-362.20001"
   cy="-1019"
   r="9"
   id="circle370" />

	<circle
   class="st12"
   cx="-425.10001"
   cy="-966.09998"
   r="9"
   id="circle372" />

	<circle
   class="st12"
   cx="-358.89999"
   cy="-1165.5"
   r="8.8999996"
   id="circle374" />

	<g
   class="st7"
   id="g378">
		<path
   class="st11"
   d="M 819.6,73.5 903,51 820.1,75.4 c -0.5,0.2 -1.1,-0.1 -1.2,-0.7 -0.1,-0.6 0.2,-1.1 0.7,-1.2 0,0 0,0 0,0 z"
   id="path376" />

	</g>

	<g
   class="st7"
   id="g382">
		<path
   class="st8"
   d="m 786.4,154.5 33.5,-88 -31.7,88.7 c -0.2,0.5 -0.8,0.8 -1.3,0.6 -0.5,-0.2 -0.7,-0.8 -0.5,-1.3 -0.1,0 0,0 0,0 z"
   id="path380" />

	</g>

	<g
   class="st7"
   id="g386">
		<path
   class="st11"
   d="m 818.5,76.7 93.5,18 -93.9,-15.9 c -0.5,-0.1 -0.9,-0.6 -0.8,-1.1 0.1,-0.7 0.6,-1 1.2,-1 -0.1,0 0,0 0,0 z"
   id="path384" />

	</g>

	<g
   class="st7"
   id="g390">
		<path
   class="st11"
   d="m 788.1,152.7 49.9,81.8 -51.6,-80.7 c -0.3,-0.5 -0.2,-1.1 0.3,-1.4 0.5,-0.3 1.1,-0.2 1.4,0.3 0,0 0,0 0,0 z"
   id="path388" />

	</g>

	<g
   class="st7"
   id="g394">
		<path
   class="st11"
   d="M 844.8,228.2 912,203.6 845.6,230 c -0.5,0.2 -1.1,0 -1.3,-0.6 -0.3,-0.4 0,-1 0.5,-1.2 0,0 0,0 0,0 z"
   id="path392" />

	</g>

	<g
   class="st7"
   id="g398">
		<path
   class="st11"
   d="M 846.6,227.2 910.1,248 846,229.1 c -0.5,-0.2 -0.8,-0.7 -0.7,-1.2 0.1,-0.5 0.8,-0.9 1.3,-0.7 0,0 0,0 0,0 z"
   id="path396" />

	</g>

	<g
   class="st7"
   id="g402">
		<path
   class="st11"
   d="m 839,234.5 0.8,64.2 -2.8,-64.1 c 0,-0.5 0.4,-1 1,-1 0.5,-0.2 1,0.3 1,0.9 0,-0.1 0,0 0,0 z"
   id="path400" />

	</g>

	<circle
   class="st12"
   cx="787.29999"
   cy="153.2"
   r="17.1"
   id="circle404" />

	<circle
   class="st12"
   cx="-202.7"
   cy="1150.3"
   r="17.1"
   id="circle406" />

	<circle
   class="st12"
   cx="818.29999"
   cy="75.599998"
   r="13.9"
   id="circle408" />

	<circle
   class="st12"
   cx="836.90002"
   cy="229.10001"
   r="13.9"
   id="circle410" />

	<circle
   class="st12"
   cx="903.79999"
   cy="51"
   r="9"
   id="circle412" />

	<circle
   class="st12"
   cx="912"
   cy="203.60001"
   r="9"
   id="circle414" />

	<circle
   class="st12"
   cx="908.70001"
   cy="247.89999"
   r="9"
   id="circle416" />

	<circle
   class="st12"
   cx="839.79999"
   cy="293"
   r="9"
   id="circle418" />

	<circle
   class="st12"
   cx="910.40002"
   cy="94.699997"
   r="9"
   id="circle420" />

	<g
   class="st7"
   id="g424">
		<path
   class="st11"
   d="M 817.5,77.3 888,145.9 816.2,78.8 c -0.4,-0.4 -0.4,-1 0,-1.4 0.2,-0.5 0.9,-0.5 1.3,-0.1 0,0 0,0 0,0 z"
   id="path422" />

	</g>

	<circle
   class="st12"
   cx="887.90002"
   cy="145.89999"
   r="9"
   id="circle426" />

	<g
   class="st7"
   id="g430">
		<path
   class="st11"
   d="m -178.7,1070.6 83.4,-22.5 -82.9,24.4 c -0.5,0.2 -1.1,-0.2 -1.2,-0.7 -0.1,-0.5 0.2,-1 0.7,-1.2 0,0 0,0 0,0 z"
   id="path428" />

	</g>

	<g
   class="st7"
   id="g434">
		<path
   class="st11"
   d="m -179.8,1073.9 93.5,17.9 -93.9,-15.9 c -0.5,-0.1 -0.9,-0.6 -0.8,-1.2 0.1,-0.6 0.6,-0.9 1.2,-0.8 0,0 0,0 0,0 z"
   id="path432" />

	</g>

	<g
   class="st7"
   id="g438">
		<path
   class="st11"
   d="m -201.8,1149.9 41.6,81.7 -43.3,-80.8 c -0.3,-0.5 -0.1,-1.1 0.4,-1.3 0.5,-0.2 1,-0.1 1.3,0.4 0,0 0,0 0,0 z"
   id="path436" />

	</g>

	<g
   class="st7"
   id="g442">
		<path
   class="st11"
   d="m -153.4,1225.3 67.1,-24.6 -66.4,26.4 c -0.5,0.2 -1.1,-0.1 -1.3,-0.6 -0.2,-0.4 0,-0.9 0.6,-1.2 -0.1,0 -0.1,0 0,0 z"
   id="path440" />

	</g>

	<g
   class="st7"
   id="g446">
		<path
   class="st11"
   d="m -151.6,1224.3 63.5,20.8 -64.1,-18.8 c -0.5,-0.2 -0.8,-0.7 -0.7,-1.2 0.2,-0.6 0.7,-0.9 1.3,-0.8 0,0 0,0 0,0 z"
   id="path444" />

	</g>

	<g
   class="st7"
   id="g450">
		<path
   class="st11"
   d="m -159.2,1231.6 0.8,64.2 -2.8,-64.1 c 0,-0.6 0.4,-1 1,-1 0.5,-0.1 0.9,0.3 1,0.9 0,0 0,0 0,0 z"
   id="path448" />

	</g>

	<circle
   class="st12"
   cx="-180"
   cy="1072.7"
   r="13.9"
   id="circle452" />

	<circle
   class="st12"
   cx="-161.39999"
   cy="1226.3"
   r="13.9"
   id="circle454" />

	
		<circle
   transform="matrix(0.00980248,-1,1,0.00980248,-1141.6191,943.3746)"
   class="st12"
   cx="-94.5"
   cy="1048.1"
   id="ellipse456"
   r="8.8999996" />

	
		<circle
   transform="matrix(0.00980248,-1,1,0.00980248,-1176.4249,995.5662)"
   class="st12"
   cx="-85.5"
   cy="1091.8"
   id="ellipse458"
   r="8.8999996" />

	<circle
   class="st12"
   cx="-86.300003"
   cy="1200.8"
   r="8.8999996"
   id="circle460" />

	
		<circle
   transform="matrix(0.00980248,-1,1,0.00980248,-1333.6979,1143.2839)"
   class="st12"
   cx="-89.599998"
   cy="1245.1"
   id="ellipse462"
   r="8.8999996" />

	<circle
   class="st12"
   cx="-158.39999"
   cy="1290.1"
   r="8.8999996"
   id="circle464" />

	<circle
   class="st12"
   cx="-946.5"
   cy="899.79999"
   r="9"
   id="circle466" />

	<g
   class="st7"
   id="g470">
		<path
   class="st11"
   d="m -180.8,1074.4 70.5,68.6 -71.8,-67.1 c -0.4,-0.4 -0.4,-1 -0.1,-1.4 0.4,-0.4 1,-0.5 1.4,-0.1 0,0 0,0 0,0 z"
   id="path468" />

	</g>

	<g
   class="st7"
   id="g474">
		<path
   class="st11"
   d="m -179,1073 -23.6,78.9 21.7,-79.5 c 0.1,-0.5 0.7,-0.8 1.2,-0.7 0.5,0.1 0.8,0.8 0.7,1.3 0,0 0,0 0,0 z"
   id="path472" />

	</g>

	<circle
   class="st12"
   cx="-110.3"
   cy="1143"
   r="8.8999996"
   id="circle476" />

	<g
   class="st7"
   id="g528">
		<circle
   class="st13"
   cx="-806.40002"
   cy="-428.5"
   r="17.1"
   id="circle478" />

		<g
   id="g482">
			<path
   class="st11"
   d="m -782.2,-507.5 83.2,-23.2 -83.1,23.7 c -0.1,0 -0.3,0 -0.3,-0.2 0,-0.2 0.1,-0.3 0.2,-0.3 z"
   id="path480" />

		</g>

		<g
   id="g486">
			<path
   class="st11"
   d="m -783.7,-504.3 93.7,17.2 -93.7,-16.7 c -0.1,0 -0.2,-0.1 -0.2,-0.3 0,-0.1 0.1,-0.2 0.2,-0.2 z"
   id="path484" />

		</g>

		<g
   id="g490">
			<path
   class="st11"
   d="m -806.2,-428.7 42.2,81.4 -42.7,-81.1 c -0.1,-0.1 0,-0.3 0.1,-0.3 0.1,0 0.4,-0.1 0.4,0 z"
   id="path488" />

		</g>

		<g
   id="g494">
			<path
   class="st11"
   d="m -756.9,-352.9 66.9,-25.3 -66.7,25.7 c -0.1,0 -0.3,0 -0.3,-0.1 -0.1,-0.1 0,-0.2 0.1,-0.3 z"
   id="path492" />

		</g>

		<g
   id="g498">
			<path
   class="st11"
   d="m -755.6,-353.9 63.8,20 -63.9,-19.6 c -0.1,0 -0.2,-0.2 -0.2,-0.3 0.1,0 0.2,-0.1 0.3,-0.1 z"
   id="path496" />

		</g>

		<g
   id="g502">
			<path
   class="st11"
   d="m -763.7,-347.3 1.6,64.2 -2.1,-64.1 c 0,-0.1 0.1,-0.2 0.2,-0.3 0.2,0 0.3,0.1 0.3,0.2 z"
   id="path500" />

		</g>

		<circle
   class="st13"
   cx="-783.70001"
   cy="-506.20001"
   r="13.9"
   id="circle504" />

		<circle
   class="st13"
   cx="-765.09998"
   cy="-352.60001"
   r="13.9"
   id="circle506" />

		<circle
   class="st13"
   cx="-698.20001"
   cy="-530.79999"
   r="9"
   id="circle508" />

		<circle
   class="st13"
   cx="-689.20001"
   cy="-487.10001"
   r="9"
   id="circle510" />

		<circle
   class="st13"
   cx="-690"
   cy="-378.10001"
   r="9"
   id="circle512" />

		<circle
   class="st13"
   cx="-693.29999"
   cy="-333.79999"
   r="9"
   id="circle514" />

		<circle
   class="st13"
   cx="-762.09998"
   cy="-288.79999"
   r="9"
   id="circle516" />

		<g
   id="g520">
			<path
   class="st11"
   d="m -785,-503.9 71,68 -71.3,-67.6 c -0.1,-0.1 -0.1,-0.2 0,-0.4 0.1,-0.2 0.2,-0.1 0.3,0 z"
   id="path518" />

		</g>

		<g
   id="g524">
			<path
   class="st11"
   d="m -783.5,-506.1 -22.9,79.1 22.5,-79.3 c 0,-0.1 0.2,-0.2 0.3,-0.2 0.1,0.1 0.2,0.3 0.1,0.4 z"
   id="path522" />

		</g>

		<circle
   class="st13"
   cx="-714.09998"
   cy="-435.89999"
   r="9"
   id="circle526" />

	</g>

	<circle
   class="st9"
   cx="-2324.2"
   cy="987.40002"
   r="7.5"
   id="circle530" />

	<circle
   class="st9"
   cx="-2367.6001"
   cy="1013.1"
   r="7.5"
   id="circle532" />

	<g
   class="st7"
   id="g536">
		<path
   class="st8"
   d="m -2391.1,951.1 23.5,62 -24.4,-61.7 c -0.1,-0.3 0,-0.5 0.3,-0.7 0.2,0 0.5,0.1 0.6,0.4 0,0 0,0 0,0 z"
   id="path534" />

	</g>

	<g
   class="st7"
   id="g540">
		<path
   class="st8"
   d="m -2391.9,952.6 -12.1,-86.8 13.1,86.7 c 0,0.3 -0.1,0.5 -0.4,0.6 -0.3,0 -0.5,-0.2 -0.6,-0.5 0,0 0,0 0,0 z"
   id="path538" />

	</g>

	<g
   class="st7"
   id="g544">
		<path
   class="st8"
   d="m -2391.3,950.8 67.1,35.6 -67.6,-34.7 c -0.2,-0.1 -0.3,-0.4 -0.2,-0.7 0.1,-0.3 0.4,-0.3 0.7,-0.2 0,0 0,0 0,0 z"
   id="path542" />

	</g>

	<g
   class="st7"
   id="g548">
		<path
   class="st8"
   d="m -2391.6,950.8 71.5,-5 -71.4,6 c -0.3,0 -0.5,-0.2 -0.5,-0.5 -0.1,-0.2 0.1,-0.5 0.4,-0.5 0,0 0,0 0,0 z"
   id="path546" />

	</g>

	<g
   class="st7"
   id="g552">
		<path
   class="st8"
   d="m -2401.5,865.8 72.4,31.2 -73.2,-29.4 c -0.5,-0.2 -0.8,-0.8 -0.6,-1.3 0.3,-0.4 0.8,-0.7 1.4,-0.5 0,0 0,0 0,0 z"
   id="path550" />

	</g>

	
		<image
   style="display:inline;overflow:visible;enable-background:new"
   width="643"
   height="497"
   xlink:href="../../../../../Users/onewe/Downloads/8AD70FCFB4817798.jpeg"
   transform="matrix(0.75,0,0,0.75,-1760.0731,617.8727)"
   id="image554">
	</image>

	<path
   class="st14"
   d="M -2171.8,1137.2"
   id="path556" />

	<path
   class="st15"
   d="M -2296.4,1024.8"
   id="path558" />

	<path
   class="st15"
   d="M -2294.9,1025.4"
   id="path560" />

	<g
   class="st7"
   id="g612">
		<g
   id="g564">
			<path
   class="st8"
   d="m -1867.2,-1172.3 81.8,-43.5 -80.8,45.3 c -0.5,0.3 -1.1,0.1 -1.4,-0.4 -0.3,-0.5 -0.1,-1.1 0.4,-1.4 0,0 0,0 0,0 z"
   id="path562" />

		</g>

		<g
   id="g568">
			<path
   class="st8"
   d="m -1895.6,-1088.5 28.8,-82.9 -26.9,83.6 c -0.2,0.5 -0.7,0.8 -1.3,0.6 -0.6,-0.2 -0.7,-0.8 -0.6,-1.3 0,0 0,0 0,0 z"
   id="path566" />

		</g>

		<g
   id="g572">
			<path
   class="st8"
   d="m -1894.5,-1090.6 89,-31.9 -88.3,33.8 c -0.5,0.2 -1.1,-0.1 -1.3,-0.6 -0.2,-0.5 0,-1.1 0.6,-1.3 0,0 0,0 0,0 z"
   id="path570" />

		</g>

		<g
   id="g576">
			<path
   class="st8"
   d="m -1785.3,-1217.3 30.8,44.6 -32.4,-43.5 c -0.3,-0.4 -0.2,-1.1 0.2,-1.4 0.5,-0.2 1.1,-0.1 1.4,0.3 0,0 0,0 0,0 z"
   id="path574" />

		</g>

		<g
   id="g580">
			<path
   class="st8"
   d="m -1893.4,-1090.3 54.6,65.2 -56.1,-63.9 c -0.4,-0.4 -0.3,-1.1 0.1,-1.4 0.4,-0.3 1,-0.3 1.4,0.1 0,0 0,0 0,0 z"
   id="path578" />

		</g>

		<g
   id="g584">
			<path
   class="st8"
   d="m -1843.3,-1028.9 73,-26.8 -72.2,28.7 c -0.5,0.2 -1.1,-0.1 -1.3,-0.6 -0.3,-0.5 -0.1,-1.1 0.5,-1.3 0,0 0,0 0,0 z"
   id="path582" />

		</g>

		<g
   id="g588">
			<path
   class="st8"
   d="m -1841.4,-1030 69.1,22.5 -69.7,-20.6 c -0.5,-0.2 -0.8,-0.7 -0.7,-1.2 0.2,-0.6 0.7,-0.9 1.3,-0.7 0,0 0,0 0,0 z"
   id="path586" />

		</g>

		<g
   id="g592">
			<path
   class="st8"
   d="m -1840.7,-1028.8 7.5,78.8 -9.5,-78.6 c -0.1,-0.5 0.3,-1 0.9,-1.1 0.5,-0.1 1,0.3 1.1,0.9 0,-0.1 0,-0.1 0,0 z"
   id="path590" />

		</g>

		<circle
   class="st10"
   cx="-1894.6"
   cy="-1089.7"
   r="18.6"
   id="circle594" />

		<circle
   class="st10"
   cx="-1866.7"
   cy="-1172.6"
   r="15.1"
   id="circle596" />

		<circle
   class="st10"
   cx="-1805.5"
   cy="-1122.5"
   r="15.1"
   id="circle598" />

		<circle
   class="st10"
   cx="-1843"
   cy="-1028"
   r="15.1"
   id="circle600" />

		<circle
   class="st10"
   cx="-1786.1"
   cy="-1215.3"
   r="9.6999998"
   id="circle602" />

		<circle
   class="st10"
   cx="-1770.4"
   cy="-1055.7"
   r="9.6999998"
   id="circle604" />

		<circle
   class="st10"
   cx="-1773.9"
   cy="-1007.6"
   r="9.6999998"
   id="circle606" />

		<circle
   class="st10"
   cx="-1833.2"
   cy="-950.09998"
   r="9.6999998"
   id="circle608" />

		<circle
   class="st10"
   cx="-1754.5"
   cy="-1174"
   r="9.6999998"
   id="circle610" />

	</g>

	<g
   class="st7"
   id="g616">
		<path
   class="st3"
   d="m -1828.3,-929.3 c 9.2,-0.1 18.4,-0.6 27.4,-2.2 4.5,-0.9 8.9,-2 13.1,-3.9 1.1,-0.4 2,-1 3.1,-1.5 0.5,-0.3 1,-0.6 1.4,-0.9 0.5,-0.3 1,-0.6 1.4,-1 1.8,-1.3 3.4,-3 4.6,-4.9 1.2,-1.9 1.9,-4 2.1,-6.2 0.2,-2.2 0.2,-4.6 0.5,-6.9 0.3,-2.3 0.8,-4.6 1.5,-6.8 0.7,-2.2 1.4,-4.4 2.2,-6.6 0.8,-2.2 1.8,-4.3 2.9,-6.3 1.1,-2 2.3,-4 3.7,-5.9 2.8,-3.8 6.3,-7 10.6,-9.2 2.1,-1.1 4.5,-1.8 6.9,-2 2.3,-0.2 4.6,-0.3 6.9,-0.4 4.6,-0.3 9.1,-0.9 13.6,-1.6 2.3,-0.4 4.5,-0.7 6.8,-1.1 2.2,-0.4 4.5,-0.9 6.5,-1.7 2,-0.8 3.8,-2.1 5.2,-3.7 1.4,-1.6 2.2,-3.7 3,-5.8 0.7,-2.1 1.4,-4.3 2,-6.6 l 2,-6.6 c 0.7,-2.2 1.2,-4.4 1.7,-6.6 0.5,-2.2 0.8,-4.5 1.2,-6.8 0.4,-2.3 1,-4.6 1.8,-6.8 0.8,-2.2 1.6,-4.3 2.5,-6.5 1.8,-4.3 3.5,-8.6 6.3,-12.5 1.4,-1.9 3.1,-3.7 5.1,-5.1 0.5,-0.3 1,-0.7 1.6,-0.9 0.5,-0.3 1.1,-0.6 1.6,-0.8 1.1,-0.5 2.1,-0.9 2.9,-1.5 1.7,-1.1 2.5,-3.1 2.4,-5.2 -0.1,-2.1 -0.8,-4.2 -1.8,-6.2 -0.5,-1 -1,-2 -1.5,-2.9 -0.6,-0.9 -1.2,-1.8 -2,-2.7 -1.5,-1.7 -3,-3.5 -4.4,-5.3 -2.9,-3.6 -5.8,-7.2 -8.3,-11.2 -1.2,-2 -2.3,-4.1 -3,-6.5 -0.6,-2.3 -0.9,-4.7 -0.9,-7 -0.1,-4.5 -0.7,-9.1 -1.4,-13.6 -0.7,-4.5 -1.6,-9 -2.6,-13.5 -1,-4.5 -2.1,-8.9 -3.3,-13.3 -0.6,-2.2 -1.3,-4.4 -2,-6.6 -0.8,-2.1 -1.7,-4.2 -2.5,-6.3 -1,-2 -2,-4.1 -3.1,-6.1 l -1.8,-2.9 -0.9,-1.5 c -0.3,-0.5 -0.7,-0.9 -1,-1.4 -5.1,-7.5 -11.4,-14.3 -18.4,-20.3 -7,-5.9 -14.5,-11.2 -22.6,-15.5 -8.1,-4.3 -16.8,-7.5 -25.7,-9.7 9,1.9 17.7,5 26,9.2 8.2,4.2 15.9,9.3 23,15.2 7.1,5.9 13.5,12.7 18.8,20.3 0.3,0.5 0.7,0.9 1,1.4 l 0.9,1.5 1.8,3 c 1.2,2 2.1,4.1 3.2,6.2 0.9,2.2 1.8,4.3 2.6,6.4 0.8,2.2 1.4,4.4 2.1,6.6 2.5,8.9 4.6,17.9 6.1,27 0.7,4.6 1.3,9.2 1.5,13.8 0,2.3 0.3,4.5 0.9,6.6 0.6,2.1 1.6,4.1 2.8,6 2.4,3.8 5.3,7.4 8.2,10.9 1.5,1.8 3,3.5 4.5,5.2 0.8,0.9 1.5,1.8 2.1,2.9 0.7,1 1.2,2.1 1.7,3.2 1,2.1 1.9,4.4 2,7 0,1.3 -0.1,2.6 -0.7,3.8 -0.5,1.2 -1.4,2.3 -2.5,3 -1.1,0.8 -2.2,1.2 -3.2,1.7 -0.5,0.2 -1,0.5 -1.5,0.7 -0.5,0.2 -0.9,0.5 -1.4,0.8 -1.8,1.2 -3.3,2.8 -4.6,4.6 -2.6,3.6 -4.3,7.8 -6.1,12.1 -1.8,4.3 -3.4,8.4 -4.2,12.9 -0.4,2.2 -0.8,4.5 -1.2,6.8 -0.4,2.3 -1.1,4.5 -1.7,6.8 l -2.1,6.6 c -0.7,2.2 -1.3,4.4 -2.1,6.6 -0.8,2.2 -1.7,4.5 -3.3,6.4 -1.6,1.9 -3.7,3.3 -5.9,4.2 -2.3,0.9 -4.6,1.3 -6.8,1.7 -2.3,0.4 -4.6,0.8 -6.8,1.1 -4.6,0.7 -9.2,1.2 -13.8,1.6 -2.3,0.2 -4.6,0.2 -6.9,0.4 -2.2,0.2 -4.3,0.7 -6.3,1.8 -4,2 -7.4,5.1 -10.1,8.7 -1.4,1.8 -2.6,3.7 -3.7,5.7 -1.1,2 -2.1,4.1 -2.9,6.2 -0.8,2.1 -1.6,4.3 -2.3,6.5 -0.7,2.2 -1.2,4.4 -1.5,6.6 -0.3,2.2 -0.3,4.5 -0.5,6.8 -0.2,2.4 -1,4.7 -2.3,6.7 -1.3,2 -3,3.7 -4.9,5.1 -0.4,0.4 -1,0.7 -1.4,1 -0.5,0.3 -1,0.6 -1.5,0.9 -1.1,0.5 -2.1,1.1 -3.1,1.5 -4.3,1.8 -8.8,2.9 -13.3,3.7 -9.4,1.4 -18.7,1.8 -27.9,1.6 z"
   id="path614" />

	</g>

	<path
   class="st16"
   d="m -1785,-933.3 c 19.5,-2.5 26.8,-8.7 29.5,-14.5 2.4,-5.3 0.2,-8.3 3.2,-18.2 1.6,-5.1 6.5,-21.1 19.3,-27.2 6.4,-3.1 7.8,-0.3 31.6,-4.4 6,-1.1 9.1,-1.8 12.1,-4.2 4.2,-3.4 4.8,-8 8.3,-18.9 3.9,-12 2.1,-14.3 6.3,-24.8 4.1,-10.3 7.2,-17.9 14.3,-21.4 2,-1 4.6,-1.7 5.9,-4.3 1.9,-3.8 -0.4,-8.7 -1.6,-11 -1.6,-3.3 -2.9,-4.4 -7.1,-9.4 -9.3,-11.1 -11,-15.3 -11.7,-18.6 -0.6,-2.7 -0.6,-4.7 -0.7,-5.7 -0.2,-12.6 -5.8,-36.6 -9.6,-47.4 -11.2,-31.9 -43.5,-49.5 -49.2,-52.5 -9.2,-4.8 -18.1,-7.8 -26.2,-9.7 l -1.6,-0.7 c 3.2,-0.5 6.2,-0.8 8.8,-0.9 l 3.6,-0.5 c 10.5,-0.3 31.5,0.7 54,12.5 5.8,3 38,20.6 49.2,52.5 3.8,10.8 9.3,34.8 9.6,47.4 0,1 0,3 0.7,5.7 0.8,3.3 2.4,7.5 11.7,18.6 4.2,4.9 5.5,6.1 7.1,9.4 1.1,2.4 3.5,7.2 1.6,11 -1.3,2.6 -3.9,3.3 -5.9,4.3 -7.2,3.4 -10.2,11 -14.3,21.4 -4.2,10.5 -2.5,12.8 -6.3,24.8 -3.5,10.8 -4.1,15.5 -8.3,18.9 -3,2.4 -6.1,3.2 -12.1,4.2 -23.8,4.1 -25.1,1.4 -31.6,4.4 -12.8,6.2 -17.7,22.2 -19.3,27.2 -3.1,9.9 -0.8,12.9 -3.2,18.2 -3.5,7.7 -15,15.9 -51.8,15.7 l -16.8,-1.8"
   id="path618" />

	<path
   class="st14"
   d="m -1805.7,-930.6 c 19.5,-2.5 26.8,-8.7 29.5,-14.6 2.4,-5.3 0.2,-8.3 3.2,-18.3 1.6,-5.1 6.5,-21.2 19.3,-27.4 6.4,-3.1 7.8,-0.3 31.6,-4.5 6,-1 9.1,-1.8 12.1,-4.2 4.2,-3.4 4.8,-8.1 8.3,-19 3.8,-12.1 2.1,-14.4 6.3,-24.9 4.1,-10.4 7.1,-18 14.3,-21.5 2,-1 4.6,-1.7 5.9,-4.3 1.9,-3.8 -0.4,-8.7 -1.6,-11.1 -1.6,-3.3 -2.9,-4.4 -7.1,-9.4 -9.3,-11.2 -11,-15.4 -11.7,-18.7 -0.6,-2.7 -0.6,-4.8 -0.7,-5.7 -0.2,-12.6 -5.8,-36.8 -9.6,-47.7 -11.3,-32.1 -43.5,-49.8 -49.3,-52.8 -9.2,-4.9 -18.1,-7.9 -26.2,-9.8 l -1.6,-0.7 c 3.2,-0.5 6.2,-0.8 8.8,-0.9 l 3.6,-0.5 c 10.5,-0.3 31.5,0.7 54,12.6 5.8,3 38,20.7 49.3,52.8 3.8,10.8 9.3,35 9.6,47.7 0,1 0,3 0.7,5.7 0.8,3.3 2.4,7.5 11.7,18.7 4.2,5 5.5,6.1 7.1,9.4 1.1,2.4 3.5,7.3 1.6,11.1 -1.3,2.6 -3.9,3.3 -5.9,4.3 -7.2,3.5 -10.2,11.1 -14.3,21.5 -4.2,10.6 -2.4,12.9 -6.3,24.9 -3.5,10.9 -4.1,15.6 -8.3,19 -3,2.5 -6.1,3.2 -12.1,4.2 -23.8,4.1 -25.1,1.3 -31.6,4.5 -12.8,6.2 -17.7,22.3 -19.3,27.4 -3,10 -0.8,13 -3.2,18.3 -3.5,7.7 -15,16 -51.8,15.7 l -16.8,-1.8"
   id="path620" />

	<g
   class="st7"
   id="g672">
		<g
   id="g624">
			<path
   class="st8"
   d="m -64,-606.8 81.8,-43.5 -80.8,45.2 c -0.5,0.3 -1.1,0.1 -1.4,-0.4 -0.2,-0.4 -0.1,-1.1 0.4,-1.3 0,0 0,0 0,0 z"
   id="path622" />

		</g>

		<g
   id="g628">
			<path
   class="st8"
   d="m -92.3,-523 28.9,-82.9 -27,83.5 c -0.2,0.5 -0.7,0.8 -1.3,0.6 -0.5,-0.2 -0.8,-0.7 -0.6,-1.2 0,0 0,0 0,0 z"
   id="path626" />

		</g>

		<g
   id="g632">
			<path
   class="st8"
   d="m -91.3,-525.2 89,-31.9 -88.3,33.8 c -0.5,0.2 -1.1,-0.1 -1.3,-0.6 -0.2,-0.5 0.1,-1 0.6,-1.3 0,0.1 0,0.1 0,0 z"
   id="path630" />

		</g>

		<g
   id="g636">
			<path
   class="st8"
   d="m 18,-651.8 30.8,44.6 -32.4,-43.5 c -0.3,-0.4 -0.2,-1.1 0.2,-1.4 0.4,-0.3 1,-0.2 1.4,0.3 0,0 0,0 0,0 z"
   id="path634" />

		</g>

		<g
   id="g640">
			<path
   class="st8"
   d="m -90.2,-524.9 54.6,65.2 -56.1,-63.9 c -0.4,-0.4 -0.3,-1 0.1,-1.4 0.4,-0.4 1.1,-0.3 1.4,0.1 0,0 0,0 0,0 z"
   id="path638" />

		</g>

		<g
   id="g644">
			<path
   class="st8"
   d="m -40.1,-463.5 73,-26.8 -72.2,28.6 c -0.5,0.2 -1.1,0 -1.3,-0.6 -0.3,-0.4 0,-1 0.5,-1.2 0,0 0,0 0,0 z"
   id="path642" />

		</g>

		<g
   id="g648">
			<path
   class="st8"
   d="m -38.2,-464.6 69.1,22.5 -69.7,-20.6 c -0.5,-0.2 -0.8,-0.7 -0.7,-1.2 0.2,-0.5 0.8,-0.8 1.3,-0.7 0,0 0,0 0,0 z"
   id="path646" />

		</g>

		<g
   id="g652">
			<path
   class="st8"
   d="m -37.5,-463.4 7.5,78.8 -9.5,-78.6 c -0.1,-0.5 0.3,-1 0.9,-1.1 0.6,-0.1 1.1,0.3 1.1,0.9 0,0 0,0 0,0 z"
   id="path650" />

		</g>

		
			<ellipse
   transform="matrix(0.9993,-0.03837651,0.03837651,0.9993,20.05,-3.8932)"
   class="st10"
   cx="-91.400002"
   cy="-524.20001"
   rx="18.6"
   ry="18.5"
   id="ellipse654" />

		<circle
   class="st10"
   cx="-63.400002"
   cy="-607.20001"
   r="15.1"
   id="circle656" />

		<circle
   class="st10"
   cx="-2.3"
   cy="-557"
   r="15.1"
   id="circle658" />

		<circle
   class="st10"
   cx="-39.700001"
   cy="-462.5"
   r="15.1"
   id="circle660" />

		<circle
   class="st10"
   cx="17.200001"
   cy="-649.79999"
   r="9.6999998"
   id="circle662" />

		<circle
   class="st10"
   cx="32.900002"
   cy="-490.29999"
   r="9.6999998"
   id="circle664" />

		<circle
   class="st10"
   cx="29.299999"
   cy="-442.10001"
   r="9.6999998"
   id="circle666" />

		<circle
   class="st10"
   cx="-30"
   cy="-384.60001"
   r="9.6999998"
   id="circle668" />

		
			<circle
   transform="matrix(0.02172371,-0.9998,0.9998,0.02172371,656.1312,-546.577)"
   class="st10"
   cx="48.799999"
   cy="-608.59998"
   id="ellipse670"
   r="9.6999998" />

	</g>

	<g
   class="st7"
   id="g676">
		<path
   class="st3"
   d="m -34.2,-366.6 c 9.2,0.7 18.4,0.9 27.5,0 4.6,-0.5 9.1,-1.3 13.4,-2.8 1.1,-0.3 2.1,-0.8 3.2,-1.3 0.5,-0.2 1,-0.5 1.5,-0.8 0.5,-0.3 1,-0.5 1.5,-0.9 1.9,-1.2 3.6,-2.7 4.9,-4.5 1.3,-1.8 2.2,-3.9 2.6,-6.1 0.4,-2.2 0.5,-4.6 1,-6.8 0.5,-2.3 1.2,-4.5 2,-6.7 0.8,-2.1 1.7,-4.3 2.7,-6.4 1,-2.1 2.1,-4.1 3.4,-6.1 1.3,-2 2.6,-3.9 4.2,-5.6 3,-3.5 6.9,-6.5 11.2,-8.3 2.1,-1 4.7,-1.5 7,-1.4 2.3,0 4.6,0.1 6.9,0.1 4.6,0 9.1,-0.2 13.7,-0.5 2.3,-0.2 4.6,-0.4 6.8,-0.6 2.3,-0.2 4.5,-0.5 6.6,-1.1 2.1,-0.6 4,-1.8 5.5,-3.2 1.5,-1.5 2.5,-3.5 3.4,-5.6 0.9,-2.1 1.7,-4.2 2.5,-6.4 l 2.5,-6.4 c 0.8,-2.1 1.6,-4.3 2.2,-6.5 0.6,-2.2 1.1,-4.4 1.7,-6.7 0.6,-2.2 1.4,-4.5 2.3,-6.6 0.9,-2.2 2,-4.2 3,-6.3 2.1,-4.1 4.2,-8.3 7.2,-12 1.5,-1.8 3.4,-3.5 5.5,-4.7 0.5,-0.3 1.1,-0.6 1.6,-0.8 0.6,-0.2 1.1,-0.5 1.7,-0.7 1.1,-0.4 2.1,-0.7 3,-1.3 1.8,-1 2.7,-2.9 2.8,-5 0.1,-2.1 -0.5,-4.2 -1.3,-6.3 -0.4,-1.1 -0.8,-2.1 -1.3,-3.1 -0.5,-1 -1.1,-1.9 -1.8,-2.8 -1.3,-1.9 -2.7,-3.7 -4,-5.6 -2.6,-3.8 -5.2,-7.6 -7.4,-11.8 -1.1,-2.1 -2,-4.3 -2.5,-6.7 -0.4,-2.3 -0.5,-4.8 -0.4,-7.1 0.2,-4.5 0,-9.1 -0.4,-13.7 -0.4,-4.6 -0.9,-9.1 -1.5,-13.7 -0.6,-4.5 -1.3,-9.1 -2.2,-13.6 -0.4,-2.2 -0.9,-4.5 -1.5,-6.7 -0.6,-2.2 -1.3,-4.3 -2,-6.5 -0.9,-2.1 -1.7,-4.2 -2.6,-6.3 l -1.5,-3.1 -0.8,-1.5 c -0.3,-0.5 -0.6,-1 -0.8,-1.5 -4.5,-7.9 -10.2,-15.2 -16.7,-21.6 -6.5,-6.5 -13.6,-12.3 -21.4,-17.2 -7.8,-4.9 -16.1,-8.8 -24.9,-11.7 8.8,2.7 17.3,6.4 25.2,11.2 7.9,4.8 15.1,10.6 21.8,17 6.6,6.4 12.4,13.7 17.1,21.7 0.3,0.5 0.6,1 0.9,1.5 l 0.8,1.6 1.6,3.1 c 1,2.1 1.8,4.3 2.7,6.4 0.7,2.2 1.4,4.4 2.1,6.6 0.6,2.2 1.1,4.5 1.6,6.8 1.8,9 3.2,18.2 3.9,27.4 0.4,4.6 0.6,9.2 0.4,13.9 -0.2,2.3 -0.1,4.5 0.3,6.6 0.4,2.1 1.3,4.2 2.3,6.2 2.1,4 4.7,7.8 7.3,11.5 1.3,1.9 2.7,3.7 4,5.6 0.7,1 1.3,1.9 1.9,3 0.6,1.1 1,2.2 1.4,3.3 0.8,2.2 1.5,4.6 1.4,7.1 -0.1,1.3 -0.4,2.6 -1,3.7 -0.6,1.2 -1.6,2.1 -2.7,2.8 -1.1,0.7 -2.3,1.1 -3.3,1.5 -0.5,0.2 -1,0.4 -1.5,0.6 -0.5,0.2 -1,0.5 -1.4,0.7 -1.9,1 -3.5,2.5 -4.9,4.2 -2.9,3.4 -4.9,7.5 -7,11.6 -2.1,4.1 -4.1,8.1 -5.2,12.5 -0.6,2.2 -1.1,4.4 -1.8,6.7 -0.6,2.2 -1.4,4.4 -2.2,6.6 l -2.6,6.4 c -0.8,2.1 -1.7,4.3 -2.6,6.4 -0.9,2.1 -2,4.3 -3.8,6.1 -1.8,1.7 -3.9,3 -6.2,3.7 -2.3,0.7 -4.7,0.9 -6.9,1.2 -2.3,0.2 -4.6,0.4 -6.9,0.6 -4.6,0.3 -9.2,0.5 -13.8,0.5 -2.3,0 -4.6,-0.1 -6.9,-0.2 -2.2,0 -4.4,0.4 -6.4,1.2 -4.1,1.7 -7.8,4.5 -10.8,7.8 -1.5,1.7 -2.9,3.5 -4.1,5.4 -1.3,1.9 -2.4,3.9 -3.4,5.9 -1,2 -1.9,4.1 -2.8,6.3 -0.8,2.1 -1.5,4.3 -2,6.5 -0.5,2.2 -0.7,4.5 -1.1,6.8 -0.4,2.3 -1.4,4.6 -2.8,6.5 -1.4,1.9 -3.2,3.5 -5.2,4.6 -0.5,0.3 -1,0.6 -1.5,0.9 -0.5,0.3 -1,0.6 -1.6,0.8 -1.1,0.4 -2.1,0.9 -3.2,1.2 -4.4,1.5 -9,2.2 -13.6,2.6 -9.2,1.2 -18.4,0.8 -27.5,-0.1 z"
   id="path674" />

	</g>

	<path
   class="st14"
   d="m -11.7,-366.1 c 19.7,-1 27.4,-6.6 30.5,-12.2 2.8,-5.1 0.8,-8.3 4.6,-18 2,-5 8.1,-20.6 21.4,-25.8 6.6,-2.6 7.8,0.3 31.8,-2 6.1,-0.6 9.2,-1.1 12.4,-3.3 4.5,-3.1 5.4,-7.7 9.7,-18.3 4.8,-11.7 3.2,-14.2 8.2,-24.4 4.9,-10 8.5,-17.4 15.9,-20.3 2.1,-0.8 4.8,-1.4 6.2,-3.9 2.2,-3.7 0.2,-8.8 -0.7,-11.2 -1.3,-3.4 -2.5,-4.6 -6.3,-10 -8.4,-11.9 -9.7,-16.2 -10.2,-19.5 -0.4,-2.7 -0.3,-4.8 -0.2,-5.8 0.7,-12.6 -2.9,-37.2 -5.8,-48.3 -8.7,-32.9 -39.5,-53.1 -45,-56.5 -8.8,-5.6 -17.4,-9.3 -25.3,-11.8 l -1.6,-0.8 c 3.2,-0.2 6.2,-0.3 8.9,-0.2 l 3.6,-0.2 c 10.5,0.6 31.4,3.2 52.8,16.8 5.5,3.5 36.3,23.6 45,56.5 2.9,11.1 6.6,35.6 5.8,48.3 -0.1,1 -0.2,3 0.2,5.8 0.5,3.3 1.8,7.7 10.2,19.6 3.8,5.3 5,6.5 6.3,10 0.9,2.5 2.9,7.5 0.7,11.2 -1.5,2.5 -4.1,3 -6.2,3.9 -7.4,2.9 -11,10.3 -15.9,20.3 -5,10.2 -3.4,12.6 -8.2,24.4 -4.3,10.6 -5.3,15.2 -9.7,18.3 -3.2,2.2 -6.3,2.7 -12.4,3.3 -24,2.3 -25.2,-0.6 -31.8,2 -13.2,5.2 -19.4,20.8 -21.4,25.8 -3.8,9.7 -1.8,12.9 -4.6,18 -4.1,7.4 -16.2,14.8 -52.8,11.6 l -16.6,-3.1"
   id="path678" />

	<path
   class="st16"
   d="m 13,-366.9 c 19.7,-1 27.4,-6.5 30.5,-12.1 2.8,-5.1 0.8,-8.2 4.6,-17.9 1.9,-4.9 8.1,-20.5 21.4,-25.6 6.6,-2.6 7.8,0.3 31.8,-2 6.1,-0.6 9.2,-1 12.4,-3.2 4.5,-3.1 5.4,-7.6 9.7,-18.2 4.8,-11.7 3.2,-14.1 8.2,-24.2 4.9,-10 8.5,-17.3 15.9,-20.2 2.1,-0.8 4.8,-1.4 6.2,-3.8 2.2,-3.6 0.2,-8.7 -0.7,-11.1 -1.3,-3.4 -2.5,-4.6 -6.3,-9.9 -8.4,-11.8 -9.7,-16.1 -10.2,-19.4 -0.4,-2.7 -0.3,-4.8 -0.2,-5.7 0.7,-12.5 -2.9,-37 -5.8,-48 -8.7,-32.7 -39.5,-52.7 -45,-56.2 -8.8,-5.5 -17.4,-9.2 -25.3,-11.7 l -1.6,-0.8 c 3.2,-0.2 6.2,-0.3 8.9,-0.3 l 3.6,-0.2 c 10.5,0.6 31.4,3.1 52.9,16.7 5.5,3.5 36.3,23.5 45,56.2 2.9,11 6.6,35.4 5.8,48 -0.1,1 -0.2,3 0.2,5.7 0.5,3.3 1.8,7.6 10.2,19.4 3.8,5.3 5,6.5 6.3,9.9 0.9,2.5 2.9,7.5 0.7,11.1 -1.5,2.5 -4.1,3 -6.2,3.8 -7.4,2.9 -11,10.2 -15.9,20.2 -5,10.1 -3.4,12.5 -8.2,24.2 -4.3,10.5 -5.3,15.1 -9.7,18.2 -3.2,2.2 -6.3,2.7 -12.4,3.2 -24,2.2 -25.2,-0.6 -31.8,2 -13.2,5.1 -19.4,20.7 -21.4,25.6 -3.8,9.6 -1.8,12.8 -4.6,17.9 -4.1,7.4 -16.2,14.7 -52.8,11.6 L 12.6,-367"
   id="path680" />

	<g
   class="st7"
   id="g732">
		<g
   id="g684">
			<path
   class="st8"
   d="m -448,51.4 75.3,-40 -74.3,41.7 c -0.5,0.3 -1.1,0.1 -1.4,-0.4 -0.3,-0.4 -0.2,-1 0.4,-1.3 -0.1,0 -0.1,0 0,0 z"
   id="path682" />

		</g>

		<g
   id="g688">
			<path
   class="st8"
   d="m -474.2,128.6 26.6,-76.3 -24.7,76.9 c -0.2,0.5 -0.7,0.8 -1.3,0.6 -0.5,-0.1 -0.8,-0.7 -0.6,-1.2 0,0 0,0 0,0 z"
   id="path686" />

		</g>

		<g
   id="g692">
			<path
   class="st8"
   d="m -473.2,126.6 81.9,-29.3 -81.2,31.1 c -0.5,0.2 -1.1,-0.1 -1.3,-0.6 -0.2,-0.5 0.1,-1 0.6,-1.2 0,0 0,0 0,0 z"
   id="path690" />

		</g>

		<g
   id="g696">
			<path
   class="st8"
   d="m -372.6,10.1 28.3,41.1 -29.9,-39.9 c -0.3,-0.4 -0.2,-1.1 0.2,-1.4 0.4,-0.3 1.1,-0.3 1.4,0.2 0,-0.1 0,0 0,0 z"
   id="path694" />

		</g>

		<g
   id="g700">
			<path
   class="st8"
   d="m -472.1,126.9 50.1,60.1 -51.7,-58.8 c -0.4,-0.4 -0.3,-1.1 0.1,-1.4 0.4,-0.3 1.2,-0.4 1.5,0.1 0,0 0,0 0,0 z"
   id="path698" />

		</g>

		<g
   id="g704">
			<path
   class="st8"
   d="m -426.1,183.3 67.1,-24.6 -66.4,26.4 c -0.5,0.2 -1.1,-0.1 -1.3,-0.6 -0.2,-0.4 0.1,-1 0.6,-1.2 0,0 0,0 0,0 z"
   id="path702" />

		</g>

		<g
   id="g708">
			<path
   class="st8"
   d="m -424.2,182.3 63.5,20.8 -64.1,-18.8 c -0.5,-0.2 -0.8,-0.7 -0.7,-1.2 0.1,-0.7 0.7,-1 1.3,-0.8 -0.1,0 -0.1,0 0,0 z"
   id="path706" />

		</g>

		<g
   id="g712">
			<path
   class="st8"
   d="m -423.5,183.4 6.8,72.5 -8.8,-72.3 c -0.1,-0.6 0.3,-1.1 0.9,-1.1 0.5,0 1,0.4 1.1,0.9 0,0 0,0 0,0 z"
   id="path710" />

		</g>

		<circle
   class="st10"
   cx="-473.20001"
   cy="127.5"
   r="17.1"
   id="circle714" />

		<circle
   class="st10"
   cx="-447.5"
   cy="51.200001"
   r="13.9"
   id="circle716" />

		<circle
   class="st10"
   cx="-391.29999"
   cy="97.300003"
   r="13.9"
   id="circle718" />

		<circle
   class="st10"
   cx="-425.70001"
   cy="184.2"
   r="13.9"
   id="circle720" />

		<circle
   class="st10"
   cx="-373.39999"
   cy="11.9"
   r="9"
   id="circle722" />

		<circle
   class="st10"
   cx="-358.89999"
   cy="158.8"
   r="9"
   id="circle724" />

		<circle
   class="st10"
   cx="-362.20001"
   cy="203"
   r="9"
   id="circle726" />

		<circle
   class="st10"
   cx="-416.79999"
   cy="255.89999"
   r="9"
   id="circle728" />

		<circle
   class="st10"
   cx="-344.29999"
   cy="49.900002"
   r="9"
   id="circle730" />

	</g>

	<g
   class="st7"
   id="g784">
		<g
   id="g736">
			<path
   class="st8"
   d="m 674.8,-673.1 81.8,-43.5 -80.8,45.3 c -0.5,0.3 -1.1,0.1 -1.4,-0.4 -0.2,-0.5 -0.1,-1.1 0.4,-1.4 0,0 0,0 0,0 z"
   id="path734" />

		</g>

		<g
   id="g740">
			<path
   class="st8"
   d="m 646.5,-589.3 28.8,-82.9 -27,83.5 c -0.2,0.5 -0.7,0.8 -1.3,0.6 -0.4,-0.1 -0.7,-0.7 -0.5,-1.2 0,0 0,0 0,0 z"
   id="path738" />

		</g>

		<g
   id="g744">
			<path
   class="st8"
   d="m 647.5,-591.4 89,-31.9 -88.3,33.8 c -0.5,0.2 -1.1,-0.1 -1.3,-0.6 -0.2,-0.5 0.1,-1.1 0.6,-1.3 0,0 0,0 0,0 z"
   id="path742" />

		</g>

		<g
   id="g748">
			<path
   class="st8"
   d="m 756.8,-718.1 30.8,44.6 -32.4,-43.5 c -0.3,-0.4 -0.2,-1.1 0.2,-1.4 0.4,-0.2 1,-0.1 1.4,0.3 0,0 0,0 0,0 z"
   id="path746" />

		</g>

		<g
   id="g752">
			<path
   class="st8"
   d="m 648.6,-591.1 54.6,65.2 -56.1,-63.9 c -0.4,-0.4 -0.3,-1 0.1,-1.4 0.4,-0.4 1.1,-0.3 1.4,0.1 0,0 0,0 0,0 z"
   id="path750" />

		</g>

		<g
   id="g756">
			<path
   class="st8"
   d="m 698.7,-529.7 73,-26.8 -72.2,28.7 c -0.5,0.2 -1.1,-0.1 -1.3,-0.6 -0.3,-0.5 0,-1.1 0.5,-1.3 0,0 0,0 0,0 z"
   id="path754" />

		</g>

		<g
   id="g760">
			<path
   class="st8"
   d="m 700.6,-530.8 69.1,22.5 -69.7,-20.6 c -0.5,-0.2 -0.8,-0.7 -0.7,-1.2 0.2,-0.6 0.8,-0.9 1.3,-0.7 0,0 0,0 0,0 z"
   id="path758" />

		</g>

		<g
   id="g764">
			<path
   class="st8"
   d="m 701.3,-529.6 7.5,78.8 -9.5,-78.6 c -0.1,-0.5 0.3,-1 0.9,-1.1 0.6,-0.1 1.1,0.3 1.1,0.9 0,-0.1 0,-0.1 0,0 z"
   id="path762" />

		</g>

		<circle
   class="st10"
   cx="647.40002"
   cy="-590.40002"
   r="18.5"
   id="circle766" />

		<circle
   class="st10"
   cx="675.40002"
   cy="-673.40002"
   r="15.1"
   id="circle768" />

		<circle
   class="st10"
   cx="736.5"
   cy="-623.29999"
   r="15.1"
   id="circle770" />

		<circle
   class="st10"
   cx="699.09998"
   cy="-528.79999"
   r="15.1"
   id="circle772" />

		<circle
   class="st10"
   cx="756"
   cy="-716.09998"
   r="9.6999998"
   id="circle774" />

		<circle
   class="st10"
   cx="771.70001"
   cy="-556.5"
   r="9.6999998"
   id="circle776" />

		<circle
   class="st10"
   cx="768.09998"
   cy="-508.39999"
   r="9.6999998"
   id="circle778" />

		<circle
   class="st10"
   cx="708.79999"
   cy="-450.89999"
   r="9.6999998"
   id="circle780" />

		<circle
   class="st10"
   cx="787.59998"
   cy="-674.79999"
   r="9.6999998"
   id="circle782" />

	</g>

	<g
   class="st7"
   id="g788">
		<path
   class="st3"
   d="m 704.6,-432.8 c 9.2,0.7 18.4,0.9 27.5,0 4.5,-0.5 9.1,-1.3 13.4,-2.8 1.1,-0.3 2.1,-0.8 3.2,-1.3 0.5,-0.2 1,-0.5 1.5,-0.8 0.5,-0.3 1,-0.5 1.5,-0.9 1.9,-1.2 3.6,-2.7 4.9,-4.5 1.3,-1.8 2.2,-3.9 2.6,-6.1 0.4,-2.2 0.5,-4.6 1,-6.8 0.5,-2.3 1.2,-4.5 2,-6.7 0.8,-2.1 1.7,-4.3 2.7,-6.4 1,-2.1 2.1,-4.1 3.4,-6.1 1.3,-2 2.6,-3.9 4.2,-5.6 3,-3.5 6.9,-6.5 11.2,-8.3 2.1,-1 4.7,-1.5 7,-1.4 2.3,0 4.6,0.1 6.9,0.1 4.6,0 9.1,-0.2 13.7,-0.5 2.3,-0.2 4.6,-0.4 6.8,-0.6 2.3,-0.2 4.5,-0.5 6.6,-1.1 2.1,-0.6 4,-1.8 5.5,-3.2 1.5,-1.5 2.5,-3.5 3.4,-5.6 0.9,-2.1 1.7,-4.2 2.5,-6.4 l 2.5,-6.4 c 0.8,-2.1 1.5,-4.3 2.2,-6.4 0.6,-2.2 1.1,-4.4 1.7,-6.7 0.6,-2.2 1.4,-4.5 2.3,-6.6 0.9,-2.2 2,-4.2 3,-6.3 2.1,-4.1 4.2,-8.3 7.2,-12 1.5,-1.8 3.4,-3.5 5.5,-4.7 0.5,-0.3 1.1,-0.6 1.6,-0.8 0.5,-0.2 1.1,-0.5 1.7,-0.7 1.1,-0.4 2.1,-0.7 3,-1.3 1.8,-1 2.7,-2.9 2.8,-4.9 0.1,-2.1 -0.5,-4.2 -1.3,-6.3 -0.4,-1.1 -0.8,-2.1 -1.3,-3.1 -0.5,-1 -1.1,-1.9 -1.8,-2.8 -1.3,-1.8 -2.7,-3.7 -4,-5.6 -2.7,-3.8 -5.2,-7.6 -7.4,-11.8 -1.1,-2.1 -2,-4.3 -2.5,-6.7 -0.5,-2.3 -0.5,-4.8 -0.3,-7.1 0.2,-4.5 0,-9.1 -0.4,-13.7 -0.4,-4.6 -0.9,-9.1 -1.5,-13.7 -0.6,-4.5 -1.3,-9.1 -2.2,-13.6 -0.5,-2.2 -0.9,-4.5 -1.5,-6.7 -0.6,-2.2 -1.3,-4.3 -2,-6.5 -0.9,-2.1 -1.7,-4.2 -2.6,-6.3 l -1.5,-3.1 -0.8,-1.5 c -0.3,-0.5 -0.6,-1 -0.8,-1.5 -4.5,-7.9 -10.2,-15.2 -16.7,-21.6 -6.5,-6.5 -13.6,-12.3 -21.4,-17.2 -7.8,-4.9 -16.1,-8.8 -24.9,-11.7 8.8,2.7 17.3,6.4 25.2,11.2 7.9,4.8 15.1,10.6 21.8,17 6.6,6.4 12.4,13.7 17.1,21.7 0.3,0.5 0.6,1 0.9,1.5 l 0.8,1.6 1.6,3.1 c 1,2.1 1.8,4.3 2.7,6.4 0.7,2.2 1.5,4.4 2.1,6.6 0.6,2.2 1.1,4.5 1.6,6.8 1.8,9 3.2,18.2 4,27.4 0.4,4.6 0.6,9.2 0.4,13.9 -0.2,2.3 -0.1,4.5 0.3,6.6 0.4,2.1 1.3,4.2 2.3,6.2 2.1,4 4.7,7.8 7.3,11.5 1.3,1.9 2.7,3.7 4,5.6 0.7,1 1.3,1.9 1.9,3 0.6,1.1 1,2.2 1.4,3.3 0.8,2.2 1.5,4.6 1.4,7.1 0,1.3 -0.3,2.6 -1,3.7 -0.6,1.2 -1.6,2.1 -2.7,2.8 -1.1,0.7 -2.3,1.1 -3.3,1.5 -0.5,0.2 -1,0.4 -1.5,0.6 -0.5,0.2 -1,0.5 -1.5,0.7 -1.9,1 -3.5,2.5 -5,4.2 -2.8,3.4 -4.9,7.5 -7,11.6 -2.1,4.1 -4.1,8.1 -5.2,12.5 -0.6,2.2 -1.1,4.4 -1.8,6.7 -0.6,2.2 -1.4,4.4 -2.2,6.6 l -2.6,6.4 c -0.8,2.1 -1.7,4.3 -2.6,6.4 -1,2.1 -2,4.3 -3.8,6.1 -1.8,1.7 -3.9,3 -6.2,3.7 -2.3,0.7 -4.7,0.9 -7,1.2 -2.3,0.2 -4.6,0.4 -6.9,0.6 -4.6,0.3 -9.2,0.5 -13.8,0.5 -2.3,0 -4.6,-0.1 -6.9,-0.2 -2.2,0 -4.4,0.4 -6.4,1.2 -4.1,1.7 -7.8,4.5 -10.8,7.8 -1.5,1.7 -2.9,3.5 -4.1,5.4 -1.3,1.9 -2.4,3.9 -3.4,5.9 -1,2 -1.9,4.1 -2.8,6.3 -0.8,2.1 -1.5,4.3 -2,6.5 -0.5,2.2 -0.7,4.5 -1.1,6.8 -0.4,2.3 -1.4,4.6 -2.8,6.5 -1.4,1.9 -3.2,3.5 -5.2,4.6 -0.5,0.3 -1,0.6 -1.5,0.9 -0.5,0.3 -1,0.6 -1.6,0.8 -1.1,0.4 -2.1,0.9 -3.2,1.2 -4.4,1.5 -9,2.2 -13.6,2.6 -9.1,0.9 -18.3,0.6 -27.4,-0.3 z"
   id="path786" />

	</g>

	<path
   class="st14"
   d="m 727.1,-432.3 c 19.7,-1 27.4,-6.6 30.5,-12.2 2.8,-5.1 0.8,-8.3 4.6,-18 2,-5 8.1,-20.6 21.4,-25.8 6.6,-2.6 7.8,0.3 31.8,-2 6.1,-0.6 9.2,-1.1 12.4,-3.3 4.5,-3.1 5.4,-7.7 9.7,-18.3 4.8,-11.7 3.2,-14.2 8.2,-24.4 4.9,-10 8.5,-17.4 15.9,-20.3 2.1,-0.8 4.8,-1.4 6.2,-3.9 2.2,-3.7 0.2,-8.8 -0.7,-11.2 -1.3,-3.4 -2.5,-4.7 -6.3,-10 -8.4,-11.9 -9.7,-16.2 -10.2,-19.5 -0.4,-2.7 -0.3,-4.8 -0.2,-5.8 0.7,-12.6 -2.9,-37.2 -5.8,-48.3 -8.7,-32.9 -39.5,-53.1 -45,-56.5 -8.8,-5.6 -17.4,-9.3 -25.3,-11.8 l -1.6,-0.8 c 3.2,-0.2 6.2,-0.3 8.9,-0.2 l 3.6,-0.2 c 10.5,0.6 31.4,3.2 52.8,16.8 5.5,3.5 36.3,23.6 45,56.5 2.9,11.1 6.6,35.7 5.8,48.3 -0.1,1 -0.2,3 0.2,5.8 0.5,3.3 1.8,7.7 10.2,19.6 3.8,5.3 5,6.5 6.3,9.9 1,2.5 2.9,7.6 0.7,11.2 -1.5,2.5 -4.1,3 -6.2,3.9 -7.4,2.9 -11,10.3 -15.9,20.3 -5,10.2 -3.5,12.6 -8.2,24.4 -4.3,10.6 -5.3,15.2 -9.7,18.3 -3.2,2.2 -6.3,2.7 -12.4,3.3 -24,2.3 -25.2,-0.6 -31.8,2 -13.2,5.2 -19.4,20.8 -21.4,25.8 -3.8,9.7 -1.8,12.9 -4.6,18 -4.1,7.4 -16.2,14.8 -52.8,11.6 l -16.6,-3.1"
   id="path790" />

	<path
   class="st16"
   d="m 751.8,-433.1 c 19.7,-1 27.4,-6.5 30.5,-12.1 2.8,-5.1 0.8,-8.2 4.6,-17.9 2,-4.9 8.1,-20.5 21.4,-25.6 6.6,-2.6 7.8,0.3 31.8,-2 6.1,-0.6 9.2,-1 12.4,-3.2 4.5,-3.1 5.4,-7.6 9.7,-18.2 4.8,-11.7 3.2,-14.1 8.2,-24.2 4.9,-10 8.5,-17.3 15.9,-20.2 2.1,-0.8 4.8,-1.4 6.2,-3.8 2.2,-3.6 0.2,-8.7 -0.7,-11.1 -1.3,-3.4 -2.5,-4.6 -6.3,-9.9 -8.4,-11.8 -9.7,-16.1 -10.2,-19.4 -0.4,-2.7 -0.3,-4.8 -0.2,-5.7 0.7,-12.5 -2.9,-36.9 -5.8,-48 -8.7,-32.7 -39.5,-52.7 -45,-56.2 -8.8,-5.5 -17.4,-9.2 -25.3,-11.7 l -1.6,-0.8 c 3.2,-0.2 6.2,-0.3 8.9,-0.3 l 3.6,-0.2 c 10.5,0.6 31.4,3.1 52.8,16.7 5.5,3.5 36.3,23.5 45,56.2 2.9,11 6.6,35.4 5.8,48 -0.1,1 -0.2,3 0.2,5.7 0.5,3.3 1.8,7.6 10.2,19.4 3.8,5.3 5,6.5 6.3,9.9 1,2.5 2.9,7.5 0.7,11.1 -1.5,2.5 -4.1,3 -6.2,3.8 -7.4,2.9 -11,10.2 -15.9,20.2 -5,10.1 -3.5,12.6 -8.2,24.2 -4.3,10.5 -5.3,15.1 -9.7,18.2 -3.2,2.2 -6.3,2.7 -12.4,3.2 -24,2.2 -25.2,-0.6 -31.8,2 -13.2,5.1 -19.4,20.7 -21.4,25.6 -3.8,9.6 -1.8,12.8 -4.6,17.9 -4.1,7.4 -16.2,14.7 -52.8,11.6 l -16.6,-3.1"
   id="path792" />

	<g
   class="st7"
   id="g798">
		<path
   class="st17"
   d="m 735.8,-152.7 c -0.8,0 -2.9,-0.1 -5.8,0.1 0,0 -2.2,0.2 -4.4,0.6 -2.4,0.4 -8.2,1.4 -13.6,4.5 -9.9,5.5 -13.9,13.8 -15.3,16.9 l -2.3,2.1 c -1.8,1 -4.5,2.3 -7.9,3.3 -2.5,0.7 -4.6,1.1 -8.3,1.6 -6,0.8 -9.6,1.2 -14.7,1.4 -8.2,0.3 -14.4,-0.4 -19.6,-0.9 -10,-1 -18.8,-2.7 -26.4,-4.6 l -1.7,-2.5 c 1.7,-13 6.4,-30.7 20.8,-45 7.4,-7.3 11.1,-7.6 24.9,-16.4 15.3,-9.8 39.6,-25.4 55,-51.7 10.4,-17.8 12.8,-33.7 14.1,-42.8 3.1,-22.2 -1.3,-34.6 -2.5,-37.6 -1.6,-4.3 -3.5,-7.7 -4.9,-10.1 l -1.1,-4.3 c 2.4,1.2 5.7,3.1 9.3,5.7 5.2,3.7 14.8,10.8 20.2,22.7 1.1,2.4 2.5,5.6 3.2,10 0.6,3.8 0.3,7.3 -0.2,14.2 -0.4,5.7 -0.8,6.6 -0.4,9.2 0.3,2.2 0.6,5.8 3.1,9.2 1.8,2.6 3.4,3.2 9.3,8.2 5.1,4.3 3.9,3.9 7,6.3 6,4.7 9.2,5.3 11.2,9.3 0.4,0.8 0.6,1.4 0.7,1.6 0.1,0.4 1,3.6 -0.4,6.5 -0.9,1.9 -1.7,1.5 -4.7,4.7 -1.7,1.8 -2.9,3.1 -3.7,5.1 -0.3,0.7 -1,2.8 -0.7,5.5 0.2,1.5 0.3,3.1 1.5,4.7 1.8,2.4 4.1,1.9 5.8,4.6 0.4,0.6 1.1,1.7 1,3 -0.2,2.2 -2.2,3.7 -2.7,4.1 -1.6,1.2 -2.3,0.8 -3.6,2.1 -0.5,0.5 -1.5,1.5 -1.3,2.7 0.1,0.7 0.7,1.2 1.2,1.6 1.8,1.5 3.4,0.9 4.5,2.2 0.7,0.8 0.7,1.8 0.7,2.6 0,0.5 -0.1,1.7 -1,2.9 -0.7,1 -1.4,1.2 -2.2,1.7 -2.2,1.6 -2.5,4.6 -2.6,6.1 -0.2,2.8 0.7,3.9 1.2,6.5 1.2,6 -2,11.2 -2.6,12.2 -3,4.9 -7.7,7.1 -9.5,8 -6.7,3.1 -14.6,2.8 -30.6,2.2 z"
   id="path794" />

		<path
   class="st17"
   d="m 728.8,-281.6 c 0,-7.8 -0.9,-21.1 -7.2,-35.3 -4.2,-9.5 -9.5,-16.6 -11.4,-19 -2.8,-3.6 -5.4,-6.4 -7.5,-8.5 l -1.6,-1.8 c 5.3,0.9 16.5,3.7 25.6,12.5 13,12.8 14.2,31.2 9.5,44.3 -1,2.7 -2.4,5.6 -4.5,8.6"
   id="path796" />

	</g>

	
		<image
   style="display:inline;overflow:visible;enable-background:new"
   width="512"
   height="512"
   xlink:href="../../../../../Users/onewe/Downloads/8AD70FCFB4817798.png"
   transform="matrix(-2.1319,0,0,2.1319,-608.7775,1245.0636)"
   id="image800">
	</image>

	<path
   class="st18"
   d="m -292.5,1723.9 c 0.1,-4.4 0.9,-12.6 6.8,-18 1.3,-1.2 3.9,-3.2 17.4,-6 5.1,-1.1 8.8,-1.6 12,-2.1"
   id="path802" />

	<path
   class="st18"
   d="m -540.1,1784.7 c -4.8,-25.6 1.2,-36.6 6.3,-41.8 4.6,-4.6 13.1,-7.9 30.2,-14.4 15.5,-5.9 19.1,-5.9 23.2,-10.7 5,-5.8 5.5,-13.3 6.3,-27.9 1.2,-21.8 -3.1,-23.2 0.6,-33.6 3.5,-9.5 6.4,-17.5 13.7,-23.8 1.9,-1.6 4.6,-3.6 5,-6.8 0.4,-4 -3.1,-7.3 -8.6,-12.1 -14.8,-12.7 -18.6,-13.2 -23,-19.2 -4,-5.6 -3.5,-9.1 -6.2,-19.4 0,0 -4.2,-16.2 -15,-35.7 -12.8,-23.3 -35.7,-35 -47.8,-41.2 -32.8,-16.8 -64.1,-16 -79,-14.6"
   id="path804" />

	<path
   class="st18"
   d="m -491.7,1048.7 c 6.3,-0.2 53.3,-1.3 72.2,29.4 2.2,3.6 4.3,8 5.7,13.4 l 1,2.3 c 1.6,4.8 3.3,11.6 3.9,19.1 0.4,4.5 0.6,7.4 -0.1,11.5 -1.1,6.5 -3.3,7.9 -3.1,13 0.2,4.9 2.3,8.7 3.4,10.6 2,3.5 4.2,5.6 6.3,7.6 0.7,0.6 14.1,13.7 20.4,24.7 0.9,1.5 2.2,4 1.5,6.8 -0.6,2.3 -2.3,4 -3.6,5.2 -1.8,1.8 -3.6,2.8 -5,3.6 -4.8,2.6 -6.2,1.8 -7.2,3.3 -1.4,2.1 0.7,4.5 2.6,11.2 0.4,1.4 1.3,4.5 1.6,7.8 0.3,2.9 0.7,12 -4.2,20.6 -1.5,2.6 -2.9,4.1 -3.4,7.2 -0.5,2.8 0,5 0.8,8 1.7,6.6 4.1,8.1 4,13 0,1.1 0,2.8 -0.9,4.8 -1.1,2.7 -3.1,4.7 -6.5,6.9 -6.3,4.1 -12.6,5.4 -14.7,5.9 -6.5,1.3 -10.3,1.5 -15.4,1.8 l -5.2,0.8 c -0.9,0.2 -2.4,0.5 -3.8,1 -2.6,0.8 -8.8,2.6 -14.5,7 -10.2,7.9 -13.7,18.8 -14.8,22.9 l -2.3,2.9 c -1.9,1.4 -4.7,3.3 -8.3,4.9 -2.7,1.2 -5,1.8 -9,2.8 -6.5,1.5 -10.4,2.4 -16,3.2 -9,1.2 -15.9,0.9 -21.7,0.8 -11.1,-0.3 -21,-1.6 -29.5,-3.2 l -2.2,-3 c 0.3,-16.6 3.4,-39.4 17.7,-58.9 7.3,-10 11.4,-10.6 25.5,-23.2 15.7,-13.9 40.6,-36 54.4,-70.7 9.4,-23.5 10.2,-43.8 10.5,-55.4 0.3,-10.9 -0.4,-19.8 -1.5,-26.9 l -0.5,-1.3 c -2,-3.6 -4.2,-7.2 -6.8,-10.8 -7.4,-10.5 -15.3,-17.7 -18.1,-20.1 -4.1,-3.6 -7.8,-6.4 -10.6,-8.4 l -2.3,-1.8"
   id="path806" />

	<path
   class="st18"
   d="m -462.1,1048.7 c 6.3,-0.2 53.3,-1.3 72.2,29.4 2.2,3.6 4.3,8 5.7,13.4 l 1,2.3 c 1.6,4.8 3.3,11.6 3.9,19.1 0.4,4.5 0.6,7.4 -0.1,11.5 -1.1,6.5 -3.3,7.9 -3.1,13 0.2,4.9 2.3,8.7 3.4,10.6 2,3.5 4.2,5.6 6.3,7.6 0.7,0.6 14.1,13.7 20.4,24.7 0.9,1.5 2.2,4 1.5,6.8 -0.6,2.3 -2.3,4 -3.6,5.2 -1.8,1.8 -3.6,2.8 -5,3.6 -4.8,2.6 -6.2,1.8 -7.2,3.3 -1.4,2.1 0.7,4.5 2.6,11.2 0.4,1.4 1.3,4.5 1.6,7.8 0.3,2.9 0.7,12 -4.2,20.6 -1.5,2.6 -2.9,4.1 -3.4,7.2 -0.5,2.8 0,5 0.8,8 1.7,6.6 4.1,8.1 4,13 0,1.1 0,2.8 -0.9,4.8 -1.1,2.7 -3.1,4.7 -6.5,6.9 -6.3,4.1 -12.6,5.4 -14.7,5.9 -6.5,1.3 -10.3,1.5 -15.4,1.8 l -5.2,0.8 c -0.9,0.2 -2.4,0.5 -3.8,1 -2.6,0.8 -8.8,2.6 -14.5,7 -10.2,7.9 -13.7,18.8 -14.8,22.9 l -2.3,2.9 c -1.9,1.4 -4.7,3.3 -8.3,4.9 -2.7,1.2 -5,1.8 -9,2.8 -6.5,1.5 -10.4,2.4 -16,3.2 -9,1.2 -15.9,0.9 -21.7,0.8 -11.1,-0.3 -21,-1.6 -29.5,-3.2 l -2.2,-3 c 0.3,-16.6 3.4,-39.4 17.7,-58.9 7.3,-10 11.4,-10.6 25.5,-23.2 15.7,-13.9 40.6,-36 54.4,-70.7 9.4,-23.5 10.2,-43.8 10.5,-55.4 0.3,-10.9 -0.4,-19.8 -1.5,-26.9 l -0.5,-1.3 c -2,-3.6 -4.2,-7.2 -6.8,-10.8 -7.4,-10.5 -15.3,-17.7 -18.1,-20.1 -4.1,-3.6 -7.8,-6.4 -10.6,-8.4 l -2.3,-1.8"
   id="path808" />

</g>
      <g
         id="Layer_5">
</g>
      <g
         id="Layer_9">
</g>
      <g
         id="Layer_12">
</g>
      <g
         id="Layer_13">
</g>
      <g
         id="Layer_14"
         class="st6">
	<g
   class="st7"
   id="g883">
		<path
   class="st0"
   d="M -32,266.5"
   id="path815" />

		<path
   class="st1"
   d="M 67,1.4"
   id="path817" />

		<text
   transform="translate(-96.2267,355.8851)"
   class="st3 st19 st20"
   id="text819">1Cademy</text>

		<g
   id="g827">
			<path
   class="st4"
   d="M 74.2,1.8 C 76.6,1.6 80,1.5 84.8,1.5 87.6,1.6 91.1,2 94.9,3 c 5.3,1.3 9.6,3.3 12.7,5.1 l 0.1,0.1 c 2.6,1.6 6.2,3.9 10.3,7.2 5.7,4.6 16.3,13.4 22.3,28.3 1.2,3 2.8,7 3.5,12.5 0.6,4.8 0.3,9.1 -0.2,17.8 -0.5,7.2 -0.8,8.2 -0.4,11.6 0.3,2.8 0.7,7.2 3.4,11.6 2,3.3 3.8,4 10.3,10.3 5.6,5.4 4.3,4.8 7.7,7.8 6.7,5.9 10.1,6.6 12.3,11.6 0.4,0.9 0.6,1.7 0.7,2 0.1,0.5 1.1,4.4 -0.4,8.1 -1,2.4 -1.9,1.9 -5.2,5.8 -1.9,2.2 -3.2,3.9 -4.1,6.4 -0.3,0.9 -1.1,3.5 -0.8,6.9 0.2,1.8 0.4,3.9 1.7,5.8 2,3 4.5,2.4 6.4,5.7 0.4,0.8 1.2,2.1 1.1,3.7 -0.2,2.7 -2.4,4.6 -3,5.1 -1.8,1.5 -2.6,1 -4,2.7 -0.5,0.6 -1.7,1.9 -1.4,3.4 0.1,0.9 0.8,1.5 1.3,2 2,1.9 3.8,1.1 5,2.7 0.8,1 0.8,2.3 0.8,3.2 0,0.6 -0.1,2.2 -1.1,3.7 -0.8,1.2 -1.6,1.5 -2.4,2.2 -2.4,2.1 -2.7,5.7 -2.9,7.6 -0.3,3.5 0.8,4.9 1.4,8.1 1.3,7.5 -2.2,14 -2.9,15.3 -3.3,6.1 -8.5,8.9 -10.5,10 -7.3,3.8 -16.1,3.5 -33.8,2.7 -0.8,0 -3.2,-0.1 -6.4,0.2 0,0 -2.4,0.2 -4.8,0.7 -2.6,0.5 -9,1.8 -15,5.6 -10.9,6.9 -15.4,17.3 -16.8,21.2 l -2.6,2.6 c -2,1.2 -4.9,2.9 -8.7,4.1 -2.8,0.9 -5.1,1.4 -9.2,2 -6.7,0.9 -10.6,1.5 -16.2,1.7 -9.1,0.4 -15.9,-0.5 -21.7,-1.1 -10,-1.1 -19,-3 -26.8,-5 l 9.7,1 c 4.6,0.4 9.8,0.7 16.2,0.5 5.7,-0.2 9.7,-0.8 16.4,-1.7 4.1,-0.6 6.4,-1 9.2,-1.9 3.8,-1.2 6.8,-2.8 8.8,-4 l 2.6,-2.6 c 1.5,-3.8 6,-13.9 17,-20.6 6.1,-3.7 12.5,-4.9 15.2,-5.5 2.4,-0.5 4.9,-0.7 4.9,-0.7 3.2,-0.3 5.6,-0.2 6.4,-0.1 17.8,0.7 26.7,1.1 34.1,-2.6 2.1,-1 7.3,-3.8 10.6,-9.7 0.7,-1.2 4.2,-7.5 2.9,-14.8 -0.6,-3.1 -1.6,-4.5 -1.4,-7.9 0.1,-1.9 0.4,-5.4 2.9,-7.4 0.8,-0.7 1.6,-0.9 2.4,-2.1 1,-1.4 1.1,-3 1.1,-3.6 0,-0.9 0,-2.1 -0.8,-3.1 -1.2,-1.6 -3,-0.8 -5,-2.6 -0.5,-0.5 -1.1,-1.1 -1.3,-2 -0.2,-1.5 0.9,-2.8 1.4,-3.3 1.4,-1.6 2.3,-1.2 4,-2.6 0.6,-0.5 2.9,-2.3 3,-4.9 0.1,-1.6 -0.6,-2.9 -1.1,-3.6 -1.9,-3.2 -4.4,-2.6 -6.5,-5.6 -1.3,-1.9 -1.5,-3.9 -1.7,-5.7 -0.3,-3.3 0.5,-5.8 0.8,-6.7 0.9,-2.5 2.2,-4.1 4.1,-6.2 3.3,-3.9 4.2,-3.4 5.2,-5.7 1.6,-3.5 0.6,-7.4 0.4,-7.9 -0.1,-0.3 -0.3,-1.1 -0.7,-2 -2.2,-4.9 -5.7,-5.6 -12.4,-11.3 -3.4,-2.9 -2.1,-2.3 -7.7,-7.6 -6.6,-6.1 -8.3,-6.8 -10.4,-10 -2.7,-4.2 -3.1,-8.6 -3.4,-11.2 -0.4,-3.3 0,-4.3 0.5,-11.2 0.6,-8.4 0.9,-12.7 0.2,-17.3 -0.7,-5.4 -2.3,-9.3 -3.5,-12.2 C 112.6,31.1 101.9,22.6 96.2,18 93.5,15.9 91,14.2 88.9,12.8 87.1,11.2 84.3,9 80.6,7.1 74.1,4 69,3.6 69.1,2.8 69.1,2.5 69.7,2.3 71.6,2 Z"
   id="path821" />

			<path
   class="st4"
   d="m 57.1,276.7 c -4.9,0.7 -8.4,1.1 -12.8,1.4"
   id="path823" />

			<path
   class="st4"
   d="m -5.2,272.1 c -0.1,0 -0.2,0 -0.2,-0.1 l 9.7,1 c 4.6,0.4 9.8,0.7 16.2,0.5 5.7,-0.2 9.7,-0.8 16.4,-1.7 4.1,-0.6 6.4,-1 9.2,-1.9 3.8,-1.2 6.8,-2.8 8.8,-4 l 2.6,-2.6 c 1.5,-3.8 6,-13.9 17,-20.6 6.1,-3.7 12.5,-4.9 15.2,-5.5 2.4,-0.5 4.9,-0.7 4.9,-0.7 3.2,-0.3 5.6,-0.2 6.4,-0.1 17.8,0.7 26.7,1.1 34.1,-2.6 2.1,-1 7.3,-3.8 10.6,-9.7 0.7,-1.2 4.2,-7.5 2.9,-14.8 -0.6,-3.1 -1.6,-4.5 -1.4,-7.9 0.1,-1.9 0.4,-5.4 2.9,-7.4 0.8,-0.7 1.6,-0.9 2.4,-2.1 1,-1.4 1.1,-3 1.1,-3.6 0,-0.9 0,-2.1 -0.8,-3.1 -1.2,-1.6 -3,-0.8 -5,-2.6 -0.5,-0.5 -1.1,-1.1 -1.3,-2 -0.2,-1.5 0.9,-2.8 1.4,-3.3 1.4,-1.6 2.3,-1.2 4,-2.6 0.6,-0.5 2.9,-2.3 3,-4.9 0.1,-1.6 -0.6,-2.9 -1.1,-3.6 -1.9,-3.2 -4.4,-2.6 -6.5,-5.6 -1.3,-1.9 -1.5,-3.9 -1.7,-5.7 -0.3,-3.3 0.5,-5.8 0.8,-6.7 0.9,-2.5 2.2,-4.1 4.1,-6.2 3.3,-3.9 4.2,-3.4 5.2,-5.7 1.6,-3.5 0.6,-7.4 0.4,-7.9 -0.1,-0.3 -0.3,-1.1 -0.7,-2 -2.2,-4.9 -5.7,-5.6 -12.4,-11.3 -3.4,-2.9 -2.1,-2.3 -7.7,-7.6 -6.6,-6.1 -8.3,-6.8 -10.4,-10 -2.7,-4.2 -3.1,-8.6 -3.4,-11.2 -0.4,-3.3 0,-4.3 0.5,-11.2 0.6,-8.4 0.9,-12.7 0.2,-17.3 -0.7,-5.4 -2.3,-9.3 -3.5,-12.2 C 112.6,31.1 101.9,22.6 96.2,18 93.5,15.9 91,14.2 88.9,12.8 87.1,11.2 84.3,9 80.6,7.1 74.2,4 69.1,3.6 69.2,2.8 69.2,2.5 69.8,2.3 71.7,2 L 74.3,1.8 C 76.7,1.6 80.1,1.5 84.9,1.5 87.7,1.6 91.2,2 95,3 c 5.3,1.3 9.6,3.3 12.7,5.1 l 0.1,0.1 c 2.6,1.6 6.2,3.9 10.3,7.2 5.7,4.6 16.3,13.4 22.3,28.3 1.2,3 2.8,7 3.5,12.5 0.6,4.8 0.3,9.1 -0.2,17.8 -0.5,7.2 -0.8,8.2 -0.4,11.6 0.3,2.8 0.7,7.2 3.4,11.6 2,3.3 3.8,4 10.3,10.3 5.6,5.4 4.3,4.8 7.7,7.8 6.7,5.9 10.1,6.6 12.3,11.6 0.4,0.9 0.6,1.7 0.7,2 0.1,0.5 1.1,4.4 -0.4,8.1 -1,2.4 -1.9,1.9 -5.2,5.8 -1.9,2.2 -3.2,3.9 -4.1,6.4 -0.3,0.9 -1.1,3.5 -0.8,6.9 0.2,1.8 0.4,3.9 1.7,5.8 2,3 4.5,2.4 6.4,5.7 0.4,0.8 1.2,2.1 1.1,3.7 -0.2,2.7 -2.4,4.6 -3,5.1 -1.8,1.5 -2.6,1 -4,2.7 -0.5,0.6 -1.7,1.9 -1.4,3.4 0.1,0.9 0.8,1.5 1.3,2 2,1.9 3.8,1.1 5,2.7 0.8,1 0.8,2.3 0.8,3.2 0,0.6 -0.1,2.2 -1.1,3.7 -0.8,1.2 -1.6,1.5 -2.4,2.2 -2.4,2.1 -2.7,5.7 -2.9,7.6 -0.3,3.5 0.8,4.9 1.4,8.1 1.3,7.5 -2.2,14 -2.9,15.3 -3.3,6.1 -8.5,8.9 -10.5,10 -7.3,3.8 -16.1,3.5 -33.8,2.7 -0.8,0 -3.2,-0.1 -6.4,0.2 0,0 -2.4,0.2 -4.8,0.7 -2.6,0.5 -9,1.8 -15,5.6 -10.9,6.9 -15.4,17.3 -16.8,21.2 l -2.6,2.6 c -2,1.2 -4.9,2.9 -8.7,4.1 -2.8,0.9 -5.1,1.4 -9.2,2 -0.8,0.1 -1.5,0.2 -2.2,0.3"
   id="path825" />

		</g>

		<path
   class="st1"
   d="M -16.4,242"
   id="path829" />

		<path
   class="st3"
   d="m 57.8,276.6 c 0.4,-0.1 0.9,-0.1 1.4,-0.2 4.1,-0.6 6.4,-1 9.2,-2 3.8,-1.3 6.7,-2.9 8.7,-4.1 l 2.6,-2.6 c 1.5,-3.9 6,-14.3 16.8,-21.2 6,-3.8 12.4,-5.1 15,-5.6 2.4,-0.5 4.8,-0.7 4.8,-0.7 3.2,-0.3 5.5,-0.2 6.4,-0.1 3.4,0.1 6.4,0.3 9.2,0.4 l 0.6,-0.1 c 1.1,0.1 2.3,0.1 3.5,0.1 6.9,0 13.1,-1 18.5,-2.4 l 0.6,-0.1 c 0.4,-0.2 0.9,-0.4 1.3,-0.6 2,-1.1 7.3,-3.9 10.5,-10 0.6,-1.2 4.1,-7.7 2.9,-15.3 -0.6,-3.2 -1.6,-4.6 -1.4,-8.1 0.1,-1.9 0.4,-5.6 2.9,-7.6 0.8,-0.7 1.6,-1 2.4,-2.2 1,-1.5 1.1,-3.1 1.1,-3.7 0,-0.9 0,-2.2 -0.8,-3.2 -1.2,-1.6 -2.9,-0.8 -5,-2.7 -0.5,-0.5 -1.1,-1.1 -1.3,-2 -0.2,-1.5 0.9,-2.8 1.4,-3.4 1.4,-1.6 2.2,-1.2 4,-2.7 0.6,-0.5 2.8,-2.4 3,-5.1 0.1,-1.7 -0.6,-3 -1.1,-3.7 -1.9,-3.3 -4.4,-2.7 -6.4,-5.7 -1.3,-1.9 -1.5,-4 -1.7,-5.8 -0.3,-3.4 0.5,-6 0.8,-6.9 0.9,-2.6 2.2,-4.2 4.1,-6.4 3.3,-4 4.2,-3.5 5.2,-5.8 1.5,-3.6 0.6,-7.6 0.4,-8.1 -0.1,-0.3 -0.3,-1.1 -0.7,-2 -2.2,-5 -5.7,-5.7 -12.3,-11.6 -3.4,-3 -2.1,-2.4 -7.7,-7.8 -6.5,-6.3 -8.2,-7 -10.3,-10.3 -2.7,-4.4 -3.1,-8.8 -3.4,-11.6 -0.4,-3.4 0,-4.4 0.4,-11.6 0.6,-8.7 0.8,-13 0.2,-17.8 -0.7,-5.5 -2.3,-9.5 -3.5,-12.5 -6,-14.9 -16.6,-23.7 -22.3,-28.3 -4,-3.2 -7.6,-5.6 -10.3,-7.2 L 107.4,8.2 C 104.3,6.4 100,4.5 94.6,3.1 90.8,2.1 87.4,1.8 84.5,1.6 c -1.8,0 -3.3,0 -4.8,0.1 l -5.8,0.7 3.5,-0.7 c 5.4,-0.9 10,-0.8 13.3,-0.6 10.4,0.8 18.3,4.3 24.3,7 3.9,1.8 7.4,3.7 10.4,5.6 l 0.6,0.4 c 3.3,2.2 6.7,4.7 10.1,7.5 1.6,1.3 3.2,2.7 4.6,4 l 0.1,0.1 c 6.5,4.7 15.1,12.1 20.7,23.2 1.4,2.8 3.3,6.6 4.2,11.9 0.8,4.5 0.7,8.7 0.4,17.1 -0.3,6.9 -0.6,7.9 -0.1,11.1 0.4,2.6 1,6.9 4.1,11 2.3,3.1 4.2,3.7 11.6,9.5 6.3,5 4.9,4.5 8.6,7.2 7.5,5.4 11.3,5.9 13.9,10.7 0.5,0.9 0.8,1.6 0.9,1.9 0.2,0.5 1.4,4.2 -0.2,7.8 -1,2.3 -2,1.9 -5.5,5.8 -1.9,2.2 -3.3,3.8 -4.2,6.3 -0.3,0.9 -1.1,3.4 -0.6,6.7 0.3,1.8 0.5,3.7 2.1,5.6 2.3,2.8 5,2.1 7.2,5.2 0.5,0.7 1.4,1.9 1.3,3.6 -0.1,2.6 -2.5,4.5 -3.1,5 -1.9,1.5 -2.8,1.1 -4.3,2.7 -0.5,0.6 -1.8,1.9 -1.4,3.4 0.2,0.9 0.9,1.4 1.5,1.9 2.3,1.8 4.1,0.9 5.5,2.4 0.9,1 0.9,2.2 0.9,3 0,0.6 0,2.1 -1,3.6 -0.8,1.2 -1.7,1.5 -2.6,2.2 -2.6,2.1 -2.8,5.6 -2.9,7.5 -0.2,3.4 1.1,4.7 1.8,7.7 1.7,7.2 -1.9,13.6 -2.6,14.8 -3.4,6 -8.9,8.9 -11.1,10 -1.1,0.5 -2.2,1 -3.4,1.4 l -14.2,3.1 c -10.8,3.7 -19.3,4.5 -25.1,4.6 -4.5,0 -11.8,-0.4 -20.7,2.6 -2.6,0.9 -4.6,1.8 -5.9,2.4 l -0.4,0.3 c -8.3,6.6 -11.8,14.5 -13,17.8 l -2.7,2.6 c -2.1,1.3 -5.3,3 -9.4,4.3 -3,1 -5.5,1.5 -9.9,2.2 -7.2,1.2 -11.5,1.9 -17.7,2.3 -3.1,0.2 -6,0.3 -8.7,0.3 -3.2,0 -6.3,0 -9.5,0"
   id="path831" />

		<circle
   class="st3"
   cx="-59"
   cy="108.7"
   r="16.6"
   id="circle833" />

		<g
   id="g837">
			<path
   class="st5"
   d="m -57.3,107.8 39.4,79.7 -42.9,-77.9 c -0.5,-1 -0.2,-2.2 0.8,-2.7 1,-0.5 2.2,-0.1 2.7,0.9 0,0 0,0 0,0 z"
   id="path835" />

		</g>

		<circle
   class="st3"
   cx="-37"
   cy="33.5"
   r="13.5"
   id="circle839" />

		<circle
   class="st3"
   cx="-19"
   cy="182.39999"
   r="13.5"
   id="circle841" />

		<g
   id="g845">
			<path
   class="st5"
   d="M -18.3,180.4 42.8,207 -19.8,184.1 c -1,-0.4 -1.6,-1.5 -1.2,-2.6 0.4,-1 1.5,-1.6 2.6,-1.2 0.1,0.1 0.1,0.1 0.1,0.1 z"
   id="path843" />

		</g>

		<g
   id="g849">
			<path
   class="st5"
   d="M -17,182.1 -4,253.3 -21,183 c -0.3,-1.1 0.4,-2.1 1.5,-2.4 1.1,-0.3 2.1,0.4 2.4,1.5 0,0 0,0 0.1,0 z"
   id="path847" />

		</g>

		<circle
   class="st3"
   cx="41.400002"
   cy="207"
   r="8.6999998"
   id="circle851" />

		<circle
   class="st3"
   cx="-4.0999999"
   cy="249.2"
   r="8.6999998"
   id="circle853" />

		<g
   id="g857">
			<path
   class="st5"
   d="M -20,180.7 32.1,146.5 -17.7,184 c -0.9,0.7 -2.1,0.5 -2.8,-0.4 -0.7,-0.9 -0.5,-2.1 0.4,-2.8 0.1,0 0.1,0 0.1,-0.1 z"
   id="path855" />

		</g>

		<circle
   class="st3"
   cx="27.700001"
   cy="149.8"
   r="8.6999998"
   id="circle859" />

		<g
   id="g863">
			<path
   class="st5"
   d="M -35.1,34 -59,110.3 -38.9,32.9 c 0.3,-1.1 1.4,-1.7 2.4,-1.4 1.1,0.3 1.7,1.3 1.4,2.5 0,-0.1 0,0 0,0 z"
   id="path861" />

		</g>

		<g
   id="g867">
			<path
   class="st5"
   d="M -36.4,30.9 51.9,62.2 -37.7,34.6 c -1.1,-0.3 -1.7,-1.4 -1.3,-2.5 0.4,-1 1.5,-1.6 2.6,-1.2 0,0 0,0 0,0 z"
   id="path865" />

		</g>

		<circle
   class="st3"
   cx="52.700001"
   cy="62.299999"
   r="8.6999998"
   id="circle869" />

		<g
   id="g873">
			<path
   class="st5"
   d="M -35.4,31.6 16.3,101.1 -38.6,34 c -0.7,-0.9 -0.6,-2.1 0.3,-2.8 0.8,-0.7 2.1,-0.6 2.9,0.4 -0.1,-0.1 -0.1,-0.1 0,0 z"
   id="path871" />

		</g>

		<circle
   class="st3"
   cx="16.1"
   cy="102.1"
   r="8.6999998"
   id="circle875" />

		<g
   id="g879">
			<path
   class="st5"
   d="M -37.6,30.9 46.8,9.5 -36.5,34.7 c -1.1,0.3 -2.2,-0.3 -2.5,-1.3 -0.3,-1.1 0.3,-2.2 1.4,-2.5 0,0 0,0 0,0 z"
   id="path877" />

		</g>

		<circle
   class="st3"
   cx="47.200001"
   cy="8.6999998"
   r="8.6999998"
   id="circle881" />

	</g>

</g>
    </g>
  </g>
  <style
     type="text/css"
     id="style9">
	.st0{fill:none;stroke:#F27F2D;stroke-width:4;stroke-linecap:round;stroke-linejoin:round;stroke-miterlimit:10;}
	.st1{fill:none;stroke:#F2AA79;stroke-miterlimit:10;}
	.st2{enable-background:new    ;}
	.st3{fill:#F37F2F;}
	.st4{fill:#F2AA79;}
	.st5{fill:#F27F2D;}
	.st6{display:none;}
	.st7{display:inline;}
	.st8{fill:#EE7E2A;}
	.st9{display:inline;fill:#EF7E2B;}
	.st10{fill:#EF7E2B;}
	.st11{fill:#F89A1F;}
	.st12{display:inline;fill:#F89A1C;}
	.st13{fill:#F89A1C;}
	.st14{display:inline;fill:#F2AA79;}
	.st15{display:inline;fill:none;stroke:#F37F2F;stroke-linecap:round;stroke-miterlimit:10;}
	.st16{display:inline;fill:#F37F2F;}
	.st17{fill:#4E78BC;}
	.st18{display:inline;fill:none;stroke:#F89A1F;stroke-linecap:round;stroke-linejoin:round;stroke-miterlimit:10;}
	.st19{font-family:'AGaramondPro-Regular';}
	.st20{font-size:78.6779px;}
</style>
</svg>
