<?xml version="1.0" encoding="utf-8"?>
<!-- Generator: Adobe Illustrator 19.0.0, SVG Export Plug-In . SVG Version: 6.00 Build 0)  -->
<svg version="1.1" id="Layer_1" xmlns="http://www.w3.org/2000/svg" xmlns:xlink="http://www.w3.org/1999/xlink" x="0px" y="0px"
	 viewBox="-393 31 500 500" style="enable-background:new -393 31 500 500;" xml:space="preserve">
<style type="text/css">
	.st0{fill:#EA4335;}
	.st1{fill:#4285F4;}
	.st2{fill:#34A853;}
	.st3{fill:#FBBC05;}
</style>
<g>
	<path class="st0" d="M-93.9,215h11.1l31.7-31.7l1.6-13.5c-59-52.1-149.2-46.5-201.3,12.5c-14.5,16.4-25,35.9-30.7,57
		c3.5-1.4,7.5-1.7,11.1-0.7l63.5-10.5c0,0,3.2-5.3,4.9-5c28.2-31,75.7-34.6,108.3-8.2L-93.9,215z"/>
	<path class="st1" d="M-5.8,239.4c-7.3-26.9-22.3-51-43.1-69.5l-44.5,44.5c18.8,15.4,29.5,38.5,29.1,62.8v7.9
		c21.9,0,39.6,17.7,39.6,39.6c0,21.9-17.7,39.6-39.6,39.6h-79.3l-7.9,8V420l7.9,7.9h79.3c56.9,0.4,103.4-45.3,103.9-102.3
		C39.8,291.1,22.8,258.7-5.8,239.4z"/>
	<path class="st2" d="M-223,427.4h79.3V364H-223c-5.6,0-11.2-1.2-16.4-3.6l-11.1,3.5l-32,31.7l-2.8,11.1
		C-267.3,420.2-245.5,427.5-223,427.4z"/>
	<path class="st3" d="M-223,221.6c-56.9,0.3-102.8,46.8-102.5,103.7c0.2,31.8,15,61.7,40.2,81.1l46-46c-19.9-9-28.8-32.5-19.8-52.4
		c9-19.9,32.5-28.8,52.4-19.8c8.8,4,15.8,11,19.8,19.8l46-46C-160.4,236.4-190.8,221.5-223,221.6z"/>
</g>
</svg>
