<svg width="291" height="228" viewBox="0 0 291 228" fill="none" xmlns="http://www.w3.org/2000/svg">
<path d="M263.22 45.2101C310.06 92.0501 295.59 156.07 230.9 188.21C166.21 220.35 75.8004 208.48 29.0004 161.64C-17.7996 114.8 -3.34961 50.7801 61.3404 18.6401C126.03 -13.4999 216.4 -1.6199 263.22 45.2101Z" fill="#ECECEC"/>
<path d="M290.661 108.55L289.911 129.64C289.799 132.655 289.501 135.661 289.021 138.64L289.781 117.55C290.263 114.571 290.556 111.565 290.661 108.55Z" fill="#949494"/>
<path d="M289.782 117.59L289.022 138.68C284.592 166.31 264.412 192.29 230.142 209.32L228.852 209.95L229.612 188.86L230.902 188.23C265.172 171.23 285.342 145.23 289.782 117.59Z" fill="#999999"/>
<path d="M229.611 188.86L228.851 209.95C219.131 214.645 208.976 218.382 198.531 221.11L199.291 200.02C209.733 197.283 219.887 193.546 229.611 188.86Z" fill="#949494"/>
<path d="M199.291 200L198.531 221.09C189.016 223.592 179.32 225.344 169.531 226.33L170.291 205.24C180.08 204.253 189.776 202.501 199.291 200Z" fill="#8F8F8F"/>
<path d="M170.281 205.26L169.521 226.35C158.591 227.465 147.587 227.685 136.621 227.01L137.381 205.92C148.347 206.595 159.351 206.375 170.281 205.26Z" fill="#8A8A8A"/>
<path d="M137.381 205.92L136.621 227C94.9106 224.45 54.6206 209.14 28.2106 182.72C8.88064 163.4 0.000639021 141.14 0.770639 119.4L1.53065 98.3101C0.750649 120.05 9.63064 142.31 28.9606 161.64C55.3806 188.06 95.6606 203.36 137.381 205.92Z" fill="#858585"/>
<path d="M137.47 171.21C137.543 171.167 137.626 171.144 137.71 171.144C137.795 171.144 137.878 171.167 137.95 171.21C138.13 171.36 139.5 172.6 141.31 174.21C143.12 175.82 147.12 179.21 150.17 181.73C151.84 183.14 152.01 183.38 154.25 182.38C154.44 182.286 154.649 182.237 154.86 182.237C155.072 182.237 155.281 182.286 155.47 182.38C155.7 182.57 155.27 183.06 155.02 183.25C154.77 183.44 152.9 184.68 151.74 185.55C149.45 187.28 148.1 188.55 147.83 188.75C147.4 189.07 146.95 189.21 146.72 189.01C146.49 188.81 146.59 188.43 147.05 187.83C148.31 186.27 147.81 186.01 147.05 185.2C146.45 184.56 142.62 181.06 139.8 178.66C138.73 177.76 137.61 176.66 137.17 176.44C136.914 176.261 136.602 176.18 136.29 176.21C135.797 176.416 135.32 176.657 134.86 176.93C134.43 177.13 133.86 177.22 133.6 177.03C133.34 176.84 133.6 176.44 133.84 176.2C134.876 175.069 135.794 173.836 136.58 172.52C136.791 172.031 137.093 171.586 137.47 171.21Z" fill="#E7792D"/>
<path d="M153 158.56C154.273 157.594 155.656 156.782 157.12 156.14C157.875 155.802 158.606 155.414 159.31 154.98C159.484 154.94 159.665 154.942 159.838 154.983C160.011 155.025 160.173 155.106 160.31 155.22C161.17 155.87 161.98 156.52 162.84 157.16C163.39 157.59 163.71 158.16 163.39 158.4C162.96 158.496 162.51 158.435 162.12 158.23C161.212 157.828 160.233 157.614 159.24 157.6C157.327 157.584 155.454 158.148 153.87 159.22C149.64 162.41 151.04 166.22 154.87 169.53C156.393 170.879 158.176 171.9 160.11 172.53C164.29 173.74 167.33 172.91 169.41 171.35C170.218 170.74 170.874 169.954 171.33 169.05C171.756 167.898 171.756 166.632 171.33 165.48C171.1 164.72 171.04 164.32 171.33 164.12C171.62 163.92 172.33 164.52 172.51 164.81C173.009 165.533 173.466 166.285 173.88 167.06C173.956 167.308 173.98 167.57 173.95 167.828C173.921 168.086 173.839 168.335 173.71 168.56C172.7 170.174 171.385 171.577 169.84 172.69C166.744 175.096 162.921 176.376 159 176.32C156.118 176.199 153.353 175.146 151.12 173.32C150.002 172.476 149.125 171.352 148.577 170.062C148.03 168.772 147.831 167.361 148 165.97C148.54 162.7 151 160.1 153 158.56Z" fill="#E7792D"/>
<path d="M186.59 156.39C186.776 156.44 186.95 156.528 187.1 156.65C187.58 157.06 187.55 159.15 185.91 160.39C185.465 160.793 184.917 161.063 184.327 161.171C183.737 161.279 183.128 161.22 182.57 161C182.518 160.977 182.462 160.965 182.405 160.965C182.348 160.965 182.292 160.977 182.24 161C182.234 161.013 182.231 161.026 182.231 161.04C182.231 161.054 182.234 161.068 182.24 161.08C181.997 161.902 181.661 162.694 181.24 163.44C180.985 163.88 180.645 164.264 180.24 164.57C179.24 165.34 176.91 165.23 175.44 163.98C175.006 163.593 174.714 163.072 174.61 162.5C174.6 162.083 174.715 161.672 174.94 161.32C175.34 160.58 177.3 158.05 177.74 157.44C177.796 157.358 177.826 157.26 177.826 157.16C177.826 157.06 177.796 156.963 177.74 156.88C177.55 156.66 176.29 155.51 175.93 155.24C175.46 154.895 174.895 154.702 174.312 154.688C173.729 154.674 173.156 154.838 172.67 155.16C172.412 155.334 172.197 155.563 172.04 155.83C172.04 155.94 172.11 156.1 173.14 156.98C173.27 157.09 173.27 157.13 173.27 157.21C172.849 158.259 172.326 159.263 171.71 160.21C171.594 160.276 171.463 160.311 171.33 160.311C171.197 160.311 171.066 160.276 170.95 160.21C170.22 159.59 170.05 158.62 170.83 156.26C171.205 155.167 171.835 154.18 172.67 153.38C173.295 152.902 174.017 152.565 174.785 152.392C175.553 152.22 176.35 152.216 177.12 152.38C178.181 152.578 179.165 153.07 179.96 153.8C180.96 154.63 183.75 157.17 184.02 157.41C184.281 157.615 184.603 157.727 184.935 157.727C185.267 157.727 185.589 157.615 185.85 157.41C186.083 157.131 186.287 156.83 186.46 156.51C186.472 156.478 186.493 156.451 186.52 156.43C186.52 156.43 186.53 156.39 186.59 156.39ZM181.26 160.2C181.06 159.99 179.98 158.94 178.97 158.09C178.912 158.046 178.846 158.015 178.775 157.998C178.705 157.981 178.631 157.978 178.56 157.99C178.011 158.547 177.576 159.206 177.28 159.93C177.18 160.41 177.12 160.57 177.81 161.15C178.224 161.511 178.738 161.739 179.284 161.803C179.83 161.867 180.383 161.765 180.87 161.51C181.13 161.284 181.338 161.005 181.48 160.69C181.48 160.54 181.37 160.33 181.26 160.2Z" fill="#E7792D"/>
<path d="M142.731 139.81L142.631 139.85L143.091 139.57L142.731 139.81Z" fill="#E7792D"/>
<path d="M73.3504 52.2601C74.196 51.6587 75.2128 51.3456 76.2503 51.3673C77.2877 51.3889 78.2905 51.744 79.1104 52.3801C79.468 52.6559 79.7544 53.0132 79.9457 53.4223C80.137 53.8313 80.2277 54.2803 80.21 54.7315C80.1924 55.1828 80.0671 55.6233 79.8444 56.0162C79.6218 56.4091 79.3084 56.743 78.9304 56.9901C78.2767 57.4506 77.5199 57.7434 76.7265 57.8428C75.9331 57.9422 75.1275 57.8451 74.3804 57.5601L74.2304 57.5001C73.8475 57.34 73.4903 57.1243 73.1704 56.8601C72.8128 56.5854 72.5263 56.2289 72.3349 55.8206C72.1435 55.4123 72.0529 54.9641 72.0705 54.5135C72.0881 54.0629 72.2135 53.6232 72.4362 53.2311C72.6589 52.839 72.9724 52.506 73.3504 52.2601Z" fill="#E7792D"/>
<path d="M92.4514 65.4497C93.2993 64.8527 94.3162 64.5433 95.3528 64.5667C96.3895 64.5901 97.3914 64.9451 98.2115 65.5797C98.5685 65.8551 98.8543 66.2122 99.0448 66.621C99.2354 67.0297 99.3251 67.4782 99.3065 67.9288C99.2879 68.3794 99.1615 68.8189 98.9379 69.2106C98.7143 69.6022 98.4 69.9346 98.0215 70.1796C97.1746 70.778 96.1583 71.0892 95.1217 71.0676C94.085 71.046 93.0826 70.6927 92.2614 70.0596C92.0043 69.8411 91.7818 69.5849 91.6014 69.2996L91.5315 69.1897C91.1821 68.5658 91.0827 67.8325 91.2535 67.1381C91.4243 66.4438 91.8525 65.8403 92.4514 65.4497Z" fill="#E7792D"/>
<path d="M59.0003 79C59.3283 79.1808 59.6366 79.3953 59.9203 79.64C60.1281 79.8146 60.3221 80.0052 60.5003 80.21L57.3203 81.33L59.0003 79Z" fill="#E7792D"/>
<path d="M60.45 80.1899L91.53 69.1899L91.6 69.2999L61.19 81.2999L58 82.5699L56.5 82.3599L57.25 81.3099L60.45 80.1899Z" fill="#E6792B"/>
<path d="M61.5815 83.0698L58.0215 82.5698L61.1915 81.3198C61.4471 81.8679 61.5802 82.4651 61.5815 83.0698Z" fill="#E7792D"/>
<path d="M54.2416 82.5297L54.3515 82.3896C54.2095 82.4972 54.1132 82.6543 54.0816 82.8297C54.0616 82.9562 54.0826 83.0859 54.1416 83.1996C54.1758 83.2658 54.2196 83.3264 54.2716 83.3796C54.1725 83.268 54.1177 83.1239 54.1177 82.9746C54.1177 82.8253 54.1725 82.6813 54.2716 82.5696L54.2416 82.5297Z" fill="#E6792B"/>
<path d="M74.2318 57.5L74.3818 57.56L59.0018 79L57.3218 81.33L56.5718 82.38L55.8918 83.33L55.7218 83.5C55.5449 83.6224 55.3368 83.6918 55.1218 83.7C54.9429 83.7108 54.764 83.6763 54.6018 83.6C54.4976 83.55 54.4029 83.4824 54.3218 83.4C54.2227 83.2884 54.168 83.1443 54.168 82.995C54.168 82.8457 54.2227 82.7017 54.3218 82.59L54.4518 82.41L57.6618 78.41L74.2318 57.5Z" fill="#E6792B"/>
<path d="M54.1708 83.2597C54.2497 83.3833 54.3602 83.4834 54.4908 83.5497L57.4308 87.8497C56.2771 88.2003 55.056 88.2679 53.8707 88.0468C52.6853 87.8258 51.5706 87.3226 50.6208 86.5797C50.0649 86.1524 49.6197 85.5978 49.3226 84.9626C49.0256 84.3274 48.8853 83.6302 48.9138 82.9296C48.9422 82.229 49.1384 81.5454 49.486 80.9364C49.8335 80.3273 50.3221 79.8106 50.9108 79.4297C51.864 78.7554 52.9594 78.3091 54.1124 78.1253C55.2655 77.9415 56.4453 78.0251 57.5608 78.3697L54.3508 82.3697C54.2088 82.4773 54.1125 82.6344 54.0809 82.8097C54.0608 82.9363 54.0819 83.066 54.1409 83.1797L54.1708 83.2597Z" fill="#E7792D"/>
<path d="M54.1406 83.1997C54.1748 83.2658 54.2186 83.3265 54.2706 83.3797C54.3192 83.4316 54.3728 83.4785 54.4306 83.5197C54.3252 83.4541 54.2362 83.3652 54.1706 83.2597L54.1406 83.1997Z" fill="#E6792B"/>
<path d="M58.8102 87.2697L56.7402 83.8496L61.3903 84.3196C61.0564 85.3047 60.4237 86.1611 59.5803 86.7697C59.3376 86.957 59.0801 87.1242 58.8102 87.2697Z" fill="#E7792D"/>
<path d="M54.4902 83.5498C54.6687 83.6437 54.8688 83.6885 55.0703 83.6798L56.7402 83.8498L58.8102 87.2698L68.7003 103.61L71.7003 108.52L72.4003 109.68L71.6202 108.54L68.3403 103.76L57.4603 87.8498L54.4902 83.5498Z" fill="#E6792B"/>
<path d="M61.5811 83.0699L91.5311 87.2399V87.3799L61.4411 84.3199L56.7911 83.8499L55.1211 83.6799C55.3361 83.6717 55.5442 83.6023 55.7211 83.4799L55.8911 83.3099L56.5711 82.3599L58.0711 82.5699L61.5811 83.0699Z" fill="#E6792B"/>
<path d="M92.6806 85.6801C93.5285 85.0832 94.5454 84.7737 95.582 84.7971C96.6187 84.8205 97.6205 85.1756 98.4406 85.8101C98.7977 86.0856 99.0835 86.4427 99.2741 86.8515C99.4646 87.2602 99.5543 87.7087 99.5357 88.1593C99.5171 88.6099 99.3907 89.0495 99.1671 89.4411C98.9435 89.8328 98.6292 90.165 98.2506 90.4101C97.4038 91.0084 96.3875 91.3196 95.3509 91.298C94.3142 91.2765 93.3118 90.9232 92.4906 90.2901C92.062 89.9524 91.7397 89.4984 91.5624 88.9823C91.385 88.4662 91.3601 87.91 91.4906 87.3801V87.2401C91.7141 86.6083 92.1304 86.0627 92.6806 85.6801Z" fill="#E7792D"/>
<path d="M154.27 64.2201C154.253 65.1722 154.462 66.1148 154.88 66.9701C155.337 67.7751 155.978 68.4605 156.75 68.9701C157.453 69.5256 158.28 69.903 159.16 70.0701C160.81 70.3401 161.47 69.5401 163.16 69.9201C163.728 70.0067 164.262 70.249 164.7 70.6201C164.957 70.9047 165.14 71.2469 165.236 71.6177C165.332 71.9886 165.337 72.377 165.25 72.7501C165.1 73.5901 164.69 73.6901 164.71 74.4901C164.684 74.7333 164.723 74.9791 164.823 75.2023C164.924 75.4254 165.081 75.618 165.28 75.7601C165.609 75.9337 165.981 76.0067 166.35 75.9701C167.65 75.9701 167.98 75.2801 168.91 75.4002C169.389 75.4774 169.83 75.705 170.17 76.0501C170.561 76.3613 170.835 76.7944 170.95 77.2802C170.998 77.6897 170.947 78.1047 170.8 78.4901C170.6 79.6701 171.64 80.7101 172.2 81.2501C173.2 82.2501 174 82.3401 175.2 83.0501C177.007 84.1229 178.353 85.8253 178.98 87.8301C179.47 89.5721 179.303 91.4334 178.51 93.0601C179.291 91.4436 179.451 89.5969 178.96 87.8701C178.33 85.8695 176.989 84.1691 175.19 83.0902C174 82.3802 173.19 82.3001 172.19 81.3001C171.63 80.7401 170.6 79.7101 170.79 78.5401C170.935 78.1543 170.987 77.7397 170.94 77.3301C170.803 76.8667 170.546 76.4478 170.195 76.1158C169.844 75.7839 169.411 75.5508 168.94 75.4401C168.02 75.3201 167.68 75.9901 166.38 76.0201C166.011 76.047 165.642 75.9745 165.31 75.8101C165.112 75.6641 164.955 75.4697 164.854 75.2457C164.752 75.0216 164.71 74.7753 164.73 74.5302C164.73 73.7302 165.13 73.6301 165.28 72.7901C165.364 72.4185 165.358 72.0322 165.262 71.6634C165.167 71.2946 164.984 70.9541 164.73 70.6701C164.292 70.2944 163.76 70.0455 163.19 69.9501C161.5 69.5801 160.83 70.3901 159.19 70.1101C158.312 69.9473 157.487 69.5694 156.79 69.0101C156.021 68.4965 155.381 67.812 154.92 67.0101C154.492 66.1545 154.283 65.2064 154.31 64.2501C154.21 62.3501 154.68 62.2501 154.31 61.3501C153.776 60.3688 152.942 59.5839 151.93 59.1101C151.645 58.9653 151.347 58.8481 151.04 58.7601C148.72 58.0001 147.3 58.7601 143.17 58.8901C141.06 58.9801 141.71 58.7901 138.08 58.8201C133.88 58.8201 133.08 59.1101 131.33 58.7701C129.601 58.39 127.971 57.647 126.55 56.5902C125.37 55.8002 125.19 55.4301 123.1 53.4201C121.449 51.6498 119.619 50.0547 117.64 48.6601C116.045 47.6477 114.328 46.8413 112.53 46.2601C105.82 43.8901 99.4103 44.3101 95.9903 44.5801C94.4003 44.6901 92.9903 44.8701 91.8103 45.0701C90.2377 45.101 88.6727 45.2954 87.1403 45.6502C83.9203 46.4002 82.0603 47.6501 81.8203 47.3801C82.0903 47.5701 83.9503 46.3801 87.1703 45.6101C88.7021 45.2513 90.2674 45.0536 91.8403 45.0201C93.0103 44.8401 94.4203 44.6602 96.0103 44.5302C99.4303 44.2702 105.84 43.8401 112.56 46.2201C114.352 46.8037 116.065 47.6064 117.66 48.6101C119.638 50.0056 121.468 51.6007 123.12 53.3701C124.164 54.5398 125.32 55.6049 126.57 56.5501C127.99 57.6071 129.62 58.3471 131.35 58.7201C133.08 59.0701 133.9 58.8102 138.09 58.7802C141.72 58.7802 141.09 58.9401 143.18 58.8501C147.32 58.6701 148.75 57.9601 151.06 58.7101C151.364 58.8093 151.661 58.9261 151.95 59.0601C152.96 59.5423 153.792 60.3293 154.33 61.3101C154.64 62.2201 154.17 62.3101 154.27 64.2201Z" fill="#E7792D"/>
<path d="M175.511 98.5997C175.841 98.3497 176.101 98.1698 176.241 98.0698L179.551 95.7598L176.271 98.0397L175.521 98.5798C175.141 98.8698 174.661 99.2497 174.131 99.7297C174.131 99.7297 173.931 99.9098 173.641 100.2C173.941 99.8998 174.141 99.7198 174.151 99.7098C174.631 99.2798 175.121 98.8897 175.511 98.5997Z" fill="#E7792D"/>
<path d="M112.001 95.7098C112.847 95.1084 113.863 94.7954 114.901 94.817C115.938 94.8386 116.941 95.1937 117.761 95.8298C118.118 96.1053 118.404 96.4624 118.594 96.8711C118.785 97.2799 118.875 97.7283 118.856 98.1789C118.837 98.6295 118.711 99.0691 118.488 99.4607C118.264 99.8524 117.95 100.185 117.571 100.43C116.564 101.152 115.317 101.456 114.091 101.28L113.681 101.2C112.996 101.059 112.356 100.75 111.821 100.3C111.464 100.026 111.177 99.6706 110.985 99.2631C110.794 98.8556 110.703 98.408 110.721 97.9581C110.739 97.5082 110.864 97.0691 111.087 96.6778C111.31 96.2865 111.623 95.9546 112.001 95.7098Z" fill="#E7792D"/>
<path d="M68.7012 103.61C70.169 103.071 71.75 102.914 73.295 103.156C74.84 103.397 76.298 104.028 77.5312 104.99C78.3793 105.643 79.0125 106.535 79.3494 107.55C79.6862 108.566 79.7112 109.66 79.4211 110.69L72.1711 108.55C72.0062 108.516 71.8361 108.516 71.6711 108.55L68.7012 103.61Z" fill="#E7792D"/>
<path d="M71.0017 109C70.9702 109.101 70.9612 109.208 70.9753 109.314C70.9895 109.419 71.0264 109.52 71.0835 109.609C71.1407 109.699 71.2166 109.775 71.3061 109.832C71.3956 109.889 71.4964 109.926 71.6017 109.94L78.9517 111.81C78.5153 112.564 77.926 113.218 77.2217 113.73C75.6087 114.884 73.666 115.484 71.6835 115.443C69.7009 115.402 67.7849 114.72 66.2217 113.5C63.2917 111.01 63.4517 107.09 66.5817 104.73C67.1205 104.324 67.7085 103.988 68.3317 103.73L71.6117 108.51C71.4745 108.539 71.345 108.597 71.2317 108.68C71.1289 108.765 71.0497 108.875 71.0017 109Z" fill="#E7792D"/>
<path d="M71.2106 108.71C71.3239 108.627 71.4534 108.569 71.5906 108.54L72.3706 109.68L71.6706 108.52C71.8258 108.49 71.9853 108.49 72.1406 108.52L79.4206 110.67L103.091 117.67C103.091 117.77 103.021 117.88 102.991 117.98L78.9105 111.84L71.5606 110C71.4553 109.986 71.3545 109.949 71.265 109.892C71.1755 109.835 71.0995 109.759 71.0424 109.669C70.9853 109.58 70.9484 109.479 70.9342 109.373C70.9201 109.268 70.9291 109.161 70.9606 109.06C71.0095 108.922 71.0961 108.801 71.2106 108.71Z" fill="#E6792B"/>
<path d="M161.351 121.33C160.557 119.801 160.078 118.128 159.942 116.41C159.807 114.692 160.017 112.965 160.561 111.33C160.778 110.725 161.039 110.137 161.341 109.57C161.049 110.124 160.798 110.699 160.591 111.29C160.046 112.924 159.834 114.651 159.968 116.369C160.102 118.086 160.579 119.76 161.371 121.29V122.65C161.186 123.165 160.972 123.669 160.731 124.16C160.963 123.682 161.167 123.191 161.341 122.69L161.351 121.33Z" fill="#E7792D"/>
<path d="M87.2001 42.2298C87.7301 41.8298 88.2 41.4898 88.66 41.2298C91.928 39.2192 95.4963 37.7439 99.23 36.8598C100.996 36.3651 102.789 35.9712 104.6 35.6798C106.75 35.4098 108.71 35.2099 110.8 35.0899C111.8 35.0299 112.74 34.9898 113.68 34.9798C118.565 34.3605 123.525 34.7002 128.28 35.9798C130.121 36.4552 131.89 37.1749 133.54 38.1198C135.577 39.4219 137.462 40.9481 139.16 42.6698C141.29 44.6198 141.48 44.9798 142.7 45.6698C144.175 46.6735 145.856 47.3331 147.62 47.5998C149.41 47.8398 150.27 47.5199 154.62 47.1999C158.39 46.9199 157.72 47.1998 159.9 46.9298C164.19 46.4698 165.67 45.6399 168.07 46.2599C168.38 46.3395 168.684 46.4397 168.98 46.5599C170.013 46.9897 170.872 47.7538 171.42 48.7298C171.82 49.6198 171.32 49.7298 171.42 51.7298C171.372 52.7016 171.575 53.6694 172.01 54.5398C172.492 55.3225 173.134 55.9944 173.894 56.5115C174.654 57.0285 175.515 57.3789 176.42 57.5398C178.12 57.6998 178.82 56.8298 180.58 57.0998C181.156 57.153 181.705 57.3718 182.16 57.7298C182.427 58.0137 182.617 58.3613 182.712 58.7395C182.806 59.1176 182.802 59.5137 182.7 59.8899C182.54 60.7699 182.11 60.8898 182.11 61.7298C182.083 61.9766 182.124 62.2261 182.228 62.4516C182.332 62.677 182.495 62.87 182.7 63.0099C183.049 63.1612 183.434 63.2098 183.81 63.1499C185.16 63.0399 185.52 62.3199 186.47 62.3799C186.955 62.435 187.41 62.6414 187.77 62.9698C188.163 63.2805 188.441 63.7134 188.56 64.1999C188.601 64.6273 188.543 65.0585 188.39 65.4599C188.17 66.6799 189.24 67.6898 189.81 68.2198C190.81 69.2198 191.67 69.2198 192.89 69.8699C194.743 70.8649 196.13 72.5499 196.75 74.5599C197.241 76.4348 197.024 78.425 196.14 80.1499C195.944 80.5928 195.71 81.0177 195.44 81.4198L191.59 85.9399C189.662 88.8996 187.248 91.5129 184.45 93.6698L183.87 94.1098C181.666 95.6404 179.742 97.5379 178.18 99.7198C177.714 100.421 177.29 101.149 176.91 101.9C176.375 104.753 176.8 107.704 178.12 110.29L178.05 111.71C177.59 112.977 176.975 114.183 176.22 115.3C175.424 116.441 174.523 117.506 173.53 118.48C171.42 120.66 170.18 121.95 168.21 123.65C167.21 124.52 166.21 125.3 165.34 125.99L162.11 128.45L163.7 126.88L164.08 126.49L165.35 125.24L166.15 124.45C167.081 123.569 167.922 122.598 168.66 121.55C169.366 120.508 169.925 119.374 170.32 118.18V116.79C169.491 115.255 168.975 113.571 168.803 111.835C168.632 110.1 168.807 108.347 169.32 106.68C170.06 104.674 171.196 102.838 172.66 101.28C172.99 100.91 173.32 100.57 173.59 100.28C173.86 99.9899 174.07 99.8199 174.08 99.8099C174.61 99.3298 175.08 98.9498 175.47 98.6598L176.22 98.1199L179.5 95.8399C180.1 95.3799 180.5 95.0799 180.93 94.7699C183.01 93.2184 184.879 91.4032 186.49 89.3699C186.657 89.1571 186.798 88.9255 186.91 88.6798C187.722 86.9851 187.869 85.0473 187.32 83.2499C186.633 81.2047 185.239 79.4711 183.39 78.3598C182.18 77.6198 181.39 77.5199 180.39 76.4999C179.82 75.9299 178.74 74.8699 178.92 73.6899C179.044 73.2958 179.084 72.8804 179.04 72.4698C178.911 71.9744 178.627 71.5332 178.23 71.2099C177.879 70.857 177.429 70.6198 176.94 70.5299C176.01 70.3999 175.69 71.0699 174.38 71.0699C174.004 71.0929 173.628 71.017 173.29 70.8498C173.083 70.7039 172.917 70.5061 172.81 70.2763C172.703 70.0464 172.658 69.7925 172.68 69.5398C172.68 68.7298 173.05 68.6398 173.18 67.7898C173.259 67.4096 173.246 67.016 173.142 66.6419C173.037 66.2678 172.845 65.9242 172.58 65.6399C172.132 65.2575 171.59 65.002 171.01 64.8999C169.29 64.4899 168.64 65.2999 167.01 64.9999C166.114 64.8144 165.275 64.4204 164.56 63.8498C163.766 63.3108 163.103 62.5999 162.62 61.7699C162.173 60.9047 161.943 59.9437 161.95 58.9698C161.79 57.0498 162.27 56.9698 161.85 56.0398C161.289 55.0336 160.43 54.2264 159.39 53.7298C159.103 53.5873 158.805 53.467 158.5 53.3699C156.14 52.5798 154.72 53.2698 150.56 53.3699C148.44 53.4298 149.08 53.2398 145.42 53.2198C141.18 53.2198 140.36 53.4399 138.61 53.0699C136.849 52.6537 135.191 51.8812 133.74 50.7998C132.453 49.8278 131.261 48.7363 130.18 47.5398C128.471 45.7274 126.588 44.0863 124.56 42.6399C122.931 41.6069 121.186 40.771 119.36 40.1499C113.983 38.3131 108.279 37.6316 102.62 38.1499C100.671 38.2688 98.7306 38.5059 96.8101 38.8598C94.7118 39.2541 92.6676 39.8953 90.72 40.7699C89.3161 41.3916 87.9708 42.1379 86.7001 42.9999C86.1001 43.4599 85.5601 43.8699 85.0901 44.2499L83.3301 45.9098L84.16 44.9599C85.0943 43.9655 86.1113 43.0521 87.2001 42.2298Z" fill="#E6A273"/>
<path d="M165.352 125.18L164.082 126.43C163.272 127.22 162.502 127.92 161.592 128.68L165.352 125.18Z" fill="#E7792D"/>
<path d="M150.591 134.71L165.531 125.01L165.351 125.18L161.591 128.68C162.501 127.92 163.271 127.22 164.081 126.43L163.701 126.82C162.891 127.58 162.111 128.28 161.141 129.07C160.641 129.47 160.141 129.85 159.681 130.21C157.657 131.705 155.554 133.09 153.381 134.36C149.919 136.443 146.321 138.29 142.611 139.89L146.251 137.69C147.541 136.87 148.951 135.94 150.481 134.79L150.591 134.71Z" fill="#E7792D"/>
<path d="M161.86 58.9397C161.853 59.9135 162.083 60.8745 162.531 61.7397C163.013 62.5697 163.676 63.2806 164.47 63.8197C165.185 64.3902 166.025 64.7842 166.92 64.9696C168.59 65.2696 169.24 64.4597 170.92 64.8697C171.5 64.9718 172.043 65.2273 172.49 65.6097C172.755 65.894 172.948 66.2376 173.052 66.6117C173.156 66.9858 173.17 67.3794 173.091 67.7597C172.961 68.6097 172.551 68.6997 172.591 69.5097C172.569 69.7623 172.614 70.0162 172.721 70.2461C172.828 70.4759 172.993 70.6737 173.201 70.8197C173.538 70.9869 173.914 71.0627 174.29 71.0396C175.6 71.0396 175.92 70.3697 176.85 70.4997C177.34 70.5895 177.79 70.8268 178.141 71.1797C178.537 71.503 178.821 71.9443 178.951 72.4397C178.995 72.8503 178.954 73.2656 178.831 73.6596C178.651 74.8396 179.73 75.8996 180.3 76.4696C181.3 77.4696 182.14 77.5897 183.3 78.3297C185.15 79.441 186.543 81.1745 187.23 83.2196C187.779 85.0171 187.633 86.955 186.82 88.6497C186.74 88.8197 186.66 88.9896 186.57 89.1596C184.906 91.2561 182.98 93.1313 180.841 94.7397C180.431 95.0497 180.01 95.3497 179.61 95.6197C178.47 96.4597 177.371 97.2197 176.151 98.0697C176.011 98.1697 175.75 98.3496 175.42 98.5996C175.09 98.8496 174.54 99.2797 174.01 99.7597C174.01 99.7597 173.8 99.9497 173.5 100.25C173.2 100.55 172.9 100.85 172.57 101.25C171.106 102.807 169.97 104.644 169.23 106.65C168.718 108.317 168.542 110.069 168.714 111.805C168.886 113.541 169.401 115.225 170.23 116.76V118.15C169.835 119.344 169.276 120.478 168.57 121.52C167.832 122.567 166.992 123.539 166.06 124.42L165.651 124.83L150.5 134.74L150.22 134.92C150.86 134.44 151.36 134.05 151.87 133.63C153.644 132.163 155.337 130.6 156.94 128.95C157.893 128.076 158.751 127.104 159.5 126.05C159.907 125.459 160.271 124.841 160.591 124.2C160.832 123.709 161.046 123.205 161.23 122.69V121.33C160.439 119.8 159.962 118.126 159.828 116.409C159.694 114.691 159.906 112.964 160.451 111.33C160.658 110.739 160.909 110.164 161.201 109.61C161.976 108.262 162.917 107.016 164 105.9C164.68 105.14 165.4 104.49 165.44 104.45C165.96 103.98 166.441 103.59 166.841 103.29C167.241 102.99 167.451 102.85 167.591 102.76C169.811 101.22 171.59 99.9497 173.13 98.8197C175.9 96.7297 177.531 95.1397 178.401 93.2497C179.234 91.583 179.423 89.667 178.93 87.8697C178.303 85.8648 176.957 84.1625 175.151 83.0897C173.971 82.3797 173.151 82.2896 172.151 81.2896C171.591 80.7496 170.55 79.7097 170.75 78.5297C170.897 78.1442 170.948 77.7292 170.901 77.3197C170.786 76.8339 170.511 76.4008 170.12 76.0897C169.78 75.7446 169.339 75.5169 168.86 75.4397C167.93 75.3197 167.6 75.9997 166.3 76.0097C165.931 76.0463 165.559 75.9733 165.23 75.7997C165.031 75.6575 164.874 75.4649 164.774 75.2418C164.673 75.0186 164.634 74.7729 164.66 74.5297C164.66 73.7297 165.05 73.6296 165.201 72.7896C165.287 72.4165 165.282 72.0281 165.186 71.6573C165.091 71.2865 164.907 70.9442 164.651 70.6596C164.212 70.2885 163.679 70.0462 163.11 69.9597C161.42 69.5797 160.76 70.3797 159.11 70.1096C158.23 69.9425 157.403 69.5652 156.701 69.0097C155.928 68.5 155.287 67.8147 154.831 67.0097C154.412 66.1544 154.203 65.2118 154.22 64.2597C154.12 62.3497 154.59 62.2597 154.22 61.3597C153.682 60.3789 152.85 59.5918 151.841 59.1097C151.551 58.9756 151.254 58.8588 150.951 58.7597C148.641 58.0097 147.21 58.7597 143.07 58.8997C140.98 58.9897 141.61 58.7997 137.98 58.8297C133.79 58.8297 132.98 59.1197 131.24 58.7697C129.51 58.3967 127.88 57.6566 126.461 56.5996C125.21 55.6544 124.054 54.5893 123.01 53.4196C121.358 51.6502 119.529 50.0552 117.55 48.6596C115.955 47.656 114.242 46.8533 112.451 46.2697C105.731 43.8897 99.3205 44.2697 95.9005 44.5797C94.3105 44.7097 92.9005 44.8897 91.7305 45.0697C90.1575 45.1031 88.5923 45.3008 87.0605 45.6596C83.8405 46.4096 81.9805 47.6597 81.7305 47.3897C81.8361 47.053 82.0463 46.7588 82.3305 46.5497L83.1505 45.8097C83.4205 45.5697 83.7505 45.2997 84.1505 44.9897L83.3205 45.9397L85.0805 44.2797C85.5505 43.8997 86.0805 43.4897 86.6905 43.0297C87.934 42.1862 89.249 41.4534 90.6205 40.8397C92.5442 39.9821 94.5563 39.3382 96.6205 38.9196C98.5767 38.5821 100.55 38.3484 102.531 38.2196C108.189 37.7014 113.893 38.3829 119.271 40.2196C121.096 40.8408 122.842 41.6767 124.47 42.7097C126.499 44.1561 128.381 45.7972 130.091 47.6097C131.172 48.8061 132.364 49.8976 133.651 50.8697C135.102 51.951 136.759 52.7236 138.521 53.1397C140.271 53.5097 141.091 53.2596 145.331 53.2896C148.991 53.2896 148.33 53.4997 150.47 53.4397C154.63 53.3197 156.05 52.6297 158.41 53.4397C158.716 53.5368 159.013 53.6571 159.3 53.7997C160.34 54.2962 161.2 55.1034 161.76 56.1097C162.18 56.9197 161.7 56.9997 161.86 58.9397Z" fill="#E7792D"/>
<path d="M208.441 126.22C208.499 126.186 208.564 126.166 208.631 126.16C208.832 126.158 209.028 126.221 209.191 126.34C209.541 126.64 209.841 126.98 210.091 127.19C210.203 127.236 210.329 127.236 210.441 127.19C210.618 125.618 211.409 124.181 212.641 123.19C213.354 122.651 214.194 122.306 215.081 122.19C215.682 122.145 216.286 122.195 216.871 122.34L217.141 122.22C217.278 121.486 217.493 120.768 217.781 120.08C218.095 119.378 218.568 118.759 219.161 118.27C220.066 117.551 221.207 117.194 222.361 117.27C223.716 117.317 225.018 117.813 226.061 118.68C226.701 119.17 230.061 121.85 231.451 122.99C231.711 123.17 232.015 123.279 232.332 123.303C232.648 123.328 232.965 123.268 233.251 123.13C233.701 122.96 234.041 122.94 234.191 123.07C234.341 123.2 234.281 123.57 233.791 123.94C233.301 124.31 232.181 124.94 231.401 125.58C230.401 126.29 229.721 126.96 229.101 127.43C228.481 127.9 228.231 127.77 228.101 127.62C227.971 127.47 228.041 127.18 228.231 126.87C228.681 126.25 228.581 126 227.611 125.08C226.951 124.48 223.971 121.99 223.101 121.31C222.635 120.917 222.084 120.639 221.491 120.5C221.095 120.407 220.684 120.4 220.286 120.479C219.887 120.558 219.51 120.722 219.181 120.96C218.919 121.126 218.694 121.346 218.522 121.604C218.35 121.862 218.234 122.154 218.181 122.46C218.181 122.64 218.501 123.03 218.771 123.26C219.041 123.49 223.671 127.42 224.281 127.85C225.161 128.47 225.451 128.58 226.701 128.09C227.081 127.93 227.441 127.85 227.641 128.02C227.841 128.19 227.721 128.52 227.291 128.85C226.671 129.32 225.201 130.31 224.581 130.77C223.961 131.23 222.851 132.16 222.291 132.58C221.581 133.11 221.291 133.04 221.081 132.85C220.871 132.66 221.011 132.46 221.241 132.12C221.681 131.46 221.721 131.12 220.811 130.3L216.811 126.83C216.241 126.23 215.519 125.797 214.721 125.58C214.31 125.498 213.888 125.503 213.48 125.594C213.071 125.685 212.687 125.861 212.351 126.11C211.86 126.447 211.522 126.964 211.411 127.55C211.407 127.664 211.428 127.778 211.473 127.884C211.518 127.989 211.585 128.083 211.671 128.16L217.531 133.16C217.804 133.394 218.142 133.538 218.5 133.572C218.859 133.606 219.219 133.529 219.531 133.35C220.191 133.1 220.381 133.12 220.531 133.29C220.681 133.46 220.531 133.87 220.181 134.15C220.071 134.24 218.271 135.51 217.251 136.29C216.231 137.07 215.521 137.75 214.951 138.18C214.601 138.45 214.071 138.68 213.821 138.47C213.571 138.26 213.731 138.05 214.081 137.58C214.821 136.65 214.551 136.38 213.601 135.39C213.001 134.8 211.441 133.26 208.991 131.19C208.81 130.998 208.564 130.88 208.301 130.86C207.601 130.888 206.901 130.818 206.221 130.65C206.154 130.53 206.119 130.396 206.119 130.26C206.119 130.123 206.154 129.989 206.221 129.87C207.031 128.756 207.75 127.579 208.371 126.35L208.441 126.22Z" fill="#E7792D"/>
<path d="M146.272 137.64L143.092 139.57L150.312 134.89C148.862 136 147.512 136.87 146.272 137.64Z" fill="#E7792D"/>
<path d="M210.001 136.81C210.108 136.786 210.219 136.787 210.326 136.811C210.433 136.835 210.534 136.882 210.621 136.95C210.822 137.122 210.965 137.353 211.031 137.61C211.411 139.23 211.411 141.12 208.881 143.03C207.391 144.126 205.568 144.672 203.721 144.575C201.874 144.479 200.118 143.745 198.751 142.5C197.718 141.715 196.994 140.59 196.709 139.324C196.424 138.058 196.594 136.732 197.191 135.58C197.611 134.744 198.225 134.02 198.981 133.47C200.173 132.608 201.61 132.149 203.081 132.16C204.295 132.116 205.484 132.51 206.431 133.27C206.631 133.45 206.821 134.08 206.501 134.32L200.761 138.64C200.691 138.68 200.636 138.742 200.604 138.815C200.572 138.889 200.564 138.971 200.581 139.05C200.829 139.353 201.107 139.631 201.411 139.88C202.244 140.502 203.209 140.926 204.231 141.12C205.727 141.261 207.221 140.828 208.411 139.91C209.521 139.08 210.051 138.28 209.951 137.33C209.931 137.14 209.891 136.89 210.001 136.81ZM199.451 137.92C199.513 137.978 199.592 138.015 199.677 138.024C199.762 138.033 199.848 138.014 199.921 137.97C200.171 137.8 200.391 137.63 200.631 137.45C201.111 137.1 201.631 136.68 202.531 136C202.644 135.906 202.735 135.788 202.798 135.655C202.86 135.522 202.893 135.377 202.893 135.23C202.893 135.083 202.86 134.937 202.798 134.804C202.735 134.671 202.644 134.553 202.531 134.46C202.12 134.156 201.634 133.968 201.126 133.917C200.617 133.866 200.104 133.953 199.641 134.17C199.139 134.656 198.843 135.316 198.815 136.015C198.788 136.713 199.029 137.395 199.491 137.92" fill="#E7792D"/>
<path d="M201.2 146.35C201.31 146.27 201.57 146.35 201.62 146.44C201.749 146.758 201.77 147.109 201.68 147.44C200.773 148.305 199.915 149.219 199.11 150.18C198.837 150.63 198.5 151.037 198.11 151.39C197.999 151.444 197.878 151.472 197.755 151.472C197.632 151.472 197.51 151.444 197.4 151.39C197.2 151.22 196.94 150.85 196.55 150.53C196.489 150.494 196.42 150.475 196.35 150.475C196.279 150.475 196.21 150.494 196.15 150.53C195.86 151.882 195.124 153.097 194.06 153.98C192.83 154.909 191.331 155.411 189.79 155.41C187.891 155.441 186.047 154.78 184.6 153.55C181.92 151.28 182.22 148.94 182.81 147.33C183.375 145.931 184.287 144.699 185.46 143.75C185.908 143.387 186.379 143.053 186.87 142.75C186.91 142.704 186.932 142.646 186.932 142.585C186.932 142.524 186.91 142.466 186.87 142.42C185.412 141.041 183.865 139.758 182.24 138.58C181.99 138.41 181.53 138.02 180.13 138.48C179.905 138.571 179.66 138.602 179.42 138.57C179.356 138.446 179.322 138.309 179.322 138.17C179.322 138.031 179.356 137.894 179.42 137.77C180.517 136.727 181.521 135.589 182.42 134.37C182.527 134.136 182.688 133.93 182.89 133.77C183.02 133.67 183.44 133.77 183.69 134.06C184.36 134.76 188.17 138.25 192.84 142.21C195.14 144.16 196.84 145.55 197.34 145.94C199.2 147.48 199.67 147.57 199.97 147.35C200.27 147.13 200.85 146.61 201.2 146.35ZM194.72 149.01C194.22 148.54 191.19 145.89 190.25 145.22C189.792 144.967 189.3 144.782 188.79 144.67C187.664 144.458 186.5 144.668 185.52 145.26C185.303 145.465 185.132 145.713 185.018 145.989C184.904 146.265 184.85 146.562 184.86 146.86C184.86 148.22 186.34 149.63 186.94 150.14C189.16 152.02 192.67 152.53 194.63 151.05C194.993 150.825 195.252 150.466 195.35 150.05C195.22 149.655 195.005 149.293 194.72 148.99" fill="#E7792D"/>
<path d="M236.329 105.73C236.699 105.45 237.019 105.45 237.189 105.6C237.359 105.75 237.28 106.15 236.99 106.52C236.796 106.827 236.679 107.176 236.647 107.538C236.616 107.9 236.672 108.264 236.81 108.6C237.11 109.6 239.95 115.53 240.48 116.71C241.61 119.01 243.17 122.32 244.31 124.71C244.69 125.46 244 126.43 243.65 126.71C243.211 127.031 242.679 127.198 242.136 127.183C241.593 127.169 241.07 126.974 240.65 126.63C240.494 126.51 240.367 126.358 240.278 126.184C240.188 126.009 240.138 125.817 240.132 125.621C240.125 125.426 240.162 125.231 240.239 125.051C240.316 124.871 240.433 124.71 240.579 124.58C240.739 124.46 241.68 123.83 241.98 123.58C242.28 123.33 242.209 123.13 242.089 122.81C241.899 122.26 240.81 120.21 240.54 119.69C240.444 119.561 240.311 119.464 240.16 119.41C239.91 119.41 239.029 119.01 238.589 118.86C236.249 117.99 229.709 115.72 227.719 115.11C227.389 114.983 227.036 114.924 226.682 114.936C226.328 114.948 225.981 115.031 225.66 115.18C225.17 115.38 224.73 115.47 224.42 115.18C224.32 115.1 224.42 114.7 224.77 114.44C225.85 113.63 226.97 112.94 227.77 112.31C228.57 111.68 229.65 110.81 230.03 110.52C230.41 110.23 230.81 110.1 231.03 110.29C231.25 110.48 231.22 110.67 230.86 111.19C230.35 111.89 230.53 112.04 231.41 112.43C233.487 113.305 235.61 114.066 237.77 114.71C237.803 114.73 237.841 114.741 237.88 114.741C237.918 114.741 237.956 114.73 237.99 114.71C238.014 114.679 238.027 114.64 238.027 114.6C238.027 114.56 238.014 114.522 237.99 114.49C237.56 113.57 235.99 110.25 235.5 109.49C235.13 108.88 234.5 108.81 233.31 109.27C233.168 109.347 233.012 109.392 232.852 109.404C232.692 109.417 232.531 109.395 232.38 109.34C232.15 109.15 232.31 108.81 232.66 108.55C233.2 108.15 233.959 107.66 234.329 107.38C234.699 107.1 235.599 106.28 236.329 105.73Z" fill="#E7792D"/>
<path d="M135.001 107.73C135.844 107.128 136.859 106.814 137.895 106.836C138.931 106.858 139.933 107.213 140.751 107.85C141.11 108.123 141.399 108.479 141.591 108.888C141.784 109.297 141.875 109.746 141.858 110.197C141.84 110.648 141.714 111.089 141.49 111.481C141.266 111.873 140.95 112.206 140.571 112.45C139.726 113.055 138.709 113.369 137.671 113.348C136.632 113.326 135.629 112.969 134.81 112.33C134.451 112.029 134.161 111.654 133.961 111.23L133.87 111.02C133.673 110.424 133.676 109.779 133.88 109.184C134.084 108.59 134.478 108.079 135.001 107.73Z" fill="#E7792D"/>
<path d="M111.251 114.17C112.196 114.412 113.077 114.859 113.831 115.48C114.186 115.774 114.505 116.11 114.781 116.48L110.471 117.73L111.251 114.17Z" fill="#E7792D"/>
<path d="M113.649 101.2L114.059 101.28L111.249 114.17L110.469 117.78L110.269 118.68L110.179 119.07C110.145 119.242 110.045 119.393 109.899 119.49C109.669 119.659 109.382 119.731 109.099 119.69C108.589 119.61 108.239 119.23 108.339 118.82V118.77L108.429 118.48L109.809 113.93L113.649 101.2Z" fill="#E6792B"/>
<path d="M114.78 116.53L133.859 111L133.95 111.21L115.33 117.62L111.03 119.1L110.27 118.66L110.469 117.76L114.78 116.53Z" fill="#E6792B"/>
<path d="M108.29 119.25C108.225 119.124 108.204 118.98 108.229 118.841C108.254 118.702 108.325 118.575 108.43 118.48L108.341 118.77V118.82C108.295 118.967 108.301 119.125 108.36 119.268C108.418 119.41 108.525 119.528 108.66 119.6C108.504 119.524 108.375 119.402 108.29 119.25Z" fill="#E6792B"/>
<path d="M114.79 121.33L111 119.12L115.3 117.64C115.504 118.253 115.564 118.905 115.475 119.545C115.387 120.184 115.152 120.795 114.79 121.33Z" fill="#E7792D"/>
<path d="M108.66 119.6H108.73L113.91 122.3L113.54 122.6C112.221 123.545 110.631 124.038 109.009 124.003C107.386 123.969 105.818 123.41 104.54 122.41C103.895 121.894 103.409 121.206 103.137 120.427C102.864 119.647 102.817 118.806 103 118C103 117.9 103.06 117.79 103.1 117.69C103.439 116.735 104.059 115.905 104.88 115.31C106.311 114.281 108.064 113.798 109.82 113.95L108.44 118.5C108.335 118.595 108.264 118.722 108.239 118.861C108.213 119.001 108.235 119.145 108.3 119.27C108.385 119.414 108.51 119.528 108.66 119.6Z" fill="#E7792D"/>
<path d="M108.341 118.82C108.241 119.23 108.591 119.61 109.101 119.69C109.383 119.731 109.67 119.659 109.901 119.49C110.046 119.393 110.147 119.242 110.181 119.07L110.271 118.68L111.031 119.12L114.791 121.33L132.301 131.6L132.131 131.84L113.911 122.34L108.731 119.64H108.661C108.516 119.567 108.403 119.443 108.344 119.291C108.285 119.14 108.284 118.972 108.341 118.82Z" fill="#E6792B"/>
<path d="M132.999 130.93C133.846 130.33 134.863 130.019 135.901 130.042C136.938 130.066 137.94 130.423 138.759 131.06C139.116 131.336 139.402 131.693 139.593 132.101C139.783 132.51 139.873 132.959 139.854 133.409C139.836 133.86 139.709 134.299 139.486 134.691C139.262 135.083 138.948 135.415 138.569 135.66C137.725 136.261 136.709 136.573 135.673 136.549C134.636 136.526 133.636 136.168 132.819 135.53C132.263 135.113 131.885 134.501 131.761 133.816C131.637 133.132 131.776 132.427 132.149 131.84L132.319 131.6C132.515 131.348 132.744 131.122 132.999 130.93Z" fill="#E7792D"/>
</svg>
