<svg width="298" height="247" viewBox="0 0 298 247" fill="none" xmlns="http://www.w3.org/2000/svg">
<g filter="url(#filter0_d_585_2)">
<path d="M293.938 127.599L293.188 147.369C293.094 149.74 292.871 152.105 292.518 154.455L293.278 134.676C293.628 132.329 293.848 129.967 293.938 127.599Z" fill="#373737"/>
<path d="M293.276 134.676L292.516 154.455C292.037 157.621 291.332 160.752 290.406 163.829L291.156 144.06C292.091 140.981 292.799 137.846 293.276 134.676Z" fill="#393939"/>
<path d="M291.158 144.107L290.408 163.876C289.558 166.67 288.537 169.415 287.348 172.097L288.108 152.318C289.298 149.64 290.316 146.898 291.158 144.107Z" fill="#3B3B3B"/>
<path d="M288.107 152.318L287.347 172.097C286.222 174.635 284.95 177.113 283.537 179.521L284.297 159.751C285.71 157.34 286.982 154.859 288.107 152.318Z" fill="#3D3D3D"/>
<path d="M284.278 159.752L283.518 179.521C282.158 181.865 280.658 184.162 279.018 186.43L279.768 166.651C281.393 164.423 282.898 162.121 284.278 159.752Z" fill="#3F3F3F"/>
<path d="M279.787 166.651L279.037 186.43C277.417 188.642 275.67 190.829 273.797 192.992L274.557 173.222C276.437 171.085 278.18 168.897 279.787 166.66" fill="#414141"/>
<path d="M274.557 173.194L273.797 192.964C271.91 195.113 269.883 197.213 267.717 199.263L268.477 179.493C270.637 177.443 272.664 175.344 274.557 173.194Z" fill="#434343"/>
<path d="M268.477 179.493L267.717 199.263C265.497 201.381 263.131 203.444 260.617 205.45L261.377 185.671C263.884 183.677 266.251 181.618 268.477 179.493Z" fill="#454545"/>
<path d="M261.377 185.671L260.617 205.45C257.937 207.578 255.107 209.649 252.117 211.637L252.867 191.867C255.867 189.867 258.704 187.802 261.377 185.671Z" fill="#474747"/>
<path d="M252.867 191.867L252.117 211.637C248.707 213.896 245.117 216.061 241.307 218.105L242.057 198.335C245.863 196.285 249.467 194.129 252.867 191.867Z" fill="#494949"/>
<path d="M242.057 198.325L241.277 218.104C238.737 219.473 236.107 220.792 233.387 222.06C230.913 223.21 228.413 224.298 225.887 225.322L226.647 205.553C229.18 204.522 231.68 203.434 234.147 202.291C236.853 201.041 239.48 199.722 242.027 198.335" fill="#4B4B4B"/>
<path d="M226.677 205.553L225.917 225.322C204.097 234.181 179.807 238.624 155.477 238.98L156.237 219.201C180.567 218.854 204.857 214.402 226.677 205.553Z" fill="#4E4E4E"/>
<path d="M156.278 219.202L155.518 238.981C149.188 239.065 142.858 238.877 136.518 238.428L137.278 218.648C143.568 219.108 149.898 219.295 156.278 219.202Z" fill="#4B4B4B"/>
<path d="M137.276 218.648L136.516 238.427C131.663 238.071 126.846 237.555 122.066 236.881L122.826 217.111C127.606 217.786 132.423 218.298 137.276 218.648Z" fill="#494949"/>
<path d="M122.836 217.073L122.076 236.843C117.85 236.218 113.653 235.496 109.486 234.678L110.246 214.908C114.393 215.752 118.59 216.473 122.836 217.073Z" fill="#474747"/>
<path d="M110.277 214.946L109.517 234.715C105.677 233.934 101.883 233.05 98.1367 232.062L98.8967 212.283C102.637 213.277 106.43 214.164 110.277 214.946Z" fill="#454545"/>
<path d="M98.8669 212.283L98.1069 232.062C94.5335 231.119 91.0135 230.078 87.5469 228.941L88.3069 209.171C91.7669 210.305 95.3069 211.337 98.8669 212.283Z" fill="#434343"/>
<path d="M88.2776 209.171L87.5176 228.941C84.1242 227.835 80.7909 226.638 77.5176 225.351L78.2776 205.581C81.5443 206.868 84.8776 208.065 88.2776 209.171Z" fill="#414141"/>
<path d="M78.2772 205.581L77.5172 225.351C74.2372 224.069 71.0205 222.695 67.8672 221.226L68.6271 201.456C71.7805 202.919 74.9972 204.293 78.2772 205.581Z" fill="#3F3F3F"/>
<path d="M68.646 201.456L67.886 221.226C64.646 219.72 61.4893 218.123 58.416 216.436L59.176 196.666C62.2494 198.354 65.406 199.95 68.646 201.456Z" fill="#3D3D3D"/>
<path d="M59.176 196.666L58.416 216.436C55.1493 214.642 51.9827 212.746 48.916 210.746L49.676 190.976C52.736 192.976 55.9027 194.873 59.176 196.666Z" fill="#3B3B3B"/>
<path d="M49.6768 190.976L48.9167 210.746C45.5167 208.534 42.2567 206.193 39.1367 203.725L39.8867 183.946C43.0067 186.414 46.2701 188.758 49.6768 190.976Z" fill="#393939"/>
<path d="M39.8868 183.946L39.1368 203.725C36.4768 201.616 33.9169 199.422 31.4869 197.163C30.2969 196.057 29.1569 194.941 28.0469 193.807L28.8069 174.038C29.9169 175.162 31.0569 176.287 32.2369 177.393C34.6769 179.681 37.2268 181.868 39.8868 183.955" fill="#373737"/>
<path d="M28.8069 174.009L28.0469 193.779C11.0969 176.465 3.31691 156.902 4.04691 137.77L4.80692 118C4.07692 137.132 11.8569 156.696 28.8069 174.009Z" fill="#353535"/>
</g>
<path d="M267.498 44.6378C314.338 91.4778 299.868 155.498 235.178 187.638C170.488 219.778 80.0777 207.908 33.2777 161.068C-13.5223 114.228 0.927738 50.2078 65.6177 18.0678C130.308 -14.0722 220.678 -2.19217 267.498 44.6378Z" fill="#1D1C1B"/>
<path d="M294.938 107.978L294.188 129.068C294.094 131.598 293.871 134.121 293.518 136.628L294.278 115.528C294.628 113.024 294.848 110.504 294.938 107.978Z" fill="#1D1C1B"/>
<path d="M294.276 115.528L293.516 136.628C293.037 140.005 292.332 143.345 291.406 146.628L292.156 125.538C293.091 122.254 293.799 118.909 294.276 115.528Z" fill="#1D1C1B"/>
<path d="M292.158 125.588L291.408 146.678C290.558 149.658 289.537 152.586 288.348 155.448L289.108 134.348C290.298 131.491 291.316 128.566 292.158 125.588Z" fill="#1D1C1B"/>
<path d="M289.107 134.348L288.347 155.448C287.222 158.155 285.95 160.799 284.537 163.368L285.297 142.278C286.71 139.705 287.982 137.058 289.107 134.348Z" fill="#1D1C1B"/>
<path d="M285.278 142.278L284.518 163.368C283.158 165.868 281.658 168.318 280.018 170.738L280.768 149.638C282.393 147.262 283.898 144.805 285.278 142.278Z" fill="#1D1C1B"/>
<path d="M280.787 149.638L280.037 170.738C278.417 173.098 276.67 175.431 274.797 177.738L275.557 156.648C277.437 154.368 279.18 152.034 280.787 149.648" fill="#1D1C1B"/>
<path d="M275.557 156.618L274.797 177.708C272.91 180.001 270.883 182.241 268.717 184.428L269.477 163.338C271.637 161.151 273.664 158.911 275.557 156.618Z" fill="#1D1C1B"/>
<path d="M269.477 163.338L268.717 184.428C266.497 186.688 264.131 188.888 261.617 191.028L262.377 169.928C264.884 167.801 267.251 165.605 269.477 163.338Z" fill="#1D1C1B"/>
<path d="M262.377 169.928L261.617 191.028C258.937 193.298 256.107 195.508 253.117 197.628L253.867 176.538C256.867 174.404 259.704 172.201 262.377 169.928Z" fill="#1D1C1B"/>
<path d="M253.867 176.538L253.117 197.628C249.707 200.038 246.117 202.348 242.307 204.528L243.057 183.438C246.863 181.251 250.467 178.951 253.867 176.538Z" fill="#1D1C1B"/>
<path d="M243.057 183.428L242.277 204.528C239.737 205.988 237.107 207.394 234.387 208.748C231.913 209.974 229.413 211.134 226.887 212.228L227.647 191.138C230.18 190.038 232.68 188.878 235.147 187.658C237.853 186.324 240.48 184.918 243.027 183.438" fill="#1D1C1B"/>
<path d="M227.677 191.138L226.917 212.228C205.097 221.678 180.807 226.418 156.477 226.798L157.237 205.698C181.567 205.328 205.857 200.578 227.677 191.138Z" fill="#1D1C1B"/>
<path d="M157.278 205.698L156.518 226.798C150.188 226.888 143.858 226.688 137.518 226.208L138.278 205.108C144.568 205.598 150.898 205.798 157.278 205.698Z" fill="#1D1C1B"/>
<path d="M138.276 205.108L137.516 226.208C132.663 225.828 127.846 225.278 123.066 224.558L123.826 203.468C128.606 204.188 133.423 204.734 138.276 205.108Z" fill="#1D1C1B"/>
<path d="M123.836 203.428L123.076 224.518C118.85 223.851 114.653 223.081 110.486 222.208L111.246 201.118C115.393 202.018 119.59 202.788 123.836 203.428Z" fill="#1D1C1B"/>
<path d="M111.277 201.158L110.517 222.248C106.677 221.415 102.883 220.471 99.1367 219.418L99.8967 198.318C103.637 199.378 107.43 200.325 111.277 201.158Z" fill="#1D1C1B"/>
<path d="M99.8669 198.318L99.1069 219.418C95.5335 218.411 92.0135 217.301 88.5469 216.088L89.3069 194.998C92.7669 196.208 96.3069 197.308 99.8669 198.318Z" fill="#1D1C1B"/>
<path d="M89.2776 194.998L88.5176 216.088C85.1242 214.908 81.7909 213.631 78.5176 212.258L79.2776 191.168C82.5443 192.541 85.8776 193.818 89.2776 194.998Z" fill="#1D1C1B"/>
<path d="M79.2772 191.168L78.5172 212.258C75.2372 210.891 72.0205 209.424 68.8672 207.858L69.6271 186.768C72.7805 188.328 75.9972 189.794 79.2772 191.168Z" fill="#1D1C1B"/>
<path d="M69.646 186.768L68.886 207.858C65.646 206.251 62.4893 204.548 59.416 202.748L60.176 181.658C63.2494 183.458 66.406 185.161 69.646 186.768Z" fill="#1D1C1B"/>
<path d="M60.176 181.658L59.416 202.748C56.1493 200.835 52.9827 198.811 49.916 196.678L50.676 175.588C53.736 177.721 56.9027 179.745 60.176 181.658Z" fill="#1D1C1B"/>
<path d="M50.6768 175.588L49.9167 196.678C46.5167 194.318 43.2567 191.821 40.1367 189.188L40.8867 168.088C44.0067 170.721 47.2701 173.221 50.6768 175.588Z" fill="#1D1C1B"/>
<path d="M40.8868 168.088L40.1368 189.188C37.4768 186.938 34.9169 184.598 32.4869 182.188C31.2969 181.008 30.1569 179.818 29.0469 178.608L29.8069 157.518C30.9169 158.718 32.0569 159.918 33.2369 161.098C35.6769 163.538 38.2268 165.871 40.8868 168.098" fill="#1D1C1B"/>
<path d="M29.8069 157.488L29.0469 178.578C12.0969 160.108 4.31691 139.238 5.04691 118.828L5.80692 97.7378C5.07692 118.148 12.8569 139.018 29.8069 157.488Z" fill="#1D1C1B"/>
<path d="M141.748 169.637C141.82 169.594 141.903 169.571 141.988 169.571C142.072 169.571 142.155 169.594 142.228 169.637C142.408 169.787 143.778 171.027 145.588 172.637C147.398 174.247 151.398 177.637 154.448 180.157C156.118 181.567 156.288 181.807 158.528 180.807C158.717 180.713 158.926 180.664 159.138 180.664C159.349 180.664 159.558 180.713 159.748 180.807C159.978 180.997 159.548 181.487 159.298 181.677C159.048 181.867 157.178 183.107 156.018 183.977C153.728 185.707 152.378 186.977 152.108 187.177C151.678 187.497 151.228 187.637 150.998 187.437C150.768 187.237 150.868 186.857 151.328 186.257C152.588 184.697 152.088 184.437 151.328 183.627C150.728 182.987 146.898 179.487 144.078 177.087C143.008 176.187 141.888 175.087 141.448 174.867C141.191 174.689 140.879 174.607 140.568 174.637C140.075 174.843 139.597 175.084 139.138 175.357C138.708 175.557 138.138 175.647 137.878 175.457C137.618 175.267 137.878 174.867 138.118 174.627C139.153 173.496 140.071 172.263 140.858 170.947C141.068 170.458 141.37 170.013 141.748 169.637Z" fill="#E7792D"/>
<path d="M147.008 138.238L146.908 138.278L147.368 137.998L147.008 138.238Z" fill="#E7792D"/>
<path d="M77.6277 50.6871C78.4733 50.0857 79.4902 49.7726 80.5276 49.7943C81.565 49.8159 82.5679 50.171 83.3877 50.8071C83.7453 51.0829 84.0317 51.4402 84.223 51.8493C84.4143 52.2583 84.505 52.7073 84.4874 53.1585C84.4698 53.6098 84.3444 54.0503 84.1218 54.4432C83.8992 54.8361 83.5858 55.17 83.2077 55.4171C82.5541 55.8776 81.7973 56.1704 81.0039 56.2698C80.2105 56.3692 79.4048 56.2721 78.6577 55.9871L78.5077 55.9271C78.1248 55.767 77.7677 55.5514 77.4477 55.2871C77.0901 55.0124 76.8036 54.6559 76.6123 54.2476C76.4209 53.8393 76.3302 53.3911 76.3479 52.9405C76.3655 52.4899 76.4909 52.0502 76.7136 51.6581C76.9363 51.266 77.2497 50.933 77.6277 50.6871Z" fill="#E7792D"/>
<path d="M96.7288 63.8772C97.5767 63.2802 98.5935 62.9708 99.6302 62.9942C100.667 63.0176 101.669 63.3726 102.489 64.0072C102.846 64.2826 103.132 64.6397 103.322 65.0485C103.513 65.4572 103.602 65.9057 103.584 66.3563C103.565 66.8069 103.439 67.2464 103.215 67.6381C102.992 68.0297 102.677 68.362 102.299 68.6071C101.452 69.2055 100.436 69.5167 99.399 69.4951C98.3624 69.4735 97.3599 69.1202 96.5388 68.4871C96.2817 68.2686 96.0591 68.0123 95.8788 67.7271L95.8088 67.6171C95.4594 66.9933 95.3601 66.26 95.5309 65.5656C95.7017 64.8713 96.1299 64.2677 96.7288 63.8772Z" fill="#E7792D"/>
<path d="M63.2776 77.4272C63.6057 77.6081 63.914 77.8226 64.1976 78.0673C64.4055 78.2419 64.5994 78.4325 64.7776 78.6373L61.5977 79.7573L63.2776 77.4272Z" fill="#E7792D"/>
<path d="M64.7274 78.6172L95.8074 67.6172L95.8773 67.7272L65.4673 79.7272L62.2773 80.9972L60.7773 80.7872L61.5273 79.7372L64.7274 78.6172Z" fill="#E6792B"/>
<path d="M65.8588 81.4971L62.2988 80.9971L65.4688 79.7471C65.7245 80.2951 65.8576 80.8923 65.8588 81.4971Z" fill="#E7792D"/>
<path d="M58.5189 80.9572L58.6289 80.8171C58.4869 80.9247 58.3905 81.0818 58.3589 81.2571C58.3389 81.3837 58.3599 81.5134 58.4189 81.6271C58.4531 81.6933 58.4969 81.7539 58.5489 81.8071C58.4498 81.6955 58.3951 81.5514 58.3951 81.4021C58.3951 81.2528 58.4498 81.1088 58.5489 80.9971L58.5189 80.9572Z" fill="#E6792B"/>
<path d="M78.5092 55.9272L78.6592 55.9872L63.2792 77.4272L61.5992 79.7573L60.8492 80.8073L60.1692 81.7573L59.9991 81.9272C59.8223 82.0497 59.6141 82.1191 59.3992 82.1273C59.2202 82.138 59.0414 82.1036 58.8792 82.0272C58.775 81.9772 58.6803 81.9096 58.5992 81.8273C58.5001 81.7156 58.4453 81.5715 58.4453 81.4222C58.4453 81.273 58.5001 81.1289 58.5992 81.0173L58.7292 80.8372L61.9391 76.8372L78.5092 55.9272Z" fill="#E6792B"/>
<path d="M58.4482 81.6872C58.527 81.8107 58.6375 81.9109 58.7682 81.9772L61.7082 86.2772C60.5545 86.6277 59.3333 86.6954 58.148 86.4743C56.9627 86.2533 55.848 85.7501 54.8982 85.0072C54.3422 84.5799 53.897 84.0253 53.6 83.3901C53.3029 82.7549 53.1627 82.0577 53.1911 81.3571C53.2195 80.6565 53.4158 79.9729 53.7633 79.3639C54.1108 78.7548 54.5994 78.2381 55.1882 77.8572C56.1413 77.1829 57.2367 76.7366 58.3898 76.5528C59.5428 76.369 60.7226 76.4526 61.8382 76.7972L58.6282 80.7972C58.4862 80.9048 58.3898 81.0619 58.3582 81.2372C58.3382 81.3638 58.3592 81.4934 58.4182 81.6072L58.4482 81.6872Z" fill="#E7792D"/>
<path d="M58.418 81.6272C58.4521 81.6933 58.4959 81.754 58.548 81.8072C58.5965 81.8591 58.6501 81.906 58.7079 81.9472C58.6025 81.8816 58.5135 81.7926 58.4479 81.6872L58.418 81.6272Z" fill="#E6792B"/>
<path d="M63.0876 85.6971L61.0176 82.2771L65.6676 82.7471C65.3338 83.7322 64.7011 84.5886 63.8576 85.1971C63.615 85.3845 63.3574 85.5517 63.0876 85.6971Z" fill="#E7792D"/>
<path d="M58.7676 81.9771C58.946 82.0709 59.1462 82.1158 59.3476 82.1071L61.0176 82.277L63.0876 85.6971L72.9776 102.037L75.9776 106.947L76.6776 108.107L75.8976 106.967L72.6176 102.187L61.7376 86.277L58.7676 81.9771Z" fill="#E6792B"/>
<path d="M65.8585 81.4971L95.8085 85.6671V85.8071L65.7184 82.7471L61.0684 82.2771L59.3984 82.1071C59.6134 82.0989 59.8215 82.0295 59.9984 81.9071L60.1685 81.7371L60.8484 80.7871L62.3484 80.9971L65.8585 81.4971Z" fill="#E6792B"/>
<path d="M96.958 84.1071C97.8058 83.5102 98.8227 83.2007 99.8594 83.2241C100.896 83.2475 101.898 83.6026 102.718 84.2371C103.075 84.5126 103.361 84.8697 103.551 85.2785C103.742 85.6872 103.832 86.1357 103.813 86.5863C103.794 87.0369 103.668 87.4765 103.444 87.8681C103.221 88.2598 102.907 88.592 102.528 88.8371C101.681 89.4354 100.665 89.7466 99.6282 89.7251C98.5916 89.7035 97.5891 89.3502 96.7679 88.7171C96.3393 88.3794 96.0171 87.9254 95.8397 87.4093C95.6624 86.8932 95.6374 86.337 95.7679 85.8071V85.6671C95.9915 85.0354 96.4077 84.4897 96.958 84.1071Z" fill="#E7792D"/>
<path d="M158.548 62.6471C158.53 63.5992 158.739 64.5418 159.158 65.3971C159.614 66.2021 160.255 66.8875 161.028 67.3971C161.731 67.9526 162.557 68.33 163.438 68.4971C165.088 68.7671 165.748 67.9671 167.438 68.3471C168.006 68.4337 168.539 68.676 168.978 69.0471C169.234 69.3317 169.418 69.6739 169.513 70.0447C169.609 70.4156 169.614 70.804 169.528 71.1771C169.378 72.0171 168.968 72.1171 168.988 72.9171C168.962 73.1603 169.001 73.4061 169.101 73.6293C169.201 73.8524 169.359 74.045 169.558 74.1871C169.886 74.3607 170.258 74.4337 170.628 74.3971C171.928 74.3971 172.258 73.7072 173.188 73.8272C173.666 73.9044 174.107 74.1321 174.448 74.4771C174.838 74.7883 175.113 75.2214 175.228 75.7072C175.275 76.1167 175.224 76.5317 175.078 76.9171C174.878 78.0971 175.918 79.1371 176.478 79.6771C177.478 80.6771 178.278 80.7671 179.478 81.4771C181.284 82.5499 182.63 84.2523 183.258 86.2571C183.747 87.9991 183.58 89.8604 182.788 91.4871C183.568 89.8706 183.728 88.0239 183.238 86.2971C182.608 84.2965 181.266 82.5961 179.468 81.5172C178.278 80.8072 177.468 80.7271 176.468 79.7271C175.908 79.1671 174.878 78.1371 175.068 76.9671C175.212 76.5813 175.264 76.1667 175.218 75.7571C175.081 75.2937 174.823 74.8748 174.472 74.5429C174.121 74.2109 173.688 73.9778 173.218 73.8671C172.298 73.7471 171.958 74.4171 170.658 74.4471C170.289 74.474 169.919 74.4015 169.588 74.2371C169.39 74.0911 169.232 73.8967 169.131 73.6727C169.029 73.4486 168.987 73.2023 169.008 72.9572C169.008 72.1572 169.408 72.0571 169.558 71.2171C169.642 70.8455 169.635 70.4592 169.54 70.0904C169.444 69.7216 169.262 69.3811 169.008 69.0971C168.569 68.7214 168.037 68.4725 167.468 68.3771C165.778 68.0071 165.108 68.8171 163.468 68.5371C162.589 68.3743 161.765 67.9964 161.068 67.4371C160.298 66.9235 159.658 66.239 159.198 65.4371C158.77 64.5815 158.56 63.6334 158.588 62.6771C158.488 60.7771 158.958 60.6771 158.588 59.7771C158.053 58.7958 157.219 58.0109 156.208 57.5371C155.923 57.3923 155.625 57.2751 155.318 57.1871C152.998 56.4271 151.578 57.1871 147.448 57.3171C145.338 57.4071 145.988 57.2171 142.358 57.2471C138.158 57.2471 137.358 57.5371 135.608 57.1971C133.878 56.817 132.249 56.074 130.828 55.0172C129.648 54.2272 129.468 53.8571 127.378 51.8471C125.726 50.0768 123.897 48.4817 121.918 47.0871C120.322 46.0747 118.605 45.2683 116.808 44.6871C110.098 42.3171 103.688 42.7371 100.268 43.0071C98.6776 43.1171 97.2676 43.2971 96.0876 43.4971C94.5151 43.528 92.95 43.7224 91.4177 44.0772C88.1977 44.8272 86.3377 46.0771 86.0977 45.8071C86.3677 45.9971 88.2276 44.8071 91.4476 44.0371C92.9795 43.6783 94.5447 43.4806 96.1177 43.4471C97.2877 43.2671 98.6977 43.0872 100.288 42.9572C103.708 42.6972 110.118 42.2671 116.838 44.6471C118.63 45.2307 120.343 46.0334 121.938 47.0371C123.916 48.4326 125.745 50.0277 127.398 51.7971C128.441 52.9668 129.597 54.0319 130.848 54.9771C132.267 56.0341 133.897 56.7741 135.628 57.1471C137.358 57.4971 138.178 57.2372 142.368 57.2072C145.998 57.2072 145.368 57.3671 147.458 57.2771C151.598 57.0971 153.028 56.3872 155.338 57.1372C155.641 57.2363 155.938 57.3531 156.228 57.4871C157.237 57.9693 158.07 58.7563 158.608 59.7371C158.918 60.6471 158.448 60.7371 158.548 62.6471Z" fill="#E7792D"/>
<path d="M179.788 97.027C180.118 96.777 180.378 96.597 180.518 96.497L183.828 94.187L180.548 96.467L179.798 97.007C179.418 97.297 178.938 97.677 178.408 98.157C178.408 98.157 178.208 98.337 177.918 98.627C178.218 98.327 178.418 98.147 178.428 98.137C178.908 97.707 179.398 97.317 179.788 97.027Z" fill="#E7792D"/>
<path d="M116.278 94.137C117.124 93.5357 118.141 93.2226 119.178 93.2442C120.216 93.2658 121.219 93.621 122.038 94.257C122.395 94.5325 122.681 94.8896 122.872 95.2984C123.062 95.7071 123.152 96.1556 123.133 96.6062C123.115 97.0567 122.988 97.4963 122.765 97.888C122.541 98.2796 122.227 98.6119 121.848 98.857C120.842 99.5788 119.595 99.8834 118.368 99.707L117.958 99.627C117.273 99.4866 116.634 99.1772 116.098 98.727C115.741 98.4534 115.454 98.0978 115.263 97.6903C115.071 97.2828 114.981 96.8352 114.998 96.3853C115.016 95.9354 115.141 95.4963 115.364 95.1051C115.587 94.7138 115.901 94.3818 116.278 94.137Z" fill="#E7792D"/>
<path d="M72.9785 102.037C74.4463 101.498 76.0273 101.342 77.5723 101.583C79.1173 101.824 80.5753 102.456 81.8085 103.417C82.6566 104.07 83.2899 104.962 83.6267 105.978C83.9636 106.994 83.9885 108.087 83.6985 109.117L76.4485 106.977C76.2835 106.944 76.1135 106.944 75.9485 106.977L72.9785 102.037Z" fill="#E7792D"/>
<path d="M75.279 107.427C75.2475 107.529 75.2385 107.636 75.2527 107.741C75.2668 107.846 75.3038 107.947 75.3609 108.036C75.418 108.126 75.4939 108.202 75.5834 108.259C75.6729 108.316 75.7738 108.353 75.879 108.367L83.229 110.237C82.7927 110.991 82.2033 111.645 81.499 112.157C79.8861 113.311 77.9433 113.912 75.9608 113.87C73.9783 113.829 72.0623 113.147 70.499 111.927C67.569 109.437 67.7291 105.517 70.8591 103.157C71.3979 102.751 71.9859 102.415 72.6091 102.157L75.889 106.937C75.7518 106.967 75.6224 107.025 75.509 107.107C75.4062 107.192 75.327 107.303 75.279 107.427Z" fill="#E7792D"/>
<path d="M75.4879 107.137C75.6013 107.054 75.7308 106.996 75.8679 106.967L76.6479 108.107L75.9479 106.947C76.1032 106.917 76.2627 106.917 76.4179 106.947L83.6979 109.097L107.368 116.097C107.368 116.197 107.298 116.307 107.268 116.407L83.1879 110.267L75.8379 108.427C75.7327 108.413 75.6318 108.376 75.5423 108.319C75.4528 108.262 75.3768 108.186 75.3197 108.096C75.2626 108.007 75.2257 107.906 75.2116 107.801C75.1974 107.696 75.2064 107.588 75.2379 107.487C75.2868 107.349 75.3734 107.228 75.4879 107.137Z" fill="#E6792B"/>
<path d="M165.628 119.757C164.834 118.228 164.355 116.555 164.22 114.837C164.084 113.119 164.294 111.392 164.838 109.757C165.056 109.152 165.316 108.564 165.618 107.997C165.326 108.551 165.076 109.126 164.868 109.717C164.323 111.351 164.112 113.078 164.246 114.796C164.38 116.514 164.857 118.187 165.648 119.717V121.077C165.463 121.592 165.25 122.096 165.008 122.587C165.24 122.11 165.444 121.619 165.618 121.117L165.628 119.757Z" fill="#E7792D"/>
<path d="M91.4774 40.6571C92.0074 40.2571 92.4774 39.9171 92.9374 39.6571C96.2053 37.6464 99.7737 36.1712 103.507 35.2871C105.274 34.7924 107.066 34.3984 108.877 34.1071C111.027 33.8371 112.987 33.6371 115.077 33.5171C116.077 33.4571 117.017 33.4171 117.957 33.4071C122.843 32.7877 127.802 33.1274 132.557 34.4071C134.398 34.8824 136.167 35.6022 137.817 36.5471C139.855 37.8492 141.74 39.3753 143.437 41.0971C145.567 43.0471 145.757 43.4071 146.977 44.0971C148.452 45.1008 150.134 45.7603 151.897 46.0271C153.687 46.2671 154.547 45.9471 158.897 45.6271C162.667 45.3471 161.997 45.6271 164.177 45.3571C168.467 44.8971 169.947 44.0671 172.347 44.6871C172.657 44.7668 172.961 44.867 173.257 44.9871C174.291 45.417 175.15 46.1811 175.697 47.1571C176.097 48.0471 175.597 48.1571 175.697 50.1571C175.649 51.1289 175.852 52.0967 176.287 52.9671C176.769 53.7497 177.412 54.4217 178.172 54.9387C178.932 55.4557 179.792 55.8062 180.697 55.9671C182.397 56.1271 183.097 55.2571 184.857 55.5271C185.434 55.5802 185.983 55.799 186.437 56.1571C186.705 56.4409 186.894 56.7886 186.989 57.1667C187.084 57.5449 187.08 57.9409 186.977 58.3171C186.817 59.1971 186.387 59.3171 186.387 60.1571C186.361 60.4039 186.401 60.6534 186.505 60.8788C186.609 61.1043 186.772 61.2972 186.977 61.4371C187.327 61.5884 187.712 61.637 188.087 61.5771C189.437 61.4671 189.797 60.7471 190.747 60.8071C191.232 60.8622 191.687 61.0687 192.047 61.3971C192.44 61.7077 192.718 62.1406 192.837 62.6271C192.878 63.0546 192.82 63.4857 192.667 63.8871C192.447 65.1071 193.517 66.1171 194.087 66.6471C195.087 67.6471 195.947 67.6471 197.167 68.2971C199.021 69.2922 200.407 70.9771 201.027 72.9871C201.518 74.862 201.301 76.8522 200.417 78.5771C200.222 79.02 199.987 79.445 199.717 79.8471L195.867 84.3671C193.939 87.3268 191.525 89.9401 188.727 92.0971L188.147 92.5371C185.944 94.0676 184.019 95.9652 182.457 98.1471C181.991 98.848 181.567 99.576 181.187 100.327C180.652 103.181 181.078 106.131 182.397 108.717L182.327 110.137C181.867 111.405 181.253 112.61 180.497 113.727C179.701 114.868 178.801 115.933 177.807 116.907C175.697 119.087 174.457 120.377 172.487 122.077C171.487 122.947 170.487 123.727 169.617 124.417L166.387 126.877L167.977 125.307L168.357 124.917L169.627 123.667L170.427 122.877C171.358 121.996 172.199 121.025 172.937 119.977C173.643 118.936 174.202 117.802 174.597 116.607V115.217C173.768 113.683 173.253 111.998 173.081 110.263C172.909 108.527 173.085 106.774 173.597 105.107C174.337 103.101 175.473 101.265 176.937 99.7071C177.267 99.3371 177.597 98.9971 177.867 98.7071C178.137 98.4171 178.347 98.2471 178.357 98.2371C178.887 97.7571 179.357 97.3771 179.747 97.0871L180.497 96.5471L183.777 94.2671C184.377 93.8071 184.777 93.5071 185.207 93.1971C187.287 91.6456 189.156 89.8304 190.767 87.7971C190.934 87.5844 191.075 87.3528 191.187 87.1071C192 85.4124 192.146 83.4745 191.597 81.6771C190.91 79.6319 189.517 77.8984 187.667 76.7871C186.457 76.0471 185.667 75.9471 184.667 74.9271C184.097 74.3571 183.017 73.2971 183.197 72.1171C183.321 71.723 183.362 71.3077 183.317 70.8971C183.188 70.4017 182.904 69.9604 182.507 69.6371C182.157 69.2843 181.707 69.047 181.217 68.9571C180.287 68.8271 179.967 69.4971 178.657 69.4971C178.281 69.5202 177.905 69.4443 177.567 69.2771C177.36 69.1311 177.195 68.9334 177.088 68.7035C176.981 68.4737 176.936 68.2197 176.957 67.9671C176.957 67.1571 177.327 67.0671 177.457 66.2171C177.536 65.8368 177.523 65.4432 177.419 65.0691C177.314 64.6951 177.122 64.3515 176.857 64.0671C176.409 63.6848 175.867 63.4293 175.287 63.3271C173.567 62.9171 172.917 63.7271 171.287 63.4271C170.392 63.2416 169.552 62.8476 168.837 62.2771C168.043 61.738 167.38 61.0272 166.897 60.1971C166.45 59.332 166.22 58.3709 166.227 57.3971C166.067 55.4771 166.547 55.3971 166.127 54.4671C165.566 53.4608 164.707 52.6536 163.667 52.1571C163.38 52.0145 163.083 51.8942 162.777 51.7971C160.417 51.0071 158.997 51.6971 154.837 51.7971C152.717 51.8571 153.357 51.6671 149.697 51.6471C145.457 51.6471 144.637 51.8671 142.887 51.4971C141.126 51.081 139.469 50.3084 138.017 49.2271C136.731 48.2551 135.539 47.1635 134.457 45.9671C132.748 44.1546 130.866 42.5135 128.837 41.0671C127.209 40.0341 125.463 39.1983 123.637 38.5771C118.26 36.7404 112.556 36.0588 106.897 36.5771C104.948 36.696 103.008 36.9331 101.087 37.2871C98.9892 37.6814 96.945 38.3225 94.9974 39.1971C93.5935 39.8189 92.2481 40.5652 90.9774 41.4271C90.3774 41.8871 89.8374 42.2971 89.3674 42.6771L87.6074 44.3371L88.4374 43.3871C89.3716 42.3927 90.3886 41.4794 91.4774 40.6571Z" fill="#E6A273"/>
<path d="M169.629 123.607L168.359 124.857C167.549 125.647 166.779 126.347 165.869 127.107L169.629 123.607Z" fill="#E7792D"/>
<path d="M154.869 133.137L169.809 123.437L169.629 123.607L165.869 127.107C166.779 126.347 167.549 125.647 168.359 124.857L167.979 125.247C167.169 126.007 166.389 126.707 165.419 127.497C164.919 127.897 164.419 128.277 163.959 128.637C161.935 130.132 159.832 131.518 157.659 132.787C154.197 134.87 150.599 136.717 146.889 138.317L150.529 136.117C151.819 135.297 153.229 134.367 154.759 133.217L154.869 133.137Z" fill="#E7792D"/>
<path d="M166.138 57.3672C166.131 58.341 166.361 59.302 166.808 60.1671C167.29 60.9972 167.953 61.7081 168.748 62.2472C169.463 62.8177 170.302 63.2116 171.198 63.3971C172.868 63.6971 173.518 62.8872 175.198 63.2972C175.778 63.3993 176.32 63.6548 176.768 64.0371C177.032 64.3215 177.225 64.6651 177.329 65.0392C177.434 65.4133 177.447 65.8069 177.368 66.1872C177.238 67.0372 176.828 67.1272 176.868 67.9372C176.846 68.1898 176.891 68.4437 176.998 68.6736C177.105 68.9034 177.271 69.1012 177.478 69.2472C177.816 69.4144 178.192 69.4902 178.568 69.4671C179.878 69.4671 180.198 68.7972 181.128 68.9272C181.617 69.017 182.067 69.2543 182.418 69.6071C182.815 69.9304 183.099 70.3718 183.228 70.8672C183.272 71.2777 183.231 71.6931 183.108 72.0871C182.928 73.2671 184.008 74.3271 184.578 74.8971C185.578 75.8971 186.418 76.0172 187.578 76.7572C189.427 77.8685 190.82 79.602 191.508 81.6471C192.056 83.4446 191.91 85.3825 191.098 87.0772C191.018 87.2472 190.938 87.4171 190.848 87.5871C189.183 89.6836 187.258 91.5587 185.118 93.1671C184.708 93.4771 184.288 93.7771 183.888 94.0471C182.748 94.8871 181.648 95.6472 180.428 96.4972C180.288 96.5972 180.028 96.7771 179.698 97.0271C179.368 97.2771 178.818 97.7072 178.288 98.1872C178.288 98.1872 178.078 98.3772 177.778 98.6772C177.478 98.9772 177.178 99.2772 176.848 99.6772C175.383 101.235 174.248 103.071 173.508 105.077C172.995 106.744 172.82 108.497 172.991 110.233C173.163 111.968 173.678 113.653 174.508 115.187V116.577C174.112 117.772 173.554 118.906 172.848 119.947C172.11 120.995 171.269 121.966 170.338 122.847L169.928 123.257L154.778 133.167L154.498 133.347C155.138 132.867 155.638 132.477 156.148 132.057C157.921 130.59 159.614 129.028 161.218 127.377C162.171 126.503 163.029 125.531 163.778 124.477C164.184 123.887 164.549 123.269 164.868 122.627C165.109 122.136 165.323 121.632 165.508 121.117V119.757C164.716 118.227 164.239 116.554 164.105 114.836C163.971 113.119 164.183 111.392 164.728 109.757C164.935 109.166 165.186 108.591 165.478 108.037C166.254 106.689 167.194 105.443 168.278 104.327C168.958 103.567 169.678 102.917 169.718 102.877C170.238 102.407 170.718 102.017 171.118 101.717C171.518 101.417 171.728 101.277 171.868 101.187C174.088 99.6472 175.868 98.3772 177.408 97.2472C180.178 95.1572 181.808 93.5672 182.678 91.6772C183.512 90.0104 183.7 88.0945 183.208 86.2971C182.58 84.2923 181.234 82.59 179.428 81.5172C178.248 80.8072 177.428 80.7171 176.428 79.7171C175.868 79.1771 174.828 78.1372 175.028 76.9572C175.174 76.5717 175.226 76.1567 175.178 75.7472C175.063 75.2614 174.788 74.8283 174.398 74.5172C174.058 74.1721 173.616 73.9444 173.138 73.8672C172.208 73.7472 171.878 74.4272 170.578 74.4372C170.208 74.4738 169.836 74.4007 169.508 74.2271C169.309 74.085 169.151 73.8924 169.051 73.6693C168.951 73.4461 168.912 73.2004 168.938 72.9572C168.938 72.1572 169.328 72.0571 169.478 71.2171C169.564 70.844 169.559 70.4556 169.464 70.0848C169.368 69.714 169.184 69.3717 168.928 69.0871C168.489 68.716 167.956 68.4737 167.388 68.3872C165.698 68.0072 165.038 68.8071 163.388 68.5371C162.508 68.37 161.681 67.9927 160.978 67.4372C160.205 66.9275 159.565 66.2421 159.108 65.4372C158.689 64.5819 158.48 63.6393 158.498 62.6872C158.398 60.7772 158.868 60.6871 158.498 59.7871C157.96 58.8064 157.127 58.0193 156.118 57.5371C155.828 57.4031 155.531 57.2863 155.228 57.1872C152.918 56.4372 151.488 57.1872 147.348 57.3272C145.258 57.4172 145.888 57.2272 142.258 57.2572C138.068 57.2572 137.258 57.5472 135.518 57.1972C133.788 56.8242 132.158 56.0841 130.738 55.0271C129.487 54.0819 128.332 53.0168 127.288 51.8471C125.636 50.0777 123.806 48.4827 121.828 47.0871C120.233 46.0835 118.52 45.2808 116.728 44.6972C110.008 42.3172 103.598 42.6972 100.178 43.0072C98.5879 43.1372 97.1778 43.3172 96.0078 43.4972C94.4348 43.5306 92.8697 43.7283 91.3378 44.0871C88.1178 44.8371 86.2578 46.0872 86.0078 45.8172C86.1135 45.4805 86.3237 45.1863 86.6078 44.9771L87.4279 44.2372C87.6979 43.9972 88.0279 43.7271 88.4279 43.4171L87.5978 44.3672L89.3578 42.7072C89.8278 42.3272 90.3578 41.9172 90.9678 41.4572C92.2113 40.6137 93.5263 39.8809 94.8978 39.2672C96.8216 38.4096 98.8336 37.7657 100.898 37.3471C102.854 37.0096 104.827 36.7759 106.808 36.6471C112.466 36.1288 118.171 36.8104 123.548 38.6471C125.374 39.2683 127.119 40.1042 128.748 41.1372C130.776 42.5836 132.659 44.2247 134.368 46.0371C135.449 47.2336 136.641 48.3251 137.928 49.2972C139.379 50.3785 141.037 51.151 142.798 51.5672C144.548 51.9372 145.368 51.6871 149.608 51.7171C153.268 51.7171 152.608 51.9272 154.748 51.8672C158.908 51.7472 160.328 51.0572 162.688 51.8672C162.993 51.9643 163.291 52.0846 163.578 52.2271C164.617 52.7237 165.477 53.5309 166.038 54.5371C166.458 55.3471 165.978 55.4272 166.138 57.3672Z" fill="#E7792D"/>
<path d="M212.718 124.647C212.776 124.614 212.841 124.593 212.908 124.587C213.109 124.586 213.305 124.649 213.468 124.767C213.818 125.067 214.118 125.407 214.368 125.617C214.48 125.663 214.606 125.663 214.718 125.617C214.896 124.046 215.686 122.608 216.918 121.617C217.631 121.078 218.472 120.733 219.358 120.617C219.959 120.572 220.563 120.623 221.148 120.767L221.418 120.647C221.555 119.913 221.77 119.196 222.058 118.507C222.373 117.806 222.845 117.186 223.438 116.697C224.344 115.978 225.484 115.622 226.638 115.697C227.994 115.744 229.295 116.24 230.338 117.107C230.978 117.597 234.338 120.277 235.728 121.417C235.989 121.598 236.293 121.706 236.609 121.731C236.925 121.755 237.242 121.695 237.528 121.557C237.978 121.387 238.318 121.367 238.468 121.497C238.618 121.627 238.558 121.997 238.068 122.367C237.578 122.737 236.458 123.367 235.678 124.007C234.678 124.717 233.998 125.387 233.378 125.857C232.758 126.327 232.508 126.197 232.378 126.047C232.248 125.897 232.318 125.607 232.508 125.297C232.958 124.677 232.858 124.427 231.888 123.507C231.228 122.907 228.248 120.417 227.378 119.737C226.913 119.344 226.361 119.067 225.768 118.927C225.372 118.834 224.962 118.827 224.563 118.906C224.165 118.986 223.788 119.15 223.458 119.387C223.196 119.554 222.972 119.773 222.8 120.032C222.627 120.29 222.511 120.581 222.458 120.887C222.458 121.067 222.778 121.457 223.048 121.687C223.318 121.917 227.948 125.847 228.558 126.277C229.438 126.897 229.728 127.007 230.978 126.517C231.358 126.357 231.718 126.277 231.918 126.447C232.118 126.617 231.998 126.947 231.568 127.277C230.948 127.747 229.478 128.737 228.858 129.197C228.238 129.657 227.128 130.587 226.568 131.007C225.858 131.537 225.568 131.467 225.358 131.277C225.148 131.087 225.288 130.887 225.518 130.547C225.958 129.887 225.998 129.547 225.088 128.727L221.088 125.257C220.519 124.657 219.796 124.225 218.998 124.007C218.588 123.925 218.165 123.93 217.757 124.022C217.349 124.113 216.964 124.288 216.628 124.537C216.137 124.874 215.799 125.392 215.688 125.977C215.684 126.092 215.705 126.206 215.75 126.311C215.795 126.417 215.863 126.511 215.948 126.587L221.808 131.587C222.081 131.822 222.42 131.966 222.778 132C223.136 132.034 223.496 131.956 223.808 131.777C224.468 131.527 224.658 131.547 224.808 131.717C224.958 131.887 224.808 132.297 224.458 132.577C224.348 132.667 222.548 133.937 221.528 134.717C220.508 135.497 219.798 136.177 219.228 136.607C218.878 136.877 218.348 137.107 218.098 136.897C217.848 136.687 218.008 136.477 218.358 136.007C219.098 135.077 218.828 134.807 217.878 133.817C217.278 133.227 215.718 131.687 213.268 129.617C213.087 129.425 212.841 129.307 212.578 129.287C211.878 129.316 211.178 129.245 210.498 129.077C210.431 128.958 210.396 128.824 210.396 128.687C210.396 128.551 210.431 128.416 210.498 128.297C211.308 127.184 212.027 126.006 212.648 124.777L212.718 124.647Z" fill="#E7792D"/>
<path d="M150.549 136.067L147.369 137.997L154.589 133.317C153.139 134.427 151.789 135.297 150.549 136.067Z" fill="#E7792D"/>
<path d="M214.278 135.237C214.385 135.214 214.497 135.214 214.604 135.238C214.711 135.262 214.811 135.31 214.898 135.377C215.099 135.55 215.243 135.78 215.308 136.037C215.688 137.657 215.688 139.547 213.158 141.457C211.669 142.553 209.845 143.1 207.998 143.003C206.152 142.906 204.395 142.173 203.028 140.927C201.995 140.142 201.272 139.017 200.986 137.751C200.701 136.486 200.872 135.16 201.468 134.007C201.888 133.171 202.502 132.448 203.258 131.897C204.451 131.036 205.887 130.577 207.358 130.587C208.572 130.543 209.761 130.937 210.708 131.697C210.908 131.877 211.098 132.507 210.768 132.747L205.038 137.067C204.969 137.108 204.914 137.169 204.881 137.243C204.849 137.316 204.841 137.398 204.858 137.477C205.106 137.781 205.384 138.059 205.688 138.307C206.521 138.93 207.486 139.354 208.508 139.547C210.004 139.688 211.498 139.256 212.688 138.337C213.798 137.507 214.328 136.707 214.228 135.757C214.208 135.567 214.168 135.317 214.278 135.237ZM203.728 136.347C203.79 136.406 203.87 136.442 203.955 136.451C204.04 136.46 204.125 136.441 204.198 136.397C204.448 136.227 204.668 136.057 204.908 135.877C205.388 135.527 205.908 135.107 206.808 134.427C206.921 134.333 207.013 134.216 207.075 134.082C207.138 133.949 207.17 133.804 207.17 133.657C207.17 133.51 207.138 133.365 207.075 133.232C207.013 133.099 206.921 132.981 206.808 132.887C206.397 132.583 205.912 132.396 205.403 132.345C204.894 132.294 204.381 132.381 203.918 132.597C203.416 133.083 203.121 133.744 203.093 134.442C203.065 135.14 203.307 135.822 203.768 136.347" fill="#E7792D"/>
<path d="M205.477 144.778C205.587 144.698 205.847 144.778 205.897 144.868C206.026 145.185 206.048 145.537 205.957 145.868C205.05 146.732 204.192 147.647 203.387 148.608C203.114 149.057 202.777 149.465 202.387 149.818C202.276 149.872 202.155 149.9 202.032 149.9C201.909 149.9 201.788 149.872 201.677 149.818C201.477 149.648 201.217 149.278 200.827 148.958C200.767 148.922 200.697 148.903 200.627 148.903C200.557 148.903 200.488 148.922 200.427 148.958C200.137 150.31 199.401 151.525 198.337 152.408C197.107 153.336 195.608 153.839 194.067 153.838C192.169 153.868 190.324 153.207 188.877 151.978C186.197 149.708 186.497 147.368 187.087 145.758C187.652 144.359 188.564 143.127 189.737 142.178C190.185 141.815 190.656 141.481 191.147 141.178C191.187 141.132 191.209 141.074 191.209 141.013C191.209 140.952 191.187 140.893 191.147 140.848C189.689 139.468 188.142 138.186 186.517 137.008C186.267 136.838 185.807 136.448 184.407 136.908C184.182 136.999 183.937 137.03 183.697 136.998C183.633 136.874 183.6 136.737 183.6 136.598C183.6 136.459 183.633 136.321 183.697 136.198C184.792 135.152 185.796 134.015 186.697 132.798C186.804 132.563 186.965 132.358 187.167 132.198C187.297 132.098 187.717 132.198 187.967 132.488C188.637 133.188 192.447 136.678 197.117 140.638C199.417 142.588 201.117 143.978 201.617 144.368C203.477 145.908 203.947 145.998 204.247 145.778C204.547 145.558 205.127 145.038 205.477 144.778ZM198.997 147.438C198.497 146.968 195.467 144.318 194.527 143.648C194.07 143.395 193.578 143.209 193.067 143.098C191.942 142.886 190.778 143.096 189.797 143.688C189.58 143.893 189.409 144.141 189.295 144.417C189.182 144.693 189.128 144.99 189.137 145.288C189.137 146.648 190.617 148.058 191.217 148.568C193.437 150.448 196.947 150.958 198.907 149.478C199.27 149.253 199.529 148.893 199.627 148.478C199.497 148.082 199.282 147.721 198.997 147.418" fill="#E7792D"/>
<path d="M190.867 154.818C191.054 154.867 191.227 154.956 191.377 155.078C191.857 155.488 191.827 157.578 190.187 158.818C189.742 159.22 189.194 159.491 188.604 159.599C188.014 159.707 187.405 159.647 186.847 159.428C186.795 159.404 186.739 159.392 186.682 159.392C186.625 159.392 186.569 159.404 186.517 159.428C186.512 159.44 186.509 159.454 186.509 159.468C186.509 159.482 186.512 159.495 186.517 159.508C186.274 160.33 185.939 161.121 185.517 161.868C185.262 162.307 184.922 162.691 184.517 162.998C183.517 163.768 181.187 163.658 179.717 162.408C179.283 162.021 178.991 161.5 178.887 160.928C178.876 160.51 178.991 160.099 179.217 159.748C179.617 159.008 181.577 156.478 182.017 155.868C182.073 155.785 182.103 155.688 182.103 155.588C182.103 155.488 182.073 155.39 182.017 155.308C181.827 155.088 180.567 153.938 180.207 153.668C179.737 153.323 179.173 153.13 178.59 153.115C178.007 153.101 177.433 153.266 176.947 153.588C176.69 153.761 176.474 153.99 176.317 154.258C176.317 154.368 176.387 154.528 177.417 155.408C177.547 155.518 177.547 155.558 177.547 155.638C177.126 156.686 176.603 157.691 175.987 158.638C175.871 158.704 175.74 158.738 175.607 158.738C175.474 158.738 175.343 158.704 175.227 158.638C174.497 158.018 174.327 157.048 175.107 154.688C175.482 153.595 176.113 152.607 176.947 151.808C177.573 151.33 178.294 150.992 179.062 150.82C179.831 150.647 180.627 150.643 181.397 150.808C182.458 151.005 183.443 151.497 184.237 152.228C185.237 153.058 188.027 155.598 188.297 155.838C188.558 156.043 188.88 156.155 189.212 156.155C189.544 156.155 189.866 156.043 190.127 155.838C190.36 155.559 190.564 155.257 190.737 154.938C190.749 154.906 190.77 154.878 190.797 154.858C190.797 154.858 190.807 154.818 190.867 154.818ZM185.537 158.628C185.337 158.418 184.257 157.368 183.247 156.518C183.189 156.474 183.123 156.442 183.053 156.425C182.982 156.408 182.909 156.405 182.837 156.418C182.288 156.975 181.853 157.634 181.557 158.358C181.457 158.838 181.397 158.998 182.087 159.578C182.502 159.939 183.015 160.166 183.561 160.231C184.107 160.295 184.66 160.193 185.147 159.938C185.407 159.712 185.616 159.432 185.757 159.118C185.757 158.968 185.647 158.758 185.537 158.628Z" fill="#E7792D"/>
<path d="M157.277 156.988C158.551 156.022 159.933 155.209 161.397 154.568C162.152 154.23 162.884 153.842 163.587 153.408C163.761 153.368 163.942 153.369 164.115 153.411C164.289 153.453 164.45 153.534 164.587 153.648C165.447 154.298 166.257 154.948 167.117 155.588C167.667 156.018 167.987 156.588 167.667 156.828C167.237 156.923 166.787 156.863 166.397 156.658C165.49 156.256 164.51 156.042 163.517 156.028C161.605 156.011 159.732 156.576 158.147 157.648C153.917 160.838 155.317 164.648 159.147 167.958C160.67 169.306 162.453 170.327 164.387 170.958C168.567 172.168 171.607 171.338 173.687 169.778C174.495 169.168 175.152 168.381 175.607 167.478C176.033 166.326 176.033 165.06 175.607 163.908C175.377 163.148 175.317 162.748 175.607 162.548C175.897 162.348 176.607 162.948 176.787 163.238C177.286 163.961 177.744 164.712 178.157 165.488C178.233 165.736 178.257 165.997 178.228 166.255C178.198 166.513 178.117 166.763 177.987 166.988C176.977 168.602 175.663 170.005 174.117 171.118C171.021 173.523 167.198 174.803 163.277 174.748C160.395 174.627 157.63 173.574 155.397 171.748C154.279 170.903 153.402 169.78 152.855 168.49C152.307 167.2 152.108 165.789 152.277 164.398C152.817 161.128 155.277 158.528 157.277 156.988Z" fill="#E7792D"/>
<path d="M240.607 104.158C240.977 103.878 241.297 103.878 241.467 104.028C241.637 104.178 241.557 104.578 241.267 104.948C241.073 105.255 240.956 105.604 240.925 105.966C240.894 106.328 240.949 106.692 241.087 107.028C241.387 108.028 244.227 113.958 244.757 115.138C245.887 117.438 247.447 120.748 248.587 123.138C248.967 123.888 248.277 124.858 247.927 125.138C247.489 125.459 246.956 125.625 246.413 125.611C245.87 125.596 245.347 125.402 244.927 125.058C244.772 124.938 244.645 124.786 244.555 124.611C244.466 124.437 244.416 124.245 244.409 124.049C244.402 123.853 244.439 123.658 244.516 123.478C244.594 123.298 244.71 123.138 244.857 123.008C245.017 122.888 245.957 122.258 246.257 122.008C246.557 121.758 246.487 121.558 246.367 121.238C246.177 120.688 245.087 118.638 244.817 118.118C244.721 117.989 244.589 117.891 244.437 117.838C244.187 117.838 243.307 117.438 242.867 117.288C240.527 116.418 233.987 114.148 231.997 113.538C231.666 113.411 231.314 113.351 230.96 113.363C230.606 113.375 230.258 113.459 229.937 113.608C229.447 113.808 229.007 113.898 228.697 113.608C228.597 113.528 228.697 113.128 229.047 112.868C230.127 112.058 231.247 111.368 232.047 110.738C232.847 110.108 233.927 109.238 234.307 108.948C234.687 108.658 235.087 108.528 235.307 108.718C235.527 108.908 235.497 109.098 235.137 109.618C234.627 110.318 234.807 110.468 235.687 110.858C237.764 111.733 239.887 112.494 242.047 113.138C242.08 113.158 242.118 113.169 242.157 113.169C242.196 113.169 242.234 113.158 242.267 113.138C242.291 113.106 242.304 113.068 242.304 113.028C242.304 112.988 242.291 112.949 242.267 112.918C241.837 111.998 240.267 108.678 239.777 107.918C239.407 107.308 238.777 107.238 237.587 107.698C237.446 107.774 237.29 107.82 237.129 107.832C236.969 107.844 236.808 107.822 236.657 107.768C236.427 107.578 236.587 107.238 236.937 106.978C237.477 106.578 238.237 106.088 238.607 105.808C238.977 105.528 239.877 104.708 240.607 104.158Z" fill="#E7792D"/>
<path d="M139.278 106.158C140.121 105.556 141.137 105.242 142.173 105.264C143.209 105.285 144.21 105.641 145.028 106.278C145.387 106.551 145.676 106.907 145.869 107.316C146.061 107.724 146.153 108.173 146.135 108.625C146.117 109.076 145.991 109.516 145.767 109.909C145.543 110.301 145.228 110.633 144.848 110.878C144.003 111.482 142.986 111.797 141.948 111.776C140.91 111.754 139.906 111.397 139.088 110.758C138.728 110.457 138.438 110.082 138.238 109.658L138.148 109.448C137.95 108.851 137.953 108.206 138.158 107.612C138.362 107.018 138.755 106.507 139.278 106.158Z" fill="#E7792D"/>
<path d="M115.528 112.597C116.474 112.839 117.355 113.287 118.108 113.907C118.463 114.202 118.782 114.537 119.058 114.907L114.748 116.157L115.528 112.597Z" fill="#E7792D"/>
<path d="M117.927 99.6274L118.337 99.7075L115.527 112.597L114.747 116.207L114.547 117.107L114.457 117.497C114.423 117.669 114.322 117.82 114.177 117.917C113.947 118.086 113.659 118.158 113.377 118.117C112.867 118.037 112.517 117.657 112.617 117.247V117.197L112.707 116.907L114.087 112.357L117.927 99.6274Z" fill="#E6792B"/>
<path d="M119.057 114.958L138.137 109.427L138.227 109.638L119.607 116.047L115.307 117.527L114.547 117.087L114.747 116.188L119.057 114.958Z" fill="#E6792B"/>
<path d="M112.568 117.677C112.503 117.552 112.481 117.408 112.506 117.269C112.532 117.129 112.603 117.002 112.708 116.907L112.618 117.198V117.247C112.572 117.394 112.579 117.553 112.637 117.695C112.696 117.838 112.802 117.955 112.938 118.027C112.781 117.952 112.652 117.83 112.568 117.677Z" fill="#E6792B"/>
<path d="M119.067 119.757L115.277 117.547L119.577 116.067C119.781 116.68 119.841 117.332 119.753 117.972C119.664 118.612 119.43 119.223 119.067 119.757Z" fill="#E7792D"/>
<path d="M112.937 118.028H113.007L118.187 120.728L117.817 121.028C116.498 121.973 114.908 122.465 113.286 122.431C111.663 122.396 110.096 121.837 108.817 120.838C108.173 120.321 107.686 119.634 107.414 118.854C107.142 118.074 107.094 117.233 107.277 116.428C107.277 116.328 107.337 116.218 107.377 116.118C107.716 115.162 108.337 114.332 109.158 113.738C110.589 112.708 112.341 112.226 114.098 112.378L112.717 116.928C112.612 117.022 112.541 117.149 112.516 117.289C112.491 117.428 112.512 117.572 112.577 117.698C112.662 117.841 112.787 117.956 112.937 118.028Z" fill="#E7792D"/>
<path d="M112.618 117.247C112.518 117.657 112.868 118.037 113.378 118.117C113.661 118.158 113.948 118.086 114.178 117.917C114.323 117.82 114.424 117.669 114.458 117.497L114.548 117.107L115.308 117.547L119.068 119.757L136.578 130.027L136.408 130.267L118.188 120.767L113.008 118.067H112.938C112.793 117.994 112.68 117.87 112.621 117.719C112.562 117.567 112.561 117.4 112.618 117.247Z" fill="#E6792B"/>
<path d="M137.277 129.358C138.123 128.758 139.141 128.447 140.178 128.47C141.215 128.493 142.218 128.85 143.037 129.488C143.394 129.763 143.679 130.12 143.87 130.529C144.06 130.938 144.15 131.386 144.132 131.837C144.113 132.288 143.987 132.727 143.763 133.119C143.539 133.51 143.225 133.843 142.847 134.088C142.002 134.689 140.986 135 139.95 134.977C138.914 134.954 137.913 134.596 137.097 133.958C136.541 133.54 136.163 132.928 136.039 132.244C135.914 131.56 136.053 130.854 136.427 130.268L136.597 130.028C136.793 129.775 137.021 129.55 137.277 129.358Z" fill="#E7792D"/>
<defs>
<filter id="filter0_d_585_2" x="0" y="118" width="297.938" height="129" filterUnits="userSpaceOnUse" color-interpolation-filters="sRGB">
<feFlood flood-opacity="0" result="BackgroundImageFix"/>
<feColorMatrix in="SourceAlpha" type="matrix" values="0 0 0 0 0 0 0 0 0 0 0 0 0 0 0 0 0 0 127 0" result="hardAlpha"/>
<feOffset dy="4"/>
<feGaussianBlur stdDeviation="2"/>
<feComposite in2="hardAlpha" operator="out"/>
<feColorMatrix type="matrix" values="0 0 0 0 0 0 0 0 0 0 0 0 0 0 0 0 0 0 0.25 0"/>
<feBlend mode="normal" in2="BackgroundImageFix" result="effect1_dropShadow_585_2"/>
<feBlend mode="normal" in="SourceGraphic" in2="effect1_dropShadow_585_2" result="shape"/>
</filter>
</defs>
</svg>
