<svg xmlns="http://www.w3.org/2000/svg" xmlns:xlink="http://www.w3.org/1999/xlink" viewBox="0 0 391.59 369.05"><defs><style>.cls-1{fill:none;}.cls-2{fill:#c7d2ff;}.cls-3{fill:#f6eeca;}.cls-4{fill:#fe3737;}.cls-5{fill:#5c5d63;}.cls-6{fill:#cc7100;}.cls-7{fill:#303134;}.cls-8{fill:#613600;}.cls-9{fill:#029d41;}.cls-10{clip-path:url(#clip-path);}.cls-11{fill:#028c3a;}.cls-12{fill:#fed3bc;}.cls-13{fill:#f0b89a;}.cls-14{fill:#4f6ddb;}.cls-15{fill:#fec519;}.cls-16{fill:#e39d76;}.cls-17{fill:#f56930;}.cls-18{fill:#794300;}.cls-19{clip-path:url(#clip-path-2);}.cls-20{fill:#c45527;}.cls-21{clip-path:url(#clip-path-3);}.cls-22{fill:#fec2a0;}.cls-23{fill:#965300;}.cls-24{clip-path:url(#clip-path-4);}.cls-25{fill:#4762c4;}.cls-26{clip-path:url(#clip-path-5);}.cls-27{fill:#232426;}.cls-28{fill:#f99979;}.cls-29{clip-path:url(#clip-path-6);}.cls-30{clip-path:url(#clip-path-7);}.cls-31{clip-path:url(#clip-path-8);}.cls-32{fill:#028f3b;}.cls-33{fill:#fefefe;}.cls-34{clip-path:url(#clip-path-9);}.cls-35{fill:#d9d9d9;}.cls-36{clip-path:url(#clip-path-10);}.cls-37{fill:#393a3d;}.cls-38{fill:#633700;}.cls-39{clip-path:url(#clip-path-11);}.cls-40{clip-path:url(#clip-path-12);}.cls-41{fill:#dbaa16;}.cls-42{fill:#f5aa7f;}.cls-43{clip-path:url(#clip-path-13);}.cls-44{clip-path:url(#clip-path-14);}.cls-45{fill:#28282a;}.cls-46{fill:#fff;}.cls-47{fill:#fed1b7;}.cls-48{fill:#f2aa79;}.cls-49{fill:#f37f2f;}</style><clipPath id="clip-path" transform="translate(-18.48 -14.98)"><path class="cls-1" d="M177.49,268.52c2.41-4.42,10.59-4.12,14.07-4.27,4.09-.19,6.8,1.21,6.8,5.7,0,3.32-.06,3.06-.9,5.25a10.8,10.8,0,0,0-.87-4.53c-.22-.66-1.33.49-3.21.56s-4.15-.13-4.22.24l-1.54,5.36a2.1,2.1,0,0,1-1.67,1.49h0s.07-4.45-3.28-4.3-3.13,5.61.66,6.71a20.11,20.11,0,0,1-1.46,4S175.08,272.93,177.49,268.52Z"/></clipPath><clipPath id="clip-path-2" transform="translate(-18.48 -14.98)"><path class="cls-1" d="M49.24,61.65c3.05-5.6,13.41-5.22,17.82-5.41,5.18-.23,8.61,1.53,8.61,7.22,0,4.21-.07,3.87-1.14,6.65a13.68,13.68,0,0,0-1.1-5.74c-.28-.83-1.68.62-4.07.71s-5.25-.16-5.35.3l-2,6.79a2.67,2.67,0,0,1-2.11,1.89h0s.09-5.63-4.16-5.45-4,7.11.83,8.49a25.48,25.48,0,0,1-1.85,5.08S46.18,67.25,49.24,61.65Z"/></clipPath><clipPath id="clip-path-3" transform="translate(-18.48 -14.98)"><path class="cls-1" d="M57.61,56.93S50,45.22,43,50.87s-1.09,12.46,5.65,12.59S57.61,56.93,57.61,56.93Z"/></clipPath><clipPath id="clip-path-4" transform="translate(-18.48 -14.98)"><path class="cls-1" d="M366.54,296.79c-3.07-5.62-13.47-5.24-17.89-5.44-5.2-.24-8.65,1.54-8.64,7.25,0,4.22.07,3.89,1.14,6.68a13.73,13.73,0,0,1,1.1-5.76c.28-.83,1.69.62,4.09.72s5.27-.16,5.37.3l2,6.81a2.68,2.68,0,0,0,2.12,1.9h0s-.09-5.65,4.17-5.47,4,7.14-.83,8.53a25.58,25.58,0,0,0,1.85,5.1S369.6,302.4,366.54,296.79Z"/></clipPath><clipPath id="clip-path-5" transform="translate(-18.48 -14.98)"><path class="cls-1" d="M358.13,292s7.65-11.75,14.66-6.09,1.09,12.51-5.68,12.64S358.13,292,358.13,292Z"/></clipPath><clipPath id="clip-path-6" transform="translate(-18.48 -14.98)"><path class="cls-1" d="M129.23,57.73c9-13.75,26-2.21,31.16-7.24,1.92,5.26-2.5,13.41-3.66,16.43a14.87,14.87,0,0,0-1.19-6.24c-.3-.9-1.83.67-4.43.78s-5.71-.17-5.81.33l-2.12,7.38a2.9,2.9,0,0,1-2.3,2.06h0s.1-6.12-4.52-5.92-4.32,7.73.9,9.24a27.7,27.7,0,0,1-2,5.52S125.43,63.53,129.23,57.73Z"/></clipPath><clipPath id="clip-path-7" transform="translate(-18.48 -14.98)"><path class="cls-1" d="M296.67,214c5.42-8.26,14.5-4.86,20.25-4.61a4.17,4.17,0,0,1,3.81,5.33,68.38,68.38,0,0,1-2.56,6.48,11.63,11.63,0,0,0-.93-4.88c-.24-.71-1.43.52-3.46.61s-4.47-.14-4.55.26L307.57,223a2.27,2.27,0,0,1-1.8,1.61h0s.08-4.79-3.53-4.63-3.38,6,.71,7.23a21.67,21.67,0,0,1-1.57,4.32S293.69,218.55,296.67,214Z"/></clipPath><clipPath id="clip-path-8" transform="translate(-18.48 -14.98)"><path class="cls-1" d="M123,220.35a11.18,11.18,0,0,1,.22-3.16c.47-1.54.16-6.08-2.69-7.46s-7.39-.31-8.7,5.08-3.58,6.23-3.58,6.23.12-6-4.42-5.77-4.23,7.62.92,9a13.23,13.23,0,0,1-1.92,5.28c-2.71-7.56-7.44-6-9.47-11.31a10.43,10.43,0,0,1,5.3-13.07c4.13-7.54,20.22-7.26,28.29.76-2.77,3.36-2.11,6.44-2.51,9.61C124.08,218.38,124,219.34,123,220.35Z"/></clipPath><clipPath id="clip-path-9" transform="translate(-18.48 -14.98)"><path class="cls-1" d="M231,95.16s4.1-10.5-6.72-13.34a21.74,21.74,0,0,0-4-.63,33.66,33.66,0,0,0-6.17.08,14,14,0,0,0-5.5,1.5c-8,4.69-5.85,16.36-12.57,19.29.38,7.47,13.21,19.25,19.07,18-2.13-3.79,1-7.84,1-8.47l2.34-.39s1.12-16.66,3.87-19.7c2-2.19,4.53-1.15,5.61-2S231,95.16,231,95.16Z"/></clipPath><clipPath id="clip-path-10" transform="translate(-18.48 -14.98)"><path class="cls-1" d="M96.88,314c3-5.56,13.32-5.18,17.7-5.38,5.15-.23,8.56,1.52,8.55,7.17,0,4.18-.07,3.85-1.13,6.61a13.59,13.59,0,0,0-1.09-5.7c-.28-.83-1.67.61-4,.71s-5.22-.16-5.31.3l-1.94,6.74a2.65,2.65,0,0,1-2.1,1.88h0s.09-5.59-4.13-5.41-3.94,7.06.83,8.44a25.3,25.3,0,0,1-1.83,5S93.85,319.54,96.88,314Z"/></clipPath><clipPath id="clip-path-11" transform="translate(-18.48 -14.98)"><path class="cls-1" d="M288.51,136.21c8.44-14.13,27.11-3.88,29.94,0s.32,9.2-.84,12.23a14.87,14.87,0,0,0-1.19-6.24c-.3-.9-1.83.67-4.43.78s-5.71-.17-5.81.33L304,150.68a2.9,2.9,0,0,1-2.3,2.06h0s.1-6.12-4.52-5.92-4.32,7.73.9,9.24a27.7,27.7,0,0,1-2,5.52S280.45,149.7,288.51,136.21Z"/></clipPath><clipPath id="clip-path-12" transform="translate(-18.48 -14.98)"><path class="cls-1" d="M260.24,279.65s-5-13,10.72-14c21.86-1.34,21.32,14,21.2,22.06,0,2.22-1.18,17-5,18.64-11.3,4.87-33.73,3.13-34.45-7.39S260.24,279.65,260.24,279.65Z"/></clipPath><clipPath id="clip-path-13" transform="translate(-18.48 -14.98)"><path class="cls-1" d="M150.69,133.84c-5.75-8.76-11.78-5.32-17.77-5.16a6.32,6.32,0,0,0-6.23,5.88c-.44,3.07,1,5.36,1.53,6.8a12.15,12.15,0,0,1,1-5.1c.25-.74,1.49.55,3.62.63s4.67-.14,4.75.27l1.73,6a2.37,2.37,0,0,0,1.88,1.68h0s-.08-5,3.69-4.84,3.53,6.32-.74,7.55a22.63,22.63,0,0,0,1.64,4.51S153.8,138.57,150.69,133.84Z"/></clipPath><clipPath id="clip-path-14" transform="translate(-18.48 -14.98)"><path class="cls-1" d="M295.66,65.63a9.43,9.43,0,0,0-.19-2.67c-.4-1.3-.13-5.13,2.27-6.29s6.23-.26,7.34,4.29,3,5.26,3,5.26-.1-5.06,3.73-4.87,3.57,6.43-.78,7.59a11.16,11.16,0,0,0,1.62,4.46c2.76-1,6.28-5.06,8-9.54a8.8,8.8,0,0,0-4.47-11c-3.49-6.36-24.08-6.68-23.87.64s-3.5,5.41-2.79,8.38S293.9,62.16,295.66,65.63Z"/></clipPath></defs><title>Crowdsourced</title><g id="Слой_4" data-name="Слой 4"><path class="cls-2" d="M347.61,197.79A133.33,133.33,0,1,1,92.7,143c-.27,3.47-.79,6.85-1.75,8.65-2.5,4.66-2.34,5.83,1,10.16s6.16,9.84,6.66,15,4.17,8.84,7.5,14-1.5,9.67-2.33,16.84.67,13.83,5.67,24.33,15.33,17.17,15.66,22.83,6.5,26,12.67,36.17,24,28,28.67,21.67c-7-2.5-9.67-10.17-11-16.34s2.33-6.5,8.83-14.5,3.5-13.66,10.83-18,11.5-9.16,10.34-18.16,6.16-9.17,7.33-15.67,1.33-11-8.5-13a40.93,40.93,0,0,1-23.33-14.17c-5.5-6.66-8.5-8.5-18.34-13.83s-19.5-15.17-22.33-11.5-8.83,6.17-13.17,3.17,1.34-10.5-1.5-11.84-3-4.66-1-7.66,1.84-12.17-2-7.5-5.83,2.83-5-3.84,11.67-18.83,16.17-12.5-7.17,9.34,0,11,4.33-7,9.83-14.83,17-17.67,21.67-20.5,7.33-2.17,12-2.33,2.83-2.84,2.33-6,4-5.17,6-1.5,1.84,3.5,6.34,3,4.83-3.5,2.33-8.34-1.17-3.5.33-7.5-3-2.83-5.16-2-1-2-3.5-3.83-4.17.33-6,4.17-5.84,3.83-9.5,6.33-3.17-2.5-2-7.08,5.16-4.75,10.66-7.09,8.67-.33,11.34,1.84,9.16,1.66,12-.84S184.78,73,188.13,71s6.15.67,5.15,3.37-6.5,6.3-4.83,10.13a5.89,5.89,0,0,0,9.83,1.33c2.67-3.33,6.5-4.16,13.33-5.83s9-6.67,7.84-10.83-6.84-2.17-14.84-2.67a7.18,7.18,0,0,1-4.27-1.28,134.39,134.39,0,0,1,56,6.06,10.62,10.62,0,0,1,.9,4.22c0,7.17-2,7.33-3.83,3.5s-10.34-7.17-14.84-2.83-7,9.5-4.83,11.5,9.54,5,11.35,4.66.15-4.16.82-7.16,7.16.83,7.5,4.83-.67,6.5-6.5,6.33-9.17-2.5-11,1.5-6,3.5-8.5-2-6.5-8.33-9.34-3-2,9.67,3.17,9.17,6.11.33,4.39,3.67-2.39,4.5-4.39,7.83-7-2.17-6.1,3.67,4.71,10.66,10.49,11.33,8.28-3.17,9.78-7,3.5-9,11.5-5.33,11.33,7,13.16,5.33-7.66-8-6.5-10.17,8,2.34,11.34,8.17,7.16,6,7.5,2.33-5.34-4.83,0-4.66,2.83-3.5,5.16-6.67,7.17-2.17,9.5,1.17.84,4-3.66,5-5.34,1.33-4.5,5.33,3.84,4.5,9.25,4.33,8.08,4,8.08,6.84-1.5,5.5-13.5,3.16-6.33,1.67-16.67-.83-10-6.5-19-6.33-21.33.33-29.33,5.83-20.83,17.5-19,38.67,14.67,23.33,23,24.83,19.83-3.83,29.17-.67,9,4.5,10.33,14.5,2.67,7.17,4.5,16.17-4.33,9.33-1.33,27.33-3.17,21.67,8,25,21.66-10.33,28.66-20.66,12.84-17.67,13.84-25.34-.67-14.5,3.66-23.83,16.84-25,12.5-30.5-5,2-11.5-2.5-18.5-22.67-15.33-26.17,9,13.67,13.5,18.17,8.33,5.17,10.83-3,4.17-16.33.67-18-2-.67-4.33-.17-11.5-8.66-11.34-11.33,1.84-3.5,5.34,2.17,3.83,3.66,7.66,4.83,3.5,5.5,6.34,3.33c2-1.54,5.12,4.43,8.37,9.43a0,0,0,0,0,0,0A133.25,133.25,0,0,1,347.61,197.79Z" transform="translate(-18.48 -14.98)"/><path class="cls-3" d="M211.61,80c-6.83,1.67-10.66,2.5-13.33,5.83a5.89,5.89,0,0,1-9.83-1.33c-1.67-3.83,3.83-7.42,4.83-10.13S191.49,69,188.13,71s-2.85,8.33-5.68,10.83-9.34,3-12,.84-5.84-4.17-11.34-1.84-9.5,2.5-10.66,7.09-1.67,9.58,2,7.08,7.66-2.5,9.5-6.33,3.5-6,6-4.17,1.33,4.67,3.5,3.83,6.66-2,5.16,2-2.83,2.67-.33,7.5,2.17,7.84-2.33,8.34-4.34.66-6.34-3-6.5-1.67-6,1.5,2.34,5.83-2.33,6-7.33-.5-12,2.33-16.17,12.67-21.67,20.5-2.66,16.5-9.83,14.83,4.5-4.66,0-11-15.33,5.84-16.17,12.5,1.17,8.5,5,3.84,4,4.5,2,7.5-1.83,6.33,1,7.66-2.83,8.84,1.5,11.84,10.34.5,13.17-3.17,13-.41,22.78,4.92,12.39,13.75,17.89,20.41A40.93,40.93,0,0,0,184.28,217c9.83,2,9.67,6.5,8.5,13s-8.5,6.67-7.33,15.67-3,13.83-10.34,18.16-4.33,10-10.83,18-10.17,8.34-8.83,14.5,4,13.84,11,16.34c-4.67,6.33-22.5-11.5-28.67-21.67s-12.33-30.5-12.67-36.17S114.45,242.46,109.45,232s-6.5-17.17-5.67-24.33,5.67-11.67,2.33-16.84-7-8.83-7.5-14-3.33-10.66-6.66-15-3.5-5.5-1-10.16c1-1.8,1.48-5.18,1.75-8.65h0A133.48,133.48,0,0,1,200.34,65.18a7.18,7.18,0,0,0,4.27,1.28c8,.5,13.67-1.5,14.84,2.67S218.45,78.29,211.61,80Z" transform="translate(-18.48 -14.98)"/><path class="cls-3" d="M110.61,155.62c-1.32-3.81,3.33-7.33,7.67-2s7.33,3.67,9.33,5.83-1.5,7-6.83,6.17S111.94,159.46,110.61,155.62Z" transform="translate(-18.48 -14.98)"/><path class="cls-3" d="M215.36,80c.92-2.89,8.58-1.67,9.75,1s.83,3.5-4.42,3.17S214.77,81.82,215.36,80Z" transform="translate(-18.48 -14.98)"/><path class="cls-3" d="M341.32,157.22c-3.25-5-6.36-11-8.37-9.43-2.84,2.17-2.5-2.16-6.34-3.33s-4.16.83-7.66-4.83-5.17-4.84-5.34-2.17,9,11.83,11.34,11.33.83-1.5,4.33.17,1.83,9.83-.67,18-6.33,7.5-10.83,3-10.33-21.67-13.5-18.17,8.83,21.67,15.33,26.17,7.17-3,11.5,2.5-8.16,21.17-12.5,30.5-2.66,16.17-3.66,23.83-6.84,15-13.84,25.34-17.5,24-28.66,20.66-5-7-8-25,3.16-18.33,1.33-27.33-3.17-6.17-4.5-16.17-1-11.33-10.33-14.5-20.84,2.17-29.17.67-21.17-3.67-23-24.83,11-33.17,19-38.67,20.33-5.67,29.33-5.83,8.67,3.83,19,6.33,4.67-1.5,16.67.83,13.5-.33,13.5-3.16-2.67-7-8.08-6.84-8.42-.33-9.25-4.33,0-4.33,4.5-5.33,6-1.67,3.66-5-7.16-4.34-9.5-1.17.17,6.83-5.16,6.67.33,1,0,4.66-4.17,3.5-7.5-2.33-10.17-10.33-11.34-8.17,8.34,8.5,6.5,10.17-5.16-1.67-13.16-5.33-10,1.5-11.5,5.33-4,7.67-9.78,7-9.56-5.5-10.49-11.33,4.1-.34,6.1-3.67,2.67-4.5,4.39-7.83.78-4.17-4.39-3.67-6-3.83-3.17-9.17,6.84-2.5,9.34,3,6.66,6,8.5,2,5.16-1.66,11-1.5,6.83-2.33,6.5-6.33-6.84-7.83-7.5-4.83,1,6.83-.82,7.16-9.18-2.66-11.35-4.66.33-7.17,4.83-11.5,13-1,14.84,2.83,3.83,3.67,3.83-3.5a10.62,10.62,0,0,0-.9-4.22A133.68,133.68,0,0,1,341.32,157.22Z" transform="translate(-18.48 -14.98)"/><path class="cls-3" d="M326.28,230.12c1.86-1.56,6.33,2.33-.83,16s-8.67,16.83-11.83,15.17S320.11,235.29,326.28,230.12Z" transform="translate(-18.48 -14.98)"/><path class="cls-4" d="M103.36,334.24h-.11a1,1,0,0,1-.88-1.11l.68-6a1,1,0,0,1,2,.22l-.68,6A1,1,0,0,1,103.36,334.24Zm4.58-2.29a1,1,0,0,1-.52-1.85l5.12-3.13a1,1,0,1,1,1,1.71l-5.12,3.13A1,1,0,0,1,107.94,331.95Zm10.24-6.26a1,1,0,0,1-.52-1.85l5.12-3.13a1,1,0,1,1,1,1.71l-5.12,3.13A1,1,0,0,1,118.18,325.68Zm-13.46-3.37h-.11a1,1,0,0,1-.88-1.11l.68-6a1,1,0,0,1,2,.22l-.68,6A1,1,0,0,1,104.71,322.31Zm23.7-2.89a1,1,0,0,1-.52-1.85l5.12-3.13a1,1,0,1,1,1,1.71l-5.12,3.13A1,1,0,0,1,128.41,319.42Zm10.24-6.26a1,1,0,0,1-.52-1.85l5.12-3.13a1,1,0,1,1,1,1.71L139.17,313A1,1,0,0,1,138.65,313.16Zm-32.58-2.77H106a1,1,0,0,1-.88-1.11l.68-6a1,1,0,0,1,2,.22l-.68,6A1,1,0,0,1,106.07,310.39Zm42.82-3.5a1,1,0,0,1-.52-1.85l5.12-3.13a1,1,0,1,1,1,1.71l-5.12,3.13A1,1,0,0,1,148.88,306.89Zm10.24-6.26a1,1,0,0,1-.52-1.85l5.12-3.13a1,1,0,1,1,1,1.71l-5.12,3.13A1,1,0,0,1,159.12,300.63Zm-51.7-2.16h-.11a1,1,0,0,1-.88-1.11l.68-6a1,1,0,0,1,2,.22l-.68,6A1,1,0,0,1,107.42,298.47Zm175.65-2.28a1,1,0,0,1-.72-.31l-.75-.78a1,1,0,1,1,1.44-1.38l.75.78a1,1,0,0,1-.72,1.69Zm-113.71-1.83a1,1,0,0,1-.52-1.85l5.12-3.13a1,1,0,1,1,1,1.71l-5.12,3.13A1,1,0,0,1,169.35,294.36Zm108.81-3.28a1,1,0,0,1-.72-.31l-4.16-4.33a1,1,0,1,1,1.44-1.38l4.16,4.33a1,1,0,0,1-.72,1.69Zm-98.57-3a1,1,0,0,1-.52-1.85l5.12-3.13a1,1,0,1,1,1,1.71L180.11,288A1,1,0,0,1,179.59,288.1Zm-70.82-1.56h-.11a1,1,0,0,1-.88-1.11l.68-6a1,1,0,0,1,2,.22l-.68,6A1,1,0,0,1,108.77,286.54Zm161.08-4.12a1,1,0,0,1-.72-.31L265,277.79a1,1,0,1,1,1.44-1.38l4.16,4.33a1,1,0,0,1-.72,1.69Zm-81.14-1.5a1,1,0,0,1-.94-1.34l2-5.65a1,1,0,1,1,1.88.68l-2,5.65A1,1,0,0,1,188.7,280.92Zm-78.58-6.3H110a1,1,0,0,1-.88-1.11l.68-6a1,1,0,0,1,2,.22l-.68,6A1,1,0,0,1,110.12,274.62Zm151.41-.85a1,1,0,0,1-.72-.31l-4.16-4.33a1,1,0,1,1,1.44-1.38l4.16,4.33a1,1,0,0,1-.72,1.69Zm-68.78-4.14a1,1,0,0,1-.94-1.34l2-5.65a1,1,0,1,1,1.88.68l-2,5.65A1,1,0,0,1,192.76,269.63Zm60.46-4.51a1,1,0,0,1-.72-.31l-4.16-4.33a1,1,0,1,1,1.44-1.38l4.16,4.33a1,1,0,0,1-.72,1.69ZM111.47,262.7h-.11a1,1,0,0,1-.88-1.11l.68-6a1,1,0,0,1,2,.22l-.68,6A1,1,0,0,1,111.47,262.7Zm85.34-4.36a1,1,0,0,1-.94-1.34l2-5.65a1,1,0,1,1,1.88.68l-2,5.65A1,1,0,0,1,196.82,258.34Zm48.09-1.87a1,1,0,0,1-.72-.31L240,251.83a1,1,0,1,1,1.44-1.38l4.16,4.33a1,1,0,0,1-.72,1.69Zm-132.08-5.69h-.11a1,1,0,0,1-.88-1.11l.68-6a1,1,0,0,1,2,.22l-.68,6A1,1,0,0,1,112.83,250.77Zm123.77-3a1,1,0,0,1-.72-.31l-4.16-4.33a1,1,0,1,1,1.44-1.38l4.16,4.33a1,1,0,0,1-.72,1.69ZM200.87,247a1,1,0,0,1-.94-1.34l2-5.65a1,1,0,1,1,1.88.68l-2,5.65A1,1,0,0,1,200.87,247Zm27.41-7.89a1,1,0,0,1-.72-.31l-4.16-4.33a1,1,0,0,1,1.44-1.38l4.16,4.33a1,1,0,0,1-.72,1.69Zm-114.11-.31h-.11a1,1,0,0,1-.88-1.11l.68-6a1,1,0,0,1,2,.22l-.68,6A1,1,0,0,1,114.18,238.85Zm90.75-3.1a1,1,0,0,1-.94-1.34l2-5.65a1,1,0,1,1,1.88.68l-2,5.65A1,1,0,0,1,204.93,235.75Zm15-5.25a1,1,0,0,1-.72-.31l-4.16-4.33a1,1,0,1,1,1.44-1.38l4.16,4.33a1,1,0,0,1-.72,1.69Zm-104.44-3.57h-.11a1,1,0,0,1-.88-1.11L115,222l3.23-1.12a1,1,0,1,1,.66,1.89l-2,.71-.29,2.57A1,1,0,0,1,115.53,226.93ZM209,224.46a1,1,0,0,1-.94-1.34l2-5.45,2.38,2.48a1,1,0,0,1-1.44,1.38l-.15-.15-.87,2.41A1,1,0,0,1,209,224.46Zm-84.79-3.61a1,1,0,0,1-.33-1.94l5.67-2a1,1,0,0,1,.66,1.89l-5.67,2A1,1,0,0,1,124.19,220.84Zm11.33-3.95a1,1,0,0,1-.33-1.94l5.67-2a1,1,0,1,1,.66,1.89l-5.67,2A1,1,0,0,1,135.52,216.9ZM146.86,213a1,1,0,0,1-.33-1.94l5.67-2a1,1,0,1,1,.66,1.89l-5.67,2A1,1,0,0,1,146.86,213ZM158.19,209a1,1,0,0,1-.33-1.94l5.67-2a1,1,0,0,1,.66,1.89l-5.67,2A1,1,0,0,1,158.19,209Zm11.33-3.95a1,1,0,0,1-.33-1.94l5.67-2a1,1,0,1,1,.66,1.89l-5.67,2A1,1,0,0,1,169.52,205.06Zm11.33-3.95a1,1,0,0,1-.33-1.94l5.67-2a1,1,0,0,1,.66,1.89l-5.67,2A1,1,0,0,1,180.85,201.11Zm11.33-3.95a1,1,0,0,1-.33-1.94l5.67-2a1,1,0,0,1,.66,1.89l-5.67,2A1,1,0,0,1,192.19,197.17Zm11.33-3.95a1,1,0,0,1-.55-1.83l-2.07-1.59a1,1,0,0,1,1.22-1.58l5,3.83-3.24,1.13A1,1,0,0,1,203.52,193.22Zm-6.76-6.88a1,1,0,0,1-.61-.21l-4.75-3.66a1,1,0,0,1,1.22-1.58l4.75,3.66a1,1,0,0,1-.61,1.79Zm-9.5-7.33a1,1,0,0,1-.61-.21l-4.75-3.66a1,1,0,0,1,1.22-1.58l4.75,3.66a1,1,0,0,1-.61,1.79Zm-9.5-7.33a1,1,0,0,1-.61-.21l-4.75-3.66a1,1,0,1,1,1.22-1.58l4.75,3.66a1,1,0,0,1-.61,1.79Zm-9.5-7.33a1,1,0,0,1-.61-.21l-4.75-3.66a1,1,0,1,1,1.22-1.58l4.75,3.66a1,1,0,0,1-.61,1.79Zm-9.5-7.33a1,1,0,0,1-.61-.21l-4.75-3.66a1,1,0,1,1,1.22-1.58l4.75,3.66a1,1,0,0,1-.61,1.79Zm-9.5-7.33a1,1,0,0,1-.61-.21l-4.75-3.66a1,1,0,1,1,1.22-1.58l4.75,3.66a1,1,0,0,1-.61,1.79Z" transform="translate(-18.48 -14.98)"/><path class="cls-4" d="M303.28,221.16a1,1,0,0,1-.3,0l-5.73-1.79a1,1,0,1,1,.6-1.91l5.73,1.79a1,1,0,0,1-.3,2Zm-11.45-3.58a1,1,0,0,1-.3,0l-5.73-1.79a1,1,0,0,1,.6-1.91l5.73,1.79a1,1,0,0,1-.3,2Zm13.28-.68H305a1,1,0,0,1-.87-1.12l.74-6a1,1,0,1,1,2,.25l-.74,6A1,1,0,0,1,305.11,216.9ZM280.38,214a1,1,0,0,1-.3,0l-5.73-1.79a1,1,0,0,1,.6-1.91l5.73,1.79a1,1,0,0,1-.3,2Zm-11.45-3.58a1,1,0,0,1-.3,0l-5.73-1.79a1,1,0,1,1,.6-1.91l5.73,1.79a1,1,0,0,1-.3,2Zm-11.45-3.58a1,1,0,0,1-.3,0L251.45,205a1,1,0,1,1,.6-1.91l5.73,1.79a1,1,0,0,1-.3,2ZM306.58,205h-.12a1,1,0,0,1-.87-1.12l.74-6a1,1,0,0,1,1.11-.87,1,1,0,0,1,.87,1.12l-.74,6A1,1,0,0,1,306.58,205ZM246,203.24a1,1,0,0,1-.3,0L240,201.41a1,1,0,0,1,.6-1.91l5.73,1.79a1,1,0,0,1-.3,2Zm-11.45-3.58a1,1,0,0,1-.3,0l-5.73-1.79a1,1,0,0,1,.6-1.91l5.73,1.79a1,1,0,0,1-.3,2Zm-11.45-3.58a1,1,0,0,1-.3,0l-5.73-1.79a1,1,0,0,1,.6-1.91l5.73,1.79a1,1,0,0,1-.3,2Zm84.94-3h-.12a1,1,0,0,1-.87-1.12l.74-6a1,1,0,0,1,1.11-.87,1,1,0,0,1,.87,1.12l-.74,6A1,1,0,0,1,308.05,193.08ZM222,191.77a1,1,0,0,1-.43-1.9L227,187.3a1,1,0,0,1,.86,1.81l-5.42,2.57A1,1,0,0,1,222,191.77Zm10.84-5.14a1,1,0,0,1-.43-1.9l5.42-2.57a1,1,0,0,1,.86,1.81l-5.42,2.57A1,1,0,0,1,232.81,186.64Zm10.84-5.14a1,1,0,0,1-.43-1.9l5.42-2.57a1,1,0,0,1,.86,1.81l-5.42,2.57A1,1,0,0,1,243.65,181.5Zm65.87-.33h-.12a1,1,0,0,1-.87-1.12l.74-6a1,1,0,0,1,1.11-.87,1,1,0,0,1,.87,1.12l-.74,6A1,1,0,0,1,309.52,181.17Zm-55-4.81a1,1,0,0,1-.43-1.9l5.42-2.57a1,1,0,0,1,.86,1.81l-5.42,2.57A1,1,0,0,1,254.5,176.36Zm10.85-5.14a1,1,0,0,1-.43-1.9l5.42-2.57a1,1,0,0,1,.86,1.81l-5.42,2.57A1,1,0,0,1,265.34,171.23Zm45.65-2h-.12a1,1,0,0,1-.87-1.12l.73-6a1,1,0,0,1,1.11-.87,1,1,0,0,1,.87,1.12l-.73,6A1,1,0,0,1,311,169.26Zm-34.81-3.17a1,1,0,0,1-.43-1.9l5.42-2.57a1,1,0,0,1,.86,1.81L276.62,166A1,1,0,0,1,276.19,166.09ZM287,161a1,1,0,0,1-.43-1.9l5.42-2.57a1,1,0,0,1,.86,1.81l-5.42,2.57A1,1,0,0,1,287,161Zm25.43-3.6h-.12a1,1,0,0,1-.87-1.12L312,152a1,1,0,1,1,2,.25l-.53,4.27A1,1,0,0,1,312.46,157.36Zm-14.58-1.54a1,1,0,0,1-.43-1.9l5.42-2.57a1,1,0,0,1,.86,1.81l-5.42,2.57A1,1,0,0,1,297.88,155.82Zm6.37-7.95a1,1,0,0,1-1-1l0-6a1,1,0,0,1,1-1h0a1,1,0,0,1,1,1l0,6a1,1,0,0,1-1,1Zm-.07-12a1,1,0,0,1-1-1l0-6a1,1,0,0,1,1-1h0a1,1,0,0,1,1,1l0,6a1,1,0,0,1-1,1Zm-.07-12a1,1,0,0,1-1-1l0-6a1,1,0,0,1,1-1h0a1,1,0,0,1,1,1l0,6a1,1,0,0,1-1,1Zm-.07-12a1,1,0,0,1-1-1l0-6a1,1,0,0,1,1-1h0a1,1,0,0,1,1,1l0,6a1,1,0,0,1-1,1Zm-84.61-9.6a1,1,0,0,1-.35-.06l-5.63-2.08a1,1,0,1,1,.69-1.88l5.63,2.08a1,1,0,0,1-.35,1.94Zm5.6-.79a1,1,0,0,1-.37-1.93l5.58-2.2a1,1,0,1,1,.73,1.86l-5.58,2.2A1,1,0,0,1,225,101.48ZM304,99.87a1,1,0,0,1-1-1l0-6a1,1,0,0,1,1-1h0a1,1,0,0,1,1,1l0,6a1,1,0,0,1-1,1Zm-95.79-1.75a1,1,0,0,1-.35-.06L202.19,96a1,1,0,1,1,.69-1.88l5.63,2.08a1,1,0,0,1-.35,1.94Zm28-1a1,1,0,0,1-.37-1.93l5.58-2.2a1,1,0,1,1,.73,1.86L236.56,97A1,1,0,0,1,236.19,97.09ZM196.91,94a1,1,0,0,1-.35-.06l-5.63-2.08a1,1,0,1,1,.69-1.88L197.26,92a1,1,0,0,1-.35,1.94Zm50.45-1.26a1,1,0,0,1-.37-1.93l5.58-2.2a1,1,0,0,1,.73,1.86l-5.58,2.2A1,1,0,0,1,247.36,92.7Zm-61.7-2.89a1,1,0,0,1-.35-.06l-5.63-2.08a1,1,0,1,1,.69-1.88L186,87.87a1,1,0,0,1-.35,1.94Zm72.87-1.5a1,1,0,0,1-.37-1.93l5.58-2.2a1,1,0,0,1,.73,1.86l-5.58,2.2A1,1,0,0,1,258.52,88.3Zm45.36-.44a1,1,0,0,1-1-1l0-6a1,1,0,0,1,1-1h0a1,1,0,0,1,1,1l0,6a1,1,0,0,1-1,1ZM174.4,85.65a1,1,0,0,1-.35-.06l-5.63-2.08a1,1,0,0,1,.69-1.88l5.63,2.08a1,1,0,0,1-.35,1.94Zm95.3-1.74a1,1,0,0,1-.37-1.93l5.58-2.2a1,1,0,0,1,.73,1.86l-5.58,2.2A1,1,0,0,1,269.69,83.91ZM163.14,81.49a1,1,0,0,1-.35-.06l-5.63-2.08a1,1,0,1,1,.69-1.88l5.63,2.08a1,1,0,0,1-.35,1.94Zm117.72-2a1,1,0,0,1-.37-1.93l5.58-2.2a1,1,0,0,1,.73,1.86l-5.58,2.2A1,1,0,0,1,280.86,79.52Zm-129-2.18a1,1,0,0,1-.35-.06l-5.63-2.08a1,1,0,1,1,.69-1.88l5.63,2.08a1,1,0,0,1-.35,1.94Zm151.93-1.47a1,1,0,0,1-1-1l0-4.23a1,1,0,0,1,0-1.84l1.94-.76,0,6.83a1,1,0,0,1-1,1ZM292,75.13a1,1,0,0,1-.37-1.93l5.58-2.2a1,1,0,1,1,.73,1.86l-5.58,2.2A1,1,0,0,1,292,75.13Z" transform="translate(-18.48 -14.98)"/><path class="cls-4" d="M215.18,174.41h-.1a1,1,0,0,1-.9-1.09l0-.37a1,1,0,1,1,2,.19l0,.37A1,1,0,0,1,215.18,174.41Zm.61-6.34h-.1a1,1,0,0,1-.9-1.09l.58-6a1,1,0,1,1,2,.19l-.58,6A1,1,0,0,1,215.79,168.07Zm1.15-11.94h-.1a1,1,0,0,1-.9-1.09l.57-6a1,1,0,1,1,2,.19l-.57,6A1,1,0,0,1,216.94,156.13Zm1.15-11.94H218a1,1,0,0,1-.9-1.09l.57-6a1,1,0,1,1,2,.19l-.57,6A1,1,0,0,1,218.09,144.18Zm1.15-11.94h-.1a1,1,0,0,1-.9-1.09l.57-6a1,1,0,1,1,2,.19l-.57,6A1,1,0,0,1,219.24,132.24Zm1.15-11.94h-.1a1,1,0,0,1-.9-1.09l.57-6a1,1,0,1,1,2,.19l-.57,6A1,1,0,0,1,220.39,120.29Zm1.15-11.94h-.1a1,1,0,0,1-.9-1.09l.57-6a1,1,0,1,1,2,.19l-.57,6A1,1,0,0,1,221.54,108.35Z" transform="translate(-18.48 -14.98)"/><path class="cls-4" d="M282.65,286a1,1,0,0,1-.62-1.79l4.73-3.69a1,1,0,0,1,1.23,1.58l-4.73,3.69A1,1,0,0,1,282.65,286Zm9.46-7.38a1,1,0,0,1-.62-1.79l4.73-3.69a1,1,0,1,1,1.23,1.58l-4.73,3.69A1,1,0,0,1,292.11,278.66Zm9.46-7.38a1,1,0,0,1-.62-1.79l4.73-3.69a1,1,0,0,1,1.23,1.58l-4.73,3.69A1,1,0,0,1,301.58,271.28Zm9.46-7.38a1,1,0,0,1-.62-1.79l4.73-3.69a1,1,0,0,1,1.23,1.58l-4.73,3.69A1,1,0,0,1,311,263.91Zm9.46-7.38a1,1,0,0,1-.62-1.79l4.73-3.69a1,1,0,1,1,1.23,1.58l-4.73,3.69A1,1,0,0,1,320.5,256.53Zm9.46-7.38a1,1,0,0,1-.62-1.79l4.73-3.69a1,1,0,1,1,1.23,1.58l-4.73,3.69A1,1,0,0,1,330,249.15Zm9.46-7.38a1,1,0,0,1-.62-1.79l4.73-3.69a1,1,0,0,1,1.23,1.58L340,241.56A1,1,0,0,1,339.43,241.77Zm9.46-7.38a1,1,0,0,1-.62-1.79l4.73-3.69a1,1,0,0,1,1.23,1.58l-4.73,3.69A1,1,0,0,1,348.89,234.39Zm9.46-7.38a1,1,0,0,1-.62-1.79l4.73-3.69a1,1,0,1,1,1.23,1.58L359,226.8A1,1,0,0,1,358.36,227Zm9.46-7.38a1,1,0,0,1-.62-1.79l4.73-3.69a1,1,0,0,1,1.23,1.58l-4.73,3.69A1,1,0,0,1,367.82,219.63Zm9.46-7.38a1,1,0,0,1-.62-1.79l4.73-3.69a1,1,0,0,1,1.23,1.58L377.9,212A1,1,0,0,1,377.29,212.25Zm6.8-7.29a1,1,0,0,1-.56-.17l-5-3.35a1,1,0,1,1,1.12-1.66l5,3.35a1,1,0,0,1-.56,1.83Zm-10-6.7a1,1,0,0,1-.56-.17l-5-3.35a1,1,0,1,1,1.12-1.66l5,3.35a1,1,0,0,1-.56,1.83Zm-10-6.7a1,1,0,0,1-.56-.17l-5-3.35a1,1,0,1,1,1.12-1.66l5,3.35a1,1,0,0,1-.56,1.83Zm-10-6.7a1,1,0,0,1-.56-.17l-5-3.35a1,1,0,1,1,1.12-1.66l5,3.35a1,1,0,0,1-.56,1.83Zm-10-6.7a1,1,0,0,1-.56-.17l-5-3.35a1,1,0,1,1,1.12-1.66l5,3.35a1,1,0,0,1-.56,1.83Zm-10-6.7a1,1,0,0,1-.56-.17l-5-3.35a1,1,0,1,1,1.12-1.66l5,3.35a1,1,0,0,1-.56,1.83Zm-10-6.7a1,1,0,0,1-.56-.17l-5-3.35a1,1,0,1,1,1.12-1.66l5,3.35a1,1,0,0,1-.56,1.83Zm-10-6.7a1,1,0,0,1-.56-.17l-5-3.35a1,1,0,1,1,1.12-1.66l5,3.35a1,1,0,0,1-.56,1.83Z" transform="translate(-18.48 -14.98)"/><path class="cls-4" d="M60.09,162.05a1,1,0,0,1-.76-1.65l3.92-4.54a1,1,0,0,1,1.51,1.31l-3.92,4.54A1,1,0,0,1,60.09,162.05ZM67.93,153a1,1,0,0,1-.76-1.65l3.92-4.54a1,1,0,1,1,1.51,1.31l-3.92,4.54A1,1,0,0,1,67.93,153Zm7.84-9.08a1,1,0,0,1-.76-1.65l3.92-4.54A1,1,0,1,1,80.45,139l-3.92,4.54A1,1,0,0,1,75.77,143.89Zm7.84-9.08a1,1,0,0,1-.76-1.65l3.92-4.54a1,1,0,0,1,1.51,1.31l-3.92,4.54A1,1,0,0,1,83.62,134.81Zm7.84-9.08a1,1,0,0,1-.76-1.65l3.92-4.54a1,1,0,1,1,1.51,1.31l-3.92,4.54A1,1,0,0,1,91.46,125.72Zm7.84-9.08a1,1,0,0,1-.76-1.65l3.92-4.54a1,1,0,0,1,1.51,1.31l-3.92,4.54A1,1,0,0,1,99.3,116.64Zm7.84-9.08a1,1,0,0,1-.76-1.65l3.92-4.54a1,1,0,0,1,1.51,1.31l-3.92,4.54A1,1,0,0,1,107.14,107.56ZM115,98.48a1,1,0,0,1-.76-1.65l3.92-4.54a1,1,0,1,1,1.51,1.31l-3.92,4.54A1,1,0,0,1,115,98.48Zm7.84-9.08a1,1,0,0,1-.76-1.65L126,83.2a1,1,0,0,1,1.51,1.31L123.59,89A1,1,0,0,1,122.83,89.39Zm7.84-9.08a1,1,0,0,1-.76-1.65l3.92-4.54a1,1,0,1,1,1.51,1.31L131.43,80A1,1,0,0,1,130.67,80.31Z" transform="translate(-18.48 -14.98)"/><path class="cls-4" d="M106.5,211.1a1,1,0,0,1-.75-.34l-1.17-1.32a1,1,0,1,1,1.5-1.33l1.17,1.32a1,1,0,0,1-.75,1.66Zm-5.15-5.81a1,1,0,0,1-.75-.34l-4-4.49a1,1,0,0,1,1.5-1.33l4,4.49a1,1,0,0,1-.75,1.66Zm-8-9a1,1,0,0,1-.75-.34l-4-4.49a1,1,0,1,1,1.5-1.33l4,4.49a1,1,0,0,1-.75,1.66Zm-8-9a1,1,0,0,1-.75-.34l-4-4.49a1,1,0,0,1,1.5-1.33l4,4.49a1,1,0,0,1-.75,1.66Zm-8-9a1,1,0,0,1-.75-.34l-4-4.49a1,1,0,0,1,1.5-1.33l4,4.49a1,1,0,0,1-.75,1.66Zm-8-9a1,1,0,0,1-.75-.34l-4-4.49a1,1,0,1,1,1.5-1.33l4,4.49a1,1,0,0,1-.75,1.66Z" transform="translate(-18.48 -14.98)"/><path class="cls-4" d="M312.34,150.86a1,1,0,0,1-.57-1.83l5-3.39a1,1,0,0,1,1.13,1.65l-5,3.39A1,1,0,0,1,312.34,150.86Zm9.91-6.77a1,1,0,0,1-.57-1.83l5-3.39a1,1,0,0,1,1.13,1.65l-5,3.39A1,1,0,0,1,322.25,144.09Zm9.91-6.77a1,1,0,0,1-.57-1.83l5-3.39a1,1,0,0,1,1.13,1.65l-5,3.39A1,1,0,0,1,332.16,137.31Zm9.91-6.77a1,1,0,0,1-.57-1.83l5-3.39a1,1,0,0,1,1.13,1.65l-5,3.39A1,1,0,0,1,342.06,130.54Zm9.91-6.77a1,1,0,0,1-.57-1.83l5-3.39a1,1,0,0,1,1.13,1.65l-5,3.39A1,1,0,0,1,352,123.77Zm9.91-6.77a1,1,0,0,1-.57-1.83l5-3.39a1,1,0,0,1,1.13,1.65l-5,3.39A1,1,0,0,1,361.87,117Zm9.91-6.77a1,1,0,0,1-.57-1.83l2.16-1.48a1,1,0,0,1,1.13,1.65L372.34,110A1,1,0,0,1,371.78,110.22Z" transform="translate(-18.48 -14.98)"/><path class="cls-4" d="M374.7,98.76a1,1,0,0,1-.42-.09l-5.43-2.55a1,1,0,1,1,.85-1.81l5.43,2.55a1,1,0,0,1-.43,1.91Zm-10.86-5.1a1,1,0,0,1-.42-.09L358,91a1,1,0,0,1,.85-1.81l5.43,2.55a1,1,0,0,1-.43,1.91ZM225.09,90.6a1,1,0,0,1-1-1l-.07-3.5a1,1,0,0,1,2,0l.07,3.5a1,1,0,0,1-1,1Zm127.9-2a1,1,0,0,1-.42-.09l-5.43-2.55A1,1,0,1,1,348,84.1l5.43,2.55a1,1,0,0,1-.43,1.91Zm-10.86-5.1a1,1,0,0,1-.42-.09l-5.43-2.55a1,1,0,0,1,.85-1.81l5.43,2.55a1,1,0,0,1-.43,1.91ZM224.89,81.09a1,1,0,0,1-1-1l-.12-6a1,1,0,0,1,1-1,1,1,0,0,1,1,1l.12,6a1,1,0,0,1-1,1Zm106.37-2.75a1,1,0,0,1-.42-.09l-5.43-2.55a1,1,0,1,1,.85-1.81l5.43,2.55a1,1,0,0,1-.43,1.91Zm-10.86-5.1a1,1,0,0,1-.42-.09l-5.43-2.55a1,1,0,1,1,.85-1.81l5.43,2.55a1,1,0,0,1-.43,1.91ZM224.64,69.1a1,1,0,0,1-1-1l-.12-6a1,1,0,0,1,1-1,1,1,0,0,1,1,1l.12,6a1,1,0,0,1-1,1Zm84.9-1a1,1,0,0,1-.42-.09l-4.18-2-1.23-.47a1,1,0,0,1,.72-1.87l1.29.5,4.24,2a1,1,0,0,1-.43,1.91Zm-11.07-4.61a1,1,0,0,1-.36-.07l-5.6-2.15a1,1,0,0,1,.72-1.87l5.6,2.15a1,1,0,0,1-.36,1.93Zm-11.2-4.3a1,1,0,0,1-.36-.07L281.31,57a1,1,0,0,1,.72-1.87l5.6,2.15a1,1,0,0,1-.36,1.93ZM224.39,57.1a1,1,0,0,1-1-1l-.12-6a1,1,0,0,1,1-1,1,1,0,0,1,1,1l.12,6a1,1,0,0,1-1,1Zm51.67-2.16a1,1,0,0,1-.36-.07l-5.6-2.15a1,1,0,0,1,.72-1.87l5.6,2.15a1,1,0,0,1-.36,1.93Zm-11.2-4.3a1,1,0,0,1-.36-.07l-5.6-2.15a1,1,0,0,1,.72-1.87l5.6,2.15a1,1,0,0,1-.36,1.93Zm-11.2-4.3a1,1,0,0,1-.36-.07l-5.6-2.15a1,1,0,0,1,.72-1.87L254,44.4a1,1,0,0,1-.36,1.93ZM224.14,45.1a1,1,0,0,1-1-1l-.12-6a1,1,0,0,1,2,0l.13,6a1,1,0,0,1-1,1ZM242.45,42a1,1,0,0,1-.36-.07l-5.6-2.15a1,1,0,0,1,.72-1.87l5.6,2.15a1,1,0,0,1-.36,1.93Zm-11.2-4.3a1,1,0,0,1-.36-.07l-5.6-2.15a1,1,0,0,1,.72-1.87l5.6,2.15a1,1,0,0,1-.36,1.93Z" transform="translate(-18.48 -14.98)"/><path class="cls-4" d="M53,161.57h0a1,1,0,0,1-1-1l.12-6a1,1,0,0,1,2,0l-.12,6A1,1,0,0,1,53,161.57Zm.25-12h0a1,1,0,0,1-1-1l.12-6a1,1,0,0,1,1-1,1,1,0,0,1,1,1l-.12,6A1,1,0,0,1,53.25,149.57Zm.25-12h0a1,1,0,0,1-1-1l.12-6a1,1,0,1,1,2,0l-.12,6A1,1,0,0,1,53.5,137.58Zm.25-12h0a1,1,0,0,1-1-1l.12-6a1,1,0,0,1,1-1,1,1,0,0,1,1,1l-.12,6A1,1,0,0,1,53.74,125.58Zm.25-12h0a1,1,0,0,1-1-1l.12-6a1,1,0,0,1,1-1,1,1,0,0,1,1,1l-.12,6A1,1,0,0,1,54,113.58Zm.25-12h0a1,1,0,0,1-1-1l.12-6a1,1,0,0,1,1-1,1,1,0,0,1,1,1l-.12,6A1,1,0,0,1,54.23,101.58Zm.25-12h0a1,1,0,0,1-1-1l.12-6a1,1,0,1,1,2,0l-.12,6A1,1,0,0,1,54.48,89.58Zm.25-12h0a1,1,0,0,1-1-1l0-1.11.74-.19c.14,0,.28-.07,5.84-.5a1,1,0,0,1,.15,2l-4.94.4A1,1,0,0,1,54.72,77.59Zm11.69-1.28a1,1,0,0,1-.07-2l6-.45a1,1,0,1,1,.15,2l-6,.45Zm12-.9a1,1,0,0,1-.07-2l6-.44a1,1,0,0,1,.15,2l-6,.44Zm12-.88a1,1,0,0,1-.07-2l6-.44a1,1,0,0,1,.15,2l-6,.44Zm12-.88a1,1,0,0,1-.07-2l6-.44a1,1,0,1,1,.15,2l-6,.44Zm12-.88a1,1,0,0,1-.07-2l6-.44a1,1,0,1,1,.14,2l-6,.44Zm12-.87a1,1,0,0,1-.07-2l6-.44a1,1,0,1,1,.14,2l-6,.44Zm12-.87a1,1,0,0,1-.07-2l6-.44a1,1,0,1,1,.14,2l-6,.44Z" transform="translate(-18.48 -14.98)"/><path class="cls-4" d="M223.63,367.76l-5.23-1.43a1,1,0,1,1,.53-1.93l3.79,1,.31-.49a1,1,0,1,1,1.69,1.06Zm-10.75-3a1,1,0,0,1-.26,0l-5.79-1.58a1,1,0,0,1,.53-1.93l5.79,1.58a1,1,0,0,1-.26,2Zm-11.57-3.17a1,1,0,0,1-.26,0L195.26,360a1,1,0,0,1,.53-1.93l5.79,1.58a1,1,0,0,1-.26,2Zm25.76-.22a1,1,0,0,1-.85-1.53l3.19-5.08a1,1,0,1,1,1.7,1.06l-3.19,5.08A1,1,0,0,1,227.07,361.39Zm-37.34-2.95a1,1,0,0,1-.26,0l-5.79-1.58a1,1,0,0,1,.53-1.93l5.79,1.58a1,1,0,0,1-.26,2Zm-11.57-3.17a1,1,0,0,1-.26,0l-5.79-1.58a1,1,0,0,1,.53-1.93l5.79,1.58a1,1,0,0,1-.26,2Zm-11.57-3.17a1,1,0,0,1-.26,0l-5.79-1.58a1,1,0,0,1,.53-1.93l5.79,1.58a1,1,0,0,1-.26,2Zm66.86-.88a1,1,0,0,1-.85-1.53l3.19-5.08a1,1,0,0,1,1.7,1.06l-3.19,5.08A1,1,0,0,1,233.45,351.22ZM155,348.94a1,1,0,0,1-.26,0L149,347.32a1,1,0,0,1,.53-1.93l5.79,1.58a1,1,0,0,1-.26,2Zm-11.57-3.17a1,1,0,0,1-.26,0l-5.79-1.58a1,1,0,0,1,.53-1.93l5.79,1.58a1,1,0,0,1-.26,2Zm-11.57-3.17a1,1,0,0,1-.26,0L125.81,341a1,1,0,0,1,.53-1.93l5.79,1.58a1,1,0,0,1-.26,2Zm108-1.55a1,1,0,0,1-.53-.15,1,1,0,0,1-.32-1.38l3.19-5.08a1,1,0,1,1,1.69,1.06l-3.19,5.08A1,1,0,0,1,239.82,341.06Zm-119.53-1.62a1,1,0,0,1-.26,0l-5.79-1.58a1,1,0,0,1,.53-1.93l5.79,1.58a1,1,0,0,1-.26,2Zm-11.57-3.17a1,1,0,0,1-.26,0L103,334.75a1,1,0,0,1,.53-1.93l5.42,1.48a1,1,0,0,1-.26,2Zm137.48-5.38a1,1,0,0,1-.85-1.53l3.19-5.08a1,1,0,1,1,1.7,1.06L247,330.42A1,1,0,0,1,246.2,330.89Zm6.38-10.17a1,1,0,0,1-.85-1.53l3.19-5.08a1,1,0,1,1,1.7,1.06l-3.19,5.08A1,1,0,0,1,252.57,320.72Zm115.88-7.9a1,1,0,0,1-.26,0l-5.79-1.58a1,1,0,1,1,.53-1.93l5.79,1.58a1,1,0,0,1-.26,2ZM259,310.56a1,1,0,0,1-.85-1.53l3.19-5.08A1,1,0,0,1,263,305l-3.19,5.08A1,1,0,0,1,259,310.56Zm112.5-.29h-.12a1,1,0,0,1-.88-1.11l.68-6a1,1,0,1,1,2,.23l-.68,6A1,1,0,0,1,371.45,310.26Zm-14.57-.6a1,1,0,0,1-.26,0l-5.79-1.58a1,1,0,0,1,.53-1.93l5.79,1.58a1,1,0,0,1-.26,2Zm-11.58-3.16a1,1,0,0,1-.26,0l-5.79-1.58a1,1,0,0,1,.53-1.93l5.79,1.58a1,1,0,0,1-.26,2Zm-11.58-3.16a1,1,0,0,1-.26,0l-5.79-1.58a1,1,0,1,1,.53-1.93l5.79,1.58a1,1,0,0,1-.26,2Zm-68.4-3a1,1,0,0,1-.85-1.53l3.19-5.08a1,1,0,0,1,1.7,1.06l-3.19,5.08A1,1,0,0,1,265.33,300.39Zm56.82-.2a1,1,0,0,1-.26,0l-5.79-1.58a1,1,0,1,1,.53-1.93l5.79,1.58a1,1,0,0,1-.26,2Zm50.67-1.85h-.12a1,1,0,0,1-.88-1.11l.68-6a1,1,0,1,1,2,.23l-.68,6A1,1,0,0,1,372.82,298.34ZM310.57,297a1,1,0,0,1-.26,0l-5.79-1.58a1,1,0,1,1,.53-1.93l5.79,1.58a1,1,0,0,1-.26,2ZM299,293.88a1,1,0,0,1-.26,0l-5.79-1.58a1,1,0,1,1,.53-1.93l5.79,1.58a1,1,0,0,1-.26,2Zm-11.58-3.16a1,1,0,0,1-.26,0l-5.79-1.58a1,1,0,1,1,.53-1.93l5.79,1.58a1,1,0,0,1-.26,2Zm-15.71-.5a1,1,0,0,1-.53-.15,1,1,0,0,1-.32-1.38l2.42-3.86,2.83.77a1,1,0,1,1-.53,1.93l-1.39-.38-1.63,2.6A1,1,0,0,1,271.7,290.23Zm102.48-3.81h-.12a1,1,0,0,1-.88-1.11l.68-6a1,1,0,0,1,1.11-.88,1,1,0,0,1,.88,1.11l-.68,6A1,1,0,0,1,374.18,286.42Zm1.37-11.92h-.12a1,1,0,0,1-.88-1.11l.68-6a1,1,0,0,1,2,.23l-.68,6A1,1,0,0,1,375.55,274.5Zm1.37-11.92h-.12a1,1,0,0,1-.88-1.11l.68-6a1,1,0,0,1,2,.23l-.68,6A1,1,0,0,1,376.92,262.58Zm1.37-11.92h-.12a1,1,0,0,1-.88-1.11l.68-6a1,1,0,0,1,1.11-.88,1,1,0,0,1,.88,1.11l-.68,6A1,1,0,0,1,378.29,250.66Zm1.37-11.92h-.12a1,1,0,0,1-.88-1.11l.68-6a1,1,0,1,1,2,.23l-.68,6A1,1,0,0,1,379.66,238.73ZM381,226.81h-.12a1,1,0,0,1-.88-1.11l.68-6a1,1,0,1,1,2,.23l-.68,6A1,1,0,0,1,381,226.81Zm1.37-11.92h-.12a1,1,0,0,1-.88-1.11l.68-6a1,1,0,1,1,2,.23l-.68,6A1,1,0,0,1,382.4,214.89Z" transform="translate(-18.48 -14.98)"/><path class="cls-4" d="M220.7,348.46a1,1,0,0,1-.9-.57l-2.6-5.41a1,1,0,1,1,1.8-.87l2.6,5.41a1,1,0,0,1-.9,1.43Zm-5.21-10.81a1,1,0,0,1-.9-.57l-2.6-5.41a1,1,0,1,1,1.8-.87l2.6,5.41a1,1,0,0,1-.9,1.43Zm-5.21-10.81a1,1,0,0,1-.9-.57l-2.6-5.41a1,1,0,1,1,1.8-.87l2.6,5.41a1,1,0,0,1-.9,1.43ZM205.08,316a1,1,0,0,1-.9-.57l-2.6-5.41a1,1,0,1,1,1.8-.87l2.6,5.41a1,1,0,0,1-.9,1.43Zm-5.21-10.81a1,1,0,0,1-.9-.57l-2.6-5.41a1,1,0,1,1,1.8-.87l2.6,5.41a1,1,0,0,1-.9,1.43Zm-5.21-10.81a1,1,0,0,1-.9-.57l-2.6-5.41a1,1,0,1,1,1.8-.87l2.6,5.41a1,1,0,0,1-.9,1.43Z" transform="translate(-18.48 -14.98)"/><path class="cls-4" d="M104.32,330.61a1,1,0,0,1-.72-.3L99.42,326a1,1,0,1,1,1.44-1.39l4.18,4.31a1,1,0,0,1-.72,1.7ZM96,322a1,1,0,0,1-.72-.3l-4.18-4.31A1,1,0,0,1,92.5,316l4.18,4.31A1,1,0,0,1,96,322Zm-8.35-8.61a1,1,0,0,1-.72-.3l-4.18-4.31a1,1,0,1,1,1.44-1.39l4.18,4.31a1,1,0,0,1-.72,1.7Zm-8.36-8.61a1,1,0,0,1-.72-.3l-4.18-4.31a1,1,0,0,1,1.44-1.39L80,303.07a1,1,0,0,1-.72,1.7Zm-8.36-8.61a1,1,0,0,1-.72-.3L66,291.54a1,1,0,1,1,1.44-1.39l4.18,4.31a1,1,0,0,1-.72,1.7Zm-8.35-8.61a1,1,0,0,1-.72-.3l-4.18-4.31a1,1,0,0,1,1.44-1.39l4.18,4.31a1,1,0,0,1-.72,1.7Zm-8.36-8.61a1,1,0,0,1-.72-.3l-4.18-4.31a1,1,0,1,1,1.44-1.39l4.18,4.31a1,1,0,0,1-.72,1.7Zm-7.32-9H46.8a1,1,0,0,1-.93-1.07c.09-1.27.24-3.34.44-6a1,1,0,0,1,2,.15c-.2,2.68-.35,4.74-.44,6A1,1,0,0,1,46.87,269.91Zm.89-12h-.08a1,1,0,0,1-.92-1.07l.46-6a1,1,0,0,1,2,.15l-.46,6A1,1,0,0,1,47.76,257.88Zm.92-12h-.08a1,1,0,0,1-.92-1.07l.47-6a1,1,0,1,1,2,.15l-.47,6A1,1,0,0,1,48.69,245.87Zm.93-12h-.08a1,1,0,0,1-.92-1.08l.47-6a1,1,0,0,1,2,.16l-.47,6A1,1,0,0,1,49.62,233.87Zm.94-12h-.08a1,1,0,0,1-.92-1.08l.47-6a1,1,0,0,1,2,.16l-.47,6A1,1,0,0,1,50.55,221.88Zm.94-12h-.08a1,1,0,0,1-.92-1.08l.47-6a1,1,0,1,1,2,.16l-.47,6A1,1,0,0,1,51.5,209.89Zm.94-12h-.08a1,1,0,0,1-.92-1.08l.47-6a1,1,0,1,1,2,.16l-.47,6A1,1,0,0,1,52.44,197.89Zm.95-12h-.08a1,1,0,0,1-.92-1.08l.47-6a1,1,0,0,1,2,.16l-.47,6A1,1,0,0,1,53.39,185.89Zm.95-12h-.08a1,1,0,0,1-.92-1.08l.36-4.56a1,1,0,1,1,2,.16L55.33,173A1,1,0,0,1,54.33,173.87Z" transform="translate(-18.48 -14.98)"/><path class="cls-4" d="M145.3,62.79a1,1,0,0,1-.33-1.94l5.66-2a1,1,0,1,1,.67,1.88l-5.66,2A1,1,0,0,1,145.3,62.79Zm11.31-4a1,1,0,0,1-.33-1.94l5.66-2a1,1,0,0,1,.67,1.88l-5.66,2A1,1,0,0,1,156.61,58.79Zm11.31-4a1,1,0,0,1-.33-1.94l5.66-2a1,1,0,0,1,.67,1.88l-5.66,2A1,1,0,0,1,167.92,54.78Zm11.31-4a1,1,0,0,1-.33-1.94l5.66-2a1,1,0,0,1,.67,1.88l-5.66,2A1,1,0,0,1,179.23,50.77Zm11.31-4a1,1,0,0,1-.33-1.94l5.66-2a1,1,0,0,1,.67,1.88l-5.66,2A1,1,0,0,1,190.54,46.77Zm11.31-4a1,1,0,0,1-.33-1.94l5.66-2a1,1,0,0,1,.67,1.88l-5.66,2A1,1,0,0,1,201.85,42.76Zm11.31-4a1,1,0,0,1-.33-1.94l5.66-2a1,1,0,0,1,.67,1.88l-5.66,2A1,1,0,0,1,213.17,38.75Z" transform="translate(-18.48 -14.98)"/><path class="cls-4" d="M280.53,302.84l-.2,0-5.88-1.19a1,1,0,1,1,.4-2l5.88,1.19a1,1,0,0,1-.2,2Zm-11.76-2.38-.2,0-5.88-1.19a1,1,0,1,1,.4-2l5.88,1.19a1,1,0,0,1-.2,2ZM257,298.08l-.2,0-5.88-1.19a1,1,0,0,1,.4-2l5.88,1.19a1,1,0,0,1-.2,2Zm-11.76-2.38-.2,0-5.88-1.19a1,1,0,0,1,.4-2l5.88,1.19a1,1,0,0,1-.2,2Zm-11.76-2.38-.2,0-5.88-1.19a1,1,0,1,1,.4-2l5.88,1.19a1,1,0,0,1-.2,2Zm-11.76-2.38-.2,0-5.88-1.19a1,1,0,0,1,.4-2l5.88,1.19a1,1,0,0,1-.2,2ZM210,288.55l-.2,0-5.88-1.19a1,1,0,0,1,.4-2l5.88,1.19a1,1,0,0,1-.2,2Zm-11.76-2.38-.2,0L192.12,285a1,1,0,0,1,.4-2l5.88,1.19a1,1,0,0,1-.2,2Z" transform="translate(-18.48 -14.98)"/><path class="cls-4" d="M220.71,362.21a1,1,0,0,1-.27-2l5.78-1.61a1,1,0,0,1,.54,1.93L221,362.18A1,1,0,0,1,220.71,362.21ZM232.27,359a1,1,0,0,1-.27-2l5.78-1.61a1,1,0,1,1,.54,1.93L232.54,359A1,1,0,0,1,232.27,359Zm11.56-3.22a1,1,0,0,1-.27-2l5.78-1.61a1,1,0,0,1,.54,1.93l-5.78,1.61A1,1,0,0,1,243.83,355.78Zm11.56-3.21a1,1,0,0,1-.27-2l5.78-1.61a1,1,0,1,1,.54,1.93l-5.78,1.61A1,1,0,0,1,255.4,352.57ZM267,349.35a1,1,0,0,1-.27-2l5.78-1.61a1,1,0,0,1,.54,1.93l-5.78,1.61A1,1,0,0,1,267,349.35Zm11.56-3.21a1,1,0,0,1-.27-2l5.78-1.61a1,1,0,0,1,.54,1.93l-5.78,1.61A1,1,0,0,1,278.52,346.14Zm11.56-3.21a1,1,0,0,1-.27-2l5.78-1.61a1,1,0,1,1,.54,1.93l-5.78,1.61A1,1,0,0,1,290.08,342.92Zm11.56-3.22a1,1,0,0,1-.27-2l5.78-1.61a1,1,0,1,1,.54,1.93l-5.78,1.61A1,1,0,0,1,301.64,339.71Zm11.56-3.21a1,1,0,0,1-.27-2l5.78-1.61a1,1,0,0,1,.54,1.93l-5.78,1.61A1,1,0,0,1,313.2,336.49Zm11.56-3.21a1,1,0,0,1-.27-2l5.78-1.61a1,1,0,0,1,.54,1.93L325,333.24A1,1,0,0,1,324.76,333.28Zm11.56-3.22a1,1,0,0,1-.27-2l5.78-1.61a1,1,0,0,1,.54,1.93L336.59,330A1,1,0,0,1,336.32,330.06Zm11.56-3.21a1,1,0,0,1-.27-2l5.78-1.61a1,1,0,0,1,.54,1.93l-5.78,1.61A1,1,0,0,1,347.89,326.84Zm11.56-3.22a1,1,0,0,1-.27-2l5.78-1.61a1,1,0,0,1,.54,1.93l-5.78,1.61A1,1,0,0,1,359.45,323.63ZM371,320.41a1,1,0,0,1-.27-2l5.2-1.45a1,1,0,0,1,.54,1.93l-5.2,1.45A1,1,0,0,1,371,320.41Z" transform="translate(-18.48 -14.98)"/><path class="cls-4" d="M389,206.35a1,1,0,0,1-1-.94l-.32-5.73a1,1,0,0,1,.94-1.05,1,1,0,0,1,1.05.94l.32,5.73a1,1,0,0,1-.94,1.05Zm-.66-11.72a1,1,0,0,1-1-.94l-.34-6a1,1,0,1,1,2-.11l.34,6a1,1,0,0,1-.94,1.05Zm-.67-12a1,1,0,0,1-1-.94l-.34-6a1,1,0,0,1,.94-1.05,1,1,0,0,1,1.05.94l.34,6a1,1,0,0,1-.94,1.05Zm-.67-12a1,1,0,0,1-1-.94l-.34-6a1,1,0,1,1,2-.11l.34,6a1,1,0,0,1-.94,1.05Zm-.67-12a1,1,0,0,1-1-.94l-.34-6a1,1,0,1,1,2-.11l.34,6a1,1,0,0,1-.94,1.05Zm-.67-12a1,1,0,0,1-1-.94l-.34-6a1,1,0,1,1,2-.11l.34,6a1,1,0,0,1-.94,1.05Zm-.67-12a1,1,0,0,1-1-.94l-.34-6a1,1,0,1,1,2-.11l.34,6a1,1,0,0,1-.94,1.05Zm-.67-12a1,1,0,0,1-1-.94l-.34-6a1,1,0,0,1,.94-1.05,1,1,0,0,1,1.05.94l.34,6a1,1,0,0,1-.94,1.05Zm-.67-12a1,1,0,0,1-1-.94l-.34-6a1,1,0,1,1,2-.11l.34,6a1,1,0,0,1-.94,1.05Z" transform="translate(-18.48 -14.98)"/><circle class="cls-5" cx="166.66" cy="265.13" r="20.35"/><path class="cls-6" d="M178.36,289.76s2.42,1.75,5.1,3.43,5.82,3.4,6.78,3c1.26-.54,1.35-1.61,1.22-2.67s-1.85-3.8-.34-6.73c4.23.95,6.26-3.86,6.05-5.68a25.42,25.42,0,0,1-.15-3.43,5.75,5.75,0,0,1,.36-2.19c.37-1.17.08-5.54.08-5.54s-9.48-4.59-10.42-.58-1.68,3.72-5,3.86c-1.89.14-2.77,2.84-2.41,4.52.3,1.39,2,2.63,3.64,3.06a24.11,24.11,0,0,1-3.13,7A13.08,13.08,0,0,1,178.36,289.76Z" transform="translate(-18.48 -14.98)"/><ellipse class="cls-7" cx="173.08" cy="262.53" rx="0.58" ry="1.17"/><ellipse class="cls-7" cx="177.82" cy="262.39" rx="0.51" ry="1.09"/><path class="cls-7" d="M195,281.34a1.61,1.61,0,0,1-.68-.18.16.16,0,0,1,.14-.3c.3.15.71.26.9,0a1.52,1.52,0,0,0-.43-1.67.16.16,0,0,1,.22-.24,1.83,1.83,0,0,1,.48,2.09A.73.73,0,0,1,195,281.34Z" transform="translate(-18.48 -14.98)"/><path class="cls-8" d="M191.12,286.77a4.43,4.43,0,0,1-2.55-2.26,4.87,4.87,0,0,0,2,3.64Z" transform="translate(-18.48 -14.98)"/><path class="cls-9" d="M177.49,268.52c2.41-4.42,10.59-4.12,14.07-4.27,4.09-.19,6.8,1.21,6.8,5.7,0,3.32-.06,3.06-.9,5.25a10.8,10.8,0,0,0-.87-4.53c-.22-.66-1.33.49-3.21.56s-4.15-.13-4.22.24l-1.54,5.36a2.1,2.1,0,0,1-1.67,1.49h0s.07-4.45-3.28-4.3-3.13,5.61.66,6.71a20.11,20.11,0,0,1-1.46,4S175.08,272.93,177.49,268.52Z" transform="translate(-18.48 -14.98)"/><path class="cls-7" d="M194,284a2,2,0,0,1-1.88-1.19.16.16,0,0,1,.29-.15,1.91,1.91,0,0,0,2.56.82.16.16,0,0,1,.14.3A2.94,2.94,0,0,1,194,284Z" transform="translate(-18.48 -14.98)"/><path class="cls-7" d="M192.76,275.36a.16.16,0,0,1-.09,0,2.32,2.32,0,0,0-2.33-.15.16.16,0,1,1-.18-.27,2.61,2.61,0,0,1,2.7.15.16.16,0,0,1,0,.23A.16.16,0,0,1,192.76,275.36Z" transform="translate(-18.48 -14.98)"/><path class="cls-7" d="M195.72,275.13a.16.16,0,0,1-.11,0,.16.16,0,0,1,0-.23,1.37,1.37,0,0,1,1.47-.28.16.16,0,1,1-.1.31,1.07,1.07,0,0,0-1.13.18A.16.16,0,0,1,195.72,275.13Z" transform="translate(-18.48 -14.98)"/><g class="cls-10"><path class="cls-11" d="M193,271.69l-.42-.29s1.87-2.8,1.28-5.09a3.48,3.48,0,0,0-1.93-2.24l.23-.46a4,4,0,0,1,2.2,2.57C195,268.7,193.06,271.56,193,271.69Z" transform="translate(-18.48 -14.98)"/><path class="cls-11" d="M189.06,273.21c-1.67-7.69-9.94-7.25-10-7.25l0-.51c.09,0,8.79-.47,10.55,7.65Z" transform="translate(-18.48 -14.98)"/><path class="cls-11" d="M188.37,275.36c-3-3.6-11.91-7.13-12-7.17l.19-.47c.37.15,9.08,3.61,12.21,7.31Z" transform="translate(-18.48 -14.98)"/><path class="cls-11" d="M194.53,271.63l-.34-.38s2.24-2,2.17-4.37a4.22,4.22,0,0,0-1.81-3.17l.32-.4a4.7,4.7,0,0,1,2,3.56C196.94,269.43,194.63,271.54,194.53,271.63Z" transform="translate(-18.48 -14.98)"/></g><circle class="cls-5" cx="204.07" cy="343.93" r="25.12"/><path class="cls-12" d="M233.31,370.83s-3,2.16-6.3,4.24-7.19,4.19-8.37,3.68c-1.56-.67-1.66-2-1.5-3.3s2.29-4.7.42-8.31c-5.22,1.17-7.73-4.76-7.47-7a31.37,31.37,0,0,0,.18-4.23,7.1,7.1,0,0,0-.45-2.7c-.45-1.44-.09-6.84-.09-6.84s11.7-5.67,12.87-.72,2.07,4.59,6.21,4.77c2.33.18,3.42,3.5,3,5.57-.37,1.71-2.44,3.24-4.5,3.78a29.76,29.76,0,0,0,3.86,8.64A16.15,16.15,0,0,0,233.31,370.83Z" transform="translate(-18.48 -14.98)"/><ellipse class="cls-7" cx="198.54" cy="340.73" rx="0.72" ry="1.44"/><ellipse class="cls-7" cx="192.7" cy="340.55" rx="0.63" ry="1.35"/><path class="cls-7" d="M212.76,360.43a.9.9,0,0,1-.78-.4,2.25,2.25,0,0,1,.59-2.58.2.2,0,0,1,.27.3,1.87,1.87,0,0,0-.53,2.06c.24.35.74.22,1.11,0a.2.2,0,1,1,.17.37A2,2,0,0,1,212.76,360.43Z" transform="translate(-18.48 -14.98)"/><path class="cls-13" d="M217.56,367.14a5.47,5.47,0,0,0,3.15-2.79,6,6,0,0,1-2.52,4.5Z" transform="translate(-18.48 -14.98)"/><path class="cls-14" d="M233,344.92c-2-5.89-11.68-5.41-16-5.6-5-.23-8.39,1.49-8.39,7,0,4.1.07,3.77,1.11,6.48a13.33,13.33,0,0,1,1.07-5.6c.27-.81,1.64.6,4,.7s5.12-.16,5.21.29l1.9,6.61A2.6,2.6,0,0,0,224,356.7h0s-.09-5.49,4-5.31,3.87,6.93-.81,8.28c.71,4.29,4.28,9.18,4.28,9.18S238.54,361.42,233,344.92Z" transform="translate(-18.48 -14.98)"/><path class="cls-7" d="M214,363.73a3.62,3.62,0,0,1-1.37-.28.2.2,0,0,1,.17-.37,2.36,2.36,0,0,0,3.16-1,.2.2,0,0,1,.36.19A2.49,2.49,0,0,1,214,363.73Z" transform="translate(-18.48 -14.98)"/><path class="cls-7" d="M215.54,353a.2.2,0,0,1-.11-.37,3.21,3.21,0,0,1,3.33-.19.2.2,0,1,1-.22.34,2.86,2.86,0,0,0-2.88.19A.2.2,0,0,1,215.54,353Z" transform="translate(-18.48 -14.98)"/><path class="cls-7" d="M211.89,352.77a.2.2,0,0,1-.15-.07,1.32,1.32,0,0,0-1.39-.22.2.2,0,1,1-.12-.39,1.71,1.71,0,0,1,1.81.34.2.2,0,0,1,0,.29A.2.2,0,0,1,211.89,352.77Z" transform="translate(-18.48 -14.98)"/><circle class="cls-5" cx="362.27" cy="87.94" r="28.33"/><path class="cls-15" d="M404.53,99.11c9.85,3.28-1.41,13.1-7.9,16-4.17-4.44-5.94-17.65-5.94-17.65l-11.43,12.67s-.06-25.67,3.84-28.32C398.07,71.6,394.67,95.83,404.53,99.11Z" transform="translate(-18.48 -14.98)"/><path class="cls-16" d="M390.18,116.36s-3.36,2.43-7.1,4.78-8.1,4.73-9.44,4.15c-1.75-.76-1.88-2.24-1.69-3.72s2.58-5.3.47-9.37c-5.88,1.32-8.72-5.37-8.42-7.91a35.38,35.38,0,0,0,.21-4.77,8,8,0,0,0-.5-3c-.51-1.63-.11-7.71-.11-7.71s13.19-6.39,14.51-.81,2.33,5.17,7,5.38c2.63.2,3.85,4,3.35,6.29-.41,1.93-2.75,3.65-5.07,4.26a33.56,33.56,0,0,0,4.36,9.74A18.21,18.21,0,0,0,390.18,116.36Z" transform="translate(-18.48 -14.98)"/><ellipse class="cls-7" cx="353.33" cy="84.33" rx="0.81" ry="1.62"/><ellipse class="cls-7" cx="346.74" cy="84.13" rx="0.71" ry="1.52"/><path class="cls-7" d="M367,104.64a1,1,0,0,1-.88-.45,2.54,2.54,0,0,1,.66-2.91.23.23,0,0,1,.31.34,2.11,2.11,0,0,0-.59,2.32c.27.4.83.24,1.25,0a.23.23,0,0,1,.2.41A2.24,2.24,0,0,1,367,104.64Z" transform="translate(-18.48 -14.98)"/><path class="cls-8" d="M372.42,112.2s2.74-.91,3.55-3.15c0,3.15-2.84,5.07-2.84,5.07Z" transform="translate(-18.48 -14.98)"/><path class="cls-15" d="M391.4,86.79c-3.36-6.15-14.74-5.73-19.58-5.95-5.69-.26-9.47,1.68-9.46,7.94,0,4.62.08,4.25,1.25,7.31-.11-2.74,3.05-5.63,5.68-5.52,1.57,5.87,8.26,5.21,8.26,5.21.31,1.08,1,4.47,2.08,4.66h0s-.1-6.19,4.57-6,4.36,7.81-.91,9.33a28,28,0,0,0,2,5.58S394.75,92.94,391.4,86.79Z" transform="translate(-18.48 -14.98)"/><path class="cls-7" d="M368.44,108.36a4.07,4.07,0,0,1-1.55-.32.23.23,0,0,1-.11-.3.23.23,0,0,1,.3-.11,2.66,2.66,0,0,0,3.57-1.13.23.23,0,1,1,.4.21A2.81,2.81,0,0,1,368.44,108.36Z" transform="translate(-18.48 -14.98)"/><path class="cls-7" d="M370.14,96.31a.23.23,0,0,1-.13-.42c.08-.06,2.05-1.35,3.76-.21a.23.23,0,1,1-.25.38c-1.46-1-3.23.2-3.25.21A.23.23,0,0,1,370.14,96.31Z" transform="translate(-18.48 -14.98)"/><path class="cls-7" d="M366,96a.23.23,0,0,1-.17-.08h0a1.48,1.48,0,0,0-1.57-.25.23.23,0,0,1-.14-.44,1.92,1.92,0,0,1,2,.38A.23.23,0,0,1,366,96Z" transform="translate(-18.48 -14.98)"/><circle class="cls-5" cx="40.44" cy="61.36" r="25.78"/><path class="cls-17" d="M48.22,62.38s-.78,13.85-9.75,16.83,1.28,11.92,7.19,14.52c3.8-4,4.68-5.17,4.68-5.17l9.94-5.71s-2.4-19.93-6.41-21.48S48.22,62.38,48.22,62.38Z" transform="translate(-18.48 -14.98)"/><path class="cls-18" d="M50.34,88.57s3.06,2.21,6.46,4.35,7.37,4.3,8.59,3.78c1.6-.69,1.71-2,1.54-3.39s-2.35-4.82-.43-8.53c5.35,1.2,7.94-4.89,7.66-7.2A32.2,32.2,0,0,1,74,73.24a7.28,7.28,0,0,1,.46-2.77c.47-1.48.1-7,.1-7s-12-5.82-13.21-.74S59.21,67.42,55,67.61c-2.4.18-3.51,3.6-3,5.72.37,1.76,2.5,3.33,4.62,3.88a30.54,30.54,0,0,1-4,8.87A16.57,16.57,0,0,1,50.34,88.57Z" transform="translate(-18.48 -14.98)"/><ellipse class="cls-7" cx="48.58" cy="58.07" rx="0.74" ry="1.48"/><ellipse class="cls-7" cx="54.58" cy="57.89" rx="0.65" ry="1.39"/><path class="cls-7" d="M71.43,77.9a2,2,0,0,1-.86-.23.21.21,0,1,1,.18-.37c.38.18.9.32,1.14,0a1.92,1.92,0,0,0-.54-2.11.21.21,0,1,1,.28-.31,2.31,2.31,0,0,1,.6,2.65A.92.92,0,0,1,71.43,77.9Z" transform="translate(-18.48 -14.98)"/><path class="cls-8" d="M66.5,84.78a5.61,5.61,0,0,1-3.23-2.86,6.17,6.17,0,0,0,2.59,4.62Z" transform="translate(-18.48 -14.98)"/><path class="cls-17" d="M49.24,61.65c3.05-5.6,13.41-5.22,17.82-5.41,5.18-.23,8.61,1.53,8.61,7.22,0,4.21-.07,3.87-1.14,6.65a13.68,13.68,0,0,0-1.1-5.74c-.28-.83-1.68.62-4.07.71s-5.25-.16-5.35.3l-2,6.79a2.67,2.67,0,0,1-2.11,1.89h0s.09-5.63-4.16-5.45-4,7.11.83,8.49a25.48,25.48,0,0,1-1.85,5.08S46.18,67.25,49.24,61.65Z" transform="translate(-18.48 -14.98)"/><path class="cls-7" d="M70.13,81.29a2.56,2.56,0,0,1-2.38-1.51.21.21,0,0,1,.37-.19,2.43,2.43,0,0,0,3.25,1,.21.21,0,0,1,.18.38A3.72,3.72,0,0,1,70.13,81.29Z" transform="translate(-18.48 -14.98)"/><path class="cls-7" d="M68.58,70.32a.21.21,0,0,1-.11,0s-1.64-1.07-3-.19a.21.21,0,1,1-.23-.35,3.3,3.3,0,0,1,3.42.19.21.21,0,0,1-.12.38Z" transform="translate(-18.48 -14.98)"/><path class="cls-7" d="M72.33,70a.21.21,0,0,1-.16-.34A1.74,1.74,0,0,1,74,69.34a.21.21,0,0,1-.12.4,1.35,1.35,0,0,0-1.43.23A.21.21,0,0,1,72.33,70Z" transform="translate(-18.48 -14.98)"/><g class="cls-19"><path class="cls-20" d="M68.85,65.67l-.54-.36s2.37-3.55,1.62-6.46A4.4,4.4,0,0,0,67.49,56l.29-.58a5,5,0,0,1,2.78,3.25C71.39,61.88,69,65.52,68.85,65.67Z" transform="translate(-18.48 -14.98)"/><path class="cls-20" d="M63.9,67.6c-2.11-9.75-12.59-9.19-12.69-9.18l0-.65c.11,0,11.14-.6,13.37,9.69Z" transform="translate(-18.48 -14.98)"/><path class="cls-20" d="M63,70.32c-3.85-4.56-15.09-9-15.21-9.08l.24-.6c.47.18,11.5,4.57,15.46,9.26Z" transform="translate(-18.48 -14.98)"/><path class="cls-20" d="M70.82,65.59l-.43-.48s2.84-2.59,2.75-5.54a5.35,5.35,0,0,0-2.3-4l.4-.51a6,6,0,0,1,2.54,4.51C73.88,62.81,70.95,65.48,70.82,65.59Z" transform="translate(-18.48 -14.98)"/></g><path class="cls-17" d="M57.61,56.93S50,45.22,43,50.87s-1.09,12.46,5.65,12.59S57.61,56.93,57.61,56.93Z" transform="translate(-18.48 -14.98)"/><g class="cls-21"><path class="cls-20" d="M42.76,62.95l-.09-.64c8.79-1.22,10.58-11.6,10.6-11.71l.64.1C53.9,50.81,52,61.66,42.76,62.95Z" transform="translate(-18.48 -14.98)"/><path class="cls-20" d="M41.49,59.8A6.45,6.45,0,0,1,38.4,59l.3-.57c6.4,3.42,15.19-7.27,15.28-7.38l.5.41C54.16,51.88,47.66,59.8,41.49,59.8Z" transform="translate(-18.48 -14.98)"/></g><circle class="cls-5" cx="25.88" cy="248.65" r="25.88"/><path class="cls-22" d="M35.75,275.91s3.07,2.22,6.49,4.36,7.4,4.32,8.62,3.79c1.6-.69,1.71-2,1.55-3.4S50,275.82,52,272.1c5.37,1.21,8-4.91,7.7-7.23a32.32,32.32,0,0,1-.19-4.36,7.31,7.31,0,0,1,.46-2.78c.47-1.48.1-7,.1-7S48,244.85,46.78,250s-2.13,4.73-6.4,4.91c-2.4.18-3.52,3.61-3.06,5.74.38,1.76,2.51,3.34,4.64,3.9a30.66,30.66,0,0,1-4,8.9A16.64,16.64,0,0,1,35.75,275.91Z" transform="translate(-18.48 -14.98)"/><ellipse class="cls-7" cx="34.05" cy="245.35" rx="0.74" ry="1.48"/><ellipse class="cls-7" cx="40.08" cy="245.17" rx="0.65" ry="1.39"/><path class="cls-7" d="M56.92,265.2a2,2,0,0,1-.87-.23.21.21,0,1,1,.18-.38c.39.18.9.33,1.15,0a1.93,1.93,0,0,0-.54-2.12.21.21,0,1,1,.28-.31,2.32,2.32,0,0,1,.61,2.66A.93.93,0,0,1,56.92,265.2Z" transform="translate(-18.48 -14.98)"/><path class="cls-13" d="M52,272.11a5.63,5.63,0,0,1-3.24-2.87,6.2,6.2,0,0,0,2.6,4.64Z" transform="translate(-18.48 -14.98)"/><path class="cls-15" d="M34.64,248.89c3.07-5.62,13.47-5.24,17.89-5.44,5.2-.24,8.65,1.54,8.64,7.25,0,4.22-.07,3.89-1.14,6.68a13.73,13.73,0,0,0-1.1-5.76c-.28-.83-1.69.62-4.09.72s-5.27-.16-5.37.3l-2,6.81c-2.56,14,2,23.95-2.23,24.13s-11.33-4.33-11.33-4.33L26,273.87S31.57,254.51,34.64,248.89Z" transform="translate(-18.48 -14.98)"/><path class="cls-7" d="M55.61,268.6a2.57,2.57,0,0,1-2.39-1.51.21.21,0,0,1,.37-.19,2.43,2.43,0,0,0,3.26,1,.21.21,0,0,1,.18.38A3.73,3.73,0,0,1,55.61,268.6Z" transform="translate(-18.48 -14.98)"/><path class="cls-7" d="M54.06,257.59a.21.21,0,0,1-.12,0s-1.65-1.08-3-.19a.21.21,0,0,1-.23-.35,3.31,3.31,0,0,1,3.43.19.21.21,0,0,1-.12.38Z" transform="translate(-18.48 -14.98)"/><path class="cls-7" d="M57.82,257.3a.21.21,0,0,1-.16-.35,1.75,1.75,0,0,1,1.87-.35.21.21,0,0,1-.12.4,1.35,1.35,0,0,0-1.43.23A.21.21,0,0,1,57.82,257.3Z" transform="translate(-18.48 -14.98)"/><circle class="cls-5" cx="338.33" cy="296.55" r="25.88"/><path class="cls-14" d="M367.56,297.51s.79,13.9,9.79,16.9-1.29,12-7.21,14.58c-3.81-4.05-4.7-5.19-4.7-5.19l-10-5.73s2.41-20,6.43-21.56S367.56,297.51,367.56,297.51Z" transform="translate(-18.48 -14.98)"/><path class="cls-23" d="M365.43,323.8s-3.07,2.22-6.49,4.36-7.4,4.32-8.62,3.79c-1.6-.69-1.71-2-1.55-3.4s2.36-4.84.43-8.56c-5.37,1.21-8-4.91-7.7-7.23a32.32,32.32,0,0,0,.19-4.36,7.31,7.31,0,0,0-.46-2.78c-.47-1.48-.1-7-.1-7s12.05-5.84,13.26-.74,2.13,4.73,6.4,4.91c2.4.18,3.52,3.61,3.06,5.74-.38,1.76-2.51,3.34-4.64,3.9a30.66,30.66,0,0,0,4,8.9A16.64,16.64,0,0,0,365.43,323.8Z" transform="translate(-18.48 -14.98)"/><ellipse class="cls-7" cx="330.17" cy="293.25" rx="0.74" ry="1.48"/><ellipse class="cls-7" cx="324.14" cy="293.06" rx="0.65" ry="1.39"/><path class="cls-7" d="M344.25,313.1a.93.93,0,0,1-.81-.41,2.32,2.32,0,0,1,.61-2.66.21.21,0,0,1,.28.31,1.93,1.93,0,0,0-.54,2.12c.25.37.76.22,1.15,0a.21.21,0,1,1,.18.38A2,2,0,0,1,344.25,313.1Z" transform="translate(-18.48 -14.98)"/><path class="cls-8" d="M349.2,320a5.63,5.63,0,0,0,3.24-2.87,6.2,6.2,0,0,1-2.6,4.64Z" transform="translate(-18.48 -14.98)"/><path class="cls-14" d="M366.54,296.79c-3.07-5.62-13.47-5.24-17.89-5.44-5.2-.24-8.65,1.54-8.64,7.25,0,4.22.07,3.89,1.14,6.68a13.73,13.73,0,0,1,1.1-5.76c.28-.83,1.69.62,4.09.72s5.27-.16,5.37.3l2,6.81a2.68,2.68,0,0,0,2.12,1.9h0s-.09-5.65,4.17-5.47,4,7.14-.83,8.53a25.58,25.58,0,0,0,1.85,5.1S369.6,302.4,366.54,296.79Z" transform="translate(-18.48 -14.98)"/><path class="cls-7" d="M345.56,316.5a3.73,3.73,0,0,1-1.41-.29.21.21,0,0,1,.18-.38,2.44,2.44,0,0,0,3.26-1,.21.21,0,1,1,.37.19A2.57,2.57,0,0,1,345.56,316.5Z" transform="translate(-18.48 -14.98)"/><path class="cls-7" d="M347.12,305.49a.21.21,0,0,1-.12-.38,3.32,3.32,0,0,1,3.43-.19.21.21,0,0,1-.23.35c-1.32-.88-3,.18-3,.19A.21.21,0,0,1,347.12,305.49Z" transform="translate(-18.48 -14.98)"/><path class="cls-7" d="M343.35,305.2a.21.21,0,0,1-.16-.07,1.36,1.36,0,0,0-1.43-.23.21.21,0,1,1-.12-.4,1.75,1.75,0,0,1,1.87.35.21.21,0,0,1-.16.35Z" transform="translate(-18.48 -14.98)"/><g class="cls-24"><path class="cls-25" d="M346.85,300.82c-.1-.15-2.54-3.8-1.72-7a5,5,0,0,1,2.79-3.26l.29.58a4.42,4.42,0,0,0-2.46,2.85c-.75,2.92,1.6,6.44,1.63,6.48Z" transform="translate(-18.48 -14.98)"/><path class="cls-25" d="M351.82,302.76l-.64-.14c2.24-10.33,13.31-9.74,13.42-9.73l0,.65C364.13,293.52,353.94,293,351.82,302.76Z" transform="translate(-18.48 -14.98)"/><path class="cls-25" d="M352.7,305.49l-.5-.42c4-4.71,15.05-9.12,15.52-9.3l.24.61C367.85,296.42,356.57,300.91,352.7,305.49Z" transform="translate(-18.48 -14.98)"/><path class="cls-25" d="M344.87,300.74c-.12-.11-3.07-2.8-3-6.06a6,6,0,0,1,2.55-4.53l.41.51a5.36,5.36,0,0,0-2.31,4c-.09,3,2.73,5.53,2.76,5.56Z" transform="translate(-18.48 -14.98)"/></g><path class="cls-14" d="M358.13,292s7.65-11.75,14.66-6.09,1.09,12.51-5.68,12.64S358.13,292,358.13,292Z" transform="translate(-18.48 -14.98)"/><g class="cls-26"><path class="cls-25" d="M373,298.08c-9.31-1.29-11.18-12.18-11.2-12.29l.64-.1c0,.11,1.82,10.52,10.64,11.75Z" transform="translate(-18.48 -14.98)"/><path class="cls-25" d="M374.32,294.92c-6.2,0-12.73-7.95-13-8.34l.51-.41c.09.11,8.91,10.84,15.33,7.41l.31.57A6.49,6.49,0,0,1,374.32,294.92Z" transform="translate(-18.48 -14.98)"/></g><circle class="cls-5" cx="205.45" cy="18.95" r="18.95"/><path class="cls-6" d="M215.29,42.61s2.25,1.63,4.75,3.2,5.42,3.16,6.31,2.78a2.07,2.07,0,0,0,1.13-2.49c-.12-1-1.73-3.54-.32-6.27,3.94.88,5.83-3.59,5.64-5.29a23.67,23.67,0,0,1-.14-3.19,5.35,5.35,0,0,1,.34-2,26.54,26.54,0,0,0,.07-5.16s-8.83-4.28-9.71-.54-1.56,3.46-4.69,3.6c-1.76.13-2.58,2.64-2.24,4.21.28,1.29,1.84,2.44,3.39,2.85a22.45,22.45,0,0,1-2.91,6.52A12.18,12.18,0,0,1,215.29,42.61Z" transform="translate(-18.48 -14.98)"/><ellipse class="cls-7" cx="209.1" cy="16.22" rx="0.54" ry="1.09"/><ellipse class="cls-7" cx="213.51" cy="16.09" rx="0.48" ry="1.02"/><path class="cls-7" d="M230.8,34.77a1.49,1.49,0,0,1-.63-.17.15.15,0,1,1,.13-.28c.28.13.66.24.84,0a1.41,1.41,0,0,0-.4-1.55.15.15,0,0,1,.21-.23,1.7,1.7,0,0,1,.45,1.95A.68.68,0,0,1,230.8,34.77Z" transform="translate(-18.48 -14.98)"/><path class="cls-8" d="M227.17,39.83a4.12,4.12,0,0,1-2.38-2.1,4.54,4.54,0,0,0,1.9,3.39Z" transform="translate(-18.48 -14.98)"/><path class="cls-27" d="M214.48,22.83c1.2-2.19,6.74-2.13,11.1-4.39,1.41,0,2.25,1.94,2.25,1.94a7.85,7.85,0,0,1,4.23-1.06c-.67,1.59-.07,2.5.24,2.49.62,0,1.15-.27,2.15-1.52,1,2.28-.6,6.72-1.38,8.76a10.06,10.06,0,0,0-.81-4.22c-.2-.61-1.23.45-3,.52s-3.86-.12-3.93.22l-1.43,5A2,2,0,0,1,222.35,32h0s.07-4.14-3.05-4-2.92,5.23.61,6.25a18.73,18.73,0,0,1-1.36,3.73S212.23,26.94,214.48,22.83Z" transform="translate(-18.48 -14.98)"/><path class="cls-7" d="M229.84,37.26a1.88,1.88,0,0,1-1.75-1.11.15.15,0,0,1,.27-.14,1.78,1.78,0,0,0,2.39.76.15.15,0,0,1,.2.07.15.15,0,0,1-.07.2A2.72,2.72,0,0,1,229.84,37.26Z" transform="translate(-18.48 -14.98)"/><path class="cls-7" d="M228.7,29.2l-.08,0a2.16,2.16,0,0,0-2.17-.14.15.15,0,0,1-.17-.25,2.42,2.42,0,0,1,2.51.14.15.15,0,0,1-.08.28Z" transform="translate(-18.48 -14.98)"/><path class="cls-7" d="M231.46,29a.15.15,0,0,1-.11-.25,1.27,1.27,0,0,1,1.37-.26.15.15,0,0,1,.1.19.15.15,0,0,1-.19.1,1,1,0,0,0-1,.17A.15.15,0,0,1,231.46,29Z" transform="translate(-18.48 -14.98)"/><circle class="cls-5" cx="126.02" cy="54.61" r="26.79"/><path class="cls-22" d="M130.44,87l13.23,6s3.54-3.22,4.74-4.52c-2-2.91-.9-4.32-.4-5.62,5.82,1.3,8.64-5.32,8.33-7.83a35.33,35.33,0,0,1-.2-4.72,7.77,7.77,0,0,1,.5-3c.5-1.6.09-7.63.09-7.63s-13.05-6.33-14.36-.81-2.31,5.12-6.93,5.32c-2.61.2-3.82,3.92-3.31,6.23.4,1.9,2.71,3.61,5,4.21a33,33,0,0,1-4.31,9.64A18,18,0,0,1,130.44,87Z" transform="translate(-18.48 -14.98)"/><ellipse class="cls-7" cx="130.13" cy="55.14" rx="0.8" ry="1.61"/><ellipse class="cls-7" cx="136.66" cy="54.94" rx="0.7" ry="1.51"/><path class="cls-7" d="M153.37,75.4a2.21,2.21,0,0,1-.94-.25.23.23,0,0,1-.11-.3.23.23,0,0,1,.3-.11c.42.2,1,.35,1.24,0a2.09,2.09,0,0,0-.59-2.3.23.23,0,1,1,.31-.33,2.51,2.51,0,0,1,.66,2.88A1,1,0,0,1,153.37,75.4Z" transform="translate(-18.48 -14.98)"/><path class="cls-28" d="M148,82.88s-2.71-.9-3.51-3.11a6.71,6.71,0,0,0,2.81,5Z" transform="translate(-18.48 -14.98)"/><path class="cls-14" d="M129.23,57.73c9-13.75,26-2.21,31.16-7.24,1.92,5.26-2.5,13.41-3.66,16.43a14.87,14.87,0,0,0-1.19-6.24c-.3-.9-1.83.67-4.43.78s-5.71-.17-5.81.33l-2.12,7.38a2.9,2.9,0,0,1-2.3,2.06h0s.1-6.12-4.52-5.92-4.32,7.73.9,9.24a27.7,27.7,0,0,1-2,5.52S125.43,63.53,129.23,57.73Z" transform="translate(-18.48 -14.98)"/><path class="cls-7" d="M152,79.08a2.78,2.78,0,0,1-2.59-1.64.23.23,0,0,1,.4-.21,2.63,2.63,0,0,0,3.53,1.12.23.23,0,1,1,.19.41A4,4,0,0,1,152,79.08Z" transform="translate(-18.48 -14.98)"/><path class="cls-7" d="M150.27,67.16a.23.23,0,0,1-.12,0s-1.78-1.16-3.22-.21a.23.23,0,1,1-.25-.38c1.69-1.12,3.64.16,3.72.21a.23.23,0,0,1-.13.41Z" transform="translate(-18.48 -14.98)"/><path class="cls-7" d="M154.35,66.84a.23.23,0,0,1-.17-.37,1.9,1.9,0,0,1,2-.38.23.23,0,0,1-.13.43,1.46,1.46,0,0,0-1.55.25A.23.23,0,0,1,154.35,66.84Z" transform="translate(-18.48 -14.98)"/><path class="cls-14" d="M129.23,57.73c9-13.75,26-2.21,31.16-7.24,1.92,5.26-2.5,13.41-3.66,16.43a14.87,14.87,0,0,0-1.19-6.24c-.3-.9-1.83.67-4.43.78s-5.71-.17-5.81.33l-2.12,7.38a2.9,2.9,0,0,1-2.3,2.06h0s.1-6.12-4.52-5.92-4.32,7.73.9,9.24a27.7,27.7,0,0,1-2,5.52S125.43,63.53,129.23,57.73Z" transform="translate(-18.48 -14.98)"/><g class="cls-29"><path class="cls-25" d="M146.52,62.57c-2.65-4.59-6.06-7.18-10.14-7.72a15.31,15.31,0,0,0-10.15,2.62l-.18-.18-.38-.13c.13-.4,3.56-2.58,7.72-3,3.9-.39,9.44.69,13.7,8.08Z" transform="translate(-18.48 -14.98)"/><path class="cls-25" d="M146.73,62.72c-.32-.08-.3-.36-.25-1,.51-6.45-2.54-10.7-9-12.64l.19-.62c6.85,2,10,6.52,9.51,13.32a4.84,4.84,0,0,0,0,.51l-.28,0Z" transform="translate(-18.48 -14.98)"/><path class="cls-25" d="M147.51,63.7c-.09-.23,0-.43.46-1.2,1.44-2.54,5.25-9.28,1-16.16l.55-.34c4.5,7.21.4,14.45-.94,16.83a7,7,0,0,0-.4.76l-.22-.06Z" transform="translate(-18.48 -14.98)"/><path class="cls-25" d="M146.67,63.84c-.11-.08-11-7.63-21-.72l-.37-.54c10.35-7.17,21.59.64,21.71.72Z" transform="translate(-18.48 -14.98)"/></g><circle class="cls-5" cx="290.12" cy="208.31" r="20.95"/><path class="cls-22" d="M297.61,236.9,308,241.62s2.77-2.52,3.71-3.54c-1.57-2.28-.71-3.38-.31-4.4,4.55,1,6.75-4.16,6.52-6.13a27.64,27.64,0,0,1-.16-3.69,6.08,6.08,0,0,1,.4-2.36c.39-1.25.07-6,.07-6S308,210.6,307,214.91s-1.81,4-5.42,4.16c-2,.16-3,3.06-2.59,4.87.31,1.49,2.12,2.83,3.92,3.3a25.8,25.8,0,0,1-3.37,7.54A14,14,0,0,1,297.61,236.9Z" transform="translate(-18.48 -14.98)"/><ellipse class="cls-7" cx="293.34" cy="208.73" rx="0.63" ry="1.26"/><ellipse class="cls-7" cx="298.45" cy="208.57" rx="0.55" ry="1.18"/><path class="cls-7" d="M315.54,227.83a1.73,1.73,0,0,1-.73-.2.18.18,0,0,1,.15-.32c.33.16.76.28,1,0a1.64,1.64,0,0,0-.46-1.8.18.18,0,0,1,.24-.26,2,2,0,0,1,.51,2.25A.78.78,0,0,1,315.54,227.83Z" transform="translate(-18.48 -14.98)"/><path class="cls-28" d="M311.35,233.68a4.77,4.77,0,0,1-2.75-2.43,5.25,5.25,0,0,0,2.2,3.93Z" transform="translate(-18.48 -14.98)"/><path class="cls-7" d="M314.44,230.71a2.18,2.18,0,0,1-2-1.28.18.18,0,0,1,.31-.16,2.05,2.05,0,0,0,2.76.88.18.18,0,0,1,.24.08.18.18,0,0,1-.08.24A3.17,3.17,0,0,1,314.44,230.71Z" transform="translate(-18.48 -14.98)"/><path class="cls-7" d="M313.12,221.39a.18.18,0,0,1-.1,0,2.49,2.49,0,0,0-2.52-.17.18.18,0,1,1-.2-.29,2.8,2.8,0,0,1,2.91.17.18.18,0,0,1-.1.32Z" transform="translate(-18.48 -14.98)"/><path class="cls-7" d="M316.31,221.14a.17.17,0,0,1-.12,0,.18.18,0,0,1,0-.25,1.5,1.5,0,0,1,1.58-.3.18.18,0,0,1,.12.22.18.18,0,0,1-.22.12,1.14,1.14,0,0,0-1.21.2A.18.18,0,0,1,316.31,221.14Z" transform="translate(-18.48 -14.98)"/><path class="cls-27" d="M296.67,214c5.51-8.39,14.79-4.75,20.52-4.6a3.86,3.86,0,0,1,3.69,4.81,59.74,59.74,0,0,1-2.7,7,11.63,11.63,0,0,0-.93-4.88c-.24-.71-1.43.52-3.46.61s-4.47-.14-4.55.26L307.57,223a2.27,2.27,0,0,1-1.8,1.61h0s.08-4.79-3.53-4.63-3.38,6,.71,7.23a21.67,21.67,0,0,1-1.57,4.32S293.69,218.55,296.67,214Z" transform="translate(-18.48 -14.98)"/><g class="cls-30"><path class="cls-25" d="M310.19,217.8c-2.07-3.59-4.74-5.62-7.94-6a12,12,0,0,0-7.94,2l-.14-.14-.3-.1c.1-.31,2.79-2,6-2.34,3-.3,7.37.55,10.7,6.32Z" transform="translate(-18.48 -14.98)"/><path class="cls-25" d="M310.35,217.92c-.25-.06-.23-.28-.19-.77.4-5-2-8.37-7.08-9.89l.14-.49c5.36,1.59,7.86,5.1,7.44,10.42,0,.16,0,.35,0,.4l-.22,0Z" transform="translate(-18.48 -14.98)"/><path class="cls-25" d="M311,218.68c-.08-.18,0-.34.36-.94,1.12-2,4.11-7.26.75-12.64l.43-.27c3.52,5.64.32,11.3-.74,13.16a5.67,5.67,0,0,0-.32.6l-.17,0Z" transform="translate(-18.48 -14.98)"/><path class="cls-25" d="M310.31,218.79c-.08-.06-8.6-6-16.39-.56l-.29-.42c8.1-5.61,16.89.5,17,.57Z" transform="translate(-18.48 -14.98)"/></g><circle class="cls-5" cx="93.01" cy="206.03" r="26.79"/><path class="cls-9" d="M123,220.35a11.18,11.18,0,0,1,.22-3.16c.47-1.54.16-6.08-2.69-7.46s-7.39-.31-8.7,5.08-3.58,6.23-3.58,6.23.12-6-4.42-5.77-4.23,7.62.92,9a13.23,13.23,0,0,1-1.92,5.28c-2.71-7.56-7.44-6-9.47-11.31a10.43,10.43,0,0,1,5.3-13.07c4.13-7.54,20.22-7.26,28.29.76-2.77,3.36-2.11,6.44-2.51,9.61C124.08,218.38,124,219.34,123,220.35Z" transform="translate(-18.48 -14.98)"/><path class="cls-22" d="M115.3,232.43c-.45,1.27-1.62,2.69.38,5.54-2.7,2.84-7.2,6.93-7.2,6.93l-8.92-9.73c.32-.46.64-.93.95-1.42a32.93,32.93,0,0,0,4.25-9.48,5.49,5.49,0,0,1-4-4.22c-.48-2.3.54-4.65,3.07-4.78,4.54-.23,4.42,5.77,4.42,5.77s2.27-.85,3.58-6.23,5.85-6.47,8.7-5.08,3.16,5.92,2.69,7.46a11.18,11.18,0,0,0-.22,3.16,37.64,37.64,0,0,0,.4,4.38C123.76,227.2,121,233.74,115.3,232.43Z" transform="translate(-18.48 -14.98)"/><path class="cls-7" d="M113.9,215.77a.22.22,0,0,1-.09-.42c2.31-1,3.4-.37,3.44-.34a.22.22,0,0,1-.24.37h0s-1-.57-3,.37Z" transform="translate(-18.48 -14.98)"/><path class="cls-7" d="M121.76,215.67a.22.22,0,0,1-.14,0,.22.22,0,0,1,0-.31,2.45,2.45,0,0,1,1.82-.9.22.22,0,0,1,0,.44,2,2,0,0,0-1.44.74A.22.22,0,0,1,121.76,215.67Z" transform="translate(-18.48 -14.98)"/><ellipse class="cls-7" cx="97.41" cy="203.52" rx="0.79" ry="1.62"/><ellipse class="cls-7" cx="103.73" cy="203.52" rx="0.65" ry="1.32"/><path class="cls-7" d="M120.54,223.65a2.15,2.15,0,0,1-.92-.25.22.22,0,1,1,.19-.4c.4.19.94.34,1.2,0a2.08,2.08,0,0,0-.56-2.26.22.22,0,1,1,.31-.32,2.49,2.49,0,0,1,.62,2.84A1,1,0,0,1,120.54,223.65Z" transform="translate(-18.48 -14.98)"/><path class="cls-7" d="M118.79,225.77a2.53,2.53,0,0,1-1.41-.38,2.12,2.12,0,0,1-.91-1.37.22.22,0,0,1,.44-.06,1.7,1.7,0,0,0,.72,1.07,3,3,0,0,0,2.41.11.22.22,0,0,1,.12.43A5.08,5.08,0,0,1,118.79,225.77Z" transform="translate(-18.48 -14.98)"/><path class="cls-28" d="M115.3,232.43s-2.66-.93-3.46-3.06c0,3.06,2.77,5,2.77,5Z" transform="translate(-18.48 -14.98)"/><g class="cls-31"><path class="cls-32" d="M114.05,213.1c-.1-.48-2.48-11.78,3.61-14.3l.28.67c-5.54,2.29-3.21,13.36-3.18,13.48Z" transform="translate(-18.48 -14.98)"/><path class="cls-32" d="M118.06,210.54l-.57-.45.28.22-.34-.09a8.19,8.19,0,0,0-.25-1.09c-.59-2.27-1.82-7,.33-9.9l.58.43c-1.95,2.63-.77,7.12-.21,9.28C118.16,210,118.24,210.32,118.06,210.54Z" transform="translate(-18.48 -14.98)"/><path class="cls-32" d="M120.43,211.34l-.69-.2c0-.09,0-.35,0-.74.06-2.28.24-8.32,2.59-10.11l.44.57c-2.08,1.58-2.25,7.58-2.3,9.55A4.17,4.17,0,0,1,120.43,211.34Z" transform="translate(-18.48 -14.98)"/></g><circle class="cls-5" cx="364.8" cy="191.8" r="26.79"/><path class="cls-9" d="M370.77,202.12a11.18,11.18,0,0,0-.22-3.16c-.47-1.54-.16-6.08,2.69-7.46,1.66,6.15,7.39-.31,8.7,5.08s3.58,6.23,3.58,6.23-.12-6,4.42-5.77,4.23,7.62-.92,9c.31,1.94-2.56,7.83-1.29,10.06,5.37.46,7.32-2.09,7.32-2.09s.32-23-4.31-27.36c-6.28-5.87-17.35-2-20.35,2.79S369.78,201.11,370.77,202.12Z" transform="translate(-18.48 -14.98)"/><path class="cls-22" d="M378.47,214.2c.45,1.27,1.62,2.69-.38,5.54,2.7,2.84,7.2,6.93,7.2,6.93l8.92-9.73c-.32-.46-.64-.93-.95-1.42A32.93,32.93,0,0,1,389,206a5.49,5.49,0,0,0,4-4.22c.48-2.3-.54-4.65-3.07-4.78-4.54-.23-4.42,5.77-4.42,5.77s-2.27-.85-3.58-6.23-6.55.45-8.7-5.08c-2.85,1.38-3.6,6.32-3.13,7.86a9.19,9.19,0,0,1,0,2.69c0,1.45.46,3.15.26,4.46C370,209,372.78,215.51,378.47,214.2Z" transform="translate(-18.48 -14.98)"/><path class="cls-7" d="M379.87,197.53l-.09,0c-2.06-.94-3-.37-3-.37a.22.22,0,0,1-.3-.07.22.22,0,0,1,.06-.3s1.14-.71,3.44.34a.22.22,0,0,1-.09.42Z" transform="translate(-18.48 -14.98)"/><path class="cls-7" d="M372,197.43a.22.22,0,0,1-.17-.08,2,2,0,0,0-1.44-.73.22.22,0,0,1,0-.44,2.39,2.39,0,0,1,1.82.9.22.22,0,0,1-.17.36Z" transform="translate(-18.48 -14.98)"/><ellipse class="cls-7" cx="359.4" cy="185.29" rx="0.79" ry="1.62"/><ellipse class="cls-7" cx="353.08" cy="185.29" rx="0.65" ry="1.32"/><path class="cls-7" d="M373.24,205.42a1,1,0,0,1-.84-.42,2.49,2.49,0,0,1,.62-2.83.22.22,0,0,1,.3.32,2.08,2.08,0,0,0-.56,2.26c.26.38.8.22,1.2,0a.22.22,0,1,1,.19.4A2.15,2.15,0,0,1,373.24,205.42Z" transform="translate(-18.48 -14.98)"/><path class="cls-7" d="M374.53,208.72a5.08,5.08,0,0,1-1.36-.21.22.22,0,0,1,.12-.43,2.94,2.94,0,0,0,2.41-.11,1.67,1.67,0,0,0,.71-1.06.21.21,0,0,1,.25-.19.22.22,0,0,1,.19.25,2.12,2.12,0,0,1-.91,1.37A2.54,2.54,0,0,1,374.53,208.72Z" transform="translate(-18.48 -14.98)"/><path class="cls-28" d="M378.47,214.2s2.66-.93,3.46-3.06c0,3.06-2.77,5-2.77,5Z" transform="translate(-18.48 -14.98)"/><circle class="cls-5" cx="200.63" cy="86.39" r="26.79"/><path class="cls-33" d="M231,95.16s5-13-10.72-14c-21.86-1.34-13.52,12.72-22.44,16.61,2.79,14.23,20.64,13.4,20.64,13.4Z" transform="translate(-18.48 -14.98)"/><path class="cls-12" d="M231.94,97.5c-1.65-4-1.09-4.65-1.92-6.58a16.38,16.38,0,0,0-1.08-2.43c-.54-.51-.42,1.48-2.21,1.38-8.3-.47-4.29,10.44-9.25,11.64-.56-.65-1.45-3.39-3.29-3.74S210,99.81,211.72,103c1.23,2.24,5.85,3,5.85,3a6.76,6.76,0,0,1-4.11,6.76c1.86,4.06,9.92,10.31,9.92,10.31l5.21-8.24s-3.51-4.88,1.15-5.8C235.12,108,232.61,99.12,231.94,97.5Z" transform="translate(-18.48 -14.98)"/><path class="cls-7" d="M230,102a.19.19,0,0,1,0-.38c.56,0,1.26-.15,1.43-.57s-.5-1.5-.8-1.82a.19.19,0,0,1,.27-.26c.05.05,1.24,1.31.88,2.22-.2.49-.79.77-1.77.81Z" transform="translate(-18.48 -14.98)"/><path class="cls-7" d="M230,106a4.21,4.21,0,0,1-1.49-.31.19.19,0,0,1-.11-.24.19.19,0,0,1,.24-.11,2.79,2.79,0,0,0,2.16.12,1.44,1.44,0,0,0,.73-.75.19.19,0,0,1,.36.12,1.82,1.82,0,0,1-.93,1A2.26,2.26,0,0,1,230,106Z" transform="translate(-18.48 -14.98)"/><ellipse class="cls-7" cx="207.32" cy="82.78" rx="0.71" ry="1.45"/><ellipse class="cls-7" cx="212.09" cy="81.5" rx="0.58" ry="1.32"/><path class="cls-7" d="M224,94.24a.2.2,0,0,1-.11,0,.2.2,0,0,1,0-.28,3.33,3.33,0,0,1,2.09-1.39,1.78,1.78,0,0,1,1.47.7.2.2,0,0,1-.3.26,1.42,1.42,0,0,0-1.15-.56c-1,.05-1.78,1.21-1.79,1.22A.2.2,0,0,1,224,94.24Z" transform="translate(-18.48 -14.98)"/><path class="cls-7" d="M229.36,93h0a.2.2,0,0,1-.15-.24c0-.08.19-.83.69-1a.8.8,0,0,1,.75.08.2.2,0,1,1-.2.34.42.42,0,0,0-.39-.06c-.27.12-.43.61-.47.77A.2.2,0,0,1,229.36,93Z" transform="translate(-18.48 -14.98)"/><g class="cls-34"><path class="cls-35" d="M222.43,92.41c0-.09-2.2-8.67-7.14-11.12a6.52,6.52,0,0,0-5.69,0l-.21-.49a7,7,0,0,1,6.14,0c5.16,2.56,7.33,11.1,7.42,11.46Z" transform="translate(-18.48 -14.98)"/><path class="cls-35" d="M226.75,91.45l-.49-.21a9.59,9.59,0,0,0-3.22-12l.29-.45A10.13,10.13,0,0,1,226.75,91.45Z" transform="translate(-18.48 -14.98)"/><path class="cls-35" d="M221.76,96.68l-.34-.4.17.2-.26,0c0-.48-1.57-9-6.2-13.06a8.13,8.13,0,0,0-7-2.06l-.09-.52c6-1,9.54,3.69,11.48,7.83C221,91.91,222.12,96.37,221.76,96.68Z" transform="translate(-18.48 -14.98)"/></g><circle class="cls-5" cx="88.02" cy="313.58" r="25.61"/><path class="cls-27" d="M97.37,313.21c-3.48,3.69-2.28,15.24-11.18,18.2s1.28,11.84,7.14,14.42c3.77-4,4.65-5.13,4.65-5.13l9.87-5.67s-2.39-19.79-6.36-21.33S101.91,312.25,97.37,313.21Z" transform="translate(-18.48 -14.98)"/><path class="cls-22" d="M98,340.71s3,2.2,6.42,4.32,7.32,4.28,8.53,3.75c1.59-.68,1.7-2,1.53-3.36s-2.33-4.79-.43-8.47c5.32,1.19,7.88-4.85,7.61-7.15a32,32,0,0,1-.19-4.31,7.23,7.23,0,0,1,.46-2.75c.46-1.47.1-7,.1-7S110.09,310,108.89,315s-2.11,4.68-6.33,4.86c-2.38.18-3.48,3.57-3,5.68.37,1.74,2.48,3.3,4.59,3.85a30.33,30.33,0,0,1-3.94,8.81A16.46,16.46,0,0,1,98,340.71Z" transform="translate(-18.48 -14.98)"/><ellipse class="cls-7" cx="96.1" cy="310.32" rx="0.73" ry="1.47"/><ellipse class="cls-7" cx="102.06" cy="310.13" rx="0.64" ry="1.38"/><path class="cls-7" d="M118.92,330.12a2,2,0,0,1-.86-.23.21.21,0,1,1,.18-.37c.38.18.89.32,1.13,0a1.91,1.91,0,0,0-.54-2.1.21.21,0,0,1,.28-.3,2.3,2.3,0,0,1,.6,2.63A.92.92,0,0,1,118.92,330.12Z" transform="translate(-18.48 -14.98)"/><path class="cls-28" d="M114,336.95a5.57,5.57,0,0,1-3.21-2.84,6.13,6.13,0,0,0,2.57,4.59Z" transform="translate(-18.48 -14.98)"/><path class="cls-27" d="M96.88,314c3-5.56,13.32-5.18,17.7-5.38,5.15-.23,8.56,1.52,8.55,7.17,0,4.18-.07,3.85-1.13,6.61a13.59,13.59,0,0,0-1.09-5.7c-.28-.83-1.67.61-4,.71s-5.22-.16-5.31.3l-1.94,6.74a2.65,2.65,0,0,1-2.1,1.88h0s.09-5.59-4.13-5.41-3.94,7.06.83,8.44a25.3,25.3,0,0,1-1.83,5S93.85,319.54,96.88,314Z" transform="translate(-18.48 -14.98)"/><path class="cls-7" d="M117.63,333.48a2.54,2.54,0,0,1-2.37-1.5.21.21,0,0,1,.37-.19,2.41,2.41,0,0,0,3.22,1,.21.21,0,1,1,.17.37A3.68,3.68,0,0,1,117.63,333.48Z" transform="translate(-18.48 -14.98)"/><path class="cls-7" d="M116.09,322.59a.21.21,0,0,1-.11,0,2.92,2.92,0,0,0-2.94-.19.21.21,0,1,1-.23-.34,3.28,3.28,0,0,1,3.4.19.21.21,0,0,1-.12.38Z" transform="translate(-18.48 -14.98)"/><path class="cls-7" d="M119.81,322.3a.2.2,0,0,1-.14-.05.21.21,0,0,1,0-.29,1.74,1.74,0,0,1,1.85-.35.21.21,0,0,1-.12.39,1.35,1.35,0,0,0-1.42.23A.21.21,0,0,1,119.81,322.3Z" transform="translate(-18.48 -14.98)"/><g class="cls-36"><path class="cls-37" d="M116.36,318l-.53-.36s2.35-3.53,1.61-6.41a4.37,4.37,0,0,0-2.43-2.82l.29-.57a5,5,0,0,1,2.76,3.23C118.88,314.21,116.46,317.81,116.36,318Z" transform="translate(-18.48 -14.98)"/><path class="cls-37" d="M111.44,319.89c-2.1-9.67-12.18-9.14-12.61-9.12l0-.64c.11,0,11.06-.6,13.28,9.62Z" transform="translate(-18.48 -14.98)"/><path class="cls-37" d="M110.57,322.59c-3.83-4.53-15-9-15.1-9l.24-.6c.46.18,11.43,4.54,15.36,9.2Z" transform="translate(-18.48 -14.98)"/><path class="cls-37" d="M118.32,317.89l-.43-.48s2.82-2.57,2.73-5.5a5.31,5.31,0,0,0-2.28-4l.4-.5a5.92,5.92,0,0,1,2.52,4.48C121.35,315.13,118.44,317.78,118.32,317.89Z" transform="translate(-18.48 -14.98)"/></g><circle class="cls-5" cx="286.89" cy="136.12" r="26.79"/><path class="cls-38" d="M291.31,168.5l13.23,6s3.54-3.22,4.74-4.52c-2-2.91-.9-4.32-.4-5.62,5.82,1.3,8.64-5.32,8.33-7.83a35.33,35.33,0,0,1-.2-4.72,7.77,7.77,0,0,1,.5-3c.5-1.6.09-7.63.09-7.63s-13.05-6.33-14.36-.81-2.31,5.12-6.93,5.32c-2.61.2-3.82,3.92-3.31,6.23.4,1.9,2.71,3.61,5,4.21a33,33,0,0,1-4.31,9.64A18,18,0,0,1,291.31,168.5Z" transform="translate(-18.48 -14.98)"/><ellipse class="cls-7" cx="291" cy="136.65" rx="0.8" ry="1.61"/><ellipse class="cls-7" cx="297.53" cy="136.45" rx="0.7" ry="1.51"/><path class="cls-7" d="M314.24,156.91a2.21,2.21,0,0,1-.94-.25.23.23,0,1,1,.19-.41c.42.2,1,.35,1.24,0a2.09,2.09,0,0,0-.59-2.3.23.23,0,1,1,.3-.33,2.51,2.51,0,0,1,.66,2.88A1,1,0,0,1,314.24,156.91Z" transform="translate(-18.48 -14.98)"/><path class="cls-8" d="M308.88,164.38s-2.71-.9-3.51-3.11a6.71,6.71,0,0,0,2.81,5Z" transform="translate(-18.48 -14.98)"/><path class="cls-14" d="M288.51,136.21c8.44-14.13,27.11-3.88,29.94,0s.32,9.2-.84,12.23a14.87,14.87,0,0,0-1.19-6.24c-.3-.9-1.83.67-4.43.78s-5.71-.17-5.81.33L304,150.68a2.9,2.9,0,0,1-2.3,2.06h0s.1-6.12-4.52-5.92-4.32,7.73.9,9.24a27.7,27.7,0,0,1-2,5.52S280.45,149.7,288.51,136.21Z" transform="translate(-18.48 -14.98)"/><path class="cls-7" d="M312.82,160.59a2.78,2.78,0,0,1-2.59-1.64.23.23,0,1,1,.4-.21,2.63,2.63,0,0,0,3.53,1.12.23.23,0,0,1,.19.41A4,4,0,0,1,312.82,160.59Z" transform="translate(-18.48 -14.98)"/><path class="cls-7" d="M311.14,148.66a.23.23,0,0,1-.12,0s-1.78-1.17-3.22-.21a.23.23,0,1,1-.25-.38c1.69-1.12,3.64.16,3.72.21a.23.23,0,0,1-.13.41Z" transform="translate(-18.48 -14.98)"/><path class="cls-7" d="M315.21,148.35A.22.22,0,0,1,315,148a1.89,1.89,0,0,1,2-.38.23.23,0,0,1-.13.43,1.46,1.46,0,0,0-1.55.25A.23.23,0,0,1,315.21,148.35Z" transform="translate(-18.48 -14.98)"/><g class="cls-39"><path class="cls-25" d="M307.39,144.07c-2.41-4.17-5.75-6.63-9.95-7.31-6.58-1.06-13,2.59-13.51,3l-.17-.2-.37-.12c.14-.41,4.64-2.92,9.73-3.44,4.47-.45,10.67.52,14.83,7.73Z" transform="translate(-18.48 -14.98)"/><path class="cls-25" d="M307.59,144.23l-.22-.18c-.09-.19,0-.32.31-1.08.89-2,3.24-7.3,1.39-11.31-.92-2-2.77-3.41-5.51-4.22l.19-.62c2.92.87,4.91,2.41,5.91,4.57,2,4.28-.47,9.78-1.39,11.85-.13.3-.27.62-.29.69l-.3-.06Z" transform="translate(-18.48 -14.98)"/><path class="cls-25" d="M308.38,145.21c-.1-.23,0-.43.46-1.2,1.44-2.54,5.25-9.28,1-16.16l.55-.34c4.5,7.21.4,14.45-.94,16.83a7.14,7.14,0,0,0-.4.76l-.22-.06Z" transform="translate(-18.48 -14.98)"/><path class="cls-25" d="M307.55,145.35c-.14-.09-13.87-9.19-23.84-2.28l-.37-.54c10.34-7.17,24.44,2.18,24.58,2.28Z" transform="translate(-18.48 -14.98)"/></g><circle class="cls-5" cx="253.63" cy="270.88" r="26.79"/><path class="cls-15" d="M260.24,279.65s-5-13,10.72-14c21.86-1.34,21.32,14,21.2,22.06,0,2.22-1.18,17-5,18.64-5.31,2.29-12.63-5.46-19.45-6.32-7.69-1-14.62,4.5-15-1.08C251.94,288.46,260.24,279.65,260.24,279.65Z" transform="translate(-18.48 -14.98)"/><g class="cls-40"><path class="cls-41" d="M295.49,279.81c-3.7-5.18-10-4-16.11-2.94-5.54,1-10.77,1.95-14.16-1.5l.38-.37c3.2,3.24,8.29,2.32,13.69,1.35,6.26-1.13,12.74-2.3,16.63,3.16Z" transform="translate(-18.48 -14.98)"/><path class="cls-41" d="M294.38,283.69c-.51-2.34-1.48-3.89-3-4.72-3.05-1.73-8-.09-12.71,1.5-5.57,1.87-11.33,3.79-14.56.52l.38-.37c3,3,8.6,1.17,14-.65,4.86-1.63,9.89-3.31,13.14-1.46,1.61.91,2.66,2.57,3.21,5.07Z" transform="translate(-18.48 -14.98)"/></g><path class="cls-12" d="M259.27,282c1.65-4,1.09-4.65,1.92-6.58a16.38,16.38,0,0,1,1.08-2.43c.54-.51.42,1.48,2.21,1.38,8.3-.47,4.29,10.44,9.25,11.64.56-.65,1.45-3.39,3.29-3.74s4.23,2.05,2.47,5.26c-1.23,2.24-5.85,3-5.85,3s-.69,7.6,3.94,9.56c-1.86,4.06-9.75,7.51-9.75,7.51l-5.21-8.24s3.51-4.88-1.15-5.8C256.09,292.47,258.6,283.61,259.27,282Z" transform="translate(-18.48 -14.98)"/><path class="cls-7" d="M261.19,286.53h0c-1,0-1.57-.32-1.77-.81-.36-.91.83-2.17.88-2.22a.19.19,0,0,1,.27.26c-.3.31-1,1.25-.8,1.82s.87.55,1.43.57a.19.19,0,0,1,0,.38Z" transform="translate(-18.48 -14.98)"/><path class="cls-7" d="M261.2,290.48a2.26,2.26,0,0,1-1-.2,1.82,1.82,0,0,1-.93-1,.19.19,0,1,1,.36-.12,1.44,1.44,0,0,0,.74.76,2.79,2.79,0,0,0,2.16-.12.19.19,0,0,1,.24.11.19.19,0,0,1-.11.24A4.21,4.21,0,0,1,261.2,290.48Z" transform="translate(-18.48 -14.98)"/><ellipse class="cls-7" cx="246.93" cy="267.27" rx="0.71" ry="1.45"/><ellipse class="cls-7" cx="242.16" cy="265.99" rx="0.58" ry="1.32"/><path class="cls-7" d="M267.22,278.73a.2.2,0,0,1-.16-.08s-.83-1.17-1.79-1.22a1.44,1.44,0,0,0-1.15.56.2.2,0,0,1-.3-.26,1.79,1.79,0,0,1,1.47-.7,3.33,3.33,0,0,1,2.09,1.39.2.2,0,0,1,0,.28A.2.2,0,0,1,267.22,278.73Z" transform="translate(-18.48 -14.98)"/><path class="cls-7" d="M261.85,277.48a.2.2,0,0,1-.19-.16c0-.17-.2-.65-.47-.77a.41.41,0,0,0-.39.06.2.2,0,0,1-.2-.34.8.8,0,0,1,.75-.08c.5.22.68,1,.69,1a.2.2,0,0,1-.15.24Z" transform="translate(-18.48 -14.98)"/><circle class="cls-5" cx="119.74" cy="128.55" r="21.88"/><path class="cls-42" d="M149.7,157.74l-10.81,4.93S136,160,135,159c1.64-2.38.74-3.53.32-4.59-4.76,1.06-7.05-4.35-6.81-6.4a28.86,28.86,0,0,0,.16-3.85,6.35,6.35,0,0,0-.41-2.46c-.41-1.31-.08-6.23-.08-6.23s10.66-5.17,11.73-.66,1.89,4.18,5.66,4.35c2.13.17,3.12,3.2,2.7,5.09-.32,1.56-2.21,3-4.1,3.44a26.94,26.94,0,0,0,3.52,7.87A14.66,14.66,0,0,0,149.7,157.74Z" transform="translate(-18.48 -14.98)"/><ellipse class="cls-7" cx="116.38" cy="128.98" rx="0.66" ry="1.31"/><ellipse class="cls-7" cx="111.05" cy="128.82" rx="0.57" ry="1.23"/><path class="cls-7" d="M131,148.27a.82.82,0,0,1-.71-.37,2.05,2.05,0,0,1,.54-2.36.18.18,0,0,1,.25.27,1.71,1.71,0,0,0-.48,1.88c.22.32.67.2,1,0a.18.18,0,0,1,.16.33A1.81,1.81,0,0,1,131,148.27Z" transform="translate(-18.48 -14.98)"/><path class="cls-28" d="M135.35,154.38a5,5,0,0,0,2.87-2.54,5.48,5.48,0,0,1-2.3,4.1Z" transform="translate(-18.48 -14.98)"/><path class="cls-7" d="M132.13,151.28a3.31,3.31,0,0,1-1.25-.26.18.18,0,0,1,.16-.33,2.16,2.16,0,0,0,2.88-.92.18.18,0,0,1,.33.17A2.27,2.27,0,0,1,132.13,151.28Z" transform="translate(-18.48 -14.98)"/><path class="cls-7" d="M133.5,141.54a.18.18,0,0,1-.1-.34,2.93,2.93,0,0,1,3-.17.18.18,0,1,1-.2.31,2.61,2.61,0,0,0-2.63.17A.18.18,0,0,1,133.5,141.54Z" transform="translate(-18.48 -14.98)"/><path class="cls-7" d="M130.17,141.28a.19.19,0,0,1-.14-.06,1.21,1.21,0,0,0-1.27-.2.18.18,0,0,1-.11-.35,1.55,1.55,0,0,1,1.65.31.18.18,0,0,1-.14.31Z" transform="translate(-18.48 -14.98)"/><path class="cls-15" d="M150.69,133.84c-5.75-8.76-11.78-5.32-17.77-5.16a6.32,6.32,0,0,0-6.23,5.88c-.44,3.07,1,5.36,1.53,6.8a12.15,12.15,0,0,1,1-5.1c.25-.74,1.49.55,3.62.63s4.67-.14,4.75.27l1.73,6a2.37,2.37,0,0,0,1.88,1.68h0s-.08-5,3.69-4.84,3.53,6.32-.74,7.55a22.63,22.63,0,0,0,1.64,4.51S153.8,138.57,150.69,133.84Z" transform="translate(-18.48 -14.98)"/><g class="cls-43"><path class="cls-41" d="M153.15,138.39c-.78-1.66-4.78-4.32-9-4.55a7.93,7.93,0,0,0-7.59,3.94l-.37-.22a8.34,8.34,0,0,1,8-4.15c4.42.24,8.59,3,9.41,4.8Z" transform="translate(-18.48 -14.98)"/><path class="cls-41" d="M153.2,141.51c-6.67-6.29-16.74-2.73-16.84-2.69l-.15-.41c.1,0,10.42-3.68,17.28,2.79Z" transform="translate(-18.48 -14.98)"/></g><path class="cls-15" d="M140,129.82s-2.95-5.75,0-4.05,2.61-3.61,4.82-1,3.07-.22,4.54,1.84,1.61,6.1-3.31,6S140,129.82,140,129.82Z" transform="translate(-18.48 -14.98)"/><circle class="cls-5" cx="286.89" cy="51.21" r="22.6"/><path class="cls-9" d="M295.66,65.63a9.43,9.43,0,0,0-.19-2.67c-.4-1.3-.13-5.13,2.27-6.29s6.23-.26,7.34,4.29,3,5.26,3,5.26-.1-5.06,3.73-4.87,3.57,6.43-.78,7.59a11.16,11.16,0,0,0,1.62,4.46c2.76-1,6.28-5.06,8-9.54a8.8,8.8,0,0,0-4.47-11c-3.49-6.36-24.08-6.68-23.87.64s-3.5,5.41-2.79,8.38S293.9,62.16,295.66,65.63Z" transform="translate(-18.48 -14.98)"/><path class="cls-22" d="M302.15,75.83c.38,1.08,1.37,2.27-.32,4.67,2.28,2.4,6.08,5.85,6.08,5.85l7.53-8.21c-.27-.39-.54-.78-.8-1.2a27.79,27.79,0,0,1-3.58-8,4.63,4.63,0,0,0,3.37-3.56c.41-1.94-.46-3.92-2.59-4-3.83-.19-3.73,4.87-3.73,4.87s-1.92-.72-3-5.26-4.94-5.46-7.34-4.29-2.67,5-2.27,6.29a9.43,9.43,0,0,1,.19,2.67,31.76,31.76,0,0,1-.34,3.7C295,71.41,297.35,76.93,302.15,75.83Z" transform="translate(-18.48 -14.98)"/><path class="cls-7" d="M303.33,61.77l-.08,0c-1.74-.79-2.54-.32-2.55-.31a.19.19,0,0,1-.26-.06.18.18,0,0,1,.05-.26s1-.6,2.9.29a.19.19,0,0,1-.08.36Z" transform="translate(-18.48 -14.98)"/><path class="cls-7" d="M296.7,61.68a.19.19,0,0,1-.14-.07,1.75,1.75,0,0,0-1.21-.62.18.18,0,0,1-.2-.17.19.19,0,0,1,.17-.2,2,2,0,0,1,1.53.76.19.19,0,0,1-.14.3Z" transform="translate(-18.48 -14.98)"/><ellipse class="cls-7" cx="283.18" cy="49.09" rx="0.67" ry="1.36"/><ellipse class="cls-7" cx="277.84" cy="49.09" rx="0.55" ry="1.12"/><path class="cls-7" d="M297.74,68.42a.82.82,0,0,1-.71-.36,2.1,2.1,0,0,1,.52-2.39.19.19,0,0,1,.26.27,1.75,1.75,0,0,0-.47,1.91c.22.32.67.19,1,0a.19.19,0,0,1,.16.34A1.81,1.81,0,0,1,297.74,68.42Z" transform="translate(-18.48 -14.98)"/><path class="cls-7" d="M299.21,70.2a4.3,4.3,0,0,1-1.15-.18.19.19,0,0,1-.13-.23.18.18,0,0,1,.23-.13,2.49,2.49,0,0,0,2-.09,1.43,1.43,0,0,0,.61-.9.18.18,0,0,1,.21-.16.19.19,0,0,1,.16.21,1.78,1.78,0,0,1-.77,1.15A2.14,2.14,0,0,1,299.21,70.2Z" transform="translate(-18.48 -14.98)"/><path class="cls-28" d="M302.15,75.83a5.24,5.24,0,0,0,2.92-2.58,5.64,5.64,0,0,1-2.34,4.19Z" transform="translate(-18.48 -14.98)"/><g class="cls-44"><path class="cls-32" d="M303.14,59.65l-.46-.4c.07-.08,6.51-7.58,5.69-11a1.86,1.86,0,0,0-1.2-1.34l.23-.56A2.47,2.47,0,0,1,309,48.08C309.85,51.83,303.41,59.33,303.14,59.65Z" transform="translate(-18.48 -14.98)"/><path class="cls-32" d="M299.83,57.36c-.18-.23,0-.45.35-1,1-1.5,3.7-5.5,1.21-10.57l.55-.27c2.65,5.38-.18,9.59-1.25,11.18a4.67,4.67,0,0,0-.32.52.24.24,0,0,0-.05-.21Z" transform="translate(-18.48 -14.98)"/><path class="cls-32" d="M297.82,58l-.05-.19c-.57-2.34-2.35-7.79-6.57-7.79v-.61c3.27,0,5.88,3,7.16,8.26l0,.14Z" transform="translate(-18.48 -14.98)"/></g><circle class="cls-45" cx="195.8" cy="182.81" r="48.93"/><circle class="cls-5" cx="32.32" cy="151.31" r="25.36"/><circle class="cls-27" cx="41.73" cy="137.46" r="3.14"/><circle class="cls-27" cx="36.97" cy="136.21" r="3.14"/><circle class="cls-27" cx="32.14" cy="135.25" r="3.14"/><circle class="cls-27" cx="27.14" cy="135.63" r="3.14"/><circle class="cls-27" cx="22.64" cy="135.89" r="3.14"/><circle class="cls-27" cx="20.68" cy="138.6" r="3.14"/><circle class="cls-27" cx="18.56" cy="142.1" r="3.14"/><circle class="cls-27" cx="19.01" cy="146" r="3.14"/><circle class="cls-27" cx="20.18" cy="150.2" r="3.14"/><circle class="cls-27" cx="21.7" cy="154.95" r="3.14"/><circle class="cls-27" cx="23.82" cy="158.3" r="3.14"/><circle class="cls-27" cx="44.29" cy="139.6" r="2.56"/><circle class="cls-27" cx="44.06" cy="143.43" r="2.56"/><path class="cls-46" d="M55.77,190.63a.37.37,0,0,1-.19-.05.38.38,0,0,1-.13-.51c.84-1.39,1.71-10,2-13.21a.37.37,0,1,1,.75.06c-.1,1.2-1,11.74-2.08,13.54A.38.38,0,0,1,55.77,190.63Z" transform="translate(-18.48 -14.98)"/><path class="cls-47" d="M37.49,182.76,50,188.47s3.35-3,4.49-4.28c-1.9-2.76-.85-4.09-.38-5.32,5.51,1.23,8.17-5,7.89-7.42a33.45,33.45,0,0,1-.19-4.47,7.36,7.36,0,0,1,.48-2.85c.47-1.52.09-7.22.09-7.22s-12.35-6-13.59-.76-2.19,4.85-6.56,5c-2.47.19-3.61,3.71-3.13,5.89.38,1.8,2.56,3.42,4.75,4a31.22,31.22,0,0,1-4.08,9.12A17,17,0,0,1,37.49,182.76Z" transform="translate(-18.48 -14.98)"/><ellipse class="cls-7" cx="36.21" cy="151.81" rx="0.76" ry="1.52"/><ellipse class="cls-7" cx="42.39" cy="151.62" rx="0.67" ry="1.43"/><path class="cls-7" d="M59.2,171.79a2.09,2.09,0,0,1-.89-.24.21.21,0,0,1,.18-.39c.4.19.92.33,1.18,0a2,2,0,0,0-.56-2.18.21.21,0,0,1,.29-.32,2.38,2.38,0,0,1,.62,2.73A1,1,0,0,1,59.2,171.79Z" transform="translate(-18.48 -14.98)"/><path class="cls-28" d="M54.12,178.87s-2.57-.86-3.33-2.95a6.35,6.35,0,0,0,2.66,4.75Z" transform="translate(-18.48 -14.98)"/><path class="cls-7" d="M57.85,175.27a2.63,2.63,0,0,1-2.45-1.55.21.21,0,1,1,.38-.2,2.49,2.49,0,0,0,3.34,1.06.21.21,0,1,1,.18.39A3.83,3.83,0,0,1,57.85,175.27Z" transform="translate(-18.48 -14.98)"/><path class="cls-7" d="M56.26,164a.21.21,0,0,1-.12,0s-1.69-1.1-3-.2a.21.21,0,1,1-.24-.36c1.6-1.06,3.44.15,3.52.2a.21.21,0,0,1-.12.39Z" transform="translate(-18.48 -14.98)"/><path class="cls-7" d="M60.12,163.69a.21.21,0,0,1-.16-.36,1.8,1.8,0,0,1,1.92-.36.21.21,0,0,1,.14.27.21.21,0,0,1-.27.14,1.39,1.39,0,0,0-1.47.24A.21.21,0,0,1,60.12,163.69Z" transform="translate(-18.48 -14.98)"/><path class="cls-27" d="M36.35,155.06c6.67-10.15,17.58-3.82,24.52-3.64,3,.08,3.38,1.67,2.59,4.59-.94,3.47-.44,6.09-1.08,7.76a14.08,14.08,0,0,0-1.13-5.91c-.29-.86-1.73.64-4.19.73s-5.41-.16-5.5.31l-2,7a2.74,2.74,0,0,1-2.17,1.95h0s.1-5.8-4.28-5.61S39,169.55,44,171a26.23,26.23,0,0,1-1.9,5.23S32.75,160.55,36.35,155.06Z" transform="translate(-18.48 -14.98)"/><path class="cls-13" d="M263.2,294.47c-.14-.06,4.41-.27,5.84-1.27a11.65,11.65,0,0,1-4.88,2.86A2,2,0,0,0,263.2,294.47Z" transform="translate(-18.48 -14.98)"/><path class="cls-9" d="M180.87,265.91c-3.33-2.74-11,.41-10.67,5.75s-.58,13.62-3.25,13.77c3.5,3.64,8.56,1.91,10-.44S184.2,268.66,180.87,265.91Z" transform="translate(-18.48 -14.98)"/><path class="cls-3" d="M396.83,215.64a16.89,16.89,0,0,0,1.16-3.37,38.7,38.7,0,0,0,.19-10c-1-6-1-8.38-3.12-12.74s-6.38-7.87-13.74-7.69c-7.15.17-12.48,5.17-12.81,8.9-.23,2.42-.72,17.12,0,22.42s4.72,5.92,4.72,5.92-2.36,3.53-1.75,5.57,5.19,8.28,11.16,8.23,8.06-8.17,10.44-10.66c2.72-2.85,6-5.13,10.88-.55C402.57,217.51,396.83,215.64,396.83,215.64Zm-14.12-4.5c-3.53,2.48-7.83,2.68-9.76,1.19s-1.48-4.7-2.31-6.8.44-5.25-.49-8.06a6.1,6.1,0,0,1,2.26-6.68c5.11-3.07,11.24,1.6,11.24,1.6C385,195.59,386.25,208.66,382.71,211.14Z" transform="translate(-18.48 -14.98)"/><ellipse class="cls-46" cx="102.62" cy="204.4" rx="7.15" ry="2.81" transform="translate(-100.43 54.34) rotate(-27.14)"/><circle class="cls-46" cx="25.98" cy="153.05" r="1.64"/><path class="cls-46" d="M55.61,190.59c-9.39-4.41-11.45-21-11.53-21.75l.75-.09c0,.17,2.09,16.93,11.1,21.16Z" transform="translate(-18.48 -14.98)"/><path class="cls-46" d="M225.64,100.39a2.27,2.27,0,0,1-1.28-.39c-1.44-1-1.81-3.37-1.82-3.48l0-.22,5.21-1.62.09.24c0,.11.92,2.63.06,4.22a2.3,2.3,0,0,1-1.54,1.16A2.79,2.79,0,0,1,225.64,100.39Zm-2.54-3.72a4.91,4.91,0,0,0,1.55,2.89,1.83,1.83,0,0,0,1.54.23,1.77,1.77,0,0,0,1.2-.9c.61-1.13.17-2.91,0-3.55Z" transform="translate(-18.48 -14.98)"/><rect class="cls-46" x="227.52" y="94.55" width="1.55" height="0.53" transform="translate(-34.69 43.44) rotate(-14.09)"/><path class="cls-46" d="M230.76,98.71a1.3,1.3,0,0,1-.7-.21c-1.24-.79-1.57-3.65-1.58-3.77l0-.22,3.21-.92.09.22c0,.1,1.05,2.55.42,4a1.55,1.55,0,0,1-.94.86A1.48,1.48,0,0,1,230.76,98.71ZM229,94.89c.13.88.53,2.66,1.31,3.16a.8.8,0,0,0,.73.07,1,1,0,0,0,.63-.58c.44-1-.12-2.71-.34-3.31Z" transform="translate(-18.48 -14.98)"/><rect class="cls-46" x="220.31" y="96.75" width="2.6" height="0.53" transform="translate(-38.75 86.01) rotate(-24.58)"/></g><g id="Слой_1" data-name="Слой 1"><path class="cls-48" d="M249.35,197.86c-.52-2.47-6.79-5.88-8.28-9.09-.87-1.89.23-7.23,0-9.72s-1.32-6.73-8.25-11.79c-3.94-2.88-5.73-3.49-10.9-4.34a37.43,37.43,0,0,0-4-.31c1.9.76,3.55.78,4.38,1.13,3.81.89,5.56,1.8,7.26,3.2,6.63,5.46,5.85,9.08,6.07,11.59s-.87,7.83,0,9.72c1.49,3.22,6.3,6.49,6.82,9,.31,1.5-.62,1.74-2.59,3.66-2.36,2.29,1.72,4.78,1.59,6.08s-1.29,1-2.13,1.69a.91.91,0,0,0,.06,1.47c.37.25,2.07.8,2,1.89-.07.71-1,1.07-1.8,1.48-1,.56-1.52,1.91-1,3.79.66,2.27-1,5-4.68,5.95-3.82,1-9.33.2-12.17.63-4.9.75-5.94,5.87-9.71,6.81-.55.14-13.41-.8-13.41-.8a53.88,53.88,0,0,0,11.08,1.5c2.41,0,6.52.14,7.81-.18,3.77-.94,5.4-6,8.56-6.54,2-.34,11,.2,14.77-.76,3.66-.93,6.07-3.61,5.41-5.88-.55-1.89-.77-3.3.24-3.86.75-.41,1.73-.78,1.8-1.48.1-1.09-1.6-1.64-2-1.89a.91.91,0,0,1-.05-1.47c.84-.68,2-.35,2.13-1.69s-4-3.79-1.59-6.08C248.73,199.6,249.66,199.36,249.35,197.86Z" transform="translate(-18.48 -14.98)"/><path class="cls-49" d="M242.78,197.24c-.52-2.47-5.33-5.74-6.82-9-.87-1.89.23-7.23,0-9.72s.56-6.13-6.07-11.59c-3.05-2.52-6.4-3.34-10.05-4l-1.71-.29a36.17,36.17,0,0,1,3.48,1.72,13.66,13.66,0,0,1,3,2.45c5.7,6,5.53,8.7,5.74,11.17s-.87,7.83,0,9.72c1.49,3.22,6.3,6.49,6.82,9,.31,1.5-.62,1.74-2.59,3.66-2.36,2.29,1.72,4.78,1.6,6.08s-1.29,1-2.13,1.69a.91.91,0,0,0,.06,1.47c.37.25,2.07.8,2,1.89-.07.71-1,1.07-1.79,1.48-1,.56-1.52,1.91-1,3.79.66,2.27-2,5.68-6.23,5.93-3.62.21-9.13-2.54-13.22.78-2.5,2-3.23,4.69-7,5.63-.62.16-9.69.62-13-.4.13.48,6.55,1.82,10.49,2.19a26,26,0,0,0,7.93-.21c3.77-.94,4.81-6.06,9.71-6.81,2.84-.43,8.35.33,12.17-.63,3.66-.93,5.34-3.68,4.68-5.95-.55-1.89,0-3.23,1-3.79.75-.41,1.73-.78,1.8-1.48.1-1.09-1.6-1.64-2-1.89a.91.91,0,0,1-.06-1.47c.84-.68,2-.35,2.13-1.69s-4-3.79-1.59-6.08C242.16,199,243.09,198.74,242.78,197.24Z" transform="translate(-18.48 -14.98)"/><circle class="cls-49" cx="190.87" cy="168.04" r="3.47" transform="translate(-12.81 327.33) rotate(-84.62)"/><circle class="cls-49" cx="192.01" cy="205.66" r="3.47" transform="translate(-49.23 362.55) rotate(-84.62)"/><circle class="cls-49" cx="183.78" cy="186.36" r="4.14" transform="translate(-37.48 336.87) rotate(-84.62)"/><circle class="cls-49" cx="212.71" cy="177.2" r="2.56" transform="translate(-2.14 357.37) rotate(-84.62)"/><circle class="cls-49" cx="212.68" cy="163.76" r="2.3" transform="translate(11.21 345.16) rotate(-84.62)"/><circle class="cls-49" cx="202.74" cy="186.56" r="2.56" transform="translate(-20.49 355.92) rotate(-84.62)"/><circle class="cls-49" cx="204.58" cy="198.62" r="2.24" transform="translate(-30.83 368.68) rotate(-84.62)"/><circle class="cls-49" cx="206.74" cy="213.3" r="2.24" transform="translate(-43.49 384.14) rotate(-84.62)"/><circle class="cls-49" cx="194.22" cy="222.79" r="2.24" transform="translate(-64.28 380.27) rotate(-84.62)"/><rect class="cls-49" x="193.15" y="165.36" width="18.38" height="0.73" transform="translate(-44.62 23.44) rotate(-10.19)"/><rect class="cls-49" x="202.15" y="162.67" width="0.73" height="20.15" transform="translate(-55.56 273.74) rotate(-66.29)"/><rect class="cls-49" x="196.82" y="168.42" width="0.73" height="18.87" transform="translate(-83.39 120.19) rotate(-32.8)"/><rect class="cls-49" x="179.75" y="176.78" width="15.16" height="0.73" transform="translate(-68.31 263.29) rotate(-66.49)"/><path class="cls-49" d="M190.72,203.88c-2.38-5.69-6-14.29-6.23-14.7l.3-.17,0-.39c.31,0,.31,0,6.56,15Z" transform="translate(-18.48 -14.98)"/><rect class="cls-49" x="193.54" y="201.37" width="11.09" height="0.73" transform="translate(-91.43 107.19) rotate(-29.08)"/><path class="cls-49" d="M206.36,213.61c-3.46-1.76-12.53-6.35-12.88-6.5l.13-.3,0-.4c.09,0,.16,0,13,6.56Z" transform="translate(-18.48 -14.98)"/><rect class="cls-49" x="192.82" y="207.76" width="0.73" height="13.75" transform="translate(-42.89 9.81) rotate(-6.91)"/></g></svg>