<svg id="Слой_4" data-name="Слой 4" xmlns="http://www.w3.org/2000/svg" xmlns:xlink="http://www.w3.org/1999/xlink" viewBox="0 0 380.2 360.64"><defs><style>.cls-1,.cls-11,.cls-14,.cls-21,.cls-25,.cls-27,.cls-32,.cls-35,.cls-38,.cls-41,.cls-43,.cls-44,.cls-45,.cls-46,.cls-47,.cls-50,.cls-51,.cls-52,.cls-53,.cls-54,.cls-56,.cls-8{fill:none;}.cls-2{fill:#e3e3e3;}.cls-3{fill:#3d3e42;}.cls-34,.cls-37,.cls-4{fill:#fec2a0;}.cls-5{fill:#794300;}.cls-6{fill:#e0e0e0;}.cls-7{fill:#c4c4c4;}.cls-8{stroke:#c9c9c9;}.cls-11,.cls-14,.cls-21,.cls-25,.cls-27,.cls-32,.cls-34,.cls-35,.cls-37,.cls-38,.cls-41,.cls-43,.cls-44,.cls-45,.cls-46,.cls-47,.cls-50,.cls-51,.cls-52,.cls-53,.cls-54,.cls-56,.cls-8{stroke-miterlimit:10;}.cls-27,.cls-38,.cls-44,.cls-45,.cls-46,.cls-47,.cls-51,.cls-52,.cls-53,.cls-8{stroke-width:2px;}.cls-9{fill:#f56930;}.cls-10{fill:#303134;}.cls-11,.cls-21,.cls-35{stroke:#303134;}.cls-11,.cls-21,.cls-34,.cls-35,.cls-37,.cls-44,.cls-45,.cls-46,.cls-47{stroke-linecap:round;}.cls-11{stroke-width:0.6px;}.cls-12{fill:#f99979;}.cls-13{clip-path:url(#clip-path);}.cls-14{stroke:#c45527;stroke-width:0.93px;}.cls-15{fill:#d4d4d4;}.cls-16{fill:#bdbdbd;}.cls-17{fill:#73767d;}.cls-18{fill:#525459;}.cls-19{fill:#47484d;}.cls-20{fill:#c7d2ff;}.cls-21{stroke-width:0.63px;}.cls-22{fill:#4f6ddb;}.cls-23{fill:#fdc19f;}.cls-24{fill:#fec519;}.cls-25,.cls-54{stroke:#eb6c18;}.cls-25{stroke-width:0.4px;}.cls-26{fill:#019c40;}.cls-27{stroke:#fff;}.cls-28{fill:#fff;}.cls-29{fill:#c7c7c7;}.cls-30{fill:#7693fe;}.cls-31{fill:#b0b0b0;}.cls-32{stroke:#000;}.cls-32,.cls-34{stroke-width:0.99px;}.cls-33{fill:#7794ff;}.cls-34,.cls-37{stroke:#f99979;}.cls-35{stroke-width:0.66px;}.cls-36{fill:#fe3737;}.cls-37{stroke-width:0.69px;}.cls-38,.cls-45{stroke:#f56930;}.cls-39{clip-path:url(#clip-path-2);}.cls-40{clip-path:url(#clip-path-3);}.cls-41{stroke:#e03131;}.cls-42{clip-path:url(#clip-path-4);}.cls-43{stroke:#4762c4;stroke-width:0.9px;}.cls-44,.cls-51{stroke:#019c40;}.cls-44,.cls-45,.cls-46,.cls-47{stroke-dasharray:8.76;}.cls-46,.cls-53{stroke:#fec519;}.cls-47,.cls-52{stroke:#7693fe;}.cls-48{fill:#f2aa79;}.cls-49{fill:#f37f2f;}.cls-50{stroke:#f37f2f;stroke-width:0.7px;}.cls-54{stroke-width:0.5px;}.cls-55{clip-path:url(#clip-path-5);}.cls-56{stroke:#17181a;}</style><clipPath id="clip-path" transform="translate(-24.76 -15.98)"><path class="cls-1" d="M371.69,245.1c-4.4-8.06-19.32-7.51-25.67-7.8-7.46-.34-12.41,2.2-12.4,10.4,0,6.06.11,5.58,1.64,9.58a19.7,19.7,0,0,1,1.58-8.27c.4-1.2,2.42.89,5.86,1s7.57-.23,7.7.43l2.81,9.78a3.84,3.84,0,0,0,3,2.72h0s-.13-8.11,6-7.85,5.72,10.24-1.2,12.24a36.7,36.7,0,0,0,2.66,7.31S376.09,253.16,371.69,245.1Z"/></clipPath><clipPath id="clip-path-2" transform="translate(-24.76 -15.98)"><path class="cls-1" d="M359.63,238.29s11-16.86,21-8.73,1.57,17.94-8.15,18.14S359.63,238.29,359.63,238.29Z"/></clipPath><clipPath id="clip-path-3" transform="translate(-24.76 -15.98)"><path class="cls-1" d="M75.24,248.09c-2.91-12.23,23.51-17,30.34-16.51s16.72,1,14.7,14.51a13.71,13.71,0,0,1-1.48,4.33s-.93-7.13-15.56-2.88a2,2,0,0,0-1.26,1.78l-1.38,12.77-5.14.91s.17-8.89-6.56-8.55-6.27,11.29,1.36,13.33a36.39,36.39,0,0,1-3,8S78.15,260.31,75.24,248.09Z"/></clipPath><clipPath id="clip-path-4" transform="translate(-24.76 -15.98)"><path class="cls-1" d="M362.36,34.9c-12.52-19.07-36-3.07-43.19-10-2.67,7.3,3.47,18.59,5.07,22.78A20.62,20.62,0,0,1,325.9,39c.42-1.25,2.53.93,6.14,1.08s7.92-.24,8.06.46L343,50.76a4,4,0,0,0,3.18,2.85h0s-.14-8.49,6.26-8.21,6,10.72-1.25,12.8A38.4,38.4,0,0,0,354,65.86S367.64,42.93,362.36,34.9Z"/></clipPath><clipPath id="clip-path-5" transform="translate(-24.76 -15.98)"><path class="cls-1" d="M86.21,40.6,65,78.77C64.3,90.27,42.87,90,39.28,99.21A23.75,23.75,0,0,0,38,106.78c-1.94-.74-9.57-4-13.24-11.32C30.3,89.72,39.4,81.31,37.52,64.29,35,41.06,49.17,43.41,49.17,43.41s4.09-14.42,21-14.74C88.53,28.33,86.21,40.6,86.21,40.6Z"/></clipPath></defs><title>Research Communities</title><path class="cls-2" d="M154.06,127.06c-11,3.13-25.94-1.78-32.06-2.05.66,8.25,1.13,23.24,5.32,30.67-.8,12-15.48,13.26-30.85,15.19s-38.06-1.14-44.21-4.21c2.3-7.29,1.35-15.23.6-19.27a22.44,22.44,0,0,1-2.66-2.68c-8.37-10.09-12.56-26.79-12.2-37.93L35.38,95.31C36.81,89,45.17,88,60.69,79.75s22.51,1,22.51,1c5.33,5,24.33,1.42,31.45,7.72l16.13,5.88s8,3.77,10.55,4.11,1.54-4.8,9.52-4.11l12.31,4.12C173.74,103.85,169.93,122.56,154.06,127.06Z" transform="translate(-24.76 -15.98)"/><path class="cls-3" d="M86.21,40.6,65,78.77C64.3,90.27,42.87,90,39.28,99.21A23.75,23.75,0,0,0,38,106.78c-1.94-.74-9.57-4-13.24-11.32C30.3,89.72,39.4,81.31,37.52,64.29,35,41.06,49.17,43.41,49.17,43.41s4.09-14.42,21-14.74C88.53,28.33,86.21,40.6,86.21,40.6Z" transform="translate(-24.76 -15.98)"/><path class="cls-2" d="M299.25,336.32l18.64,17,36,5.29-39.14-37.75c-4.1-4.71-7.55-1.34-11.52,2.76S296.48,333.15,299.25,336.32Z" transform="translate(-24.76 -15.98)"/><path class="cls-4" d="M302.42,333.27c-.06,0-5.81-8.17-5.81-8.17l7.87-7,7.91,5.06S310.34,329.41,302.42,333.27Z" transform="translate(-24.76 -15.98)"/><path class="cls-5" d="M72.05,54.71a34.72,34.72,0,0,1,1.15-6.05c1.09-4,6.38-5.54,9.35-5.79s2.77-3.12,3.66-2.27a25.29,25.29,0,0,1,2.32,5.84S73.8,54.2,72.22,54.69Z" transform="translate(-24.76 -15.98)"/><path class="cls-6" d="M91.51,55c-.12.19-.23.36-.34.5-1.7,2.19-2.91-.59-4.12-.5s-1.38,2.87-2.37,4.74-7.92,4.65-10.25,4.56-7.16-2.18-7.16-2.18-3.51-3.86-6.58-4.26c0,0,7.78-1.42,9.71-1.69,4.76-.66,21.11-8.77,21.11-10.47C91.76,46.61,93.22,52.18,91.51,55Z" transform="translate(-24.76 -15.98)"/><path class="cls-5" d="M87.54,74.57C79.29,77.15,86.3,94.5,86.3,94.5S65.18,88.64,65,78.77C66.6,75,64.8,68,64.8,68a7.18,7.18,0,0,1-5.34-2,2.55,2.55,0,0,1-1.71-1.42c-1.73-5.36.75-6.2,3.88-6.56s5.64,4.06,5.64,4.06,4.82,2.08,7.16,2.18,9.26-2.69,10.25-4.56S85.76,55.09,87,55s2.42,2.69,4.12.5C92.09,58.24,96.18,71.88,87.54,74.57Z" transform="translate(-24.76 -15.98)"/><path class="cls-7" d="M71.54,56.52l3.1,7.77A6,6,0,0,0,76.57,64L73.46,55.9l-1.92.62" transform="translate(-24.76 -15.98)"/><path class="cls-5" d="M120.26,106a19.92,19.92,0,0,0-9.42-7S99.7,115.09,98.22,117.25c3.53,5.08,13.53,3,16.57,6L120.26,106" transform="translate(-24.76 -15.98)"/><path class="cls-5" d="M166.9,81.9l-5.07,22.49-13-6.26s6-10.73,7.86-18Z" transform="translate(-24.76 -15.98)"/><path class="cls-8" d="M83.55,128.93s13.65-23.06,13.86-14.69,12.94,6.15,17.38,9.06S106.42,147.21,97.41,153c-8.34,5.37-30.54,6.21-42.54-4.08" transform="translate(-24.76 -15.98)"/><path class="cls-9" d="M373.15,246.14s1.13,19.94,14,24.24,16.33,14.63,10.4,26.76-41.81-21.51-41.81-21.51,3.46-28.7,9.23-30.93S373.15,246.14,373.15,246.14Z" transform="translate(-24.76 -15.98)"/><path class="cls-2" d="M333.6,367.5c8.93,1.79,22.93,4.54,35.21,6.73,3.12.56,5.89,1,8.35,1.35,9.61,1.38,20.65-5.07,20.09-14.76-1.43-24.89-1.43-24.89-1.11-30.6.48-8.75,6.25-29.08-1.6-34.08-5.32-1.86-24.18-11.09-26.44-14.28,0,0-20.22,5.32-21.81,3.72a.29.29,0,0,1-.27.27C343,290,325.25,300.21,323.39,306.6c-3.31,11-1.29,18.52,2.62,33.38C327.59,346,328.46,366.47,333.6,367.5Z" transform="translate(-24.76 -15.98)"/><path class="cls-4" d="M370.1,283.86s-4.41,3.19-9.31,6.26-10.62,6.2-12.37,5.44c-2.3-1-2.46-2.94-2.22-4.88s.9-4,.09-4.83c2.66-3.85,1.2-5.72.53-7.45-7.71,1.73-11.43-7-11-10.37a46.37,46.37,0,0,0,.27-6.25,10.49,10.49,0,0,0-.66-4c-.67-2.13-.14-10.11-.14-10.11s17.29-8.38,19-1.06,3.06,6.78,9.18,7c3.45.26,5,5.18,4.39,8.24-.54,2.53-3.6,4.79-6.65,5.59a44,44,0,0,0,5.71,12.77A23.87,23.87,0,0,0,370.1,283.86Z" transform="translate(-24.76 -15.98)"/><ellipse class="cls-10" cx="321.26" cy="245.53" rx="1.06" ry="2.13"/><ellipse class="cls-10" cx="312.62" cy="245.27" rx="0.93" ry="1.99"/><path class="cls-11" d="M339.64,264.31c-1.6,1.46-1.6,4.92,1.2,3.59" transform="translate(-24.76 -15.98)"/><path class="cls-12" d="M346.82,278.4s3.59-1.2,4.65-4.12c0,4.12-3.72,6.65-3.72,6.65Z" transform="translate(-24.76 -15.98)"/><path class="cls-9" d="M371.69,245.1c-4.4-8.06-19.32-7.51-25.67-7.8-7.46-.34-12.41,2.2-12.4,10.4,0,6.06.11,5.58,1.64,9.58a19.7,19.7,0,0,1,1.58-8.27c.4-1.2,2.42.89,5.86,1s7.57-.23,7.7.43l2.81,9.78a3.84,3.84,0,0,0,3,2.72h0s-.13-8.11,6-7.85,5.72,10.24-1.2,12.24a36.7,36.7,0,0,0,2.66,7.31S376.09,253.16,371.69,245.1Z" transform="translate(-24.76 -15.98)"/><path class="cls-11" d="M339.7,272.69s3.4,1.59,5.07-1.62" transform="translate(-24.76 -15.98)"/><path class="cls-11" d="M343.83,257.28s2.5-1.67,4.59-.28" transform="translate(-24.76 -15.98)"/><path class="cls-11" d="M338.43,256.87a2.23,2.23,0,0,0-2.37-.42" transform="translate(-24.76 -15.98)"/><g class="cls-13"><path class="cls-14" d="M343.83,250.62s-6.74-9.94,1.37-14.06" transform="translate(-24.76 -15.98)"/><path class="cls-14" d="M368.89,240s-15.6-1-18.77,13.59" transform="translate(-24.76 -15.98)"/><path class="cls-14" d="M373.56,244.07s-16.39,6.47-22.09,13.21" transform="translate(-24.76 -15.98)"/><path class="cls-14" d="M340.91,250.42s-8.83-7.93-.63-14.47" transform="translate(-24.76 -15.98)"/></g><path class="cls-9" d="M359.63,238.29s11-16.86,21-8.73,1.57,17.94-8.15,18.14S359.63,238.29,359.63,238.29Z" transform="translate(-24.76 -15.98)"/><path class="cls-2" d="M398.35,336.52c-.38.66-14.22,31.23-27.43,36.31-10.09,3.88-38.92,2.5-52,1.63a6.89,6.89,0,0,1-6.43-7l.19-9.56a6,6,0,0,1,6.11-6.33c7.67.11,19,.4,23.42.22,8.21-.34,12,1.37,15-5.11,3.93-8.6,5.87-14.47,9.43-24.12s11.46-34.34,27.9-26.42C404.16,300.78,410.33,315.64,398.35,336.52Z" transform="translate(-24.76 -15.98)"/><path class="cls-4" d="M315.34,368.37s-5.7.23-7.64-.53c-.93-4.74,2.36-11.6,2.36-11.6s7.78-.43,10.14-.43C320.2,355.81,318.75,365.63,315.34,368.37Z" transform="translate(-24.76 -15.98)"/><path class="cls-15" d="M284.48,362.14H264.81s-.12-2,0-4.64c.18-5.69,1.27-14.59,6.34-14.59,3.33,0,6.36,3.84,8.69,8.08A69.06,69.06,0,0,1,284.48,362.14Z" transform="translate(-24.76 -15.98)"/><path class="cls-16" d="M283,358h.91a7.62,7.62,0,0,1,7.62,7.62v2.79H240.32a5.21,5.21,0,0,1,0-10.41h24.44" transform="translate(-24.76 -15.98)"/><path class="cls-15" d="M271.3,333.42l-27.7-10.86-6,.82a0,0,0,0,0,0,0l31.56,11.94Z" transform="translate(-24.76 -15.98)"/><path class="cls-17" d="M271.3,333.42l-.6,2.41s-2.13,2.49-2.46,2.37c.43-1.29.93-2.83.93-2.83Z" transform="translate(-24.76 -15.98)"/><polygon class="cls-18" points="243.48 322.22 211.7 310.11 212.77 307.42 244.41 319.39 243.48 322.22"/><path class="cls-15" d="M291.06,332.59A37.17,37.17,0,0,1,279.8,351c-2.33-4.24-5.36-8.08-8.69-8.08-5.07,0-6.17,9.39-6.35,15.08h-7.13l5-13.85-2.23-7.45.44-1.32,7.43,2.83,1.53-1.47a6.53,6.53,0,0,0,2.3,4.35c2.15,1.74,5.21,1.18,7-1.11s6.72-12.53,3.94-16.57a4.34,4.34,0,0,0-5.26-1.76,6.94,6.94,0,0,1-4.67-.17l-1.29-.52a6.27,6.27,0,0,1-3.61-7.86l5-14.47s3.05,1,6.39,2.27a16.18,16.18,0,0,1,9.34,9.34C291.15,316.1,293.17,324.74,291.06,332.59Z" transform="translate(-24.76 -15.98)"/><path class="cls-18" d="M280.13,273.51l-5.56,15,1.08,3.41-10.68-4,2.65-1.82,5.74-15.24a1.45,1.45,0,0,1,1.9-.84l4.06,1.63A1.45,1.45,0,0,1,280.13,273.51Z" transform="translate(-24.76 -15.98)"/><polygon class="cls-16" points="240.2 271.94 232.66 292.84 243.48 297.07 250.89 275.97 240.2 271.94"/><polygon class="cls-19" points="240.48 297.6 234.29 295.17 230.58 305.75 236.49 308.17 240.48 297.6"/><polygon class="cls-18" points="234.24 295.3 232.66 292.84 243.48 297.07 240.43 297.73 234.24 295.3"/><path class="cls-20" d="M322.49,163c9.35,1.87,24,4.75,36.85,7,20.85,3.73,21.35-10.71,23-21.75,3.76-9,13.05-29.85,13.57-39.21.51-9.16-.11-17.6-8.32-20.52-5.57-1.95-26.67-11.85-29-15.19l-8.07,13.08a5.3,5.3,0,0,1-9.19-.42c-1.81-3.48-3.9-7.1-5.57-8.77a.3.3,0,0,1-.28.28c-3.2,4.31-18.25,4.2-31.91,18.51C319.39,128.53,304.95,159.48,322.49,163Z" transform="translate(-24.76 -15.98)"/><path class="cls-4" d="M360.69,75.46l-7.82,8.77L350.39,87a5.17,5.17,0,0,1-8.91-.41,49,49,0,0,0-5.7-9c2.78-4,1.25-6,.55-7.79-8.07,1.8-12-7.38-11.55-10.86a49,49,0,0,0,.28-6.54,10.78,10.78,0,0,0-.7-4.18c-.69-2.22-.13-10.57-.13-10.57s18.09-8.77,19.9-1.12,3.2,7.1,9.6,7.38c3.62.28,5.29,5.43,4.59,8.63-.55,2.64-3.75,5-7,5.84a45.72,45.72,0,0,0,6,13.36A24.88,24.88,0,0,0,360.69,75.46Z" transform="translate(-24.76 -15.98)"/><ellipse class="cls-10" cx="310.74" cy="36.1" rx="1.11" ry="2.23"/><ellipse class="cls-10" cx="301.69" cy="35.82" rx="0.97" ry="2.09"/><path class="cls-21" d="M328.82,55c-1.67,1.53-1.67,5.15,1.25,3.76" transform="translate(-24.76 -15.98)"/><path class="cls-12" d="M336.33,69.76s3.76-1.25,4.87-4.31c0,4.31-3.9,7-3.9,7Z" transform="translate(-24.76 -15.98)"/><path class="cls-22" d="M362.36,34.9c-12.52-19.07-36-3.07-43.19-10-2.67,7.3,3.47,18.59,5.07,22.78A20.62,20.62,0,0,1,325.9,39c.42-1.25,2.53.93,6.14,1.08s7.92-.24,8.06.46L343,50.76a4,4,0,0,0,3.18,2.85h0s-.14-8.49,6.26-8.21,6,10.72-1.25,12.8A38.4,38.4,0,0,0,354,65.86S367.64,42.93,362.36,34.9Z" transform="translate(-24.76 -15.98)"/><path class="cls-21" d="M328.88,63.77s3.55,1.67,5.3-1.69" transform="translate(-24.76 -15.98)"/><path class="cls-21" d="M333.2,47.65s2.61-1.75,4.8-.29" transform="translate(-24.76 -15.98)"/><path class="cls-21" d="M327.55,47.22a2.34,2.34,0,0,0-2.48-.44" transform="translate(-24.76 -15.98)"/><path class="cls-22" d="M362.36,34.9c-12.52-19.07-36-3.07-43.19-10-2.67,7.3,3.47,18.59,5.07,22.78A20.62,20.62,0,0,1,325.9,39c.42-1.25,2.53.93,6.14,1.08s7.92-.24,8.06.46L343,50.76a4,4,0,0,0,3.18,2.85h0s-.14-8.49,6.26-8.21,6,10.72-1.25,12.8A38.4,38.4,0,0,0,354,65.86S367.64,42.93,362.36,34.9Z" transform="translate(-24.76 -15.98)"/><path class="cls-20" d="M324,122s-41.22,14.49-51.46,15.28-18.91-8.38-14-21.26c4.25-16.1,31.37-14.84,35.22-17,7.43-4.21,9-6,24.32-13.56C325.75,81.65,324,122,324,122Z" transform="translate(-24.76 -15.98)"/><path class="cls-23" d="M283.74,87.8c0,2.56-.12,9.52-.39,17.26-.15,4.33-.4,9.15-.78,14-1.25,15.84-14.12,15.55-19.92,9.24-1.74-1.89-2.42-4.62-2.38-7.8h0c.16-12.37,11.22-31.64,13.44-35.38a7,7,0,0,0,4.52,3A11.37,11.37,0,0,0,283.74,87.8Z" transform="translate(-24.76 -15.98)"/><path class="cls-24" d="M300.06,63.85c-.23,2.19-1.81,2.08-1.81,2.08s1.23,1.34-1,2.25a20.35,20.35,0,0,1-4.91.74,11.38,11.38,0,0,1-.83,3.66c-.77,1.57-2.93,4.38-3.6,6.28s.51,5-.43,6.52a7.19,7.19,0,0,1-3.77,2.42,11.47,11.47,0,0,1-5.5.34,6.92,6.92,0,0,1-4.52-3,8.35,8.35,0,0,1-1.17-2.39s3.43-3.18,3.71-6.21-2.55-13.21-2.12-14.89,2.15-2,2.48-2.59a12,12,0,0,1,3.59-3.34c1.59-.89,1.84-2.66,4.89-3.32a16.11,16.11,0,0,1,3.28-.25c3.24,0,7.07.77,7.54,2.33.55,1.84-1.39,2.25-2,2.34.85,0,4.38,0,4.93,2.26.61,2.59-1.34,2.95-1.34,2.95S300.28,61.67,300.06,63.85Z" transform="translate(-24.76 -15.98)"/><path class="cls-25" d="M285.38,70.09c1.21-.71,4.23-.94,7-1.16" transform="translate(-24.76 -15.98)"/><path class="cls-25" d="M281.74,64.11s6.75.67,9.14.93,7.38.89,7.38.89" transform="translate(-24.76 -15.98)"/><path class="cls-25" d="M282.66,60.28c.36,0,6.82.23,9.19.4A27.1,27.1,0,0,1,297.5,62" transform="translate(-24.76 -15.98)"/><path class="cls-25" d="M283.26,56.44l10.47.38" transform="translate(-24.76 -15.98)"/><path class="cls-2" d="M290.76,43.54l-5.51,3.14,3.13,5.46c3.24,0,7.07.77,7.54,2.33.55,1.84-1.39,2.25-2,2.34.85,0,4.38,0,4.93,2.26a3.34,3.34,0,0,1,.05,1.54l.83-.48Z" transform="translate(-24.76 -15.98)"/><path class="cls-26" d="M299.73,60.13l-.83.48A1.86,1.86,0,0,1,297.5,62s2.78-.34,2.56,1.83-1.81,2.08-1.81,2.08,1.23,1.34-1,2.25l5.12,9.88a3.09,3.09,0,0,0,5.7-2.31,3.4,3.4,0,0,0-.24-.59Z" transform="translate(-24.76 -15.98)"/><path class="cls-20" d="M394.81,95.74c6.38,14.65,7.19,60.49,1.27,72.49s-30.81,8.2-32.2-.4S388.43,81.09,394.81,95.74Z" transform="translate(-24.76 -15.98)"/><path class="cls-27" d="M367.5,80.06l2.67,8s-7.46,2.5-6.82,3,5.48,8.5,5.48,8.5-7.5,12.67-13.83,24.5" transform="translate(-24.76 -15.98)"/><polyline class="cls-27" points="306.77 66.64 304.12 70.59 309.42 76.91"/><path class="cls-28" d="M370.17,148.66c.19-.42,6.32-13.68,7.17-15.6.29-.65,1.5,17.48,1.5,17.48Z" transform="translate(-24.76 -15.98)"/><rect class="cls-29" x="300.03" y="97.47" width="19.28" height="2.58"/><path class="cls-26" d="M329.38,117.93v8.49a1.84,1.84,0,0,1-1.84,1.84h-.72a1.84,1.84,0,0,1-1.84-1.84v-8.49Z" transform="translate(-24.76 -15.98)"/><rect class="cls-28" x="300.21" y="79.23" width="4.41" height="20.03"/><rect class="cls-28" x="307.32" y="79.23" width="4.42" height="20.03"/><path class="cls-30" d="M336.5,117.93v8.49a1.84,1.84,0,0,1-1.84,1.84h-.73a1.84,1.84,0,0,1-1.84-1.84v-8.49Z" transform="translate(-24.76 -15.98)"/><rect class="cls-28" x="314.43" y="79.23" width="4.42" height="20.03"/><path class="cls-9" d="M343.61,117.93v8.49a1.84,1.84,0,0,1-1.84,1.84H341a1.85,1.85,0,0,1-1.84-1.84v-8.49Z" transform="translate(-24.76 -15.98)"/><path class="cls-29" d="M347.72,129.58H320.85l1.13-3.24h3v.07a1.84,1.84,0,0,0,1.84,1.84h.72a1.84,1.84,0,0,0,1.84-1.84v-.07h2.7v.07a1.84,1.84,0,0,0,1.84,1.84h.73a1.84,1.84,0,0,0,1.84-1.84v-.07h2.69v.07a1.85,1.85,0,0,0,1.84,1.84h.73a1.84,1.84,0,0,0,1.84-1.84v-.07h3.15Z" transform="translate(-24.76 -15.98)"/><polygon class="cls-29" points="300.21 97.47 300.21 100.05 296.09 100.05 297.23 97.47 300.21 97.47"/><polygon class="cls-29" points="322.96 100.05 318.85 100.05 318.85 97.47 321.98 97.47 322.96 100.05"/><rect class="cls-31" x="296.09" y="100.05" width="26.87" height="1.9"/><rect class="cls-31" x="296.09" y="113.6" width="26.87" height="1.71"/><path class="cls-23" d="M382.84,167.64c-2.9,3.43-15.41,2.24-23.18-1.45a45.77,45.77,0,0,1-13-10c4.19.22,9-2.32,9.28-6.09a8.9,8.9,0,0,0-.79-4.44c1.7.51,9.46,2.77,13,2.53,4-.26,14.62,1.19,16.33,5.14S385.73,164.22,382.84,167.64Z" transform="translate(-24.76 -15.98)"/><path class="cls-24" d="M355.9,150.06c-.28,3.77-5.09,6.31-9.28,6.09a8.4,8.4,0,0,1-1.85-.29,13.23,13.23,0,0,1-8-6.85c-.92-2-2-8.5-2.7-9.42s-7.25-6.12-7.84-8,1.35-3.2,3.33-2.22a8.36,8.36,0,0,1,2.66,1.87c-.15-.21-1.88-2.66-.12-3.74s5.4,2,7,3.49c-2.23-2.88-1.3-4.94.26-5,2.79-.12,9.09,6.59,10.34,7.57a9.61,9.61,0,0,1,3.42,5.66c.66,3,.4,4,.4,4a8,8,0,0,1,1.65,2.41A8.9,8.9,0,0,1,355.9,150.06Z" transform="translate(-24.76 -15.98)"/><line class="cls-25" x1="314.94" y1="127.1" x2="309.45" y2="123.92"/><path class="cls-25" d="M343.59,140.51a35.79,35.79,0,0,1-6.91-4.68,30.07,30.07,0,0,1-4.48-4.54" transform="translate(-24.76 -15.98)"/><path class="cls-25" d="M346,137.29c-.26-.2-6.91-6.26-6.91-6.26" transform="translate(-24.76 -15.98)"/><path class="cls-8" d="M369,290.75l3.84,7.88-11.59,3.87,5.8,8.66s-22.37,16.92-23.83,27.38" transform="translate(-24.76 -15.98)"/><path class="cls-8" d="M342.23,291.95l-5,6.68,2.49,1.86-6.12,5.45s8.75,10.85,4.69,27.33" transform="translate(-24.76 -15.98)"/><path class="cls-28" d="M343.83,325.7c2.67-7.56.77-20.39.29-25.58a17.19,17.19,0,0,1,2-9.37l.08-.07c-.24,1.94-.08,3.89,2.22,4.88,1.75.76,7.32-2.27,12.37-5.44C360.08,293.61,355.31,315.25,343.83,325.7Z" transform="translate(-24.76 -15.98)"/><path class="cls-20" d="M144,323.17h0c1.93,18.08,3.89,38-3.81,47.38-9.81,11.93-73.79,2.54-73.79,2.54S42.55,379,36.86,365.53c-4.15-9.81.39-14.45,3.12-18.71,3.44-5.44,2-19.29,3-29.36s3.89-16.9,12.9-20.12c6-2.17,24.39-10.41,27-14.07l8.86,14.31a5.73,5.73,0,0,0,10-.42c1.93-3.76,4.17-7.65,6-9.58a4.17,4.17,0,0,0,.25.35c3.44,4.63,31.71,18.73,33.84,26A69.91,69.91,0,0,1,144,323.17Z" transform="translate(-24.76 -15.98)"/><path class="cls-32" d="M166.38,314.92q-.17.41-.33.85" transform="translate(-24.76 -15.98)"/><path class="cls-4" d="M182.46,299.85a2.81,2.81,0,0,1-1.25,1.56,2.66,2.66,0,0,1-.77,2.44,5,5,0,0,1-1.54,1.23c.21,1.08.53,3.32-.27,3.82a3.63,3.63,0,0,1-1.86.45,2.7,2.7,0,0,1-1.79,3.21,4.88,4.88,0,0,1-3.06,0s-2.74,1.57-4.44,2.64a5.4,5.4,0,0,1-1.43.61c-5.23,13.12-20.44,52.28-31.56,54.37a11.77,11.77,0,0,1-6.93-.57c-6-2.52-7.89-10.81-1.53-21.39,3.28-5.44,12.9-17.64,20.19-26.67h0c5-6.19,8.88-10.88,8.88-10.88s3.84-5.3,6.42-8.29,4.66-5.76,7.61-6.55,8.3-.08,8.3-.08l2.65.08C181.34,295.66,182.74,298.59,182.46,299.85Z" transform="translate(-24.76 -15.98)"/><path class="cls-12" d="M177.39,300.11c-.28.64.33,1.2,1.45,1.77a2.62,2.62,0,0,0,2.37-.47,2.65,2.65,0,0,1-2.45,1.2c-1.58-.21-1.37-2.51-1.37-2.51" transform="translate(-24.76 -15.98)"/><path class="cls-12" d="M165.06,318.26a5.94,5.94,0,0,0-2.54-1,9.14,9.14,0,0,0-3,.29s2-1.8,3-1.63a8.49,8.49,0,0,0,3.53-.18Z" transform="translate(-24.76 -15.98)"/><path class="cls-12" d="M168.15,309.39a2.73,2.73,0,0,0,.93,2.28,6.58,6.58,0,0,0,2.84.85s-3.51-1.91-3.77-3.13" transform="translate(-24.76 -15.98)"/><path class="cls-22" d="M197.5,287.92c-3.26,6.12-8.67,9.91-14.17,6.92-3.73-2-3.4-8.76-.14-14.88s8.27-10.22,12-8.13C201.92,275.67,200.76,281.8,197.5,287.92Z" transform="translate(-24.76 -15.98)"/><path class="cls-22" d="M180.17,298.94l4.08-5.3-2.19-1.56s-2.66,3.47-2.78,3.48Z" transform="translate(-24.76 -15.98)"/><polygon class="cls-33" points="155.7 281.38 158.79 277.56 156.38 275.6 153.35 279.57 155.7 281.38"/><path class="cls-12" d="M169.67,307.76a14,14,0,0,0,4.2,1.4,20.06,20.06,0,0,0,2.89.18s-.47,1.12-3.41.6S169.67,307.76,169.67,307.76Z" transform="translate(-24.76 -15.98)"/><path class="cls-34" d="M167.69,299.45s4-1.16,6.62-2.25,5.13-3.84,6-2-.3,4-3,4.87-5.66,1.82-5.92,3.19-1,7.33-8.61,7.92" transform="translate(-24.76 -15.98)"/><path class="cls-12" d="M171.47,303.29s3.86,2.31,5.14,2.24a5.65,5.65,0,0,0,2.28-.46,3.82,3.82,0,0,1-3.64,1A6,6,0,0,1,171.47,303.29Z" transform="translate(-24.76 -15.98)"/><ellipse class="cls-33" cx="188.83" cy="282.66" rx="12.56" ry="7.69" transform="translate(-174.18 300.38) rotate(-61.95)"/><path class="cls-28" d="M193.21,284.82c-2.42,4.54-6,7.53-8.75,6.05s-3.07-6.36-.65-10.89,6.63-7,9.4-5.53S195.62,280.28,193.21,284.82Z" transform="translate(-24.76 -15.98)"/><path class="cls-4" d="M118.44,257.19a12.72,12.72,0,0,0-.79,4.43,62.89,62.89,0,0,0,.23,6.83c.54,3.66-3.57,13.35-12,11.41-.66,1.89-.9,3.85,2.07,8.07a40.56,40.56,0,0,0-4.62,6.54c-.67,1.19-.91,4.4-1.54,5.63-1.89,3.72-8.36,1.38-10.55-2.17l-3-3.4h0l-7.73-8.74a23.7,23.7,0,0,0,3.48-4,48.73,48.73,0,0,0,6.3-14c-3.39-.9-6.67-3.38-7.24-6.08-.71-3.4,1-8.8,4.76-9,6.72-.35,8.16.32,10.08-7.65s20.76,1.09,20.76,1.09S119.13,254.91,118.44,257.19Z" transform="translate(-24.76 -15.98)"/><ellipse class="cls-10" cx="82" cy="245.38" rx="1.18" ry="2.39"/><ellipse class="cls-10" cx="91.36" cy="245.17" rx="0.96" ry="2.18"/><path class="cls-35" d="M113.74,264.4c1.72,1.64,1.72,5.39-1.32,3.93" transform="translate(-24.76 -15.98)"/><path class="cls-12" d="M105.89,279.86s-3.94-1.37-5.13-4.53a8.8,8.8,0,0,0,4.77,7.53A6,6,0,0,1,105.89,279.86Z" transform="translate(-24.76 -15.98)"/><path class="cls-36" d="M75.24,248.09c-2.91-12.23,23.51-17,30.34-16.51s16.72,1,14.7,14.51a13.71,13.71,0,0,1-1.48,4.33s-.93-7.13-15.56-2.88a2,2,0,0,0-1.26,1.78l-1.38,12.77-5.14.91s.17-8.89-6.56-8.55-6.27,11.29,1.36,13.33a36.39,36.39,0,0,1-3,8S78.15,260.31,75.24,248.09Z" transform="translate(-24.76 -15.98)"/><path class="cls-35" d="M106.76,272.13s1.81,4.57,6.9,2.4" transform="translate(-24.76 -15.98)"/><path class="cls-28" d="M98.69,332.59c.69-14.16-10.68-38.3-10.68-38.3s8.21,10.05,15.84-.7C103.84,293.59,104.57,313.1,98.69,332.59Z" transform="translate(-24.76 -15.98)"/><path class="cls-27" d="M77.75,290.95,75,296.8l9,.83-4.49,8.5s15.62,16.12,19.93,40.12" transform="translate(-24.76 -15.98)"/><path class="cls-27" d="M109.24,294.29l4.46,3.34-4.46,4.72,6,4.57s-12.88,20-13.42,30.29" transform="translate(-24.76 -15.98)"/><path class="cls-4" d="M67.42,348.87,45,288.75a18.22,18.22,0,0,0,1.28-4c.69-2.9.87-5.42,2.68-8.06s3.92-4.87,3.92-6.46-3.66-1.26-5,.17-3,4.57-3.5,4.91a6.36,6.36,0,0,1-1.49.57s-3-17.92-3.67-20.15-1.51-4.26-2.9-3.5-1.39,2.36-.73,6.78,2,9.59,1.78,9.46-1.28-3.06-3.15-2.3-1.85,1.47-1.85,1.47a1.58,1.58,0,0,0-2.16-.18,3.78,3.78,0,0,0-1.29,2.25s-1.26-1.36-2.88.37-.52,6,.6,9.45,1.76,6.87,3.74,8.57c2.74,2.35,4,4.72,4.26,11.12.79,18.86.38,49.37,11.16,63.89,3.52,4.74,10.78,6.12,15.73,4.36C67.59,365.32,69.28,355.05,67.42,348.87Z" transform="translate(-24.76 -15.98)"/><path class="cls-37" d="M26.2,273.25c0,.17,1.26,5.13,2.57,6.42s3-.2,2.38-2.4c1.62,2.34,2.37,1.62,3.38,1s.29-2.87.29-2.87.83,2.24,2.65,1.55.21-7.06.21-7.06" transform="translate(-24.76 -15.98)"/><path class="cls-28" d="M72.22,54.69S59.87,56.22,57.39,57.3s-3,7.18,2.07,8.73a4.13,4.13,0,0,1-1.89-4c.19-2.85,1.61-3.62,4.05-4s5.38-.79,8.8-1.29S78,54.21,84,50.94c5.63-3.06,7.62-4.45,7.55-5C91.36,44.19,88,44.49,88,44.49l.58,1.94Z" transform="translate(-24.76 -15.98)"/><path class="cls-6" d="M163.4,43.09l-9.05-1.83s-1.67,8.24-3.19,14.93l9.2,2Z" transform="translate(-24.76 -15.98)"/><path class="cls-9" d="M159.3,63.43l1.05-5.22-9.2-2c-.51,2.26-1,4.34-1.42,5.87-11,1.37-8,12.3-8,12.3,2.13,5.19,9.46,6.78,14.18,7.34s8-4.36,8.48-9.86S159.3,63.43,159.3,63.43Z" transform="translate(-24.76 -15.98)"/><path class="cls-24" d="M151.35,79.13c2.14,1,1.71,3.93-1.62,3.93s-9.65,4.1-9.65,4.1,5-1.11,5.72,0-2.22,4.36-6.32,4.7-11,2.9-13.92,5.81-3.42,10.58-3.42,10.58a40.1,40.1,0,0,0-6.44-6.48c-3.87-3.08-10.3-4.1-10.3-4.1a46.2,46.2,0,0,0,7.09-6.49c3.16-3.67,3.33-7.09,6.49-11.36s5.64-3.08,7.94-6.41,2.73-5.21,4.87-4,.6,6.55-1,7.89c2.9,0,3.93-1.74,10.93-2.93s11.36,0,12,1.2S154.17,78,151.35,79.13Z" transform="translate(-24.76 -15.98)"/><path class="cls-25" d="M138.88,80.76a20.32,20.32,0,0,1,12.47-1.62" transform="translate(-24.76 -15.98)"/><path class="cls-24" d="M177.79,65.51c.3,2.82-6.54,2.19-7.23,2.45S168.88,78,170.5,80.5c-5,5.49-15.81,2.84-15.81,2.84l1.19-1.65a6.38,6.38,0,0,0,3.88-1.1c1.55-1,9.41-10.12-.45-17.16.85-4.74,1.43-7.32,1.43-7.32a56.41,56.41,0,0,0-5.36-2.31c-2.13-.73-2.48-2.08-1.58-3.49.12-2.57,2.33-3.62,6.94-2.85s6.51,3.23,8.22,4.85.85,2.82,2.13,4.74.69,6.58.69,6.58S177.49,62.69,177.79,65.51Z" transform="translate(-24.76 -15.98)"/><path class="cls-25" d="M168,57.4c-.94-.73-4.14-3.76-6-3.59-1.56.14-1.62,1.65-1.11,2.52.35.6,5.07,4.34,7.73,7.3" transform="translate(-24.76 -15.98)"/><path class="cls-25" d="M153.79,50.31s.6-.59,4,0,7.43,1.57,8.76,2.73" transform="translate(-24.76 -15.98)"/><path class="cls-28" d="M352.87,84.23l-2.51,24.6L344.23,89a5.11,5.11,0,0,0,6.16-2Z" transform="translate(-24.76 -15.98)"/><polygon class="cls-28" points="49.3 73.46 63.77 88.41 61.54 78.52 49.3 73.46"/><path class="cls-8" d="M358,351.11s-39.65-6-44.16,4.94c3.63-.24,6.33-.24,6.33-.24s-2.77,12.53-4.86,12.56-2.62.15-2,2.51,2.42,3.59,12.65,4,33.34.84,40.35-.84,29-31.59,29-31.59" transform="translate(-24.76 -15.98)"/><path class="cls-35" d="M103.77,256.9s2.8-4,5.37-1.12" transform="translate(-24.76 -15.98)"/><path class="cls-35" d="M114.35,256.42s2.08-2.49,3.61-.6" transform="translate(-24.76 -15.98)"/><circle class="cls-38" cx="133.07" cy="6.99" r="4.98"/><circle class="cls-38" cx="146.12" cy="4.09" r="3.09"/><circle class="cls-38" cx="148.55" cy="16.12" r="3.46"/><path class="cls-21" d="M89.25,58.21s4.06,4.23-1.25,4.48" transform="translate(-24.76 -15.98)"/><path class="cls-21" d="M84.31,67.72s3.22,3.9,6.42.34" transform="translate(-24.76 -15.98)"/><g class="cls-39"><path class="cls-14" d="M365.42,229.25s2.5,15.42,15.67,17.25" transform="translate(-24.76 -15.98)"/><path class="cls-14" d="M364.5,230.17s12.92,15.92,22.58,10.75" transform="translate(-24.76 -15.98)"/></g><g class="cls-40"><path class="cls-41" d="M114.35,248.13c-.23-.75,1.77-19.7-18.41-16.58" transform="translate(-24.76 -15.98)"/><path class="cls-41" d="M95.38,230.57s18.49,3.18,12.56,18.56" transform="translate(-24.76 -15.98)"/><path class="cls-41" d="M106.46,248.75s-12.46-10-8.67-23" transform="translate(-24.76 -15.98)"/></g><g class="cls-42"><path class="cls-43" d="M366.88,34.25c-.12-.37-17.69-12.25-28.87,7.13" transform="translate(-24.76 -15.98)"/><path class="cls-43" d="M338,41.38c.5-.12-3.5-14,12.87-18.87" transform="translate(-24.76 -15.98)"/><path class="cls-43" d="M336.61,43c.26-.62-9.3-12.31-1.92-24.12" transform="translate(-24.76 -15.98)"/><path class="cls-43" d="M337.93,43s15.32-10.87,29.57-1" transform="translate(-24.76 -15.98)"/></g><path class="cls-44" d="M214.55,142.75A56.25,56.25,0,0,1,270.66,195" transform="translate(-24.76 -15.98)"/><path class="cls-45" d="M158.3,199a56.25,56.25,0,0,1,51.81-56.08" transform="translate(-24.76 -15.98)"/><path class="cls-46" d="M214.55,255.25a56.25,56.25,0,0,1-56-50.87" transform="translate(-24.76 -15.98)"/><path class="cls-47" d="M270.8,199a56.25,56.25,0,0,1-53.29,56.17" transform="translate(-24.76 -15.98)"/><path class="cls-48" d="M246.81,212.66c.68-.46,1.58-.89,1.58-1.57,0-1-1.67-1.42-2-1.62a.87.87,0,0,1-.18-1.39c.73-.73,1.87-.51,1.87-1.79s-4.1-3.25-2.06-5.64c1.7-2,2.57-2.31,2.14-3.71-.72-2.3-7-5-8.68-7.9-1-1.72-.43-6.89-.87-9.24s-2.11-5.88-8.9-10.47a21.77,21.77,0,0,0-11-3.34,42.56,42.56,0,0,0-8.84.11c3.53.28,13.52,1.1,16.65,3.22,6.79,4.59,6.37,8.11,6.8,10.47s-.13,7.52.87,9.24c1.7,2.92,6.57,5.6,7.29,7.9.43,1.4-.43,1.71-2.14,3.71-2,2.39,2.06,4.39,2.06,5.64s-1.14,1.07-1.87,1.79a.87.87,0,0,0,.19,1.39c.37.2,2,.57,2,1.62,0,.68-.9,1.11-1.58,1.57-.91.62-1.27,1.95-.58,3.69.83,2.09-.52,4.86-3.91,6.07-3.54,1.26-8.85,1-11.51,1.69-4.59,1.15-5.12,6.11-8.62,7.34a13.5,13.5,0,0,1-2.42.49l.27.38a34.54,34.54,0,0,0,7.41-.87c3.5-1.24,4.59-6.2,7.55-7,1.91-.51,10.43-.79,14-2,3.39-1.21,5.44-4,4.61-6.07C246.24,214.61,245.9,213.28,246.81,212.66Z" transform="translate(-24.76 -15.98)"/><path class="cls-49" d="M239.69,209.47a.87.87,0,0,1-.19-1.39c.73-.73,1.87-.51,1.87-1.79s-4.1-3.25-2.06-5.64c1.7-2,2.57-2.31,2.14-3.71-.72-2.3-5.58-5-7.29-7.9-1-1.72-.43-6.89-.87-9.24s0-5.88-6.8-10.47c-3.13-2.12-7.28-2.94-10.81-3.22a41.59,41.59,0,0,0-6,0c3.43.25,7.55,1.06,10.77,3.24,6.8,4.59,7.07,8.11,7.5,10.47s-.13,7.52.87,9.24c1.7,2.92,6.57,5.6,7.29,7.9.43,1.4-.43,1.71-2.14,3.71-2,2.39,2.07,4.39,2.07,5.64s-1.14,1.07-1.88,1.79a.87.87,0,0,0,.19,1.39c.37.2,2,.57,2,1.62,0,.68-.9,1.11-1.57,1.57-.91.62-1.28,1.95-.59,3.69.83,2.09-1.44,5.58-5.39,6.19-3.42.52-8.9-1.6-12.49,1.93-2.19,2.14-2.65,4.75-6.15,6a16.16,16.16,0,0,1-2.68.58c.16.45.3.92.48,1.35a34.4,34.4,0,0,0,7.52-.91c3.5-1.24,4-6.19,8.62-7.34,2.66-.66,8-.43,11.51-1.69,3.39-1.21,4.75-4,3.91-6.07-.69-1.74-.33-3.07.58-3.69.68-.46,1.58-.89,1.58-1.57C241.73,210,240.06,209.68,239.69,209.47Z" transform="translate(-24.76 -15.98)"/><circle class="cls-49" cx="165.01" cy="157.86" r="3.31"/><circle class="cls-49" cx="169.46" cy="193.5" r="3.31"/><circle class="cls-49" cx="159.91" cy="175.91" r="3.95"/><circle class="cls-49" cx="186.58" cy="164.61" r="2.44"/><circle class="cls-49" cx="185.35" cy="151.84" r="2.19"/><circle class="cls-49" cx="177.94" cy="174.39" r="2.44"/><circle class="cls-49" cx="180.77" cy="185.69" r="2.14"/><circle class="cls-49" cx="184.14" cy="199.45" r="2.14"/><circle class="cls-49" cx="173.09" cy="209.58" r="2.14"/><line class="cls-50" x1="167.24" y1="156.99" x2="184.14" y2="152.28"/><line class="cls-50" x1="167.36" y1="158.27" x2="185.62" y2="164.32"/><line class="cls-50" x1="166.31" y1="159.55" x2="177.45" y2="173.71"/><line class="cls-50" x1="164.72" y1="159.96" x2="160.21" y2="173.71"/><path class="cls-50" d="M185.87,194.29c.09,0,7.27,13.46,7.27,13.46" transform="translate(-24.76 -15.98)"/><line class="cls-50" x1="171.46" y1="192.14" x2="180.18" y2="186.15"/><path class="cls-50" d="M195.84,210.39c.09,0,12.85,5,12.85,5" transform="translate(-24.76 -15.98)"/><line class="cls-50" x1="169.98" y1="195.52" x2="172.77" y2="208.34"/><polyline class="cls-8" points="37.41 72.66 34.57 79.18 41.57 78.52 41.57 87.35 65.24 95.13"/><polygon class="cls-51" points="246.02 8.01 233.31 8.01 226.95 19.02 233.31 30.02 246.02 30.02 252.38 19.02 246.02 8.01"/><line class="cls-51" x1="233.31" y1="8.01" x2="229.13" y2="2.2"/><line class="cls-51" x1="252.38" y1="19.02" x2="259.13" y2="19.02"/><line class="cls-51" x1="233.31" y1="30.02" x2="229.88" y2="35.33"/><circle class="cls-52" cx="311.04" cy="235.05" r="7.83" transform="translate(-99.52 275.17) rotate(-45.35)"/><circle class="cls-52" cx="325.76" cy="223.94" r="4.17" transform="translate(-87.24 282.34) rotate(-45.35)"/><circle class="cls-52" cx="294.86" cy="227.06" r="4.17" transform="translate(-98.65 261.29) rotate(-45.35)"/><circle class="cls-52" cx="313.27" cy="252.8" r="4.17" transform="translate(-111.49 282.04) rotate(-45.35)"/><line class="cls-52" x1="297.72" y1="210.57" x2="292.73" y2="214.43"/><line class="cls-52" x1="286.97" y1="226.86" x2="287.67" y2="232.73"/><line class="cls-52" x1="279.38" y1="215.35" x2="273.96" y2="212.65"/><path class="cls-53" d="M58.8,236.36l-4,1.43a1.64,1.64,0,0,1-2.1-1l-1.87-5.21,7-2.5,2,5.18A1.64,1.64,0,0,1,58.8,236.36Z" transform="translate(-24.76 -15.98)"/><path class="cls-53" d="M58.16,217a8.23,8.23,0,0,0-15.49,5.54c1.3,3.65,6.24,6,6.8,6.77a25.23,25.23,0,0,1,1.36,2.27l7-2.5a13.24,13.24,0,0,1-.39-2.55C57.42,225.13,59.52,220.78,58.16,217Z" transform="translate(-24.76 -15.98)"/><circle class="cls-19" cx="246.54" cy="334.33" r="6.48"/><path class="cls-24" d="M310.35,355.71l-7,.11s-13.1-6.22-14.71-6.9-6.95.73-9,.73-1.66-.78-3.73-.41-9.49.83-10,2,.36,2.13,2.38,2.23a27.8,27.8,0,0,0,4.15-.16s-5.6,4.87-5.75,7.21,3.17,1.09,3.76.47,3.08-3.42,3.08-3.42-3.42,6-3.52,6.79,2.8,1,3.94-.57,3.89-5.44,3.89-5.44-1.71,5.1-1.61,6.65,3.27.4,3.73-1.67,2-4.35,2.23-4.35,6.8,6.94,12.45,8.5,8.49,1.36,9.63,1.31,6.33,3.19,6.33,3.19S311.65,359.07,310.35,355.71Z" transform="translate(-24.76 -15.98)"/><path class="cls-54" d="M288.22,354.93a7.85,7.85,0,0,1-3.42.78,14.44,14.44,0,0,0-2.8,3.43" transform="translate(-24.76 -15.98)"/><path class="cls-54" d="M286.76,351.45c-.16,0-4.87.57-6.64,2s-2.32,5.09-2.32,5.09" transform="translate(-24.76 -15.98)"/><path class="cls-54" d="M283.86,350.31s-4.77.83-6.32,1.92-3.63,4.8-3.63,4.8" transform="translate(-24.76 -15.98)"/><path class="cls-54" d="M279.56,350.31a16.88,16.88,0,0,0-4,.57,8.46,8.46,0,0,0-3.06,2.38" transform="translate(-24.76 -15.98)"/><path class="cls-24" d="M304.93,316.45s-5.13,10.1-7.32,11.32c-.94-1-5.15-5.37-7.77-6s-4.91-6.07-5.8-8.16-2-5.15-2.86-6.82c-.55-1-2.1-2.37-.93-3.43s3.1.05,4.19,1.82,2.17,4.59,2.89,4.78.59-1.75.19-3.06a11.63,11.63,0,0,0-1.59-3.42c-.34-.25-9.35-10.09-9.46-11.38A1,1,0,0,1,278,291c.5.3,5.55,4,5.55,4s-5.6-5.23-4.39-6.78,7.89,5.56,9.1,6.89c1,1.13,5.58,6,6.35,8.31.65,2,1.63,6.67,3.53,8.24S304.93,316.45,304.93,316.45Z" transform="translate(-24.76 -15.98)"/><g class="cls-55"><path class="cls-56" d="M83.5,27c0,8.42-17.66,20-34.33,16.41S30.33,36.7,30.33,36.7" transform="translate(-24.76 -15.98)"/><path class="cls-56" d="M83.29,28.64c-1.87,8.21-26,14.45-41.49,7.27S26.54,26,26.54,26" transform="translate(-24.76 -15.98)"/><path class="cls-56" d="M83.29,28.64c-4.7,6.9-25.16,8.37-40.62,1.18S25.79,19.1,25.79,19.1" transform="translate(-24.76 -15.98)"/></g></svg>