<svg id="Слой_1" data-name="Слой 1" xmlns="http://www.w3.org/2000/svg" xmlns:xlink="http://www.w3.org/1999/xlink" viewBox="0 0 384.02 346"><defs><style>.cls-1{fill:none;}.cls-2{fill:#ffc61a;}.cls-3{clip-path:url(#clip-path);}.cls-4{fill:#dbaa16;}.cls-5{fill:#f4706b;}.cls-10,.cls-6{fill:#029d41;}.cls-7{fill:#f6eeca;}.cls-8{fill:#eb9869;}.cls-9{fill:#303134;}.cls-10{stroke:#029d41;stroke-miterlimit:10;stroke-width:0.5px;}.cls-11{fill:#c77e54;}</style><clipPath id="clip-path" transform="translate(-18.83 -15.5)"><path class="cls-1" d="M386,157.13c-1.5-6.42-7.75-15-16.19-14.29-3.47-7.49-16.8-8.84-23.77-7.49-19.58,3.79-27,15.13-23.06,25.59,1.89-2.81,4.46-5.74,7.53-6.95a22.53,22.53,0,0,0-3.79,7.38,9.54,9.54,0,0,0,1.56,8.43c10.2,13.25,27.36,2.38,27.36,2.38s18.62,2.07,18.5,4.81C383.36,172.12,389.28,171.2,386,157.13Z"/></clipPath></defs><title>Searching as Learning</title><path class="cls-2" d="M371.32,186.83c-6.89.28-9.94,7.79-9.94,7.79s-19.54-9.86-30.57-21.8c-.91-1-1.77-2-2.55-3a9.53,9.53,0,0,1-1.55-8.43A22.35,22.35,0,0,1,330.5,154c-3.07,1.21-5.64,4.14-7.53,7-2.3-6.18-.67-12.66,5.07-17.72a27.9,27.9,0,0,1,4.88-3.37A44.47,44.47,0,0,1,346,135.35c7-1.35,20.3,0,23.78,7.49,10.61-.74,14.7,7.87,16.19,14.29a30.57,30.57,0,0,1-4.68,24.68A12.74,12.74,0,0,1,371.32,186.83Z" transform="translate(-18.83 -15.5)"/><g class="cls-3"><path class="cls-4" d="M382.06,163.06a13.75,13.75,0,0,1-5.78-1.31c-14.58-6.69-22.6-36.64-22.94-37.91l1.32-.35c.08.31,8.2,30.59,22.19,37a12.5,12.5,0,0,0,11.13-.27l.6,1.23A14.81,14.81,0,0,1,382.06,163.06Z" transform="translate(-18.83 -15.5)"/><path class="cls-4" d="M388.28,155.89c-18.68,0-34.22-26.2-34.87-27.31l1.18-.69c.16.27,15.8,26.64,33.69,26.64Z" transform="translate(-18.83 -15.5)"/></g><path class="cls-4" d="M337.38,154.67l-.32,15.14s-3,1.45-6.25,3c-.91-1-1.77-2-2.55-3a9.53,9.53,0,0,1-1.55-8.43A22.35,22.35,0,0,1,330.5,154c-3.07,1.21-5.64,4.14-7.53,7-2.3-6.18-.67-12.66,5.07-17.72,5.84.26,9.49,8,9.49,8Z" transform="translate(-18.83 -15.5)"/><path class="cls-5" d="M226.64,188.07H175.36a2.86,2.86,0,0,1-2.86-2.86V149.49a2.86,2.86,0,0,1,2.86-2.86h51.28a2.87,2.87,0,0,1,2.86,2.86v35.72A2.87,2.87,0,0,1,226.64,188.07Zm-51.28-39.44a.86.86,0,0,0-.86.86v35.72a.86.86,0,0,0,.86.86h51.28a.86.86,0,0,0,.86-.86V149.49a.86.86,0,0,0-.86-.86Z" transform="translate(-18.83 -15.5)"/><path class="cls-5" d="M226.64,273.63H175.36a2.87,2.87,0,0,1-2.86-2.86V235a2.87,2.87,0,0,1,2.86-2.86h51.28a2.87,2.87,0,0,1,2.86,2.86v35.72A2.87,2.87,0,0,1,226.64,273.63Zm-51.28-39.44a.86.86,0,0,0-.86.86v35.72a.86.86,0,0,0,.86.86h51.28a.86.86,0,0,0,.86-.86V235a.86.86,0,0,0-.86-.86Z" transform="translate(-18.83 -15.5)"/><path class="cls-5" d="M315.16,232.37H263.88a2.87,2.87,0,0,1-2.86-2.86V193.79a2.87,2.87,0,0,1,2.86-2.86h51.28a2.87,2.87,0,0,1,2.86,2.86v35.72A2.87,2.87,0,0,1,315.16,232.37Zm-51.28-39.44a.86.86,0,0,0-.86.86v35.72a.86.86,0,0,0,.86.86h51.28a.86.86,0,0,0,.86-.86V193.79a.86.86,0,0,0-.86-.86Z" transform="translate(-18.83 -15.5)"/><path class="cls-5" d="M140.73,188.87H89.45A2.87,2.87,0,0,1,86.58,186V150.29a2.87,2.87,0,0,1,2.86-2.86h51.28a2.86,2.86,0,0,1,2.86,2.86V186A2.86,2.86,0,0,1,140.73,188.87ZM89.45,149.43a.86.86,0,0,0-.86.86V186a.86.86,0,0,0,.86.86h51.28a.86.86,0,0,0,.86-.86V150.29a.86.86,0,0,0-.86-.86Z" transform="translate(-18.83 -15.5)"/><rect class="cls-6" x="126.11" y="150.85" width="22.25" height="2"/><polygon class="cls-6" points="146.34 151.85 146.34 147.75 149.89 149.8 153.44 151.85 149.89 153.91 146.34 155.96 146.34 151.85"/><path class="cls-5" d="M140.73,244.9H89.45A2.87,2.87,0,0,1,86.58,242V206.32a2.86,2.86,0,0,1,2.86-2.86h51.28a2.86,2.86,0,0,1,2.86,2.86V242A2.87,2.87,0,0,1,140.73,244.9ZM89.45,205.46a.86.86,0,0,0-.86.86V242a.86.86,0,0,0,.86.86h51.28a.86.86,0,0,0,.86-.86V206.32a.86.86,0,0,0-.86-.86Z" transform="translate(-18.83 -15.5)"/><rect class="cls-6" x="155.83" y="217.29" width="2" height="27.42" transform="translate(-140.42 236.5) rotate(-60.14)"/><polygon class="cls-6" points="146.39 220.38 148.34 216.77 150.5 220.26 152.65 223.75 148.55 223.87 144.44 223.99 146.39 220.38"/><rect class="cls-6" x="142.42" y="274.86" width="27.42" height="2" transform="translate(-130.26 90.4) rotate(-28.07)"/><polygon class="cls-6" points="145.84 255.75 147.67 259.42 149.94 255.99 152.2 252.57 148.1 252.32 144 252.07 145.84 255.75"/><rect class="cls-6" x="243.74" y="174.75" width="2" height="27.42" transform="matrix(0.5, -0.87, 0.87, 0.5, -59.39, 291.37)"/><polygon class="cls-6" points="234.3 177.84 236.25 174.23 238.4 177.72 240.56 181.21 236.46 181.33 232.35 181.45 234.3 177.84"/><rect class="cls-6" x="230.33" y="232.31" width="27.42" height="2" transform="translate(-99.91 126.75) rotate(-28.07)"/><polygon class="cls-6" points="233.75 213.21 235.58 216.88 237.84 213.45 240.11 210.03 236.01 209.78 231.91 209.53 233.75 213.21"/><path class="cls-5" d="M140.73,300.93H89.45a2.87,2.87,0,0,1-2.86-2.86V262.34a2.87,2.87,0,0,1,2.86-2.86h51.28a2.87,2.87,0,0,1,2.86,2.86v35.72A2.87,2.87,0,0,1,140.73,300.93ZM89.45,261.48a.86.86,0,0,0-.86.86v35.72a.86.86,0,0,0,.86.86h51.28a.86.86,0,0,0,.86-.86V262.34a.86.86,0,0,0-.86-.86Z" transform="translate(-18.83 -15.5)"/><path class="cls-7" d="M299.72,60H104.49c-9.56,0-17.31,8.35-17.31,18.65h0c0,10.3,7.75,18.65,17.31,18.65H299.72C309.28,97.31,317,89,317,78.65h0C317,68.35,309.28,60,299.72,60Z" transform="translate(-18.83 -15.5)"/><path class="cls-6" d="M299.72,98.81H104.49c-10.37,0-18.81-9-18.81-20.15S94.12,58.5,104.49,58.5H299.72c10.37,0,18.81,9,18.81,20.15S310.09,98.81,299.72,98.81ZM104.49,61.5c-8.72,0-15.81,7.7-15.81,17.15s7.09,17.15,15.81,17.15H299.72c8.72,0,15.81-7.7,15.81-17.15S308.43,61.5,299.72,61.5Z" transform="translate(-18.83 -15.5)"/><path class="cls-8" d="M331.57,166.91c3-6.91,2.09-8,3.61-11.36a28.48,28.48,0,0,1,2-4.18c1-.86.66,2.59,3.79,2.48,14.45-.48,6.45,17.17,15,19.46,1-1.1,3.23-4.67,6.44-5.21s7.47,5,4.28,10.53c-2.23,3.84-10.49,3.67-10.49,3.67s-.81,7,3.24,10.78c-.43,10.38-21,3.15-21,3.15s4.6-6.93-3.54-9.16C325.73,184.55,330.35,169.7,331.57,166.91Z" transform="translate(-18.83 -15.5)"/><path class="cls-9" d="M334.73,174.89h0c-1.69-.12-2.71-.62-3-1.49-.59-1.59,1.53-3.73,1.63-3.82a.33.33,0,0,1,.46.47c-.54.53-1.84,2.13-1.47,3.13.28.75,1.49,1,2.46,1.06a.33.33,0,0,1,0,.66Z" transform="translate(-18.83 -15.5)"/><path class="cls-9" d="M334.6,181.89a3.78,3.78,0,0,1-1.3-.22,3.4,3.4,0,0,1-2-2,.33.33,0,0,1,.61-.25,2.77,2.77,0,0,0,1.59,1.65,5,5,0,0,0,3.38-.38.33.33,0,1,1,.3.59A6.35,6.35,0,0,1,334.6,181.89Z" transform="translate(-18.83 -15.5)"/><ellipse class="cls-9" cx="341.53" cy="167.74" rx="2.52" ry="1.24" transform="translate(85.23 449.55) rotate(-77.54)"/><ellipse class="cls-9" cx="333.87" cy="164.83" rx="2.29" ry="1.01" transform="translate(82.07 439.79) rotate(-77.54)"/><path class="cls-9" d="M346,161.49a.34.34,0,0,1-.29-.15s-1.4-2.07-3.06-2.2a2.48,2.48,0,0,0-2,.93.34.34,0,1,1-.5-.47,3.13,3.13,0,0,1,2.58-1.15c2,.16,3.51,2.41,3.57,2.51a.34.34,0,0,1-.1.48A.34.34,0,0,1,346,161.49Z" transform="translate(-18.83 -15.5)"/><path class="cls-9" d="M337.38,158.77a.35.35,0,0,1-.33-.24c-.09-.29-.45-1.08-1-1.23a1.22,1.22,0,0,0-1.08.4.34.34,0,0,1-.45-.52,1.83,1.83,0,0,1,1.72-.54c1,.28,1.44,1.63,1.45,1.68a.34.34,0,0,1-.22.43Z" transform="translate(-18.83 -15.5)"/><path class="cls-5" d="M39,361.5a1.5,1.5,0,0,1-1.5-1.5V242.45a1.5,1.5,0,0,1,3,0V360A1.5,1.5,0,0,1,39,361.5Z" transform="translate(-18.83 -15.5)"/><path class="cls-5" d="M39,206.61a1.5,1.5,0,0,1-1.5-1.5V148.43a1.5,1.5,0,0,1,3,0v56.68A1.5,1.5,0,0,1,39,206.61Z" transform="translate(-18.83 -15.5)"/><path class="cls-6" d="M39,140.54a1.5,1.5,0,0,1-1.5-1.5V98.67a1.5,1.5,0,0,1,3,0V139A1.5,1.5,0,0,1,39,140.54Z" transform="translate(-18.83 -15.5)"/><path class="cls-6" d="M39,62.83a1.5,1.5,0,0,1-1.5-1.5V17a1.5,1.5,0,0,1,3,0V61.33A1.5,1.5,0,0,1,39,62.83Z" transform="translate(-18.83 -15.5)"/><circle class="cls-7" cx="20.17" cy="64.5" r="18.67"/><path class="cls-6" d="M39,100.17A20.17,20.17,0,1,1,59.17,80,20.19,20.19,0,0,1,39,100.17Zm0-37.33A17.17,17.17,0,1,0,56.17,80,17.19,17.19,0,0,0,39,62.83Z" transform="translate(-18.83 -15.5)"/><circle class="cls-7" cx="20.17" cy="208.28" r="18.67"/><path class="cls-5" d="M39,243.94a20.17,20.17,0,1,1,20.17-20.17A20.19,20.19,0,0,1,39,243.94Zm0-37.33a17.17,17.17,0,1,0,17.17,17.17A17.19,17.19,0,0,0,39,206.61Z" transform="translate(-18.83 -15.5)"/><path class="cls-5" d="M34.36,230.69v-1.24l1.58-1.54c3.8-3.62,5.52-5.55,5.55-7.79a2.66,2.66,0,0,0-3-2.91,5.07,5.07,0,0,0-3.16,1.26l-.64-1.42a6.54,6.54,0,0,1,4.22-1.51,4.19,4.19,0,0,1,4.56,4.33c0,2.75-2,5-5.13,8L37.18,229v0h6.69v1.67Z" transform="translate(-18.83 -15.5)"/><path class="cls-6" d="M38.74,74h0l-2.59,1.4-.39-1.54L39,72.13h1.72V87H38.74Z" transform="translate(-18.83 -15.5)"/><path class="cls-10" d="M107.24,70.58h2V78h.07c.41-.6.82-1.15,1.21-1.65l4.72-5.8h2.48l-5.59,6.55,6,8.89h-2.36l-5.09-7.59-1.47,1.7V86h-2Z" transform="translate(-18.83 -15.5)"/><path class="cls-10" d="M120.71,80.84a3.55,3.55,0,0,0,3.8,3.85,7.29,7.29,0,0,0,3.07-.57l.34,1.44a9,9,0,0,1-3.69.69c-3.42,0-5.45-2.25-5.45-5.59s2-6,5.2-6c3.62,0,4.58,3.19,4.58,5.23a7.59,7.59,0,0,1-.07.94Zm5.91-1.44c0-1.28-.53-3.28-2.8-3.28-2,0-2.93,1.88-3.09,3.28Z" transform="translate(-18.83 -15.5)"/><path class="cls-10" d="M131.8,74.93l2.43,6.55c.25.73.53,1.6.71,2.27h0c.21-.66.44-1.51.71-2.31l2.2-6.51H140l-3,7.91c-1.44,3.8-2.43,5.75-3.8,6.94a5.47,5.47,0,0,1-2.48,1.31l-.5-1.7a5.34,5.34,0,0,0,1.76-1,6.11,6.11,0,0,0,1.7-2.25,1.45,1.45,0,0,0,.16-.48,1.76,1.76,0,0,0-.14-.53l-4.1-10.22Z" transform="translate(-18.83 -15.5)"/><path class="cls-10" d="M142.94,74.93l1.47,5.64c.32,1.24.62,2.38.83,3.53h.07c.25-1.12.62-2.31,1-3.51l1.81-5.66h1.7l1.72,5.55c.41,1.33.73,2.5,1,3.62h.07a33.4,33.4,0,0,1,.85-3.6L155,74.93h2L153.41,86h-1.83l-1.7-5.29a36.88,36.88,0,0,1-1-3.64h0a32.75,32.75,0,0,1-1,3.67L146.06,86h-1.83l-3.35-11.09Z" transform="translate(-18.83 -15.5)"/><path class="cls-10" d="M168.81,80.39c0,4.1-2.84,5.89-5.52,5.89-3,0-5.32-2.2-5.32-5.71,0-3.71,2.43-5.89,5.5-5.89S168.81,77,168.81,80.39Zm-8.8.11c0,2.43,1.4,4.26,3.37,4.26s3.37-1.81,3.37-4.31c0-1.88-.94-4.26-3.32-4.26S160,78.39,160,80.5Z" transform="translate(-18.83 -15.5)"/><path class="cls-10" d="M171.35,78.39c0-1.31,0-2.43-.09-3.46H173l.07,2.18h.09a3.33,3.33,0,0,1,3.07-2.43,2.17,2.17,0,0,1,.57.07v1.9a3,3,0,0,0-.69-.07,2.83,2.83,0,0,0-2.7,2.59,5.67,5.67,0,0,0-.09.94V86h-2Z" transform="translate(-18.83 -15.5)"/><path class="cls-10" d="M188.19,69.75V83.16c0,1,0,2.11.09,2.86h-1.81l-.09-1.93h0a4.1,4.1,0,0,1-3.78,2.18c-2.68,0-4.74-2.27-4.74-5.64,0-3.69,2.27-6,5-6a3.71,3.71,0,0,1,3.35,1.7h0V69.75Zm-2,9.69a3.58,3.58,0,0,0-.09-.85,3,3,0,0,0-2.91-2.34c-2.08,0-3.32,1.83-3.32,4.29,0,2.25,1.1,4.1,3.28,4.1a3,3,0,0,0,3-2.41,3.52,3.52,0,0,0,.09-.87Z" transform="translate(-18.83 -15.5)"/><path class="cls-10" d="M196.19,83.6a7.07,7.07,0,0,0,3.58,1c2,0,3.23-1.08,3.23-2.64s-.83-2.27-2.91-3.07C197.56,78,196,76.7,196,74.52c0-2.41,2-4.19,5-4.19a7,7,0,0,1,3.42.76l-.55,1.63a6.15,6.15,0,0,0-2.93-.73c-2.11,0-2.91,1.26-2.91,2.31,0,1.44.94,2.15,3.07,3,2.61,1,3.94,2.27,3.94,4.54s-1.76,4.45-5.41,4.45a8,8,0,0,1-3.94-1Z" transform="translate(-18.83 -15.5)"/><path class="cls-10" d="M208.95,80.84a3.55,3.55,0,0,0,3.8,3.85,7.29,7.29,0,0,0,3.07-.57l.34,1.44a9,9,0,0,1-3.69.69c-3.41,0-5.45-2.25-5.45-5.59s2-6,5.2-6c3.62,0,4.58,3.19,4.58,5.23a7.71,7.71,0,0,1-.07.94Zm5.91-1.44c0-1.28-.53-3.28-2.8-3.28-2,0-2.93,1.88-3.09,3.28Z" transform="translate(-18.83 -15.5)"/><path class="cls-10" d="M225.45,86l-.16-1.4h-.07a4.13,4.13,0,0,1-3.39,1.65,3.16,3.16,0,0,1-3.39-3.19c0-2.68,2.38-4.15,6.67-4.13v-.23a2.29,2.29,0,0,0-2.52-2.57,5.53,5.53,0,0,0-2.89.83l-.46-1.33a6.89,6.89,0,0,1,3.64-1c3.39,0,4.22,2.31,4.22,4.54v4.15a15.7,15.7,0,0,0,.18,2.66Zm-.3-5.66c-2.2,0-4.7.34-4.7,2.5a1.78,1.78,0,0,0,1.9,1.92A2.76,2.76,0,0,0,225,82.93a2.09,2.09,0,0,0,.12-.64Z" transform="translate(-18.83 -15.5)"/><path class="cls-10" d="M230.35,78.39c0-1.31,0-2.43-.09-3.46H232l.07,2.18h.09a3.33,3.33,0,0,1,3.07-2.43,2.18,2.18,0,0,1,.57.07v1.9a3,3,0,0,0-.69-.07,2.83,2.83,0,0,0-2.7,2.59,5.67,5.67,0,0,0-.09.94V86h-2Z" transform="translate(-18.83 -15.5)"/><path class="cls-10" d="M245.52,85.61a7.43,7.43,0,0,1-3.19.64c-3.35,0-5.52-2.27-5.52-5.66a5.64,5.64,0,0,1,6-5.89,6.74,6.74,0,0,1,2.8.57l-.46,1.56a4.68,4.68,0,0,0-2.34-.53c-2.54,0-3.92,1.88-3.92,4.19a3.8,3.8,0,0,0,3.85,4.15,5.73,5.73,0,0,0,2.48-.55Z" transform="translate(-18.83 -15.5)"/><path class="cls-10" d="M247.88,69.75h2v6.92h0a3.75,3.75,0,0,1,1.44-1.42,4.15,4.15,0,0,1,2.06-.57c1.49,0,3.87.92,3.87,4.74V86h-2V79.65c0-1.79-.66-3.3-2.57-3.3a2.9,2.9,0,0,0-2.71,2,2.45,2.45,0,0,0-.14,1V86h-2Z" transform="translate(-18.83 -15.5)"/><path class="cls-5" d="M121.68,343h-6v5.54h6.65v1.66h-8.63V334.89H122v1.66h-6.31v4.85h6Z" transform="translate(-18.83 -15.5)"/><path class="cls-5" d="M125.81,339.22l1.57,2.37c.41.62.75,1.18,1.12,1.8h.07c.36-.66.73-1.23,1.09-1.82l1.55-2.35h2.16l-3.76,5.33,3.87,5.7h-2.28l-1.62-2.48c-.43-.64-.8-1.25-1.18-1.91h0c-.36.66-.75,1.25-1.16,1.91l-1.59,2.48h-2.21l3.92-5.63-3.74-5.4Z" transform="translate(-18.83 -15.5)"/><path class="cls-5" d="M135.42,342.82c0-1.41,0-2.55-.09-3.6h1.8l.09,1.89h0a4.34,4.34,0,0,1,3.92-2.14c2.67,0,4.67,2.25,4.67,5.6,0,4-2.41,5.92-5,5.92a3.87,3.87,0,0,1-3.39-1.73h0v6h-2Zm2,2.94a4.47,4.47,0,0,0,.09.82,3.09,3.09,0,0,0,3,2.35c2.12,0,3.35-1.73,3.35-4.26,0-2.21-1.16-4.1-3.28-4.1a3.2,3.2,0,0,0-3,2.48,3.25,3.25,0,0,0-.14.82Z" transform="translate(-18.83 -15.5)"/><path class="cls-5" d="M148.38,334.07h2v16.17h-2Z" transform="translate(-18.83 -15.5)"/><path class="cls-5" d="M163.74,344.64c0,4.08-2.82,5.86-5.49,5.86-3,0-5.29-2.19-5.29-5.67,0-3.69,2.41-5.85,5.47-5.85S163.74,341.27,163.74,344.64Zm-8.75.11c0,2.42,1.39,4.24,3.35,4.24s3.35-1.8,3.35-4.28c0-1.87-.93-4.24-3.3-4.24S155,342.66,155,344.76Z" transform="translate(-18.83 -15.5)"/><path class="cls-5" d="M166.27,342.66c0-1.3,0-2.42-.09-3.44h1.75l.07,2.16h.09a3.31,3.31,0,0,1,3.05-2.41,2.15,2.15,0,0,1,.57.07v1.89a3,3,0,0,0-.68-.07,2.81,2.81,0,0,0-2.69,2.57,5.6,5.6,0,0,0-.09.93v5.88h-2Z" transform="translate(-18.83 -15.5)"/><path class="cls-5" d="M179.71,350.25l-.16-1.39h-.07a4.11,4.11,0,0,1-3.37,1.64,3.14,3.14,0,0,1-3.37-3.17c0-2.67,2.37-4.12,6.63-4.1V343a2.27,2.27,0,0,0-2.51-2.55,5.49,5.49,0,0,0-2.87.82l-.46-1.32a6.84,6.84,0,0,1,3.62-1c3.37,0,4.19,2.3,4.19,4.51v4.12a15.52,15.52,0,0,0,.18,2.64Zm-.3-5.63c-2.19,0-4.67.34-4.67,2.48a1.77,1.77,0,0,0,1.89,1.91,2.74,2.74,0,0,0,2.67-1.84,2.1,2.1,0,0,0,.11-.64Z" transform="translate(-18.83 -15.5)"/><path class="cls-5" d="M186.91,336.06v3.17h2.87v1.53h-2.87v5.95c0,1.37.39,2.14,1.5,2.14a4.46,4.46,0,0,0,1.16-.14l.09,1.5a4.89,4.89,0,0,1-1.78.27,2.78,2.78,0,0,1-2.16-.84,4.08,4.08,0,0,1-.77-2.87v-6h-1.71v-1.53H185v-2.64Z" transform="translate(-18.83 -15.5)"/><path class="cls-5" d="M201.88,344.64c0,4.08-2.82,5.86-5.49,5.86-3,0-5.29-2.19-5.29-5.67,0-3.69,2.42-5.85,5.47-5.85S201.88,341.27,201.88,344.64Zm-8.75.11c0,2.42,1.39,4.24,3.35,4.24s3.35-1.8,3.35-4.28c0-1.87-.93-4.24-3.3-4.24S193.13,342.66,193.13,344.76Z" transform="translate(-18.83 -15.5)"/><path class="cls-5" d="M204.41,342.66c0-1.3,0-2.42-.09-3.44h1.75l.07,2.16h.09a3.31,3.31,0,0,1,3.05-2.41,2.16,2.16,0,0,1,.57.07v1.89a3,3,0,0,0-.68-.07,2.81,2.81,0,0,0-2.69,2.57,5.6,5.6,0,0,0-.09.93v5.88h-2Z" transform="translate(-18.83 -15.5)"/><path class="cls-5" d="M213.16,339.22l2.41,6.52c.25.73.52,1.59.71,2.26h0c.21-.66.43-1.5.71-2.3l2.19-6.47h2.12l-3,7.86c-1.43,3.78-2.42,5.72-3.78,6.9a5.44,5.44,0,0,1-2.46,1.3l-.5-1.69a5.3,5.3,0,0,0,1.75-1,6.07,6.07,0,0,0,1.69-2.23,1.44,1.44,0,0,0,.16-.48,1.73,1.73,0,0,0-.14-.52L211,339.22Z" transform="translate(-18.83 -15.5)"/><path class="cls-5" d="M227.78,347.83a7,7,0,0,0,3.55,1c2,0,3.21-1.07,3.21-2.62s-.82-2.26-2.89-3.05c-2.51-.89-4.06-2.19-4.06-4.35,0-2.39,2-4.17,5-4.17a7,7,0,0,1,3.39.75l-.55,1.62a6.11,6.11,0,0,0-2.92-.73c-2.1,0-2.89,1.25-2.89,2.3,0,1.44.93,2.14,3.05,3,2.6,1,3.92,2.25,3.92,4.51s-1.75,4.42-5.38,4.42a7.93,7.93,0,0,1-3.92-1Z" transform="translate(-18.83 -15.5)"/><path class="cls-5" d="M240.47,345.1a3.53,3.53,0,0,0,3.78,3.83,7.26,7.26,0,0,0,3.05-.57l.34,1.43a8.92,8.92,0,0,1-3.67.68c-3.39,0-5.42-2.23-5.42-5.56s2-5.95,5.17-5.95c3.6,0,4.56,3.17,4.56,5.19a7.63,7.63,0,0,1-.07.93Zm5.88-1.44c0-1.28-.52-3.26-2.78-3.26-2,0-2.92,1.87-3.08,3.26Z" transform="translate(-18.83 -15.5)"/><path class="cls-5" d="M256.88,350.25l-.16-1.39h-.07a4.11,4.11,0,0,1-3.37,1.64,3.14,3.14,0,0,1-3.37-3.17c0-2.67,2.37-4.12,6.63-4.1V343a2.27,2.27,0,0,0-2.51-2.55,5.48,5.48,0,0,0-2.87.82L250.7,340a6.84,6.84,0,0,1,3.62-1c3.37,0,4.19,2.3,4.19,4.51v4.12a15.52,15.52,0,0,0,.18,2.64Zm-.3-5.63c-2.19,0-4.67.34-4.67,2.48A1.77,1.77,0,0,0,253.8,349a2.74,2.74,0,0,0,2.67-1.84,2.1,2.1,0,0,0,.11-.64Z" transform="translate(-18.83 -15.5)"/><path class="cls-5" d="M261.75,342.66c0-1.3,0-2.42-.09-3.44h1.75l.07,2.16h.09a3.31,3.31,0,0,1,3.05-2.41,2.15,2.15,0,0,1,.57.07v1.89a3,3,0,0,0-.68-.07,2.81,2.81,0,0,0-2.69,2.57,5.6,5.6,0,0,0-.09.93v5.88h-2Z" transform="translate(-18.83 -15.5)"/><path class="cls-5" d="M276.83,349.84a7.38,7.38,0,0,1-3.17.64,5.24,5.24,0,0,1-5.49-5.63A5.6,5.6,0,0,1,274.1,339a6.7,6.7,0,0,1,2.78.57l-.46,1.55a4.65,4.65,0,0,0-2.32-.52c-2.53,0-3.9,1.87-3.9,4.17a3.78,3.78,0,0,0,3.83,4.12,5.69,5.69,0,0,0,2.46-.55Z" transform="translate(-18.83 -15.5)"/><path class="cls-5" d="M279.18,334.07h2V341h0a3.72,3.72,0,0,1,1.44-1.41,4.13,4.13,0,0,1,2.05-.57c1.48,0,3.85.91,3.85,4.71v6.56h-2v-6.33c0-1.78-.66-3.28-2.55-3.28a2.88,2.88,0,0,0-2.69,2,2.42,2.42,0,0,0-.14,1v6.65h-2Z" transform="translate(-18.83 -15.5)"/><path class="cls-8" d="M297.41,210.35c-1.53-6.37-13.55-58.84-13.75-60.34-.42-3.17.11-4.74-.19-6.65s-1.6-6.8-2-8.18a12.82,12.82,0,0,0-3.78-5.5c-2.25-2-3.78-4.43-5-5.54a19.9,19.9,0,0,1-2.9-3.36c-.65-1-2-1-2.25,0a7.24,7.24,0,0,0,.5,4.13,14,14,0,0,0,2,3.32l-6.69-5.66-1.18-3.29a2.34,2.34,0,0,0-1.41.69c-.42.57-1.57,3.55-1.38,4.7s.42,1.38.42,1.38a3.49,3.49,0,0,0-.44,2.29,11.81,11.81,0,0,0,1.55,3.32s-.46.61.23,2.87A26.87,26.87,0,0,1,262,139a7.52,7.52,0,0,0-.19,3.44c.38,1.6,2.06,3.59,4,5.85s3,3.82,4.13,4.7c0,13,2.71,61.86,4.29,67.5s11.52,8.09,21,2C299.81,219.93,298.93,216.72,297.41,210.35Z" transform="translate(-18.83 -15.5)"/><path class="cls-11" d="M278.34,133.5a8.67,8.67,0,0,0-2-1.44c-.7-.39-1.43-.74-2.18-1.08s-1.5-.71-2.22-1.14a6.76,6.76,0,0,1-2-1.61c.76.38,1.52.66,2.28,1s1.54.6,2.3,1a11.33,11.33,0,0,1,2.19,1.32A4.6,4.6,0,0,1,278.34,133.5Z" transform="translate(-18.83 -15.5)"/><path class="cls-11" d="M266.23,133a22.18,22.18,0,0,1-3.57-3.19,21.92,21.92,0,0,1-2.89-3.81,21.92,21.92,0,0,1,3.57,3.19A22.18,22.18,0,0,1,266.23,133Z" transform="translate(-18.83 -15.5)"/><path class="cls-11" d="M265.24,139a7,7,0,0,1-1.61-1.51,4.52,4.52,0,0,1-.61-1c-.13-.32-.28-.61-.44-.93a24.24,24.24,0,0,1-1.7-4,14.27,14.27,0,0,1,2.52,3.54,8.62,8.62,0,0,1,.43,1,6.27,6.27,0,0,0,.39.91C264.55,137.76,264.91,138.38,265.24,139Z" transform="translate(-18.83 -15.5)"/><path class="cls-11" d="M263.63,142.1A3.16,3.16,0,0,1,262,139a3.54,3.54,0,0,1,1.16,1.34A3.66,3.66,0,0,1,263.63,142.1Z" transform="translate(-18.83 -15.5)"/><path class="cls-5" d="M262.14,119.29l-.71-1.92,4.18-1.38,1.8,5.65a10.23,10.23,0,0,0,2.23,6.27l-6.31-5.34Z" transform="translate(-18.83 -15.5)"/><path class="cls-5" d="M259.29,87.52a15.25,15.25,0,1,0,15.25,15.25A15.25,15.25,0,0,0,259.29,87.52Zm0,26.77a11.52,11.52,0,1,1,11.52-11.52A11.52,11.52,0,0,1,259.29,114.29Z" transform="translate(-18.83 -15.5)"/><path class="cls-6" d="M395.16,254.05c-7.43-24.28,9.85-35-.5-46.08-5.94-6.35-13.68-8-29.48-13.48-17.49-6-36.2,3.69-42.94,5.69-9.66,2.87-15.17,5.14-24.2-4.95-2.49-2.78-24.19,24.35-19.28,31.57,3.1,4.56,32.14,21.35,36,24.82,3.28,10.05,6.73,22,8.79,29.35,1.14,4.06,4.85,6.16,9,7.13,16,3.79,35.13,3.71,48.25,3.78,4.42,0,9.15-.14,13.18-.35A9.4,9.4,0,0,0,402.78,281C401.76,272.84,397.17,260.65,395.16,254.05Z" transform="translate(-18.83 -15.5)"/><path class="cls-6" d="M290,86.95a8.79,8.79,0,1,1,8.79-8.79A8.8,8.8,0,0,1,290,86.95Zm0-15.58a6.79,6.79,0,1,0,6.79,6.79A6.8,6.8,0,0,0,290,71.36Z" transform="translate(-18.83 -15.5)"/><path class="cls-6" d="M300.21,89.8a1,1,0,0,1-.69-.27l-5-4.79a1,1,0,0,1,1.38-1.45l5,4.79a1,1,0,0,1-.69,1.73Z" transform="translate(-18.83 -15.5)"/></svg>